<svg width="43" height="39" viewBox="0 0 43 39" fill="none" xmlns="http://www.w3.org/2000/svg">
<path d="M21.4987 11.3857C24.3447 11.3857 26.6575 8.83099 26.6575 5.69447C26.6575 2.55796 24.3447 0 21.4987 0C18.6526 0 16.3398 2.55471 16.3398 5.69122C16.3398 8.82774 18.6556 11.3824 21.4987 11.3824V11.3857ZM21.4987 2.27194C23.2104 2.27194 24.601 3.80607 24.601 5.69447C24.601 7.58288 23.2104 9.11701 21.4987 9.11701C19.7869 9.11701 18.3963 7.58288 18.3963 5.69447C18.3963 3.80607 19.7869 2.27194 21.4987 2.27194Z" fill="#2A3B4E"/>
<path d="M32.6583 36.7314H10.3407C9.77211 36.7314 9.3125 37.2385 9.3125 37.8658C9.3125 38.4931 9.77211 39.0001 10.3407 39.0001H32.6583C33.2269 39.0001 33.6865 38.4931 33.6865 37.8658C33.6865 37.2385 33.2269 36.7314 32.6583 36.7314Z" fill="#2A3B4E"/>
<path d="M41.9718 20.3662H40.9936L37.6261 11.0509C38.0032 10.8819 38.2713 10.4724 38.2684 9.9946C38.2654 9.37055 37.8058 8.86676 37.2401 8.86676H37.2343C28.9996 8.92852 24.265 11.3857 21.5604 13.9404C18.8734 11.35 14.1212 8.82126 5.76869 8.7595C5.20891 8.7075 4.73751 9.26004 4.73162 9.88735C4.73162 10.1604 4.82884 10.4041 4.97321 10.6024L1.97691 19.9697H1.02823C0.459609 19.9697 0 20.4767 0 21.104C0 24.9979 2.87256 28.1669 6.40212 28.1669C9.93169 28.1669 12.8042 24.9979 12.8042 21.104C12.8042 20.4767 12.3446 19.9697 11.776 19.9697H10.7979L7.58945 11.0932C14.1389 11.4637 17.9366 13.5016 20.105 15.5428C18.4904 17.6425 18.1015 19.4691 18.0662 19.6479C18.0515 19.7259 18.0426 19.8072 18.0426 19.8852V33.3316H14.4895C13.9209 33.3316 13.4613 33.8386 13.4613 34.4659C13.4613 35.0932 13.9209 35.6002 14.4895 35.6002H28.5105C29.0791 35.6002 29.5387 35.0932 29.5387 34.4659C29.5387 33.8386 29.0791 33.3316 28.5105 33.3316H24.9574V19.7747C24.9574 19.6934 24.9485 19.6154 24.9338 19.5374C24.8985 19.3619 24.5243 17.6067 22.9923 15.5623C25.143 13.5829 28.8346 11.6295 35.0982 11.22L32.1727 20.3662H31.224C30.6554 20.3662 30.1957 20.8733 30.1957 21.5006C30.1957 25.3944 33.0683 28.5634 36.5979 28.5634C40.1274 28.5634 43 25.3944 43 21.5006C43 20.8733 42.5404 20.3662 41.9718 20.3662ZM6.39918 25.8982C4.35745 25.8982 2.63981 24.3381 2.17725 22.2384H10.6211C10.1585 24.3348 8.4409 25.8982 6.39918 25.8982ZM4.15711 19.9697L6.23419 13.4756L8.57938 19.9697H4.15711ZM20.102 33.3316V20.0249C20.1934 19.6674 20.541 18.5233 21.5398 17.1712C22.4796 18.4811 22.8125 19.5764 22.9009 19.9144V33.3283H20.102V33.3316ZM36.4329 13.8754L38.7781 20.3662H34.3558L36.4329 13.8754ZM36.5979 26.2947C34.5561 26.2947 32.8385 24.7346 32.3759 22.6349H40.8198C40.3572 24.7313 38.6396 26.2947 36.5979 26.2947Z" fill="#2A3B4E"/>
</svg>
