<svg width="72" height="72" viewBox="0 0 72 72" fill="none" xmlns="http://www.w3.org/2000/svg">
<g filter="url(#filter0_iii_144_559)">
<path fill-rule="evenodd" clip-rule="evenodd" d="M0 0.000869486C0.0597534 0.000288179 0.119881 -3.14198e-06 0.18 -3.13935e-06C9.32004 -2.73983e-06 16.8851 6.74517 18.1681 15.5294C19.3723 6.75723 26.897 -1.97151e-06 36 -1.57361e-06C45.9411 -1.13907e-06 54 8.05889 54 18L54 18.18C54 8.19954 62.0424 0.097458 72 0.000872633L72 71.9993C62.0424 71.9024 54 63.8006 54 53.82L54 54C54 63.941 45.9411 72 36 72C26.897 72 19.3723 65.2428 18.1681 56.4707C16.8851 65.2547 9.32003 72 0.179997 72C0.119878 72 0.0597503 71.9996 -3.14719e-06 71.9993L0 0.000869486Z" fill="#2A3B4E"/>
</g>
<defs>
<filter id="filter0_iii_144_559" x="-5" y="-5" width="82" height="82" filterUnits="userSpaceOnUse" color-interpolation-filters="sRGB">
<feFlood flood-opacity="0" result="BackgroundImageFix"/>
<feBlend mode="normal" in="SourceGraphic" in2="BackgroundImageFix" result="shape"/>
<feColorMatrix in="SourceAlpha" type="matrix" values="0 0 0 0 0 0 0 0 0 0 0 0 0 0 0 0 0 0 127 0" result="hardAlpha"/>
<feOffset/>
<feGaussianBlur stdDeviation="5"/>
<feComposite in2="hardAlpha" operator="arithmetic" k2="-1" k3="1"/>
<feColorMatrix type="matrix" values="0 0 0 0 1 0 0 0 0 1 0 0 0 0 1 0 0 0 0.5 0"/>
<feBlend mode="normal" in2="shape" result="effect1_innerShadow_144_559"/>
<feColorMatrix in="SourceAlpha" type="matrix" values="0 0 0 0 0 0 0 0 0 0 0 0 0 0 0 0 0 0 127 0" result="hardAlpha"/>
<feOffset dx="5" dy="5"/>
<feGaussianBlur stdDeviation="5"/>
<feComposite in2="hardAlpha" operator="arithmetic" k2="-1" k3="1"/>
<feColorMatrix type="matrix" values="0 0 0 0 0.666667 0 0 0 0 0.666667 0 0 0 0 0.8 0 0 0 0.6 0"/>
<feBlend mode="normal" in2="effect1_innerShadow_144_559" result="effect2_innerShadow_144_559"/>
<feColorMatrix in="SourceAlpha" type="matrix" values="0 0 0 0 0 0 0 0 0 0 0 0 0 0 0 0 0 0 127 0" result="hardAlpha"/>
<feOffset dx="-5" dy="-5"/>
<feGaussianBlur stdDeviation="5"/>
<feComposite in2="hardAlpha" operator="arithmetic" k2="-1" k3="1"/>
<feColorMatrix type="matrix" values="0 0 0 0 1 0 0 0 0 1 0 0 0 0 1 0 0 0 1 0"/>
<feBlend mode="normal" in2="effect2_innerShadow_144_559" result="effect3_innerShadow_144_559"/>
</filter>
</defs>
</svg>
