<svg width="127" height="80" viewBox="0 0 127 80" fill="none" xmlns="http://www.w3.org/2000/svg">
<g clip-path="url(#clip0_1957_8568)">
<path d="M16.8048 74.7077C18.1431 74.7376 18.3642 75.66 18.0235 76.4166L17.5858 77.3906C17.4155 77.7639 17.4399 77.744 16.9489 77.7449L1.37689 77.7177L0.0703125 79.9992L24.5482 79.9567L27.0481 75.2296C27.8373 73.5805 27.0635 72.2377 25.0909 72.1988L15.2246 72.2241C14.3565 72.2232 13.9488 71.4105 14.2134 70.7037L14.6247 69.6046C14.8295 69.061 14.8322 69.0954 15.3958 69.0918L30.2755 69.0402L31.5803 66.6562L10.1858 66.6662C8.19245 66.6717 6.86323 68.1368 6.34313 69.0538L5.25583 70.9574C4.30897 72.611 4.93236 74.744 7.62977 74.695L16.8048 74.7077ZM58.4511 66.6635H77.5867C79.2322 66.6635 80.035 68.4965 79.157 70.0051L74.642 77.7639C73.9262 78.9926 72.3305 79.9974 71.1037 79.9974L51.9572 79.9902C50.2964 79.9902 49.2707 78.516 50.1315 77.0472L54.912 68.8943C55.6323 67.6683 57.2225 66.6635 58.4511 66.6635ZM68.9744 69.0855H64.0571C63.4944 69.0855 62.7741 69.5467 62.4542 70.1084L59.0492 76.143C58.6151 76.9122 59.1552 77.7467 59.9426 77.7467H65.0538C65.6165 77.7467 66.3368 77.2855 66.6548 76.7228L69.982 70.8306C70.541 69.8375 69.8859 69.0855 68.9744 69.0855ZM89.6757 66.6617H98.2364L90.5021 79.9974H81.9387L89.6757 66.6617Z" fill="black"/>
<path d="M80.6752 69.1365L82.0461 66.6629H104.306L102.934 69.1374L96.7944 69.1401L90.4953 79.9986H81.9319L88.2473 69.112L80.6752 69.1365ZM105.051 69.0839L106.242 66.6674L126.512 66.6629L125.14 69.1374L119.002 69.1401L112.702 79.9986H104.139L110.454 69.112L105.051 69.0839ZM32.9028 68.9825C33.7871 67.269 35.3863 66.6756 37.2574 66.6602H53.6612L52.1697 69.0722L42.5027 69.0812C41.8232 69.1012 41.1191 69.5569 40.9506 69.913L37.5211 75.7128C37.0037 76.6226 37.3852 77.7325 38.8739 77.7434L47.3639 77.7678L46.1162 79.9905L30.0051 79.9723C28.4476 79.9986 27.6801 78.2916 28.492 76.937L32.9028 68.9825Z" fill="black"/>
<path d="M80.4513 0.3518L74.1486 11.1469L63.1723 11.3055C61.3284 11.4296 60.3607 11.638 59.4174 13.1946L55.3673 20.6798C54.4702 22.4159 54.6732 24.0586 55.312 25.3788L58.1589 30.9104C59.5769 32.9355 59.7065 36.1593 58.8539 37.9733L52.7813 47.8651L42.0496 29.4299C41.0874 27.1039 41.2604 22.0598 43.2964 18.6846L52.1606 3.30382C53.6058 0.899075 55.2322 0.00023894 59.055 0.0745379L80.4513 0.3518Z" fill="#8FA3AD"/>
<path d="M46.5 58.8544L52.7792 47.8627H63.8397C65.6909 47.7368 66.6613 47.5284 67.6072 45.9654L71.6692 38.4539C72.5699 36.7115 72.3678 35.0633 71.7254 33.7396L68.8694 28.188C67.4469 26.1547 67.3173 22.9209 68.1735 21.1006L74.1465 11.1445L85.0376 29.6731C86.0007 32.0071 85.8286 37.0685 83.7854 40.4564L74.8913 55.8897C73.4406 58.3026 71.8097 59.2051 67.9706 59.1308L46.5 58.8544Z" fill="black"/>
</g>
<defs>
<clipPath id="clip0_1957_8568">
<rect width="126.582" height="80" fill="white"/>
</clipPath>
</defs>
</svg>
