<svg width="146" height="80" viewBox="0 0 146 80" fill="none" xmlns="http://www.w3.org/2000/svg">
<path fill-rule="evenodd" clip-rule="evenodd" d="M38.9298 26.9522V41.4978L42.7805 45.7755H39.7849C39.3568 46.2036 38.9298 46.2036 38.9298 46.6317V70.1608L42.7805 71.017V49.1992H47.0582C47.4863 49.1992 47.4863 49.1992 47.4863 48.7711V44.9215L41.9254 38.5032V17.9687C41.9254 17.9687 41.9254 17.5405 41.4973 17.5405H32.5126C32.0845 17.5405 32.0845 17.9687 31.6575 18.3968V26.9522L24.3853 18.3968H23.5291L0 44.9204V48.3419C0 49.1981 0.428108 49.1981 0.856214 49.1981H4.70694V69.3046H8.55766V46.6317C8.12955 45.7755 8.12955 45.7755 7.70145 45.7755H4.70694L23.5302 23.9577H23.9583C27.3809 27.8073 30.8036 31.658 33.7981 35.5076C34.2262 35.5076 34.6543 35.5076 35.0813 35.0795V20.5351H38.932V26.9522H38.9298ZM94.1164 71.0159V16.6855C94.1164 15.4022 94.1164 14.9741 94.5434 14.1179C95.3996 13.6898 95.8277 13.2617 96.6839 13.2617H141.603C142.459 13.6898 143.314 14.1179 143.741 14.5449C144.17 14.973 144.17 15.4011 144.599 16.2562V70.1597L141.177 69.7316V16.2573H97.5401V70.5878L94.1164 71.0159Z" fill="#3E73B0"/>
<path fill-rule="evenodd" clip-rule="evenodd" d="M102.666 23.5302H109.085C110.367 23.9583 110.367 24.3864 110.794 25.2415V32.0868H107.8L108.229 26.0966H102.666V23.5302ZM114.646 23.5302H121.49C122.346 23.9583 122.772 24.3864 122.772 25.2415V32.0868H120.207V26.0966H114.646V23.5302ZM127.48 23.5302H133.897C135.179 23.9583 135.179 24.3864 135.609 25.2415V32.0868H133.041V26.0966H127.48V23.5302ZM102.666 38.5028H109.085C110.367 38.9309 110.367 38.9309 110.794 40.2141V47.0582H107.8L108.229 41.0692H102.666V38.5028ZM114.646 38.5028H121.49C122.346 38.9309 122.772 38.9309 122.772 40.2141V47.0582H120.207V41.0692H114.646V38.5028ZM127.48 38.5028H133.897C135.179 38.9309 135.179 38.9309 135.609 40.2141V47.0582H133.041V41.0692H127.48V38.5028ZM102.666 52.6202H109.085C110.367 53.0483 110.367 53.4764 110.794 54.3315V61.1768H107.8L108.229 55.1866H102.666V52.6202ZM114.646 52.6202H121.49C122.346 53.0483 122.772 53.4764 122.772 54.3315V61.1768H120.207V55.1866H114.646V52.6202ZM127.48 52.6202H133.897C135.179 53.0483 135.179 53.4764 135.609 54.3315V61.1768H133.041V55.1866H127.48V52.6202ZM25.2343 47.4863H31.6514C32.9346 47.4863 33.3627 47.9144 33.3627 49.1976V56.0429H30.7952V50.0538H25.2343V47.4863ZM12.8281 47.4863H19.2453C20.5285 47.4863 20.5285 47.9144 20.9566 49.1976V68.8771H18.3902V50.0538H12.8281V47.4863ZM50.9028 71.4435V2.99451C51.3298 2.13942 51.3298 1.71131 51.7579 0.856214C52.186 0.428108 53.0411 0 53.4692 0H86.4111C87.2673 0 88.1224 0.428108 88.5494 0.856214C88.9763 1.71243 88.9763 2.13942 89.4056 2.99451V71.4435L85.983 71.8716V2.99451H81.2771V72.2986H79.1388V2.99451H74.4308V73.5807H72.7206V2.99451H68.0148V73.5807H65.8765V2.99451H61.1695V72.2986H59.0312V2.99451H54.3254V71.8716L50.9028 71.4435Z" fill="#3E73B0"/>
<path fill-rule="evenodd" clip-rule="evenodd" d="M130.479 71.4453C123.633 71.4453 115.079 72.3004 109.944 73.1566C104.811 74.0128 91.9777 76.1511 87.2719 76.1511C82.5639 76.5804 77.003 77.0074 73.5803 77.0074C70.5869 77.0074 65.0249 76.5804 60.3191 76.1511C55.6133 76.1511 42.7801 74.0128 37.6462 73.1566C32.5123 72.3004 23.9557 71.4453 17.1116 71.4453C9.83938 71.4453 1.71094 73.5825 1.71094 73.5825V77.4343C1.71094 77.4343 11.1226 74.4398 17.1116 74.4398C22.6736 74.4398 32.9404 75.7219 36.79 76.1489C40.2126 76.5781 50.0523 78.2894 59.464 79.1457C66.3092 80.0019 72.2982 80.0019 73.5803 80.0019C75.2916 80.0019 81.2818 80.0019 88.1281 79.1457C97.5387 78.2894 107.38 76.5781 110.8 76.1489C114.652 75.7219 124.489 74.4398 130.479 74.4398C136.47 74.4398 145.88 77.4343 145.88 77.4343V73.5825C145.88 73.5836 137.752 71.4453 130.479 71.4453Z" fill="#3E73B0"/>
</svg>
