<svg width="232" height="80" viewBox="0 0 232 80" fill="none" xmlns="http://www.w3.org/2000/svg">
<path fill-rule="evenodd" clip-rule="evenodd" d="M172.449 66.1037L171.331 63.4371L170.237 66.1037C170.675 66.1247 170.801 66.1247 171.342 66.1247C171.82 66.1234 172.001 66.1234 172.449 66.1037L172.694 66.7087L172.375 66.6981H170.282L170.007 66.7087C169.847 67.1331 169.518 67.7724 169.518 68.2271C169.518 68.4077 169.698 68.4723 170.347 68.4921V68.9402C169.947 68.9132 169.546 68.8987 169.145 68.8967C168.764 68.8967 168.54 68.9073 167.935 68.9402V68.4921C168.455 68.471 168.54 68.4407 168.689 68.152C169.018 67.4824 169.304 66.793 169.593 66.1023L171.432 61.597H172.186L174.53 67.166C174.873 67.9622 175.043 68.322 175.128 68.3866C175.212 68.4512 175.403 68.4815 175.754 68.4921V68.9402C175.205 68.9071 174.656 68.8926 174.106 68.8967C173.301 68.8967 173.087 68.9073 172.45 68.9402V68.4921C172.566 68.4815 172.661 68.4815 172.715 68.4815C173.161 68.471 173.256 68.4301 173.256 68.2706C173.256 68.0255 172.821 67.029 172.694 66.7087L172.449 66.1037ZM130.553 66.1037L129.438 63.4371L128.344 66.1037C128.779 66.1247 128.905 66.1247 129.448 66.1247C129.924 66.1234 130.108 66.1234 130.553 66.1037L130.798 66.7087L130.479 66.6981H128.386L128.111 66.7087C127.951 67.1331 127.622 67.7724 127.622 68.2271C127.622 68.4077 127.802 68.4723 128.451 68.4921V68.9402C128.05 68.9132 127.65 68.8987 127.249 68.8967C126.868 68.8967 126.644 68.9073 126.038 68.9402V68.4921C126.559 68.471 126.644 68.4407 126.792 68.152C127.122 67.4824 127.408 66.793 127.697 66.1023L129.535 61.597H130.289L132.637 67.166C132.977 67.9622 133.147 68.322 133.231 68.3866C133.316 68.4512 133.507 68.4815 133.858 68.4921V68.9402C133.31 68.9071 132.761 68.8926 132.213 68.8967C131.405 68.8967 131.191 68.9073 130.554 68.9402V68.4921C130.67 68.4815 130.765 68.4815 130.819 68.4815C131.265 68.471 131.362 68.4301 131.362 68.2706C131.362 68.0255 130.925 67.029 130.798 66.7087L130.553 66.1037ZM58.9771 69.3857L65.6981 58.3281H1.96094V69.3857H58.9771Z" fill="black"/>
<path fill-rule="evenodd" clip-rule="evenodd" d="M35.5652 71.1291C55.2077 71.1291 71.1304 55.2064 71.1304 35.5652C71.1304 15.9241 55.2077 0 35.5652 0C15.9241 0 0 15.9241 0 35.5652C0 55.2064 15.9228 71.1291 35.5652 71.1291Z" fill="black"/>
<path fill-rule="evenodd" clip-rule="evenodd" d="M35.562 68.831C53.9338 68.831 68.8271 53.9377 68.8271 35.5659C68.8271 17.1941 53.9338 2.30078 35.562 2.30078C17.1902 2.30078 2.29688 17.1941 2.29688 35.5659C2.29688 53.9377 17.1902 68.831 35.562 68.831Z" fill="white"/>
<path fill-rule="evenodd" clip-rule="evenodd" d="M74.6681 44.9308H77.8975L83.8132 52.5284H83.8461V44.9308H87.0755V57.3553H83.8461L77.9304 49.7432H77.8975V57.3553H74.6681V44.9308ZM108.544 47.4022H108.856C109.91 47.4022 111.097 47.6 111.097 48.9523C111.097 50.3047 109.91 50.4998 108.856 50.4998H108.544V52.5771H108.575L111.623 57.3553H115.644L111.739 52.2634C113.501 51.9523 114.457 50.4695 114.457 48.7546C114.457 46.0999 112.594 44.9321 110.14 44.9321H105.313V57.3566H108.544V47.4022ZM123.172 57.3553H119.941V47.6645H117.272V44.9308H125.842V47.6645H123.172V57.3553ZM135.791 49.7247V44.9308H139.021V57.3553H135.791V52.2634H131.129V57.3553H127.899V44.9308H131.129V49.7247H135.791ZM147.208 52.9554H147.241L149.844 44.9308H152.415L154.853 52.9554H154.887L157.227 44.9308H160.586L156.616 57.3553H153.321L151.146 50.1544H151.112L148.675 57.3553H145.395L141.687 44.9308H145.05L147.208 52.9554ZM165.581 47.6645V49.7432H169.221V52.477H165.581V54.6189H169.419V57.3553H162.35V44.9308H169.419V47.6645H165.581ZM179.099 48.1285C178.505 47.6342 177.748 47.3047 176.957 47.3047C176.363 47.3047 175.572 47.65 175.572 48.342C175.572 49.0683 176.445 49.3465 177.006 49.5283L177.83 49.7761C179.559 50.2863 180.893 51.1588 180.893 53.169C180.893 54.4053 180.597 55.6734 179.608 56.5156C178.638 57.3395 177.334 57.6848 176.081 57.6848C174.515 57.6848 172.983 57.1576 171.715 56.2665L173.101 53.6632C173.909 54.3711 174.864 54.9484 175.969 54.9484C176.725 54.9484 177.535 54.5701 177.535 53.6975C177.535 52.7907 176.265 52.477 175.573 52.2819C173.547 51.7032 172.211 51.1773 172.211 48.7704C172.211 46.2502 174.007 44.6026 176.497 44.6026C177.748 44.6026 179.28 44.9993 180.384 45.6241L179.099 48.1285ZM188.236 57.3553H185.007V47.6645H182.338V44.9308H190.906V47.6645H188.236V57.3553ZM96.5105 47.65C98.4389 47.65 100.021 49.216 100.021 50.9295C100.021 53.0714 98.4389 54.636 96.5105 54.636C94.5834 54.636 93.0004 53.0701 93.0004 50.9295C93.0017 49.2146 94.5834 47.65 96.5105 47.65V44.5195C92.9345 44.5195 89.6392 47.1557 89.6392 50.9124C89.6392 54.9339 92.5232 57.7678 96.5105 57.7678C100.498 57.7678 103.382 54.9339 103.382 50.9124C103.382 47.1557 100.087 44.5195 96.5105 44.5195V47.65ZM40.6319 75.2657C41.2106 75.2657 41.95 75.6256 41.6455 77.0623C41.5715 77.4595 41.4114 77.8357 41.1763 78.1643L40.74 77.6568L40.0665 78.2354L40.4777 78.7218C40.287 78.811 40.0792 78.8578 39.8687 78.8589C39.2901 78.8589 38.5506 78.4991 38.8551 77.0623C39.1596 75.6256 40.0519 75.2657 40.6319 75.2657L40.8244 74.3589C40.1442 74.3589 38.2936 74.6528 37.7808 77.0623C37.2694 79.4718 38.9948 79.7658 39.675 79.7658C40.1585 79.762 40.6344 79.6446 41.0643 79.4231L41.5493 80.0017L42.2374 79.4231L41.7919 78.8932C42.1912 78.4938 42.5379 77.9072 42.7172 77.0623C43.2299 74.6528 41.5045 74.3589 40.8244 74.3589L40.6319 75.2657ZM48.9334 77.8347C48.646 79.1858 47.7075 79.7658 46.4118 79.7658C45.9399 79.7658 45.2624 79.6524 44.9131 79.1449C44.7009 78.8286 44.6825 78.4134 44.7774 77.8993L45.501 74.4933H46.5964L45.8872 77.8268C45.7356 78.5426 46.0836 78.8589 46.5845 78.8589C47.3213 78.8589 47.6983 78.4991 47.8301 77.8782L48.5485 74.4933H49.6438L48.9334 77.8347ZM52.2708 78.5716L51.6882 79.6313H50.5586L53.4808 74.4933H54.7185L55.4369 79.6313H54.2704L54.1663 78.5716L54.0542 77.6858L53.8499 75.6546H53.8354L52.7453 77.6858H54.0542L54.1663 78.5716H52.2708ZM58.6953 78.6994H61.2485L61.0507 79.6313H57.4233L58.516 74.4933H59.5876L58.6953 78.6994ZM64.3539 79.6313H63.2797L64.3711 74.4933H65.4453L64.3539 79.6313ZM68.7828 79.6313H67.7098L68.6075 75.4015H67.0547L67.2485 74.4933H71.4256L71.2331 75.4015H69.6804L68.7828 79.6313ZM74.7367 79.6313H73.6637L74.075 77.6937L72.9809 74.4933H74.2477L74.8382 76.7249L76.3289 74.4933H77.5442L75.1453 77.7056L74.7367 79.6313ZM82.3 78.0483C82.2459 78.3369 82.2736 78.88 83.2108 78.88C83.7183 78.88 84.3101 78.7561 84.4248 78.213C84.5091 77.8136 84.1466 77.7056 83.6299 77.5777L83.1067 77.4485C82.3171 77.2561 81.5566 77.0702 81.7965 75.9393C81.9177 75.3646 82.4397 74.3589 84.1058 74.3589C85.6796 74.3589 85.8826 75.3883 85.7561 76.0171H84.7253C84.7464 75.7877 84.7754 75.2447 83.8382 75.2447C83.4309 75.2447 82.9129 75.3962 82.814 75.8602C82.7284 76.2622 83.0394 76.3466 83.2437 76.398L84.43 76.7038C85.0944 76.8765 85.677 77.1625 85.4819 78.0839C85.1537 79.6313 83.5509 79.7645 83.1001 79.7645C81.2257 79.7645 81.1334 78.6862 81.2679 78.047L82.3 78.0483ZM91.9459 75.4015H89.2214L88.992 76.4837H91.4951L91.3027 77.3919H88.7996L88.5162 78.7231H91.3633L91.1695 79.6313H87.2706L88.3633 74.4933H92.1397L91.9459 75.4015ZM95.4073 75.3817H96.7451C97.3752 75.3817 97.4108 75.7838 97.3528 76.054C97.2447 76.5641 96.9323 76.7565 96.3748 76.7565H95.116L94.9314 77.6212H96.0399C96.8348 77.6212 96.819 77.8914 96.6713 78.594C96.5593 79.1212 96.5448 79.3875 96.5646 79.6313H97.7522L97.7812 79.4942C97.5703 79.4072 97.6098 79.2214 97.7693 78.4701C97.9736 77.5118 97.7772 77.3549 97.395 77.1704C97.9393 76.9977 98.3282 76.5114 98.4495 75.9446C98.5444 75.5017 98.5074 74.492 97.1406 74.492H94.5439L93.4525 79.63H94.5043L95.4073 75.3817ZM103.986 74.4933H105.102L102.264 79.6313H101.241L100.602 74.4933H101.754L102.028 78.3857H102.041L103.986 74.4933ZM107.087 79.6313H106.013L107.104 74.4933H108.177L107.087 79.6313ZM113.452 76.1739C113.432 75.8681 113.39 75.2882 112.503 75.2882C111.988 75.2882 111.157 75.6309 110.848 77.0821C110.653 78.0061 110.841 78.8352 111.749 78.8352C112.344 78.8352 112.829 78.4978 113.094 77.8703H114.165C113.713 78.9855 112.818 79.7658 111.53 79.7658C110.165 79.7658 109.381 78.8444 109.758 77.0702C110.14 75.2737 111.371 74.3589 112.694 74.3589C114.232 74.3589 114.629 75.4173 114.526 76.1739H113.452ZM120.69 75.4015H117.964L117.735 76.4837H120.24L120.047 77.3919H117.542L117.261 78.7231H120.109L119.914 79.6313H116.016L117.107 74.4933H120.884L120.69 75.4015ZM126.099 78.0483C126.045 78.3369 126.073 78.88 127.01 78.88C127.518 78.88 128.107 78.7561 128.223 78.213C128.307 77.8136 127.945 77.7056 127.429 77.5777L126.905 77.4485C126.117 77.2561 125.355 77.0702 125.595 75.9393C125.718 75.3646 126.238 74.3589 127.907 74.3589C129.479 74.3589 129.683 75.3883 129.557 76.0171H128.527C128.546 75.7877 128.576 75.2447 127.639 75.2447C127.232 75.2447 126.712 75.3962 126.615 75.8602C126.53 76.2622 126.842 76.3466 127.045 76.398L128.231 76.7038C128.895 76.8765 129.476 77.1625 129.281 78.0839C128.954 79.6313 127.35 79.7645 126.9 79.7645C125.025 79.7645 124.933 78.6862 125.066 78.047L126.099 78.0483ZM131.84 79.6313H130.767L131.858 74.4933H132.933L131.84 79.6313ZM138.583 74.4933H139.584L138.492 79.6313H137.419L136.104 75.9683H136.088L135.31 79.6313H134.309L135.401 74.4933H136.531L137.808 78.072H137.823L138.583 74.4933ZM144.888 76.1739C144.867 75.8681 144.826 75.2882 143.94 75.2882C143.425 75.2882 142.594 75.6309 142.284 77.0821C142.089 78.0061 142.277 78.8352 143.186 78.8352C143.778 78.8352 144.264 78.4978 144.528 77.8703H145.601C145.15 78.9855 144.255 79.7658 142.967 79.7658C141.6 79.7658 140.817 78.8444 141.193 77.0702C141.574 75.2737 142.808 74.3589 144.131 74.3589C145.668 74.3589 146.067 75.4173 145.962 76.1739H144.888ZM152.073 75.4015H149.35L149.118 76.4837H151.622L151.43 77.3919H148.924L148.643 78.7231H151.489L151.298 79.6313H147.397L148.489 74.4933H152.265L152.073 75.4015ZM157.059 75.4331H157.203C158.168 75.4331 158.532 74.9309 158.634 74.5526H159.455L158.377 79.6326H157.376L158.119 76.1344H156.909L157.059 75.4331ZM163.053 76.2332C162.888 76.9977 163.225 77.1625 163.606 77.1625C163.957 77.1625 164.397 76.9134 164.522 76.311C164.646 75.7324 164.471 75.3738 163.956 75.3738C163.698 75.3738 163.207 75.503 163.053 76.2332L162.021 76.3743C162.285 75.1313 163.146 74.5513 164.139 74.5513C165.897 74.5513 165.524 76.4468 165.372 77.1612C164.956 79.1278 163.89 79.7645 162.974 79.7645C162.109 79.7645 161.593 79.2649 161.679 78.4569H162.673V78.4648C162.655 78.8154 162.846 78.9644 163.151 78.9644C163.565 78.9644 164.056 78.6137 164.289 77.5487L164.278 77.5329C163.975 77.8782 163.565 77.9626 163.22 77.9626C162.247 77.9626 161.84 77.2258 162.021 76.3743L163.053 76.2332ZM167.55 76.3466C167.901 74.6937 169.138 74.5526 169.589 74.5526C170.562 74.5526 171.213 75.1247 170.994 76.1542C170.808 77.0267 170.149 77.4696 169.586 77.8071C168.811 78.2776 168.412 78.507 168.247 78.7442H170.451L170.263 79.6326H166.792C166.954 79.0382 167.13 78.4147 168.402 77.6146C169.46 76.9477 169.879 76.6906 170 76.1186C170.073 75.7838 169.938 75.3976 169.452 75.3976C168.752 75.3976 168.607 75.9762 168.523 76.3479H167.55V76.3466ZM172.372 78.507L172.557 77.6423L175.08 74.5526H176.218L175.54 77.7267H176.107L175.942 78.507H175.376L175.136 79.6326H174.134L174.374 78.507L174.539 77.7267C174.801 76.4955 174.992 75.7034 175.025 75.5465H175.009L173.275 77.7267H174.539L174.374 78.507H172.372ZM227.005 76.1199V64.3782L216.905 59.111L206.694 64.3782V76.1199H227.038L229.9 79.0263H203.787V66.0693L202.156 66.0469V62.9757L216.905 55.4243L231.656 62.9757V66.0469H229.9L229.916 79.0263L227.005 76.1199Z" fill="black"/>
<path fill-rule="evenodd" clip-rule="evenodd" d="M221.605 73.6541V71.0099H212.079V73.6541H221.605ZM221.648 68.9023V66.2582H212.079V68.9023H221.648ZM78.242 66.7722L78.7205 67.4932C79.0184 67.9414 79.2623 68.4924 79.8567 68.4924V68.9405C79.5272 68.9168 79.1884 68.897 78.8589 68.897C78.5188 68.897 78.1893 68.9181 77.8492 68.9405C77.4775 68.292 77.0518 67.6764 76.6379 67.0477L75.6599 65.549L75.4371 65.2195C75.4793 65.1444 75.4911 65.1246 75.5122 65.0284C75.6282 65.0284 75.7455 65.0587 75.8628 65.0587C76.5957 65.0587 77.2337 64.3588 77.2337 63.5494C77.2337 62.69 76.7236 62.234 75.7574 62.234C75.5768 62.234 75.449 62.2445 75.13 62.2748C75.1076 62.3935 75.0759 62.52 75.0759 62.6479V67.9387C75.0759 68.3948 75.1722 68.4488 76.0105 68.4897V68.9379C75.3738 68.8944 75.1603 68.8944 74.322 68.8944C73.4823 68.8944 73.2701 68.8944 72.6322 68.9379V68.4897C73.4718 68.4488 73.5667 68.3948 73.5667 67.9387V62.6479C73.5667 62.1891 73.4718 62.1377 72.6322 62.0942V61.6487C73.2596 61.679 73.4823 61.6896 74.1836 61.6896C75.0113 61.6896 75.851 61.6487 76.6801 61.6487C77.7319 61.6487 78.7508 61.8702 78.7508 63.1883C78.7508 64.1874 77.9863 64.7713 77.1361 65.1114L78.242 66.7722ZM82.8528 66.6668V67.9414C82.8528 68.0574 82.8633 68.176 82.8844 68.292C83.2456 68.3025 83.6173 68.3131 83.9784 68.3131C84.4886 68.3131 85.0619 68.2828 85.5088 68.2182C85.6106 67.8612 85.6955 67.4997 85.7632 67.1347H86.1995C86.0927 67.8992 86.0716 68.1536 86.0505 68.8878C85.751 68.9252 85.4494 68.9433 85.1476 68.9418C84.1274 68.9418 83.1177 68.8983 82.0988 68.8983C81.6849 68.8983 81.2592 68.8983 80.8453 68.9418V68.6967C81.2803 68.4726 81.3449 68.4185 81.3449 67.9427V62.6518C81.3449 62.1931 81.2486 62.1417 80.4103 62.0982V61.6527C80.9732 61.683 81.0483 61.683 82.0988 61.6935C83.0874 61.6935 84.0852 61.683 85.0738 61.6725C85.4033 61.6725 85.7223 61.6725 86.0518 61.7028L86.094 61.7674C85.9991 62.2129 85.9662 62.5319 85.924 63.266H85.5101C85.4995 63.0314 85.4995 62.7981 85.4785 62.5661C85.4679 62.4475 85.4468 62.4172 85.3295 62.3829C85.0422 62.3104 84.565 62.2669 83.9165 62.2669C83.5448 62.2669 83.3642 62.2775 82.8857 62.2999C82.8857 62.4159 82.8541 62.5319 82.8541 62.6505V63.7656C82.8541 64.1465 82.8436 64.5196 82.833 64.9031C83.1625 64.9242 83.2996 64.9335 83.5342 64.9335C84.2566 64.9335 84.714 64.8899 84.7878 64.828C84.8616 64.7634 84.8827 64.6474 84.9038 64.2639C84.9038 64.2098 84.9143 64.1347 84.9143 64.0398H85.3598C85.3493 64.4233 85.3282 64.8043 85.3282 65.1878C85.3282 65.5688 85.3493 65.9629 85.3598 66.3465H84.9143C84.9143 66.2516 84.9038 66.1764 84.9038 66.1224C84.8721 65.6017 84.8405 65.5279 84.6375 65.5068C84.2706 65.468 83.9018 65.4499 83.5329 65.4528C83.2983 65.4528 83.1612 65.4633 82.8317 65.4831C82.8436 65.8799 82.8528 66.274 82.8528 66.6668ZM91.5879 66.1039L90.4728 63.4374L89.3787 66.1039C89.8137 66.125 89.9416 66.125 90.4833 66.125C90.9618 66.1237 91.1424 66.1237 91.5879 66.1039L91.8317 66.7089L91.5141 66.6984H89.4209L89.1441 66.7089C88.9846 67.1334 88.6564 67.7727 88.6564 68.2274C88.6564 68.408 88.837 68.4726 89.4842 68.4924V68.9405C89.0845 68.9135 88.684 68.899 88.2834 68.897C87.9011 68.897 87.6784 68.9076 87.0734 68.9405V68.4924C87.594 68.4713 87.6784 68.4409 87.8273 68.1523C88.1569 67.4827 88.4429 66.7933 88.7302 66.1026L90.5677 61.5973H91.3216L93.6692 67.1663C94.0093 67.9625 94.1793 68.3223 94.2637 68.3869C94.3493 68.4515 94.5405 68.4818 94.8911 68.4924V68.9405C94.343 68.9073 93.7939 68.8928 93.2448 68.897C92.4381 68.897 92.2245 68.9076 91.5879 68.9405V68.4924C91.7039 68.4818 91.8001 68.4818 91.8542 68.4818C92.2997 68.4713 92.3959 68.4304 92.3959 68.2709C92.3959 68.0257 91.9596 67.0292 91.8317 66.7089L91.5879 66.1039ZM99.1644 68.3118C99.6745 68.3118 100.248 68.2815 100.695 68.2169C100.804 67.8256 100.893 67.4287 100.961 67.0279H101.397C101.302 67.6431 101.249 68.2641 101.238 68.8865C100.938 68.9239 100.637 68.9419 100.335 68.9405C99.3147 68.9405 98.305 68.897 97.2861 68.897C96.8722 68.897 96.4464 68.897 96.0326 68.9405V68.6953C96.4675 68.4713 96.5321 68.4172 96.5321 67.9414V62.6505C96.5321 62.1918 96.4359 62.1404 95.5976 62.0969V61.6514C96.2355 61.6817 96.4478 61.6922 97.2861 61.6922C98.1257 61.6922 98.3379 61.6817 98.9759 61.6514V62.0969C98.1363 62.1404 98.0414 62.1918 98.0414 62.6505V67.9414C98.0414 68.0574 98.0519 68.176 98.0717 68.292C98.4315 68.3025 98.8032 68.3118 99.1644 68.3118ZM108.377 66.6668V67.9414C108.377 68.0574 108.387 68.176 108.408 68.292C108.769 68.3025 109.141 68.3131 109.502 68.3131C110.012 68.3131 110.586 68.2828 111.033 68.2182C111.134 67.8611 111.219 67.4995 111.287 67.1347H111.723C111.617 67.8992 111.595 68.1536 111.574 68.8878C111.275 68.9252 110.973 68.9433 110.671 68.9418C109.651 68.9418 108.642 68.8983 107.623 68.8983C107.209 68.8983 106.783 68.8983 106.369 68.9418V68.6967C106.805 68.4726 106.869 68.4185 106.869 67.9427V62.6518C106.869 62.1931 106.773 62.1417 105.934 62.0982V61.6527C106.497 61.683 106.571 61.683 107.623 61.6935C108.611 61.6935 109.61 61.683 110.598 61.6725C110.927 61.6725 111.246 61.6725 111.576 61.7028L111.618 61.7674C111.522 62.2129 111.49 62.5319 111.448 63.266H111.034C111.022 63.0314 111.022 62.7981 111.002 62.5661C110.992 62.4475 110.971 62.4172 110.853 62.3829C110.566 62.3104 110.088 62.2669 109.44 62.2669C109.069 62.2669 108.888 62.2775 108.41 62.2999C108.41 62.4159 108.378 62.5319 108.378 62.6505V63.7656C108.378 64.1465 108.367 64.5196 108.357 64.9031C108.686 64.9242 108.823 64.9335 109.058 64.9335C109.78 64.9335 110.238 64.8899 110.312 64.828C110.385 64.7634 110.408 64.6474 110.428 64.2639C110.428 64.2098 110.438 64.1347 110.438 64.0398H110.885C110.874 64.4233 110.853 64.8043 110.853 65.1878C110.853 65.5688 110.874 65.9629 110.885 66.3465H110.438C110.438 66.2516 110.428 66.1764 110.428 66.1224C110.396 65.6017 110.364 65.5279 110.163 65.5068C109.796 65.468 109.427 65.45 109.058 65.4528C108.825 65.4528 108.686 65.4633 108.357 65.4831C108.365 65.8799 108.377 66.274 108.377 66.6668ZM113.575 66.7393C113.586 67.6013 113.596 67.6633 113.766 67.8333C114.159 68.238 114.766 68.4713 115.414 68.4713C116.37 68.4713 117.019 67.9071 117.019 67.0912C117.019 64.9545 113.035 66.8025 113.035 63.8803C113.035 62.1404 114.469 61.5551 115.968 61.5551C116.732 61.5551 117.262 61.6606 117.891 61.9361L117.942 62.0652C117.816 62.5648 117.796 63.0512 117.772 63.5639H117.316C117.295 62.8614 117.286 62.7559 117.241 62.6703C117.092 62.3816 116.401 62.1166 115.828 62.1166C114.904 62.1166 114.32 62.5951 114.32 63.3596C114.32 65.4317 118.356 63.5191 118.356 66.506C118.356 68.0244 117.103 69.0341 115.212 69.0341C114.425 69.053 113.646 68.8697 112.949 68.5016C113.088 67.9809 113.109 67.6751 113.119 66.7379L113.575 66.7393ZM119.096 63.4058C119.096 62.8311 119.085 62.2682 119.044 61.6935L119.096 61.6527C120.203 61.7041 121.307 61.7278 122.412 61.7278C123.516 61.7278 124.621 61.7041 125.726 61.6527L125.78 61.6935C125.739 62.2682 125.726 62.8311 125.726 63.4058H125.28C125.27 63.2357 125.259 63.0525 125.239 62.8838C125.215 62.4594 125.185 62.3842 125.026 62.3737C124.439 62.3274 123.851 62.3067 123.262 62.3117C123.157 62.3223 123.178 62.4712 123.167 62.6518V67.9427C123.167 68.3988 123.262 68.4528 124.102 68.4937V68.9418C123.466 68.8983 123.252 68.8983 122.413 68.8983C121.575 68.8983 121.36 68.8983 120.725 68.9418V68.4937C121.564 68.4528 121.659 68.3988 121.659 67.9427V62.6518L121.649 62.4066C121.638 62.3315 121.638 62.3223 121.564 62.3117H121.245C120.522 62.3117 119.757 62.3526 119.695 62.4066C119.608 62.458 119.566 62.9906 119.546 63.4058H119.096ZM134.121 63.4058C134.121 62.8311 134.11 62.2682 134.067 61.6935L134.121 61.6527C135.225 61.7034 136.331 61.7285 137.437 61.7278C138.542 61.7278 139.646 61.7041 140.751 61.6527L140.805 61.6935C140.761 62.2682 140.751 62.8311 140.751 63.4058H140.305C140.295 63.2314 140.281 63.0574 140.262 62.8838C140.241 62.4594 140.21 62.3842 140.051 62.3737C139.464 62.3274 138.876 62.3067 138.287 62.3117C138.179 62.3223 138.203 62.4712 138.19 62.6518V67.9427C138.19 68.3988 138.287 68.4528 139.127 68.4937V68.9418C138.489 68.8983 138.275 68.8983 137.438 68.8983C136.596 68.8983 136.385 68.8983 135.747 68.9418V68.4937C136.587 68.4528 136.682 68.3988 136.682 67.9427V62.6518L136.671 62.4066C136.661 62.3315 136.661 62.3223 136.587 62.3117H136.27C135.547 62.3117 134.782 62.3526 134.718 62.4066C134.633 62.458 134.591 62.9906 134.569 63.4058H134.121ZM143.68 66.6668V67.9414C143.68 68.0574 143.69 68.176 143.71 68.292C144.072 68.3025 144.444 68.3131 144.804 68.3131C145.315 68.3157 145.826 68.284 146.333 68.2182C146.441 67.8583 146.516 67.5077 146.59 67.1347H147.025C146.917 67.8992 146.896 68.1536 146.876 68.8878C146.492 68.9286 146.322 68.9418 145.972 68.9418C144.953 68.9418 143.943 68.8983 142.924 68.8983C142.51 68.8983 142.085 68.8983 141.671 68.9418V68.6967C142.106 68.4726 142.17 68.4185 142.17 67.9427V62.6518C142.17 62.1931 142.075 62.1417 141.236 62.0982V61.6527C141.797 61.683 141.871 61.683 142.924 61.6935C143.913 61.6935 144.912 61.683 145.898 61.6725C146.227 61.6725 146.546 61.6725 146.876 61.7028L146.917 61.7674C146.822 62.2129 146.79 62.5319 146.749 63.266H146.333C146.322 63.0314 146.322 62.7981 146.303 62.5661C146.292 62.4475 146.272 62.4172 146.154 62.3829C145.868 62.3104 145.389 62.2669 144.743 62.2669C144.37 62.2669 144.19 62.2775 143.711 62.2999C143.711 62.4159 143.681 62.5319 143.681 62.6505V63.7656C143.681 64.1465 143.67 64.5196 143.66 64.9031C143.989 64.9242 144.126 64.9335 144.36 64.9335C145.083 64.9335 145.539 64.8899 145.613 64.828C145.688 64.7634 145.708 64.6474 145.729 64.2639C145.729 64.2098 145.74 64.1347 145.74 64.0398H146.188C146.177 64.4233 146.155 64.8043 146.155 65.1878C146.155 65.5688 146.179 65.9629 146.188 66.3465H145.74C145.74 66.2516 145.729 66.1764 145.729 66.1224C145.699 65.6017 145.667 65.5279 145.464 65.5068C145.097 65.468 144.729 65.4499 144.36 65.4528C144.125 65.4528 143.989 65.4633 143.66 65.4831C143.669 65.8799 143.68 66.274 143.68 66.6668ZM154.427 68.3434C154.673 68.408 154.79 68.4185 154.992 68.4185C155.991 68.4185 156.521 67.8346 156.521 66.73C156.521 65.69 156 65.201 154.897 65.201C154.802 65.201 154.673 65.201 154.429 65.2116L154.442 64.6501C154.558 64.6606 154.642 64.6606 154.674 64.6606C155.833 64.6606 156.278 64.2876 156.278 63.299C156.278 62.545 155.887 62.1944 155.025 62.1944C154.844 62.1944 154.728 62.205 154.443 62.2379C154.443 62.8732 154.41 63.5231 154.41 64.161C154.41 64.2876 154.42 64.4062 154.442 64.6501L154.429 65.2116C154.429 65.3816 154.443 65.5411 154.443 65.7111V66.9752L154.43 68.0389V68.3434L153.696 68.897C153.261 68.897 152.869 68.897 152.432 68.9405V68.6953C152.869 68.4713 152.931 68.4172 152.931 67.9414V62.6505C152.931 62.1918 152.836 62.1404 151.997 62.0969V61.6514C152.626 61.6817 152.869 61.6922 153.444 61.6922C154.219 61.6922 154.994 61.6408 155.769 61.6408C157.141 61.6408 157.873 62.1272 157.873 63.0314C157.873 63.9897 157.268 64.5604 155.993 64.828V64.8689C156.898 64.9532 157.227 65.06 157.557 65.3144C157.884 65.5925 158.118 66.1026 158.118 66.5679C158.118 67.2915 157.822 67.8755 157.217 68.3315C156.568 68.8443 155.79 68.926 154.994 68.926C154.58 68.926 154.111 68.8957 153.697 68.8957L154.427 68.3434ZM163.14 62.118C164.968 62.118 165.563 63.6496 165.563 65.2432C165.563 67.3575 164.777 68.4713 163.28 68.4713C161.282 68.4713 160.728 66.7722 160.728 65.0732C160.727 63.4361 161.332 62.118 163.14 62.118L163.224 61.5565C160.836 61.5565 159.133 62.8205 159.133 65.3381C159.133 67.6962 160.567 69.0354 163.085 69.0354C165.626 69.0354 167.155 67.5169 167.155 64.9888C167.155 63.9159 166.772 63.0327 166.018 62.4066C165.318 61.8122 164.467 61.5565 163.224 61.5565L163.14 62.118ZM182.137 66.7722L182.613 67.4932C182.912 67.9414 183.156 68.4924 183.75 68.4924V68.9405C183.421 68.9168 183.08 68.897 182.751 68.897C182.411 68.897 182.081 68.9181 181.741 68.9405C181.371 68.292 180.945 67.6764 180.531 67.0477L179.553 65.549L179.329 65.2195C179.367 65.1617 179.393 65.0966 179.404 65.0284C179.523 65.0284 179.639 65.0587 179.755 65.0587C180.489 65.0587 181.127 64.3588 181.127 63.5494C181.127 62.69 180.617 62.234 179.649 62.234C179.469 62.234 179.341 62.2445 179.023 62.2748C179 62.3935 178.969 62.52 178.969 62.6479V67.9387C178.969 68.3948 179.064 68.4488 179.904 68.4897V68.9379C179.269 68.8944 179.054 68.8944 178.215 68.8944C177.377 68.8944 177.162 68.8944 176.527 68.9379V68.4897C177.366 68.4488 177.461 68.3948 177.461 67.9387V62.6479C177.461 62.1891 177.366 62.1377 176.527 62.0942V61.6487C177.153 61.679 177.377 61.6896 178.077 61.6896C178.906 61.6896 179.746 61.6487 180.575 61.6487C181.628 61.6487 182.647 61.8702 182.647 63.1883C182.647 64.1874 181.882 64.7713 181.032 65.1114L182.137 66.7722ZM185.238 62.6505C185.238 62.1918 185.143 62.1404 184.304 62.0969V61.6514C184.868 61.6817 185.429 61.6922 185.992 61.6922L187.756 61.6619C188.075 61.6514 188.371 61.6514 188.639 61.6514C190.008 61.6514 190.773 61.8517 191.367 62.3829C192.026 62.9576 192.377 63.7959 192.377 64.8056C192.377 67.2494 190.624 68.9273 188.055 68.9273L186.747 68.9062C186.418 68.9062 186.078 68.8957 185.748 68.8957C185.122 68.8957 185.068 68.8957 184.739 68.9392V68.694C185.174 68.4699 185.238 68.4159 185.238 67.9401H186.747C186.747 68.056 186.769 68.1747 186.769 68.2907C187.131 68.3553 187.291 68.3658 187.598 68.3658C188.905 68.3658 189.65 68.0877 190.136 67.3983C190.574 66.7933 190.785 66.0183 190.785 65.0297C190.785 63.0314 189.734 62.2129 187.832 62.2129C187.477 62.2158 187.122 62.2338 186.769 62.2669C186.769 62.3961 186.758 62.5213 186.747 62.6505V67.9401H185.238V62.6505ZM30.5792 6.71785C29.1986 6.95461 27.8362 7.28804 26.5023 7.71566L19.7971 28.0857L16.3278 19.8462H10.8273C7.86091 24.5526 6.28749 30.0027 6.28909 35.566C6.27871 42.6102 8.80546 49.4226 13.4069 54.7563L20.2861 54.7511C14.6525 50.2563 11.0409 43.3336 11.0409 35.566C11.0409 32.2681 11.692 29.1217 12.873 26.2496C13.8893 27.5993 16.3832 32.2602 17.6828 37.8424H21.6398L26.0304 24.6178L26.0265 63.2753C27.5331 63.7696 29.0357 64.1584 30.5792 64.4207V6.71785ZM56.2006 48.8314C54.7228 51.1245 52.8748 53.1565 50.7318 54.8446V47.3789H46.1909L46.179 62.8403C52.4084 60.4018 57.6545 55.8925 60.9577 50.1561C61.1501 44.2352 52.2067 26.6213 48.5754 22.1226L48.5938 14.7781C52.2676 17.0856 55.2672 20.3221 57.2894 24.1604L60.3513 19.9662C56.585 13.9903 50.7897 9.57329 44.0292 7.52585V23.6951C47.9255 29.0071 55.8935 43.8582 56.2006 48.8314ZM34.4848 64.824C37.7062 64.9462 40.9257 64.5356 44.0134 63.6088L44.0397 58.5881C42.4435 59.1773 40.7695 59.603 39.0375 59.8469L39.0401 6.4885C37.5287 6.31043 36.0057 6.24917 34.4848 6.30528V64.824ZM200.116 36.1064V34.8068H150.687V36.1064H200.116ZM110.687 28.7355V27.4346H76.2174V28.7355H110.687Z" fill="black"/>
<path fill-rule="evenodd" clip-rule="evenodd" d="M77.5119 27.4336H76.2109V41.8511H77.5119V27.4336ZM110.681 27.4336H109.38V41.8511H110.681V27.4336ZM119.353 27.4336H118.052V41.8511H119.353V27.4336ZM123.202 27.4336H121.901V41.8511H123.202V27.4336ZM135.667 27.4336H134.366V41.8511H135.667V27.4336ZM138.917 27.4336H137.618V41.8511H138.917V27.4336ZM142.712 27.4336H141.413V32.366H142.712V27.4336ZM146.507 27.4336H145.205V32.366H146.507V27.4336Z" fill="black"/>
<path fill-rule="evenodd" clip-rule="evenodd" d="M150.848 28.7346V27.4336H121.906V28.7346H150.848Z" fill="black"/>
<path fill-rule="evenodd" clip-rule="evenodd" d="M150.847 24.9453H149.547V32.3702H150.847V24.9453Z" fill="black"/>
<path fill-rule="evenodd" clip-rule="evenodd" d="M199.898 33.0744V31.7734H138.922V33.0744H199.898Z" fill="black"/>
<path fill-rule="evenodd" clip-rule="evenodd" d="M200.33 24.8329H199.03V58.4354H200.33V24.8329ZM218.596 20.7678V19.1413H71.0391L71.5544 20.7678H218.596ZM171.55 24.941H170.251V32.3659H171.55V24.941ZM175.237 24.941H173.935V32.3659H175.237V24.941ZM93.559 1.09375H92.258V10.8491H93.559V1.09375ZM104.833 1.09375H103.532V8.89827H104.833V1.09375Z" fill="black"/>
<path fill-rule="evenodd" clip-rule="evenodd" d="M92.2586 1.09375V2.39472H104.833V1.09375H92.2586ZM205.565 22.0794L117.488 9.70364L68.0739 18.3979L66.6016 14.6769L117.38 5.72822L117.354 5.73877L218.594 19.9651L218.597 25.7543H71.2018L70.0366 22.0688H205.565V22.0794Z" fill="black"/>
<path fill-rule="evenodd" clip-rule="evenodd" d="M102.559 14.1554H136.541L117.353 11.4453L102.559 14.1554ZM83.0469 17.6246L94.6449 15.5644H146.838L161.472 17.6246H83.0469Z" fill="black"/>
<path fill-rule="evenodd" clip-rule="evenodd" d="M215.72 22.1944L117.458 8.38724L68.931 16.9563L68.3984 15.6896L117.382 7.05859L217.292 21.0978L217.295 24.455H72.0957L71.7438 23.3702H215.722L215.72 22.1944Z" fill="white"/>
</svg>
