<svg width="180" height="80" viewBox="0 0 180 80" fill="none" xmlns="http://www.w3.org/2000/svg">
<path fill-rule="evenodd" clip-rule="evenodd" d="M106.706 71.3924C98.17 71.7163 89.9791 71.5198 82.3876 70.8829L102.532 48.2546C107.174 48.0827 110.809 46.4999 110.809 44.5714C110.809 43.5494 109.791 42.6251 108.14 41.9546L117.77 31.1382H111.392L101.687 40.8704C96.6493 40.8704 92.5653 42.5293 92.5653 44.5714C92.5653 45.6151 93.6337 46.5581 95.3459 47.2306L72.839 69.8046C51.3117 66.7109 36.5543 59.7623 36.2265 51.1507C35.9233 43.1603 48.1143 35.6577 66.8275 30.8469H56.0613C37.7521 36.1001 26.0084 43.9315 26.3253 52.2557C26.7045 62.2329 44.2811 70.1877 69.3869 73.2656L62.6723 80H74.2718L79.4312 74.2027C86.3473 74.6599 93.6811 74.7675 101.266 74.4802C134.735 73.2093 162.714 64.6136 171.457 53.9502C161.987 63.0564 136.679 70.2578 106.706 71.3924ZM3.79772 28.3822H0V0.273523H12.9968C17.617 0.273523 22.2353 1.87911 22.2353 7.82947C22.2353 11.9787 20.1212 13.5053 18.3201 14.5629C19.9247 15.2284 21.5303 15.9325 21.6873 19.8477L21.9223 24.937C21.9608 26.5031 22.1563 27.0906 23.3314 27.7552V28.3812H18.6736C18.1256 26.6591 18.0081 22.3923 18.0081 21.3348C18.0081 19.0251 17.538 16.3235 12.9978 16.3235H3.79772V28.3822ZM3.79772 13.0758H12.6057C15.3844 13.0758 18.3211 12.3707 18.3211 8.22148C18.3211 3.87671 15.1504 3.52321 13.2713 3.52321H3.79772V13.0758ZM41.848 21.9618C41.7315 22.9404 40.7914 25.8385 38.2073 27.5606C37.2682 28.1867 35.9372 28.9697 32.649 28.9697C26.8941 28.9697 23.4874 24.624 23.4874 18.7131C23.4874 12.3707 26.5416 7.32093 33.3135 7.32093C39.2253 7.32093 42.1225 12.0182 42.1225 19.2611H27.1686C27.1686 23.5279 29.1652 25.9945 33.119 25.9945C36.3677 25.9945 38.2853 23.4894 38.4038 21.9618H41.848ZM38.5608 16.52C38.3643 13.3493 37.0342 10.4126 32.8445 10.4126C29.6738 10.4126 27.1686 13.3493 27.1686 16.52H38.5608ZM43.2196 14.1323C43.3766 9.23855 46.6253 7.32093 51.6751 7.32093C53.3192 7.32093 59.2695 7.79096 59.2695 13.0363V24.8205C59.2695 25.6815 59.7001 26.034 60.4051 26.034C60.7181 26.034 61.1486 25.955 61.5407 25.877V28.3822C60.9531 28.5392 60.4436 28.7732 59.6616 28.7732C56.6084 28.7732 56.1383 27.2071 56.0208 25.642C54.6898 27.0896 52.6151 28.9697 48.6219 28.9697C44.8637 28.9697 42.2015 26.5821 42.2015 23.0579C42.2015 21.3358 42.711 17.3425 48.4264 16.6375L54.1032 15.9325C54.9258 15.8545 55.9043 15.5414 55.9043 13.5053C55.9043 11.3527 54.3382 10.1776 51.0885 10.1776C47.1743 10.1776 46.6253 12.5653 46.3913 14.1314L43.2196 14.1323ZM55.8253 17.9301C55.2773 18.3606 54.4162 18.6736 50.1485 19.2216C48.4649 19.4567 45.7652 19.9652 45.7652 22.5493C45.7652 24.78 46.8998 26.1111 49.4839 26.1111C52.6941 26.1111 55.8263 24.0364 55.8263 21.2963V17.9301H55.8253ZM65.7294 28.3822H62.2852V0.273523H65.7294V28.3822ZM97.7908 28.3822H92.3095V15.7369C92.3095 12.6443 90.9399 11.6262 89.3343 11.6262C86.5942 11.6262 85.6156 13.4273 85.6156 15.8939V28.3812H80.1343V15.8544C80.1343 14.0928 80.1343 11.6262 76.8461 11.6262C74.2629 11.6262 73.4404 13.4273 73.4404 15.6984V28.3822H67.9591V7.55496H73.2054V10.6081H73.2844C73.9884 9.23757 75.516 7.00692 79.1952 7.00692C82.2099 7.00692 83.5795 8.10299 84.9896 10.3346C85.6936 9.31657 87.2212 7.00692 90.5489 7.00692C94.6201 7.00692 97.7908 9.39457 97.7908 13.9763V28.3822ZM116.778 24.3109C116.778 26.7776 117.326 27.3246 117.992 27.5606V28.3822H112.081C111.769 27.4036 111.69 27.0906 111.572 25.9156C110.32 27.2071 108.557 28.9302 104.839 28.9302C101.707 28.9302 98.4978 27.1686 98.4978 22.8624C98.4978 18.7911 101.08 16.7155 104.566 16.208L109.497 15.4634C110.359 15.3459 111.416 14.9934 111.416 13.8193C111.416 11.5087 109.223 11.3922 107.815 11.3922C105.075 11.3922 104.604 13.0758 104.448 14.2893H99.1634C99.7884 7.90846 104.212 7.00791 108.481 7.00791C111.417 7.00791 116.779 7.90847 116.779 13.0363L116.778 24.3109ZM111.415 18.2431C110.867 18.6736 109.966 19.0261 107.696 19.3786C105.66 19.7302 103.975 20.2397 103.975 22.5098C103.975 24.4284 105.464 25.016 106.521 25.016C108.947 25.016 111.414 23.4499 111.414 20.9052L111.415 18.2431ZM137.8 28.3822H132.436V25.7595H132.359C131.028 28.1087 128.6 28.9302 126.331 28.9302C120.146 28.9302 117.562 23.4499 117.562 17.7345C117.562 10.5311 121.633 7.00791 126.214 7.00791C129.737 7.00791 131.382 8.92652 132.242 10.2576H132.319V0.27451H137.8V28.3822ZM127.7 24.4284C131.184 24.4284 132.554 21.5313 132.554 18.4396C132.554 15.1119 131.615 11.7457 127.856 11.7457C124.373 11.7457 123.198 14.8374 123.198 18.1266C123.199 20.5922 124.176 24.4284 127.7 24.4284ZM139.759 7.55496H145.004V11.1572H145.083C146.216 9.04206 147.47 7.00692 150.797 7.00692C151.15 7.00692 151.503 7.04642 151.854 7.08592V12.6443C151.385 12.5663 150.797 12.5662 150.287 12.5662C146.022 12.5662 145.239 15.2284 145.239 17.538V28.3812H139.759V7.55496ZM157.764 5.0893H152.285V0H157.764V5.0893ZM157.764 7.55496V28.3812H152.285V7.55496H157.764ZM179.14 28.3822H173.778V25.7595H173.699C172.368 28.1087 169.94 28.9302 167.67 28.9302C161.485 28.9302 158.901 23.4499 158.901 17.7345C158.901 10.5311 162.972 7.00791 167.553 7.00791C171.076 7.00791 172.719 8.92652 173.581 10.2576H173.66V0.27451H179.14V28.3822ZM169.039 24.4284C172.524 24.4284 173.893 21.5313 173.893 18.4396C173.893 15.1119 172.956 11.7457 169.197 11.7457C165.712 11.7457 164.537 14.8374 164.537 18.1266C164.538 20.5922 165.518 24.4284 169.039 24.4284Z" fill="#324178"/>
<path fill-rule="evenodd" clip-rule="evenodd" d="M128.675 38.9238C128.299 36.4878 126.968 35.0264 124.446 35.0264C120.727 35.0264 119.533 38.6464 119.533 41.8822C119.533 45.0144 120.284 48.8753 124.412 48.8753C126.422 48.8753 128.162 47.3438 128.674 44.5612H131.573C131.266 47.4505 129.527 51.5217 124.309 51.5217C119.296 51.5217 116.328 47.6588 116.328 42.4036C116.328 36.7663 118.989 32.2783 124.889 32.2783C129.56 32.2783 131.334 35.7581 131.574 38.9248L128.675 38.9238ZM141.842 32.2773C147.537 32.2773 150.129 37.184 150.129 41.8822C150.129 46.5805 147.537 51.4852 141.842 51.4852C136.144 51.4852 133.552 46.5805 133.552 41.8822C133.552 37.184 136.145 32.2773 141.842 32.2773ZM141.842 48.8408C146.139 48.8408 147.024 44.3183 147.024 41.8822C147.024 39.4462 146.139 34.9217 141.842 34.9217C137.542 34.9217 136.656 39.4462 136.656 41.8822C136.656 44.3183 137.543 48.8408 141.842 48.8408ZM153.541 32.7997H156.37V35.375H156.439C157.087 34.4004 158.62 32.2773 161.828 32.2773C165.033 32.2773 166.057 34.2611 166.568 35.2347C168.069 33.5294 169.263 32.2773 172.026 32.2773C173.936 32.2773 177.55 33.2865 177.55 38.4015V50.9993H174.551V39.2359C174.551 36.7307 173.799 35.0264 171.241 35.0264C168.716 35.0264 167.046 37.4614 167.046 39.8975V50.9984H164.044V38.4015C164.044 36.8719 163.465 35.0274 161.247 35.0274C159.542 35.0274 156.539 36.1402 156.539 41.0824V50.9993H153.54V32.7997H153.541Z" fill="#324178"/>
</svg>
