<svg width="147" height="80" viewBox="0 0 147 80" fill="none" xmlns="http://www.w3.org/2000/svg">
<path d="M99.3202 57.9485C98.5743 57.9485 97.9807 58.5421 97.9807 59.288V62.7737C97.9807 64.1589 96.8543 65.2853 95.4691 65.2853L87.8431 65.3005L72.8042 65.3157L63.4125 77.7213V65.2853H50.6873C49.3021 65.2853 48.1757 64.1589 48.1757 62.7737V59.288C48.1757 58.5573 47.5821 57.9485 46.8362 57.9485H44.3551C43.6093 57.9485 43.0156 58.5421 43.0156 59.288V62.7737C43.0156 67.0205 46.4557 70.4454 50.6873 70.4454H61.2358V77.7822C61.2358 78.7716 61.8295 79.624 62.7123 79.898C63.5647 80.172 64.5085 79.8827 65.0717 79.1673L71.6778 70.4454L95.4843 70.4606C99.7159 70.4606 103.156 67.0205 103.156 62.7889V59.3032C103.156 58.5726 102.562 57.9637 101.817 57.9637H99.3202V57.9485ZM46.8362 30.1082C47.5821 30.1082 48.1757 29.5146 48.1757 28.7687V24.8416C48.1757 24.0653 48.5411 23.3194 49.1651 22.8476L71.5104 5.67764C71.9214 5.35799 72.4693 5.17533 73.0325 5.17533C73.611 5.17533 74.1437 5.35799 74.5699 5.67764L96.9913 22.8323C97.6154 23.3042 97.9807 24.0501 97.9807 24.8264V28.7687C97.9807 29.4994 98.5743 30.1082 99.3202 30.1082H101.801C102.547 30.1082 103.141 29.5146 103.141 28.7687V24.8416C103.141 22.467 102.014 20.199 100.142 18.753L77.7208 1.58304C76.3813 0.563198 74.7221 0 73.0478 0C71.3582 0 69.699 0.563198 68.3747 1.58304L46.0143 18.753C44.1268 20.199 43.0156 22.467 43.0156 24.8416V28.7687C43.0156 29.4994 43.6093 30.1082 44.3551 30.1082H46.8362Z" fill="#1693D1"/>
<path d="M31.1281 52.0126H27.1096V51.145C26.4094 51.6321 25.6483 51.9669 24.872 52.1496C24.0805 52.3323 23.2738 52.4236 22.4366 52.4236C21.6603 52.4236 20.9449 52.3018 20.3208 52.0735C19.6815 51.8452 19.1335 51.5103 18.6769 51.0689C18.205 50.6274 17.8549 50.1099 17.5961 49.5163C17.3374 48.9226 17.2156 48.2681 17.2156 47.5375C17.2156 46.6242 17.4135 45.8326 17.8092 45.1477C18.205 44.4627 18.753 43.8995 19.4379 43.4429C20.1229 42.9862 20.9296 42.6513 21.8429 42.423C22.7562 42.1947 23.7609 42.0881 24.8111 42.0881H27.1248C27.1248 41.1444 26.8204 40.3833 26.2115 39.8201C25.5874 39.2569 24.7198 38.9829 23.563 38.9829C22.9998 38.9829 22.4214 39.0895 21.8277 39.2874C21.2341 39.4853 20.6404 39.8658 20.0468 40.3985L17.6722 37.9935C18.5246 37.1716 19.514 36.5475 20.6404 36.0908C21.7668 35.6494 22.9237 35.4211 24.111 35.4211C25.2221 35.4211 26.2267 35.6038 27.0944 35.9539C27.962 36.3039 28.6774 36.7606 29.2102 37.3238C29.9104 38.0392 30.4127 38.8155 30.6867 39.6984C30.9759 40.566 31.1129 41.6924 31.1129 43.0471V52.0126H31.1281ZM27.1096 47.9941V45.0107H25.2678C24.7046 45.0107 24.1871 45.0563 23.6847 45.1172C23.1977 45.1933 22.7715 45.3151 22.4061 45.4978C22.0408 45.6804 21.7516 45.9088 21.5385 46.1827C21.3254 46.4567 21.2189 46.7916 21.2189 47.1874C21.2189 47.7506 21.432 48.2072 21.8734 48.5573C22.3148 48.9074 22.878 49.0901 23.563 49.0901C24.1566 49.0901 24.7503 48.9987 25.3287 48.8161C25.9223 48.6182 26.516 48.3442 27.1096 47.9941ZM49.1809 43.9756C49.1809 45.102 48.983 46.1827 48.6024 47.2178C48.2219 48.2377 47.6891 49.1357 46.989 49.912C46.304 50.6883 45.482 51.2972 44.5231 51.7538C43.5641 52.2105 42.529 52.4388 41.3874 52.4388C40.6872 52.4388 40.0175 52.3475 39.4086 52.1496C38.7998 51.9517 38.2061 51.6473 37.6734 51.2211L37.7038 57.8425L33.6549 59.1058V35.8625H37.7038L37.7342 36.6997C38.2061 36.3192 38.7541 36.03 39.3934 35.8016C40.0327 35.5733 40.7025 35.4668 41.4179 35.4668C42.4073 35.4668 43.3662 35.6799 44.2947 36.1213C45.2233 36.5627 46.0452 37.1564 46.7759 37.9174C47.5065 38.6785 48.0849 39.5766 48.5111 40.6116C48.9525 41.6467 49.1809 42.7731 49.1809 43.9756ZM45.071 44.0061C45.071 43.245 44.9645 42.56 44.7362 41.9359C44.5078 41.3271 44.2034 40.7943 43.7924 40.3529C43.3967 39.9115 42.9096 39.5766 42.3616 39.3483C41.8136 39.1199 41.2048 38.9982 40.5198 38.9982C40.0936 38.9982 39.6065 39.0895 39.0585 39.2569C38.5105 39.4396 38.0387 39.6679 37.6734 39.9723V47.7049C38.5562 48.5116 39.5304 48.9074 40.6111 48.9074C41.2504 48.9074 41.8441 48.7856 42.392 48.5421C42.94 48.2985 43.4119 47.9637 43.8076 47.5222C44.2034 47.0808 44.5078 46.5633 44.7362 45.9544C44.9645 45.3608 45.071 44.7062 45.071 44.0061ZM51.1901 35.2841H55.2695V51.4342H51.1901V35.2841ZM67.4011 32.529C67.0205 32.3768 66.6704 32.2855 66.366 32.2398C66.0616 32.1941 65.7419 32.1637 65.3918 32.1637C64.6155 32.1637 64.0523 32.3463 63.7327 32.6964C63.413 33.0465 63.2456 33.6858 63.2456 34.6144V35.893H65.7876V39.4244H63.2456V52.0126H59.2271V39.4244H57.2787V35.9082H59.2271V34.6752C59.2271 32.6508 59.6076 31.1134 60.3687 30.0479C61.1298 28.9824 62.4541 28.4648 64.3568 28.4648C65.4375 28.4648 66.4573 28.6018 67.4011 28.8606V32.529ZM79.6392 37.5521L77.493 40.9617C77.0972 40.5355 76.671 40.155 76.1991 39.8354C75.7273 39.5005 75.2402 39.3483 74.7683 39.3483C74.5095 39.3483 74.2203 39.4091 73.9159 39.5309C73.6115 39.6527 73.3223 39.8506 73.0483 40.1246C72.7743 40.3985 72.546 40.7639 72.3633 41.2357C72.1806 41.6924 72.0893 42.2556 72.0893 42.9253V52.0126H68.0708V35.893H72.0893V37.613C72.5764 36.928 73.1091 36.3953 73.7028 36.03C74.2812 35.6494 74.9357 35.4668 75.6664 35.4668C76.3666 35.4668 77.0668 35.6494 77.7365 36.0452C78.4062 36.4257 79.0456 36.928 79.6392 37.5521ZM93.8714 52.0126H89.8529V51.145C89.1527 51.6321 88.4068 51.9669 87.6153 52.1496C86.8238 52.3323 86.017 52.4236 85.1799 52.4236C84.4036 52.4236 83.6881 52.3018 83.0641 52.0735C82.4248 51.8452 81.8768 51.5103 81.4201 51.0689C80.9635 50.6274 80.5982 50.1099 80.3394 49.5163C80.0959 48.9226 79.9589 48.2681 79.9589 47.5375C79.9589 46.6242 80.1567 45.8326 80.5525 45.1477C80.9483 44.4627 81.4962 43.8995 82.1812 43.4429C82.8662 42.9862 83.6729 42.6513 84.5862 42.423C85.4995 42.1947 86.4889 42.0881 87.5544 42.0881H89.8681C89.8681 41.1444 89.5637 40.3833 88.9548 39.8201C88.3459 39.2569 87.4631 38.9829 86.3062 38.9829C85.743 38.9829 85.1646 39.0895 84.571 39.2874C83.9773 39.4853 83.3837 39.8658 82.7901 40.3985L80.4155 37.9935C81.2679 37.1716 82.2573 36.5475 83.3837 36.0908C84.5101 35.6494 85.6669 35.4211 86.8542 35.4211C87.9654 35.4211 88.97 35.6038 89.8376 35.9539C90.7053 36.3039 91.4207 36.7606 91.9535 37.3238C92.6536 38.0392 93.156 38.8155 93.4452 39.6984C93.7344 40.566 93.8714 41.6924 93.8714 43.0471V52.0126ZM89.8529 47.9941V45.0107H88.0111C87.4479 45.0107 86.9303 45.0563 86.428 45.1172C85.9409 45.1933 85.5147 45.3151 85.1494 45.4978C84.7841 45.6804 84.4949 45.9088 84.2818 46.1827C84.0687 46.4567 83.9621 46.7916 83.9621 47.1874C83.9621 47.7506 84.1752 48.2072 84.6167 48.5573C85.0581 48.9074 85.6213 49.0901 86.3062 49.0901C86.8999 49.0901 87.4935 48.9987 88.072 48.8161C88.6656 48.6182 89.244 48.3442 89.8529 47.9941ZM128.089 49.5771C127.267 50.5057 126.293 51.2059 125.136 51.6929C123.98 52.18 122.777 52.4236 121.514 52.4236C120.342 52.4236 119.23 52.2105 118.195 51.7843C117.16 51.3581 116.247 50.7644 115.486 50.0034C114.725 49.2575 114.116 48.3594 113.675 47.3091C113.233 46.2588 113.005 45.1477 113.005 43.9299C113.005 42.7427 113.233 41.6315 113.675 40.5964C114.116 39.5614 114.725 38.6633 115.471 37.9022C116.232 37.1411 117.13 36.5475 118.165 36.1061C119.215 35.6646 120.326 35.4515 121.514 35.4515C122.747 35.4515 123.904 35.6799 125.015 36.1213C126.126 36.5627 127.085 37.2477 127.907 38.161L125.197 40.9313C124.786 40.3985 124.299 39.9419 123.706 39.5918C123.127 39.2417 122.412 39.0591 121.575 39.0591C120.966 39.0591 120.372 39.196 119.824 39.4548C119.276 39.7136 118.789 40.0637 118.378 40.5051C117.967 40.9465 117.632 41.4488 117.389 42.0577C117.145 42.6513 117.023 43.2906 117.023 43.9604C117.023 44.6301 117.145 45.2694 117.389 45.8631C117.632 46.4567 117.952 46.9743 118.363 47.4157C118.774 47.8571 119.261 48.2072 119.809 48.466C120.372 48.7247 120.951 48.8617 121.559 48.8617C122.351 48.8617 123.082 48.6791 123.736 48.2985C124.391 47.918 124.908 47.4309 125.304 46.8373L128.089 49.5771ZM146.173 43.9147C146.173 44.1735 146.157 44.4475 146.127 44.7215C146.097 44.9955 146.066 45.2847 146.036 45.5891H133.143C133.295 46.0457 133.508 46.5024 133.767 46.9134C134.041 47.3396 134.376 47.6897 134.756 48.0093C135.152 48.3138 135.594 48.5573 136.081 48.7247C136.568 48.9074 137.116 48.9835 137.709 48.9835C138.44 48.9835 139.156 48.8617 139.886 48.603C140.617 48.3594 141.21 48.0093 141.698 47.5831L144.24 50.1251C143.113 50.9623 142.032 51.556 140.952 51.8908C139.886 52.2409 138.76 52.4084 137.557 52.4084C136.355 52.4084 135.213 52.18 134.163 51.7386C133.113 51.2972 132.199 50.6883 131.438 49.9272C130.662 49.1662 130.053 48.2681 129.612 47.233C129.17 46.198 128.942 45.102 128.942 43.9299C128.942 42.7579 129.17 41.6619 129.612 40.6269C130.068 39.5918 130.677 38.6937 131.453 37.9327C132.23 37.1716 133.143 36.5627 134.193 36.1213C135.228 35.6799 136.355 35.4515 137.542 35.4515C138.668 35.4515 139.764 35.6646 140.799 36.0756C141.835 36.5018 142.763 37.0802 143.555 37.8109C144.361 38.5567 144.985 39.4396 145.457 40.4747C145.944 41.5402 146.173 42.6666 146.173 43.9147ZM141.956 42.3621C141.637 41.3423 141.073 40.5203 140.267 39.8962C139.46 39.2722 138.547 38.9677 137.512 38.9677C136.507 38.9677 135.609 39.2874 134.802 39.8962C133.995 40.5203 133.447 41.3423 133.128 42.3621H141.956ZM110.889 52.1039H106.977V42.4687C106.977 40.6573 105.501 39.1808 103.689 39.1808C101.878 39.1808 100.401 40.6573 100.401 42.4687V52.1039H96.4895V42.4687C96.4895 38.4959 99.7164 35.2689 103.689 35.2689C107.662 35.2689 110.889 38.4959 110.889 42.4687V52.1039ZM55.4521 32.1028C55.4521 33.3205 54.4627 34.3099 53.245 34.3099C52.0273 34.3099 51.0379 33.3205 51.0379 32.1028C51.0379 30.8851 52.0273 29.8957 53.245 29.8957C54.4627 29.8804 55.4521 30.8698 55.4521 32.1028ZM15.4803 49.4554C14.6431 50.4143 13.6233 51.1297 12.4512 51.6321C11.264 52.1344 10.031 52.3779 8.73718 52.3779C7.53467 52.3779 6.39305 52.1648 5.32755 51.7234C4.26204 51.282 3.33352 50.6731 2.542 49.912C1.75048 49.1357 1.1264 48.2224 0.68497 47.1417C0.228323 46.0762 0 44.9193 0 43.6712C0 42.4535 0.228323 41.3118 0.68497 40.2463C1.14162 39.1808 1.75048 38.2675 2.52678 37.476C3.30308 36.6997 4.23159 36.0756 5.2971 35.6342C6.36261 35.1928 7.50423 34.9644 8.73718 34.9644C10.0006 34.9644 11.1878 35.1928 12.3295 35.6494C13.4711 36.1061 14.4605 36.8063 15.2977 37.7348L12.5273 40.566C12.1011 40.018 11.5988 39.5461 10.99 39.196C10.3963 38.8307 9.66569 38.6481 8.79806 38.6481C8.17398 38.6481 7.56512 38.7851 7.00192 39.0591C6.43872 39.3178 5.93641 39.6831 5.5102 40.1246C5.084 40.566 4.73391 41.0987 4.49036 41.7076C4.24682 42.3165 4.10982 42.971 4.10982 43.656C4.10982 44.3409 4.23159 44.9955 4.49036 45.6043C4.73391 46.2132 5.06878 46.7459 5.49498 47.1874C5.92119 47.644 6.40828 47.9941 6.9867 48.2681C7.56512 48.5269 8.15876 48.6639 8.79806 48.6639C9.62003 48.6639 10.3659 48.466 11.0356 48.0854C11.7054 47.6897 12.2381 47.1874 12.6339 46.5785L15.4803 49.4554Z" fill="black"/>
</svg>
