<svg width="111" height="80" viewBox="0 0 111 80" fill="none" xmlns="http://www.w3.org/2000/svg">
<path fill-rule="evenodd" clip-rule="evenodd" d="M34.4055 30.9088H25.4844V51.6169L3.17326 21.6797H0V65.0236H8.92112V33.8069L31.8643 65.0236H34.4061L34.4055 30.9088ZM46.5327 65.0236V22.7323L55.7779 12.1111L65.0064 22.7323V65.0236H73.9281V21.6958L55.7779 0L37.5955 21.6797V65.0236H46.5327ZM77.1174 21.6797V65.007H110.699L105.744 62.7725H86.0391V21.6958L77.1174 21.6797Z" fill="black"/>
<path fill-rule="evenodd" clip-rule="evenodd" d="M4.13346 71.8441C4.06853 71.828 3.99943 71.8197 3.92616 71.8197H3.69503C3.62806 71.8198 3.56112 71.822 3.49428 71.8262C3.42654 71.8298 3.35931 71.84 3.29353 71.8566C2.87119 71.9215 2.48577 72.1407 2.13729 72.5142C1.78821 72.8877 1.61367 73.549 1.61367 74.4985V77.5175H0.46875V70.9559H1.55232L1.5404 72.2218H1.57674C1.77393 71.8063 2.0923 71.4603 2.48994 71.2293C2.8658 71.0044 3.29349 70.8807 3.73137 70.8701H4.13287V71.8441H4.13346ZM13.2089 75.6178C13.208 75.6518 13.1997 75.6851 13.1844 75.7155C13.079 76.2189 12.8008 76.677 12.3505 77.091C11.9001 77.505 11.2246 77.7123 10.3233 77.7123C10.1935 77.7123 9.97842 77.6986 9.67819 77.67C9.34719 77.6334 9.02318 77.5493 8.71614 77.4204C8.28605 77.2339 7.89289 76.9009 7.53547 76.422C7.17806 75.9431 6.99995 75.2247 6.99995 74.2674C6.99995 73.2446 7.18818 72.4898 7.56586 72.0025C7.94353 71.5153 8.35932 71.1793 8.81384 70.9928C9.05906 70.8989 9.31432 70.8335 9.57454 70.798C9.78237 70.7684 9.99189 70.7521 10.2018 70.7492C11.1674 70.7492 11.8697 70.9785 12.3082 71.4366C12.746 71.8953 13.0302 72.4005 13.16 72.9527C13.2089 73.1552 13.2434 73.3566 13.2637 73.5555C13.2839 73.7539 13.2941 73.9427 13.2941 74.1208V74.3156C13.2941 74.3806 13.2899 74.4419 13.2815 74.4985H8.20563C8.21397 74.6284 8.22767 74.7767 8.24793 74.9429C8.26818 75.1091 8.30273 75.2777 8.35158 75.448C8.46476 75.8132 8.66789 76.151 8.96038 76.4583C9.25227 76.7669 9.69487 76.9212 10.287 76.9212C10.7659 76.9212 11.1698 76.7973 11.4986 76.5501C11.8275 76.3023 12.0199 75.9913 12.0771 75.6184H13.2089V75.6178ZM12.0765 73.6943C12.0765 73.5728 12.0663 73.4364 12.0461 73.2863C12.0246 73.1313 11.9901 72.9785 11.943 72.8294C11.8476 72.4944 11.6696 72.1888 11.4254 71.9406C11.1698 71.6731 10.7743 71.5391 10.2387 71.5391C9.59717 71.5391 9.12241 71.7178 8.81384 72.0746C8.50527 72.4314 8.31881 72.8216 8.25448 73.2434C8.23846 73.3195 8.2283 73.3968 8.2241 73.4745C8.21993 73.5478 8.21814 73.6205 8.21814 73.6937L12.0765 73.6943ZM16.6967 72.8913C16.6967 72.7781 16.7092 72.6477 16.733 72.5023C16.7574 72.3558 16.8021 72.2098 16.867 72.0639C16.9969 71.7392 17.2566 71.445 17.6462 71.1817C18.0358 70.9178 18.6488 70.7861 19.4845 70.7861C20.3042 70.7861 20.8963 70.9202 21.2615 71.1876C21.6266 71.4557 21.8625 71.7476 21.968 72.0645C22.0246 72.2188 22.0591 72.3689 22.071 72.5148C22.0835 72.6608 22.0895 72.7954 22.0895 72.9169L22.0287 75.9484V76.0944C22.0287 76.2487 22.0573 76.388 22.1139 76.5143C22.1705 76.64 22.3087 76.699 22.5279 76.6907H22.6131C22.6461 76.6906 22.6789 76.6864 22.7108 76.6781V77.5181C22.6154 77.5254 22.5201 77.5335 22.4249 77.5425C22.35 77.5503 22.2749 77.5545 22.1997 77.555C21.859 77.555 21.5909 77.4937 21.3961 77.3721C21.2013 77.2506 21.075 76.9986 21.019 76.6168C20.7915 76.9903 20.4769 77.2625 20.0754 77.4329C19.6739 77.6033 19.2415 77.6884 18.7786 77.6884C18.0322 77.6884 17.4597 77.5276 17.0618 77.2077C16.6645 76.8866 16.4655 76.4184 16.4655 75.8013C16.4655 75.0549 16.7538 74.5462 17.3299 74.2739C17.9059 74.0023 18.6893 73.8176 19.6793 73.7199C19.7442 73.7116 19.8068 73.7062 19.8675 73.7021C19.9289 73.6973 19.9873 73.6913 20.0439 73.6836C20.3441 73.6681 20.5711 73.6169 20.7259 73.5317C20.8802 73.4459 20.9571 73.2088 20.9571 72.8192C20.9571 72.3891 20.823 72.0746 20.5556 71.8763C20.2875 71.6773 19.9307 71.5778 19.4845 71.5778C18.9978 71.5778 18.6362 71.6505 18.4009 71.7964C18.1651 71.9424 18.0036 72.1014 17.9143 72.2718C17.8571 72.385 17.8207 72.4928 17.8047 72.5941C17.7903 72.6765 17.7821 72.76 17.7802 72.8437V72.8925H16.6967V72.8913ZM20.9577 74.1572C20.8908 74.2233 20.8097 74.2732 20.7206 74.3031C20.6271 74.3359 20.4752 74.3645 20.2637 74.3889C20.2083 74.4049 20.151 74.4131 20.0933 74.4133C20.0449 74.4213 19.9962 74.4273 19.9474 74.4312C19.9024 74.4351 19.8577 74.4412 19.8133 74.4497C19.164 74.514 18.6345 74.62 18.2246 74.766C17.8148 74.9119 17.6099 75.2449 17.6099 75.7644C17.6142 75.905 17.6389 76.0442 17.6831 76.1778C17.7481 76.3565 17.8743 76.5209 18.0608 76.671C18.2473 76.8211 18.5314 76.8962 18.9132 76.8962C19.0187 76.8962 19.1283 76.8878 19.2421 76.8717C19.3552 76.8557 19.4732 76.8312 19.5953 76.7985C19.9116 76.7014 20.2059 76.4982 20.4775 76.1903C20.7492 75.8823 20.9011 75.3909 20.9338 74.7171L20.9577 74.1572ZM27.3304 68.4844V77.5169H26.1861V68.4844H27.3304ZM44.0087 75.6178C44.0077 75.6518 43.9994 75.6851 43.9842 75.7155C43.8788 76.2189 43.6006 76.677 43.1509 77.091C42.7005 77.505 42.0244 77.7123 41.1237 77.7123C40.9939 77.7123 40.7788 77.6986 40.4786 77.67C40.1783 77.6414 39.8579 77.558 39.5165 77.4204C39.0864 77.2339 38.6927 76.9009 38.3359 76.422C37.979 75.9431 37.8003 75.2247 37.8003 74.2674C37.8003 73.2446 37.9886 72.4898 38.3668 72.0025C38.7439 71.5159 39.1603 71.1793 39.6142 70.9928C39.8595 70.8989 40.1147 70.8335 40.3749 70.798C40.5826 70.7684 40.7919 70.7521 41.0016 70.7492C41.9672 70.7492 42.6695 70.9785 43.108 71.4366C43.5458 71.8953 43.83 72.4005 43.9598 72.9527C44.0087 73.1552 44.0432 73.3566 44.0635 73.5555C44.0837 73.7539 44.0938 73.9427 44.0938 74.1208V74.3156C44.0938 74.3806 44.0897 74.4419 44.0813 74.4985H39.0054C39.0138 74.6284 39.0281 74.7767 39.0477 74.9429C39.0686 75.1091 39.1031 75.2777 39.1514 75.448C39.2651 75.8132 39.4683 76.151 39.7602 76.4583C40.0521 76.7669 40.4941 76.9212 41.0868 76.9212C41.5657 76.9212 41.9696 76.7973 42.2984 76.5501C42.6273 76.3023 42.8197 75.9913 42.8768 75.6184H44.0087V75.6178ZM42.8768 73.6943C42.8768 73.5728 42.8667 73.4364 42.8465 73.2863C42.825 73.1313 42.7905 72.9785 42.7434 72.8294C42.648 72.4944 42.47 72.1888 42.2257 71.9406C41.9702 71.6731 41.5747 71.5391 41.0391 71.5391C40.3982 71.5391 39.9228 71.7178 39.6148 72.0746C39.3062 72.432 39.1198 72.8216 39.0549 73.2434C39.0394 73.3196 39.0293 73.3969 39.0245 73.4745C39.0203 73.5478 39.0185 73.6205 39.0185 73.6937L42.8768 73.6943ZM48.3858 75.5696C48.4186 75.9431 48.5765 76.2594 48.8606 76.5191C49.1447 76.7794 49.5826 76.9087 50.1753 76.9087C50.7031 76.9087 51.0861 76.7949 51.3256 76.5679C51.5651 76.3404 51.6848 76.0646 51.6848 75.7399C51.6848 75.3825 51.5484 75.1317 51.2767 74.9846C51.0045 74.8386 50.6781 74.7249 50.2962 74.6439C50.2313 74.6278 50.1664 74.6135 50.1014 74.6016C50.0365 74.5896 49.9716 74.5754 49.9066 74.5593H49.8822C49.8739 74.5593 49.8661 74.5551 49.8578 74.5468C49.299 74.444 48.7552 74.2724 48.2387 74.0357C47.7514 73.8087 47.5078 73.3256 47.5078 72.5869C47.5078 72.0192 47.6907 71.6028 48.0558 71.3389C48.4137 71.0785 48.8256 70.9018 49.2609 70.8219C49.3896 70.7977 49.5198 70.7814 49.6505 70.773C49.7762 70.7648 49.9022 70.7607 50.0282 70.7605C50.905 70.7605 51.5257 70.919 51.8909 71.2353C52.2561 71.5516 52.4872 71.8965 52.5849 72.27C52.601 72.3427 52.6129 72.4136 52.6218 72.4827L52.6462 72.6834H51.5996C51.5887 72.6104 51.5766 72.5375 51.5633 72.4648C51.5442 72.3693 51.507 72.2783 51.4537 72.1967C51.372 72.0347 51.2261 71.8882 51.0152 71.7583C50.8043 71.629 50.4874 71.5641 50.0657 71.5641C50.0246 71.5641 49.9352 71.5683 49.7976 71.5766C49.66 71.585 49.5135 71.6136 49.3598 71.6624C49.1811 71.719 49.0167 71.8143 48.8666 71.9477C48.7164 72.0812 48.6414 72.2789 48.6414 72.5381C48.6414 72.9443 48.7855 73.216 49.0739 73.3536C49.3616 73.4918 49.713 73.6014 50.127 73.6824C50.2499 73.7008 50.3718 73.7253 50.4922 73.7557C51.2225 73.91 51.7986 74.1065 52.2209 74.346C52.6427 74.5849 52.8535 75.0215 52.8535 75.6542C52.8535 76.2868 52.6176 76.7842 52.147 77.1458C51.6764 77.5074 51.0152 77.6873 50.1628 77.6873C49.2782 77.6873 48.5759 77.4925 48.057 77.1035C47.537 76.7139 47.2695 76.2022 47.2534 75.5696H48.3858ZM56.7786 70.9559V69.0199H57.9235V70.9559H59.3234V71.7589H57.9235V75.9353C57.9235 76.1867 57.9539 76.3994 58.0152 76.5739C58.076 76.7484 58.2761 76.8354 58.6181 76.8354C58.7307 76.8354 58.8427 76.8217 58.9523 76.7931C59.0619 76.7645 59.1619 76.7341 59.2513 76.702C59.2596 76.702 59.271 76.7002 59.2876 76.696C59.3043 76.6918 59.3168 76.6853 59.324 76.6776V77.5175C59.2995 77.5175 59.2614 77.5258 59.209 77.5419C59.1566 77.558 59.094 77.5747 59.0208 77.5908C58.8898 77.618 58.7579 77.6403 58.6252 77.6575C58.4658 77.678 58.3052 77.6882 58.1445 77.6879C57.665 77.6879 57.3349 77.5925 57.1521 77.4019C56.978 77.2281 56.8612 77.0053 56.8173 76.7633C56.801 76.6666 56.7908 76.5689 56.7869 76.4709C56.7824 76.3818 56.78 76.2926 56.7798 76.2034V76.1855V71.7601H55.6241V70.9571H56.7786V70.9559ZM63.0786 76.1051H64.3576V77.5169H63.0786V76.1051ZM68.917 78.2478H70.0375C70.0459 78.2806 70.0679 78.3389 70.1037 78.4241C70.14 78.5099 70.2037 78.6011 70.2919 78.6982C70.4057 78.8197 70.5749 78.934 70.7971 79.0389C71.0204 79.1449 71.3308 79.1973 71.7287 79.1973C72.2636 79.1973 72.6586 79.0758 72.9094 78.8322C73.1602 78.5885 73.327 78.3211 73.4086 78.0286C73.4658 77.8666 73.4991 77.7081 73.5122 77.5538C73.5241 77.3995 73.5307 77.2661 73.5307 77.1517V76.4458C73.4979 76.4863 73.4658 76.531 73.433 76.5799C73.4002 76.6287 73.3645 76.677 73.3234 76.7258C73.1441 76.9123 72.9046 77.0868 72.6044 77.2494C72.3042 77.412 71.911 77.4925 71.4237 77.4925C71.2939 77.4928 71.1642 77.4848 71.0353 77.4686C70.3932 77.3954 69.8058 77.1112 69.2691 76.6156C68.7342 76.1212 68.4661 75.3098 68.4661 74.181C68.4661 73.2398 68.6811 72.4285 69.1106 71.7464C69.5413 71.0643 70.2716 70.7236 71.3028 70.7236C71.9521 70.7236 72.4537 70.8433 72.8057 71.0828C73.1584 71.3223 73.4121 71.5844 73.5664 71.8679H73.6028L73.5795 70.9553H74.6744V77.3465C74.6744 77.477 74.6661 77.6146 74.65 77.7605C74.6339 77.9065 74.6012 78.0566 74.5523 78.2109C74.4314 78.657 74.1615 79.0675 73.7439 79.4404C73.3264 79.8133 72.6538 79.9997 71.7287 79.9997C70.7548 79.9997 70.0649 79.8193 69.6587 79.4583C69.2524 79.0973 69.0058 78.6892 68.9164 78.2347L68.917 78.2478ZM71.6805 76.6895C71.7988 76.6891 71.917 76.681 72.0343 76.665C72.415 76.6079 72.7664 76.4041 73.0875 76.0509C73.4074 75.697 73.5682 75.0668 73.5682 74.1572C73.5682 73.1427 73.3609 72.4553 72.9469 72.0937C72.5341 71.7333 72.0742 71.5522 71.5715 71.5522C71.0038 71.5522 70.5427 71.7672 70.1894 72.1973C69.8368 72.628 69.6599 73.2767 69.6599 74.1453C69.6599 74.9083 69.7879 75.4683 70.0441 75.8251C70.3002 76.1819 70.5814 76.422 70.89 76.5435C71.0282 76.6007 71.1658 76.6388 71.304 76.6591C71.4404 76.6793 71.5661 76.6895 71.6805 76.6895ZM82.3273 71.8441C82.2594 71.8276 82.1898 71.8194 82.12 71.8197H81.8883C81.8234 71.8197 81.7566 71.822 81.6869 71.8262C81.6194 71.8298 81.5524 71.84 81.4868 71.8566C81.0644 71.9215 80.6784 72.1407 80.3306 72.5142C79.9803 72.8877 79.8069 73.549 79.8069 74.4985V77.5175H78.662V70.9559H79.745L79.7331 72.2218H79.7694C79.9666 71.8063 80.285 71.4603 80.6826 71.2293C81.0585 71.0046 81.4862 70.8808 81.924 70.8701H82.3267L82.3273 71.8441ZM85.1938 74.2304C85.1938 73.1189 85.4779 72.2504 86.0456 71.6255C86.6133 71 87.4008 70.6878 88.4076 70.6878C89.4143 70.6878 90.2018 71 90.7695 71.6255C91.3372 72.2504 91.6213 73.1189 91.6213 74.2304C91.6213 75.3343 91.3372 76.1986 90.7695 76.8235C90.2018 77.4484 89.4143 77.7611 88.4076 77.7611C87.4008 77.7611 86.6133 77.4484 86.0456 76.8235C85.4779 76.1986 85.1938 75.3337 85.1938 74.2304ZM86.3864 74.2304C86.3874 74.4215 86.3955 74.6125 86.4108 74.8029C86.468 75.3378 86.6401 75.8317 86.9285 76.2814C87.2156 76.7324 87.7094 76.9575 88.407 76.9575C89.1135 76.9575 89.6079 76.7324 89.8926 76.2814C90.1752 75.8349 90.35 75.3287 90.4031 74.8029C90.4184 74.6125 90.4266 74.4215 90.4276 74.2304C90.4265 74.0394 90.4183 73.8484 90.4031 73.658C90.3495 73.1323 90.1748 72.6262 89.8926 72.1795C89.6073 71.7291 89.1129 71.5034 88.407 71.5034C87.7088 71.5034 87.2156 71.7291 86.9285 72.1795C86.5881 72.708 86.4024 73.3213 86.3923 73.9499C86.3888 74.0476 86.3864 74.1411 86.3864 74.2304ZM99.6614 77.5169L99.6739 76.5918H99.6376C99.3291 77.0522 98.8676 77.3886 98.3348 77.5413C98.179 77.5964 98.0179 77.6352 97.8541 77.6569C97.7024 77.6764 97.5496 77.6866 97.3966 77.6873C96.7229 77.6873 96.2392 77.5437 95.9425 77.2548C95.6459 76.9671 95.4493 76.6442 95.3516 76.2868C95.3039 76.1081 95.2724 75.9341 95.261 75.7638C95.2495 75.6139 95.2433 75.4637 95.2426 75.3134V70.9553H96.3875V74.9721C96.3875 75.5731 96.4828 76.0288 96.6734 76.3422C96.8641 76.6543 97.2274 76.811 97.7624 76.811C98.3312 76.811 98.7441 76.6764 99.0038 76.4089C99.2647 76.1408 99.4345 75.8489 99.5155 75.532C99.5727 75.3456 99.606 75.1633 99.6191 74.984C99.6311 74.8059 99.6376 74.6558 99.6376 74.5337V70.9547H100.781V77.5163H99.6614V77.5169ZM105.852 70.9559L105.841 71.8566H105.865C106.149 71.4509 106.476 71.1549 106.845 70.9684C107.214 70.782 107.609 70.6878 108.032 70.6878C108.932 70.6878 109.651 70.9982 110.186 71.6189C110.722 72.2402 110.99 73.1147 110.99 74.2424C110.99 75.4111 110.715 76.2856 110.162 76.8658C109.61 77.446 108.912 77.7361 108.068 77.7361C107.54 77.7361 107.098 77.6283 106.741 77.4132C106.397 77.2122 106.112 76.9249 105.913 76.5799V79.9032H104.768V70.9553L105.852 70.9559ZM105.828 74.2668C105.828 75.0376 105.964 75.616 106.237 76.0014C106.508 76.3863 106.807 76.6484 107.131 76.7866C107.362 76.8887 107.61 76.9426 107.862 76.945C107.951 76.945 108.043 76.9385 108.136 76.9266C108.229 76.9146 108.321 76.892 108.41 76.8598C108.758 76.7544 109.077 76.509 109.366 76.1236C109.655 75.7381 109.798 75.1109 109.798 74.2429C109.798 73.3345 109.61 72.6524 109.232 72.1973C108.854 71.7428 108.374 71.5153 107.79 71.5153C107.642 71.5147 107.495 71.5313 107.351 71.5647C106.969 71.6541 106.62 71.8995 106.304 72.301C105.986 72.7019 105.828 73.3577 105.828 74.2668Z" fill="black"/>
</svg>
