<svg width="143" height="80" viewBox="0 0 143 80" fill="none" xmlns="http://www.w3.org/2000/svg">
<path d="M13.0897 44.8883L11.2383 47.6167L0 50.1177H14.5838L32.1234 25.27L57.6532 50.1502L32.773 15.3309L13.0897 44.8883ZM119.334 44.8233L114.592 38.9118V19.9107L103.678 13.7718L104.166 25.3674L84.872 0L58.4977 49.7604L58.7251 50.1177L84.8395 9.12707L116.541 50.1177H142.103L119.334 44.8233Z" fill="black"/>
<path d="M77.9211 32.1545L77.8561 38.9755L86.6909 39.0404L86.7883 27.0226C83.1505 27.0875 78.7006 29.1338 77.9211 32.1545ZM87.8277 27.0551L87.7302 39.0404L96.565 39.1054L96.6299 32.2845C96.1103 29.4262 91.9852 27.4124 87.8277 27.0551ZM77.8236 43.4578L77.7912 50.2463L86.6259 50.3437L86.6909 41.0218L77.8561 40.9243L77.8236 43.4578ZM87.6653 50.3437L96.5 50.4087L96.5325 43.6527L96.565 41.1192L87.7302 41.0218L87.6653 50.3437ZM27.3162 37.0916L27.2837 42.0287L33.7474 42.0936L33.8123 33.3888C31.1489 33.4213 27.8684 34.8829 27.3162 37.0916ZM34.5919 33.4213L34.5269 42.0936L40.9906 42.1586L41.023 37.2215C40.6657 35.1103 37.645 33.6486 34.5919 33.4213ZM27.2512 45.2767L27.2188 50.1813L33.6824 50.2463L33.7474 43.4903L27.2512 43.4253V45.2767ZM34.4619 50.2463L40.9256 50.3112L40.9906 45.4066V43.5552L34.4944 43.4903L34.4619 50.2463ZM56.1265 26.7627L34.2671 16.239L56.7762 46.6084L56.1265 26.7627ZM57.4258 27.0226L57.7506 46.9007L82.9556 1.16797L57.4258 27.0226Z" fill="#29ABE2"/>
<path d="M15.5234 78.376H121.41V80H15.5234V78.376ZM23.5786 56.9062C23.3513 57.0687 23.1239 57.2635 22.929 57.4909C22.8316 57.5883 22.6367 57.8157 22.3119 58.173C22.0521 57.9132 21.8247 57.7507 21.5973 57.7507C21.1101 57.7507 20.6229 58.2704 20.1682 59.3423C19.8758 60.1218 19.5835 60.9339 19.3237 61.7134C18.8365 62.7853 18.3493 63.8246 17.862 64.8965C17.2124 66.2282 16.8876 67.3325 16.8876 68.2095C16.8876 68.6643 16.9526 69.054 17.115 69.4113C17.6996 69.054 18.2193 68.4694 18.6091 67.6574C18.7715 67.365 19.0638 66.618 19.4861 65.4812C19.681 64.9615 19.9083 64.4418 20.2331 63.8896C20.493 63.4349 20.8178 62.9152 21.2076 62.363C21.4999 61.9408 21.7922 61.486 22.0845 61.0638C22.4743 60.5116 22.8316 60.0244 23.1564 59.6671C23.2863 60.1868 23.3513 60.7065 23.4162 61.1937C23.4487 61.6809 23.4812 62.4604 23.4812 63.5323V64.0845C23.4812 64.929 23.5137 65.676 23.5462 66.3581C23.5786 67.0402 23.6761 67.6574 23.806 68.242C24.4556 68.177 25.0078 67.7873 25.5275 67.1377C25.8198 66.7479 26.2421 66.1632 26.8267 65.3187C27.3139 64.7666 27.8336 64.117 28.3533 63.4024C28.8405 62.7203 29.3277 62.0382 29.8474 61.3561C29.8474 62.0382 29.75 62.8177 29.5226 63.7597C29.2952 64.7016 29.1004 65.6111 28.873 66.5205C28.6781 67.43 28.5482 68.242 28.5482 68.9566C28.5482 69.3463 28.5807 69.7361 28.6456 70.0934C28.7106 70.4507 28.808 70.808 28.9704 71.1653C29.4901 70.6456 29.8799 69.6387 30.1722 68.1446C30.3346 67.0077 30.5295 65.8384 30.6919 64.7016C30.8543 63.8246 31.0492 62.9477 31.2441 62.0057C31.439 61.0638 31.5364 60.2193 31.5364 59.4722C31.5364 58.8876 31.4714 58.3354 31.374 57.8157C30.8218 57.9132 30.3021 58.3354 29.75 59.0825C29.3602 59.6996 28.9704 60.3492 28.5807 60.9663C27.7362 62.2656 27.184 63.0776 26.9566 63.3699C26.2745 64.2469 25.5924 64.929 24.9103 65.3512C24.9103 63.7597 24.9104 62.5579 24.8779 61.7134C24.8779 60.9014 24.8129 60.0244 24.683 59.0825C24.6505 58.6927 24.5531 58.3354 24.4231 58.0106C24.2607 57.5559 24.0334 57.296 23.806 57.1986L23.5786 56.9062Z" fill="black"/>
<path d="M36.7682 60.6083C37.8076 59.6014 38.8794 59.0817 40.0163 59.0817C40.406 59.0817 40.7958 59.1467 41.1531 59.2766C41.5104 59.4065 41.9001 59.5689 42.2574 59.8288C42.8746 60.251 43.3618 60.7707 43.7191 61.3878C44.0763 62.005 44.2387 62.6221 44.2387 63.3042C44.2387 63.4666 44.2387 63.629 44.2063 63.8239C44.0439 64.8633 43.2318 65.8377 41.7702 66.6497C40.4385 67.3968 39.1718 67.7865 38.0025 67.7865C36.8981 67.7865 36.0536 67.5916 35.469 67.1694C34.8843 66.7471 34.592 66.13 34.592 65.3505C34.592 64.9282 34.6569 64.506 34.7869 64.0512C35.1442 62.6871 35.8262 61.5502 36.7682 60.6083ZM40.0163 57.75C38.9444 57.75 37.905 58.1073 36.8981 58.7894C35.9887 59.4065 35.1766 60.3485 34.4296 61.5502C33.6176 62.8819 33.1953 64.1487 33.1953 65.2855C33.1953 65.8377 33.2928 66.3574 33.5201 66.8121C33.715 67.2668 34.0723 67.6566 34.4945 67.9489C34.9493 68.2413 35.404 68.4686 35.8587 68.5985C36.3135 68.7285 36.8007 68.7934 37.2879 68.7934C38.0999 68.7934 39.0418 68.631 40.0812 68.2737C40.8283 68.0139 41.7052 67.6241 42.6797 67.1369C43.4917 66.7147 44.1088 66.1625 44.5635 65.4154C44.9533 64.7333 45.1482 63.9538 45.1482 63.1093C45.1482 62.2323 44.9208 61.3878 44.4986 60.5758C44.0763 59.7638 43.4592 59.0817 42.6797 58.5945C41.8677 58.0098 40.9582 57.75 40.0163 57.75Z" fill="#29ABE2"/>
<path d="M48.0357 64.9597C47.4186 66.2264 47.0938 67.2658 47.0938 68.1103C47.0938 68.4351 47.1262 68.7275 47.1912 69.0198C47.8083 68.8574 48.2955 68.1428 48.6203 66.8761C48.9451 65.6418 49.4648 64.8622 50.1794 64.6024C50.6666 64.44 51.2188 64.2776 51.8359 64.1802C52.4531 64.0827 53.1027 64.0178 53.7523 64.0178C54.3694 64.0178 54.8891 64.0502 55.3438 64.1477C55.084 64.9272 54.7917 65.6743 54.5318 66.4213C54.207 67.3633 54.0446 68.1428 54.0446 68.7599C54.1421 68.7599 54.272 68.7924 54.4669 68.8574C54.5643 68.8899 54.6942 68.9223 54.8891 68.9548C55.2139 68.2402 55.5387 67.5257 55.8635 66.7786C56.2533 65.9016 56.5456 65.1871 56.7405 64.6349C57.0004 63.8554 57.1952 63.1408 57.2602 62.4587C57.2602 62.4262 57.4551 61.6467 57.8124 60.1201C57.9423 59.5679 58.0073 59.1132 58.0073 58.7234C58.0073 58.4311 57.9748 58.1712 57.9098 57.8789H57.0653C56.9679 58.561 56.8704 59.2431 56.773 59.9577C56.4807 61.6142 55.9285 62.5236 55.149 62.686C54.8891 62.751 53.9472 62.8485 52.3231 63.0433C51.641 63.1408 51.0889 63.2057 50.6341 63.3032C50.6017 63.1733 50.6017 63.0109 50.6017 62.8809C50.6017 62.3937 50.829 61.7116 51.2838 60.8022C51.7385 59.9252 51.9659 59.2431 51.9659 58.8208C51.9659 58.6584 51.9658 58.496 51.9334 58.3336C51.9009 58.2037 51.8359 58.0413 51.771 57.8789C50.9914 58.2037 50.3418 59.2106 49.7247 60.9646C49.3024 62.2313 49.0426 62.9459 48.9451 63.1408C48.6203 63.7579 48.328 64.375 48.0357 64.9597Z" fill="black"/>
<path d="M64.8659 57.2947C64.3137 58.0418 63.8265 58.8863 63.3068 59.8607C62.917 60.6078 62.4948 61.5822 62.0401 62.6865C61.7477 63.4336 61.3905 64.3431 61.0007 65.4474C60.6434 66.0645 60.2861 66.7141 59.9288 67.3313C59.669 67.851 59.5391 68.2732 59.5391 68.5655C59.5391 68.7279 59.5715 68.8579 59.669 68.9878C59.7664 69.1177 59.9288 69.1827 60.1237 69.2152C60.6109 69.2801 61.0332 68.8903 61.4554 67.9809C61.6503 67.5586 61.8452 66.9415 62.0726 66.097C62.2674 65.3824 62.6897 64.4405 63.3068 63.2712C64.1188 61.7446 64.6385 60.8351 64.8009 60.4454C65.2881 59.3735 65.5155 58.3991 65.5155 57.5221H65.0933L64.8659 57.2947ZM67.0096 60.0231C67.237 60.7377 67.4319 61.4198 67.6592 62.1019C67.8541 62.784 68.0815 63.4986 68.3088 64.1806C66.7173 64.5379 65.8403 64.7328 65.6779 64.7653C64.7035 64.9277 63.794 65.0251 62.9495 65.0251C62.9495 65.4474 63.0795 65.7397 63.3718 65.9346C63.6316 66.097 63.9889 66.162 64.4436 66.162C64.7684 66.162 65.1582 66.1295 65.6779 66.032C66.1976 65.9346 66.8472 65.8047 67.6592 65.6423H67.7892C68.4712 65.6423 68.861 66.097 68.9909 67.0065C69.0559 67.4937 69.1209 68.2083 69.1533 69.1827C69.3482 69.1502 69.6405 69.1177 69.9654 69.0528C70.1278 69.0203 70.2902 69.0203 70.4526 68.9878C70.4526 68.7604 70.3551 68.1758 70.1602 67.2663C70.0628 66.8765 70.0303 66.5517 70.0303 66.2919C70.0303 65.7722 70.3551 65.3824 70.9723 65.1226C71.5244 64.9602 72.0441 64.7978 72.5963 64.6029C72.4664 64.3106 72.304 64.0832 72.1416 63.9858C71.9792 63.8558 71.7843 63.8234 71.5894 63.8234C71.4919 63.8234 71.2646 63.8558 70.8748 63.9208C70.7124 63.9533 70.5825 63.9533 70.4526 63.9533C70.2577 63.9533 70.0953 63.9208 69.9654 63.8234C69.8354 63.7259 69.7055 63.5635 69.5756 63.3361C69.3157 62.784 69.0884 62.1668 68.861 61.4523C68.6661 60.7377 68.4388 60.0556 68.2764 59.3735C67.8541 57.9768 67.6268 57.2298 67.5943 57.1648C67.172 56.093 66.7498 55.5733 66.3275 55.6382C66.0677 55.6707 65.9053 55.7357 65.8078 55.8331C65.7104 55.9306 65.6779 56.0605 65.6779 56.2554C65.6779 56.4178 65.7429 56.6451 65.8403 56.905C65.9702 57.1648 66.1326 57.5221 66.3275 57.9119C66.5874 58.6265 66.8147 59.341 67.0096 60.0231Z" fill="#29ABE2"/>
<path d="M81.2042 56.9062C80.9768 57.0687 80.7495 57.2635 80.5546 57.4909C80.4571 57.5883 80.2622 57.8157 79.9374 58.173C79.6776 57.9132 79.4502 57.7507 79.2229 57.7507C78.7356 57.7507 78.2484 58.2704 77.7937 59.3423C77.5014 60.1218 77.2091 60.9339 76.9492 61.7134C76.462 62.7853 75.9748 63.8246 75.4876 64.8965C74.8704 66.2607 74.5781 67.365 74.5781 68.242C74.5781 68.6967 74.6431 69.0865 74.8055 69.4438C75.3901 69.0865 75.9098 68.5018 76.2996 67.6898C76.462 67.3975 76.7543 66.6505 77.1766 65.5136C77.3715 64.9939 77.5988 64.4742 77.9236 63.9221C78.1835 63.4673 78.5083 62.9477 78.8981 62.3955C79.1904 61.9732 79.4827 61.5185 79.775 61.0963C80.1648 60.5441 80.5221 60.0569 80.8469 59.6996C80.9768 60.2193 81.0418 60.739 81.1067 61.2262C81.1392 61.7134 81.1717 62.4929 81.1717 63.5648V64.117C81.1717 64.9615 81.2042 65.7085 81.2367 66.3906C81.2691 67.0727 81.3666 67.6898 81.4965 68.2745C82.1461 68.2095 82.6983 67.8198 83.218 67.1701C83.5103 66.7804 83.9326 66.1957 84.5172 65.3512C85.0044 64.7991 85.5241 64.1494 86.0438 63.4349C86.531 62.7528 87.0182 62.0707 87.5379 61.3886C87.5379 62.0707 87.4405 62.8502 87.2131 63.7922C86.9857 64.7341 86.7909 65.6435 86.5635 66.553C86.3686 67.4625 86.2387 68.2745 86.2387 68.9891C86.2387 69.3788 86.2712 69.7686 86.3361 70.1259C86.4011 70.4832 86.4985 70.8405 86.6609 71.1977C87.1806 70.6781 87.5704 69.6712 87.8627 68.177C88.0251 67.0402 88.22 65.8709 88.3824 64.7341C88.5448 63.8571 88.7397 62.9801 88.9346 62.0382C89.1295 61.0963 89.2269 60.2518 89.2269 59.5047C89.2269 58.9201 89.1619 58.3679 89.0645 57.8482C88.5123 57.9456 87.9926 58.3679 87.4405 59.1149C87.0507 59.7321 86.6609 60.3817 86.2712 60.9988C85.4267 62.298 84.8745 63.1101 84.6471 63.4024C83.965 64.2794 83.2829 64.9615 82.6009 65.3837C82.6009 63.7922 82.6008 62.5904 82.5684 61.7459C82.5684 60.9339 82.5034 60.0569 82.3735 59.1149C82.341 58.7252 82.2436 58.3679 82.1136 58.0431C81.9512 57.5883 81.7239 57.3285 81.4965 57.2311L81.2042 56.9062Z" fill="black"/>
<path d="M100.721 67.9838C101.208 68.1462 101.565 68.2111 101.825 68.2111C101.955 68.2111 102.085 68.2111 102.247 68.1786C102.15 67.594 101.76 67.1717 101.143 66.9444C100.688 66.782 100.039 66.6845 99.1617 66.6845H97.7325C97.1479 66.6845 96.3034 66.782 95.1666 67.0093C94.0297 67.2042 93.2502 67.3342 92.7955 67.3342C93.2177 66.4247 93.64 65.5477 94.0947 64.6383C94.3221 64.0861 94.7118 63.7613 95.264 63.6314C95.8162 63.5664 96.3684 63.4689 96.9205 63.404C97.5701 63.2741 98.5121 63.1441 99.7463 63.0792C100.981 63.0142 101.695 62.9817 101.923 62.9493C102.832 62.8193 103.612 62.6245 104.229 62.3646C104.066 62.1048 103.839 61.9424 103.579 61.8449C103.319 61.7475 102.962 61.715 102.54 61.715C102.28 61.715 101.663 61.78 100.688 61.9099C100.299 61.9748 99.9412 61.9748 99.6814 61.9748C99.3241 61.9748 98.9018 62.0073 98.3822 62.0723C97.2778 62.2347 96.5632 62.2996 96.2709 62.2996C96.076 62.2996 95.8811 62.2996 95.7187 62.2672C95.5239 62.2347 95.3615 62.2022 95.199 62.1697C95.9136 60.7081 96.5957 59.7012 97.2453 59.149C98.0249 58.4344 99.1292 58.0122 100.591 57.8173L103.806 57.6224H104.229C104.553 57.6224 104.911 57.6874 105.333 57.8173C105.755 57.9472 106.048 58.0122 106.275 58.0122C106.502 58.0122 106.762 57.9472 107.054 57.8498C106.892 57.3626 106.567 56.9728 106.015 56.7454C105.56 56.5506 104.943 56.4531 104.196 56.4531C103.741 56.4531 103.157 56.4856 102.442 56.583C101.728 56.6805 100.851 56.8104 99.7788 57.0053C98.7719 57.2002 97.765 57.4275 96.7581 57.6224C96.2059 57.6874 95.8162 57.9472 95.5888 58.4669C95.3939 58.9541 95.2315 59.4413 95.0691 59.9286C93.9973 62.2347 92.9254 64.5083 91.8535 66.8145L91.1714 67.7889C91.0415 68.0162 90.9766 68.2111 90.9766 68.406C90.9766 68.6983 91.009 68.8932 91.1065 68.9907C91.1714 69.0556 91.3014 69.0881 91.4638 69.0881H92.2108C92.6006 69.0881 93.0553 69.0231 93.5425 68.8607C94.8742 68.4385 95.5888 68.2436 95.6863 68.2436C96.1735 68.1786 96.6282 68.1137 97.1154 68.0162C98.0573 67.8863 98.8694 67.8214 99.5515 67.8214C99.8113 67.7564 100.234 67.8214 100.721 67.9838Z" fill="#29ABE2"/>
<path d="M113.555 63.5005C114.237 63.4356 114.627 63.4031 114.725 63.3706C114.66 62.9483 114.53 62.6235 114.367 62.4611C114.205 62.2987 114.01 62.2013 113.75 62.2013C113.588 62.2013 113.328 62.2338 112.938 62.3312C112.548 62.4287 112.289 62.4936 112.126 62.5261V62.2013C112.646 60.7721 113.133 59.343 113.653 57.9138C113.718 57.5241 113.783 57.2642 113.88 57.1343C113.978 57.0044 114.107 56.9069 114.27 56.9069C114.367 56.9069 114.497 56.9394 114.66 56.9719C114.822 57.0044 114.984 57.0369 115.147 57.1018C115.894 57.2967 116.479 57.4916 116.998 57.719C117.648 58.0113 118.168 58.3686 118.59 58.7908C119.012 59.2131 119.337 59.6028 119.532 59.9601C119.727 60.3174 119.824 60.7072 119.824 61.1294C119.824 61.4218 119.759 61.7466 119.662 62.1363C119.467 62.7859 119.142 63.468 118.655 64.1501C118.168 64.8647 117.648 65.4494 117.063 65.9041C116.479 66.3588 115.699 66.846 114.692 67.3008C113.718 67.7555 112.841 68.0478 112.126 68.1777C111.996 68.2102 111.801 68.2427 111.509 68.3401C111.412 68.3726 111.314 68.3726 111.282 68.3726C111.184 68.3726 111.087 68.3401 110.989 68.2752C110.892 68.2102 110.762 68.1128 110.632 67.9504C110.502 67.788 110.405 67.5931 110.405 67.3657C110.405 67.2358 110.437 67.0409 110.47 66.8785C110.502 66.6836 110.567 66.4887 110.632 66.2939C110.762 65.8066 110.957 65.3194 111.184 64.8972C111.509 64.3125 111.801 63.9552 112.126 63.7928C112.418 63.6629 112.873 63.5655 113.555 63.5005ZM109.333 55.4453C109.3 55.4453 108.618 55.5752 107.286 55.8351C106.767 55.9325 106.377 55.9975 106.117 56.0949C106.15 56.3223 106.215 56.5497 106.312 56.7445C106.377 56.9394 106.474 57.1343 106.572 57.3617C107.254 57.1343 107.904 56.9719 108.521 56.842C109.17 56.7445 109.787 56.6796 110.405 56.6796C110.827 56.6796 111.217 56.7121 111.606 56.7445C111.996 56.777 112.386 56.842 112.776 56.9394C112.386 57.4916 112.094 58.1412 111.801 58.8233C111.541 59.5379 111.282 60.22 111.022 60.9345C110.762 61.6491 110.502 62.1038 110.275 62.3312C109.95 62.6235 109.43 62.7535 108.683 62.7535C108.683 62.8509 108.651 62.9808 108.618 63.1108C108.586 63.2407 108.521 63.4031 108.488 63.598C108.553 63.598 108.846 63.6954 109.365 63.8253C109.755 63.9228 110.047 63.9877 110.21 64.0202C109.852 64.7997 109.528 65.6118 109.203 66.3913C108.813 67.3332 108.553 68.1128 108.488 68.8273C108.456 69.0222 108.456 69.2171 108.456 69.3795C108.456 69.6069 108.488 69.8018 108.586 69.9642C108.683 70.0941 108.813 70.1915 109.04 70.1915C109.203 70.1915 109.365 70.1591 109.593 70.0941C109.658 70.0616 109.723 69.9967 109.82 69.8667C109.917 69.7368 110.047 69.6718 110.242 69.6718L110.437 69.8992V70.0941L110.632 69.9317H111.217C111.314 69.9317 111.412 69.9317 111.509 69.8992C112.191 69.7693 112.906 69.477 113.718 69.0547C114.237 68.7624 114.919 68.3401 115.796 67.723C116.771 67.0409 117.42 66.5862 117.745 66.3913C118.785 65.7092 119.532 64.9946 120.019 64.2801C120.539 63.5005 120.766 62.5261 120.766 61.3893C120.766 60.22 120.311 59.1481 119.369 58.1737C118.492 57.2642 117.453 56.6796 116.251 56.3873C115.342 56.1599 114.497 55.9975 113.718 55.9C112.938 55.8026 112.061 55.7701 111.087 55.7701C110.957 55.7701 110.697 55.7376 110.307 55.6727C109.917 55.6077 109.69 55.5752 109.593 55.5752H109.333V55.4453Z" fill="black"/>
</svg>
