<svg width="175" height="52" viewBox="0 0 175 52" fill="none" xmlns="http://www.w3.org/2000/svg">
<path fill-rule="evenodd" clip-rule="evenodd" d="M32.7391 0.265176H30.7231C26.8498 0.318417 23.984 2.01701 22.1267 4.40363C20.2162 2.01598 17.3514 0.317393 13.4771 0.265176H11.5144C3.23746 0.371658 0 7.42915 0 12.5751L0.05324 31.9425H5.67733V9.65708C5.67733 6.95101 6.84453 5.19918 10.0287 5.19918H14.5931C17.7763 5.19918 19.263 6.94999 19.263 9.65708V31.9425H24.9403V9.65708C24.9403 6.95101 26.4259 5.19918 29.6102 5.19918H34.067C37.3045 5.19918 38.5239 6.94999 38.5239 9.65708V31.9425H44.2012V12.5761C44.2002 7.42915 40.9628 0.371658 32.7391 0.265176ZM97.5272 0C102.357 0 106.336 1.27369 108.724 4.13846C110.21 5.83602 110.846 7.85201 110.846 9.81578C110.846 12.2034 109.679 14.4324 108.034 15.9713C105.806 18.0405 102.728 18.9425 98.2172 18.9425H86.4909V20.3749C86.4909 27.0085 87.3407 26.8488 96.0415 26.8488H107.239L107.186 31.2545C103.842 31.7848 99.1193 31.9425 94.6102 31.9425C85.9073 31.9425 80.6006 27.5389 80.6006 17.9883V13.902C80.6006 6.26195 85.0575 0 94.8733 0H97.5272ZM99.7571 14.2204C105.011 14.2204 105.275 13.7433 105.275 9.76356C105.275 5.09372 104.532 5.14696 99.3312 5.14696H92.9638C87.7103 5.14696 86.4909 5.89029 86.4909 10.2407V10.8243C86.4909 14.4324 86.8093 14.2194 90.1 14.2194L99.7571 14.2204ZM125.067 32.4749C120.185 32.4749 116.204 31.147 113.817 28.2812C112.385 26.5836 111.695 23.8775 111.695 21.9138C111.695 19.5261 112.757 17.2982 114.401 15.7061C116.631 13.6368 119.815 12.5751 124.324 12.5751H133.929C135.838 12.5751 136.316 11.7796 136.316 10.5591C136.316 5.25242 134.195 5.57084 126.766 5.57084H115.623V1.21942C118.487 0.742296 124.378 0.530359 128.517 0.530359C138.492 0.530359 142.26 6.41962 142.26 14.6453V18.147C142.26 27.5931 138.386 32.4749 127.825 32.4749H125.067ZM136.316 17.0862H123.104C117.905 17.0862 117.322 17.6166 117.322 21.968C117.322 27.0095 117.322 27.3269 123.263 27.3269H129.897C135.467 27.3269 136.317 27.3269 136.317 21.8073L136.316 17.0862ZM72.4824 0.47814C62.1885 0.47814 57.5729 7.42915 57.5729 14.1682V31.8913H63.5154V11.9383C63.5154 7.00425 64.9488 5.5176 71.5282 5.5176H79.6996L79.8583 0.900998C77.8413 0.636841 75.4004 0.47814 72.4824 0.47814ZM161.361 31.8903C151.015 31.8903 146.611 25.1512 146.611 18.4121L146.663 0.477116H152.553V20.4281C152.553 25.3632 153.933 26.903 159.77 26.903H170.86V31.6241C169.586 31.7848 163.166 31.8903 161.361 31.8903ZM48.8168 19.951C48.2332 19.8445 47.7029 19.3142 47.5964 18.7306C47.5964 18.7306 47.4377 17.7753 47.4377 16.6081C47.4377 15.4409 47.6496 14.4324 47.6496 14.4324C47.7029 13.901 48.2332 13.3706 48.8168 13.2652C48.8168 13.2652 49.8253 13.0532 50.9393 13.0532C52.1075 13.0532 53.115 13.2652 53.115 13.2652C53.6986 13.3717 54.23 13.902 54.2822 14.4324C54.3354 14.4324 54.4952 15.4409 54.4952 16.6081C54.4952 17.7763 54.3354 18.7306 54.3354 18.7306C54.229 19.3142 53.6986 19.8445 53.115 19.951C53.115 19.951 52.1075 20.1107 50.9925 20.1107C49.8253 20.1107 48.8168 19.951 48.8168 19.951ZM105.752 51.9478V41.4409H104.956L101.4 49.5059L97.7391 41.4409H96.9436V51.9478H97.7391V43.2992L100.977 50.4622H101.773L104.956 43.2992V51.9478H105.752ZM113.765 51.9478V47.066C113.765 45.5804 112.863 44.7306 111.005 44.7306C109.837 44.7306 109.096 44.9968 108.458 45.8445L109.042 46.3227C109.465 45.6326 109.998 45.4207 111.005 45.4207C112.439 45.4207 112.969 46.0043 112.969 47.1182V47.9138H110.687C109.147 47.9138 108.193 48.7093 108.193 49.983C108.193 50.5133 108.405 51.0447 108.723 51.3632C109.201 51.8413 109.785 51.999 110.845 51.999C111.854 51.999 112.384 51.8413 112.968 51.2034V51.9478H113.765ZM112.969 49.4547C112.969 50.1448 112.863 50.5686 112.597 50.8348C112.119 51.3109 111.483 51.3652 110.846 51.3652C109.52 51.3652 108.99 50.9413 108.99 49.985C108.99 49.0308 109.574 48.5537 110.794 48.5537H112.97L112.969 49.4547ZM122.308 51.9478L119.442 47.4909L121.778 44.8371H120.822L117.32 48.8168V41.4409H116.525V51.9478H117.32V49.8786L118.913 48.0202L121.352 51.9478H122.308ZM129.471 48.5527V48.181C129.471 46.0575 128.409 44.7316 126.659 44.7316C124.855 44.7316 123.793 46.1118 123.793 48.3929C123.793 50.7806 124.855 52 126.817 52C127.985 52 128.674 51.6304 129.364 50.9403L128.834 50.5144C128.196 51.098 127.718 51.3642 126.87 51.3642C125.384 51.3642 124.535 50.3567 124.535 48.5527H129.471ZM128.729 47.9148H124.536C124.59 47.279 124.642 47.067 124.802 46.5889C125.12 45.8445 125.809 45.4207 126.659 45.4207C127.455 45.4207 128.197 45.8445 128.463 46.5889C128.675 47.067 128.729 47.279 128.729 47.9148ZM136.528 42.3429V41.4409H135.574V42.3429H136.528ZM136.422 51.9478V44.8371H135.679V51.9478H136.422ZM141.835 51.9478V51.2577H141.302C140.56 51.2577 140.241 50.8338 140.241 50.0895V45.3684H141.835V44.836H140.241V42.5538H139.447V44.836H138.491V45.3684H139.447V50.0895C139.447 51.1512 140.029 51.9468 141.197 51.9468L141.835 51.9478ZM152.394 45.4207C151.862 44.9425 151.332 44.7306 150.642 44.7306C149.847 44.7306 148.999 45.1022 148.573 45.7923V44.836H147.831V51.9468H148.573V47.5411C148.573 46.4271 149.263 45.4196 150.484 45.4196C151.068 45.4196 151.387 45.5261 151.81 45.952L152.394 45.4207ZM158.707 48.5527V48.181C158.707 46.0575 157.593 44.7316 155.843 44.7316C154.037 44.7316 152.978 46.1118 152.978 48.3929C152.978 50.7806 154.037 52 156.001 52C157.22 52 157.858 51.6304 158.603 50.9403L158.019 50.5144C157.435 51.098 156.903 51.3642 156.055 51.3642C154.57 51.3642 153.773 50.3567 153.773 48.5527H158.707ZM157.914 47.9148H153.774C153.774 47.279 153.826 47.067 153.986 46.5889C154.305 45.8445 155.046 45.4207 155.843 45.4207C156.639 45.4207 157.381 45.8445 157.699 46.5889C157.859 47.067 157.914 47.279 157.914 47.9148ZM166.03 51.9478V47.066C166.03 45.5804 165.182 44.7306 163.27 44.7306C162.157 44.7306 161.361 44.9968 160.778 45.8445L161.309 46.3227C161.785 45.6326 162.263 45.4207 163.27 45.4207C164.704 45.4207 165.289 46.0043 165.289 47.1182V47.9138H163.006C161.466 47.9138 160.512 48.7093 160.512 49.983C160.512 50.5133 160.724 51.0447 161.043 51.3632C161.466 51.8413 162.05 51.999 163.112 51.999C164.119 51.999 164.704 51.8413 165.288 51.2034V51.9478H166.03ZM165.289 49.4547C165.289 50.1448 165.182 50.5686 164.917 50.8348C164.387 51.3109 163.749 51.3652 163.113 51.3652C161.839 51.3652 161.256 50.9413 161.256 49.985C161.256 49.0308 161.839 48.5537 163.06 48.5537H165.29V49.4547H165.289ZM171.178 51.9478V51.2577H170.647C169.798 51.2577 169.586 50.886 169.586 50.0895V41.4409H168.79V50.0895C168.79 51.2034 169.374 51.9468 170.542 51.9468L171.178 51.9478ZM174.149 51.9478V50.8338H173.035V51.9478H174.149Z" fill="#0C0E0F"/>
</svg>
