<svg width="244" height="104" viewBox="0 0 244 104" fill="none" xmlns="http://www.w3.org/2000/svg">


	<path d="M244 0H245V-1H244V0ZM24 0V-1H23.5917L23.3001 -0.714213L24 0ZM244 80L244.715 80.6995L245 80.4079V80H244ZM232.5 91.75L233.2 92.4642L233.207 92.4569L233.215 92.4495L232.5 91.75ZM220 104V105H220.408L220.7 104.714L220 104ZM0 104H-1V105H0V104ZM0 24L-0.714669 23.3005L-1 23.5921V24H0ZM11.5 12.25L10.8001 11.5358L10.7926 11.5431L10.7853 11.5505L11.5 12.25ZM244 -1H24V1H244V-1ZM245 80V0H243V80H245ZM233.215 92.4495L244.715 80.6995L243.285 79.3005L231.785 91.0505L233.215 92.4495ZM220.7 104.714L233.2 92.4642L231.8 91.0358L219.3 103.286L220.7 104.714ZM0 105H220V103H0V105ZM-1 24V104H1V24H-1ZM10.7853 11.5505L-0.714669 23.3005L0.714669 24.6995L12.2147 12.9495L10.7853 11.5505ZM23.3001 -0.714213L10.8001 11.5358L12.1999 12.9642L24.6999 0.714213L23.3001 -0.714213Z" fill="#18333B" fill-opacity="0.08" mask="url(#path-1-inside-1_3_2515)"/>
</svg>
