<svg width="109" height="36" viewBox="0 0 109 36" fill="none" xmlns="http://www.w3.org/2000/svg">
<path fill-rule="evenodd" clip-rule="evenodd" d="M10.0355 10.8633C4.47875 10.8633 0 15.342 0 20.7326C0 26.1232 4.47875 30.602 10.0355 30.602C15.5923 30.602 20.0704 26.1232 20.0704 20.7326C20.0704 15.342 15.5923 10.8633 10.0355 10.8633ZM10.0355 29.5234C5.88849 29.5234 2.48832 25.5431 2.48832 20.6504C2.48832 15.6738 5.88907 11.6929 10.0355 11.6929C14.1819 11.6929 17.5827 15.6738 17.5827 20.6504C17.5827 25.5431 14.1825 29.5234 10.0355 29.5234Z" fill="#3D3D3D" fill-opacity="0.6"/>
<path fill-rule="evenodd" clip-rule="evenodd" d="M6.71875 28.5288C8.70918 23.47 14.5149 27.2852 15.2611 30.1053C16.837 34.9158 19.7399 35.8282 22.8911 32.842C19.9883 38.3987 14.6805 35.4959 13.4363 32.677C11.7776 27.8665 10.0361 25.3776 6.71875 28.5288Z" fill="#3D3D3D" fill-opacity="0.6"/>
<path fill-rule="evenodd" clip-rule="evenodd" d="M36.4951 7.38102V16.8358C36.4951 17.4993 36.5785 17.8316 36.7441 17.9972C36.9103 18.1628 37.3248 18.2456 37.8227 18.2456V18.5779C37.3248 18.744 36.8275 18.909 36.3296 19.158C35.7489 19.3242 35.1688 19.5731 34.5047 19.8215H34.3391V17.7477C33.6757 18.5773 33.0122 19.1574 32.4315 19.4897C31.768 19.8209 31.1046 19.9871 30.2749 19.9871C29.4453 19.9871 28.699 19.7381 28.1183 19.4058C27.5377 19.0746 27.0403 18.4934 26.7086 17.9133C26.5424 17.4987 26.4597 17.1664 26.3769 16.6691C26.2941 16.2546 26.2941 15.5911 26.2941 14.6787V9.03913C26.2941 8.54181 26.2107 8.29228 25.9623 8.1267C25.7968 8.04391 25.3816 7.96113 24.7188 7.87776V7.38044H28.4507V14.3469C28.4507 16.0884 28.6162 17.2498 29.0308 17.8305C29.4453 18.4106 30.1916 18.6595 31.2701 18.6595C31.8502 18.6595 32.4309 18.4934 33.0116 18.1622C33.5089 17.7477 34.0068 17.2498 34.3386 16.5035V9.53703C34.3386 8.87355 34.2552 8.37565 34.0896 8.21007C33.9235 7.96113 33.5089 7.87834 32.9282 7.87834H32.8455V7.38102H36.4951ZM40.5594 18.9924V15.5917H41.1395C41.3884 16.9186 41.803 17.831 42.3008 18.4112C42.7982 18.9924 43.3789 19.3236 44.2085 19.3236C44.9548 19.3236 45.5354 19.0746 46.0328 18.5773C46.4473 18.1622 46.6962 17.5821 46.6962 16.8353C46.6962 16.2551 46.5301 15.7573 46.1983 15.4255C45.8666 15.011 45.2031 14.5131 44.2079 14.0152C42.7148 13.2689 41.7196 12.6882 41.3051 12.1909C40.8905 11.6936 40.7249 11.0301 40.7249 10.3667C40.7249 9.37144 41.1395 8.54239 41.8857 7.9617C42.5492 7.38102 43.5444 7.04928 44.7886 7.04928C45.3693 7.04928 45.9494 7.13207 46.5301 7.29823C47.1108 7.46381 47.6914 7.62997 48.2715 7.9617V10.9473H47.6914C47.5253 9.95213 47.1941 9.12308 46.6134 8.4596C46.0328 7.87892 45.3693 7.54718 44.5396 7.54718C43.9595 7.54718 43.4616 7.71333 43.0465 8.04449C42.632 8.37623 42.4659 8.87355 42.4659 9.37144C42.4659 10.1177 43.0465 10.864 44.2079 11.4447C44.2907 11.5275 44.3741 11.5275 44.4569 11.6102C44.5396 11.6936 44.7886 11.7764 45.1203 11.942C47.6081 13.2689 48.7694 14.5959 48.7694 16.0056C48.7694 17.1664 48.3549 18.1622 47.4425 18.8257C46.6129 19.5719 45.4521 19.9031 44.0417 19.9031C43.3783 19.9031 42.881 19.8203 42.2169 19.7381C41.6374 19.5725 41.1395 19.3236 40.5594 18.9924ZM52.5019 1.40974C52.5019 0.995212 52.6675 0.662894 52.9165 0.414525C53.2482 0.0827872 53.5799 0 53.9945 0C54.409 0 54.7413 0.0827872 55.0725 0.414525C55.3214 0.663473 55.4876 0.995212 55.4876 1.40974C55.4876 1.82427 55.3214 2.156 55.0725 2.48774C54.7413 2.73669 54.409 2.90227 53.9945 2.90227C53.5799 2.90227 53.2482 2.73611 52.9992 2.48774C52.6675 2.156 52.5019 1.82427 52.5019 1.40974ZM55.3214 7.04928V17.4987C55.3214 18.1622 55.4054 18.6595 55.5704 18.8257C55.8193 18.9918 56.2338 19.0746 56.8979 19.0746V19.6547H51.5067V19.0746C52.0874 19.0746 52.5019 18.9085 52.7509 18.7435C52.917 18.4934 52.9998 17.9133 52.9998 17.0014V10.6984C52.9998 10.1183 52.917 9.70319 52.7509 9.45424C52.5847 9.20529 52.2536 8.95692 51.6729 8.70797V8.37623C52.2536 8.21066 52.8337 8.04449 53.3316 7.79612C53.9122 7.62997 54.4096 7.29881 54.9902 7.04986H55.3214V7.04928ZM59.3028 19.0746C60.0491 18.9918 60.4642 18.9085 60.6292 18.7435C60.7954 18.5773 60.8782 18.1622 60.8782 17.3331V10.6984C60.8782 10.1183 60.7954 9.70319 60.547 9.45424C60.3808 9.20529 60.0497 8.95692 59.5518 8.70797V8.37623C60.1319 8.21066 60.7132 8.04449 61.2105 7.79612C61.743 7.56335 62.2683 7.31448 62.7858 7.04986H63.0359V9.28923C63.7822 8.4596 64.4451 7.87891 65.0263 7.54775C65.6064 7.21602 66.3527 7.05044 67.099 7.05044C68.5093 7.05044 69.5039 7.46497 70.168 8.37739C70.7492 9.28981 71.0804 10.6996 71.0804 12.69V18.0812C71.0804 18.4123 71.1632 18.7446 71.3293 18.8274C71.4955 18.9936 71.9095 19.0764 72.6557 19.0764L72.7397 19.6565H67.5146V19.0764C68.1781 19.0764 68.5932 18.9936 68.7582 18.8274C68.8422 18.7446 68.9244 18.4951 68.9244 18.0812V12.0253C68.9244 10.7818 68.7582 9.78597 68.2609 9.20529C67.8458 8.54181 67.1835 8.29286 66.2705 8.29286C65.5242 8.29286 64.943 8.45902 64.4456 8.79076C63.8655 9.1225 63.4504 9.62039 63.0365 10.2833V17.4987C63.0365 18.245 63.1193 18.6595 63.3676 18.8257C63.5338 18.9918 63.9477 19.0746 64.6112 19.0746V19.6547H59.3034L59.3028 19.0746ZM82.2749 10.5322C82.6073 10.5322 82.8562 10.5322 83.0224 10.3661C83.1874 10.1999 83.2713 10.0343 83.2713 9.7026C83.2713 9.12192 83.0224 8.62402 82.5251 8.29228C82.0266 7.87776 81.3637 7.62881 80.5341 7.62881C80.4513 7.62881 80.2851 7.62881 80.2029 7.71218V7.0487H80.9492C82.3595 7.0487 83.6031 7.46323 84.5983 8.2095C85.6768 9.03913 86.1748 9.86819 86.1748 10.7806C86.1748 10.9462 86.1747 11.1123 86.0908 11.1951C86.008 11.2779 85.9258 11.2779 85.6769 11.2779H80.2029V10.5317L82.2749 10.5322ZM80.2023 19.9871V17.9966C80.6174 18.1622 81.1147 18.1622 81.6948 18.1622C82.6901 18.1622 83.5197 17.9133 84.3487 17.4159C85.095 16.918 85.6763 16.1718 86.0074 15.2594L86.5875 15.4255C86.0902 16.8353 85.344 17.9966 84.3487 18.7435C83.2713 19.5725 82.026 19.9871 80.6174 19.9871H80.2023ZM80.2023 7.71276C79.5388 7.79555 78.8748 8.0445 78.3775 8.45902C77.7974 8.95634 77.3823 9.70318 77.1339 10.5328H80.2029V11.2791H76.9677C76.8849 11.8592 76.8849 12.2743 76.8027 12.606V13.3529C76.8027 14.7626 77.2167 15.9234 78.213 16.8358C78.7932 17.4165 79.4566 17.7483 80.2035 17.9972V19.9876C78.627 19.9037 77.3834 19.3242 76.3882 18.245C75.2268 17.0848 74.6467 15.5917 74.6467 13.8502C74.6467 11.7764 75.2268 10.1183 76.3882 8.87355C77.3006 7.79554 78.627 7.21486 80.2035 7.04928V7.71276H80.2023ZM88.9103 18.9924V15.5917H89.4904C89.8227 16.9186 90.1539 17.831 90.6518 18.4112C91.1491 18.9924 91.8131 19.3236 92.5594 19.3236C93.3057 19.3236 93.9697 19.0746 94.3842 18.5773C94.8816 18.1622 95.1305 17.5821 95.1305 16.8353C95.1305 16.2551 94.9644 15.7573 94.6332 15.4255C94.2181 15.011 93.5546 14.5131 92.6428 14.0152C91.0663 13.2689 90.1539 12.6882 89.7388 12.1909C89.3148 11.677 89.0808 11.0328 89.0759 10.3667C89.0759 9.37144 89.4898 8.54239 90.2372 7.9617C90.9835 7.38102 91.9787 7.04928 93.1401 7.04928C93.803 7.04928 94.3837 7.13207 94.9638 7.29823C95.545 7.46381 96.1251 7.62997 96.6225 7.9617V10.9473H96.0424C95.9584 9.95213 95.6272 9.12308 95.0471 8.4596C94.4659 7.87892 93.8024 7.54718 92.9733 7.54718C92.3099 7.54718 91.812 7.71333 91.3969 8.04449C91.0657 8.37623 90.8168 8.87355 90.8168 9.37144C90.8168 10.1177 91.3969 10.864 92.6416 11.4447C92.7244 11.5275 92.8066 11.5275 92.8066 11.6102C92.9728 11.6936 93.2217 11.7764 93.5529 11.942C95.9578 13.2689 97.2031 14.5959 97.2031 16.0056C97.2031 17.1664 96.788 18.1622 95.8756 18.8257C94.9632 19.5719 93.8018 19.9031 92.3927 19.9031C91.8114 19.9031 91.2313 19.8203 90.65 19.7381C90.0423 19.5601 89.4582 19.3098 88.9103 18.9924ZM100.024 18.9924V15.5917H100.605C100.854 16.9186 101.268 17.831 101.766 18.4112C102.264 18.9924 102.844 19.3236 103.673 19.3236C104.42 19.3236 105 19.0746 105.498 18.5773C105.913 18.1622 106.161 17.5821 106.161 16.8353C106.161 16.2551 105.995 15.7573 105.664 15.4255C105.332 15.011 104.669 14.5131 103.673 14.0152C102.18 13.2689 101.185 12.6882 100.77 12.1909C100.356 11.6936 100.19 11.0301 100.19 10.3667C100.19 9.37144 100.605 8.54239 101.351 7.9617C102.098 7.38102 103.01 7.04928 104.254 7.04928C104.834 7.04928 105.416 7.13207 105.996 7.29823C106.576 7.46381 107.157 7.62997 107.737 7.9617V10.9473H107.157C107.074 9.95213 106.66 9.12308 106.078 8.4596C105.498 7.87892 104.835 7.54718 104.006 7.54718C103.425 7.54718 102.927 7.71333 102.513 8.04449C102.098 8.37623 101.932 8.87355 101.932 9.37144C101.932 10.1177 102.513 10.864 103.673 11.4447C103.757 11.5275 103.84 11.5275 103.922 11.6102L104.586 11.942C107.075 13.2689 108.318 14.5959 108.318 16.0056C108.318 17.1664 107.821 18.1622 106.908 18.8257C106.078 19.5719 104.918 19.9031 103.508 19.9031C102.927 19.9031 102.347 19.8203 101.683 19.7381C101.102 19.5725 100.605 19.3236 100.024 18.9924Z" fill="#0C0E0F"/>
<path fill-rule="evenodd" clip-rule="evenodd" d="M30.1023 24.4645V30.1874C30.1023 30.6025 30.1851 30.8509 30.2679 30.9337C30.4341 31.0176 30.6824 31.0998 31.0975 31.0998V31.266C30.683 31.3488 30.3513 31.5149 29.9362 31.5971C29.5216 31.7633 29.1065 31.8461 28.6926 32.0123H28.5264V30.7687C28.0291 31.266 27.5312 31.5977 27.1167 31.8461C26.6089 32.016 26.0763 32.1002 25.5408 32.095C24.9601 32.095 24.4622 32.0123 23.9649 31.7639C23.5504 31.5149 23.1353 31.2666 22.9697 30.8515C22.8035 30.6025 22.7207 30.3541 22.7207 30.1052C22.6379 29.8563 22.6379 29.4417 22.6379 28.9438V25.4597C22.6379 25.2108 22.5551 25.0458 22.389 24.9624C22.3062 24.8796 21.9745 24.7974 21.4766 24.7974V24.4651H24.2133V28.6955C24.2133 29.7729 24.3794 30.4369 24.6278 30.7693C24.9595 31.1832 25.4574 31.3494 26.2037 31.3494C26.7016 31.3494 27.1161 31.1832 27.5306 31.0182C27.9403 30.7743 28.2824 30.4318 28.5258 30.0218V25.7926C28.5258 25.3775 28.4431 25.1291 28.2769 24.9624C28.1935 24.8796 27.8624 24.7974 27.4473 24.7974H27.3645V24.4651L30.1023 24.4645ZM38.313 26.4555C38.5619 26.4555 38.7275 26.3716 38.8937 26.2893C38.9764 26.2066 39.0592 26.0404 39.0592 25.8742C39.0592 25.5431 38.8937 25.2108 38.4786 25.0452C38.1468 24.7962 37.6489 24.6301 37.0688 24.6301C36.986 24.6301 36.9027 24.6301 36.8199 24.7129V24.2989H37.4C38.3952 24.2989 39.3076 24.5479 40.0539 24.9618C40.8001 25.4591 41.2147 25.9582 41.2147 26.5383C41.2147 26.6211 41.2147 26.7045 41.1313 26.7872C41.0485 26.87 40.9657 26.87 40.7996 26.87H36.8187V26.4561L38.313 26.4555ZM36.8199 32.095V30.9337C37.1516 31.0176 37.4833 31.0176 37.8979 31.0176C38.6447 31.0176 39.3082 30.8515 39.8883 30.6025C40.3856 30.2702 40.8007 29.7723 41.1319 29.275L41.4642 29.3584C41.1325 30.1874 40.6346 30.9337 39.8055 31.431C39.0587 31.9283 38.1468 32.0945 37.1516 32.0945L36.8199 32.095ZM36.8199 24.7129C36.3225 24.7129 35.9074 24.8796 35.4929 25.1286C35.0784 25.4597 34.7461 25.8748 34.5805 26.4561H36.8199V26.87H34.4977C34.4149 27.2024 34.4149 27.4513 34.3321 27.6163V28.1148C34.3321 28.9438 34.6639 29.6901 35.3273 30.1874C35.7419 30.5186 36.2392 30.7687 36.8199 30.9337V32.095C35.7419 32.095 34.7466 31.6799 34.0004 31.0998C33.1708 30.3536 32.7562 29.4411 32.7562 28.4459C32.7562 27.1184 33.1708 26.1232 34.0004 25.3769C34.8087 24.739 35.7926 24.3631 36.8204 24.2995V24.7134L36.8199 24.7129ZM48.5141 26.4555C48.763 26.4555 48.9286 26.3716 49.0114 26.2893C49.177 26.2066 49.1769 26.0404 49.1769 25.8742C49.1769 25.5431 49.0114 25.2108 48.6796 25.0452C48.2651 24.7962 47.85 24.6301 47.2693 24.6301C47.1865 24.6301 47.0204 24.6301 46.9382 24.7129V24.2989H47.5183C48.5963 24.2989 49.4253 24.5479 50.2549 24.9618C51.0012 25.4591 51.4163 25.9582 51.4163 26.5383C51.4163 26.6211 51.333 26.7045 51.333 26.7872C51.2502 26.87 51.1674 26.87 51.0012 26.87H46.9376V26.4561L48.5141 26.4555ZM46.9387 32.095V30.9337C47.2699 31.0176 47.685 31.0176 48.0167 31.0176C48.7016 31.0168 49.3791 30.8755 50.0072 30.6025C50.5427 30.2911 50.9752 29.8296 51.2513 29.275L51.6659 29.3584C51.3341 30.1874 50.7534 30.9337 50.0072 31.431C49.1775 31.9283 48.2657 32.0945 47.2699 32.0945L46.9387 32.095ZM46.9387 24.7134C46.5236 24.7134 46.0263 24.8796 45.6946 25.1286C45.1973 25.4597 44.9483 25.8748 44.6994 26.4561H46.9387V26.87H44.6166C44.6166 27.2024 44.5332 27.4513 44.5332 27.6163V28.1148C44.5332 28.9438 44.8649 29.6901 45.5284 30.1874C45.9429 30.5186 46.4408 30.7687 46.9387 30.9337V32.095C45.8602 32.095 44.9483 31.6799 44.2015 31.0998C43.3718 30.3536 42.9573 29.4411 42.9573 28.4459C42.9573 27.1184 43.3718 26.1232 44.2015 25.3769C44.9477 24.7968 45.8602 24.3817 46.9387 24.2995V24.7134ZM53.2412 31.5971C53.7385 31.5144 54.1536 31.431 54.2364 31.3482C54.3198 31.2654 54.4025 31.017 54.4025 30.518V26.4555C54.4025 26.1232 54.3198 25.8742 54.1536 25.7092C54.0708 25.5431 53.8219 25.4591 53.4073 25.2941V25.128C53.8219 24.9618 54.2364 24.879 54.6515 24.7129C55.0654 24.6301 55.3978 24.4639 55.8117 24.2989H55.9779V25.6253C56.4127 25.1865 56.917 24.8224 57.4704 24.5479C57.8855 24.3817 58.3828 24.2989 58.9641 24.2989C59.9593 24.2989 60.7056 24.5479 61.2029 25.128C61.618 25.6253 61.8663 26.5383 61.8663 27.6991V30.9331C61.8663 31.182 61.9491 31.3482 62.0313 31.4304C62.1153 31.5144 62.4465 31.5144 63.0277 31.5966V31.9277H59.2124V31.5966C59.7098 31.5138 60.0415 31.5138 60.1237 31.4304C60.2077 31.3476 60.2899 31.1815 60.2899 30.9331V27.3668C60.2899 26.5377 60.1237 25.9576 59.7925 25.6253C59.4614 25.2102 58.9635 25.0452 58.3 25.0452C57.8027 25.0452 57.3876 25.128 56.9725 25.2941C56.6413 25.5431 56.2262 25.7915 55.9773 26.2066V30.6019C55.9773 31.017 56.0601 31.3482 56.2262 31.431C56.3102 31.5149 56.6413 31.5971 57.0564 31.5971V31.9283H53.2412V31.5971ZM64.7698 31.5149V29.4411H65.1837C65.3499 30.2702 65.5988 30.8515 66.0139 31.1826C66.3451 31.5149 66.843 31.6799 67.4243 31.6799C67.9216 31.6799 68.3367 31.5971 68.7506 31.266C69.0829 31.017 69.2479 30.6025 69.2479 30.1874C69.2479 29.8562 69.0829 29.6073 68.834 29.3584C68.585 29.1094 68.1705 28.861 67.4237 28.5281C66.2623 28.0308 65.5988 27.6991 65.2671 27.3668C65.0181 27.0356 64.852 26.7039 64.852 26.2893C64.852 25.7092 65.1009 25.2108 65.6822 24.7968C66.2623 24.4645 66.9258 24.2995 67.8376 24.2995C68.2527 24.2995 68.6678 24.2995 69.1652 24.3823C69.5803 24.5484 69.9942 24.6312 70.4087 24.8796V26.6211H69.9936C69.8286 26.041 69.5797 25.5437 69.1646 25.1286C68.7495 24.7974 68.2522 24.6312 67.672 24.6312C67.1747 24.6312 66.8418 24.714 66.5935 24.8802C66.2623 25.1291 66.0961 25.3775 66.0961 25.7104C66.0961 26.1243 66.5935 26.5395 67.4237 26.954C67.5065 26.954 67.5065 27.0368 67.5887 27.0368C67.6726 27.0368 67.8376 27.1196 68.086 27.2857C69.9108 28.032 70.7411 28.8622 70.7411 29.7735C70.7411 30.4369 70.4087 31.0182 69.7447 31.4321C69.1646 31.8473 68.3355 32.0956 67.2569 32.0956C66.8418 32.0956 66.4279 32.0128 65.9306 31.9295C65.516 31.8461 65.1009 31.6799 64.7698 31.5149ZM75.4676 30.6019C75.4676 31.017 75.5515 31.3482 75.6338 31.431C75.7999 31.5149 76.1311 31.5971 76.5462 31.5971V31.9283H72.7309V31.5971C73.2282 31.5971 73.4772 31.5144 73.6433 31.3482C73.8083 31.182 73.8923 30.8509 73.8923 30.353V22.2257C73.8923 21.8945 73.8083 21.5622 73.6433 21.4794C73.5594 21.3133 73.311 21.1483 72.8959 21.0643V20.8154C73.311 20.7326 73.7261 20.5664 74.1406 20.4842C74.5546 20.3181 74.8869 20.1519 75.302 19.9869H75.467L75.4676 30.6019ZM83.0981 30.4358V27.948C82.4347 28.1142 81.8546 28.2792 81.4394 28.5281V28.0308C81.9368 27.8658 82.518 27.6997 83.1809 27.4507V25.792C83.1809 25.4597 83.0159 25.2108 82.8498 25.0458C82.6836 24.8796 82.3525 24.7968 81.9373 24.7968H81.44V24.3817C81.7712 24.2989 82.2691 24.2989 82.6836 24.2989C83.4299 24.2989 83.9272 24.3817 84.2601 24.7129C84.5913 25.0452 84.7574 25.7092 84.7574 26.7039V30.8503C84.7574 31.0165 84.8402 31.0993 84.8402 31.1815C84.9241 31.2654 85.0891 31.2654 85.1725 31.2654C85.3375 31.2654 85.5037 31.2654 85.5865 31.0993C85.6704 31.0165 85.6704 30.9331 85.7526 30.6841H86.0838C86.0838 31.0993 85.9188 31.4304 85.5865 31.6794C85.3375 31.9283 84.9236 32.0117 84.509 32.0117C84.0945 32.0117 83.7628 31.9277 83.5138 31.7627C83.1815 31.5138 83.0987 31.2654 83.0165 30.9325C82.5192 31.2648 82.0201 31.596 81.5228 31.7627C81.5228 31.8455 81.44 31.8455 81.44 31.8455V31.182C81.6062 31.0993 81.8551 31.0993 82.1035 31.017C82.3519 30.9337 82.683 30.7687 83.0981 30.4358ZM81.4394 28.5281C81.0243 28.6943 80.6932 28.8605 80.4442 28.9432C79.9469 29.2744 79.698 29.6067 79.698 29.9385C79.698 30.2702 79.8641 30.6019 80.1131 30.8509C80.4442 31.017 80.8593 31.182 81.2733 31.182H81.4394V31.8455C81.0448 32.0076 80.6225 32.0921 80.1959 32.0945C79.6146 32.0945 79.2007 31.9283 78.7855 31.6794C78.4544 31.4304 78.2882 31.0165 78.2882 30.6019C78.2882 29.9385 78.6194 29.4406 79.2834 29.0255C79.6986 28.6943 80.4448 28.3626 81.44 28.0302V28.5281H81.4394ZM81.4394 24.3817V24.7968C81.1083 24.8796 80.8593 24.9618 80.6104 25.0458C80.2781 25.2108 80.1131 25.4597 80.1131 25.7092C80.1131 26.2066 80.0291 26.6205 79.8641 26.7867C79.698 27.0356 79.449 27.1178 79.0339 27.1178C78.785 27.1178 78.6188 27.035 78.4538 26.9528C78.3699 26.8689 78.2877 26.7039 78.2877 26.4555C78.2877 26.0404 78.785 25.5431 79.698 25.0452C80.2781 24.7134 80.8593 24.5479 81.4394 24.3817ZM87.3285 31.5971C87.9086 31.5144 88.2398 31.431 88.3237 31.3482C88.4887 31.2654 88.4887 31.017 88.4887 30.518V26.4555C88.4925 26.1973 88.436 25.9418 88.3237 25.7092C88.1576 25.5431 87.9086 25.4591 87.4935 25.2941V25.128C87.9908 24.9618 88.4059 24.879 88.7371 24.7129C89.1522 24.6301 89.5673 24.4639 89.8985 24.2989H90.1474L90.0646 25.6253C90.4995 25.1865 91.0038 24.8224 91.5572 24.5479C91.9723 24.3817 92.4696 24.2989 93.0497 24.2989C94.0449 24.2989 94.7912 24.5479 95.2896 25.128C95.7036 25.6253 95.9525 26.5383 95.9525 27.6991V30.9331C95.9525 31.182 96.0365 31.3482 96.1187 31.4304C96.2849 31.5144 96.616 31.5144 97.1139 31.5966L97.1979 31.9277H93.2992V31.5966C93.7965 31.5138 94.1294 31.5138 94.2116 31.4304C94.3778 31.3476 94.3778 31.1815 94.3778 30.9331V27.3668C94.3778 26.5377 94.2116 25.9576 93.9627 25.6253C93.6315 25.2102 93.1336 25.0452 92.3874 25.0452C91.8901 25.0452 91.475 25.128 91.0598 25.2941C90.7287 25.5431 90.3964 25.7915 90.0646 26.2066V30.6019C90.0646 31.017 90.1474 31.3482 90.3136 31.431C90.4797 31.5149 90.7287 31.5971 91.226 31.5971V31.9283H87.3285V31.5971ZM105.657 30.4358V27.6991C105.657 26.7039 105.491 25.9576 105.076 25.4591C104.662 24.9618 103.998 24.7129 103.168 24.7129H103.085V24.2989H103.251C103.583 24.2989 103.914 24.3817 104.329 24.3817C104.744 24.4645 105.159 24.5479 105.656 24.7129V22.2251C105.656 21.81 105.572 21.5617 105.407 21.3961C105.241 21.2299 104.992 21.1471 104.577 21.0638V20.8148C104.992 20.732 105.49 20.6498 105.905 20.4836C106.319 20.3175 106.734 20.1513 107.148 19.9863H107.314V30.518C107.314 30.6841 107.397 30.8503 107.479 30.9331C107.563 31.017 107.812 31.0993 108.226 31.182V31.3482C107.728 31.5144 107.314 31.5971 106.899 31.7633C106.567 31.8461 106.153 31.9283 105.904 32.0123H105.655V30.9337C105.24 31.266 104.825 31.5971 104.328 31.8461C103.913 31.9289 103.499 32.095 103.084 32.095V31.1826C103.25 31.1826 103.415 31.2666 103.581 31.2666C103.996 31.2666 104.328 31.1826 104.743 31.0176C105.076 30.9337 105.408 30.6847 105.657 30.4358ZM103.085 24.7129C102.339 24.7129 101.675 25.0458 101.178 25.6259C100.68 26.2071 100.431 27.0362 100.431 28.0308C100.431 28.9432 100.762 29.6895 101.344 30.2696C101.841 30.8509 102.421 31.0998 103.085 31.182V32.0945H102.754C101.593 32.0945 100.68 31.7633 99.8512 31.017C99.1038 30.2696 98.7726 29.3584 98.7726 28.197C98.7726 27.0356 99.1038 26.0404 99.934 25.3769C100.763 24.7134 101.759 24.3811 103.085 24.2989V24.7129Z" fill="#3D3D3D" fill-opacity="0.6"/>
<path fill-rule="evenodd" clip-rule="evenodd" d="M19.9029 18.6611C20.3174 18.495 20.7325 18.33 21.0637 18.081C22.7224 17.168 23.4692 15.8416 23.4692 13.934C23.4692 12.7732 23.0547 11.7774 22.1423 10.9484C21.2299 10.2021 19.9857 9.70479 18.4932 9.45526C19.654 9.12352 20.4836 8.54341 21.0637 7.96273C21.6444 7.21588 21.9761 6.46962 21.9761 5.55777C21.9761 3.89909 21.3126 2.73771 19.9023 1.99145C18.9899 1.49355 17.5802 1.16182 15.8387 0.996238V1.7425C16.5022 1.90866 17.1656 2.2404 17.663 2.57214C18.5754 3.3184 19.0733 4.31361 19.0733 5.64056C19.0733 6.96751 18.576 7.96273 17.5802 8.6262C17.1656 8.95794 16.5022 9.20689 15.8387 9.37305V10.2849C17.1656 10.3683 18.1609 10.6994 18.8243 11.1973C19.7367 11.8608 20.2341 12.9388 20.2341 14.5147C20.2341 15.5927 19.9023 16.4218 19.4044 17.0858L19.9029 18.6611ZM15.8393 19.4074V18.7445C16.42 18.7445 16.9173 18.5783 17.4152 18.4944L17.4985 19.2418C17.0006 19.3246 16.42 19.3246 15.8393 19.4074ZM15.8393 0.995659C15.0924 0.912291 14.2634 0.830078 13.3509 0.830078C13.0192 0.830078 12.1074 0.912867 10.7804 0.912867H7.29688V1.57634H7.46245C8.29209 1.57634 8.87277 1.65913 9.12114 1.82529C9.37009 2.07424 9.53567 2.57156 9.53567 3.40119V16.7535C9.53567 17.6659 9.36951 18.246 9.12114 18.4122C8.87277 18.5783 8.29151 18.7445 7.46245 18.7445H7.29688V19.3246C7.96035 19.3246 8.87277 19.4074 10.0341 19.4074H15.8393V18.7445C15.5903 18.8273 15.3419 18.8273 15.0096 18.8273C14.0972 18.8273 13.4337 18.6611 13.102 18.4122C12.7703 18.1632 12.6047 17.6659 12.6047 17.0852V10.2015H14.2634C14.8435 10.2015 15.3414 10.2015 15.8393 10.2843V9.37247C15.0924 9.53805 14.2634 9.62142 13.2687 9.62142H12.6053V1.49355H13.5177C14.3467 1.49355 15.1764 1.57692 15.8398 1.7425V0.995659H15.8393Z" fill="#0C0E0F"/>
</svg>
