<svg width="128" height="17" viewBox="0 0 128 17" fill="none" xmlns="http://www.w3.org/2000/svg">
<path d="M100.061 0.00422821C97.0023 -0.0981665 93.6956 1.66205 92.1272 4.97606C91.1536 6.8468 90.4108 8.92882 89.9167 10.9735C89.8728 11.153 89.8316 11.3331 89.7932 11.5139C89.7445 11.8048 89.7404 12.1778 89.7664 12.5581C89.8875 14.1672 91.3161 16.1127 93.6712 16.2232H96.4635C99.5215 16.3248 102.827 14.5638 104.397 11.2498C105.37 9.37903 106.112 7.29538 106.606 5.25236C106.65 5.07033 106.692 4.88992 106.73 4.71113C106.781 4.41939 106.784 4.04801 106.757 3.66687C106.636 2.057 105.207 0.113124 102.853 0.00341555H100.06L100.061 0.00422821ZM47.618 0.152132L48.8687 16.0656H51.3765H51.3619H51.5098C51.7504 16.0578 51.9856 15.9927 52.196 15.8756C52.4063 15.7586 52.5856 15.593 52.719 15.3927H52.7207L62.9455 0.152944H60.3011L52.9767 11.0913L52.1169 0.153757H47.6172L47.618 0.152132ZM64.7732 0.152132L58.905 16.0656H63.4095L69.2753 0.152944H64.7732V0.152132ZM75.3418 0.152132C71.2955 0.200891 69.5077 4.70301 71.7181 7.58631C72.8396 8.95564 74.4405 10.3753 75.345 11.8747C75.9179 12.6857 75.3052 14.038 74.2105 14.051H67.0665L66.327 16.0656H75.3718C78.9174 16.055 81.3164 11.8804 78.937 8.67852C77.8391 7.05646 76.0975 5.94881 75.0671 4.36413C74.4552 3.53766 75.0703 2.18052 76.1772 2.16589H82.8263L83.5667 0.152132H75.3418ZM86.684 0.152132L80.8199 16.0664H85.3228L91.1894 0.152944H86.684V0.152132ZM110.997 0.152132L105.105 16.0656H107.426L111.486 5.09796L111.507 5.29462L115.154 15.144C115.264 15.4049 115.445 15.6296 115.677 15.7926C115.908 15.9555 116.181 16.0501 116.464 16.0656H118.586L124.479 0.152944H122.159L118.177 10.9076L113.936 0.152944H110.996L110.997 0.152132ZM101.09 1.64904C101.939 1.71406 102.614 2.42838 102.614 3.29467C102.62 3.50759 102.584 3.71807 102.504 3.91067L99.528 12.0145C98.9275 13.5699 97.5321 14.5231 95.8743 14.5719H95.4347C95.0204 14.5389 94.6337 14.3512 94.3514 14.0461C94.0691 13.7411 93.9119 13.3411 93.911 12.9255C93.9037 12.714 93.9416 12.5034 94.0223 12.3078L96.9966 4.20404C97.598 2.64861 98.9933 1.6978 100.654 1.64986H101.09V1.64904Z" fill="#9B9D9F"/>
<path d="M5.86738 0.232216L0 16.1456H4.78248L7.58859 8.53512H13.2821L10.476 16.1456H14.2117C14.844 16.1456 15.3868 15.7466 15.6071 15.19C15.6095 15.1818 15.6119 15.1794 15.6152 15.1753L21.125 0.231403H16.3425L14.0833 6.35883H8.38986L10.649 0.231403H5.86738V0.232216ZM24.1635 0.232216L18.2978 16.1456H23.0778L28.9452 0.232216H24.1635ZM32.1983 0.232216L26.3317 16.1456H31.1126L33.362 10.0426L34.5566 9.12511L37.7284 15.2737L37.73 15.2655L37.7381 15.2802C37.869 15.5519 38.0781 15.7783 38.3386 15.9304C38.5991 16.0824 38.8991 16.1531 39.2001 16.1335C39.1887 16.1335 39.1757 16.1416 39.1635 16.1416H43.2236L38.1729 6.34664L46.1394 0.230591H42.5661L34.7728 6.21418L36.9791 0.230591H32.1983V0.232216Z" fill="#3D3D3D"/>
<path d="M127.999 1.56355C127.999 2.45016 127.303 3.14498 126.398 3.14498C125.503 3.14498 124.789 2.45016 124.789 1.56355C124.789 0.695634 125.503 0 126.398 0C127.303 0 127.999 0.695634 127.999 1.56355ZM125.189 1.56355C125.189 2.25918 125.702 2.81179 126.408 2.81179C127.095 2.81179 127.599 2.25918 127.599 1.57249C127.599 0.877669 127.095 0.314498 126.398 0.314498C125.702 0.314498 125.189 0.877669 125.189 1.56355ZM126.15 2.38271H125.789V0.820783C125.987 0.785394 126.188 0.769067 126.39 0.772023C126.684 0.772023 126.818 0.820783 126.932 0.887421C126.982 0.9295 127.021 0.982181 127.047 1.04155C127.073 1.10092 127.086 1.16546 127.084 1.23036C127.084 1.40264 126.951 1.53511 126.76 1.59199V1.6115C126.913 1.66838 126.999 1.78378 127.047 1.99345C127.095 2.23155 127.123 2.32664 127.16 2.38352H126.77C126.722 2.32664 126.694 2.18361 126.646 2.0032C126.618 1.83091 126.522 1.75534 126.323 1.75534H126.15V2.38352V2.38271ZM126.16 1.49691H126.331C126.531 1.49691 126.694 1.43028 126.694 1.26774C126.694 1.12553 126.589 1.03045 126.36 1.03045C126.266 1.03045 126.198 1.03857 126.16 1.04914V1.4961V1.49691Z" fill="#9B9D9F"/>
</svg>
