<svg width="110" height="48" viewBox="0 0 110 48" fill="none" xmlns="http://www.w3.org/2000/svg">
<path fill-rule="evenodd" clip-rule="evenodd" d="M54.8933 45.5412C30.8375 48.9921 9.91936 42.1941 8.2111 30.3063C6.50284 18.4524 24.6319 6.04109 48.6876 2.55452C69.6058 -0.443535 88.1183 4.26279 93.7309 13.327C88.3272 3.07745 67.7574 -2.36133 44.4342 0.985751C18.3218 4.75069 -1.37665 18.1034 0.471702 30.8287C2.28443 43.5189 24.9459 50.7704 51.0583 47.0049C61.6919 45.5062 71.244 42.3686 78.7044 38.3591C72.1153 41.6718 63.9225 44.2152 54.8933 45.5412ZM91.4998 32.6414C90.6284 32.6414 90.0705 32.014 90.0705 31.2121C90.0705 30.0624 91.0469 29.1554 92.1272 29.1554C92.9985 29.1554 93.5921 29.7828 93.5921 30.5847C93.5915 31.7 92.5812 32.6414 91.4998 32.6414Z" fill="white" fill-opacity="0.6"/>
<path fill-rule="evenodd" clip-rule="evenodd" d="M36.2101 32.9566H33.2465L33.4905 31.4579C33.072 32.0509 31.7472 33.2362 30.0739 33.2362C28.0867 33.2362 27.1103 32.2598 27.1103 30.656C27.1103 30.3777 27.1453 30.0643 27.2148 29.7503L28.4351 22.8116H31.3988L30.3179 28.8089C30.2484 29.1229 30.2484 29.4006 30.2484 29.6452C30.2484 30.7611 30.7013 31.4579 31.6427 31.4579C32.8631 31.4579 33.6299 30.656 34.0134 28.6344L35.0242 22.8116H37.9878L36.2101 32.9566ZM45.3444 25.3924H44.752C44.7871 24.416 43.9501 23.6135 43.0432 23.6135C41.9979 23.6135 41.1954 24.2414 41.1954 25.0433C41.1954 25.8102 42.1368 26.1236 43.1132 26.5083C44.2635 26.9255 45.4489 27.5529 45.4489 29.1923C45.4489 31.4235 43.6005 33.2362 40.6725 33.2362C39.7311 33.2362 38.3369 32.9566 37.7439 32.3987L38.4413 30.377H38.9643C39.1738 31.4229 39.9757 32.1541 41.161 32.1541C42.3814 32.1541 43.0782 31.2828 43.0782 30.6904C43.0782 30.0631 42.4858 29.714 41.719 29.4C40.4986 28.8421 38.9298 28.3198 38.9298 26.507C38.9298 24.3453 40.7776 22.532 43.2183 22.532C44.4731 22.532 45.589 22.881 46.1819 23.5084L45.3444 25.3924ZM49.9118 21.2078C49.0749 21.2078 48.4826 20.5798 48.4826 19.7785C48.4826 18.6976 49.4934 17.7912 50.5048 17.7912C51.3411 17.7912 51.9341 18.3836 51.9341 19.1861C51.9335 20.2664 50.9577 21.2078 49.9118 21.2078ZM49.3189 32.9566H46.3552L48.1329 22.8116H51.0966L49.3189 32.9566ZM61.6607 26.786L60.5448 32.9566H57.5812L58.627 27.2051C58.6627 26.7866 58.6965 26.3676 58.6965 26.0197C58.6965 25.0077 58.313 24.3465 57.3379 24.3465C56.0474 24.3465 55.2456 25.6707 55.001 27.2051L53.9551 32.9566H50.9915L52.8042 22.8116H55.7673L55.4889 24.3803C55.8373 23.8224 57.2322 22.5326 59.0805 22.5326C61.0666 22.5326 61.799 23.509 61.799 25.2172C61.7996 25.6707 61.7302 26.193 61.6607 26.786ZM69.7147 25.3211C69.7147 25.7752 69.6097 26.2975 69.5402 26.786H66.3326C66.6466 25.1128 67.3785 23.509 68.6339 23.509C69.4352 23.509 69.7147 24.3109 69.7147 25.3211ZM72.5039 26.0892C72.5039 23.858 71.5613 22.5326 68.8078 22.5326C65.2167 22.5326 62.8461 25.3211 62.8461 28.9822C62.8461 31.5274 64.2415 33.2706 67.309 33.2706C68.5638 33.2706 69.4352 32.9566 70.6205 32.3293L71.3173 31.1089L71.1084 30.9C70.4116 31.4235 69.2957 31.8764 68.3543 31.8764C66.8894 31.8764 65.9836 31.1089 65.9836 29.3312C65.9836 28.9127 66.0531 28.4599 66.1225 27.9714H72.3281C72.4332 27.2745 72.5039 26.6471 72.5039 26.0892ZM80.3821 25.3924H79.7904C79.7904 24.416 78.9885 23.6135 78.0815 23.6135C77.0357 23.6135 76.2332 24.2414 76.2332 25.0433C76.2332 25.8102 77.1758 26.1236 78.151 26.5083C79.2669 26.9255 80.4872 27.5529 80.4872 29.1923C80.4872 31.4235 78.6389 33.2362 75.7108 33.2362C74.7344 33.2362 73.3758 32.9566 72.7822 32.3987L73.4452 30.377H74.0032C74.2121 31.4229 75.014 32.1541 76.1637 32.1541C77.4197 32.1541 78.1166 31.2828 78.1166 30.6904C78.1166 30.0631 77.4892 29.714 76.7567 29.4C75.5363 28.8421 73.9332 28.3198 73.9332 26.507C73.9332 24.3453 75.7803 22.532 78.2554 22.532C79.5102 22.532 80.6261 22.881 81.2191 23.5084L80.3821 25.3924ZM88.819 25.3924H88.2272C88.2616 24.416 87.4597 23.6135 86.5183 23.6135C85.5075 23.6135 84.67 24.2414 84.67 25.0433C84.67 25.8102 85.6114 26.1236 86.5878 26.5083C87.7387 26.9255 88.924 27.5529 88.924 29.1923C88.924 31.4235 87.0757 33.2362 84.1477 33.2362C83.2063 33.2362 81.8114 32.9566 81.2191 32.3987L81.9159 30.377H82.4382C82.6484 31.4229 83.4502 32.1541 84.6356 32.1541C85.8904 32.1541 86.5534 31.2828 86.5534 30.6904C86.5534 30.0631 85.9604 29.714 85.1935 29.4C83.9732 28.8421 82.4044 28.3198 82.4044 26.507C82.4044 24.3453 84.2527 22.532 86.6929 22.532C87.9476 22.532 89.0635 22.881 89.6909 23.5084L88.819 25.3924ZM98.5806 21.2078C97.7093 21.2078 97.1514 20.5798 97.1514 19.7785C97.1514 18.6976 98.1278 17.7912 99.1386 17.7912C100.01 17.7912 100.568 18.3836 100.568 19.1861C100.568 20.2664 99.5915 21.2078 98.5806 21.2078ZM97.9532 32.9566H95.0246L96.8017 22.8116H99.7654L97.9532 32.9566ZM107.088 25.3211C107.088 25.7752 107.018 26.2975 106.949 26.786H103.741C104.055 25.1128 104.752 23.509 106.042 23.509C106.844 23.509 107.088 24.3109 107.088 25.3211ZM109.911 26.0892C109.911 23.858 108.97 22.5326 106.216 22.5326C102.625 22.5326 100.254 25.3211 100.254 28.9822C100.254 31.5274 101.614 33.2706 104.717 33.2706C105.937 33.2706 106.844 32.9566 108.029 32.3293L108.726 31.1089L108.517 30.9C107.82 31.4235 106.704 31.8764 105.763 31.8764C104.298 31.8764 103.392 31.1089 103.392 29.3312C103.392 28.9127 103.426 28.4599 103.531 27.9714H109.702C109.842 27.2745 109.911 26.6471 109.911 26.0892ZM22.8925 22.5326C21.4632 22.5326 20.3129 23.2644 19.6849 24.2765L20.9753 16.8499H18.0117L15.1875 32.9566H18.1505L18.255 32.5038C18.7779 32.9566 19.5104 33.2362 20.4167 33.2362C24.2167 33.2362 26.3084 29.5401 26.3084 26.3331C26.344 23.9969 25.0542 22.5326 22.8925 22.5326ZM20.1734 32.2598C19.1275 32.2598 18.8136 31.3184 18.8136 30.1337C18.8136 27.5535 19.6849 23.9281 21.7772 23.9281C22.823 23.9281 23.1721 24.7994 23.2065 25.9509C23.2065 28.4599 22.0556 32.2598 20.1734 32.2598Z" fill="white"/>
</svg>
