<svg width="115" height="30" viewBox="0 0 115 30" fill="none" xmlns="http://www.w3.org/2000/svg">
<path d="M0.90625 16.7748C3.0344 15.2989 4.99092 13.6284 6.85591 11.832C9.29298 9.4865 11.5584 7.00366 13.4806 4.22334C13.5035 4.18901 13.5264 4.16613 13.5722 4.12036C13.9497 4.64668 14.3159 5.15011 14.7049 5.65354C16.3067 7.77025 18.1145 9.71533 20.0138 11.5689C21.9017 13.411 23.8925 15.1387 26.0779 16.6375C26.2838 16.7748 26.1923 16.8206 26.055 16.9236C21.7873 19.9442 18.1145 23.6055 14.8651 27.6902C14.4188 28.2508 14.0184 28.8343 13.5836 29.4293C13.2518 28.9716 12.9429 28.5254 12.6111 28.0906C9.33874 23.8686 5.58588 20.1158 1.23806 17.0037C1.14652 16.935 1.06643 16.832 0.929133 16.832C0.90625 16.8206 0.90625 16.7977 0.90625 16.7748Z" fill="white"/>
<path d="M70.9885 0C71.0229 0.0915332 71.1258 0.0686501 71.1945 0.102975C71.9954 0.411899 72.4187 1.17849 72.2585 2.01373C72.0984 2.83753 71.4004 3.38673 70.5423 3.36385C69.7299 3.34096 69.0663 2.746 68.9405 1.91076C68.8146 1.13272 69.318 0.34325 70.1075 0.0800921C70.1647 0.0572088 70.2334 0.0800922 70.2563 0.0114423C70.4965 6.98172e-07 70.7368 0 70.9885 0ZM84.7986 29.9771C84.2036 29.7826 83.6888 29.4851 83.3913 28.8902C82.865 27.8375 83.3341 26.5561 84.4096 26.1098C85.5423 25.6407 86.8466 26.2128 87.2013 27.3112C87.5789 28.4783 86.9267 29.6339 85.7368 29.9313C85.7025 29.9428 85.6682 29.9657 85.6338 29.9771H84.7986ZM85.2334 29.1876C85.897 29.1991 86.389 28.6957 86.4004 27.9977C86.4119 27.3112 85.897 26.7506 85.2448 26.7506C84.5812 26.7391 84.0892 27.2426 84.0778 27.9405C84.0663 28.6384 84.5698 29.1876 85.2334 29.1876ZM92.8535 29.9771C92.8421 29.9085 92.7734 29.9199 92.7391 29.9085C92.1098 29.6682 91.8352 29.2677 91.8924 28.6156C91.9382 28.0664 92.3501 27.6659 92.9679 27.5629C93.4027 27.4828 93.8375 27.4943 94.2494 27.6087C94.5011 27.6773 94.524 27.5744 94.4897 27.3799C94.4325 27.0481 94.1464 26.8192 93.746 26.7849C93.3798 26.7506 93.0137 26.7963 92.6819 26.9336C92.4874 27.0137 92.4302 26.9565 92.373 26.7849C92.2013 26.2586 92.1899 26.2586 92.7391 26.1098C93.2769 25.9611 93.8146 25.9268 94.3524 26.0641C95.0045 26.2357 95.3592 26.7162 95.3936 27.4943C95.4164 28.238 95.3936 28.9817 95.405 29.7368C95.405 29.8741 95.3592 29.9428 95.2105 29.9313C95.119 29.9199 95.0274 29.9313 94.9359 29.9313C94.6727 29.9313 94.3409 30.0114 94.524 29.4737C94.2379 29.7712 93.929 29.8627 93.643 30C93.3684 29.9771 93.1052 29.9771 92.8535 29.9771ZM93.7002 28.0892C93.4599 28.0892 93.2311 28.1236 93.0251 28.2494C92.6819 28.4554 92.659 28.9474 92.9679 29.1762C93.3913 29.4851 94.1922 29.3021 94.4325 28.833C94.627 28.4554 94.524 28.2265 94.1235 28.1465C93.9862 28.1236 93.8375 28.1121 93.7002 28.0892ZM102.842 29.9771C102.522 29.8284 102.178 29.714 101.904 29.4622C101.252 28.8444 101.069 27.849 101.469 27.0481C101.892 26.2128 102.865 25.778 103.826 25.9954C104.673 26.1899 105.325 26.9336 105.382 27.7803C105.439 28.7643 104.902 29.5652 103.998 29.8856C103.918 29.9085 103.815 29.897 103.757 29.9771H102.842ZM102.167 27.9634C102.167 28.6728 102.67 29.1991 103.334 29.1876C103.998 29.1876 104.478 28.6728 104.478 27.9748C104.478 27.2769 103.975 26.7506 103.3 26.7506C102.636 26.7506 102.167 27.254 102.167 27.9634ZM59.4782 29.9771L59.0663 29.8055C58.0938 29.3593 57.6705 28.1465 58.1281 27.0938C58.5515 26.1213 59.627 25.6865 60.5995 26.087C61.3203 26.3844 61.8581 27.4142 61.7094 28.1579C61.675 28.341 61.5492 28.2723 61.4462 28.2723C60.6682 28.2723 59.8901 28.2838 59.1121 28.2723C58.8833 28.2723 58.8375 28.3181 58.9176 28.5355C59.1922 29.2449 60.0618 29.4622 60.7483 28.9817C60.8398 28.913 60.9199 28.7414 61.0343 28.8215C61.2059 28.9245 61.3547 29.0732 61.4805 29.222C61.5492 29.3021 61.4233 29.3593 61.3775 29.4165C61.1258 29.7025 60.7597 29.8169 60.4279 29.9771H59.4782ZM59.8444 27.6888C60.0961 27.6888 60.3478 27.6773 60.5995 27.6888C60.7711 27.7002 60.8283 27.6659 60.7711 27.4714C60.6338 26.968 60.302 26.6934 59.8215 26.7048C59.3638 26.7162 59.0091 27.0366 58.8833 27.5057C58.8375 27.6773 58.9061 27.6888 59.0434 27.6888C59.318 27.6773 59.5812 27.6888 59.8444 27.6888ZM44.3409 29.9771C43.54 29.7025 43.3112 29.0732 43.3112 28.2952C43.3226 27.6316 43.3226 26.968 43.3112 26.3043C43.3112 26.0984 43.3455 26.0183 43.5743 26.0297C44.2265 26.0297 44.238 26.0183 44.238 26.6934V28.238C44.2494 28.8215 44.524 29.1419 45.016 29.1533C45.5537 29.1648 45.8856 28.8558 45.9084 28.2723C45.9313 27.6087 45.9199 26.9451 45.9084 26.2815C45.9084 26.0984 45.9542 26.0412 46.1373 26.0412C46.8238 26.0412 46.8238 26.0297 46.8238 26.7048C46.8238 27.6888 46.8123 28.6842 46.8238 29.6682C46.8238 29.8856 46.7666 29.9657 46.5492 29.9313H46.4576C45.9313 29.9313 45.9313 29.9314 45.8741 29.3936C45.6567 29.6911 45.3592 29.8513 45.0618 30C44.8215 29.9771 44.5812 29.9771 44.3409 29.9771ZM63.4714 29.9771C63.1396 29.8169 62.7734 29.7483 62.4645 29.5423C62.3158 29.4394 62.2471 29.3478 62.3844 29.1991L62.4531 29.0961C62.5789 28.8444 62.7048 28.7643 62.9679 28.9588C63.2769 29.1762 63.643 29.2792 64.032 29.2449C64.2494 29.222 64.4553 29.1648 64.5126 28.9016C64.5583 28.6384 64.3638 28.5355 64.1807 28.4668C63.8833 28.3524 63.5629 28.2723 63.2654 28.1579C62.659 27.9291 62.3844 27.5286 62.4645 26.9908C62.5446 26.4188 62.9908 26.0183 63.6087 25.9611C64.1235 25.9153 64.6041 26.0297 65.0732 26.2586C65.2448 26.3501 65.302 26.4416 65.1762 26.6018C65.1533 26.6247 65.1418 26.6476 65.1304 26.6819C65.0389 26.9908 64.8672 27.0481 64.5812 26.8764C64.3066 26.7048 63.9862 26.6362 63.6544 26.7048C63.4828 26.7391 63.357 26.8192 63.3226 27.0023C63.2883 27.1854 63.4027 27.2998 63.5515 27.357C63.7689 27.46 63.9977 27.5286 64.2265 27.6087C64.3867 27.6659 64.5469 27.7231 64.7071 27.7918C65.2334 28.0435 65.4279 28.3638 65.3821 28.8902C65.3364 29.3707 65.0274 29.7254 64.5354 29.8856C64.4553 29.9085 64.3524 29.8741 64.2837 29.9657C63.9977 29.9771 63.7345 29.9771 63.4714 29.9771ZM67.1098 29.9771C66.778 29.8513 66.4233 29.7712 66.1144 29.5767C65.9084 29.4508 65.8169 29.3478 66.0114 29.1419C66.0572 29.0961 66.0915 29.0275 66.1258 28.9703C66.2059 28.7986 66.286 28.7872 66.4462 28.8902C66.778 29.1076 67.1441 29.2563 67.5446 29.2449C67.659 29.2449 67.762 29.222 67.865 29.1762C68.0023 29.119 68.0938 29.016 68.0938 28.8558C68.0938 28.7071 68.0251 28.6041 67.8993 28.5355C67.6132 28.3753 67.2929 28.3181 66.984 28.2151C66.5721 28.0664 66.1716 27.8833 66.0572 27.3913C65.9084 26.6934 66.3547 26.0641 67.0984 25.9725C67.6476 25.9039 68.1624 26.0183 68.643 26.27C68.8146 26.3616 68.8375 26.4531 68.7231 26.5904C68.7116 26.6018 68.7116 26.6133 68.7116 26.6133C68.4942 27.0137 68.4942 27.0137 68.0938 26.8307C67.8077 26.7048 67.5217 26.6247 67.2128 26.6819C67.0412 26.7162 66.9039 26.7963 66.8695 26.968C66.8238 27.1625 66.9496 27.2654 67.1098 27.3455C67.27 27.4256 67.4416 27.4828 67.6132 27.54C67.8306 27.6201 68.048 27.6888 68.2654 27.7803C68.6888 27.9748 68.9519 28.2952 68.929 28.7986C68.9062 29.3135 68.643 29.6453 68.1853 29.8398C68.0824 29.8856 67.9679 29.8627 67.8878 29.9542C67.6361 29.9771 67.373 29.9771 67.1098 29.9771ZM48.8146 29.9771C48.4828 29.8398 48.1281 29.7597 47.8192 29.5652C47.6361 29.4508 47.5332 29.3478 47.7162 29.1533C47.7277 29.1419 47.7277 29.1419 47.7277 29.1304C47.9451 28.7872 47.9451 28.7872 48.3112 28.9817C48.6316 29.1533 48.9519 29.2677 49.318 29.2449C49.5583 29.222 49.7757 29.1533 49.81 28.8902C49.8444 28.6384 49.6499 28.5355 49.4553 28.4668C49.1579 28.3638 48.8604 28.2723 48.5743 28.1693C47.9451 27.9405 47.7048 27.5858 47.7734 26.9908C47.8192 26.476 48.2425 26.0641 48.8261 25.984C49.3867 25.9039 49.9016 26.0297 50.405 26.2929C50.5537 26.373 50.5652 26.4416 50.4851 26.5904C50.2448 27.0137 50.2563 27.0137 49.7986 26.8421C49.524 26.7277 49.2494 26.659 48.9405 26.7048C48.7689 26.7391 48.6315 26.8192 48.6087 27.0023C48.5858 27.1854 48.6888 27.2998 48.8261 27.357C49.0435 27.4485 49.2723 27.5286 49.5011 27.6087C49.6613 27.6659 49.8215 27.7231 49.9817 27.7918C50.4851 28.032 50.7025 28.3753 50.6567 28.8558C50.611 29.3707 50.2906 29.7483 49.7872 29.897C49.7071 29.9199 49.6041 29.8856 49.5354 29.9657C49.3066 29.9771 49.0549 29.9771 48.8146 29.9771ZM89.1579 29.9771C89.1121 29.5767 88.8947 29.2449 88.7574 28.8787C88.4142 28.0092 88.0595 27.1396 87.6933 26.2815C87.6132 26.087 87.6247 26.0297 87.8535 26.0297C88.5629 26.0297 88.5629 26.0183 88.8032 26.6934C89.0549 27.3799 89.3066 28.0664 89.5812 28.833C89.7872 28.2723 89.9817 27.7689 90.1647 27.2654C90.2906 26.9108 90.4279 26.5675 90.5423 26.2128C90.5881 26.0755 90.6567 26.0183 90.8055 26.0297C91.0457 26.0412 91.286 26.0297 91.572 26.0297C91.2288 26.8764 90.9084 27.6888 90.5766 28.4897C90.3707 28.9931 90.2105 29.508 89.9359 29.9771H89.1579ZM97.3958 29.9771C96.7094 29.6911 96.5606 29.4622 96.5606 28.6957V27.0366C96.5606 26.8764 96.5263 26.7849 96.3432 26.8078C96.1029 26.8421 96.0343 26.7391 96.0686 26.5217C96.0801 26.4416 96.0801 26.3616 96.0686 26.2815C96.0457 26.1098 96.0915 26.0069 96.2974 26.0412C96.5148 26.0755 96.5835 25.9725 96.5606 25.7666C96.5492 25.6865 96.5492 25.6064 96.5606 25.5263C96.5721 25.3432 96.4691 25.0801 96.6064 25.0114C96.8238 24.8856 97.1212 24.9657 97.373 24.9771C97.4988 24.9771 97.4645 25.0915 97.4645 25.1602C97.4645 25.3776 97.4759 25.5835 97.4645 25.8009C97.4531 25.984 97.4988 26.0641 97.6933 26.0412C97.8077 26.0297 97.9336 26.0297 98.0595 26.0412C98.1968 26.0526 98.4256 25.9497 98.4714 26.0984C98.54 26.2929 98.4942 26.5217 98.4828 26.7277C98.4828 26.8192 98.3798 26.8078 98.3112 26.8078C98.1052 26.8078 97.9107 26.8192 97.7048 26.8078C97.4988 26.7849 97.4531 26.8764 97.4531 27.0709C97.4645 27.5629 97.4531 28.0549 97.4531 28.5583C97.4531 29.0847 97.659 29.2677 98.1739 29.1304C98.437 29.0618 98.4942 29.1076 98.4828 29.3707C98.4599 29.8055 98.4828 29.8055 97.9336 29.9886C97.7505 29.9771 97.5675 29.9771 97.3958 29.9771ZM114.467 7.26545C114.284 7.27689 114.204 7.20824 114.215 7.00229C114.227 6.57895 114.215 6.15561 114.215 5.67506C114.009 5.98398 113.952 6.29291 113.837 6.56751C113.78 6.71625 113.735 6.87643 113.666 7.01373C113.62 7.10526 113.632 7.24256 113.471 7.24256C113.311 7.24256 113.3 7.11671 113.265 7.02517C113.105 6.59039 112.945 6.16705 112.716 5.73227C112.716 6.13272 112.728 6.53318 112.716 6.93364C112.716 7.03661 112.819 7.24256 112.59 7.23112C112.373 7.21968 112.476 7.02517 112.476 6.9222C112.464 6.45309 112.464 5.97254 112.476 5.50343C112.476 5.40046 112.384 5.25172 112.59 5.21739C112.785 5.18307 112.876 5.26316 112.945 5.44622C113.082 5.85812 113.243 6.25858 113.391 6.65904C113.414 6.71625 113.437 6.76201 113.483 6.85355C113.654 6.40732 113.826 6.00687 113.952 5.58352C114.043 5.30892 114.169 5.14874 114.478 5.19451C114.467 5.89245 114.467 6.57895 114.467 7.26545ZM45.1418 22.4256C40.2105 22.4371 36.3089 18.6156 36.3203 13.5469C36.3203 8.50115 40.2219 4.61098 45.2219 4.61098C50.3821 4.61098 54.1121 8.67277 54.1007 13.4897C54.0892 18.5126 50.1647 22.4256 45.1418 22.4256ZM45.2105 20.1259C46.9153 20.1144 48.4027 19.5423 49.6155 18.3066C50.7368 17.1625 51.3203 15.778 51.4462 14.1991C51.6178 12.1053 51.0457 10.2403 49.5698 8.71853C48.2769 7.37986 46.6636 6.75057 44.7986 6.87643C42.9679 6.99085 41.4462 7.71167 40.3364 9.21053C39.1579 10.8009 38.7345 12.5973 39.032 14.5195C39.3867 16.8192 40.5423 18.5927 42.7277 19.5881C43.5057 19.9657 44.3409 20.1259 45.2105 20.1259ZM83.9519 22.4256C78.8146 22.46 75.1075 18.3982 75.1075 13.6384C75.1075 8.53547 78.9862 4.59954 84.0206 4.61098C89.0206 4.62243 92.8878 8.51259 92.8878 13.5469C92.8764 18.5355 88.8032 22.46 83.9519 22.4256ZM84.1464 20.1259C84.8329 20.1602 85.6567 20 86.4462 19.6453C88.8261 18.5698 90.016 16.6476 90.2334 14.1076C90.405 12.151 89.8558 10.3776 88.5286 8.92449C86.9611 7.20824 84.9931 6.59039 82.7162 6.99085C81.2174 7.254 79.9702 8.03204 79.0778 9.24485C77.865 10.881 77.4988 12.7574 77.8192 14.7712C78.2997 17.6201 80.7483 20.1602 84.1464 20.1259ZM95.405 15.8924C95.405 14.2449 95.3707 12.5973 95.4164 10.9611C95.4508 9.51945 95.8398 8.18078 96.7094 7.00229C97.5675 5.83524 98.7231 5.11442 100.119 4.81693C101.664 4.48513 103.231 4.46224 104.776 4.81693C107.316 5.4119 108.769 7.09382 109.318 9.61098C109.455 10.2288 109.501 10.8467 109.501 11.476V20.8581C109.501 21.8192 108.643 22.4371 107.773 22.1053C107.281 21.9222 107.018 21.5561 106.961 21.0412C106.95 20.9153 106.95 20.778 106.95 20.6522C106.95 17.7231 106.961 14.7941 106.95 11.8764C106.938 10.6865 106.675 9.55378 105.931 8.58124C104.776 7.07094 102.556 6.52174 100.68 7.28833C99.135 7.91762 98.3569 9.15332 98.0595 10.7323C97.9679 11.2128 97.945 11.6934 97.945 12.1739V20.8009C97.945 21.5217 97.5675 22.0366 96.9496 22.1625C96.1144 22.3341 95.3936 21.7506 95.3936 20.881C95.3821 19.2105 95.3936 17.5515 95.3936 15.881C95.3936 15.8924 95.3936 15.8924 95.405 15.8924Z" fill="white"/>
<path d="M24.3725 7.9751C24.9102 8.76457 25.4823 9.50828 26.0887 10.2291C28.1253 12.609 30.3565 14.7943 32.9308 16.6021C33.1025 16.728 33.1826 16.7737 32.9423 16.9453C31.4205 17.998 30.0361 19.2222 28.7089 20.5037C28.3427 20.8584 27.9537 21.2016 27.6105 21.5907C26.535 22.7691 25.4938 23.9591 24.5784 25.2749C24.5098 25.3664 24.4411 25.4694 24.361 25.5838C23.6974 24.6112 22.988 23.7074 22.2215 22.8492C22.0498 22.6547 22.2329 22.5746 22.313 22.4831C23.1025 21.6593 23.9148 20.8698 24.7615 20.1032C26.0544 18.9248 27.4045 17.8035 28.8919 16.7852C28.6517 16.6135 28.4343 16.4648 28.2169 16.3046C26.0659 14.7486 24.1208 12.9408 22.2672 11.0415C22.1757 10.9385 22.0842 10.8698 22.21 10.7211C22.9995 9.85153 23.7203 8.94764 24.3725 7.9751Z" fill="white"/>
<path d="M59.4519 9.11841C59.9096 8.11154 60.516 7.2763 61.2826 6.54404C62.3237 5.54862 63.5251 4.87356 64.9897 4.73626C65.6189 4.67905 66.1109 4.89644 66.3627 5.36555C66.6144 5.83466 66.5572 6.47539 66.2139 6.87585C65.9851 7.13901 65.6876 7.2763 65.3443 7.32207C64.1201 7.4937 62.9759 7.85983 62.0034 8.6493C60.9965 9.4731 60.3215 10.5257 59.8981 11.75C59.5091 12.8598 59.3832 14.004 59.3832 15.171V20.869C59.3832 21.4639 59.0629 21.9331 58.548 22.1161C58.0331 22.2992 57.4839 22.1504 57.1178 21.7385C56.8775 21.4639 56.8203 21.1321 56.8203 20.7774C56.8203 16.3038 56.8318 11.8301 56.8318 7.36784V6.1207C56.8432 5.37699 57.381 4.80491 58.0903 4.79347C58.8112 4.78203 59.3718 5.35411 59.3718 6.1207V8.75228C59.3833 8.86669 59.3489 8.96967 59.4519 9.11841ZM71.8432 13.5349V20.8232C71.8432 21.5898 71.4313 22.0818 70.7448 22.1733C70.0011 22.2649 69.3604 21.75 69.3032 21.0063C69.2917 20.9262 69.2917 20.8461 69.2917 20.766V6.21223C69.2917 5.49141 69.6922 4.95365 70.31 4.83923C71.1109 4.69049 71.8203 5.23969 71.8318 6.06349C71.8432 6.85296 71.8318 7.64244 71.8318 8.42047C71.8318 10.1253 71.8318 11.8301 71.8432 13.5349ZM41.5228 27.2191C41.6258 27.2763 41.7173 27.3221 41.7974 27.3678C42.2322 27.5967 42.4611 27.9514 42.4611 28.4662C42.4611 28.9925 42.2551 29.3816 41.7974 29.6333C41.4199 29.8392 41.0194 29.8964 40.6075 29.9079C39.8867 29.9193 39.1544 29.9079 38.4336 29.9193C38.2391 29.9193 38.1933 29.8507 38.2048 29.679C38.2162 28.1115 38.2162 26.5555 38.2048 24.988C38.2048 24.8163 38.2505 24.7706 38.4221 24.7706C39.1659 24.782 39.9096 24.7706 40.6647 24.782C40.9393 24.782 41.2025 24.8507 41.4542 24.9651C42.3466 25.3884 42.4725 26.5212 41.683 27.1161C41.6373 27.139 41.5915 27.1733 41.5228 27.2191ZM40.0583 29.0726C40.3672 29.0498 40.7334 29.1299 41.0881 29.004C41.397 28.901 41.5572 28.6722 41.5572 28.3747C41.5572 28.0543 41.3741 27.8713 41.0881 27.7797C40.9622 27.7454 40.8363 27.7111 40.699 27.7111C40.2414 27.6996 39.7723 27.7111 39.3146 27.6996C39.1659 27.6996 39.0972 27.7454 39.0972 27.9056C39.1087 28.226 39.1087 28.5463 39.0972 28.8667C39.0858 29.0383 39.1659 29.0726 39.3146 29.0612C39.5434 29.0726 39.7723 29.0726 40.0583 29.0726ZM39.921 25.6058V25.5944H39.3146C39.1659 25.5944 39.0858 25.6287 39.0972 25.7889C39.1087 26.0978 39.0972 26.4067 39.0972 26.7271C39.0972 26.8186 39.0972 26.9102 39.2345 26.9102C39.7265 26.8987 40.2185 26.9674 40.7105 26.8758C41.0881 26.8072 41.2826 26.5326 41.2597 26.2008C41.2368 25.8804 41.0194 25.663 40.6418 25.6173C40.4016 25.5944 40.1613 25.6058 39.921 25.6058ZM107.175 26.5326C107.484 26.2122 107.759 26.0177 108.125 25.9605C108.994 25.8347 109.692 26.3495 109.727 27.2191C109.761 28.0543 109.738 28.8896 109.738 29.7363C109.738 29.7706 109.749 29.8163 109.727 29.8278C109.498 30.0223 109.235 29.8736 108.983 29.9079C108.811 29.9308 108.823 29.8049 108.823 29.6905V27.8713C108.823 27.7454 108.823 27.631 108.811 27.5051C108.754 27.0475 108.479 26.7729 108.045 26.7614C107.587 26.75 107.255 27.0246 107.186 27.4823C107.175 27.5967 107.164 27.6996 107.164 27.8141V29.2328C107.164 29.9651 107.164 29.9651 106.42 29.9079C106.294 29.8964 106.237 29.8621 106.237 29.7363V26.1893C106.237 25.9605 106.397 25.9948 106.511 26.0292C106.729 26.0864 107.015 25.8461 107.164 26.1779C107.198 26.258 107.175 26.361 107.175 26.5326ZM75.2643 26.5326C75.516 26.258 75.7562 26.052 76.0881 25.9834C77.0377 25.766 77.77 26.3266 77.8157 27.3221C77.8501 28.123 77.8272 28.9125 77.8272 29.7134C77.8272 29.8507 77.7929 29.9079 77.6441 29.9193C76.9233 29.9651 76.9233 29.9765 76.9233 29.2671C76.9233 28.718 76.9462 28.1573 76.9119 27.6081C76.8661 26.8987 76.2482 26.5669 75.6762 26.8987C75.3558 27.0818 75.2528 27.3907 75.2528 27.7454C75.2528 28.3747 75.2414 28.9925 75.2528 29.6218C75.2528 29.8507 75.2185 29.9422 74.9668 29.9308C74.3375 29.9193 74.3375 29.9308 74.3375 29.29V26.2923C74.3375 26.0978 74.3718 26.0063 74.5892 26.0406C74.6464 26.052 74.7151 26.0406 74.7723 26.0406C75.207 26.0292 75.207 26.0292 75.2643 26.5326ZM79.7952 26.5212C80.0125 26.2694 80.2643 26.0635 80.5846 25.9834C81.5343 25.7546 82.278 26.3038 82.3352 27.3221C82.381 28.1115 82.3466 28.9125 82.3466 29.7134C82.3466 29.8507 82.3123 29.9079 82.1636 29.9193C81.4542 29.9651 81.4542 29.9765 81.4542 29.2443C81.4542 28.6722 81.5 28.1001 81.4313 27.528C81.3627 27.0017 81.0766 26.7614 80.5961 26.7729C80.1384 26.7958 79.7951 27.1276 79.7837 27.6196C79.7723 28.2946 79.7723 28.9697 79.7837 29.6447C79.7837 29.8507 79.7265 29.9193 79.5205 29.9193C78.8684 29.9079 78.8684 29.9193 78.8684 29.2786C78.8684 28.2946 78.8798 27.2992 78.8569 26.3152C78.8569 26.0635 78.937 25.9948 79.1659 26.0292H79.2231C79.7265 26.0292 79.7265 26.0292 79.7952 26.5212ZM54.5663 26.544C54.8981 26.1321 55.2871 25.9262 55.7677 25.9376C56.5228 25.9491 57.072 26.4296 57.0949 27.1848C57.1292 28.0315 57.1064 28.8781 57.1178 29.7248C57.1178 29.7935 57.1292 29.8964 57.0377 29.8964C56.786 29.9079 56.5343 29.9079 56.2826 29.8964C56.1567 29.885 56.2025 29.7477 56.2025 29.6676C56.2025 28.9697 56.2139 28.2717 56.191 27.5852C56.1796 26.9445 55.5961 26.5784 55.024 26.8415C54.7036 26.9903 54.5549 27.2534 54.5434 27.5852C54.532 28.2488 54.5205 28.9125 54.532 29.5761C54.532 29.8163 54.4862 29.9079 54.2231 29.9079C53.6281 29.885 53.6281 29.9079 53.6281 29.3015V26.2809C53.6281 26.0978 53.6624 25.9948 53.8798 26.0292C53.937 26.0406 54.0057 26.0292 54.0629 26.0292C54.5205 26.0292 54.5206 26.0292 54.5663 26.544ZM73.0903 27.3564C73.0903 28.1115 73.0789 28.8667 73.0903 29.6218C73.0903 29.8392 73.056 29.9193 72.8157 29.9193C72.175 29.9079 72.175 29.9193 72.175 29.2671V25.0681C72.175 24.8507 72.2093 24.7591 72.4611 24.7591C73.0903 24.782 73.0903 24.7591 73.0903 25.3884V27.3564ZM52.5068 27.9857C52.5068 28.5463 52.4954 29.1184 52.5068 29.679C52.5068 29.8507 52.4725 29.9193 52.278 29.9193C51.5915 29.9308 51.5915 29.9308 51.5915 29.2557C51.5915 28.2717 51.6029 27.2877 51.5915 26.2923C51.5915 26.0864 51.6373 26.0177 51.8546 26.0177C52.5068 26.0292 52.5068 26.0177 52.5068 26.6813V27.9857ZM99.429 27.9514C99.429 27.3907 99.4405 26.8186 99.429 26.258C99.429 26.0749 99.4748 26.0177 99.6693 26.0177C100.333 26.0177 100.333 26.0063 100.333 26.6699V29.6333C100.333 29.8392 100.276 29.9079 100.058 29.9079C99.429 29.9079 99.429 29.9079 99.429 29.2786V27.9514ZM111.283 6.34953V5.9834C111.283 5.49141 111.283 5.49141 110.791 5.45708C110.71 5.44564 110.619 5.46852 110.619 5.34267C110.619 5.20537 110.722 5.21681 110.813 5.21681H112.049C112.141 5.21681 112.232 5.20537 112.232 5.34267C112.232 5.46852 112.141 5.44564 112.061 5.44564C111.569 5.47997 111.569 5.47997 111.569 5.97196V7.02459C111.569 7.12756 111.591 7.23054 111.431 7.23054C111.271 7.23054 111.294 7.12756 111.294 7.02459C111.283 6.81864 111.283 6.57836 111.283 6.34953ZM52.0835 24.5875C52.5526 24.5875 52.5526 24.5875 52.5526 25.0337C52.5526 25.4456 52.5526 25.4456 52.0835 25.4456C51.5686 25.4456 51.5915 25.4456 51.5686 24.9536C51.5572 24.6562 51.6373 24.5189 51.9462 24.5875C51.9805 24.599 52.0263 24.5875 52.0835 24.5875ZM99.8867 25.4456C99.3833 25.4456 99.3832 25.4456 99.3832 24.9651C99.3832 24.5875 99.3833 24.5875 99.8295 24.5875C100.356 24.5875 100.356 24.5875 100.356 25.0681C100.356 25.4456 100.356 25.4456 99.8867 25.4456Z" fill="white"/>
</svg>
