<svg width="112" height="36" viewBox="0 0 112 36" fill="none" xmlns="http://www.w3.org/2000/svg">
<path d="M53.3958 22.2651L52.1584 28.4469C51.6134 30.9529 50.1035 32.6262 47.0193 32.6262C43.4799 32.6262 42.5455 30.4307 43.3225 27.3415C44.421 22.9591 47.996 21.654 53.3958 22.2651ZM58.9707 13.4274L55.207 13.6669L54.017 19.7201C52.5782 19.6693 52.1254 19.6236 50.4335 19.6236C45.1379 19.6236 40.5159 21.8495 39.2947 27.0715C38.1944 31.7798 40.8689 35.4335 46.7011 35.4335C52.6755 35.4335 55.2747 32.3164 56.2091 27.934L58.9707 13.4274ZM18.1442 22.5291C12.626 22.0264 7.87879 22.4843 7.80177 24.3581C7.68243 27.1714 16.8967 24.717 16.719 29.8924C16.46 37.4961 3.64701 35.7467 0.476563 34.7793L1.05208 32.5221C6.51869 33.3896 12.2858 33.4615 12.4119 30.4468C12.5473 27.2425 3.29493 30.1226 3.51159 24.9336C3.67325 21.0683 9.45639 18.9838 18.922 20.3743L18.1442 22.5291ZM33.0232 27.7012C32.2267 30.875 29.7097 32.8682 26.7127 32.8682C23.5787 32.8682 22.1687 31.0519 23.0091 27.7012C23.8063 24.5274 26.3522 22.3971 29.3483 22.3971C32.3427 22.3971 33.8196 24.5274 33.0232 27.7012ZM29.8316 19.7988C24.3438 19.7988 19.9326 22.9726 18.8476 27.7012C17.76 32.4323 20.7155 35.6062 26.2007 35.6062C31.6859 35.6062 36.0988 32.4323 37.1838 27.7012C38.2714 22.9735 35.3176 19.7988 29.8316 19.7988ZM93.2363 35.5258H88.4662C85.5734 32.8064 80.0399 26.5569 75.9655 19.9435H79.4661C83.3348 25.2823 93.2363 35.5258 93.2363 35.5258ZM98.2348 4.5754L100.43 0L101.057 4.65157L105.531 3.08581L102.404 7.09584L105.796 9.72378L101.269 10.0733L101.019 14.9111L98.5023 11.3361L94.8037 14.7469L96.19 9.94044L91.8271 9.34884L96.0732 6.92996L94.3315 2.78959L98.2348 4.5754ZM107.537 27.7495C106.728 30.9732 104.172 32.9977 101.129 32.9977C97.9462 32.9977 96.5117 31.1526 97.3665 27.7495C98.1756 24.5257 100.761 22.3616 103.804 22.3616C106.849 22.3616 108.348 24.5257 107.537 27.7495ZM104.296 19.7192C98.7224 19.7192 94.2426 22.9455 93.1381 27.7495C92.0344 32.5542 95.0356 35.7788 100.608 35.7788C106.181 35.7788 110.663 32.5542 111.765 27.7495C112.869 22.9455 109.87 19.7192 104.296 19.7192Z" fill="white"/>
<path d="M72.3516 34.1947C81.361 29.1902 89.1873 21.5002 94.7377 14.8521C90.7471 27.3426 81.141 34.0643 72.3516 34.1947Z" fill="white" fill-opacity="0.72"/>
<path d="M68.7846 22.1129C70.5104 22.1129 71.4498 22.7392 71.4498 23.936C71.4498 27.1124 65.2579 26.9025 62.5267 26.3464C63.4873 23.9682 65.6565 22.1129 68.7846 22.1129ZM75.1611 23.7633C75.1611 21.4596 73.3253 19.7668 69.1604 19.7668C62.4048 19.7668 58.0156 24.1518 58.0156 29.5803C58.0156 33.0859 60.9262 35.9999 66.2422 35.9999C69.9052 35.9999 72.3512 34.1947 72.3512 34.1947C67.6895 34.694 61.9647 34.1947 61.9647 29.2079C61.9647 29.0099 61.9757 28.8118 61.9918 28.6146C68.3522 29.935 75.1611 28.3379 75.1611 23.7633Z" fill="white"/>
</svg>
