<svg width="146" height="38" viewBox="0 0 146 38" fill="none" xmlns="http://www.w3.org/2000/svg">
<path d="M24.3831 21.3663C24.4699 19.8077 25.2342 18.4331 26.3857 17.4582C27.5168 16.5008 29.0381 15.9173 30.6978 15.9163C32.3574 15.9173 33.8787 16.5008 35.0098 17.4582C36.1613 18.4331 36.9257 19.8077 37.0135 21.3663C37.1012 22.9691 36.4577 24.4595 35.3269 25.5626C34.1751 26.6852 32.534 27.3906 30.6988 27.3906C28.8626 27.3906 27.2204 26.6852 26.0676 25.5626C24.9378 24.4595 24.2943 22.9691 24.3831 21.3663Z" fill="white"/>
<path d="M14.3203 24.5207C14.3309 25.129 14.5268 26.3149 14.8181 27.2432C15.4315 29.2034 16.4727 31.0183 17.9227 32.6179C19.41 34.2601 21.2391 35.581 23.3542 36.5167C25.5778 37.5021 27.9876 38.005 30.4859 38C32.9852 37.9957 35.3936 37.4846 37.6172 36.4932C39.7306 35.5471 41.5597 34.223 43.0459 32.5766C44.4937 30.9707 45.5328 29.1529 46.1473 27.1916C46.4543 26.215 46.65 25.2068 46.7308 24.1862C46.8077 23.1907 46.7755 22.1899 46.6348 21.2014C46.359 19.2628 45.6877 17.443 44.6561 15.7841C43.7087 14.2609 42.4922 12.9265 41.0441 11.8028L41.0462 11.8007L26.435 0.580421C26.4228 0.569879 26.4105 0.559484 26.398 0.549227C25.4364 -0.185008 23.8251 -0.182896 22.7718 0.554512C21.7039 1.30117 21.5841 2.53327 22.5312 3.31299L22.528 3.3151L28.6227 8.27257L10.0444 8.29214H10.0188C8.48395 8.2932 7.00913 9.30241 6.71565 10.5747C6.41714 11.8721 7.46046 12.9471 9.0561 12.9532L9.05399 12.9596L18.47 12.9411L1.66643 25.8376C1.64581 25.854 1.62307 25.8696 1.60244 25.886C0.0189605 27.0996 -0.494237 29.1188 0.503339 30.3964C1.51757 31.6956 3.67083 31.6967 5.27309 30.4017L14.4432 22.8983C14.4432 22.8983 14.31 23.9115 14.3203 24.5207ZM37.8837 27.9116C35.9949 29.8388 33.3509 30.9294 30.4869 30.9344C27.6219 30.9397 24.9769 29.8573 23.0867 27.9351C22.1634 26.9975 21.485 25.9222 21.0656 24.7729C20.6549 23.6438 20.4966 22.4384 20.6019 21.2416C20.7025 20.0739 21.0477 18.9405 21.615 17.9149C22.1676 16.9131 22.9267 16.0083 23.8635 15.2421C25.6997 13.7446 28.037 12.9347 30.4848 12.9315C32.9326 12.9286 35.2688 13.7321 37.1061 15.2233C38.0419 15.9856 38.8009 16.8872 39.3525 17.8872C39.9202 18.9116 40.2661 20.0439 40.3678 21.2107C40.4725 22.4078 40.3139 23.6134 39.903 24.7428C39.4847 25.8934 38.807 26.9706 37.8837 27.9116Z" fill="white" fill-opacity="0.6"/>
<path d="M124.495 21.3428C124.638 19.7678 125.855 18.7691 127.713 18.7691C129.574 18.7691 130.79 19.7678 130.934 21.3428H124.495ZM130.743 25.2281C130.266 26.3962 129.145 27.0874 127.619 27.0874C125.711 27.0874 124.425 25.8955 124.377 24.0127H135.345V23.459C135.345 18.7443 132.579 16.0939 127.619 16.0939C122.803 16.0939 119.894 18.7691 119.894 22.9643C119.894 27.1833 122.85 29.853 127.619 29.853C130.479 29.853 132.701 28.8739 134.071 27.1471L130.743 25.2281ZM75.8169 21.3499C75.9626 19.7749 77.1772 18.7773 79.0373 18.7773C80.8952 18.7773 82.113 19.7749 82.2555 21.3499H75.8169ZM82.0644 25.2366C81.5882 26.4044 80.4666 27.0956 78.9413 27.0956C77.0337 27.0956 75.7458 25.9026 75.6982 24.0198H86.6654V23.4672C86.6654 18.7525 83.8988 16.1013 78.9413 16.1013C74.1232 16.1013 71.2169 18.7773 71.2169 22.9715C71.2169 27.1915 74.1707 29.8614 78.9413 29.8614C81.801 29.8614 84.0225 28.8824 85.3931 27.1553L82.0644 25.2366ZM66.2758 13.2445H70.2336V29.4297H66.2758V13.2445ZM87.6487 17.5431H91.6271V18.5076C93.039 17.0051 94.7277 16.246 96.6343 16.246C98.833 16.246 100.497 17.0051 101.356 18.298C102.072 19.3669 102.12 20.6559 102.12 22.3517V29.4297H98.1348V23.2092C98.1348 20.6313 97.6163 19.4383 95.3515 19.4383C93.0607 19.4383 91.6271 20.8016 91.6271 23.0902V29.4297H87.6487V17.5431ZM114.93 23.1626C114.93 25.3791 113.45 26.8322 111.163 26.8322C108.872 26.8322 107.393 25.4275 107.393 23.1883C107.393 20.9174 108.849 19.5126 111.163 19.5126C113.45 19.5126 114.93 20.9401 114.93 23.1626ZM114.93 18.0833C113.928 17.0051 112.472 16.4131 110.447 16.4131C106.087 16.4131 103.103 19.1068 103.103 23.1399C103.103 27.0934 106.062 29.8593 110.375 29.8593C112.355 29.8593 113.809 29.3604 114.93 28.2378V29.4297H118.912V12.2168L114.93 13.2445V18.0833ZM57.2347 19.5126C59.5471 19.5126 61.0013 20.9174 61.0013 23.1883C61.0013 25.4275 59.5233 26.8322 57.2347 26.8322C54.9461 26.8322 53.467 25.3791 53.467 23.1626C53.467 20.9401 54.9461 19.5126 57.2347 19.5126ZM53.467 13.2445L49.4844 12.2168V29.4297H53.467V28.2378C54.5875 29.3604 56.0417 29.8593 58.0208 29.8593C62.3357 29.8593 65.2925 27.0934 65.2925 23.1399C65.2925 19.1068 62.313 16.4131 57.9494 16.4131C55.922 16.4131 54.4688 17.0051 53.467 18.0833V13.2445ZM136.328 29.4297V17.5431H140.31V18.2773C141.501 16.8427 142.763 16.128 144.195 16.128C144.482 16.128 144.838 16.1746 145.316 16.2222V19.6096C144.934 19.5602 144.506 19.5602 144.052 19.5602C141.739 19.5602 140.31 21.0866 140.31 23.684V29.4297H136.328Z" fill="white"/>
</svg>
