<svg width="122" height="28" viewBox="0 0 122 28" fill="none" xmlns="http://www.w3.org/2000/svg">
<path fill-rule="evenodd" clip-rule="evenodd" d="M10.1496 0L11.5608 3.14066H4.97024V7.33682H13.5362L15.2295 10.4775H4.97024V15.2043H12.1257L9.2458 18.3437H0.3125L0.3125 0L10.1496 0Z" fill="white"/>
<path fill-rule="evenodd" clip-rule="evenodd" d="M19.3374 4.87085L21.4884 8.61254L25.7104 4.87085H30.8639L23.9583 11.7093L28.1035 18.4096H22.9196L20.9158 14.6247L8.4267 27.7238H3.24219L18.6137 11.5595L14.7616 4.87085H19.3374Z" fill="white" fill-opacity="0.6"/>
<path fill-rule="evenodd" clip-rule="evenodd" d="M40.0527 9.7835C39.4019 7.62474 38.1954 7.59828 36.8662 7.54921C35.3801 7.47368 34.3285 8.25223 33.8643 9.55756C33.71 9.95845 33.2136 11.8913 33.7403 13.5232C34.4208 15.6581 35.566 15.9583 36.9268 15.9835C38.0101 16.0338 39.3722 15.8828 40.0527 13.5749H44.214C44.2449 15.4315 42.1643 17.2449 41.5426 17.6723C40.2696 18.527 39.3406 18.8311 36.6183 18.9079C31.3821 19.0564 29.5197 15.5832 29.2085 13.5994C29.0226 12.3955 28.867 10.0598 29.7985 8.32776C31.7849 4.68227 34.0496 4.63191 36.8339 4.4815C38.5046 4.40532 40.3012 4.73262 41.2624 5.23487C43.1565 6.19095 44.2127 8.67895 44.2127 9.7835H40.0527ZM50.3642 10.2664C50.3326 8.97591 51.3268 7.30842 53.9949 7.40848C56.6004 7.50919 57.0355 9.22897 57.0355 10.2664H50.3642ZM61.5364 12.6298C61.63 10.9952 61.63 9.15343 60.109 7.15735C59.0535 5.80619 57.0039 4.48085 53.7154 4.48085C51.7922 4.48085 47.2313 4.72939 46.1455 10.063C45.9279 11.1205 45.9279 12.1753 45.9899 12.9803C46.0835 13.8086 46.2378 14.4109 46.2998 14.6356C46.7342 15.8156 47.7581 17.0487 49.31 17.8769C50.4888 18.4812 52.0408 18.9085 53.6837 18.9085C56.6314 18.9085 60.6048 17.1242 61.3498 14.4864H57.0671C56.8489 15.1901 55.7934 15.8156 54.5533 16.0171C53.3125 16.1914 51.8839 15.9164 50.8917 14.8118C50.2713 14.1094 50.2713 13.3573 50.3642 12.6298H61.5364ZM63.3846 0L67.7247 0V18.3437H63.3846V0ZM70.1533 0L74.4928 0V18.3437H70.1533V0ZM81.1615 10.2664C81.1298 8.97591 82.1234 7.30842 84.7915 7.40848C87.3976 7.50919 87.8314 9.22897 87.8314 10.2664L81.1615 10.2664ZM92.3329 12.6298C92.4265 10.9952 92.4265 9.15343 90.9056 7.15735C89.8501 5.80619 87.8011 4.48085 84.5119 4.48085C82.5888 4.48085 78.0285 4.72939 76.9414 10.063C76.7245 11.1205 76.7245 12.1753 76.7865 12.9803C76.8801 13.8086 77.035 14.4109 77.0964 14.6356C77.5315 15.8156 78.554 17.0487 80.106 17.8769C81.2848 18.4812 82.8361 18.9085 84.4797 18.9085C87.4286 18.9085 91.402 17.1242 92.147 14.4864H87.8624C87.6442 15.1901 86.59 15.8156 85.3479 16.0171C84.1072 16.1914 82.6811 15.9164 81.6876 14.8118C81.0672 14.1094 81.0672 13.3573 81.1608 12.6298L92.3329 12.6298ZM94.697 4.7281H99.0358V6.77647H99.0991C99.9377 5.34333 101.552 4.48925 103.235 4.4815C107.087 4.4815 109.69 5.7836 109.69 9.19798V18.3443H105.351V10.2309C105.351 9.0211 105.163 7.58472 102.211 7.58472C99.5639 7.58472 99.0358 8.76932 99.0358 9.87775V18.3437H94.697V4.7281ZM113.024 5.00957V1.2737H117.363V5.00957H119.785V7.33682H117.363V14.9887C117.363 15.6672 117.486 16.1662 118.077 16.1662L119.723 16.1939V18.5806C119.07 18.7568 118.356 18.8834 117.642 18.9085C116.928 18.9337 116.247 18.8834 115.595 18.7323C114.293 18.4044 113.27 17.6264 113.024 16.1939V7.33682H110.882V5.00957H113.024ZM19.0067 27.8457H18.2578L19.1732 20.3765H19.9227L19.589 23.0937C19.9795 22.7296 20.4908 22.3926 21.0002 22.3926C21.913 22.3926 22.8671 23.2183 22.6121 25.3015C22.3623 27.3377 21.0615 28 20.3417 28C19.7562 28 19.3824 27.6824 19.0809 27.2421L19.0067 27.8457ZM19.1887 26.357C19.3456 26.8096 19.7884 27.3467 20.3159 27.3467C20.8343 27.3467 21.636 26.8386 21.8265 25.2828C21.924 24.4875 21.8801 23.0459 20.8336 23.0459C20.2578 23.0459 19.7775 23.4378 19.4908 23.9007L19.1887 26.357ZM28.7075 22.5463H29.4551L28.8063 27.8457H28.0568L28.1246 27.2983C27.6398 27.6527 27.184 27.9994 26.5791 27.9994C25.8303 27.9994 25.2757 27.5855 25.4449 26.204L25.8935 22.5463H26.643L26.2182 26.0123C26.1505 26.5694 26.1459 27.3841 26.7502 27.3841C27.2111 27.3841 27.8715 26.9342 28.213 26.5772L28.7075 22.5463ZM35.3401 23.7264C35.0954 23.2848 34.772 23.0266 34.2168 23.0266C33.7268 23.0266 33.2349 23.2764 33.169 23.8148C33.0102 25.1098 35.8733 24.5437 35.6544 26.328C35.5273 27.3654 34.7106 28 33.7119 28C32.8572 28 32.2129 27.6256 31.8702 26.8864L32.5112 26.5107C32.7333 27.0594 33.1548 27.3654 33.7888 27.3654C34.3362 27.3654 34.8623 27.0691 34.9366 26.4629C35.0993 25.1292 32.2291 25.7631 32.4621 23.8606C32.5738 22.9504 33.3905 22.3933 34.2645 22.3933C35.0037 22.3933 35.5802 22.6999 35.9185 23.3151L35.3401 23.7264ZM39.1734 27.8457H38.4246L39.0746 22.5463H39.8235L39.1734 27.8457ZM39.9888 21.2022H39.2399L39.3406 20.3765H40.0908L39.9888 21.2022ZM43.0132 27.8457H42.2637L42.9138 22.5463H43.6633L43.5949 23.0937C44.081 22.7393 44.5361 22.3926 45.1416 22.3926C45.8892 22.3926 46.445 22.8064 46.2746 24.188L45.8266 27.8457H45.0771L45.5019 24.381C45.5703 23.8226 45.7653 23.0079 44.9699 23.0079C44.509 23.0079 43.8499 23.4565 43.5071 23.8148L43.0132 27.8457ZM49.8601 25.3216C49.6741 26.8386 50.2526 27.3654 51.0201 27.3654C51.5766 27.3654 52.1027 26.9142 52.4281 26.4539L52.922 26.8096C52.5514 27.4919 51.7787 28 50.8658 28C49.6845 28 48.8439 27.1827 49.088 25.1957C49.332 23.2099 50.372 22.3926 51.5534 22.3926C53.0801 22.3926 53.3209 24.024 53.0562 25.3216H49.8601ZM52.3461 24.6876C52.4501 24.0053 52.2047 23.0272 51.4178 23.0272C50.5721 23.0272 50.057 23.9388 49.9562 24.6876H52.3461ZM59.1943 23.7264C58.9509 23.2848 58.6274 23.0266 58.071 23.0266C57.5803 23.0266 57.0891 23.2764 57.0239 23.8148C56.8644 25.1098 59.7275 24.5437 59.508 26.328C59.3808 27.3654 58.5642 28 57.5668 28C56.7121 28 56.0665 27.6256 55.725 26.8864L56.3654 26.5107C56.5868 27.0594 57.0103 27.3654 57.6436 27.3654C58.191 27.3654 58.7185 27.0691 58.7901 26.4629C58.9535 25.1292 56.0833 25.7631 56.3163 23.8606C56.428 22.9504 57.2453 22.3933 58.1181 22.3933C58.8586 22.3933 59.435 22.6999 59.772 23.3151L59.1943 23.7264ZM65.7222 23.7264C65.4788 23.2848 65.1547 23.0266 64.5976 23.0266C64.1083 23.0266 63.6164 23.2764 63.5512 23.8148C63.3923 25.1098 66.2554 24.5437 66.0366 26.328C65.9094 27.3654 65.0921 28 64.0947 28C63.2413 28 62.5944 27.6256 62.2536 26.8864L62.894 26.5107C63.1148 27.0594 63.537 27.3654 64.1715 27.3654C64.7203 27.3654 65.2445 27.0691 65.3187 26.4629C65.4827 25.1292 62.6106 25.7631 62.8449 23.8606C62.9559 22.9504 63.7739 22.3933 64.6467 22.3933C65.3865 22.3933 65.963 22.6999 66.3 23.3151L65.7222 23.7264ZM76.933 23.7264C76.6897 23.2848 76.3669 23.0266 75.8097 23.0266C75.3191 23.0266 74.8278 23.2764 74.7633 23.8148C74.6032 25.1098 77.4669 24.5437 77.2487 26.328C77.1202 27.3654 76.3043 28 75.3056 28C74.4508 28 73.8053 27.6256 73.4644 26.8864L74.1048 26.5107C74.3256 27.0594 74.7504 27.3654 75.383 27.3654C75.9305 27.3654 76.4572 27.0691 76.5289 26.4629C76.6942 25.1292 73.8234 25.7631 74.0551 23.8606C74.1674 22.9504 74.9841 22.3933 75.8569 22.3933C76.5967 22.3933 77.1745 22.6999 77.5108 23.3151L76.933 23.7264ZM80.1893 25.1957C80.4326 23.2099 81.4739 22.3926 82.654 22.3926C83.8341 22.3926 84.6753 23.2099 84.4332 25.1957C84.1885 27.1827 83.1485 28 81.9671 28C80.7857 28 79.9452 27.1827 80.1893 25.1957ZM83.6837 25.1957C83.7947 24.2932 83.7289 23.0272 82.5778 23.0272C81.4255 23.0272 81.0485 24.2932 80.9387 25.1957C80.8277 26.0995 80.8936 27.3654 82.0446 27.3654C83.1969 27.3654 83.5726 26.0995 83.6837 25.1957ZM89.6513 23.1809H88.6726L88.1013 27.8464H87.3524L87.925 23.1809H87.1181L87.1949 22.5469H88.0006L88.1206 21.5876C88.2304 20.6838 88.7965 20.2248 89.6894 20.2248L90.0754 20.2816L89.9973 20.9259C89.8827 20.8825 89.7615 20.8591 89.639 20.8568C89.0728 20.8568 88.9244 21.1467 88.8701 21.5766L88.7514 22.5476H89.73L89.6513 23.1809ZM93.4233 22.5463H94.6234L94.5466 23.1802H93.3465L92.9391 26.51C92.8746 27.0284 92.8229 27.3648 93.4381 27.3648C93.6486 27.3648 93.8532 27.346 94.0411 27.2976L93.9753 27.8451C93.7241 27.9309 93.4659 27.9987 93.2077 27.9987C91.9391 27.9987 92.1122 27.144 92.2303 26.1743L92.597 23.1796H91.7913L91.8681 22.5456H92.6751L92.8855 20.8272H93.6344L93.4233 22.5463ZM100.878 27.8457H100.138L99.6936 23.6399H99.6749L98.1695 27.8457H97.4103L96.6982 22.5463H97.4284L97.9171 26.8574H97.9364L99.4819 22.5463H100.212L100.654 26.8574H100.672L102.189 22.5463H102.928L100.878 27.8457ZM107.805 27.8457L107.813 27.1737C107.329 27.5959 106.799 27.9994 106.175 27.9994C105.359 27.9994 104.79 27.317 104.892 26.4836C105.08 24.9639 106.712 24.6392 107.923 24.3222L108.17 24.2544L108.205 23.9568C108.281 23.3513 107.909 23.0266 107.313 23.0266C106.728 23.0266 106.276 23.4113 105.914 23.86L105.434 23.4681C105.954 22.8342 106.584 22.3926 107.391 22.3926C108.11 22.3926 109.093 22.8342 108.945 24.0433L108.622 26.6747C108.583 27.0691 108.514 27.4726 108.624 27.8457H107.805ZM107.786 24.9575C107.049 25.1666 105.719 25.4565 105.601 26.4061C105.548 26.8464 105.839 27.2899 106.291 27.2899C106.885 27.2899 107.483 26.8761 107.904 26.4248L108.093 24.8703L107.786 24.9575ZM112.847 23.6889H112.866C113.241 23.055 113.697 22.4708 114.483 22.4708H114.772L114.687 23.1505C113.727 23.0169 113.087 24.0737 112.706 24.8413L112.338 27.8457H111.589L112.238 22.5463H112.987L112.847 23.6889ZM117.801 25.3216C117.614 26.8386 118.193 27.3654 118.961 27.3654C119.518 27.3654 120.044 26.9142 120.37 26.4539L120.864 26.8096C120.494 27.4919 119.72 28 118.806 28C117.627 28 116.785 27.1827 117.03 25.1957C117.273 23.2099 118.314 22.3926 119.494 22.3926C121.02 22.3926 121.262 24.024 120.997 25.3216H117.801ZM120.288 24.6876C120.391 24.0053 120.146 23.0272 119.359 23.0272C118.514 23.0272 118 23.9388 117.899 24.6876H120.288Z" fill="white"/>
</svg>
