<svg width="136" height="32" viewBox="0 0 136 32" fill="none" xmlns="http://www.w3.org/2000/svg">
<path d="M14.0274 0.12602C10.5903 0.457322 7.33271 1.92057 4.90332 4.22588C1.81136 7.13857 0.0859375 11.1832 0.0859375 15.5454C0.0859375 22.5027 3.70242 28.1762 9.74831 30.661C12.3571 31.7377 14.3586 32.069 17.7405 31.9586C20.3355 31.8758 22.0333 31.5997 24.021 30.9509C25.2081 30.5644 27.9688 29.2668 27.9688 29.1011C27.9688 29.0459 27.6927 28.4109 27.3476 27.6793L26.7265 26.3403L25.8707 26.8234C23.6621 28.0244 21.5916 28.5351 18.4444 28.6456C13.6547 28.7974 10.4523 27.7621 7.73301 25.1945C5.45545 23.0549 4.13033 20.2526 3.82665 16.9396C3.30213 11.3213 6.11802 6.37934 11.0044 4.3087C12.6194 3.6323 14.0688 3.37002 16.1669 3.38382C18.472 3.39762 19.6867 3.6599 21.4812 4.55718C23.1238 5.37163 25.1805 7.40085 26.0087 9.02975C26.9059 10.7829 27.2096 12.0253 27.2096 13.9855C27.2096 15.7524 26.9335 16.9672 26.2433 18.3338C25.4566 19.8937 23.883 21.3017 22.1714 22.0057C19.6039 23.0411 16.2635 22.9858 14.055 21.8677C12.3157 20.9842 10.9492 18.817 10.6593 16.4978L10.5765 15.849H23.8278V14.3996C23.8278 9.81659 21.6882 6.65542 17.9613 5.70293C16.8709 5.42685 14.3862 5.42685 13.282 5.71674C8.0919 7.05575 5.2208 13.5299 7.24989 19.3829C7.81583 21.0394 8.40938 21.9643 9.74831 23.3033C11.4461 25.0013 13.0059 25.8295 15.3801 26.285C16.7466 26.5473 19.6453 26.5335 21.0809 26.2574C25.4704 25.4292 28.8798 22.3923 30.2187 18.1267C30.3982 17.5194 30.6052 16.7601 30.6604 16.4288L30.7571 15.849H32.3859V20.9842C32.3859 23.9521 32.4549 26.3955 32.5377 26.7406C32.938 28.5075 34.3597 30.2193 36.1266 31.0889C37.5069 31.7515 38.556 32 40.0467 32C42.4899 32 44.2844 31.296 45.858 29.7223C46.9346 28.6456 47.4591 27.7207 47.6938 26.4231C47.7904 25.8985 47.8456 23.2205 47.8456 19.1345V12.6741H44.1187V25.7329L43.7598 26.4507C43.0835 27.8173 41.7998 28.5489 40.0329 28.5489C39.0667 28.5489 38.8044 28.4937 38.059 28.121C37.217 27.7069 36.8029 27.279 36.306 26.3403C36.0576 25.8847 36.0438 25.3878 36.0023 19.2587L35.9609 12.6741H30.7433L30.6604 12.0115C30.2601 8.8641 28.9074 6.15847 26.6851 4.01881C24.2971 1.72731 21.3984 0.457322 17.7681 0.112216C16.1393 -0.0396309 15.7252 -0.0396309 14.0274 0.12602ZM17.492 8.8779C18.7481 9.31964 19.8248 10.6172 20.087 12.0391L20.1975 12.6741H10.7283L10.9354 11.9424C11.3219 10.6587 12.0949 9.67855 13.1992 9.08497C14.2482 8.519 16.2083 8.42237 17.492 8.8779ZM55.4375 15.9181V30.8957H56.6798V0.94047H55.4375V15.9181ZM94.5011 2.11383V3.28719H97.2618V0.94047H94.5011V2.11383ZM63.7195 7.29042V13.0882L66.8529 13.0882C70.4556 13.0882 71.4218 12.964 72.4295 12.3566C73.3819 11.7768 73.796 11.0314 73.796 9.87181C73.796 8.71225 73.3957 7.92541 72.5399 7.38705L71.8773 6.97292L72.2638 6.61401C72.9402 5.97902 73.1334 5.42685 73.0782 4.3087C73.0368 3.43904 72.9816 3.23197 72.6089 2.77643C72.3881 2.48654 71.8911 2.10003 71.5046 1.90677C70.8421 1.57546 70.7455 1.56166 67.2808 1.52025L63.7195 1.47884V7.29042ZM69.8344 4.00501C70.5522 4.37772 70.6626 4.98511 70.1519 5.5925C69.8206 5.97902 69.793 5.97902 68.0814 6.02043L66.3422 6.07565V3.83936H67.9434C68.882 3.83936 69.655 3.90838 69.8344 4.00501ZM70.4832 8.57421C70.9939 8.83649 71.2424 9.41627 71.0353 9.91322C70.7731 10.5482 70.0691 10.7415 68.0676 10.7415H66.3422V8.39476H68.247C69.4893 8.39476 70.2623 8.46378 70.4832 8.57421ZM87.696 4.18446C85.4737 4.90229 85.0043 7.884 86.9506 9.00214C87.2681 9.1816 88.0549 9.4991 88.7037 9.70616C90.015 10.1203 90.222 10.2445 90.222 10.6172C90.222 11.3075 88.7175 11.3075 87.3509 10.6172C86.8816 10.3826 86.4537 10.1893 86.3985 10.1893C86.3433 10.1893 86.0534 10.562 85.7497 11.0176C85.1286 11.9839 85.1286 11.9563 86.4537 12.605C87.4476 13.0882 88.4414 13.2677 89.6009 13.1986C91.5196 13.0744 92.5686 12.1909 92.679 10.6034C92.7895 9.08497 92.1131 8.35334 89.8493 7.5665C89.1454 7.31803 88.469 7.00053 88.331 6.84868C88.0963 6.5864 88.0963 6.55879 88.4138 6.31032C88.8969 5.90999 89.5733 6.00662 90.995 6.68303C91.2573 6.80727 91.492 6.8901 91.5196 6.86249C91.5472 6.83488 91.7818 6.42075 92.0579 5.95141L92.5548 5.08174L92.2235 4.86087C91.1054 4.12925 88.9107 3.79795 87.696 4.18446ZM103.473 4.18446C103.211 4.3087 102.783 4.59859 102.548 4.83326L102.093 5.275V4.11544H99.4703V13.0882H102.093V10.4654C102.093 7.59411 102.19 7.08335 102.838 6.66923C103.252 6.39314 103.998 6.36553 104.44 6.60021C105.019 6.9177 105.13 7.49748 105.13 10.3964V13.0882H107.766L107.725 9.45768L107.683 5.81336L107.311 5.2612C106.758 4.41914 106.11 4.08784 104.936 4.01881C104.246 3.99121 103.818 4.03262 103.473 4.18446ZM112.445 4.21207C111.024 4.70903 110.002 5.86858 109.602 7.42846C108.981 9.85801 110.237 12.2737 112.473 13.0054C113.467 13.3229 115.151 13.2953 116.076 12.9502C116.752 12.7017 117.967 11.8182 117.967 11.5973C117.967 11.5421 117.622 11.2108 117.221 10.8381L116.462 10.1893L115.744 10.631C115.165 11.0038 114.889 11.0866 114.24 11.0866C113.343 11.0866 112.86 10.8243 112.445 10.1479C112.294 9.89942 112.169 9.66475 112.169 9.59573C112.169 9.54051 113.577 9.4991 115.289 9.4991H118.422L118.353 8.42237C118.201 6.15847 117.208 4.72283 115.399 4.17066C114.557 3.92218 113.232 3.93599 112.445 4.21207ZM114.889 6.40695C115.234 6.62781 115.537 7.05575 115.689 7.52509L115.772 7.84259H113.978C112.804 7.84259 112.169 7.78737 112.169 7.70455C112.169 7.62172 112.252 7.38705 112.363 7.17998C112.887 6.17228 113.978 5.84097 114.889 6.40695ZM122.177 4.10164C120.783 4.47435 119.899 5.53728 119.899 6.87629C119.899 8.24291 120.658 8.98834 122.674 9.63714C123.93 10.0375 124.454 10.3135 124.454 10.5896C124.454 10.6448 124.33 10.8105 124.178 10.9485C123.778 11.3213 122.605 11.1694 121.542 10.631C121.073 10.3826 120.645 10.1893 120.589 10.1893C120.424 10.1893 119.458 11.7216 119.527 11.901C119.623 12.1633 120.879 12.7845 121.763 13.0192C123.902 13.5713 126.056 12.9502 126.608 11.6111C126.718 11.3627 126.801 10.7553 126.801 10.2721C126.801 9.45768 126.76 9.31964 126.359 8.8779C125.876 8.32574 125.31 8.00824 124.178 7.63552C122.977 7.24901 122.384 6.9039 122.384 6.60021C122.384 5.9376 123.516 5.90999 124.869 6.54499C125.724 6.94531 125.711 6.95912 126.332 5.73054C126.663 5.09554 126.663 5.04033 126.442 4.87468C125.614 4.2811 123.185 3.82555 122.177 4.10164ZM130.597 4.10164C129.645 4.33631 128.747 5.05413 128.471 5.81336C128.25 6.36553 128.278 7.51129 128.513 7.96683C128.899 8.69845 129.603 9.15399 131.025 9.60953C131.77 9.85801 132.46 10.1065 132.543 10.1617C132.833 10.355 132.861 10.7139 132.598 10.9485C132.198 11.3075 131.039 11.1694 129.934 10.631C129.451 10.3826 129.01 10.1893 128.982 10.1893C128.83 10.1893 127.891 11.7492 127.947 11.901C128.043 12.1633 129.299 12.7845 130.183 13.0192C132.322 13.5713 134.476 12.9502 135.028 11.6111C135.138 11.3627 135.221 10.7967 135.221 10.355C135.221 9.01595 134.545 8.28432 132.764 7.69074C131.398 7.24901 130.804 6.9177 130.804 6.60021C130.804 5.95141 131.936 5.91 133.275 6.53119C133.675 6.72444 134.034 6.87629 134.062 6.87629C134.131 6.87629 135.124 5.06794 135.069 5.02652C135.042 4.99892 134.752 4.84707 134.434 4.68142C133.233 4.07403 131.674 3.83936 130.597 4.10164ZM75.48 7.59411C75.5214 10.8519 75.5352 11.128 75.8251 11.6388C76.4048 12.7155 77.2745 13.2262 78.5582 13.2262C79.4416 13.2262 80.0213 13.0192 80.6701 12.4808L81.1118 12.0943V13.0882H83.8725V4.11544H81.1256L81.0842 7.06955C81.0428 9.74757 81.0152 10.0513 80.7805 10.3135C80.2146 10.9485 79.0965 10.9071 78.5306 10.2583C78.2269 9.91322 78.2131 9.80279 78.2131 7.00053V4.11544H75.4248L75.48 7.59411ZM94.5011 8.60182V13.0882H97.1237V4.11544L94.5011 4.11544V8.60182ZM83.7344 24.5457V30.6196H86.3571V28.1624C86.3709 25.4292 86.4675 24.7942 86.9506 24.2972C87.5994 23.6622 88.9383 23.9245 89.2558 24.7666C89.3386 24.9598 89.3938 26.3541 89.3938 27.8725V30.6196H92.1821L92.1269 27.1961C92.0855 24.311 92.0441 23.7037 91.837 23.2343C91.3263 22.0886 90.4153 21.5226 89.0764 21.5088C88.1377 21.5088 87.4199 21.7711 86.8126 22.3646L86.3571 22.8064V18.4718H83.7344V24.5457ZM116.586 24.5457V30.6196H119.209V18.4718H116.586V24.5457ZM66.3836 18.886C64.5339 19.2587 63.4573 20.5425 63.4435 22.3785C63.4435 23.5518 63.6643 24.0764 64.4097 24.7252C64.9894 25.2083 65.6382 25.4706 68.109 26.2022C68.6611 26.3541 69.2409 26.6164 69.3927 26.7682C69.9725 27.348 69.4479 28.19 68.3989 28.3557C67.6121 28.4799 66.4526 28.1624 65.4312 27.555L64.4925 26.9891L63.6919 27.8725C63.264 28.3557 62.9051 28.7974 62.8913 28.8526C62.8913 29.0735 64.672 30.095 65.5692 30.3849C66.3284 30.6196 66.8805 30.6886 68.0124 30.6886C69.4065 30.6886 69.517 30.661 70.428 30.2055C71.2286 29.7913 71.4494 29.5981 71.8221 28.9631C72.2224 28.3005 72.2776 28.0934 72.2776 27.2237C72.2776 26.0642 72.1396 25.5948 71.6151 25.0565C71.0077 24.4077 70.2347 24.0488 68.4127 23.5104C67.4188 23.2205 66.5492 22.8892 66.3836 22.7236C65.5002 21.8953 66.5906 20.9842 68.1366 21.2603C68.4817 21.3155 69.1719 21.5778 69.6826 21.8401L70.6212 22.3094L71.3114 21.3293L72.0154 20.3354L71.6979 20.0731C70.5108 19.093 68.0952 18.5547 66.3836 18.886ZM76.9432 21.6882C75.4938 22.2404 74.4586 23.2343 74.0031 24.5319C73.8926 24.877 73.796 25.5948 73.796 26.1608C73.796 27.9968 74.5966 29.3634 76.1702 30.2193C77.0122 30.6748 77.095 30.6886 78.5582 30.6886C79.9661 30.6886 80.1318 30.661 80.7943 30.2883C81.1808 30.0812 81.6777 29.7223 81.8848 29.5014L82.2713 29.1011L81.5259 28.3419C80.7253 27.5274 80.5597 27.4584 80.2698 27.8035C79.6901 28.4937 78.3097 28.6594 77.4677 28.1348C76.4877 27.5412 76.1426 26.0504 76.6947 24.9598C77.3297 23.7037 78.8895 23.4138 79.9799 24.3386C80.2146 24.5319 80.4492 24.6838 80.5183 24.6838C80.5873 24.6838 81.0014 24.311 81.4569 23.8417L82.2851 23.0134L81.802 22.5993C80.8909 21.8263 80.2008 21.5916 78.7652 21.5502C77.9094 21.5226 77.2745 21.564 76.9432 21.6882ZM96.8891 21.7711C94.9566 22.4889 93.7833 24.1178 93.7695 26.1194C93.7695 27.2099 93.9904 27.9554 94.5425 28.7698C95.4949 30.1502 97.0547 30.8404 98.9734 30.73C100.933 30.6196 102.3 29.7637 103.087 28.1624C103.501 27.3342 103.542 27.1271 103.528 26.0642C103.528 25.1393 103.459 24.7528 103.211 24.2558C102.714 23.2343 102.024 22.5303 101.03 22.0333C100.243 21.6468 99.9534 21.5778 98.8629 21.5502C97.8829 21.5088 97.455 21.564 96.8891 21.7711ZM99.843 24.1592C101.085 24.9046 101.292 26.7544 100.243 27.8035C98.8215 29.2254 96.4336 28.1762 96.4336 26.1332C96.4336 25.0151 96.9305 24.2696 97.9105 23.9245C98.5317 23.7037 99.2218 23.7865 99.843 24.1592ZM108.07 21.7573C105.93 22.5165 104.729 24.311 104.881 26.4921C105.005 28.2314 105.944 29.5567 107.6 30.3297C108.277 30.6472 108.539 30.6886 109.823 30.6886C111.134 30.6886 111.341 30.6472 112.031 30.3021C113.067 29.7637 113.867 28.9493 114.309 27.9692C114.64 27.2375 114.682 27.0029 114.626 25.9537C114.571 24.5457 114.281 23.8141 113.398 22.9168C112.459 21.9781 111.521 21.5916 110.044 21.5502C109.091 21.5088 108.622 21.564 108.07 21.7573ZM110.789 24.0626C112.887 25.1393 112.156 28.4661 109.823 28.4661C108.166 28.4661 107.048 26.7268 107.725 25.2221C108.304 23.9245 109.574 23.4414 110.789 24.0626Z" fill="white"/>
</svg>
