<svg width="140" height="32" viewBox="0 0 140 32" fill="none" xmlns="http://www.w3.org/2000/svg">
<path d="M88.9586 20.0281C86.5276 20.0281 84.5493 18.0493 84.5493 15.6188C84.5493 13.1878 86.5276 11.2095 88.9586 11.2095C91.3897 11.2095 93.3674 13.1878 93.3674 15.6188C93.3674 18.0736 91.3654 20.0281 88.9586 20.0281ZM88.9586 8.58742C85.0738 8.58742 81.9278 11.734 81.9278 15.6188C81.9278 19.5036 85.0738 22.6497 88.9586 22.6497C92.8434 22.6497 95.9895 19.5036 95.9895 15.6188C95.9895 11.7577 92.8434 8.58742 88.9586 8.58742ZM80.3547 20.3854H80.9268V23.0306H80.3547C77.328 23.0306 74.8489 20.5521 74.8489 17.5253V5.44137H77.4947V8.96893H80.9025V11.6147H77.4947V17.5491C77.4947 19.0983 78.7817 20.3854 80.3547 20.3854ZM112.577 20.0281C110.146 20.0281 108.168 18.0493 108.168 15.6188C108.168 13.1878 110.146 11.2095 112.577 11.2095C115.008 11.2095 116.987 13.1878 116.987 15.6188C116.963 18.0736 114.984 20.0281 112.577 20.0281ZM112.577 8.58742C108.692 8.58742 105.546 11.734 105.546 15.6188C105.546 19.5036 108.692 22.6497 112.577 22.6497C116.462 22.6497 119.608 19.5036 119.608 15.6188C119.608 11.7577 116.462 8.58742 112.577 8.58742ZM132.812 20.0281C130.381 20.0281 128.403 18.0493 128.403 15.6188C128.403 13.1878 130.381 11.2095 132.812 11.2095C135.243 11.2095 137.221 13.1878 137.221 15.6188C137.221 18.0736 135.219 20.0276 132.812 20.0276M132.812 8.58742C128.927 8.58742 125.781 11.734 125.781 15.6188C125.781 19.5036 128.927 22.6497 132.812 22.6497C134.528 22.6497 136.101 22.0296 137.317 21.0049V22.3874H139.843V15.833V15.6183C139.843 11.7572 136.697 8.58742 132.812 8.58742ZM103.258 8.58794H104.522V11.2332H103.258C101.686 11.2332 100.398 12.5208 100.398 14.0933V22.4829H97.753V14.0933C97.753 11.0665 100.232 8.58794 103.258 8.58794ZM121.372 5.08413H124.017V22.4349H121.372V5.08413ZM57.2602 14.4505V22.8164H54.6144V14.4505C54.6144 12.8775 53.3273 11.5905 51.7543 11.5905C50.1818 11.5905 48.8943 12.8775 48.8943 14.4505V22.8159H46.249V14.4505C46.249 12.8775 44.9614 11.5905 43.3889 11.5905C41.8164 11.5905 40.5289 12.8775 40.5289 14.4505V22.8159H37.8836V14.4505C37.8836 11.4232 40.3622 8.94466 43.3652 8.94466C45.0575 8.94466 46.535 9.68342 47.5598 10.8755C48.5845 9.68342 50.062 8.94466 51.7548 8.94466C54.7811 8.94466 57.2602 11.4232 57.2602 14.4505ZM66.0783 20.3854C63.6472 20.3854 61.669 18.4071 61.669 15.976C61.669 13.545 63.6478 11.5667 66.0783 11.5667C68.5093 11.5667 70.4876 13.5455 70.4876 15.976C70.4876 18.4071 68.4856 20.3854 66.0783 20.3854ZM66.0783 8.94519C62.1697 8.94519 59.0232 12.0912 59.0232 15.976C59.0232 19.8608 62.1697 23.0069 66.0545 23.0069C69.9393 23.0069 73.0854 19.8608 73.0854 15.976C73.1091 12.115 69.9631 8.94519 66.0783 8.94519ZM16.2185 0.0078125C7.37667 0.0078125 0.226563 7.15792 0.226563 15.9998C0.226563 24.8417 7.37667 31.9923 16.2185 31.9923C25.0609 31.9923 32.211 24.8422 32.211 15.9998C32.211 7.20541 25.1559 0.0078125 16.2185 0.0078125Z" fill="white"/>
<path d="M20.9874 3.94141L16.2446 19.6716L16.2203 19.6954L16.1729 19.6716L11.43 3.94141L5.30469 24.081H6.44871C6.44871 24.081 7.21174 20.5772 8.47501 18.4801C9.16627 17.3361 10.2148 16.4063 11.6205 16.4301C12.6215 16.4544 13.4796 17.0021 14.5523 18.5039C14.7903 18.8374 15.0763 19.3856 15.3623 19.9102C15.8156 20.7914 16.1966 21.6974 16.1966 21.6974C16.1966 21.6974 17.1976 19.4094 17.8414 18.5039C18.9136 17.0021 19.7717 16.4544 20.7727 16.4301C22.1789 16.4063 23.2512 17.3361 23.9187 18.4801C25.182 20.5772 25.945 24.081 25.945 24.081H27.0885L20.9874 3.94141Z" fill="#FF275A"/>
</svg>
