<svg width="117" height="32" viewBox="0 0 117 32" fill="none" xmlns="http://www.w3.org/2000/svg">
<path fill-rule="evenodd" clip-rule="evenodd" d="M79.0002 8.82791L70.2136 8.82791V10.6671C70.9459 10.6671 71.6787 10.8511 71.8608 11.219C72.2275 11.403 72.4109 11.9543 72.4109 12.6902V15.2653H66.3698V12.6902C66.3698 11.9549 66.5532 11.403 66.7366 11.219C67.1021 10.8511 67.8349 10.6671 68.5671 10.6671V8.82791H59.5972V10.6671C60.3294 10.6671 60.5121 10.6671 60.8776 10.8511C61.2444 10.8511 61.2444 11.219 61.4265 11.219C61.7932 11.771 61.9766 12.1383 61.9766 12.6902V22.4374C61.9766 22.4374 61.7932 22.9887 61.4265 23.1727L60.8776 23.724H59.5972V25.5638H68.5659V23.724H67.2842C67.1008 23.3561 66.7353 23.1727 66.7353 23.1727C66.552 22.9881 66.552 22.6202 66.552 22.4374C66.3686 22.2528 66.3686 21.7021 66.3686 21.7021V17.8398H72.4097V22.4374C72.4097 22.4374 72.2263 22.9887 72.2263 23.1727C71.8596 23.1727 71.6775 23.3561 71.4941 23.724H70.2124V25.5638H78.999V23.724H77.7173C77.5339 23.3561 77.3518 23.1727 76.9851 23.1727C76.9851 22.9881 76.8017 22.6202 76.8017 22.4374V12.6896C76.8017 12.1377 76.9851 11.7703 77.3518 11.2184C77.5339 10.8504 78.2667 10.6665 78.999 10.6665V8.82791H79.0002ZM80.0985 8.82791V10.6671C80.8307 10.6671 81.3789 10.6671 81.5623 10.8511C81.929 10.8511 82.1112 11.219 82.1112 11.403C82.4779 11.771 82.4779 11.9549 82.4779 11.9549L82.6612 12.6902V22.4374C82.6612 22.4374 82.4779 22.9887 82.1112 23.1727L81.5623 23.724H80.0985V25.5638H95.6571L98.5859 19.6783L96.7554 18.943C95.6571 20.7822 94.5581 21.7021 93.0943 22.4374C91.6293 23.1727 90.1655 23.3561 88.5183 23.3561C87.9682 23.3561 87.7849 23.3561 87.42 23.1727C87.2366 22.9881 87.0533 22.2528 87.0533 21.3335V17.8392H87.7855C88.8838 17.8392 89.4339 18.0225 89.7994 18.2071C90.3495 18.7597 90.7143 19.495 90.7143 20.4136H92.5449V12.6896H90.7143C90.7143 13.6089 90.3488 14.3448 89.7994 14.8967C89.4339 15.0807 88.8844 15.2647 87.7855 15.2647H87.0533V13.0576C87.0533 12.1383 87.2366 11.9543 87.2366 11.4024C87.42 11.2184 88.1516 10.8504 89.0672 10.8504H89.616C91.4465 10.8504 92.7282 11.4024 93.8266 12.1377C94.9249 12.8736 95.6571 13.7929 96.2059 14.7121L97.8543 13.7929L95.4743 8.82729L80.0985 8.82791ZM114.328 19.6783C113.961 20.4136 113.413 21.3342 112.497 22.2528C111.947 22.6208 111.582 22.9881 110.85 23.1727C110.3 23.724 109.568 23.724 108.836 23.724C108.286 23.724 108.104 23.724 107.371 23.3561C106.822 23.1727 106.456 22.9881 105.907 22.4374C105.541 21.8849 104.992 21.3342 104.809 20.4143C104.444 19.679 104.26 18.3911 104.26 17.2879C104.26 14.8974 104.444 13.0582 105.541 12.1389C106.456 10.8517 107.371 10.4837 108.286 10.4837C109.751 10.4837 110.85 10.8517 111.765 11.9549C112.497 12.8748 113.412 13.7941 113.961 15.2653L115.975 14.7134L113.779 8.82852H112.314L111.947 9.19648C111.582 9.0125 110.85 8.82852 110.117 8.46057C109.568 8.46057 108.653 8.27721 107.921 8.27721C105.175 8.27721 102.978 9.19648 101.514 10.6683C100.049 12.3235 99.1342 14.714 99.1342 17.2885C99.1342 19.6796 100.049 21.8861 101.88 23.7253C103.161 25.3811 105.541 26.1164 108.104 26.1164C110.3 26.1164 112.313 25.3811 113.412 24.2772C114.876 23.3573 115.61 21.8861 116.341 20.7828L114.328 19.6783ZM44.2201 2.94243C42.2069 0.919894 39.6441 0 35.9831 0C30.8576 0 26.0982 1.6552 21.8883 4.7816C18.0445 8.27597 15.8479 12.1383 14.9323 16.5513C14.5662 17.8392 14.3828 18.7591 14.3828 19.6777C14.3828 23.7234 15.8472 26.4819 18.0439 28.8736C20.4233 30.8967 23.3521 32 27.0132 32C29.2098 32 31.0403 31.632 33.0536 31.2647C34.7008 30.7121 36.898 29.4255 38.1791 28.5056C40.1923 26.8498 39.094 26.2991 37.6296 27.2178C36.8974 27.7703 34.7008 29.057 33.2363 29.2409C31.9547 29.4255 30.1241 29.7923 28.1109 29.7923C24.9986 29.7923 22.6193 29.057 20.606 27.2178C18.7755 25.3786 18.0433 23.1721 18.0433 20.0457C18.0433 18.9424 18.0433 18.0225 18.226 17.1033C18.9582 12.873 20.9715 9.56259 23.9003 6.62016C27.1953 3.67773 30.8563 2.20652 35.249 2.20652C38.1778 2.20652 40.3745 2.94181 42.0216 4.59762C43.4861 6.06884 44.401 8.27597 44.401 10.6671C44.2177 14.3454 43.3027 17.2872 42.0216 18.943C40.3745 21.3342 39.0928 21.8855 38.9094 21.8855C38.3606 21.8855 38.3606 21.7021 38.3606 21.7021C38.3606 20.7822 39.0928 18.2077 39.2755 17.2879L42.021 8.46057C42.021 8.2772 42.021 8.09261 41.4716 8.09261H37.9939C37.6278 8.09261 36.8955 8.27659 36.7122 9.0125L36.3461 9.74842C35.065 15.2659 31.5873 18.7603 30.6717 19.679C29.2073 21.1502 28.1096 21.7021 27.7429 21.7021C27.194 21.7021 27.194 21.3342 27.194 20.9668C27.194 20.7822 27.194 20.4143 27.3768 19.311L30.3056 12.1383C30.8551 11.219 30.8551 10.1151 30.8551 9.7478C30.8551 8.45995 30.1229 7.54067 28.6585 7.54067C27.194 7.54067 24.8141 8.09261 22.0686 10.4837C20.9702 11.9549 20.6041 12.6902 20.6041 12.6902C20.6041 13.0582 21.153 13.0582 21.153 13.0582C21.5191 13.0582 22.0686 12.3229 22.6174 11.9549C23.3496 11.2196 24.2646 10.1158 24.9968 10.1158C25.5456 10.1158 25.5456 10.4837 25.5456 10.6677C25.5456 10.8517 25.1795 11.403 24.9968 12.1389L22.8002 17.1045C22.4341 18.2077 21.3357 20.4143 21.3357 22.438C21.3357 24.8291 23.1663 25.3805 24.0818 25.3805C26.4612 25.3805 30.6711 23.1739 34.3328 16.7372L33.784 18.3917C33.6006 19.4962 33.0511 21.7027 33.0511 23.3573C33.0511 23.9099 33.0511 25.3805 34.6983 25.3805C38.3594 25.3805 41.1048 22.6214 42.5699 20.9674C44.4004 18.3917 46.0476 16.0012 46.2309 13.7947C46.597 12.1395 46.597 10.8523 46.597 9.9324C46.6001 6.80476 46.0507 4.59762 44.2201 2.94243Z" fill="white"/>
<path fill-rule="evenodd" clip-rule="evenodd" d="M44.2201 2.94243C42.2069 0.919894 39.6441 0 35.9831 0C30.8576 0 26.0982 1.6552 21.8883 4.7816C18.0445 8.27597 15.8479 12.1383 14.9323 16.5513C14.5662 17.8392 14.3828 18.7591 14.3828 19.6777C14.3828 23.7234 15.8472 26.4819 18.0439 28.8736C20.4233 30.8967 23.3521 32 27.0132 32C29.2098 32 31.0403 31.632 33.0536 31.2647C34.7008 30.7121 36.898 29.4255 38.1791 28.5056C40.1923 26.8498 39.094 26.2991 37.6296 27.2178C36.8974 27.7703 34.7008 29.057 33.2363 29.2409C31.9547 29.4255 30.1241 29.7923 28.1109 29.7923C24.9986 29.7923 22.6193 29.057 20.606 27.2178C18.7755 25.3786 18.0433 23.1721 18.0433 20.0457C18.0433 18.9424 18.0433 18.0225 18.226 17.1033C18.9582 12.873 20.9715 9.56259 23.9003 6.62016C27.1953 3.67773 30.8563 2.20652 35.249 2.20652C38.1778 2.20652 40.3745 2.94181 42.0216 4.59762C43.4861 6.06884 44.401 8.27597 44.401 10.6671C44.2177 14.3454 43.3027 17.2872 42.0216 18.943C40.3745 21.3342 38.9094 21.8855 38.9094 21.8855L38.3606 21.7021C38.3606 20.7822 39.0928 18.2077 39.2755 17.2879L42.021 8.46057C42.021 8.2772 41.4716 8.09261 41.4716 8.09261H37.9939C37.6278 8.09261 36.8955 8.27659 36.7122 9.0125L36.3461 9.74842C35.065 15.2659 31.5873 18.7603 30.6717 19.679C29.2073 21.1502 28.1096 21.7021 27.7429 21.7021C27.194 21.7021 27.194 20.9668 27.194 20.9668C27.194 20.9668 27.194 20.4143 27.3768 19.311L30.3056 12.1383C30.8551 11.219 30.8551 10.1151 30.8551 9.7478C30.8551 8.45995 30.1229 7.54067 28.6585 7.54067C27.194 7.54067 24.8141 8.09261 22.0686 10.4837C20.9702 11.9549 20.6041 12.6902 20.6041 12.6902C20.6041 13.0582 21.153 13.0582 21.153 13.0582C21.5191 13.0582 22.0686 12.3229 22.6174 11.9549C23.3496 11.2196 24.2646 10.1158 24.9968 10.1158C25.5456 10.1158 25.5456 10.6677 25.5456 10.6677C25.5456 10.6677 25.1795 11.403 24.9968 12.1389L22.8002 17.1045C22.4341 18.2077 21.3357 20.4143 21.3357 22.438C21.3357 24.8291 23.1663 25.3805 24.0818 25.3805C26.4612 25.3805 30.6711 23.1739 34.3328 16.7372L33.784 18.3917C33.6006 19.4962 33.0511 21.7027 33.0511 23.3573C33.0511 23.9099 33.0511 25.3805 34.6983 25.3805C38.3594 25.3805 41.1048 22.6214 42.5699 20.9674C44.4004 18.3917 46.0476 16.0012 46.2309 13.7947C46.597 12.1395 46.597 10.8523 46.597 9.9324C46.6001 6.80476 46.0507 4.59762 44.2201 2.94243Z" fill="white" fill-opacity="0.6"/>
<path fill-rule="evenodd" clip-rule="evenodd" d="M0.835938 8.82733V10.6665C1.20204 10.6665 1.3854 10.6665 1.93426 10.8505C2.117 10.8505 2.48372 11.2184 2.66647 11.4024C2.66647 11.7704 2.84921 11.7704 2.84921 11.9544V22.4368C2.84921 22.6202 2.66647 22.9882 2.66647 23.1721C2.48372 23.1721 2.117 23.3555 1.93426 23.7235H0.835938V25.5632H12.7347C13.6496 25.5632 14.3819 25.3786 15.1141 25.0107C15.8463 24.8273 16.5785 24.0908 16.944 23.7228C17.4934 22.9875 17.8596 21.8837 17.8596 20.7804C17.8596 20.0451 17.8596 19.4938 17.4934 18.9412C17.3107 18.2059 16.7612 17.838 16.2124 17.2854C15.8463 16.5501 14.9307 15.9982 13.833 15.9982C12.7347 15.6308 11.0875 15.2629 9.43974 15.2629H7.2431V12.1365C7.2431 11.9525 7.2431 11.7685 7.60921 11.4012L7.79195 11.2172C7.97531 10.8492 8.34142 10.8492 8.70752 10.8492H9.25637C10.7208 10.8492 12.1852 11.2172 12.7347 11.9525C13.6496 12.3205 14.3819 13.4237 15.1141 14.711L16.7612 13.7917L14.9307 8.8261H0.835938V8.82733ZM7.2431 17.8386H9.25637C10.3547 17.8386 11.453 18.022 12.0019 18.2066C12.7347 18.7591 12.9168 19.4944 12.9168 20.4131C12.9168 21.1484 12.7341 21.7009 12.368 22.4362C12.1852 22.6196 11.6358 22.9875 11.0869 23.1715C10.7208 23.3549 10.1713 23.3549 9.43974 23.3549C8.70752 23.3549 8.52478 23.3549 7.97531 23.1715C7.6092 23.1715 7.2431 22.619 7.2431 22.2516V17.8386ZM48.4285 18.022H51.7234C52.2723 18.2066 52.6384 18.3899 53.0045 18.7585C53.1872 19.3098 53.3706 19.6772 53.3706 20.4131C53.3706 21.333 53.1872 22.2522 52.455 22.6196C52.0889 23.3549 50.9906 23.7228 49.7095 23.9074C49.1607 23.9074 48.6112 23.7228 48.0624 23.7228C47.8796 23.3549 47.6963 23.3549 47.3302 23.1715C47.1468 22.9869 46.964 22.619 46.964 22.4362C46.5979 22.2516 46.5979 21.8837 46.5979 21.7009C46.5979 21.7009 46.5979 21.333 46.964 21.1484V20.4131C46.964 20.0457 46.5979 19.6778 46.4152 19.3098C46.2318 18.7585 45.4996 18.3899 44.7674 18.3899C44.0352 18.3899 43.4863 18.9425 43.1202 19.4944C42.7541 19.6778 42.5714 20.4131 42.5714 21.149C42.5714 22.4368 43.3036 23.7235 44.4019 24.6434C45.683 25.5632 47.8796 26.1146 50.4424 26.1146C53.3712 26.1146 55.3845 25.5632 56.6662 24.2754C57.7645 23.3555 58.3133 22.2522 58.3133 20.781C58.3133 19.6778 58.1306 18.7591 57.3984 18.022C56.6662 17.1033 55.5678 16.7353 54.2868 16.5507H54.4695C55.3845 16.3674 56.1167 15.8154 56.8489 15.2641C57.5817 14.7122 57.7639 13.7929 57.7639 12.873C57.7639 11.7691 57.3978 10.4819 56.1167 9.74661C55.2017 8.82671 53.3712 8.27539 51.3573 8.27539C50.259 8.27539 49.344 8.45876 48.6118 8.45876C47.8796 8.82671 47.1474 9.01069 46.4152 9.19467L46.2318 8.82671H44.0352L43.4857 13.7923L46.0485 14.1603C46.2312 13.6083 46.4146 12.873 47.1468 11.9531C47.6963 11.7691 48.0617 11.2178 48.6112 10.8499C49.1607 10.6659 49.7095 10.4819 50.2584 10.4819C51.5401 10.6659 52.2717 10.8499 52.6378 11.4012C53.0039 11.7691 53.1872 11.9531 53.1872 12.1365C53.1872 12.3198 53.3706 12.6884 53.3706 12.8724C53.1872 13.6077 53.1872 14.1596 53.0045 14.3436C52.455 14.8955 52.2723 15.0789 51.7234 15.0789C51.3573 15.2629 50.8078 15.6308 50.259 15.6308H48.4278L48.4285 18.022Z" fill="white"/>
<path fill-rule="evenodd" clip-rule="evenodd" d="M52.8572 2.80994H53.3832V6.76735H52.8572V3.56191L50.7933 6.76735H50.2734V2.80994H50.7933V5.99253L52.8572 2.80994ZM60.1571 6.76735H59.6372V2.80994H60.1571V4.46082H62.108V2.80994H62.6278V6.76735H62.108V4.90718H60.1571V6.76735ZM70.6173 6.32098H70.3969C70.3031 6.32098 70.187 6.31295 70.0518 6.29814C69.9092 6.28167 69.7688 6.24958 69.6332 6.20244C69.385 6.11539 69.1572 5.9629 68.9516 5.74435C68.746 5.52579 68.6429 5.19426 68.6429 4.74913C68.6429 4.3003 68.7479 3.96629 68.9578 3.74589C69.1665 3.52549 69.398 3.37546 69.6499 3.29644C69.79 3.25137 69.9234 3.22112 70.0536 3.2063C70.1839 3.19148 70.2981 3.18346 70.3963 3.18346H70.6167V2.58398H71.1365V3.18346H71.3514C71.4489 3.18346 71.5638 3.19025 71.694 3.20321C71.8243 3.21618 71.957 3.2452 72.0922 3.29088C72.3454 3.36991 72.5781 3.51931 72.7905 3.73786C73.0041 3.95642 73.1103 4.2935 73.1103 4.74975C73.1103 5.17574 73.0152 5.49678 72.822 5.7141C72.63 5.9308 72.4194 6.08453 72.1892 6.17466C72.0329 6.23534 71.8697 6.2762 71.7033 6.29629C71.5489 6.31296 71.4323 6.3216 71.3526 6.3216H71.1378V6.9149H70.6179L70.6173 6.32098ZM70.6173 3.60143H70.4704C70.0666 3.60143 69.7771 3.67428 69.6023 3.81936C69.4276 3.96444 69.3128 4.12373 69.2597 4.2966C69.2354 4.37491 69.2185 4.45531 69.2091 4.53676C69.1952 4.6757 69.1944 4.81562 69.2066 4.95472C69.2128 5.02819 69.2257 5.10474 69.2486 5.18377C69.3017 5.36466 69.4159 5.5295 69.5912 5.67829C69.7666 5.82708 70.0592 5.90178 70.4704 5.90178H70.6173V3.60143ZM71.2841 5.9024C71.3551 5.9024 71.4347 5.8987 71.5218 5.89067C71.6131 5.88264 71.7038 5.86756 71.7928 5.8456C71.9848 5.79312 72.1608 5.68755 72.3188 5.52888C72.4769 5.37021 72.5565 5.1103 72.5565 4.74851C72.5565 4.39043 72.4756 4.13237 72.3151 3.97432C72.1698 3.82456 71.9878 3.71539 71.7873 3.65761C71.6971 3.63476 71.6088 3.61995 71.5218 3.61254C71.4347 3.60513 71.3551 3.60081 71.2841 3.60081H71.1371V5.90178L71.2841 5.9024ZM80.7547 6.88588C80.1589 6.88218 79.702 6.69203 79.3835 6.31542C79.0649 5.93821 78.9062 5.42948 78.9062 4.78926C78.9062 4.03915 79.0933 3.50203 79.4656 3.1779C79.8198 2.86096 80.2794 2.68749 80.7547 2.69141C81.2492 2.69141 81.6795 2.85378 82.0499 3.1779C82.4191 3.50203 82.6031 4.03915 82.6031 4.78926C82.6031 5.43319 82.4438 5.94314 82.1259 6.31851C81.8079 6.69388 81.3505 6.88094 80.7547 6.88094V6.88588ZM80.7547 6.43952C81.2035 6.43952 81.5313 6.28517 81.7388 5.97649C81.9462 5.6678 82.0499 5.27144 82.0499 4.78926C82.0499 4.33302 81.9777 3.99099 81.8339 3.76318C81.6919 3.53536 81.5326 3.37608 81.3597 3.28533C81.2522 3.22597 81.1356 3.18487 81.0146 3.1637C80.9285 3.1491 80.8414 3.14065 80.7541 3.13839C80.6936 3.13839 80.63 3.1421 80.5621 3.1495C80.4927 3.15721 80.4244 3.17253 80.3583 3.19519C80.1318 3.2594 79.9255 3.4088 79.7397 3.64464C79.5526 3.88048 79.4588 4.26202 79.4588 4.78926C79.4588 4.8794 79.465 4.98497 79.4767 5.10598C79.4878 5.22637 79.5107 5.35046 79.544 5.47887C79.6082 5.72027 79.7311 5.94068 79.912 6.14009C80.0941 6.3395 80.3738 6.43952 80.7547 6.43952Z" fill="white"/>
</svg>
