<svg width="101" height="44" viewBox="0 0 101 44" fill="none" xmlns="http://www.w3.org/2000/svg">
<path fill-rule="evenodd" clip-rule="evenodd" d="M49.9965 41.7461C27.9455 44.9095 8.77048 38.6779 7.20458 27.7808C5.63867 16.9147 22.257 5.53766 44.308 2.34165C63.483 -0.406574 80.4528 3.90755 85.5978 12.2164C80.6443 2.821 61.7887 -2.16455 40.4091 0.903605C16.4727 4.35479 -1.58419 16.5948 0.110128 28.2596C1.77179 39.8924 22.5448 46.5396 46.4812 43.0878C56.2286 41.714 64.9847 38.8379 71.8235 35.1625C65.7835 38.1991 58.2733 40.5306 49.9965 41.7461ZM83.5525 29.9213C82.7538 29.9213 82.2423 29.3462 82.2423 28.6111C82.2423 27.5572 83.1374 26.7258 84.1276 26.7258C84.9264 26.7258 85.4705 27.3009 85.4705 28.036C85.4699 29.0583 84.5439 29.9213 83.5525 29.9213Z" fill="#D9D9D9"/>
<path fill-rule="evenodd" clip-rule="evenodd" d="M32.8645 30.2096H30.1478L30.3715 28.8358C29.9879 29.3794 28.7734 30.4659 27.2396 30.4659C25.418 30.4659 24.523 29.5709 24.523 28.1007C24.523 27.8456 24.5551 27.5583 24.6187 27.2704L25.7374 20.91H28.4541L27.4633 26.4075C27.3996 26.6953 27.3996 26.95 27.3996 27.1741C27.3996 28.197 27.8148 28.8358 28.6777 28.8358C29.7963 28.8358 30.4993 28.1007 30.8508 26.2475L31.7774 20.91H34.4941L32.8645 30.2096ZM41.2376 23.2757H40.6946C40.7267 22.3807 39.9595 21.645 39.1281 21.645C38.17 21.645 37.4344 22.2207 37.4344 22.9558C37.4344 23.6587 38.2973 23.946 39.1923 24.2986C40.2468 24.6811 41.3333 25.2562 41.3333 26.759C41.3333 28.8042 39.639 30.4659 36.955 30.4659C36.0921 30.4659 34.814 30.2096 34.2704 29.6982L34.9098 27.845H35.3891C35.5812 28.8037 36.3162 29.474 37.4028 29.474C38.5215 29.474 39.1602 28.6753 39.1602 28.1323C39.1602 27.5572 38.6172 27.2372 37.9143 26.9494C36.7956 26.438 35.3576 25.9592 35.3576 24.2975C35.3576 22.3159 37.0513 20.6537 39.2886 20.6537C40.4389 20.6537 41.4618 20.9736 42.0053 21.5487L41.2376 23.2757ZM45.4244 19.4398C44.6572 19.4398 44.1142 18.8642 44.1142 18.1296C44.1142 17.1388 45.0408 16.308 45.968 16.308C46.7346 16.308 47.2781 16.851 47.2781 17.5866C47.2776 18.5769 46.3831 19.4398 45.4244 19.4398ZM44.8808 30.2096H42.1642L43.7937 20.91H46.5104L44.8808 30.2096ZM56.1942 24.5532L55.1713 30.2096H52.4546L53.4133 24.9374C53.446 24.5538 53.477 24.1696 53.477 23.8508C53.477 22.9231 53.1255 22.317 52.2316 22.317C51.0487 22.317 50.3136 23.5309 50.0895 24.9374L49.1308 30.2096H46.4141L48.0758 20.91H50.7919L50.5367 22.348C50.8561 21.8365 52.1347 20.6542 53.829 20.6542C55.6496 20.6542 56.321 21.5493 56.321 23.1152C56.3215 23.5309 56.2579 24.0097 56.1942 24.5532ZM63.577 23.2104C63.577 23.6266 63.4807 24.1054 63.4171 24.5532H60.4768C60.7646 23.0194 61.4355 21.5493 62.5862 21.5493C63.3208 21.5493 63.577 22.2843 63.577 23.2104ZM66.1337 23.9145C66.1337 21.8692 65.2697 20.6542 62.7457 20.6542C59.4539 20.6542 57.2808 23.2104 57.2808 26.5664C57.2808 28.8995 58.56 30.4975 61.3718 30.4975C62.522 30.4975 63.3208 30.2096 64.4073 29.6345L65.0461 28.5159L64.8546 28.3243C64.2158 28.8042 63.1929 29.2194 62.33 29.2194C60.9871 29.2194 60.1568 28.5159 60.1568 26.8863C60.1568 26.5027 60.2205 26.0876 60.2842 25.6398H65.9727C66.069 25.001 66.1337 24.4259 66.1337 23.9145ZM73.3555 23.2757H72.8131C72.8131 22.3807 72.078 21.645 71.2466 21.645C70.2879 21.645 69.5523 22.2207 69.5523 22.9558C69.5523 23.6587 70.4163 23.946 71.3103 24.2986C72.3332 24.6811 73.4518 25.2562 73.4518 26.759C73.4518 28.8042 71.7575 30.4659 69.0735 30.4659C68.1784 30.4659 66.933 30.2096 66.3889 29.6982L66.9967 27.845H67.5081C67.6996 28.8037 68.4347 29.474 69.4886 29.474C70.6399 29.474 71.2787 28.6753 71.2787 28.1323C71.2787 27.5572 70.7036 27.2372 70.0322 26.9494C68.9135 26.438 67.4439 25.9592 67.4439 24.2975C67.4439 22.3159 69.1371 20.6537 71.406 20.6537C72.5562 20.6537 73.5791 20.9736 74.1227 21.5487L73.3555 23.2757ZM81.0893 23.2757H80.5468C80.5784 22.3807 79.8433 21.645 78.9804 21.645C78.0538 21.645 77.286 22.2207 77.286 22.9558C77.286 23.6587 78.149 23.946 79.044 24.2986C80.099 24.6811 81.1856 25.2562 81.1856 26.759C81.1856 28.8042 79.4913 30.4659 76.8073 30.4659C75.9443 30.4659 74.6657 30.2096 74.1227 29.6982L74.7614 27.845H75.2402C75.4329 28.8037 76.1679 29.474 77.2545 29.474C78.4047 29.474 79.0125 28.6753 79.0125 28.1323C79.0125 27.5572 78.4689 27.2372 77.7659 26.9494C76.6473 26.438 75.2092 25.9592 75.2092 24.2975C75.2092 22.3159 76.9036 20.6537 79.1403 20.6537C80.2905 20.6537 81.3134 20.9736 81.8886 21.5487L81.0893 23.2757ZM90.0375 19.4398C89.2387 19.4398 88.7273 18.8642 88.7273 18.1296C88.7273 17.1388 89.6223 16.308 90.5489 16.308C91.3476 16.308 91.8591 16.851 91.8591 17.5866C91.8591 18.5769 90.9641 19.4398 90.0375 19.4398ZM89.4623 30.2096H86.7778L88.4068 20.91H91.1235L89.4623 30.2096ZM97.8354 23.2104C97.8354 23.6266 97.7718 24.1054 97.7081 24.5532H94.7678C95.0557 23.0194 95.6944 21.5493 96.8773 21.5493C97.6118 21.5493 97.8354 22.2843 97.8354 23.2104ZM100.424 23.9145C100.424 21.8692 99.5607 20.6542 97.0367 20.6542C93.7449 20.6542 91.5718 23.2104 91.5718 26.5664C91.5718 28.8995 92.8183 30.4975 95.6629 30.4975C96.781 30.4975 97.6118 30.2096 98.6984 29.6345L99.3371 28.5159L99.1456 28.3243C98.5068 28.8042 97.4839 29.2194 96.621 29.2194C95.2782 29.2194 94.4479 28.5159 94.4479 26.8863C94.4479 26.5027 94.4794 26.0876 94.5752 25.6398H100.232C100.36 25.001 100.424 24.4259 100.424 23.9145ZM20.6567 20.6542C19.3465 20.6542 18.292 21.3251 17.7164 22.2528L18.8992 15.4451H16.1826L13.5938 30.2096H16.3099L16.4056 29.7945C16.885 30.2096 17.5564 30.4659 18.3872 30.4659C21.8705 30.4659 23.7879 27.0778 23.7879 24.1381C23.8206 21.9965 22.6382 20.6542 20.6567 20.6542ZM18.1642 29.5709C17.2055 29.5709 16.9176 28.7079 16.9176 27.6219C16.9176 25.2567 17.7164 21.9334 19.6343 21.9334C20.593 21.9334 20.9129 22.7321 20.9445 23.7877C20.9445 26.0876 19.8895 29.5709 18.1642 29.5709Z" fill="#3D3D3D"/>
</svg>
