<svg width="138" height="20" viewBox="0 0 138 20" fill="none" xmlns="http://www.w3.org/2000/svg">
<g clip-path="url(#clip0_3_10463)">
<path d="M22.5207 0.322166L18.3638 0.322166C18.3638 0.322166 17.7292 0.322166 17.4118 1.24239L12.3348 13.9034L10.526 9.17535L10.4626 9.11188L9.16157 5.74831V5.71658C8.52694 4.19345 7.92403 3.0511 7.2894 2.353C6.65476 1.55971 5.86146 0.988535 4.97297 0.607753C3.95756 0.163507 2.94214 -0.0903476 1.89499 0.0365797C1.48247 0.0365797 1.03823 0.100043 0.530518 0.195239C0.244931 0.322166 0.371858 0.671216 0.371858 0.671216L1.10169 3.49535C1.26035 3.93959 1.5142 4.06652 1.54594 4.06652C1.83152 4.12999 2.18057 4.22518 2.4027 4.35211C2.81521 4.51077 3.13253 4.85982 3.41811 5.27233C3.7037 5.71658 4.08448 6.50987 4.62392 7.65222L4.68739 7.77915H4.62392L5.76627 10.5081L9.41543 18.8536C9.47889 19.0122 9.70102 19.2978 10.0818 19.2978H14.3339C14.8416 19.2978 15.032 18.8536 15.0637 18.7901L22.7745 0.893339C23.0284 0.322166 22.5207 0.322166 22.5207 0.322166ZM31.8181 0.195239C28.867 0.195239 26.4872 1.052 24.6784 2.79725C22.9332 4.5425 22.013 6.85892 22.013 9.74652C22.013 12.6024 22.9332 14.9188 24.6784 16.6641C26.4872 18.4093 28.867 19.2661 31.8181 19.2661C34.8326 19.2661 37.2125 18.4093 38.9578 16.6641C40.7665 14.9188 41.6232 12.6658 41.6232 9.74652C41.6232 6.85892 40.7665 4.51077 38.9578 2.79725C37.1808 1.052 34.8326 0.195239 31.8181 0.195239ZM35.2451 13.8399C34.4201 14.8236 33.2778 15.3631 31.8181 15.3631C30.295 15.3631 29.2161 14.8553 28.3911 13.8399C27.5343 12.8562 27.1218 11.5235 27.1218 9.77825C27.1218 8.033 27.5978 6.6368 28.3911 5.65311C29.2161 4.66943 30.3584 4.19345 31.8181 4.19345C33.2778 4.19345 34.4201 4.66943 35.2451 5.65311C36.1019 6.6368 36.5144 7.96954 36.5144 9.77825C36.5461 11.5235 36.0702 12.8562 35.2451 13.8399ZM67.326 2.79725C65.5173 1.052 63.2009 0.195239 60.1864 0.195239C57.2353 0.195239 54.8554 1.052 53.0467 2.79725C51.3014 4.5425 50.3812 6.85892 50.3812 9.74652C50.3812 12.6024 51.3014 14.9188 53.0467 16.6641C54.8554 18.4093 57.2353 19.2661 60.1864 19.2661C63.2009 19.2661 65.5808 18.4093 67.326 16.6641C69.1347 14.9188 69.9915 12.6658 69.9915 9.74652C69.9915 6.89065 69.1347 4.5425 67.326 2.79725ZM63.6134 13.8399C62.7884 14.8236 61.646 15.3631 60.1864 15.3631C58.6632 15.3631 57.5844 14.8553 56.7593 13.8399C55.9026 12.8562 55.49 11.5235 55.49 9.77825C55.49 8.033 55.966 6.6368 56.7593 5.65311C57.5844 4.66943 58.7267 4.19345 60.1864 4.19345C61.646 4.19345 62.7884 4.66943 63.6134 5.65311C64.4702 6.6368 64.8827 7.96954 64.8827 9.77825C64.8827 11.5235 64.4067 12.8562 63.6134 13.8399ZM49.5879 15.9025V15.839C49.3658 15.7121 49.1437 15.49 48.9533 15.3313C48.6677 14.9823 48.509 14.6015 48.3821 14.0938C48.2552 13.6495 48.2235 12.7928 48.2235 11.6504V0.702948C48.2235 0.480825 48.0331 0.290434 47.8109 0.290434L44.0349 0.290434C43.8127 0.290434 43.6223 0.480825 43.6223 0.702948L43.781 7.90607V9.11188L43.7175 11.6187C43.7175 13.3322 43.8762 14.6332 44.1618 15.5217C44.4474 16.4419 44.9551 17.267 45.6532 18.0285C46.4465 18.8218 47.3032 19.4565 48.2552 19.742C48.6042 19.869 48.9216 19.9642 49.3975 20.0276C49.5562 20.0911 49.9052 20.0911 49.9052 19.6151V16.4419C49.937 16.4102 49.8735 16.1246 49.5879 15.9025Z" fill="white"/>
<path d="M91.4123 0.257787C94.0777 0.257787 95.9817 2.00304 95.9817 4.47812C95.9817 6.98493 94.046 8.76192 91.4123 8.76192H87.9852V0.257787L91.4123 0.257787ZM91.4123 6.85801C92.7767 6.85801 93.8556 5.84259 93.8556 4.47812C93.8556 3.17711 92.8085 2.1617 91.4123 2.1617H90.1113V6.85801H91.4123ZM99.2818 8.76192H97.1875V0.257787L99.2818 0.257787V8.76192ZM109.436 8.76192H107.849L107.754 7.7465C107.151 8.50806 106.263 8.95231 105.057 8.95231C102.391 8.95231 100.551 7.0484 100.551 4.63678C100.551 2.00304 102.487 0.130859 105.089 0.130859C107.151 0.130859 108.96 1.30494 109.309 3.33577H107.088C106.707 2.35209 105.85 2.0665 105.089 2.0665C103.629 2.0665 102.645 3.08192 102.645 4.57332C102.645 5.90605 103.597 6.98493 105.12 6.98493C106.104 6.98493 106.866 6.50896 107.278 5.68393L104.835 5.6522V4.00214H109.372V8.76192H109.436ZM113.244 8.76192H111.149V0.257787H113.244V8.76192ZM118.987 2.1617V8.76192H116.893V2.1617H114.196V0.257787L121.716 0.257787V2.12996H118.987V2.1617ZM123.557 7.30225L122.985 8.76192H120.732L124.35 0.226055L126.349 0.226055L129.935 8.76192H127.713L127.142 7.30225H123.557ZM125.365 2.66941L124.255 5.49354H126.444L125.365 2.66941ZM137.17 8.76192H130.855V0.257787L132.981 0.257787V6.88974H137.17V8.76192ZM90.0161 17.8689L89.5084 19.2334H87.4141L90.7776 11.3005H92.6498L95.9817 19.2017H93.9191L93.3797 17.8372H90.0161V17.8689ZM91.6979 13.5852L90.6824 16.1872H92.7133L91.6979 13.5852ZM104.2 19.2334H102.741L102.645 18.2815C102.074 18.9796 101.249 19.3921 100.17 19.3921C97.6952 19.3921 95.9817 17.6468 95.9817 15.3939C95.9817 12.9505 97.7904 11.2053 100.202 11.2053C102.106 11.2053 103.788 12.2841 104.137 14.1563H102.074C101.725 13.2361 100.932 12.9822 100.234 12.9822C98.901 12.9822 97.9808 13.9342 97.9808 15.3304C97.9808 16.5679 98.8693 17.5834 100.265 17.5834C101.186 17.5834 101.884 17.1391 102.265 16.3776L100.012 16.3458V14.791H104.232V19.2334H104.2ZM107.691 14.5054H111.181V16.1554H107.691V17.5199H111.689V19.2334H105.755V11.3639H111.689V13.0774H107.691V14.5054ZM120.034 19.2334H118.511L114.767 14.9179V19.2334H112.8V11.3639H114.291L118.099 15.8064V11.3639H120.066V19.2334H120.034ZM127.333 15.965H129.332C129.078 17.9959 127.523 19.3921 125.397 19.3921C123.017 19.3921 121.24 17.6786 121.24 15.2987C121.24 12.9188 123.049 11.2053 125.397 11.2053C127.555 11.2053 129.11 12.6015 129.332 14.6323H127.333C127.111 13.6486 126.412 13.0457 125.365 13.0457C124.096 13.0457 123.176 13.9977 123.176 15.2987C123.176 16.5997 124.064 17.5516 125.365 17.5516C126.444 17.5516 127.111 16.9487 127.333 15.965ZM134.219 16.8535V19.2334H132.251V16.8535L129.141 11.3639H131.299L133.235 14.791L135.17 11.3639H137.328L134.219 16.8535Z" fill="white"/>
<path d="M78.9141 0.00561523L79.2631 0.00561523V19.0447H78.9141V0.00561523Z" fill="white"/>
<path d="M69.1399 0.734298V2.06703H68.6957V0.734298H68.1562V0.353516L69.6794 0.353516V0.734298H69.1399ZM71.7737 2.06703H71.3294V1.21027L70.9487 1.81318H70.6948L70.314 1.21027V2.06703H69.8698V0.353516H70.1871L70.79 1.27374L71.3929 0.353516H71.7102V2.06703H71.7737Z" fill="white"/>
</g>
<defs>
<clipPath id="clip0_3_10463">
<rect width="136.986" height="20" fill="white" transform="translate(0.34375)"/>
</clipPath>
</defs>
</svg>
