<svg width="132" height="48" viewBox="0 0 132 48" fill="none" xmlns="http://www.w3.org/2000/svg">
<path fill-rule="evenodd" clip-rule="evenodd" d="M75.3203 29.5651H76.295L76.92 27.339C77.3381 27.8948 78.103 28.0346 78.8685 28.0346C80.3284 28.0346 81.928 27.1306 82.2762 25.7393C82.6237 24.278 81.6512 23.3733 80.1207 23.3733C79.2859 23.3733 78.3819 23.6516 77.7555 24.1389C77.8247 23.8606 77.8247 23.7208 77.8946 23.5125H76.92C76.8508 23.8606 76.7808 24.2081 76.6424 24.4857L75.3203 29.5651ZM77.3381 25.7393C77.6156 24.6255 78.5896 23.9298 79.7726 23.9298C80.8849 23.9298 81.5114 24.6255 81.2324 25.7393C80.9548 26.8516 79.9809 27.4781 78.7979 27.4781C77.6863 27.4781 77.0591 26.8516 77.3381 25.7393ZM83.6683 27.8948H84.6415L86.3111 21.6345H85.4078L83.6683 27.8948ZM88.8854 24.6962C89.0937 24.2088 89.7202 23.9306 90.4158 23.9306C91.3905 23.9306 91.8771 24.2096 91.6687 25.0444V25.1835H89.9285C88.1897 25.2527 87.2151 25.7393 87.0067 26.6433C86.7984 27.4781 87.494 28.0346 88.7455 28.0346C89.7202 28.0346 90.3466 27.9654 91.1108 27.2698C91.1108 27.4781 91.0416 27.6864 91.0416 27.8948H91.9456C91.9456 27.6864 92.0162 27.4089 92.0847 27.0614L92.7112 24.9045C92.9887 23.7907 92.0847 23.3733 90.6934 23.3733C89.6502 23.3733 88.2589 23.6516 87.9114 24.6954L88.8854 24.6962ZM91.459 25.9476C91.1814 26.9908 90.3466 27.4781 89.1636 27.4781C88.189 27.4781 87.9122 27.0614 88.0499 26.6433C88.189 25.9476 88.8846 25.8085 89.9278 25.8085C90.6934 25.7393 91.1807 25.7393 91.4582 25.7393V25.9476H91.459ZM94.1032 27.8948H95.0779L95.6337 25.8078C95.9811 24.4165 97.1641 23.9298 98.0681 23.9298C99.0428 23.9298 99.5294 24.4857 99.2511 25.4603L98.6246 27.8948H99.5993L100.226 25.3911C100.642 24.069 99.8076 23.3733 98.4163 23.3733C97.5123 23.3733 96.7467 23.6516 95.9819 24.2773C96.0511 23.9991 96.0511 23.7208 96.121 23.5125H95.2155C95.1463 23.8606 95.0778 24.2081 95.0072 24.4857L94.1032 27.8948ZM101.894 27.8948H102.869L103.424 25.8078C103.772 24.4165 104.955 23.9298 105.86 23.9298C106.833 23.9298 107.32 24.4857 107.043 25.4603L106.417 27.8948H107.391L108.016 25.3911C108.435 24.069 107.6 23.3733 106.208 23.3733C105.303 23.3733 104.539 23.6516 103.773 24.2773C103.843 23.9991 103.912 23.7208 103.912 23.5125H103.008C102.945 23.8384 102.876 24.1628 102.799 24.4857L101.894 27.8948ZM109.755 27.8948H110.729L111.912 23.5125H110.938L109.755 27.8948ZM111.216 22.4693H112.19L112.399 21.6345H111.424L111.216 22.4693ZM113.094 27.8948H114.069L114.625 25.8078C114.972 24.4165 116.155 23.9298 117.059 23.9298C117.965 23.9298 118.521 24.4857 118.242 25.4603L117.616 27.8948H118.591L119.217 25.3911C119.634 24.069 118.799 23.3733 117.408 23.3733C116.504 23.3733 115.738 23.6516 114.973 24.2773C115.042 23.9991 115.042 23.7208 115.112 23.5125H114.208C114.138 23.8606 114.069 24.2081 113.998 24.4857L113.094 27.8948ZM120.608 28.1737C120.399 29.2169 120.955 29.7042 122.903 29.7042C124.921 29.7042 126.103 29.0778 126.59 27.2698L127.355 24.348C127.426 23.9998 127.494 23.7907 127.634 23.5125H126.73C126.591 23.7208 126.522 23.9298 126.522 24.1389C126.034 23.5824 125.479 23.3733 124.573 23.3733C122.904 23.3733 121.512 24.2773 121.096 25.5994C120.748 26.9216 121.721 27.8256 123.391 27.8256C124.196 27.8161 124.976 27.548 125.617 27.0607H125.688L125.549 27.3382C125.27 28.3814 124.714 29.077 122.975 29.077C121.861 29.077 121.514 28.6604 121.653 28.173L120.608 28.1737ZM122.138 25.6002C122.417 24.6255 123.25 23.9306 124.503 23.9306C125.825 23.9306 126.311 24.6262 126.034 25.6002C125.755 26.5748 124.92 27.1998 123.668 27.1998C122.346 27.1991 121.859 26.5741 122.138 25.6002Z" fill="white"/>
<path fill-rule="evenodd" clip-rule="evenodd" d="M7.00576 48L47.2843 0L61.2667 0C69.5447 0 76.7104 5.42617 76.7104 14.6089C76.7104 23.8616 69.5455 29.7044 61.4058 29.7044H37.4758L43.3186 22.4695H61.4058C66.0672 22.4695 69.5455 19.4778 69.4763 14.6082C69.4056 7.02583 61.4058 7.23417 61.4058 7.23417H50.6234L16.3968 48H7.00576ZM23.2843 22.4695L17.3715 29.7044H15.2845C6.51916 29.7044 0.328125 24.2783 0.328125 15.0955C0.328125 5.84357 7.42388 0 15.632 0L41.928 0L36.0153 7.23489L15.632 7.23489C10.9714 7.23489 7.42316 10.2266 7.56229 15.0955C7.63222 22.6786 15.632 22.4695 15.632 22.4695H23.2843Z" fill="white" fill-opacity="0.32"/>
<path fill-rule="evenodd" clip-rule="evenodd" d="M37.0614 36.0333H38.2436L38.8694 32.9724H40.3306L40.5397 32.2082H36.4349L36.2266 32.9724H37.7563L37.0614 36.0333ZM41.5129 34.0861C41.652 33.4597 42.0694 32.9032 42.9042 32.9032C43.7397 32.9032 43.9481 33.459 43.7397 34.0861C43.6006 34.7818 43.2524 35.3376 42.3484 35.3376C41.5129 35.3376 41.3745 34.7818 41.5129 34.0861ZM40.3306 34.0861C40.0523 35.2691 40.6089 36.1731 42.2085 36.1731C43.8089 36.1731 44.7129 35.2691 44.922 34.0861C45.2002 32.9724 44.7129 32.0684 43.0441 32.0684C41.4437 32.0684 40.6089 32.9724 40.3306 34.0861ZM47.3564 34.7818C47.2173 35.4775 47.2872 36.1731 48.8869 36.1731C49.7217 36.1731 50.904 35.9648 51.113 34.851C51.2521 34.0861 50.7655 33.8764 50.0692 33.7387L49.5826 33.5995C49.1652 33.5289 48.8177 33.4604 48.8869 33.1814C48.9561 32.9731 49.1652 32.834 49.6525 32.834C50 32.834 50.3481 32.9046 50.2789 33.2521H51.392C51.4612 32.4865 51.1829 32.0691 49.7916 32.0691C48.8876 32.0691 47.9137 32.4166 47.7046 33.3912C47.5655 34.0869 48.1912 34.3644 48.8177 34.4343L49.3043 34.5735C49.7909 34.6427 50 34.7112 49.93 34.9901C49.93 35.1985 49.7909 35.4068 49.0952 35.4068C48.6079 35.4068 48.3996 35.2691 48.4688 34.7818H47.3564ZM56.6091 32.2082H55.496L55.0786 34.226C54.9395 34.9217 54.5913 35.3383 53.8957 35.3383C53.2699 35.3383 52.9917 35.0593 53.1301 34.3637L53.6174 32.2082H52.4344L51.9478 34.4343C51.7388 35.6858 52.3652 36.1731 53.6866 36.1731C55.0779 36.1731 55.9127 35.6173 56.191 34.2952L56.6091 32.2082ZM61.4088 33.4597C61.6179 32.4166 60.7132 32.0684 59.7392 32.0684C58.3479 32.0684 57.3048 32.6948 57.0265 34.0861C56.679 35.546 57.5131 36.1731 58.6954 36.1731C59.8084 36.1731 60.8523 35.8941 61.1306 34.7119H59.9476C59.8084 35.1992 59.391 35.3383 58.9736 35.3383C58.208 35.3383 57.9997 34.7825 58.1388 34.0869C58.3472 33.3912 58.7646 32.9039 59.5302 32.9039C59.9476 32.9039 60.2258 33.043 60.2258 33.4597H61.4088ZM66.14 33.4597C66.3484 32.4166 65.4437 32.0684 64.4705 32.0684C63.0791 32.0684 62.1052 32.6948 61.757 34.0861C61.4787 35.546 62.2443 36.1731 63.4266 36.1731C64.6089 36.1731 65.5828 35.8941 65.8611 34.7119H64.6788C64.5397 35.1992 64.1223 35.3383 63.7049 35.3383C62.9393 35.3383 62.8009 34.7825 62.9393 34.0869C63.0784 33.3912 63.5657 32.9039 64.2607 32.9039C64.6781 32.9039 65.0263 33.043 64.9563 33.4597H66.14ZM66.3477 36.0333H69.7568L69.8959 35.2691H67.6698L67.8089 34.5028H69.8959L70.1042 33.668H68.0172L68.1571 32.9724H70.3126L70.5224 32.2082H67.1825L66.3477 36.0333ZM70.7307 36.0333H74.1398L74.2789 35.2691H72.0528L72.1927 34.5028H74.2789L74.4166 33.668H72.3304L72.5401 32.9724H74.6956L74.9039 32.2082H71.5655L70.7307 36.0333ZM75.1137 36.0333H77.2007C77.9656 36.0333 78.5214 35.8941 78.9395 35.6166C79.4116 35.2288 79.7317 34.6868 79.8435 34.0861C79.9826 33.3905 79.8435 32.8332 79.4268 32.485C79.0794 32.2767 78.592 32.2075 78.1047 32.2075H75.9492L75.1137 36.0333ZM76.9217 32.9032H77.6174C78.383 32.9032 78.8703 33.1807 78.7312 34.0861C78.4522 35.1293 77.8257 35.2691 76.9217 35.2691H76.3659L76.9217 32.9032ZM82.1396 36.0333H83.2519L84.0874 32.2082H82.9751L82.1396 36.0333ZM84.1573 36.0333H85.1305L85.757 33.2513L86.8693 36.0333H88.3998L89.2346 32.2082H88.1915L87.6349 34.9901L86.4527 32.2082H84.9907L84.1573 36.0333ZM91.3915 36.0333H93.6176C94.8691 36.0333 95.3564 35.4775 95.4956 34.9901C95.5648 34.5028 95.2872 34.0861 94.6608 34.0155C95.2166 33.9463 95.6354 33.5988 95.7039 33.1115C95.7745 32.6242 95.4956 32.2075 94.4524 32.2075H92.1557L91.3915 36.0333ZM92.7828 34.4343H93.826C94.105 34.4343 94.3818 34.5735 94.3133 34.9217C94.2448 35.2698 93.9658 35.3383 93.6176 35.3383H92.643L92.7828 34.4343ZM93.1303 32.9032H93.8952C94.3825 32.9032 94.5923 32.9724 94.5216 33.3198C94.4524 33.5988 94.105 33.738 93.6176 33.738H92.922L93.1303 32.9032ZM101.06 32.2082H99.9478L99.5311 34.226C99.392 34.9217 99.0438 35.3383 98.3481 35.3383C97.7217 35.3383 97.4427 35.0593 97.5825 34.3637L97.9992 32.2082H96.8869L96.3996 34.4343C96.1912 35.6858 96.8177 36.1731 98.1384 36.1731C99.5311 36.1731 100.364 35.6173 100.643 34.2952L101.06 32.2082ZM101.339 34.7818C101.2 35.4775 101.27 36.1731 102.87 36.1731C103.704 36.1731 104.817 35.9648 105.096 34.851C105.235 34.0861 104.679 33.8764 104.053 33.7387L103.565 33.5995C103.149 33.5289 102.8 33.4604 102.87 33.1814C102.87 32.9731 103.149 32.834 103.635 32.834C103.983 32.834 104.26 32.9046 104.26 33.2521H105.303C105.442 32.4865 105.164 32.0691 103.704 32.0691C102.869 32.0691 101.894 32.4166 101.686 33.3912C101.547 34.0869 102.173 34.3644 102.8 34.4343L103.287 34.5735C103.704 34.6427 103.983 34.7112 103.912 34.9901C103.912 35.1985 103.704 35.4068 103.077 35.4068C102.521 35.4068 102.312 35.2691 102.452 34.7818H101.339ZM105.512 36.0333H106.697L107.461 32.2082H106.349L105.512 36.0333ZM107.53 36.0333H108.573L109.131 33.2513L110.314 36.0333H111.774L112.609 32.2082H111.634L111.009 34.9901L109.827 32.2082H108.365L107.53 36.0333ZM112.817 36.0333H116.157L116.365 35.2691H114.07L114.278 34.5028H116.296L116.505 33.668H114.418L114.557 32.9724H116.782L116.921 32.2082H113.583L112.817 36.0333ZM117.2 34.7818C117.061 35.4775 117.13 36.1731 118.731 36.1731C119.565 36.1731 120.748 35.9648 120.957 34.851C121.096 34.0861 120.609 33.8764 119.914 33.7387L119.426 33.5995C119.01 33.5289 118.661 33.4604 118.731 33.1814C118.8 32.9731 119.01 32.834 119.496 32.834C119.843 32.834 120.191 32.9046 120.122 33.2521H121.236C121.305 32.4865 121.026 32.0691 119.635 32.0691C118.731 32.0691 117.757 32.4166 117.548 33.3912C117.409 34.0869 118.035 34.3644 118.661 34.4343L119.147 34.5735C119.565 34.6427 119.843 34.7112 119.774 34.9901C119.774 35.1985 119.635 35.4068 118.939 35.4068C118.383 35.4068 118.243 35.2691 118.314 34.7818H117.2ZM121.583 34.7818C121.373 35.4775 121.513 36.1731 123.114 36.1731C123.947 36.1731 125.061 35.9648 125.34 34.851C125.479 34.0861 124.922 33.8764 124.295 33.7387L123.739 33.5995C123.392 33.5289 123.044 33.4604 123.114 33.1814C123.114 32.9731 123.392 32.834 123.879 32.834C124.227 32.834 124.506 32.9046 124.506 33.2521H125.549C125.688 32.4865 125.41 32.0691 123.948 32.0691C123.114 32.0691 122.14 32.4166 121.931 33.3912C121.792 34.0869 122.419 34.3644 123.044 34.4343L123.531 34.5735C123.948 34.6427 124.227 34.7112 124.158 34.9901C124.158 35.1985 123.948 35.4068 123.323 35.4068C122.767 35.4068 122.557 35.2691 122.696 34.7818H121.583Z" fill="white" fill-opacity="0.32"/>
<path fill-rule="evenodd" clip-rule="evenodd" d="M24.5395 13.3592C24.8178 12.107 24.6787 11.5504 24.1221 10.9939C23.2874 10.2983 21.4786 9.88158 18.7659 9.88158C12.7133 9.88158 10.9745 12.4552 10.5571 14.5422C9.93063 17.3248 11.3919 19.2027 16.8181 19.2027C19.1833 19.2027 21.4094 18.7853 22.8007 17.8114C23.7747 17.1157 24.0529 16.3509 24.2613 15.5853H19.6007C19.3224 16.6984 18.4876 17.2549 17.0963 17.2549C15.3568 17.2549 15.0093 16.0027 15.2876 14.5414C15.6351 13.0809 16.4706 11.828 18.2786 11.828C19.5308 11.828 19.9482 12.3153 19.879 13.3584L24.5395 13.3592ZM39.0785 14.5414C39.6351 11.8979 38.1046 9.88086 32.7484 9.88086C29.9657 9.88086 28.5744 10.2283 27.3921 10.8548C26.0008 11.5504 24.8877 12.8026 24.5395 14.5422C23.983 17.1857 25.5135 19.2027 30.8697 19.2027C33.6524 19.2027 35.6694 18.5763 36.9915 17.6723C38.1046 16.9766 38.8003 15.8628 39.0785 14.5414ZM34.418 14.5414C34.0705 16.3502 32.7484 17.185 31.2871 17.185C29.7567 17.185 28.8527 16.3502 29.2001 14.5414C29.5476 12.7327 30.8697 11.8979 32.3302 11.8979C33.8614 11.8979 34.7654 12.7334 34.418 14.5414ZM38.9394 18.9238H43.5308L44.2264 15.7237H45.6178C47.1482 15.7237 47.3573 15.8628 47.2874 16.9759V18.9238H51.8787V16.002C51.8787 15.0972 51.1131 14.7498 50.07 14.7498V14.6106C51.4613 14.4016 52.5751 13.7066 52.8527 12.5237C53.2701 10.5758 51.5313 10.0892 48.5395 10.0892H40.8181L38.9394 18.9238ZM44.992 11.8979H46.6609C47.774 11.8979 48.4696 12.1762 48.2613 12.9411C48.1221 13.7758 47.2874 13.9849 46.3134 13.9849H44.5746L44.992 11.8979ZM52.5744 18.9238H57.1658L57.7223 16.0712H61.3397C63.6358 16.0712 65.5836 15.3063 66.001 13.1501C66.4876 10.8541 64.8181 10.0892 62.1745 10.0892H54.3831L52.5744 18.9238ZM58.6263 11.9678H60.0176C61.339 11.9678 61.6865 12.316 61.5481 13.0809C61.339 13.9157 60.7133 14.2632 59.0437 14.2632H58.1397L58.6263 11.9678ZM80.331 14.5414C80.8868 11.8979 79.3563 9.88086 74.0008 9.88086C71.2189 9.88086 69.7569 10.2283 68.6446 10.8548C67.1833 11.5504 66.1402 12.8026 65.7913 14.5422C65.2355 17.1857 66.7659 19.2027 72.0529 19.2027C74.9041 19.2027 76.8527 18.5763 78.244 17.6723C79.2871 16.9766 80.0534 15.8628 80.331 14.5414ZM75.6704 14.5414C75.2523 16.3502 74.0008 17.185 72.4703 17.185C71.0091 17.185 70.0359 16.3502 70.4526 14.5414C70.8 12.7327 72.0537 11.8979 73.5841 11.8979C75.1146 11.8979 76.0179 12.7334 75.6704 14.5414ZM80.1911 18.9238H84.7825L85.4089 15.7237H86.8003C88.3999 15.7237 88.5391 15.8628 88.5391 16.9759V18.9238H93.0612L93.1304 16.002C93.1304 15.0972 92.2956 14.7498 91.2525 14.7498L91.3232 14.6106C92.7145 14.4016 93.8268 13.7066 94.1051 12.5237C94.4526 10.5758 92.7138 10.0892 89.7913 10.0892H82.0006L80.1911 18.9238ZM86.2445 11.8979H87.9141C89.0264 11.8979 89.6528 12.1762 89.5137 12.9411C89.3054 13.7758 88.5391 13.9849 87.5666 13.9849H85.8263L86.2445 11.8979Z" fill="white"/>
<path fill-rule="evenodd" clip-rule="evenodd" d="M99.3915 15.5121L101.826 12.4512L102.869 15.5121H99.3915ZM92.2266 18.9205H96.7473L97.8611 17.46H103.496L103.983 18.9205H109.06L105.374 10.0859H99.6691L92.2266 18.9205ZM110.313 18.9205H114.905L116.296 12.2429H119.843L120.33 10.0867H108.573L108.156 12.2429H111.704L110.313 18.9205ZM118.799 18.9205H129.304L129.721 17.1125H123.67L124.017 15.4429H129.583L130 13.5642H124.365L124.713 11.9646H130.696L131.112 10.0867H120.677L118.799 18.9205Z" fill="white"/>
</svg>
