<svg width="101" height="28" viewBox="0 0 101 28" fill="none" xmlns="http://www.w3.org/2000/svg">
<path d="M20.8243 4.64778C21.2734 4.12245 21.5621 3.57305 21.5621 2.99158C21.5621 2.01711 20.7561 1.39955 19.7696 1.39955C18.8513 1.39955 18.0893 1.99305 17.945 2.99158L16.6016 2.66676C16.8582 1.03061 18.1936 0 19.7616 0C21.522 0 22.9216 1.19904 22.9216 2.97955C22.9216 3.95402 22.4724 4.84027 21.8228 5.59017C20.5235 7.102 20.4914 7.15814 19.0879 8.81434H22.9537V10.2019H16.7219V9.60835L20.8243 4.64778Z" fill="white"/>
<path d="M16.7435 17.0039L16.7556 11.9391H27.7434C27.8557 12.6449 27.9118 13.3747 27.9118 14.1006C27.9118 21.764 21.672 27.9998 14.0126 27.9998C6.34919 28.0118 0.109375 21.776 0.109375 14.1126C0.109375 6.44919 6.34919 0.213385 14.0086 0.213385V5.11781C9.04803 5.11781 5.0138 9.15203 5.0138 14.1126C5.0138 19.0732 9.04803 23.1074 14.0086 23.1074C17.9506 23.1074 21.3231 20.5529 22.5342 17.0039M38.1939 13.5071C38.1939 9.84579 38.4184 8.35401 39.024 7.45975C39.7859 6.34091 41.2536 5.72335 43.1705 5.72335C44.8628 5.72335 46.2744 6.2166 47.0243 7.10284C47.5937 7.72843 47.8303 8.60264 47.8303 9.98214V10.8122H44.7264C44.6823 9.24427 44.6382 8.96356 44.4136 8.6267C44.169 8.24574 43.6958 8.00914 43.1264 8.00914C42.5088 8.00914 42.0075 8.27782 41.795 8.68285C41.4822 9.30843 41.39 10.4634 41.39 13.487C41.39 15.9853 41.5023 17.441 41.7028 18.0586C41.8832 18.5719 42.3965 18.8646 43.0823 18.8646C44.2933 18.8646 44.6262 18.2471 44.7304 15.9412H47.8223C47.7982 17.8902 47.6859 18.6842 47.2729 19.4461C46.7034 20.5449 45.1996 21.1585 43.0382 21.1585C40.5198 21.1585 38.9959 20.2281 38.4906 18.4356C38.2941 17.7097 38.1939 15.9493 38.1939 13.5071ZM49.6108 5.95995H54.415C56.7208 5.95995 57.1379 6.04817 57.9439 6.69782C58.6617 7.29132 59.0187 8.26579 59.0187 9.70945C59.0187 10.9205 58.774 11.8509 58.3008 12.4765C57.8958 13.0259 57.4066 13.2625 56.3519 13.495C58.357 13.7397 59.0507 14.682 59.0748 17.2044C59.0748 17.6095 59.1189 18.4356 59.163 19.4662C59.2071 20.184 59.2312 20.3163 59.4076 20.9459H56.1033C55.9669 19.9715 55.9669 19.9474 55.9669 18.1107C55.9669 16.3062 55.8306 15.4119 55.4737 15.0069C55.229 14.7382 54.9604 14.67 54.1623 14.67H52.6625V20.9539H49.6028L49.6108 5.95995ZM53.9217 12.4564C55.3213 12.4564 55.8266 11.8629 55.8266 10.2949C55.8266 9.46483 55.602 8.79513 55.2331 8.47031C54.9644 8.24574 54.7639 8.20163 54.0019 8.20163H52.6465V12.4564H53.9217ZM60.9676 13.4309C60.9676 9.93402 61.124 8.72696 61.7295 7.67229C62.4473 6.38502 63.9351 5.72335 66.0525 5.72335C68.3944 5.72335 69.9824 6.59756 70.6 8.24173C70.9128 9.04777 71.0491 10.6278 71.0491 13.5071C71.0491 16.655 70.8927 18.1428 70.4556 18.997C69.7378 20.4206 68.2059 21.1825 66.0765 21.1825C63.9471 21.1825 62.4794 20.5329 61.7416 19.2336C61.136 18.1909 60.9676 16.9478 60.9676 13.4309ZM66.0084 18.8727C66.9387 18.8727 67.4881 18.4235 67.6766 17.5413C67.7889 16.9718 67.8771 15.0229 67.8771 12.9256C67.8771 10.6759 67.7648 9.35254 67.5402 8.81518C67.3397 8.32193 66.7542 8.00914 66.0164 8.00914C65.1662 8.00914 64.5727 8.3901 64.4043 9.03975C64.2479 9.66534 64.1597 11.2253 64.1597 13.6113C64.1597 15.5924 64.2279 16.8916 64.3401 17.5212C64.5086 18.4235 65.0539 18.8727 66.0084 18.8727ZM72.0557 5.95995H75.1796L76.1982 11.4258C76.5551 13.4068 76.6473 15.2114 76.8158 18.6601C77.4413 14.0685 77.6459 12.7893 77.9346 11.4258L79.1216 5.95995H82.6265L83.7453 11.4258C84.2586 13.9241 84.3709 15.6164 84.5313 18.6601C84.7318 16.1177 84.9363 14.257 85.4256 11.4258L86.4 5.95995H89.143L86.1193 20.9579H82.7267L81.3111 13.9883C81.0665 12.7772 80.7617 9.94605 80.6936 8.41015C80.2444 11.7827 80.2244 12.2639 79.8635 13.9883L78.4078 20.9539H74.935L72.0557 5.95995ZM90.4824 5.95995H94.673C97.1032 5.95995 97.845 6.09629 98.603 6.63365C99.5534 7.32741 100.027 8.53848 100.227 10.9125C100.295 11.8429 100.339 13.0299 100.339 14.0845C100.339 16.7834 100.151 18.1067 99.7138 18.989C99.0882 20.2562 97.6405 20.97 95.7838 20.97H90.4984L90.4824 5.95995ZM94.9537 18.592C96.0284 18.592 96.6219 18.3473 96.8345 17.7859C97.059 17.1924 97.1272 16.3302 97.1272 13.876C97.1272 11.1972 97.039 10.0222 96.7904 9.28437C96.5658 8.65878 95.9603 8.3099 95.0299 8.3099H93.6304V18.592H94.9537ZM33.6464 0.0529785L32.6478 0.0529785V27.7311H33.6464V0.0529785Z" fill="white"/>
</svg>
