<svg width="158" height="20" viewBox="0 0 158 20" fill="none" xmlns="http://www.w3.org/2000/svg">
<path d="M123.431 0.00814004C119.661 -0.118039 115.586 2.05104 113.654 6.13485C112.454 8.44012 111.539 11.0058 110.93 13.5254C110.876 13.7465 110.825 13.9685 110.778 14.1913C110.717 14.5498 110.712 15.0095 110.745 15.4781C110.894 17.4609 112.654 19.8584 115.556 19.9945H118.997C122.766 20.1197 126.838 17.9496 128.773 13.8658C129.973 11.5606 130.887 8.99291 131.496 6.47533C131.55 6.25101 131.602 6.0287 131.648 5.80838C131.711 5.44887 131.715 4.99122 131.681 4.52156C131.533 2.53774 129.772 0.142331 126.87 0.00713862H123.43L123.431 0.00814004ZM58.8057 0.190399L60.3469 19.8003H63.4373H63.4192H63.6015C63.898 19.7907 64.1878 19.7104 64.447 19.5662C64.7062 19.422 64.9272 19.218 65.0916 18.9711H65.0936L77.6935 0.191401H74.4349L65.4091 13.6706L64.3496 0.192402H58.8047L58.8057 0.190399ZM79.9457 0.190399L72.7145 19.8003H78.2653L85.4936 0.191401H79.9457V0.190399ZM92.9692 0.190399C87.9832 0.250484 85.78 5.79837 88.5039 9.35142C89.8859 11.0388 91.8587 12.7883 92.9733 14.6359C93.6793 15.6354 92.9242 17.3017 91.5753 17.3177H82.7718L81.8605 19.8003H93.0063C97.3755 19.7873 100.332 14.6429 97.3995 10.6973C96.0466 8.69849 93.9006 7.33355 92.6308 5.38078C91.8767 4.36233 92.6348 2.68995 93.9987 2.67193H102.192L103.105 0.190399H92.9692ZM106.946 0.190399L99.7198 19.8013H105.269L112.498 0.191401H106.946V0.190399ZM136.907 0.190399L129.646 19.8003H132.506L137.51 6.28506L137.535 6.52741L142.029 18.6647C142.165 18.9862 142.388 19.2631 142.673 19.4639C142.959 19.6646 143.295 19.7812 143.643 19.8003H146.258L153.52 0.191401H150.661L145.754 13.4442L140.528 0.191401H136.906L136.907 0.190399ZM124.698 2.03502C125.745 2.11513 126.576 2.99539 126.576 4.0629C126.584 4.32528 126.539 4.58464 126.441 4.82198L122.774 14.8082C122.034 16.7249 120.314 17.8996 118.271 17.9597H117.729C117.219 17.9189 116.742 17.6877 116.395 17.3118C116.047 16.9359 115.853 16.4429 115.852 15.9308C115.843 15.6702 115.89 15.4107 115.989 15.1697L119.654 5.1835C120.395 3.26677 122.115 2.09511 124.161 2.03602H124.698V2.03502Z" fill="#404046" fill-opacity="0.6"/>
<path d="M7.3709 0.194874L0.140625 19.8047H6.034L9.49192 10.4264H16.5079L13.05 19.8047H17.6535C18.4326 19.8047 19.1016 19.313 19.373 18.6271C19.376 18.6171 19.379 18.6141 19.383 18.609L26.1726 0.193873H20.2792L17.4953 7.7446H10.4793L13.2633 0.193873H7.3709V0.194874ZM29.9169 0.194874L22.6887 19.8047H28.579L35.8093 0.194874H29.9169ZM39.818 0.194874L32.5887 19.8047H38.4801L41.2521 12.2841L42.7241 11.1534L46.6327 18.7302L46.6347 18.7202L46.6447 18.7382C46.806 19.0731 47.0637 19.3521 47.3847 19.5395C47.7057 19.7268 48.0754 19.814 48.4463 19.7897C48.4323 19.7897 48.4162 19.7997 48.4012 19.7997H53.4043L47.1805 7.72958L56.9974 0.192871H52.5942L42.9905 7.56635L45.7094 0.192871H39.818V0.194874Z" fill="#1E1E1E"/>
<path d="M157.862 1.92674C157.862 3.01929 157.005 3.87551 155.889 3.87551C154.786 3.87551 153.906 3.01929 153.906 1.92674C153.906 0.857218 154.786 0 155.889 0C157.005 0 157.862 0.857218 157.862 1.92674ZM154.399 1.92674C154.399 2.78396 155.032 3.46492 155.901 3.46492C156.747 3.46492 157.369 2.78396 157.369 1.93775C157.369 1.08154 156.747 0.387551 155.889 0.387551C155.031 0.387551 154.399 1.08154 154.399 1.92674ZM155.584 2.93617H155.138V1.01144C155.383 0.967829 155.631 0.947709 155.879 0.951352C156.242 0.951352 156.407 1.01144 156.547 1.09355C156.608 1.14541 156.656 1.21033 156.689 1.28349C156.721 1.35665 156.737 1.43617 156.734 1.51616C156.734 1.72846 156.57 1.89169 156.335 1.96179V1.98582C156.523 2.05592 156.629 2.19812 156.688 2.45649C156.747 2.74991 156.782 2.86708 156.828 2.93717H156.348C156.289 2.86708 156.254 2.69082 156.195 2.46851C156.159 2.25621 156.042 2.16307 155.796 2.16307H155.584V2.93717V2.93617ZM155.596 1.84462H155.806C156.053 1.84462 156.254 1.76251 156.254 1.56222C156.254 1.38697 156.124 1.2698 155.842 1.2698C155.726 1.2698 155.643 1.27982 155.596 1.29284V1.84362V1.84462Z" fill="#404046" fill-opacity="0.6"/>
</svg>
