<svg width="122" height="40" viewBox="0 0 122 40" fill="none" xmlns="http://www.w3.org/2000/svg">
<path fill-rule="evenodd" clip-rule="evenodd" d="M11.9788 12.0713C5.80456 12.0713 0.828125 17.0477 0.828125 23.0373C0.828125 29.0269 5.80456 34.0034 11.9788 34.0034C18.153 34.0034 23.1288 29.0269 23.1288 23.0373C23.1288 17.0477 18.153 12.0713 11.9788 12.0713ZM11.9788 32.8049C7.37095 32.8049 3.59295 28.3824 3.59295 22.946C3.59295 17.4163 7.3716 12.9931 11.9788 12.9931C16.586 12.9931 20.3646 17.4163 20.3646 22.946C20.3646 28.3824 16.5866 32.8049 11.9788 32.8049Z" fill="#404046" fill-opacity="0.6"/>
<path fill-rule="evenodd" clip-rule="evenodd" d="M8.28906 31.6988C10.5007 26.0778 16.9515 30.317 17.7807 33.4504C19.5317 38.7955 22.7571 39.8093 26.2585 36.4912C23.0331 42.6655 17.1355 39.44 15.7531 36.3079C13.9101 30.9629 11.9751 28.1974 8.28906 31.6988Z" fill="#404046" fill-opacity="0.6"/>
<path fill-rule="evenodd" clip-rule="evenodd" d="M41.3741 8.20121V18.7067C41.3741 19.4439 41.4667 19.8131 41.6507 19.9971C41.8353 20.1811 42.2959 20.2731 42.8491 20.2731V20.6423C42.2959 20.8269 41.7433 21.0103 41.1901 21.2869C40.5449 21.4715 39.9003 21.7481 39.1625 22.0241H38.9785V19.7198C38.2413 20.6417 37.5041 21.2862 36.8589 21.6555C36.1217 22.0234 35.3845 22.208 34.4626 22.208C33.5408 22.208 32.7116 21.9314 32.0664 21.5622C31.4212 21.1942 30.8686 20.5484 30.5 19.9038C30.3154 19.4432 30.2234 19.074 30.1314 18.5214C30.0394 18.0608 30.0394 17.3236 30.0394 16.3098V10.0436C30.0394 9.49099 29.9468 9.21373 29.6708 9.02976C29.4869 8.93777 29.0256 8.84578 28.2891 8.75315V8.20057H32.4357V15.9412C32.4357 17.8762 32.6196 19.1666 33.0802 19.8118C33.5408 20.4564 34.37 20.733 35.5684 20.733C36.213 20.733 36.8582 20.5484 37.5034 20.1804C38.056 19.7198 38.6092 19.1666 38.9778 18.3374V10.5968C38.9778 9.85959 38.8852 9.30637 38.7012 9.12239C38.5166 8.84578 38.056 8.75379 37.4108 8.75379H37.3188V8.20121H41.3741ZM45.8899 21.1029V17.3242H46.5345C46.8111 18.7987 47.2717 19.8125 47.8249 20.457C48.3775 21.1029 49.0227 21.4708 49.9445 21.4708C50.7737 21.4708 51.4189 21.1942 51.9715 20.6417C52.4321 20.1804 52.7087 19.5358 52.7087 18.706C52.7087 18.0614 52.5241 17.5082 52.1555 17.1396C51.7869 16.679 51.0497 16.1258 49.9439 15.5726C48.2849 14.7434 47.1791 14.0982 46.7185 13.5456C46.2579 12.993 46.0739 12.2558 46.0739 11.5186C46.0739 10.4128 46.5345 9.49164 47.3637 8.84642C48.1009 8.20121 49.2067 7.83261 50.5891 7.83261C51.2343 7.83261 51.8789 7.9246 52.5241 8.10922C53.1693 8.2932 53.8145 8.47782 54.4591 8.84642V12.1638H53.8145C53.6299 11.058 53.2619 10.1368 52.6167 9.39965C51.9715 8.75443 51.2343 8.38583 50.3125 8.38583C49.6679 8.38583 49.1147 8.57045 48.6535 8.93841C48.1929 9.30701 48.0083 9.85959 48.0083 10.4128C48.0083 11.242 48.6535 12.0712 49.9439 12.7164C50.0359 12.8084 50.1285 12.8084 50.2205 12.9004C50.3125 12.993 50.5891 13.085 50.9577 13.269C53.7219 14.7434 55.0123 16.2178 55.0123 17.7842C55.0123 19.074 54.5517 20.1804 53.5379 20.9176C52.6161 21.7468 51.3263 22.1148 49.7593 22.1148C49.0221 22.1148 48.4695 22.0228 47.7316 21.9314C47.0877 21.7475 46.5345 21.4708 45.8899 21.1029ZM59.1596 1.56639C59.1596 1.1058 59.3435 0.736556 59.6201 0.460588C59.9887 0.0919867 60.3573 0 60.8179 0C61.2785 0 61.6478 0.0919867 62.0157 0.460588C62.2923 0.737199 62.477 1.1058 62.477 1.56639C62.477 2.02698 62.2923 2.39558 62.0157 2.76418C61.6478 3.0408 61.2785 3.22478 60.8179 3.22478C60.3573 3.22478 59.9887 3.04015 59.7121 2.76418C59.3435 2.39558 59.1596 2.02698 59.1596 1.56639ZM62.2923 7.83261V19.4432C62.2923 20.1804 62.3856 20.733 62.569 20.9176C62.8456 21.1022 63.3062 21.1942 64.044 21.1942V21.8388H58.0538V21.1942C58.699 21.1942 59.1596 21.0096 59.4362 20.8263C59.6208 20.5484 59.7128 19.9038 59.7128 18.8906V11.8872C59.7128 11.2427 59.6208 10.7814 59.4362 10.5048C59.2515 10.2282 58.8836 9.95223 58.2384 9.67562V9.30702C58.8836 9.12304 59.5282 8.93841 60.0814 8.66244C60.7266 8.47782 61.2792 8.10987 61.9244 7.83325H62.2923V7.83261ZM66.7162 21.1942C67.5454 21.1022 68.0066 21.0096 68.19 20.8263C68.3746 20.6417 68.4666 20.1804 68.4666 19.2592V11.8872C68.4666 11.2427 68.3746 10.7814 68.0986 10.5048C67.914 10.2282 67.546 9.95223 66.9928 9.67562V9.30702C67.6374 9.12304 68.2832 8.93841 68.8358 8.66244C69.4275 8.4038 70.0112 8.12728 70.5862 7.83325H70.8641V10.3215C71.6933 9.39965 72.4298 8.75443 73.0757 8.38647C73.7203 8.01787 74.5494 7.8339 75.3786 7.8339C76.9457 7.8339 78.0508 8.29449 78.7887 9.3083C79.4345 10.3221 79.8025 11.8885 79.8025 14.1001V20.0904C79.8025 20.4583 79.8945 20.8276 80.0791 20.9196C80.2637 21.1042 80.7237 21.1962 81.5529 21.1962L81.6461 21.8407H75.8405V21.1962C76.5777 21.1962 77.039 21.1042 77.2223 20.9196C77.3156 20.8276 77.4069 20.5503 77.4069 20.0904V13.3616C77.4069 11.9799 77.2223 10.8734 76.6697 10.2282C76.2085 9.49099 75.4726 9.21438 74.4581 9.21438C73.6289 9.21438 72.9831 9.399 72.4305 9.7676C71.7859 10.1362 71.3247 10.6894 70.8647 11.426V19.4432C70.8647 20.2724 70.9567 20.733 71.2327 20.9176C71.4173 21.1022 71.8773 21.1942 72.6145 21.1942V21.8388H66.7168L66.7162 21.1942ZM92.241 11.7026C92.6102 11.7026 92.8869 11.7026 93.0715 11.518C93.2548 11.3334 93.3481 11.1494 93.3481 10.7808C93.3481 10.1356 93.0715 9.58234 92.5189 9.21374C91.965 8.75315 91.2285 8.47654 90.3067 8.47654C90.2147 8.47654 90.03 8.47654 89.9387 8.56917V7.83196H90.7679C92.3349 7.83196 93.7167 8.29256 94.8225 9.12175C96.0209 10.0436 96.5742 10.9648 96.5742 11.9786C96.5742 12.1625 96.5742 12.3472 96.4809 12.4392C96.3889 12.5311 96.2975 12.5311 96.0209 12.5311H89.9387V11.702L92.241 11.7026ZM89.938 22.208V19.9964C90.3993 20.1804 90.9519 20.1804 91.5964 20.1804C92.7022 20.1804 93.6241 19.9038 94.5452 19.3512C95.3744 18.798 96.0203 17.9688 96.3883 16.955L97.0328 17.1396C96.4802 18.706 95.651 19.9964 94.5452 20.8263C93.3481 21.7475 91.9644 22.208 90.3993 22.208H89.938ZM89.938 8.56981C89.2008 8.6618 88.463 8.93841 87.9104 9.399C87.2659 9.95158 86.8046 10.7814 86.5287 11.7032H89.9387V12.5324H86.344C86.252 13.177 86.252 13.6382 86.1607 14.0068V14.8367C86.1607 16.4031 86.6206 17.6928 87.7277 18.7067C88.3723 19.3519 89.1095 19.7205 89.9393 19.9971V22.2087C88.1877 22.1154 86.8059 21.4715 85.7001 20.2724C84.4097 18.9833 83.7651 17.3242 83.7651 15.3892C83.7651 13.085 84.4097 11.2426 85.7001 9.85959C86.7139 8.6618 88.1877 8.01659 89.9393 7.83261V8.56981H89.938ZM99.6137 21.1029V17.3242H100.258C100.627 18.7987 100.995 19.8125 101.549 20.457C102.101 21.1029 102.839 21.4708 103.668 21.4708C104.497 21.4708 105.235 21.1942 105.696 20.6417C106.248 20.1804 106.525 19.5358 106.525 18.706C106.525 18.0614 106.34 17.5082 105.973 17.1396C105.511 16.679 104.774 16.1258 103.761 15.5726C102.009 14.7434 100.995 14.0982 100.534 13.5456C100.063 12.9746 99.8031 12.2588 99.7977 11.5186C99.7977 10.4128 100.258 9.49164 101.088 8.84642C101.917 8.20121 103.023 7.83261 104.313 7.83261C105.05 7.83261 105.695 7.9246 106.34 8.10922C106.986 8.2932 107.63 8.47782 108.183 8.84642V12.1638H107.538C107.445 11.058 107.077 10.1368 106.432 9.39965C105.787 8.75443 105.049 8.38583 104.128 8.38583C103.391 8.38583 102.838 8.57045 102.377 8.93841C102.009 9.30701 101.732 9.85959 101.732 10.4128C101.732 11.242 102.377 12.0712 103.76 12.7164C103.852 12.8084 103.943 12.8084 103.943 12.9004C104.128 12.993 104.404 13.085 104.772 13.269C107.444 14.7434 108.828 16.2178 108.828 17.7842C108.828 19.074 108.367 20.1804 107.353 20.9176C106.339 21.7468 105.049 22.1148 103.483 22.1148C102.837 22.1148 102.193 22.0228 101.547 21.9314C100.872 21.7337 100.223 21.4555 99.6137 21.1029ZM111.962 21.1029V17.3242H112.608C112.885 18.7987 113.345 19.8125 113.898 20.457C114.451 21.1029 115.096 21.4708 116.017 21.4708C116.847 21.4708 117.492 21.1942 118.044 20.6417C118.506 20.1804 118.782 19.5358 118.782 18.706C118.782 18.0614 118.597 17.5082 118.229 17.1396C117.86 16.679 117.123 16.1258 116.017 15.5726C114.358 14.7434 113.253 14.0982 112.791 13.5456C112.331 12.993 112.147 12.2558 112.147 11.5186C112.147 10.4128 112.608 9.49164 113.437 8.84642C114.266 8.20121 115.28 7.83261 116.663 7.83261C117.307 7.83261 117.953 7.9246 118.598 8.10922C119.242 8.2932 119.888 8.47782 120.533 8.84642V12.1638H119.888C119.796 11.058 119.335 10.1368 118.69 9.39965C118.045 8.75443 117.308 8.38583 116.387 8.38583C115.741 8.38583 115.188 8.57045 114.728 8.93841C114.267 9.30701 114.082 9.85959 114.082 10.4128C114.082 11.242 114.728 12.0712 116.017 12.7164C116.111 12.8084 116.202 12.8084 116.294 12.9004L117.031 13.269C119.797 14.7434 121.178 16.2178 121.178 17.7842C121.178 19.074 120.626 20.1804 119.611 20.9176C118.689 21.7468 117.4 22.1148 115.833 22.1148C115.188 22.1148 114.543 22.0228 113.806 21.9314C113.161 21.7475 112.608 21.4708 111.962 21.1029Z" fill="#1E1E1E"/>
<path fill-rule="evenodd" clip-rule="evenodd" d="M34.2796 27.1838V33.5427C34.2796 34.0039 34.3716 34.2799 34.4636 34.3718C34.6482 34.4651 34.9242 34.5565 35.3854 34.5565V34.7411C34.9248 34.8331 34.5562 35.0177 34.095 35.109C33.6344 35.2937 33.1731 35.3857 32.7132 35.5703H32.5286V34.1885C31.976 34.7411 31.4228 35.1097 30.9622 35.3857C30.3979 35.5745 29.8061 35.668 29.2112 35.6623C28.5659 35.6623 28.0127 35.5703 27.4601 35.2943C26.9996 35.0177 26.5383 34.7417 26.3543 34.2805C26.1697 34.0039 26.0777 33.7279 26.0777 33.4513C25.9857 33.1747 25.9857 32.7141 25.9857 32.1609V28.2896C25.9857 28.013 25.8937 27.8297 25.7091 27.737C25.6171 27.645 25.2485 27.5537 24.6953 27.5537V27.1844H27.7361V31.8849C27.7361 33.0821 27.9207 33.8199 28.1967 34.1891C28.5653 34.6491 29.1185 34.8337 29.9477 34.8337C30.5009 34.8337 30.9615 34.6491 31.4221 34.4658C31.8773 34.1948 32.2575 33.8142 32.5279 33.3587V28.6595C32.5279 28.1983 32.4359 27.9223 32.2513 27.737C32.1587 27.645 31.7907 27.5537 31.3295 27.5537H31.2375V27.1844L34.2796 27.1838ZM43.4026 29.3961C43.6792 29.3961 43.8632 29.3028 44.0478 29.2114C44.1398 29.1194 44.2318 28.9348 44.2318 28.7502C44.2318 28.3822 44.0478 28.013 43.5866 27.829C43.218 27.5524 42.6648 27.3678 42.0202 27.3678C41.9282 27.3678 41.8356 27.3678 41.7436 27.4598V26.9998H42.3882C43.494 26.9998 44.5078 27.2764 45.337 27.7364C46.1662 28.289 46.6268 28.8435 46.6268 29.488C46.6268 29.58 46.6268 29.6727 46.5341 29.7647C46.4421 29.8566 46.3501 29.8566 46.1655 29.8566H41.7423V29.3967L43.4026 29.3961ZM41.7436 35.6623V34.3718C42.1122 34.4651 42.4808 34.4651 42.9414 34.4651C43.7712 34.4651 44.5084 34.2805 45.153 34.0039C45.7056 33.6346 46.1668 33.0814 46.5348 32.5288L46.904 32.6215C46.5354 33.5427 45.9822 34.3718 45.061 34.9244C44.2312 35.477 43.218 35.6616 42.1122 35.6616L41.7436 35.6623ZM41.7436 27.4598C41.191 27.4598 40.7298 27.645 40.2692 27.9216C39.8086 28.2896 39.4394 28.7508 39.2554 29.3967H41.7436V29.8566H39.1634C39.0714 30.2259 39.0714 30.5025 38.9794 30.6858V31.2397C38.9794 32.1609 39.348 32.9901 40.0852 33.5427C40.5458 33.9106 41.0984 34.1885 41.7436 34.3718V35.6623C40.5458 35.6623 39.44 35.201 38.6108 34.5565C37.689 33.7273 37.2284 32.7135 37.2284 31.6077C37.2284 30.1326 37.689 29.0268 38.6108 28.1976C39.509 27.4888 40.6022 27.0711 41.7442 27.0005V27.4604L41.7436 27.4598ZM54.7373 29.3961C55.0139 29.3961 55.1979 29.3028 55.2898 29.2114C55.4738 29.1194 55.4738 28.9348 55.4738 28.7502C55.4738 28.3822 55.2898 28.013 54.9212 27.829C54.4606 27.5524 53.9994 27.3678 53.3542 27.3678C53.2622 27.3678 53.0776 27.3678 52.9862 27.4598V26.9998H53.6308C54.8286 26.9998 55.7498 27.2764 56.6716 27.7364C57.5008 28.289 57.962 28.8435 57.962 29.488C57.962 29.58 57.8694 29.6727 57.8694 29.7647C57.7774 29.8566 57.6854 29.8566 57.5008 29.8566H52.9856V29.3967L54.7373 29.3961ZM52.9869 35.6623V34.3718C53.3548 34.4651 53.8161 34.4651 54.1847 34.4651C54.9457 34.4642 55.6984 34.3072 56.3963 34.0039C56.9913 33.6578 57.4719 33.145 57.7787 32.5288L58.2393 32.6215C57.8707 33.5427 57.2255 34.3718 56.3963 34.9244C55.4745 35.477 54.4613 35.6616 53.3548 35.6616L52.9869 35.6623ZM52.9869 27.4604C52.5257 27.4604 51.9731 27.645 51.6045 27.9216C51.0519 28.2896 50.7753 28.7508 50.4987 29.3967H52.9869V29.8566H50.4067C50.4067 30.2259 50.314 30.5025 50.314 30.6858V31.2397C50.314 32.1609 50.6827 32.9901 51.4199 33.5427C51.8804 33.9106 52.4337 34.1885 52.9869 34.3718V35.6623C51.7885 35.6623 50.7753 35.201 49.9454 34.5565C49.0236 33.7273 48.563 32.7135 48.563 31.6077C48.563 30.1326 49.0236 29.0268 49.9454 28.1976C50.7746 27.553 51.7885 27.0918 52.9869 27.0005V27.4604ZM59.9897 35.109C60.5422 35.0171 61.0035 34.9244 61.0955 34.8324C61.1881 34.7404 61.2801 34.4645 61.2801 33.91V29.3961C61.2801 29.0268 61.1881 28.7502 61.0035 28.5669C60.9115 28.3822 60.6349 28.289 60.1743 28.1056V27.921C60.6349 27.7364 61.0955 27.6444 61.5567 27.4598C62.0166 27.3678 62.3859 27.1832 62.8458 26.9998H63.0305V28.4736C63.5136 27.986 64.074 27.5815 64.6888 27.2764C65.1501 27.0918 65.7027 26.9998 66.3485 26.9998C67.4543 26.9998 68.2835 27.2764 68.8361 27.921C69.2973 28.4736 69.5733 29.488 69.5733 30.7778V34.3712C69.5733 34.6478 69.6653 34.8324 69.7566 34.9238C69.8499 35.0171 70.2179 35.0171 70.8637 35.1084V35.4764H66.6245V35.1084C67.1771 35.0164 67.5457 35.0164 67.637 34.9238C67.7303 34.8318 67.8216 34.6472 67.8216 34.3712V30.4086C67.8216 29.4874 67.637 28.8428 67.269 28.4736C66.9011 28.0124 66.3479 27.829 65.6107 27.829C65.0581 27.829 64.5969 27.921 64.1356 28.1056C63.7677 28.3822 63.3064 28.6582 63.0298 29.1194V34.0032C63.0298 34.4645 63.1218 34.8324 63.3064 34.9244C63.3997 35.0177 63.7677 35.109 64.2289 35.109V35.477H59.9897V35.109ZM72.7994 35.0177V32.7135H73.2593C73.4439 33.6346 73.7205 34.2805 74.1818 34.6485C74.5497 35.0177 75.103 35.201 75.7488 35.201C76.3014 35.201 76.7626 35.109 77.2226 34.7411C77.5918 34.4645 77.7751 34.0039 77.7751 33.5427C77.7751 33.1747 77.5918 32.8981 77.3152 32.6215C77.0386 32.3449 76.578 32.0689 75.7482 31.699C74.4577 31.1464 73.7205 30.7778 73.3519 30.4086C73.0753 30.0406 72.8907 29.672 72.8907 29.2114C72.8907 28.5669 73.1673 28.013 73.8132 27.553C74.4577 27.1838 75.1949 27.0005 76.2081 27.0005C76.6693 27.0005 77.1306 27.0005 77.6832 27.0925C78.1444 27.2771 78.6043 27.3691 79.0649 27.645V29.58H78.6037C78.4204 28.9355 78.1437 28.3829 77.6825 27.9216C77.2213 27.5537 76.6687 27.3691 76.0241 27.3691C75.4715 27.3691 75.1017 27.4611 74.8257 27.6457C74.4577 27.9223 74.2731 28.1983 74.2731 28.5681C74.2731 29.0281 74.8257 29.4893 75.7482 29.9499C75.8402 29.9499 75.8401 30.0419 75.9315 30.0419C76.0248 30.0419 76.2081 30.1339 76.4841 30.3185C78.5117 31.1477 79.4342 32.0702 79.4342 33.0827C79.4342 33.8199 79.0649 34.4658 78.3271 34.9257C77.6825 35.3869 76.7613 35.6629 75.5629 35.6629C75.1017 35.6629 74.6417 35.5709 74.0891 35.4783C73.6285 35.3857 73.1673 35.201 72.7994 35.0177ZM84.6859 34.0032C84.6859 34.4645 84.7792 34.8324 84.8706 34.9244C85.0552 35.0177 85.4231 35.109 85.8844 35.109V35.477H81.6451V35.109C82.1977 35.109 82.4743 35.0171 82.659 34.8324C82.8423 34.6478 82.9356 34.2799 82.9356 33.7266V24.6962C82.9356 24.3283 82.8423 23.959 82.659 23.867C82.5657 23.6824 82.2897 23.4991 81.8285 23.4058V23.1292C82.2897 23.0372 82.7509 22.8526 83.2115 22.7612C83.6715 22.5766 84.0407 22.392 84.5019 22.2087H84.6853L84.6859 34.0032ZM93.1644 33.8186V31.0544C92.4272 31.2391 91.7826 31.4224 91.3214 31.699V31.1464C91.874 30.9631 92.5198 30.7785 93.2564 30.5019V28.6588C93.2564 28.2896 93.0731 28.013 92.8884 27.8297C92.7038 27.645 92.3358 27.553 91.8746 27.553H91.322V27.0918C91.69 26.9998 92.2432 26.9998 92.7038 26.9998C93.533 26.9998 94.0856 27.0918 94.4555 27.4598C94.8234 27.829 95.008 28.5669 95.008 29.672V34.2792C95.008 34.4638 95.1 34.5558 95.1 34.6472C95.1933 34.7404 95.3766 34.7404 95.4693 34.7404C95.6526 34.7404 95.8372 34.7404 95.9292 34.5558C96.0225 34.4638 96.0225 34.3712 96.1138 34.0946H96.4818C96.4818 34.5558 96.2985 34.9238 95.9292 35.2004C95.6526 35.477 95.1927 35.5696 94.7321 35.5696C94.2715 35.5696 93.9029 35.4764 93.6263 35.293C93.257 35.0164 93.165 34.7404 93.0737 34.3706C92.5211 34.7398 91.9666 35.1078 91.414 35.293C91.414 35.385 91.322 35.385 91.322 35.385V34.6478C91.5067 34.5558 91.7833 34.5558 92.0592 34.4645C92.3352 34.3718 92.7032 34.1885 93.1644 33.8186ZM91.3214 31.699C90.8602 31.8836 90.4922 32.0682 90.2156 32.1602C89.663 32.5282 89.3864 32.8974 89.3864 33.266C89.3864 33.6346 89.571 34.0032 89.8476 34.2799C90.2156 34.4645 90.6768 34.6478 91.1368 34.6478H91.3214V35.385C90.8828 35.5651 90.4137 35.659 89.9396 35.6616C89.2938 35.6616 88.8338 35.477 88.3726 35.2004C88.0046 34.9238 87.82 34.4638 87.82 34.0032C87.82 33.266 88.188 32.7128 88.9258 32.2516C89.387 31.8836 90.2162 31.515 91.322 31.1458V31.699H91.3214ZM91.3214 27.0918V27.553C90.9534 27.645 90.6768 27.7364 90.4002 27.8297C90.031 28.013 89.8476 28.2896 89.8476 28.5669C89.8476 29.1194 89.7544 29.5794 89.571 29.764C89.3864 30.0406 89.1098 30.132 88.6486 30.132C88.3719 30.132 88.1873 30.04 88.004 29.9486C87.9107 29.8554 87.8194 29.672 87.8194 29.3961C87.8194 28.9348 88.3719 28.3822 89.3864 27.829C90.031 27.4604 90.6768 27.2764 91.3214 27.0918ZM97.8649 35.109C98.5094 35.0171 98.8774 34.9244 98.9707 34.8324C99.154 34.7404 99.154 34.4645 99.154 33.91V29.3961C99.1582 29.1092 99.0954 28.8253 98.9707 28.5669C98.786 28.3822 98.5094 28.289 98.0482 28.1056V27.921C98.6008 27.7364 99.062 27.6444 99.43 27.4598C99.8912 27.3678 100.352 27.1832 100.72 26.9998H100.997L100.905 28.4736C101.388 27.986 101.949 27.5815 102.563 27.2764C103.025 27.0918 103.577 26.9998 104.222 26.9998C105.328 26.9998 106.157 27.2764 106.711 27.921C107.171 28.4736 107.447 29.488 107.447 30.7778V34.3712C107.447 34.6478 107.54 34.8324 107.632 34.9238C107.816 35.0171 108.184 35.0171 108.738 35.1084L108.831 35.4764H104.499V35.1084C105.052 35.0164 105.422 35.0164 105.513 34.9238C105.697 34.8318 105.697 34.6472 105.697 34.3712V30.4086C105.697 29.4874 105.513 28.8428 105.236 28.4736C104.868 28.0124 104.315 27.829 103.486 27.829C102.933 27.829 102.472 27.921 102.011 28.1056C101.643 28.3822 101.274 28.6582 100.905 29.1194V34.0032C100.905 34.4645 100.997 34.8324 101.182 34.9244C101.366 35.0177 101.643 35.109 102.195 35.109V35.477H97.8649V35.109ZM118.23 33.8186V30.7778C118.23 29.672 118.045 28.8428 117.584 28.289C117.124 27.7364 116.387 27.4598 115.464 27.4598H115.372V26.9998H115.557C115.925 26.9998 116.294 27.0918 116.754 27.0918C117.215 27.1838 117.677 27.2764 118.229 27.4598V24.6956C118.229 24.2344 118.136 23.9584 117.953 23.7744C117.768 23.5898 117.491 23.4978 117.03 23.4052V23.1285C117.491 23.0366 118.044 22.9452 118.505 22.7606C118.965 22.576 119.426 22.3913 119.887 22.208H120.072V33.91C120.072 34.0946 120.164 34.2792 120.255 34.3712C120.348 34.4645 120.624 34.5558 121.084 34.6478V34.8324C120.532 35.0171 120.072 35.109 119.61 35.2937C119.241 35.3857 118.781 35.477 118.505 35.5703H118.228V34.3718C117.767 34.7411 117.306 35.109 116.753 35.3857C116.292 35.4776 115.832 35.6623 115.371 35.6623V34.6485C115.556 34.6485 115.739 34.7417 115.924 34.7417C116.385 34.7417 116.753 34.6485 117.214 34.4651C117.584 34.3718 117.953 34.0952 118.23 33.8186ZM115.372 27.4598C114.543 27.4598 113.805 27.8297 113.253 28.4742C112.7 29.1201 112.424 30.0413 112.424 31.1464C112.424 32.1602 112.792 32.9894 113.437 33.634C113.99 34.2799 114.635 34.5565 115.372 34.6478V35.6616H115.004C113.714 35.6616 112.7 35.2937 111.779 34.4645C110.949 33.634 110.581 32.6215 110.581 31.331C110.581 30.0406 110.949 28.9348 111.871 28.1976C112.792 27.4604 113.899 27.0912 115.372 26.9998V27.4598Z" fill="#404046" fill-opacity="0.6"/>
<path fill-rule="evenodd" clip-rule="evenodd" d="M22.9443 20.7334C23.4049 20.5487 23.8662 20.3654 24.2341 20.0888C26.0771 19.0743 26.907 17.6006 26.907 15.481C26.907 14.1912 26.4464 13.0847 25.4326 12.1635C24.4187 11.3344 23.0363 10.7818 21.3779 10.5045C22.6677 10.1359 23.5896 9.49135 24.2341 8.84614C24.8793 8.01631 25.2479 7.18712 25.2479 6.17395C25.2479 4.33094 24.5107 3.04051 22.9437 2.21132C21.9299 1.6581 20.3635 1.2895 18.4285 1.10552V1.93471C19.1657 2.11933 19.9029 2.48794 20.4555 2.85654C21.4693 3.68573 22.0225 4.79153 22.0225 6.26593C22.0225 7.74034 21.4699 8.84614 20.3635 9.58334C19.9029 9.95194 19.1657 10.2286 18.4285 10.4132V11.4263C19.9029 11.519 21.0087 11.8869 21.7459 12.4402C22.7597 13.1774 23.3123 14.3752 23.3123 16.1262C23.3123 17.324 22.9437 18.2451 22.3905 18.983L22.9443 20.7334ZM18.4291 21.5626V20.826C19.0743 20.826 19.6269 20.6414 20.1802 20.5481L20.2728 21.3786C19.7196 21.4706 19.0743 21.4706 18.4291 21.5626ZM18.4291 1.10488C17.5993 1.01225 16.6781 0.920898 15.6643 0.920898C15.2957 0.920898 14.2825 1.01289 12.8081 1.01289H8.9375V1.75009H9.12148C10.0433 1.75009 10.6885 1.84208 10.9645 2.0267C11.2411 2.30331 11.4251 2.85589 11.4251 3.77772V18.6137C11.4251 19.6276 11.2405 20.2721 10.9645 20.4567C10.6885 20.6414 10.0427 20.826 9.12148 20.826H8.9375V21.4706C9.6747 21.4706 10.6885 21.5626 11.9789 21.5626H18.4291V20.826C18.1525 20.918 17.8766 20.918 17.5073 20.918C16.4935 20.918 15.7563 20.7334 15.3877 20.4567C15.0191 20.1801 14.8351 19.6276 14.8351 18.9823V11.3337H16.6781C17.3227 11.3337 17.8759 11.3337 18.4291 11.4257V10.4125C17.5993 10.5965 16.6781 10.6891 15.573 10.6891H14.8358V1.6581H15.8496C16.7708 1.6581 17.6926 1.75073 18.4298 1.93471V1.10488H18.4291Z" fill="#1E1E1E"/>
</svg>
