<svg width="138" height="32" viewBox="0 0 138 32" fill="none" xmlns="http://www.w3.org/2000/svg">
<g clip-path="url(#clip0_386_727)">
<path d="M137.806 14.6523V15.3314C137.806 15.3314 137.066 15.624 137.066 16.4964L137.072 31.0664C137.072 31.5799 136.658 31.9995 136.144 31.9995H133.279L126.979 22.0561C126.979 22.0561 127.112 22.8787 127.112 23.9167V31.9995H123.622V14.6523H125.886C127.04 14.6523 127.879 15.1272 128.486 16.0823C129 16.8884 133.759 24.386 133.759 24.386C133.759 24.386 133.588 23.878 133.588 22.5088V14.6523H137.806ZM70.7915 14.6523V31.0664C70.7915 31.5799 70.3719 31.9995 69.8585 31.9995H66.9985L60.699 22.0561C60.699 22.0561 60.8315 22.8787 60.8315 23.9167V31.9995H57.3367V14.6523H59.5948C60.7487 14.6523 61.5879 15.1272 62.1952 16.0823C62.7087 16.8884 67.4734 24.386 67.4734 24.386C67.4734 24.386 67.3022 23.878 67.3022 22.5088V14.6523H70.7915ZM27.6224 14.6523H22.9571V21.2997H18.8771V14.6523H13.4609V15.3314C13.4609 15.3314 14.2008 15.613 14.2008 16.4964V31.9995H18.8771V24.4743H22.9571V31.9995H27.6224V14.6523ZM42.728 14.6523H32.3374V30.4481C32.3374 31.348 33.1932 31.9995 34.0876 31.9995H42.728C43.2415 31.9995 43.6611 31.5799 43.6611 31.0664V28.8304H37.6983C37.3119 28.8304 36.9972 28.5102 36.9972 28.1237V24.4743H42.3084V21.3052H36.9972V17.8269H43.6556V15.5909C43.6611 15.0719 43.2415 14.6523 42.728 14.6523ZM52.5776 14.6523H47.9123V31.0664C47.9123 31.5799 48.3319 31.9995 48.8453 31.9995H52.5776V14.6523ZM118.731 14.6523H108.335V30.4481C108.335 31.3149 109.19 31.9995 110.09 31.9995H118.731C119.244 31.9995 119.664 31.5799 119.664 31.0664V28.8304H113.701C113.315 28.8304 113 28.5102 113 28.1237V24.4743H118.317V21.3052H113V17.8269H119.669V15.5909C119.669 15.0719 119.244 14.6523 118.731 14.6523ZM85.8971 14.6523H75.501V30.4481C75.501 31.3149 76.3567 31.9995 77.2567 31.9995H85.8971C86.4106 31.9995 86.8301 31.5799 86.8301 31.0664V28.8304H80.8674C80.4809 28.8304 80.1662 28.5102 80.1662 28.1237V24.4743H85.483V21.3052H80.1662V17.8269H86.8301V15.5909C86.8301 15.0719 86.4106 14.6523 85.8971 14.6523ZM105.64 14.6523H102.273C101.461 14.6523 100.843 14.8566 100.197 15.5964C99.5562 16.3363 95.443 21.0733 95.443 21.0733V14.6523H90.7777V31.0664C90.7777 31.5799 91.1973 31.9995 91.7108 31.9995H95.443V24.1375C95.443 24.1375 98.9433 29.6089 99.5562 30.5695C100.169 31.5302 100.782 32.005 102.179 32.005H106.01L99.4623 21.769L105.64 14.6523Z" fill="#1E1E1E"/>
<path d="M4.76736 20.9696C4.53548 21.1408 4.2263 20.92 4.31464 20.6494C4.44162 20.2629 6.78807 13.0414 6.78807 13.0414L0.317398 8.33748C0.0855143 8.16633 0.206977 7.80746 0.488551 7.81298H8.48303C8.48303 7.81298 10.835 0.591448 10.9565 0.204974C11.0448 -0.0655572 11.4257 -0.0710783 11.5141 0.204974C11.6355 0.591448 13.9875 7.80746 13.9875 7.80746H21.982C22.2636 7.80746 22.3906 8.1608 22.1531 8.33196L18.2939 11.1367H13.728L12.3146 6.79711L10.9068 11.1422H6.34086L10.0344 13.8254L8.62106 18.1649C8.62106 18.1705 4.99925 20.7985 4.76736 20.9696Z" fill="#404046" fill-opacity="0.6"/>
</g>
<defs>
<clipPath id="clip0_386_727">
<rect width="137.694" height="32" fill="white" transform="translate(0.15625)"/>
</clipPath>
</defs>
</svg>
