<svg width="130" height="36" viewBox="0 0 130 36" fill="none" xmlns="http://www.w3.org/2000/svg">
<path fill-rule="evenodd" clip-rule="evenodd" d="M87.968 9.9314H78.0831V12.0005C78.9069 12.0005 79.7313 12.2074 79.9362 12.6214C80.3488 12.8284 80.555 13.4486 80.555 14.2765V17.1735H73.7589V14.2765C73.7589 13.4493 73.9651 12.8284 74.1714 12.6214C74.5826 12.2074 75.407 12.0005 76.2308 12.0005V9.9314H66.1396V12.0005C66.9634 12.0005 67.1689 12.0005 67.5801 12.2074C67.9927 12.2074 67.9927 12.6214 68.1976 12.6214C68.6101 13.2423 68.8164 13.6556 68.8164 14.2765V25.2421C68.8164 25.2421 68.6101 25.8623 68.1976 26.0693L67.5801 26.6895H66.1396V28.7593H76.2294V26.6895H74.7875C74.5812 26.2756 74.17 26.0693 74.17 26.0693C73.9637 25.8616 73.9637 25.4477 73.9637 25.2421C73.7575 25.0344 73.7575 24.4149 73.7575 24.4149V20.0698H80.5536V25.2421C80.5536 25.2421 80.3474 25.8623 80.3474 26.0693C79.9348 26.0693 79.7299 26.2756 79.5236 26.6895H78.0817V28.7593H87.9666V26.6895H86.5247C86.3184 26.2756 86.1135 26.0693 85.701 26.0693C85.701 25.8616 85.4947 25.4477 85.4947 25.2421V14.2758C85.4947 13.6549 85.701 13.2416 86.1135 12.6207C86.3184 12.2067 87.1429 11.9998 87.9666 11.9998V9.9314H87.968ZM89.2036 9.9314V12.0005C90.0273 12.0005 90.6441 12.0005 90.8504 12.2074C91.2629 12.2074 91.4678 12.6214 91.4678 12.8284C91.8804 13.2423 91.8804 13.4493 91.8804 13.4493L92.0867 14.2765V25.2421C92.0867 25.2421 91.8804 25.8623 91.4678 26.0693L90.8504 26.6895H89.2036V28.7593H106.707L110.002 22.1381L107.943 21.3109C106.707 23.38 105.471 24.4149 103.824 25.2421C102.176 26.0693 100.529 26.2756 98.6759 26.2756C98.057 26.2756 97.8508 26.2756 97.4403 26.0693C97.234 25.8616 97.0277 25.0344 97.0277 24.0002V20.0691H97.8515C99.0871 20.0691 99.7059 20.2754 100.117 20.483C100.736 21.1047 101.146 21.9319 101.146 22.9654H103.206V14.2758H101.146C101.146 15.31 100.735 16.1379 100.117 16.7588C99.7059 16.9658 99.0878 17.1728 97.8515 17.1728H97.0277V14.6898C97.0277 13.6556 97.234 13.4486 97.234 12.8277C97.4403 12.6207 98.2633 12.2067 99.2933 12.2067H99.9108C101.97 12.2067 103.412 12.8277 104.648 13.6549C105.883 14.4828 106.707 15.517 107.324 16.5512L109.179 15.517L106.501 9.9307L89.2036 9.9314ZM127.712 22.1381C127.299 22.9654 126.682 24.0009 125.652 25.0344C125.033 25.4484 124.623 25.8616 123.799 26.0693C123.18 26.6895 122.357 26.6895 121.534 26.6895C120.915 26.6895 120.71 26.6895 119.885 26.2756C119.268 26.0693 118.856 25.8616 118.239 25.2421C117.826 24.6205 117.209 24.0009 117.003 22.966C116.592 22.1388 116.386 20.69 116.386 19.4488C116.386 16.7595 116.592 14.6905 117.826 13.6563C118.855 12.2081 119.885 11.7942 120.915 11.7942C122.563 11.7942 123.799 12.2081 124.829 13.4493C125.652 14.4842 126.682 15.5184 127.299 17.1735L129.565 16.5526L127.094 9.93209H125.446L125.033 10.346C124.622 10.1391 123.799 9.93209 122.974 9.51814C122.357 9.51814 121.327 9.31186 120.504 9.31186C117.415 9.31186 114.943 10.346 113.296 12.0019C111.648 13.8639 110.619 16.5532 110.619 19.4495C110.619 22.1395 111.648 24.6219 113.707 26.6909C115.149 28.5537 117.826 29.3809 120.71 29.3809C123.18 29.3809 125.445 28.5537 126.682 27.3119C128.328 26.277 129.154 24.6219 129.977 23.3807L127.712 22.1381ZM48.8404 3.31023C46.5755 1.03488 43.6924 0 39.5737 0C33.8075 0 28.4532 1.86209 23.7171 5.3793C19.3928 9.31047 16.9216 13.6556 15.8916 18.6202C15.4797 20.0691 15.2734 21.104 15.2734 22.1374C15.2734 26.6888 16.9209 29.7921 19.3921 32.4828C22.0689 34.7588 25.3639 36 29.4826 36C31.9538 36 34.0131 35.586 36.2781 35.1728C38.1311 34.5512 40.603 33.1037 42.0442 32.0688C44.3092 30.2061 43.0736 29.5865 41.4261 30.62C40.6023 31.2416 38.1311 32.6891 36.4837 32.896C35.0418 33.1037 32.9824 33.5163 30.7175 33.5163C27.2163 33.5163 24.5394 32.6891 22.2745 30.62C20.2152 28.5509 19.3914 26.0686 19.3914 22.5514C19.3914 21.3102 19.3914 20.2754 19.597 19.2412C20.4208 14.4821 22.6857 10.7579 25.9806 7.44768C29.6875 4.13744 33.8062 2.48233 38.7479 2.48233C42.0428 2.48233 44.5141 3.30954 46.3671 5.17233C48.0146 6.82744 49.0439 9.31046 49.0439 12.0005C48.8376 16.1386 47.8083 19.4481 46.3671 21.3109C44.5141 24.0009 43.0722 24.6212 42.8659 24.6212C42.2484 24.6212 42.2484 24.4149 42.2484 24.4149C42.2484 23.38 43.0722 20.4837 43.2778 19.4488L46.3664 9.51814C46.3664 9.31186 46.3664 9.10418 45.7483 9.10418H41.8359C41.424 9.10418 40.6003 9.31116 40.394 10.1391L39.9821 10.967C38.5409 17.1742 34.6285 21.1053 33.5985 22.1388C31.951 23.794 30.7161 24.4149 30.3035 24.4149C29.6861 24.4149 29.6861 24.0009 29.6861 23.5877C29.6861 23.38 29.6861 22.966 29.8917 21.7249L33.1866 13.6556C33.8048 12.6214 33.8048 11.3795 33.8048 10.9663C33.8048 9.51744 32.981 8.48326 31.3336 8.48326C29.6861 8.48326 27.0086 9.10419 23.9199 11.7942C22.6843 13.4493 22.2724 14.2765 22.2724 14.2765C22.2724 14.6905 22.8899 14.6905 22.8899 14.6905C23.3018 14.6905 23.9199 13.8632 24.5374 13.4493C25.3611 12.6221 26.3904 11.3802 27.2142 11.3802C27.8316 11.3802 27.8316 11.7942 27.8316 12.0012C27.8316 12.2081 27.4198 12.8284 27.2142 13.6563L24.743 19.2426C24.3311 20.4837 23.0955 22.966 23.0955 25.2428C23.0955 27.9328 25.1548 28.553 26.1848 28.553C28.8616 28.553 33.5978 26.0707 37.7172 18.8293L37.0997 20.6907C36.8934 21.9332 36.2753 24.4156 36.2753 26.277C36.2753 26.8986 36.2753 28.553 38.1284 28.553C42.247 28.553 45.3357 25.4491 46.9839 23.5884C49.0432 20.6907 50.8963 18.0014 51.1026 15.5191C51.5144 13.657 51.5144 12.2088 51.5144 11.174C51.5179 7.65535 50.8998 5.17233 48.8404 3.31023Z" fill="#1E1E1E"/>
<path fill-rule="evenodd" clip-rule="evenodd" d="M48.8404 3.31023C46.5755 1.03488 43.6924 0 39.5737 0C33.8075 0 28.4532 1.86209 23.7171 5.3793C19.3928 9.31047 16.9216 13.6556 15.8916 18.6202C15.4797 20.0691 15.2734 21.104 15.2734 22.1374C15.2734 26.6888 16.9209 29.7921 19.3921 32.4828C22.0689 34.7588 25.3639 36 29.4826 36C31.9538 36 34.0131 35.586 36.2781 35.1728C38.1311 34.5512 40.603 33.1037 42.0442 32.0688C44.3092 30.2061 43.0736 29.5865 41.4261 30.62C40.6023 31.2416 38.1311 32.6891 36.4837 32.896C35.0418 33.1037 32.9824 33.5163 30.7175 33.5163C27.2162 33.5163 24.5394 32.6891 22.2745 30.62C20.2152 28.5509 19.3914 26.0686 19.3914 22.5514C19.3914 21.3102 19.3914 20.2754 19.597 19.2412C20.4208 14.4821 22.6857 10.7579 25.9806 7.44768C29.6875 4.13744 33.8062 2.48233 38.7479 2.48233C42.0428 2.48233 44.5141 3.30954 46.3671 5.17233C48.0146 6.82744 49.0439 9.31046 49.0439 12.0005C48.8376 16.1386 47.8083 19.4481 46.3671 21.3109C44.5141 24.0009 42.8659 24.6212 42.8659 24.6212L42.2484 24.4149C42.2484 23.38 43.0722 20.4837 43.2778 19.4488L46.3664 9.51814C46.3664 9.31186 45.7483 9.10418 45.7483 9.10418H41.8359C41.424 9.10418 40.6003 9.31116 40.394 10.1391L39.9821 10.967C38.5409 17.1742 34.6285 21.1053 33.5985 22.1388C31.951 23.794 30.7161 24.4149 30.3035 24.4149C29.6861 24.4149 29.6861 23.5877 29.6861 23.5877C29.6861 23.5877 29.6861 22.966 29.8917 21.7249L33.1866 13.6556C33.8048 12.6214 33.8048 11.3795 33.8048 10.9663C33.8048 9.51744 32.981 8.48326 31.3336 8.48326C29.6861 8.48326 27.0086 9.10419 23.9199 11.7942C22.6843 13.4493 22.2724 14.2765 22.2724 14.2765C22.2724 14.6905 22.8899 14.6905 22.8899 14.6905C23.3018 14.6905 23.9199 13.8632 24.5374 13.4493C25.3611 12.6221 26.3904 11.3802 27.2142 11.3802C27.8316 11.3802 27.8316 12.0012 27.8316 12.0012C27.8316 12.0012 27.4198 12.8284 27.2142 13.6563L24.743 19.2426C24.3311 20.4837 23.0955 22.966 23.0955 25.2428C23.0955 27.9328 25.1548 28.553 26.1848 28.553C28.8616 28.553 33.5978 26.0707 37.7172 18.8293L37.0997 20.6907C36.8934 21.9332 36.2753 24.4156 36.2753 26.277C36.2753 26.8986 36.2753 28.553 38.1283 28.553C42.247 28.553 45.3357 25.4491 46.9839 23.5884C49.0432 20.6907 50.8963 18.0014 51.1026 15.5191C51.5144 13.657 51.5144 12.2088 51.5144 11.174C51.5179 7.65535 50.8998 5.17233 48.8404 3.31023Z" fill="#404046" fill-opacity="0.6"/>
<path fill-rule="evenodd" clip-rule="evenodd" d="M0.03125 9.93099V12.0001C0.443119 12.0001 0.649401 12.0001 1.26686 12.207C1.47244 12.207 1.88501 12.621 2.0906 12.828C2.0906 13.2419 2.29618 13.2419 2.29618 13.4489V25.2417C2.29618 25.448 2.0906 25.8619 2.0906 26.0689C1.88501 26.0689 1.47244 26.2752 1.26686 26.6891H0.03125V28.7589H13.4173C14.4467 28.7589 15.2704 28.5512 16.0941 28.1373C16.9179 27.931 17.7416 27.1024 18.1528 26.6884C18.7709 25.8612 19.1828 24.6194 19.1828 23.3782C19.1828 22.551 19.1828 21.9308 18.7709 21.3091C18.5654 20.4819 17.9472 20.068 17.3298 19.4463C16.9179 18.6191 15.8879 17.9982 14.653 17.9982C13.4173 17.5849 11.5643 17.171 9.71052 17.171H7.23931V13.6538C7.23931 13.4468 7.23931 13.2398 7.65118 12.8266L7.85676 12.6196C8.06305 12.2056 8.47491 12.2056 8.88678 12.2056H9.50424C11.1517 12.2056 12.7992 12.6196 13.4173 13.4468C14.4467 13.8608 15.2704 15.1019 16.0941 16.5501L17.9472 15.5159L15.8879 9.9296H0.03125V9.93099ZM7.23931 20.0687H9.50424C10.7398 20.0687 11.9755 20.275 12.5929 20.4826C13.4173 21.1042 13.6222 21.9315 13.6222 22.9649C13.6222 23.7922 13.4166 24.4138 13.0048 25.241C12.7992 25.4473 12.181 25.8612 11.5636 26.0682C11.1517 26.2745 10.5336 26.2745 9.71052 26.2745C8.88678 26.2745 8.6812 26.2745 8.06304 26.0682C7.65118 26.0682 7.23931 25.4466 7.23931 25.0333V20.0687ZM53.5728 20.2749H57.2797C57.8971 20.4826 58.309 20.6889 58.7209 21.1035C58.9265 21.7238 59.1327 22.137 59.1327 22.9649C59.1327 23.9998 58.9265 25.034 58.1027 25.4473C57.6908 26.2745 56.4552 26.6884 55.014 26.8961C54.3966 26.8961 53.7784 26.6884 53.161 26.6884C52.9554 26.2745 52.7491 26.2745 52.3372 26.0682C52.131 25.8605 51.9254 25.4466 51.9254 25.241C51.5135 25.0333 51.5135 24.6194 51.5135 24.4138C51.5135 24.4138 51.5135 23.9998 51.9254 23.7922V22.9649C51.9254 22.5517 51.5135 22.1377 51.3079 21.7238C51.1016 21.1035 50.2779 20.6889 49.4542 20.6889C48.6304 20.6889 48.013 21.3105 47.6011 21.9315C47.1892 22.1377 46.9836 22.9649 46.9836 23.7929C46.9836 25.2417 47.8074 26.6891 49.043 27.724C50.4842 28.7589 52.9554 29.3791 55.8385 29.3791C59.1334 29.3791 61.3984 28.7589 62.8402 27.3101C64.0759 26.2752 64.6933 25.034 64.6933 23.3789C64.6933 22.1377 64.4877 21.1042 63.664 20.2749C62.8402 19.2415 61.6046 18.8275 60.1635 18.6198H60.369C61.3984 18.4136 62.2221 17.7926 63.0458 17.1724C63.8703 16.5515 64.0752 15.5173 64.0752 14.4824C64.0752 13.2405 63.6633 11.7924 62.2221 10.9652C61.1928 9.9303 59.1334 9.31006 56.8678 9.31006C55.6322 9.31006 54.6029 9.51634 53.7791 9.51634C52.9554 9.9303 52.1317 10.1373 51.3079 10.3443L51.1016 9.9303H48.6304L48.0123 15.5166L50.8954 15.9305C51.1009 15.3096 51.3072 14.4824 52.131 13.4475C52.7491 13.2405 53.1603 12.6203 53.7784 12.2063C54.3966 11.9994 55.014 11.7924 55.6315 11.7924C57.0734 11.9994 57.8964 12.2063 58.3083 12.8266C58.7202 13.2405 58.9264 13.4475 58.9264 13.6538C58.9264 13.8601 59.1327 14.2747 59.1327 14.4817C58.9265 15.3089 58.9265 15.9298 58.7209 16.1368C58.1027 16.7577 57.8971 16.964 57.2797 16.964C56.8678 17.171 56.2496 17.5849 55.6322 17.5849H53.5722L53.5728 20.2749Z" fill="#1E1E1E"/>
<path fill-rule="evenodd" clip-rule="evenodd" d="M58.5551 3.16338H59.1469V7.61546H58.5551V4.00935L56.2333 7.61546H55.6484V3.16338H56.2333V6.7438L58.5551 3.16338ZM66.7675 7.61546H66.1827V3.16338H66.7675V5.02062H68.9623V3.16338H69.5471V7.61546H68.9623V5.52278H66.7675V7.61546ZM78.5353 7.1133H78.2873C78.1818 7.1133 78.0512 7.10427 77.8991 7.0876C77.7386 7.06908 77.5807 7.03298 77.4282 6.97995C77.149 6.88202 76.8927 6.71046 76.6614 6.46459C76.4301 6.21872 76.3141 5.84574 76.3141 5.34497C76.3141 4.84003 76.4322 4.46428 76.6683 4.21632C76.9031 3.96837 77.1636 3.79959 77.4469 3.71069C77.6046 3.65999 77.7546 3.62595 77.9012 3.60928C78.0477 3.59262 78.1762 3.58359 78.2867 3.58359H78.5346V2.90918H79.1194V3.58359H79.3611C79.4709 3.58359 79.6 3.59123 79.7466 3.60581C79.8931 3.6204 80.0425 3.65304 80.1946 3.70444C80.4793 3.79334 80.7412 3.96142 80.9801 4.20729C81.2204 4.45317 81.3399 4.83239 81.3399 5.34566C81.3399 5.8249 81.2329 6.18607 81.0155 6.43056C80.7995 6.67434 80.5627 6.84729 80.3036 6.94869C80.1279 7.01695 79.9442 7.06292 79.757 7.08552C79.5834 7.10427 79.4521 7.114 79.3625 7.114H79.1208V7.78146H78.536L78.5353 7.1133ZM78.5353 4.0538H78.37C77.9158 4.0538 77.59 4.13576 77.3935 4.29898C77.1969 4.4622 77.0677 4.64139 77.008 4.83587C76.9807 4.92397 76.9616 5.01442 76.951 5.10605C76.9354 5.26236 76.9345 5.41978 76.9483 5.57626C76.9552 5.65891 76.9698 5.74503 76.9955 5.83394C77.0552 6.03744 77.1837 6.22289 77.381 6.39027C77.5782 6.55766 77.9074 6.6417 78.37 6.6417H78.5353V4.0538ZM79.2854 6.6424C79.3653 6.6424 79.4549 6.63823 79.5528 6.6292C79.6556 6.62016 79.7575 6.60321 79.8577 6.57849C80.0737 6.51946 80.2717 6.40069 80.4495 6.22219C80.6273 6.04369 80.7169 5.75128 80.7169 5.34428C80.7169 4.94144 80.6259 4.65111 80.4453 4.47331C80.2818 4.30483 80.0771 4.18201 79.8515 4.117C79.7501 4.09131 79.6508 4.07464 79.5528 4.0663C79.4549 4.05797 79.3653 4.0531 79.2854 4.0531H79.1201V6.6417L79.2854 6.6424ZM89.9398 7.74882C89.2696 7.74465 88.7556 7.53073 88.3972 7.10705C88.0388 6.68268 87.8604 6.11037 87.8604 5.39012C87.8604 4.54624 88.0708 3.94198 88.4896 3.57734C88.8881 3.22078 89.4052 3.02563 89.9398 3.03003C90.4962 3.03003 90.9803 3.2127 91.397 3.57734C91.8123 3.94198 92.0193 4.54624 92.0193 5.39012C92.0193 6.11453 91.8401 6.68823 91.4824 7.11052C91.1247 7.53281 90.6101 7.74326 89.9398 7.74326V7.74882ZM89.9398 7.24666C90.4448 7.24666 90.8136 7.07302 91.047 6.72574C91.2803 6.37847 91.397 5.93256 91.397 5.39012C91.397 4.87684 91.3157 4.49206 91.1539 4.23577C90.9942 3.97948 90.815 3.80029 90.6205 3.69819C90.4995 3.63142 90.3683 3.58518 90.2322 3.56136C90.1353 3.54494 90.0374 3.53543 89.9391 3.53289C89.8711 3.53289 89.7995 3.53705 89.7231 3.54539C89.6451 3.55406 89.5682 3.57129 89.4939 3.59678C89.239 3.66902 89.0071 3.8371 88.798 4.10242C88.5876 4.36774 88.482 4.79697 88.482 5.39012C88.482 5.49152 88.4889 5.61029 88.5021 5.74642C88.5146 5.88186 88.5403 6.02146 88.5778 6.16593C88.6501 6.4375 88.7883 6.68546 88.9918 6.9098C89.1967 7.13414 89.5113 7.24666 89.9398 7.24666Z" fill="#404046" fill-opacity="0.6"/>
</svg>
