<svg width="106" height="28" viewBox="0 0 106 28" fill="none" xmlns="http://www.w3.org/2000/svg">
<path d="M0 15.6565C1.98627 14.279 3.81236 12.7198 5.55301 11.0433C7.82761 8.85409 9.94203 6.53678 11.7361 3.94181C11.7574 3.90978 11.7788 3.88842 11.8215 3.8457C12.1739 4.33693 12.5156 4.8068 12.8787 5.27667C14.3738 7.25226 16.061 9.06767 17.8337 10.7976C19.5957 12.5169 21.4539 14.1295 23.4935 15.5284C23.6857 15.6565 23.6003 15.6993 23.4722 15.7954C19.4889 18.6146 16.061 22.0318 13.0282 25.8442C12.6117 26.3674 12.238 26.9121 11.8322 27.4674C11.5225 27.0402 11.2342 26.6237 10.9245 26.2179C7.87033 22.2774 4.36766 18.7748 0.309687 15.8701C0.224256 15.806 0.149504 15.7099 0.0213574 15.7099C-3.26212e-07 15.6993 0 15.6779 0 15.6565Z" fill="#5B5A5C"/>
<path d="M65.4117 0C65.4437 0.085431 65.5398 0.0640734 65.6039 0.09611C66.3514 0.384439 66.7465 1.09992 66.597 1.87948C66.4475 2.64836 65.7961 3.16095 64.9952 3.13959C64.237 3.11823 63.6176 2.56293 63.5002 1.78337C63.3827 1.05721 63.8526 0.320367 64.5894 0.0747526C64.6428 0.0533948 64.7069 0.0747527 64.7282 0.0106795C64.9525 6.51627e-07 65.1768 0 65.4117 0ZM78.3011 27.9786C77.7458 27.7971 77.2652 27.5195 76.9876 26.9641C76.4964 25.9817 76.9342 24.7857 77.938 24.3692C78.9952 23.9313 80.2126 24.4653 80.5436 25.4905C80.896 26.5797 80.2874 27.6583 79.1768 27.9359C79.1447 27.9466 79.1127 27.968 79.0806 27.9786H78.3011ZM78.7069 27.2418C79.3263 27.2525 79.7854 26.7826 79.7961 26.1312C79.8068 25.4905 79.3263 24.9672 78.7176 24.9672C78.0982 24.9565 77.639 25.4264 77.6283 26.0778C77.6176 26.7292 78.0875 27.2418 78.7069 27.2418ZM85.819 27.9786C85.8083 27.9146 85.7443 27.9252 85.7122 27.9146C85.1249 27.6903 84.8686 27.3165 84.922 26.7079C84.9647 26.1953 85.3491 25.8215 85.9258 25.7254C86.3316 25.6506 86.7374 25.6613 87.1218 25.7681C87.3568 25.8322 87.3781 25.7361 87.3461 25.5545C87.2927 25.2449 87.0257 25.0313 86.652 24.9992C86.3102 24.9672 85.9685 25.0099 85.6588 25.1381C85.4773 25.2128 85.4239 25.1594 85.3705 24.9992C85.2103 24.508 85.1996 24.508 85.7122 24.3692C86.2141 24.2304 86.716 24.1983 87.2179 24.3265C87.8266 24.4867 88.1577 24.9352 88.1897 25.6613C88.2111 26.3555 88.1897 27.0496 88.2004 27.7544C88.2004 27.8825 88.1577 27.9466 88.0189 27.9359C87.9334 27.9252 87.848 27.9359 87.7626 27.9359C87.5169 27.9359 87.2073 28.0107 87.3781 27.5088C87.1111 27.7864 86.8228 27.8719 86.5559 28C86.2996 27.9786 86.0539 27.9786 85.819 27.9786ZM86.6092 26.2166C86.385 26.2166 86.1714 26.2487 85.9792 26.3661C85.6588 26.5584 85.6375 27.0175 85.9258 27.2311C86.3209 27.5195 87.0684 27.3486 87.2927 26.9108C87.4742 26.5584 87.3781 26.3448 87.0044 26.27C86.8762 26.2487 86.7374 26.238 86.6092 26.2166ZM95.1417 27.9786C94.8427 27.8398 94.5223 27.733 94.266 27.4981C93.6573 26.9214 93.4864 25.9924 93.8602 25.2449C94.2553 24.4653 95.163 24.0595 96.06 24.2624C96.8503 24.4439 97.459 25.1381 97.5124 25.9283C97.5658 26.8467 97.0639 27.5942 96.2202 27.8932C96.1455 27.9146 96.0494 27.9039 95.996 27.9786H95.1417ZM94.5116 26.0992C94.5116 26.7612 94.9815 27.2525 95.6009 27.2418C96.2202 27.2418 96.6687 26.7612 96.6687 26.1098C96.6687 25.4584 96.1989 24.9672 95.5688 24.9672C94.9494 24.9672 94.5116 25.4371 94.5116 26.0992ZM54.6687 27.9786L54.2843 27.8185C53.3766 27.402 52.9815 26.27 53.4086 25.2876C53.8038 24.3799 54.8076 23.9741 55.7153 24.3478C56.388 24.6255 56.8899 25.5866 56.7511 26.2807C56.7191 26.4516 56.6016 26.3875 56.5055 26.3875C55.7793 26.3875 55.0532 26.3982 54.327 26.3875C54.1134 26.3875 54.0707 26.4302 54.1455 26.6331C54.4018 27.2952 55.2134 27.4981 55.8541 27.0496C55.9395 26.9855 56.0143 26.8253 56.1211 26.9001C56.2813 26.9962 56.4201 27.135 56.5375 27.2738C56.6016 27.3486 56.4842 27.402 56.4414 27.4554C56.2065 27.7223 55.8648 27.8291 55.5551 27.9786H54.6687ZM55.0105 25.8429C55.2454 25.8429 55.4803 25.8322 55.7153 25.8429C55.8755 25.8535 55.9288 25.8215 55.8755 25.64C55.7473 25.1701 55.4376 24.9138 54.9891 24.9245C54.562 24.9352 54.2309 25.2342 54.1134 25.672C54.0707 25.8322 54.1348 25.8429 54.2629 25.8429C54.5192 25.8322 54.7649 25.8429 55.0105 25.8429ZM40.5406 27.9786C39.7931 27.7223 39.5795 27.135 39.5795 26.4088C39.5902 25.7895 39.5902 25.1701 39.5795 24.5507C39.5795 24.3585 39.6115 24.2838 39.8251 24.2944C40.4338 24.2944 40.4445 24.2838 40.4445 24.9138V26.3555C40.4552 26.9001 40.7115 27.1991 41.1707 27.2098C41.6726 27.2204 41.9822 26.9321 42.0036 26.3875C42.025 25.7681 42.0143 25.1487 42.0036 24.5294C42.0036 24.3585 42.0463 24.3051 42.2172 24.3051C42.8579 24.3051 42.8579 24.2944 42.8579 24.9245C42.8579 25.8429 42.8472 26.7719 42.8579 27.6903C42.8579 27.8932 42.8045 27.968 42.6016 27.9359H42.5162C42.025 27.9359 42.025 27.9359 41.9716 27.434C41.7687 27.7117 41.491 27.8612 41.2134 28C40.9891 27.9786 40.7649 27.9786 40.5406 27.9786ZM58.3957 27.9786C58.086 27.8291 57.7443 27.7651 57.4559 27.5728C57.3171 27.4767 57.253 27.3913 57.3812 27.2525L57.4452 27.1564C57.5627 26.9214 57.6802 26.8467 57.9258 27.0282C58.2141 27.2311 58.5559 27.3272 58.9189 27.2952C59.1218 27.2738 59.3141 27.2204 59.3674 26.9748C59.4102 26.7292 59.2286 26.6331 59.0578 26.569C58.7801 26.4622 58.4811 26.3875 58.2035 26.2807C57.6375 26.0671 57.3812 25.6934 57.4559 25.1915C57.5307 24.6575 57.9472 24.2838 58.5238 24.2304C59.0044 24.1876 59.4529 24.2944 59.8907 24.508C60.0509 24.5934 60.1043 24.6789 59.9868 24.8284C59.9655 24.8497 59.9548 24.8711 59.9441 24.9031C59.8587 25.1915 59.6985 25.2449 59.4315 25.0847C59.1752 24.9245 58.8762 24.8604 58.5665 24.9245C58.4063 24.9565 58.2889 25.0313 58.2568 25.2021C58.2248 25.373 58.3316 25.4798 58.4704 25.5332C58.6733 25.6293 58.8869 25.6934 59.1005 25.7681C59.25 25.8215 59.3995 25.8749 59.549 25.939C60.0402 26.1739 60.2218 26.4729 60.179 26.9641C60.1363 27.4127 59.848 27.7437 59.3888 27.8932C59.3141 27.9146 59.2179 27.8825 59.1539 27.968C58.8869 27.9786 58.6413 27.9786 58.3957 27.9786ZM61.7916 27.9786C61.4819 27.8612 61.1508 27.7864 60.8625 27.6049C60.6703 27.4874 60.5848 27.3913 60.7664 27.1991C60.8091 27.1564 60.8411 27.0923 60.8732 27.0389C60.9479 26.8787 61.0227 26.868 61.1722 26.9641C61.4819 27.167 61.8236 27.3059 62.1973 27.2952C62.3041 27.2952 62.4002 27.2738 62.4964 27.2311C62.6245 27.1777 62.7099 27.0816 62.7099 26.9321C62.7099 26.7933 62.6459 26.6972 62.5284 26.6331C62.2614 26.4836 61.9624 26.4302 61.6741 26.3341C61.2896 26.1953 60.9159 26.0244 60.8091 25.5652C60.6703 24.9138 61.0867 24.3265 61.7809 24.241C62.2935 24.177 62.774 24.2838 63.2225 24.5187C63.3827 24.6041 63.4041 24.6895 63.2973 24.8177C63.2866 24.8284 63.2866 24.8391 63.2866 24.8391C63.0837 25.2128 63.0837 25.2128 62.7099 25.042C62.443 24.9245 62.176 24.8497 61.8877 24.9031C61.7275 24.9352 61.5993 25.0099 61.5673 25.1701C61.5246 25.3516 61.642 25.4478 61.7916 25.5225C61.9411 25.5973 62.1012 25.6506 62.2614 25.704C62.4643 25.7788 62.6672 25.8429 62.8701 25.9283C63.2652 26.1098 63.5109 26.4088 63.4895 26.8787C63.4681 27.3593 63.2225 27.669 62.7954 27.8505C62.6993 27.8932 62.5925 27.8718 62.5177 27.9573C62.2828 27.9786 62.0372 27.9786 61.7916 27.9786ZM44.716 27.9786C44.4064 27.8505 44.0753 27.7757 43.787 27.5942C43.6161 27.4874 43.52 27.3913 43.6909 27.2098C43.7015 27.1991 43.7015 27.1991 43.7015 27.1884C43.9044 26.868 43.9044 26.868 44.2462 27.0496C44.5452 27.2098 44.8442 27.3165 45.1859 27.2952C45.4102 27.2738 45.6131 27.2098 45.6451 26.9641C45.6771 26.7292 45.4956 26.6331 45.3141 26.569C45.0364 26.4729 44.7588 26.3875 44.4918 26.2914C43.9044 26.0778 43.6802 25.7468 43.7443 25.1915C43.787 24.7109 44.1821 24.3265 44.7267 24.2517C45.25 24.177 45.7305 24.2944 46.2004 24.54C46.3392 24.6148 46.3499 24.6789 46.2752 24.8177C46.0509 25.2128 46.0616 25.2128 45.6344 25.0526C45.3781 24.9458 45.1218 24.8818 44.8335 24.9245C44.6733 24.9565 44.5452 25.0313 44.5238 25.2021C44.5025 25.373 44.5986 25.4798 44.7267 25.5332C44.9296 25.6186 45.1432 25.6934 45.3568 25.7681C45.5063 25.8215 45.6558 25.8749 45.8053 25.939C46.2752 26.1632 46.4781 26.4836 46.4353 26.9321C46.3926 27.4127 46.0936 27.7651 45.6237 27.9039C45.549 27.9252 45.4529 27.8932 45.3888 27.968C45.1752 27.9786 44.9403 27.9786 44.716 27.9786ZM82.3697 27.9786C82.327 27.6049 82.1241 27.2952 81.996 26.9535C81.6756 26.1419 81.3446 25.3303 81.0028 24.5294C80.9281 24.3478 80.9388 24.2944 81.1523 24.2944C81.8144 24.2944 81.8144 24.2838 82.0387 24.9138C82.2736 25.5545 82.5086 26.1953 82.7649 26.9108C82.9571 26.3875 83.1386 25.9176 83.3095 25.4477C83.4269 25.1167 83.5551 24.7963 83.6619 24.4653C83.7046 24.3371 83.7687 24.2838 83.9075 24.2944C84.1317 24.3051 84.356 24.2944 84.623 24.2944C84.3026 25.0847 84.0036 25.8429 83.6939 26.5904C83.5017 27.0603 83.3522 27.5408 83.0959 27.9786H82.3697ZM90.0585 27.9786C89.4178 27.7117 89.279 27.4981 89.279 26.7826V25.2342C89.279 25.0847 89.2469 24.9992 89.0761 25.0206C88.8518 25.0526 88.7877 24.9565 88.8198 24.7536C88.8304 24.6789 88.8304 24.6041 88.8198 24.5294C88.7984 24.3692 88.8411 24.2731 89.0333 24.3051C89.2362 24.3371 89.3003 24.241 89.279 24.0488C89.2683 23.9741 89.2683 23.8993 89.279 23.8246C89.2896 23.6537 89.1935 23.4081 89.3217 23.344C89.5246 23.2265 89.8022 23.3013 90.0372 23.312C90.1546 23.312 90.1226 23.4188 90.1226 23.4828C90.1226 23.6857 90.1333 23.878 90.1226 24.0809C90.1119 24.2517 90.1546 24.3265 90.3362 24.3051C90.443 24.2944 90.5604 24.2944 90.6779 24.3051C90.806 24.3158 91.0196 24.2197 91.0623 24.3585C91.1264 24.54 91.0837 24.7536 91.073 24.9458C91.073 25.0313 90.9769 25.0206 90.9128 25.0206C90.7206 25.0206 90.5391 25.0313 90.3469 25.0206C90.1546 24.9992 90.1119 25.0847 90.1119 25.2662C90.1226 25.7254 90.1119 26.1846 90.1119 26.6545C90.1119 27.1457 90.3041 27.3165 90.7847 27.1884C91.0303 27.1243 91.0837 27.167 91.073 27.4127C91.0517 27.8185 91.073 27.8185 90.5604 27.9893C90.3896 27.9786 90.2187 27.9786 90.0585 27.9786ZM105.991 6.78108C105.821 6.79176 105.746 6.72769 105.756 6.53547C105.767 6.14035 105.756 5.74523 105.756 5.29672C105.564 5.58505 105.511 5.87338 105.404 6.12967C105.351 6.2685 105.308 6.418 105.244 6.54615C105.201 6.63158 105.212 6.75973 105.062 6.75973C104.913 6.75973 104.902 6.64226 104.87 6.55683C104.721 6.15103 104.571 5.75591 104.358 5.35011C104.358 5.72388 104.368 6.09764 104.358 6.4714C104.358 6.56751 104.454 6.75972 104.24 6.74905C104.037 6.73837 104.133 6.55683 104.133 6.46072C104.123 6.02288 104.123 5.57437 104.133 5.13654C104.133 5.04043 104.048 4.9016 104.24 4.86957C104.422 4.83753 104.507 4.91228 104.571 5.08314C104.699 5.46758 104.849 5.84134 104.988 6.2151C105.009 6.2685 105.03 6.31121 105.073 6.39664C105.233 5.98017 105.393 5.60641 105.511 5.21129C105.596 4.955 105.714 4.80549 106.002 4.84821C105.991 5.49962 105.991 6.14035 105.991 6.78108ZM41.2881 20.9306C36.6855 20.9413 33.044 17.3745 33.0547 12.6438C33.0547 7.9344 36.6962 4.30359 41.3629 4.30359C46.179 4.30359 49.6604 8.09458 49.6497 12.5904C49.639 17.2784 45.9761 20.9306 41.2881 20.9306ZM41.3522 18.7841C42.9433 18.7735 44.3316 18.2395 45.4636 17.0862C46.5101 16.0183 47.0547 14.7262 47.1722 13.2525C47.3324 11.2982 46.7984 9.55759 45.4208 8.1373C44.2141 6.88787 42.7084 6.30053 40.9678 6.418C39.2591 6.52479 37.8388 7.19756 36.803 8.59649C35.7031 10.0809 35.308 11.7574 35.5856 13.5515C35.9166 15.6979 36.9952 17.3532 39.0349 18.2822C39.761 18.6346 40.5406 18.7841 41.3522 18.7841ZM77.5108 20.9306C72.716 20.9626 69.2561 17.1716 69.2561 12.7292C69.2561 7.96644 72.8762 4.29291 77.5749 4.30359C82.2416 4.31426 85.851 7.94508 85.851 12.6438C85.8404 17.2998 82.0387 20.9626 77.5108 20.9306ZM77.6924 18.7841C78.3331 18.8162 79.102 18.6667 79.8388 18.3356C82.06 17.3318 83.1706 15.5378 83.3735 13.167C83.5337 11.341 83.0211 9.68574 81.7824 8.32952C80.3194 6.72769 78.4826 6.15103 76.3575 6.52479C74.9586 6.7704 73.7946 7.49657 72.9616 8.62853C71.8297 10.1556 71.488 11.9069 71.787 13.7864C72.2355 16.4455 74.5208 18.8162 77.6924 18.7841ZM88.2004 14.833C88.2004 13.2952 88.1684 11.7574 88.2111 10.2304C88.2431 8.88482 88.6062 7.63539 89.4178 6.53547C90.2187 5.44622 91.2973 4.77346 92.6001 4.4958C94.0417 4.18612 95.5047 4.16476 96.9464 4.4958C99.3171 5.05111 100.673 6.6209 101.186 8.97025C101.314 9.54691 101.357 10.1236 101.357 10.7109V19.4676C101.357 20.3646 100.556 20.9413 99.7443 20.6316C99.2851 20.4607 99.0395 20.119 98.9861 19.6384C98.9754 19.521 98.9754 19.3928 98.9754 19.2754C98.9754 16.5416 98.9861 13.8078 98.9754 11.0847C98.9647 9.97406 98.7191 8.91686 98.025 8.00915C96.9464 6.59954 94.8747 6.08696 93.1234 6.80244C91.6817 7.38978 90.9555 8.5431 90.6779 10.0168C90.5925 10.4653 90.5711 10.9138 90.5711 11.3623V19.4142C90.5711 20.087 90.2187 20.5675 89.642 20.685C88.8625 20.8452 88.1897 20.3005 88.1897 19.4889C88.179 17.9298 88.1897 16.3814 88.1897 14.8223C88.1897 14.833 88.1897 14.833 88.2004 14.833Z" fill="#5B5A5C"/>
<path d="M21.9039 7.44336C22.4058 8.1802 22.9398 8.87433 23.5057 9.5471C25.4066 11.7683 27.489 13.808 29.8917 15.4952C30.0519 15.6127 30.1266 15.6554 29.9024 15.8156C28.4821 16.7981 27.1899 17.9407 25.9512 19.1367C25.6095 19.4678 25.2464 19.7881 24.926 20.1512C23.9222 21.2511 22.9504 22.3617 22.0961 23.5898C22.0321 23.6752 21.968 23.7714 21.8932 23.8781C21.2739 22.9704 20.6118 22.1268 19.8963 21.3259C19.7361 21.1444 19.907 21.0696 19.9817 20.9842C20.7186 20.2153 21.4768 19.4784 22.267 18.763C23.4737 17.663 24.7338 16.6165 26.1221 15.6661C25.8978 15.5059 25.6949 15.3671 25.492 15.2176C23.4844 13.7653 21.669 12.078 19.939 10.3053C19.8536 10.2092 19.7681 10.1451 19.8856 10.0063C20.6224 9.19469 21.2952 8.35106 21.9039 7.44336Z" fill="#5B5A5C"/>
<path d="M54.6447 8.51048C55.0718 7.57074 55.6378 6.79118 56.3533 6.10774C57.3251 5.17868 58.4464 4.54862 59.8133 4.42048C60.4006 4.36708 60.8598 4.56998 61.0947 5.00781C61.3297 5.44565 61.2763 6.04366 60.9559 6.41742C60.7423 6.66304 60.4647 6.79118 60.1443 6.8339C59.0017 6.99408 57.9338 7.33581 57.0261 8.07265C56.0863 8.84153 55.4563 9.82398 55.0612 10.9666C54.6981 12.0025 54.5806 13.0704 54.5806 14.1596V19.4777C54.5806 20.033 54.2816 20.4708 53.8011 20.6417C53.3205 20.8125 52.8079 20.6737 52.4662 20.2893C52.2419 20.033 52.1885 19.7233 52.1885 19.3923C52.1885 15.2168 52.1992 11.0414 52.1992 6.87662V5.71262C52.2099 5.01849 52.7118 4.48455 53.3739 4.47387C54.0467 4.46319 54.5699 4.99713 54.5699 5.71262V8.16876C54.5806 8.27555 54.5486 8.37166 54.6447 8.51048ZM66.2099 12.6325V19.435C66.2099 20.1505 65.8255 20.6096 65.1847 20.6951C64.4906 20.7805 63.8926 20.3 63.8392 19.6058C63.8285 19.5311 63.8285 19.4563 63.8285 19.3816V5.79805C63.8285 5.12528 64.2023 4.62337 64.7789 4.51659C65.5265 4.37776 66.1885 4.89035 66.1992 5.65922C66.2099 6.39607 66.1992 7.13291 66.1992 7.85907C66.1992 9.45022 66.1992 11.0414 66.2099 12.6325ZM37.9109 25.4045C38.007 25.4579 38.0924 25.5006 38.1672 25.5433C38.573 25.7569 38.7866 26.0879 38.7866 26.5685C38.7866 27.0597 38.5943 27.4228 38.1672 27.6577C37.8148 27.8499 37.441 27.9033 37.0566 27.914C36.3838 27.9247 35.7004 27.914 35.0276 27.9247C34.8461 27.9247 34.8033 27.8606 34.814 27.7004C34.8247 26.2374 34.8247 24.7851 34.814 23.3221C34.814 23.1619 34.8567 23.1192 35.0169 23.1192C35.711 23.1299 36.4052 23.1192 37.11 23.1299C37.3663 23.1299 37.6119 23.1939 37.8468 23.3007C38.6798 23.6958 38.7972 24.753 38.0604 25.3083C38.0177 25.3297 37.975 25.3617 37.9109 25.4045ZM36.544 27.1344C36.8323 27.1131 37.1741 27.1878 37.5051 27.0704C37.7934 26.9743 37.9429 26.7607 37.9429 26.483C37.9429 26.184 37.7721 26.0132 37.5051 25.9277C37.3876 25.8957 37.2702 25.8636 37.142 25.8636C36.7149 25.853 36.277 25.8636 35.8499 25.853C35.7111 25.853 35.647 25.8957 35.647 26.0452C35.6577 26.3442 35.6577 26.6432 35.647 26.9422C35.6363 27.1024 35.7111 27.1344 35.8499 27.1238C36.0635 27.1344 36.277 27.1344 36.544 27.1344ZM36.4159 23.8987V23.8881H35.8499C35.7111 23.8881 35.6363 23.9201 35.647 24.0696C35.6577 24.3579 35.647 24.6463 35.647 24.9453C35.647 25.0307 35.647 25.1161 35.7751 25.1161C36.2343 25.1054 36.6935 25.1695 37.1527 25.0841C37.5051 25.02 37.6866 24.7637 37.6653 24.454C37.6439 24.155 37.441 23.9521 37.0886 23.9094C36.8644 23.8881 36.6401 23.8987 36.4159 23.8987ZM99.1863 24.7637C99.4746 24.4647 99.7309 24.2832 100.073 24.2298C100.884 24.1123 101.536 24.5929 101.568 25.4045C101.6 26.184 101.578 26.9636 101.578 27.7538C101.578 27.7858 101.589 27.8286 101.568 27.8392C101.354 28.0208 101.108 27.882 100.874 27.914C100.713 27.9353 100.724 27.8179 100.724 27.7111V26.0132C100.724 25.8957 100.724 25.7889 100.713 25.6714C100.66 25.2443 100.404 24.988 99.9979 24.9773C99.5707 24.9666 99.261 25.2229 99.1969 25.6501C99.1863 25.7569 99.1756 25.853 99.1756 25.9598V27.2839C99.1756 27.9674 99.1756 27.9674 98.4815 27.914C98.364 27.9033 98.3106 27.8713 98.3106 27.7538V24.4434C98.3106 24.2298 98.4601 24.2618 98.5669 24.2939C98.7698 24.3472 99.0368 24.123 99.1756 24.4327C99.2076 24.5074 99.1863 24.6035 99.1863 24.7637ZM69.4029 24.7637C69.6378 24.5074 69.8621 24.3152 70.1718 24.2511C71.0581 24.0482 71.7416 24.5715 71.7843 25.5006C71.8163 26.2481 71.795 26.9849 71.795 27.7324C71.795 27.8606 71.7629 27.914 71.6241 27.9247C70.9513 27.9674 70.9513 27.9781 70.9513 27.316C70.9513 26.8034 70.9727 26.2801 70.9406 25.7675C70.8979 25.1054 70.3213 24.7958 69.7873 25.1054C69.4883 25.2763 69.3922 25.5646 69.3922 25.8957C69.3922 26.483 69.3815 27.0597 69.3922 27.647C69.3922 27.8606 69.3602 27.946 69.1252 27.9353C68.5379 27.9247 68.5379 27.9354 68.5379 27.3373V24.5395C68.5379 24.3579 68.5699 24.2725 68.7728 24.3045C68.8262 24.3152 68.8903 24.3045 68.9437 24.3045C69.3495 24.2939 69.3495 24.2939 69.4029 24.7637ZM73.6317 24.753C73.8346 24.5181 74.0696 24.3259 74.3686 24.2511C75.2549 24.0376 75.949 24.5501 76.0024 25.5006C76.0451 26.2374 76.0131 26.9849 76.0131 27.7324C76.0131 27.8606 75.9811 27.914 75.8422 27.9247C75.1802 27.9674 75.1802 27.9781 75.1802 27.2946C75.1802 26.7607 75.2229 26.2267 75.1588 25.6928C75.0947 25.2016 74.8278 24.9773 74.3792 24.988C73.9521 25.0093 73.6317 25.319 73.621 25.7782C73.6104 26.4083 73.6104 27.0383 73.621 27.6684C73.621 27.8606 73.5676 27.9247 73.3754 27.9247C72.7667 27.914 72.7667 27.9247 72.7667 27.3267C72.7667 26.4083 72.7774 25.4792 72.7561 24.5608C72.7561 24.3259 72.8308 24.2618 73.0444 24.2939H73.0978C73.5676 24.2939 73.5676 24.2939 73.6317 24.753ZM50.0848 24.7744C50.3945 24.39 50.7576 24.1977 51.2061 24.2084C51.9109 24.2191 52.4235 24.6676 52.4448 25.3724C52.4769 26.1627 52.4555 26.9529 52.4662 27.7431C52.4662 27.8072 52.4769 27.9033 52.3914 27.9033C52.1565 27.914 51.9216 27.914 51.6866 27.9033C51.5692 27.8926 51.6119 27.7645 51.6119 27.6897C51.6119 27.0383 51.6226 26.3869 51.6012 25.7462C51.5905 25.1482 51.0459 24.8064 50.512 25.0521C50.213 25.1909 50.0741 25.4365 50.0635 25.7462C50.0528 26.3656 50.0421 26.9849 50.0528 27.6043C50.0528 27.8286 50.0101 27.914 49.7644 27.914C49.2091 27.8926 49.2091 27.914 49.2091 27.348V24.5288C49.2091 24.3579 49.2412 24.2618 49.4441 24.2939C49.4975 24.3045 49.5615 24.2939 49.6149 24.2939C50.0421 24.2939 50.0421 24.2939 50.0848 24.7744ZM67.3739 25.5326C67.3739 26.2374 67.3632 26.9422 67.3739 27.647C67.3739 27.8499 67.3419 27.9247 67.1176 27.9247C66.5196 27.914 66.5196 27.9247 66.5196 27.316V23.3968C66.5196 23.1939 66.5516 23.1085 66.7866 23.1085C67.3739 23.1299 67.3739 23.1085 67.3739 23.6958V25.5326ZM48.1626 26.1199C48.1626 26.6432 48.1519 27.1771 48.1626 27.7004C48.1626 27.8606 48.1306 27.9247 47.949 27.9247C47.3083 27.9354 47.3083 27.9353 47.3083 27.3053C47.3083 26.3869 47.319 25.4685 47.3083 24.5395C47.3083 24.3472 47.351 24.2832 47.5539 24.2832C48.1626 24.2939 48.1626 24.2832 48.1626 24.9025V26.1199ZM91.9567 26.0879C91.9567 25.5646 91.9673 25.0307 91.9567 24.5074C91.9567 24.3366 91.9994 24.2832 92.1809 24.2832C92.8003 24.2832 92.8003 24.2725 92.8003 24.8919V27.6577C92.8003 27.8499 92.7469 27.914 92.544 27.914C91.9567 27.914 91.9567 27.914 91.9567 27.3267V26.0879ZM103.02 5.9262V5.58447C103.02 5.12528 103.02 5.12528 102.561 5.09324C102.486 5.08257 102.401 5.10392 102.401 4.98646C102.401 4.85831 102.497 4.86899 102.582 4.86899H103.735C103.821 4.86899 103.906 4.85831 103.906 4.98646C103.906 5.10392 103.821 5.08257 103.746 5.08257C103.287 5.1146 103.287 5.1146 103.287 5.57379V6.55625C103.287 6.65236 103.308 6.74847 103.159 6.74847C103.009 6.74847 103.031 6.65236 103.031 6.55625C103.02 6.36403 103.02 6.13977 103.02 5.9262ZM47.7675 22.9483C48.2053 22.9483 48.2053 22.9483 48.2053 23.3648C48.2053 23.7492 48.2053 23.7492 47.7675 23.7492C47.2869 23.7492 47.3083 23.7492 47.2869 23.29C47.2763 23.0124 47.351 22.8842 47.6393 22.9483C47.6714 22.959 47.7141 22.9483 47.7675 22.9483ZM92.3838 23.7492C91.914 23.7492 91.9139 23.7492 91.9139 23.3007C91.9139 22.9483 91.914 22.9483 92.3304 22.9483C92.8217 22.9483 92.8217 22.9483 92.8217 23.3968C92.8217 23.7492 92.8217 23.7492 92.3838 23.7492Z" fill="#5B5A5C"/>
</svg>
