<svg width="136" height="32" viewBox="0 0 136 32" fill="none" xmlns="http://www.w3.org/2000/svg">
<g clip-path="url(#clip0_386_737)">
<path d="M14.3711 0.127965C10.9341 0.459247 7.67646 1.92241 5.24707 4.22757C2.15511 7.14009 0.429688 11.1845 0.429688 15.5463C0.429688 22.5033 4.04617 28.1764 10.0921 30.6611C12.7009 31.7377 14.7024 32.069 18.0842 31.9586C20.6793 31.8758 22.3771 31.5997 24.3648 30.9509C25.5518 30.5644 28.3125 29.2669 28.3125 29.1013C28.3125 29.0461 28.0365 28.4111 27.6914 27.6795L27.0702 26.3406L26.2144 26.8237C24.0059 28.0246 21.9354 28.5353 18.7882 28.6458C13.9984 28.7976 10.796 27.7623 8.07676 25.1949C5.7992 23.0554 4.47408 20.2533 4.1704 16.9405C3.64588 11.3225 6.46177 6.3809 11.3482 4.31039C12.9632 3.63402 14.4125 3.37176 16.5106 3.38556C18.8158 3.39937 20.0305 3.66163 21.8249 4.55885C23.4675 5.37325 25.5242 7.40235 26.3524 9.03115C27.2497 10.7842 27.5533 12.0265 27.5533 13.9866C27.5533 15.7534 27.2773 16.9681 26.5871 18.3346C25.8003 19.8944 24.2267 21.3024 22.5151 22.0063C19.9477 23.0416 16.6073 22.9864 14.3987 21.8683C12.6595 20.9849 11.293 18.8177 11.0031 16.4988L10.9203 15.85H24.1715V14.4007C24.1715 9.81794 22.032 6.65697 18.3051 5.70453C17.2146 5.42847 14.73 5.42846 13.6257 5.71834C8.43565 7.05726 5.56455 13.5311 7.59364 19.3837C8.15958 21.0401 8.75313 21.9649 10.0921 23.3039C11.7899 25.0017 13.3497 25.8299 15.7238 26.2854C17.0904 26.5476 19.9891 26.5338 21.4246 26.2578C25.8141 25.4296 29.2235 22.3928 30.5625 18.1276C30.7419 17.5202 30.949 16.761 31.0042 16.4298L31.1008 15.85H32.7296V20.9849C32.7296 23.9526 32.7986 26.3958 32.8814 26.7409C33.2817 28.5077 34.7035 30.2193 36.4703 31.089C37.8507 31.7515 38.8997 32 40.3905 32C42.8337 32 44.6281 31.296 46.2017 29.7224C47.2784 28.6458 47.8029 27.7209 48.0376 26.4234C48.1342 25.8989 48.1894 23.221 48.1894 19.1352V12.6752H44.4625V25.7332L44.1036 26.451C43.4272 27.8176 42.1435 28.5491 40.3767 28.5491C39.4104 28.5491 39.1482 28.4939 38.4028 28.1212C37.5608 27.7071 37.1467 27.2792 36.6498 26.3406C36.4013 25.8851 36.3875 25.3882 36.3461 19.2595L36.3047 12.6752H31.087L31.0042 12.0127C30.6039 8.86551 29.2512 6.16004 27.0288 4.02052C24.6408 1.72916 21.7421 0.459247 18.1118 0.114162C16.483 -0.0376753 16.0689 -0.0376753 14.3711 0.127965ZM17.8358 8.87931C19.0919 9.32102 20.1685 10.6185 20.4308 12.0403L20.5412 12.6752H11.0721L11.2791 11.9437C11.6656 10.6599 12.4386 9.67991 13.5429 9.08636C14.592 8.52042 16.552 8.4238 17.8358 8.87931ZM55.7813 15.919V30.8957H57.0236V0.942365H55.7813V15.919ZM94.8448 2.11565V3.28894H97.6055V0.942365H94.8448V2.11565ZM64.0633 7.29192V13.0893H67.1967C70.7993 13.0893 71.7656 12.9651 72.7732 12.3578C73.7257 11.778 74.1398 11.0326 74.1398 9.87316C74.1398 8.71367 73.7395 7.92688 72.8837 7.38855L72.2211 6.97444L72.6076 6.61556C73.284 5.9806 73.4772 5.42846 73.422 4.31039C73.3806 3.44078 73.3254 3.23373 72.9527 2.77822C72.7318 2.48834 72.2349 2.10185 71.8484 1.9086C71.1858 1.57732 71.0892 1.56352 67.6246 1.52211L64.0633 1.4807V7.29192ZM70.1782 4.00672C70.896 4.37941 71.0064 4.98676 70.4957 5.59411C70.1644 5.9806 70.1368 5.9806 68.4252 6.02201L66.6859 6.07722V3.84108H68.2871C69.2258 3.84108 69.9987 3.91009 70.1782 4.00672ZM70.8269 8.57564C71.3377 8.8379 71.5861 9.41764 71.3791 9.91457C71.1168 10.5495 70.4128 10.7428 68.4114 10.7428H66.6859V8.39619H68.5908C69.8331 8.39619 70.6061 8.46521 70.8269 8.57564ZM88.0398 4.18616C85.8174 4.90394 85.3481 7.88547 87.2944 9.00354C87.6119 9.18299 88.3987 9.50046 89.0474 9.70751C90.3587 10.1216 90.5658 10.2458 90.5658 10.6185C90.5658 11.3087 89.0612 11.3087 87.6947 10.6185C87.2254 10.3839 86.7975 10.1906 86.7422 10.1906C86.687 10.1906 86.3972 10.5633 86.0935 11.0188C85.4723 11.9851 85.4723 11.9575 86.7975 12.6062C87.7913 13.0893 88.7851 13.2688 89.9446 13.1998C91.8633 13.0755 92.9124 12.1921 93.0228 10.6047C93.1332 9.08636 92.4568 8.35478 90.1931 7.56799C89.4891 7.31953 88.8128 7.00205 88.6747 6.85021C88.4401 6.58795 88.4401 6.56034 88.7575 6.31188C89.2407 5.91158 89.917 6.00821 91.3388 6.68457C91.601 6.8088 91.8357 6.89162 91.8633 6.86402C91.8909 6.83641 92.1256 6.42231 92.4016 5.95299L92.8986 5.08338L92.5673 4.86253C91.4492 4.13095 89.2545 3.79967 88.0398 4.18616ZM103.817 4.18616C103.555 4.31039 103.127 4.60026 102.892 4.83492L102.437 5.27663V4.11714H99.814V13.0893H102.437V10.4667C102.437 7.5956 102.533 7.08487 103.182 6.67077C103.596 6.3947 104.342 6.3671 104.783 6.60175C105.363 6.91923 105.473 7.49897 105.473 10.3977V13.0893H108.11L108.068 9.45905L108.027 5.81496L107.654 5.26282C107.102 4.42082 106.453 4.08954 105.28 4.02052C104.59 3.99291 104.162 4.03432 103.817 4.18616ZM112.789 4.21377C111.367 4.71069 110.346 5.87017 109.946 7.42996C109.325 9.85935 110.581 12.2749 112.817 13.0065C113.811 13.324 115.495 13.2964 116.42 12.9513C117.096 12.7028 118.311 11.8194 118.311 11.5986C118.311 11.5434 117.965 11.2121 117.565 10.8394L116.806 10.1906L116.088 10.6323C115.508 11.005 115.232 11.0879 114.584 11.0879C113.686 11.0879 113.203 10.8256 112.789 10.1492C112.637 9.90076 112.513 9.6661 112.513 9.59709C112.513 9.54187 113.921 9.50046 115.633 9.50046H118.766L118.697 8.4238C118.545 6.16004 117.551 4.72449 115.743 4.17236C114.901 3.9239 113.576 3.9377 112.789 4.21377ZM115.232 6.40851C115.578 6.62936 115.881 7.05726 116.033 7.52658L116.116 7.84406H114.321C113.148 7.84406 112.513 7.78884 112.513 7.70602C112.513 7.6232 112.596 7.38855 112.706 7.18149C113.231 6.17385 114.321 5.84257 115.232 6.40851ZM122.521 4.10334C121.126 4.47603 120.243 5.53889 120.243 6.87782C120.243 8.24436 121.002 8.98974 123.018 9.6385C124.274 10.0388 124.798 10.3149 124.798 10.5909C124.798 10.6461 124.674 10.8118 124.522 10.9498C124.122 11.3225 122.949 11.1707 121.886 10.6323C121.416 10.3839 120.988 10.1906 120.933 10.1906C120.768 10.1906 119.801 11.7228 119.87 11.9023C119.967 12.1645 121.223 12.7857 122.107 13.0203C124.246 13.5725 126.399 12.9513 126.951 11.6124C127.062 11.3639 127.145 10.7566 127.145 10.2735C127.145 9.45905 127.103 9.32102 126.703 8.87931C126.22 8.32718 125.654 8.0097 124.522 7.63701C123.321 7.25051 122.728 6.90543 122.728 6.60175C122.728 5.93919 123.86 5.91158 125.212 6.54654C126.068 6.94684 126.054 6.96064 126.675 5.73214C127.007 5.09718 127.007 5.04197 126.786 4.87633C125.958 4.28278 123.528 3.82727 122.521 4.10334ZM130.941 4.10334C129.988 4.338 129.091 5.05577 128.815 5.81496C128.594 6.3671 128.622 7.51278 128.856 7.96829C129.243 8.69987 129.947 9.15538 131.369 9.61089C132.114 9.85935 132.804 10.1078 132.887 10.163C133.177 10.3563 133.204 10.7152 132.942 10.9498C132.542 11.3087 131.382 11.1707 130.278 10.6323C129.795 10.3839 129.353 10.1906 129.326 10.1906C129.174 10.1906 128.235 11.7504 128.29 11.9023C128.387 12.1645 129.643 12.7857 130.527 13.0203C132.666 13.5725 134.819 12.9513 135.372 11.6124C135.482 11.3639 135.565 10.798 135.565 10.3563C135.565 9.01735 134.888 8.28577 133.108 7.69222C131.741 7.25051 131.148 6.91923 131.148 6.60175C131.148 5.95299 132.28 5.91158 133.619 6.53274C134.019 6.72598 134.378 6.87782 134.405 6.87782C134.474 6.87782 135.468 5.06958 135.413 5.02817C135.385 5.00056 135.096 4.84872 134.778 4.68308C133.577 4.07573 132.017 3.84108 130.941 4.10334ZM75.8238 7.5956C75.8652 10.8532 75.879 11.1293 76.1689 11.64C76.7486 12.7167 77.6182 13.2274 78.9019 13.2274C79.7853 13.2274 80.3651 13.0203 81.0138 12.482L81.4556 12.0955V13.0893H84.2162V4.11714H81.4694L81.4279 7.07107C81.3865 9.74892 81.3589 10.0526 81.1243 10.3149C80.5583 10.9498 79.4403 10.9084 78.8743 10.2596C78.5706 9.91457 78.5568 9.80414 78.5568 7.00205V4.11714H75.7686L75.8238 7.5956ZM94.8448 8.60324V13.0893H97.4675V4.11714H94.8448V8.60324ZM84.0782 24.5462V30.6196H86.7008V28.1626C86.7146 25.4296 86.8113 24.7946 87.2944 24.2977C87.9431 23.6627 89.2821 23.925 89.5995 24.767C89.6824 24.9603 89.7376 26.3544 89.7376 27.8728V30.6196H92.5259L92.4706 27.1964C92.4292 24.3115 92.3878 23.7041 92.1808 23.2348C91.6701 22.0892 90.759 21.5232 89.4201 21.5094C88.4815 21.5094 87.7637 21.7717 87.1563 22.3652L86.7008 22.8069V18.4727H84.0782V24.5462ZM116.93 24.5462V30.6196H119.553V18.4727H116.93V24.5462ZM66.7273 18.8868C64.8777 19.2595 63.801 20.5432 63.7872 22.379C63.7872 23.5523 64.0081 24.0768 64.7535 24.7256C65.3332 25.2087 65.982 25.471 68.4528 26.2026C69.0049 26.3544 69.5846 26.6167 69.7365 26.7685C70.3162 27.3482 69.7917 28.1902 68.7426 28.3559C67.9558 28.4801 66.7964 28.1626 65.7749 27.5553L64.8363 26.9894L64.0357 27.8728C63.6078 28.3559 63.2489 28.7976 63.2351 28.8528C63.2351 29.0737 65.0157 30.0951 65.9129 30.385C66.6721 30.6196 67.2243 30.6887 68.3561 30.6887C69.7503 30.6887 69.8607 30.6611 70.7717 30.2055C71.5723 29.7914 71.7932 29.5982 72.1659 28.9632C72.5662 28.3007 72.6214 28.0936 72.6214 27.224C72.6214 26.0645 72.4834 25.5952 71.9588 25.0569C71.3515 24.4081 70.5785 24.0492 68.7564 23.5109C67.7626 23.221 66.893 22.8897 66.7273 22.7241C65.8439 21.8959 66.9344 20.9849 68.4804 21.2609C68.8255 21.3162 69.5156 21.5784 70.0264 21.8407L70.965 22.31L71.6551 21.33L72.3591 20.3361L72.0416 20.0739C70.8546 19.0938 68.439 18.5555 66.7273 18.8868ZM77.2869 21.6889C75.8376 22.241 74.8023 23.2348 74.3468 24.5324C74.2364 24.8774 74.1398 25.5952 74.1398 26.1611C74.1398 27.997 74.9404 29.3635 76.5139 30.2193C77.3559 30.6749 77.4388 30.6887 78.9019 30.6887C80.3099 30.6887 80.4755 30.6611 81.1381 30.2884C81.5246 30.0813 82.0215 29.7224 82.2285 29.5016L82.615 29.1013L81.8697 28.3421C81.0691 27.5277 80.9034 27.4587 80.6135 27.8038C80.0338 28.4939 78.6535 28.6596 77.8115 28.135C76.8314 27.5415 76.4863 26.0507 77.0385 24.9603C77.6734 23.7041 79.2332 23.4143 80.3237 24.3391C80.5583 24.5324 80.793 24.6842 80.862 24.6842C80.931 24.6842 81.3451 24.3115 81.8006 23.8422L82.6288 23.014L82.1457 22.5999C81.2347 21.8269 80.5445 21.5922 79.109 21.5508C78.2532 21.5232 77.6182 21.5646 77.2869 21.6889ZM97.2328 21.7717C95.3003 22.4895 94.1271 24.1182 94.1133 26.1197C94.1133 27.2102 94.3341 27.9556 94.8862 28.77C95.8387 30.1503 97.3985 30.8405 99.3171 30.7301C101.277 30.6196 102.644 29.7638 103.431 28.1626C103.845 27.3344 103.886 27.1274 103.872 26.0645C103.872 25.1397 103.803 24.7532 103.555 24.2563C103.058 23.2348 102.368 22.5309 101.374 22.0339C100.587 21.6474 100.297 21.5784 99.2067 21.5508C98.2267 21.5094 97.7988 21.5646 97.2328 21.7717ZM100.187 24.1597C101.429 24.905 101.636 26.7547 100.587 27.8038C99.1653 29.2255 96.7773 28.1764 96.7773 26.1335C96.7773 25.0155 97.2742 24.2701 98.2543 23.925C98.8754 23.7041 99.5656 23.787 100.187 24.1597ZM108.414 21.7579C106.274 22.5171 105.073 24.3115 105.225 26.4924C105.349 28.2317 106.288 29.5568 107.944 30.3298C108.621 30.6473 108.883 30.6887 110.167 30.6887C111.478 30.6887 111.685 30.6472 112.375 30.3022C113.41 29.7638 114.211 28.9494 114.653 27.9694C114.984 27.2378 115.025 27.0032 114.97 25.9541C114.915 24.5462 114.625 23.8146 113.742 22.9174C112.803 21.9787 111.864 21.5922 110.387 21.5508C109.435 21.5094 108.966 21.5646 108.414 21.7579ZM111.133 24.063C113.231 25.1397 112.499 28.4663 110.167 28.4663C108.51 28.4663 107.392 26.7271 108.068 25.2225C108.648 23.925 109.918 23.4419 111.133 24.063Z" fill="#1E1E1E"/>
</g>
<defs>
<clipPath id="clip0_386_737">
<rect width="135.135" height="32" fill="white" transform="translate(0.429688)"/>
</clipPath>
</defs>
</svg>
