<svg width="174" height="40" viewBox="0 0 174 40" fill="none" xmlns="http://www.w3.org/2000/svg">
<g opacity="0.84">
<path d="M33.3273 19.5147C33.0705 10.5344 25.71 3.33337 16.6676 3.33337C13.8039 3.33337 11.1089 4.05559 8.75487 5.32781L33.3273 19.5147Z" fill="#333333"/>
<path d="M6.41157 6.86165C5.72177 7.40089 5.07552 7.99326 4.47897 8.63262L32.6102 24.8742C32.863 24.0462 33.0531 23.1907 33.175 22.3135L6.41157 6.86165Z" fill="#333333"/>
<path d="M28.8564 31.3672C28.2599 32.0066 27.6136 32.5989 26.9239 33.1382L0.160218 17.6862C0.282057 16.8089 0.472174 15.9535 0.72503 15.1255L28.8564 31.3672Z" fill="#333333"/>
<path d="M30.4372 29.3931L1.6462 12.7706C2.01008 12.0159 2.42914 11.2929 2.89817 10.6067L31.6891 27.2291C31.3252 27.9838 30.9062 28.7069 30.4372 29.3931Z" fill="#333333"/>
<path d="M16.6676 36.6667C19.5314 36.6667 22.2265 35.9444 24.5806 34.6721L0.0078125 20.4849C0.264393 29.4654 7.625 36.6667 16.6676 36.6667Z" fill="#333333"/>
</g>
<g opacity="0.84">
<path d="M62.2988 20.375C62.2988 19.1667 61.6322 18.375 60.6322 18.375C59.5697 18.375 58.7363 18.9584 57.8197 20.4584V27.5H49.1055C44.5846 27.5 41.668 24.7292 41.668 20.2292C41.668 15.7292 44.5846 12.9584 49.1055 12.9584H52.6055V15.7709H49.1055C46.668 15.7709 45.2096 17.3959 45.2096 20.2292C45.2096 23.0625 46.668 24.6875 49.1055 24.6875H54.5697V12.0834H57.8197V17.1875C58.7988 16.1042 60.0488 15.6667 61.2988 15.6667C63.9447 15.6667 65.5488 17.4584 65.5488 20.1667V27.5H62.2988V20.375Z" fill="#333333"/>
<path d="M73.041 18.375C73.916 18.375 74.291 19.0834 74.291 20.1667V21.7292H77.5618V20.1667C77.5618 17.2084 75.9785 15.6667 73.7493 15.6667C72.5618 15.6667 71.5618 16.1875 70.7077 17.2084L70.6452 15.9167H67.4993V27.5H70.7493V20.2709C71.6035 19.0209 72.3118 18.375 73.041 18.375Z" fill="#333333"/>
<path fill-rule="evenodd" clip-rule="evenodd" d="M84.3198 27.75C80.6115 27.75 78.3615 25.4792 78.3615 21.7084C78.3615 17.9375 80.6115 15.6667 84.3198 15.6667C88.0282 15.6667 90.2573 17.9375 90.2573 21.7084C90.2573 25.4792 88.0282 27.75 84.3198 27.75ZM81.6115 21.7084C81.6115 23.8542 82.6323 25.125 84.3198 25.125C85.9865 25.125 87.0073 23.8542 87.0073 21.7084C87.0073 19.5625 85.9865 18.2917 84.3198 18.2917C82.6323 18.2917 81.6115 19.5625 81.6115 21.7084Z" fill="#333333"/>
<path d="M104.897 18.3542C106.001 18.3542 106.71 19.0625 106.71 20.2292V27.5H109.96V20.2292C109.96 17.375 108.106 15.6667 105.814 15.6667C104.022 15.6667 102.668 16.4584 101.96 17.6875C101.251 16.3959 99.8973 15.6667 98.314 15.6667C97.0015 15.6667 95.7515 16.3125 94.9598 17.3125L94.8973 15.9167H91.7515V27.5H95.0015V20.1459C95.6473 19.0834 96.4806 18.3542 97.4181 18.3542C98.5015 18.3542 99.2306 19.0625 99.2306 20.2292V27.5H102.481V20.1875C103.126 19.1042 103.96 18.3542 104.897 18.3542Z" fill="#333333"/>
<path fill-rule="evenodd" clip-rule="evenodd" d="M118.82 27.5L118.757 26.3542C117.966 27.3542 116.736 27.75 115.299 27.75C113.049 27.75 111.57 26.3125 111.57 24.2709C111.57 21.875 113.466 20.5209 116.591 20.5209H118.716V19.7292C118.716 18.625 117.945 17.9584 116.632 17.9584C115.341 17.9584 114.507 18.5834 114.403 19.6042H111.236C111.445 17.1667 113.528 15.6667 116.778 15.6667C119.945 15.6667 121.966 17.2084 121.966 19.9375V27.5H118.82ZM114.757 24.0625C114.757 24.6875 115.195 25.1875 116.111 25.1875C117.236 25.1875 118.091 24.625 118.716 23.6667V22.7709L116.528 22.7917C115.445 22.7917 114.757 23.1667 114.757 24.0625Z" fill="#333333"/>
<path d="M124.735 23.3334C124.735 25.7917 126.277 27.5 128.631 27.5H131.548V24.875H129.923C128.506 24.875 127.985 24.5417 127.985 23.3334V18.5417H130.36V15.9167H127.985V12.0834H124.735V15.9167H122.756V18.5417H124.735V23.3334Z" fill="#333333"/>
<path fill-rule="evenodd" clip-rule="evenodd" d="M137.931 27.75C134.222 27.75 131.972 25.4792 131.972 21.7084C131.972 17.9375 134.222 15.6667 137.931 15.6667C141.639 15.6667 143.868 17.9375 143.868 21.7084C143.868 25.4792 141.639 27.75 137.931 27.75ZM135.222 21.7084C135.222 23.8542 136.243 25.125 137.931 25.125C139.597 25.125 140.618 23.8542 140.618 21.7084C140.618 19.5625 139.597 18.2917 137.931 18.2917C136.243 18.2917 135.222 19.5625 135.222 21.7084Z" fill="#333333"/>
<path fill-rule="evenodd" clip-rule="evenodd" d="M144.821 21.7084C144.821 25.4792 147.071 27.75 150.779 27.75C154.487 27.75 156.716 25.4792 156.716 21.7084C156.716 17.9375 154.487 15.6667 150.779 15.6667C147.071 15.6667 144.821 17.9375 144.821 21.7084ZM150.779 25.125C149.091 25.125 148.071 23.8542 148.071 21.7084C148.071 19.5625 149.091 18.2917 150.779 18.2917C152.446 18.2917 153.466 19.5625 153.466 21.7084C153.466 23.8542 152.446 25.125 150.779 25.125Z" fill="#333333"/>
<path d="M162.864 23.3542C162.906 26.0834 164.864 27.75 168.052 27.75C171.052 27.75 172.864 26.3334 172.864 23.9792C172.864 21.1159 170.495 20.6675 168.612 20.3112C167.372 20.0765 166.343 19.8818 166.343 19.0625C166.343 18.3959 166.885 18.0209 167.802 18.0209C168.885 18.0209 169.593 18.5834 169.656 19.6042H172.656C172.447 17.125 170.802 15.6667 167.906 15.6667C165.052 15.6667 163.114 17 163.114 19.2709C163.114 21.9897 165.451 22.5359 167.327 22.9744C168.584 23.2684 169.635 23.5139 169.635 24.3334C169.635 25 169.031 25.3959 168.052 25.3959C166.635 25.3959 165.802 24.625 165.864 23.3542H162.864Z" fill="#333333"/>
<path d="M158.231 27.5V12.0834H161.481V27.5H158.231Z" fill="#333333"/>
</g>
</svg>
