<svg width="132" height="40" viewBox="0 0 132 40" fill="none" xmlns="http://www.w3.org/2000/svg">
<g opacity="0.84">
<path d="M26.6654 21.6666C26.6654 26.269 22.9344 30 18.332 30C13.7297 30 9.9987 26.269 9.9987 21.6666H3.33203C3.33203 29.9509 10.0478 36.6666 18.332 36.6666C26.6163 36.6666 33.332 29.9509 33.332 21.6666C33.332 13.3824 26.6163 6.66663 18.332 6.66663V13.3333C22.9344 13.3333 26.6654 17.0643 26.6654 21.6666Z" fill="#333333"/>
<path opacity="0.5" d="M8.33333 3.33337C8.33333 7.93575 4.60237 11.6667 0 11.6667V18.3334C8.28427 18.3334 15 11.6176 15 3.33337H8.33333Z" fill="#333333"/>
</g>
<g opacity="0.84">
<path d="M41.668 11.5249H53.143V14.7424H45.6055V17.8924H52.873V21.0874H45.6055V24.2824H53.323V27.4999H41.668V11.5249Z" fill="#333333"/>
<path d="M54.3789 19.3324C54.8289 16.6999 56.8089 15.3049 60.1389 15.3049C63.9639 15.3049 65.8539 17.0599 65.8539 20.5474V23.9449C65.8539 24.8224 66.2139 24.9574 66.6189 24.9574H67.0239V27.4999L66.4839 27.5449C65.8539 27.5674 63.1089 27.9949 62.7039 25.6999C62.0739 26.9824 60.7239 27.7699 58.4514 27.7699C56.0214 27.7699 54.1764 26.4649 54.1764 24.3499C54.1764 22.2124 55.7739 21.3124 58.7214 20.7274L61.9164 20.0749C61.9164 18.4324 61.3539 17.6674 60.1164 17.6674C59.0814 17.6674 58.4514 18.2749 58.2489 19.4899L54.3789 19.3324ZM58.1589 24.1924C58.1589 24.8899 58.7214 25.3849 59.7789 25.3849C61.0839 25.3849 61.9839 24.3949 61.9839 22.4374V22.3249L60.2964 22.6399C59.0139 22.8649 58.1589 23.1349 58.1589 24.1924Z" fill="#333333"/>
<path d="M75.1234 19.5124C74.9434 18.4549 74.1109 17.8249 73.2109 17.8249C72.2659 17.8249 71.5909 18.3199 71.6359 19.1074C71.6809 19.8724 72.5359 20.2324 73.5934 20.4124C77.3959 20.9749 79.0159 21.9424 79.0159 24.1699C79.0159 26.5549 76.8109 27.7699 73.5259 27.7699C69.8134 27.7699 67.5634 26.2624 67.3609 23.6974L71.2534 23.5399C71.4559 24.5974 72.1984 25.1824 73.3909 25.1824C74.2009 25.1824 75.0784 24.8674 75.0334 24.1249C75.0109 23.2474 74.0659 23.0224 72.9634 22.8199C69.2959 22.1449 67.6534 21.2449 67.6534 19.1074C67.6534 16.6999 69.6784 15.2824 73.3234 15.2824C76.5184 15.2824 78.5884 16.7899 78.9709 19.3774L75.1234 19.5124Z" fill="#333333"/>
<path d="M78.7576 15.5749H82.3576L85.1476 23.4724L87.8026 15.5749H91.4026L86.7676 28.5124C86.1826 30.1549 85.0801 30.8749 83.2351 30.8749H80.8951V28.1299H82.4476C83.2126 28.1299 83.5951 27.9274 83.8201 27.3649L84.0676 26.7574H83.0326L78.7576 15.5749Z" fill="#333333"/>
<path d="M104.74 11.5249V14.7424H100.015V27.4999H96.0995V14.7424H91.3745V11.5249H104.74Z" fill="#333333"/>
<path d="M104.832 19.3324C105.282 16.6999 107.262 15.3049 110.592 15.3049C114.417 15.3049 116.307 17.0599 116.307 20.5474V23.9449C116.307 24.8224 116.667 24.9574 117.072 24.9574H117.477V27.4999L116.937 27.5449C116.307 27.5674 113.562 27.9949 113.157 25.6999C112.527 26.9824 111.177 27.7699 108.904 27.7699C106.474 27.7699 104.629 26.4649 104.629 24.3499C104.629 22.2124 106.227 21.3124 109.174 20.7274L112.369 20.0749C112.369 18.4324 111.807 17.6674 110.569 17.6674C109.534 17.6674 108.904 18.2749 108.702 19.4899L104.832 19.3324ZM108.612 24.1924C108.612 24.8899 109.174 25.3849 110.232 25.3849C111.537 25.3849 112.437 24.3949 112.437 22.4374V22.3249L110.749 22.6399C109.467 22.8649 108.612 23.1349 108.612 24.1924Z" fill="#333333"/>
<path d="M126.967 15.5524H131.152L126.945 21.4474L131.265 27.4999H127.08L124.74 23.8549L122.377 27.4999H118.192L122.512 21.4474L118.305 15.5524H122.467L124.74 19.0174L126.967 15.5524Z" fill="#333333"/>
</g>
</svg>
