<svg width="119" height="40" viewBox="0 0 119 40" fill="none" xmlns="http://www.w3.org/2000/svg">
<g opacity="0.84">
<path d="M24.5407 32.6401C24.0381 33.757 23.4133 34.8509 22.6642 35.7974C28.8792 33.7026 33.4544 28.0429 33.9581 21.25H31.7457C29.0458 21.25 26.877 23.4051 26.4381 26.0691C26.0336 28.5248 25.3864 30.7609 24.5407 32.6401Z" fill="#333333"/>
<path d="M19.6472 21.25C22.474 21.25 24.7864 23.6083 24.2672 26.387C23.1394 32.4223 20.4616 36.6667 17.3376 36.6667C13.3847 36.6667 10.146 29.871 9.85838 21.25H19.6472Z" fill="#333333"/>
<path d="M26.4956 14.2918C26.909 16.9808 29.0878 19.1667 31.8083 19.1667H33.9838C33.6402 12.1893 29.0059 6.34018 22.6642 4.20268C23.4133 5.14914 24.0381 6.24304 24.5407 7.36C25.4276 9.33087 26.0962 11.6943 26.4956 14.2918Z" fill="#333333"/>
<path d="M24.3507 14.0798C24.8235 16.8444 22.5212 19.1667 19.7164 19.1667H9.84681C10.0422 10.3491 13.3212 3.33337 17.3376 3.33337C20.5415 3.33337 23.2762 7.79772 24.3507 14.0798Z" fill="#333333"/>
<path d="M7.763 19.1667C7.85767 14.6598 8.71747 10.5089 10.1345 7.36C10.6371 6.24304 11.2619 5.14914 12.011 4.20268C5.66933 6.34018 1.03498 12.1893 0.691406 19.1667H7.763Z" fill="#333333"/>
<path d="M0.717105 21.25C1.22077 28.0429 5.79598 33.7026 12.011 35.7974C11.2619 34.8509 10.6371 33.757 10.1345 32.6401C8.76125 29.5885 7.91132 25.5958 7.77396 21.25H0.717105Z" fill="#333333"/>
</g>
<g opacity="0.84">
<path d="M42.3359 27.4999V11.0974H54.8234V14.2249H46.0259V17.7124H53.6759V20.6374H46.0259V24.3724H54.8234V27.4999H42.3359Z" fill="#333333"/>
<path d="M60.9981 27.7249C59.6631 27.7249 58.6656 27.2899 58.0056 26.4199C57.3456 25.5349 57.0156 24.3724 57.0156 22.9324V15.4174H60.4581V22.4374C60.4581 23.3974 60.6456 24.0574 61.0206 24.4174C61.4106 24.7624 61.9281 24.9349 62.5731 24.9349C63.3381 24.9349 63.9156 24.6799 64.3056 24.1699C64.6956 23.6599 64.8906 22.9924 64.8906 22.1674V15.4174H68.3331V27.4999H65.1156L64.8681 25.5199H64.6881C64.4181 26.1799 63.9531 26.7124 63.2931 27.1174C62.6481 27.5224 61.8831 27.7249 60.9981 27.7249Z" fill="#333333"/>
<path d="M70.9164 27.4999V15.4174H74.1339L74.3814 17.4199H74.5839C74.8539 16.6699 75.2139 16.1224 75.6639 15.7774C76.1139 15.4174 76.7589 15.2374 77.5989 15.2374H78.6789V18.7474H77.1264C76.1364 18.7474 75.4314 19.0024 75.0114 19.5124C74.5914 20.0074 74.3814 20.6749 74.3814 21.5149V27.4999H70.9164Z" fill="#333333"/>
<path d="M85.3062 27.7249C83.3412 27.7249 81.8787 27.1624 80.9187 26.0374C79.9587 24.9124 79.4787 23.4124 79.4787 21.5374V21.4699C79.4787 19.3399 80.0112 17.7649 81.0762 16.7449C82.1412 15.7099 83.5512 15.1924 85.3062 15.1924C87.0762 15.1924 88.4937 15.7099 89.5587 16.7449C90.6387 17.7649 91.1787 19.3399 91.1787 21.4699V21.5374C91.1637 23.4124 90.6762 24.9124 89.7162 26.0374C88.7562 27.1624 87.2862 27.7249 85.3062 27.7249ZM85.3062 24.9349C86.0712 24.9349 86.6487 24.7249 87.0387 24.3049C87.4437 23.8849 87.6462 23.3074 87.6462 22.5724V20.4124C87.6462 19.6624 87.4362 19.0774 87.0162 18.6574C86.6112 18.2224 86.0412 18.0049 85.3062 18.0049C84.5862 18.0049 84.0162 18.2224 83.5962 18.6574C83.1912 19.0774 82.9887 19.6624 82.9887 20.4124V22.5724C82.9887 23.3074 83.1837 23.8849 83.5737 24.3049C83.9787 24.7249 84.5562 24.9349 85.3062 24.9349Z" fill="#333333"/>
<path d="M93.0657 31.2574V15.4174H96.3507L96.5307 17.1949H96.6882C96.9882 16.5649 97.4532 16.0774 98.0832 15.7324C98.7282 15.3724 99.4482 15.1924 100.243 15.1924C101.863 15.1924 103.041 15.7399 103.776 16.8349C104.511 17.9299 104.878 19.3924 104.878 21.2224V21.7399C104.878 23.8249 104.458 25.3474 103.618 26.3074C102.793 27.2524 101.668 27.7249 100.243 27.7249C99.4632 27.7249 98.7507 27.5524 98.1057 27.2074C97.4607 26.8474 96.9882 26.3524 96.6882 25.7224H96.5307V31.2574H93.0657ZM98.8482 24.9124C99.5982 24.9124 100.176 24.7024 100.581 24.2824C100.986 23.8624 101.188 23.2699 101.188 22.5049V20.4349C101.188 19.6699 100.986 19.0774 100.581 18.6574C100.176 18.2224 99.5982 18.0049 98.8482 18.0049C98.1432 18.0049 97.5807 18.2224 97.1607 18.6574C96.7557 19.0924 96.5532 19.6999 96.5532 20.4799V22.4599C96.5532 23.2399 96.7557 23.8474 97.1607 24.2824C97.5807 24.7024 98.1432 24.9124 98.8482 24.9124Z" fill="#333333"/>
<path d="M109.714 27.7249C108.604 27.7249 107.704 27.4324 107.014 26.8474C106.324 26.2474 105.979 25.4524 105.979 24.4624V24.4174C105.979 23.2624 106.346 22.3699 107.081 21.7399C107.816 21.1099 108.806 20.7199 110.051 20.5699L113.426 20.1199V19.6474C113.426 18.5074 112.736 17.9374 111.356 17.9374C110.696 17.9374 110.171 18.0649 109.781 18.3199C109.406 18.5749 109.219 18.9424 109.219 19.4224H106.091C106.091 18.0874 106.579 17.0524 107.554 16.3174C108.529 15.5674 109.901 15.1924 111.671 15.1924C113.291 15.1924 114.559 15.5374 115.474 16.2274C116.404 16.9174 116.869 18.0124 116.869 19.5124V25.0699H118.444V27.4999H114.304L114.034 25.6324H113.786C113.486 26.2924 112.984 26.8099 112.279 27.1849C111.589 27.5449 110.734 27.7249 109.714 27.7249ZM111.199 25.2499C111.799 25.2499 112.301 25.1074 112.706 24.8224C113.126 24.5224 113.366 24.1399 113.426 23.6749V22.0549L111.154 22.3924C110.644 22.4524 110.231 22.5874 109.916 22.7974C109.601 22.9924 109.444 23.2924 109.444 23.6974V23.9899C109.444 24.3649 109.594 24.6724 109.894 24.9124C110.209 25.1374 110.644 25.2499 111.199 25.2499Z" fill="#333333"/>
</g>
</svg>
