<svg width="170" height="40" viewBox="0 0 170 40" fill="none" xmlns="http://www.w3.org/2000/svg">
<g opacity="0.84">
<path d="M11.875 4.16663C11.875 10.725 6.55838 16.0416 0 16.0416V23.9583H11.875V35.8333H19.7917C19.7917 29.2749 25.1083 23.9583 31.6667 23.9583V16.0416H19.7917V4.16663H11.875Z" fill="#333333"/>
</g>
<g opacity="0.84">
<path d="M46.832 27.7999C45.0654 27.7999 43.5487 27.4249 42.282 26.6749C41.0154 25.9082 40.0404 24.8499 39.357 23.4999C38.6737 22.1332 38.332 20.5582 38.332 18.7749C38.332 16.9915 38.6737 15.4165 39.357 14.0499C40.0404 12.6832 41.0154 11.6165 42.282 10.8499C43.5487 10.0832 45.0654 9.69988 46.832 9.69988C48.932 9.69988 50.6487 10.2249 51.982 11.2749C53.332 12.3082 54.1737 13.7665 54.507 15.6499H50.982C50.7654 14.6999 50.2987 13.9582 49.582 13.4249C48.882 12.8749 47.9487 12.5999 46.782 12.5999C45.1654 12.5999 43.8987 13.1499 42.982 14.2499C42.0654 15.3499 41.607 16.8582 41.607 18.7749C41.607 20.6915 42.0654 22.1999 42.982 23.2999C43.8987 24.3832 45.1654 24.9249 46.782 24.9249C47.9487 24.9249 48.882 24.6749 49.582 24.1749C50.2987 23.6582 50.7654 22.9499 50.982 22.0499H54.507C54.1737 23.8499 53.332 25.2582 51.982 26.2749C50.6487 27.2915 48.932 27.7999 46.832 27.7999Z" fill="#333333"/>
<path d="M55.7646 27.4999V9.49988H58.9646V27.4999H55.7646Z" fill="#333333"/>
<path d="M66.4344 27.7999C65.2677 27.7999 64.226 27.5165 63.3094 26.9499C62.3927 26.3832 61.6677 25.6082 61.1344 24.6249C60.601 23.6415 60.3344 22.5249 60.3344 21.2749C60.3344 20.0249 60.601 18.9165 61.1344 17.9499C61.6677 16.9665 62.3927 16.1999 63.3094 15.6499C64.226 15.0832 65.2677 14.7999 66.4344 14.7999C67.3677 14.7999 68.1844 14.9749 68.8844 15.3249C69.5844 15.6749 70.151 16.1665 70.5844 16.7999L70.7594 15.0999H73.7844V27.4999H70.7844L70.5844 25.7249C70.1844 26.2749 69.651 26.7582 68.9844 27.1749C68.3344 27.5915 67.4844 27.7999 66.4344 27.7999ZM67.1094 24.9999C68.1427 24.9999 68.9844 24.6582 69.6344 23.9749C70.301 23.2749 70.6344 22.3832 70.6344 21.2999C70.6344 20.2165 70.301 19.3332 69.6344 18.6499C68.9844 17.9499 68.1427 17.5999 67.1094 17.5999C66.0927 17.5999 65.251 17.9415 64.5844 18.6249C63.9177 19.3082 63.5844 20.1915 63.5844 21.2749C63.5844 22.3582 63.9177 23.2499 64.5844 23.9499C65.251 24.6499 66.0927 24.9999 67.1094 24.9999Z" fill="#333333"/>
<path d="M75.543 27.4999V15.0999H78.368L78.618 17.1999C79.0013 16.4665 79.5513 15.8832 80.268 15.4499C81.0013 15.0165 81.8596 14.7999 82.843 14.7999C84.3763 14.7999 85.568 15.2832 86.418 16.2499C87.268 17.2165 87.693 18.6332 87.693 20.4999V27.4999H84.493V20.7999C84.493 19.7332 84.2763 18.9165 83.843 18.3499C83.4096 17.7832 82.7346 17.4999 81.818 17.4999C80.918 17.4999 80.1763 17.8165 79.593 18.4499C79.0263 19.0832 78.743 19.9665 78.743 21.0999V27.4999H75.543Z" fill="#333333"/>
<path d="M94.9529 27.7999C93.7863 27.7999 92.7446 27.5165 91.8279 26.9499C90.9113 26.3832 90.1863 25.6082 89.6529 24.6249C89.1196 23.6415 88.8529 22.5249 88.8529 21.2749C88.8529 20.0249 89.1196 18.9165 89.6529 17.9499C90.1863 16.9665 90.9113 16.1999 91.8279 15.6499C92.7446 15.0832 93.7863 14.7999 94.9529 14.7999C95.8863 14.7999 96.7029 14.9749 97.4029 15.3249C98.1029 15.6749 98.6696 16.1665 99.1029 16.7999V9.49988H102.303V27.4999H99.4529L99.1029 25.7249C98.7029 26.2749 98.1696 26.7582 97.5029 27.1749C96.8529 27.5915 96.0029 27.7999 94.9529 27.7999ZM95.6279 24.9999C96.6613 24.9999 97.5029 24.6582 98.1529 23.9749C98.8196 23.2749 99.1529 22.3832 99.1529 21.2999C99.1529 20.2165 98.8196 19.3332 98.1529 18.6499C97.5029 17.9499 96.6613 17.5999 95.6279 17.5999C94.6113 17.5999 93.7696 17.9415 93.1029 18.6249C92.4363 19.3082 92.1029 20.1915 92.1029 21.2749C92.1029 22.3582 92.4363 23.2499 93.1029 23.9499C93.7696 24.6499 94.6113 24.9999 95.6279 24.9999Z" fill="#333333"/>
<path d="M110.087 27.7999C108.837 27.7999 107.728 27.5332 106.762 26.9999C105.795 26.4665 105.037 25.7165 104.487 24.7499C103.937 23.7832 103.662 22.6665 103.662 21.3999C103.662 20.1165 103.928 18.9749 104.462 17.9749C105.012 16.9749 105.762 16.1999 106.712 15.6499C107.678 15.0832 108.812 14.7999 110.112 14.7999C111.328 14.7999 112.403 15.0665 113.337 15.5999C114.27 16.1332 114.995 16.8665 115.512 17.7999C116.045 18.7165 116.312 19.7415 116.312 20.8749C116.312 21.0582 116.303 21.2499 116.287 21.4499C116.287 21.6499 116.278 21.8582 116.262 22.0749H106.837C106.903 23.0415 107.237 23.7999 107.837 24.3499C108.453 24.8999 109.195 25.1749 110.062 25.1749C110.712 25.1749 111.253 25.0332 111.687 24.7499C112.137 24.4499 112.47 24.0665 112.687 23.5999H115.937C115.703 24.3832 115.312 25.0999 114.762 25.7499C114.228 26.3832 113.562 26.8832 112.762 27.2499C111.978 27.6165 111.087 27.7999 110.087 27.7999ZM110.112 17.3999C109.328 17.3999 108.637 17.6249 108.037 18.0749C107.437 18.5082 107.053 19.1749 106.887 20.0749H113.062C113.012 19.2582 112.712 18.6082 112.162 18.1249C111.612 17.6415 110.928 17.3999 110.112 17.3999Z" fill="#333333"/>
<path d="M122.628 27.7999C121.528 27.7999 120.561 27.6249 119.728 27.2749C118.895 26.9082 118.228 26.4082 117.728 25.7749C117.228 25.1415 116.928 24.4082 116.828 23.5749H120.053C120.153 24.0582 120.42 24.4749 120.853 24.8249C121.303 25.1582 121.878 25.3249 122.578 25.3249C123.278 25.3249 123.786 25.1832 124.103 24.8999C124.436 24.6165 124.603 24.2915 124.603 23.9249C124.603 23.3915 124.37 23.0332 123.903 22.8499C123.436 22.6499 122.786 22.4582 121.953 22.2749C121.42 22.1582 120.878 22.0165 120.328 21.8499C119.778 21.6832 119.27 21.4749 118.803 21.2249C118.353 20.9582 117.986 20.6249 117.703 20.2249C117.42 19.8082 117.278 19.2999 117.278 18.6999C117.278 17.5999 117.711 16.6749 118.578 15.9249C119.461 15.1749 120.695 14.7999 122.278 14.7999C123.745 14.7999 124.911 15.1415 125.778 15.8249C126.661 16.5082 127.186 17.4499 127.353 18.6499H124.328C124.145 17.7332 123.453 17.2749 122.253 17.2749C121.653 17.2749 121.186 17.3915 120.853 17.6249C120.536 17.8582 120.378 18.1499 120.378 18.4999C120.378 18.8665 120.62 19.1582 121.103 19.3749C121.586 19.5915 122.228 19.7915 123.028 19.9749C123.895 20.1749 124.686 20.3999 125.403 20.6499C126.136 20.8832 126.72 21.2415 127.153 21.7249C127.586 22.1915 127.803 22.8665 127.803 23.7499C127.82 24.5165 127.62 25.2082 127.203 25.8249C126.786 26.4415 126.186 26.9249 125.403 27.2749C124.62 27.6249 123.695 27.7999 122.628 27.7999Z" fill="#333333"/>
<path d="M134.272 27.4999C132.972 27.4999 131.93 27.1832 131.147 26.5499C130.364 25.9165 129.972 24.7915 129.972 23.1749V17.7749H127.847V15.0999H129.972L130.347 11.7749H133.172V15.0999H136.522V17.7749H134.005C133.545 17.7749 133.172 18.148 133.172 18.6082V23.1999C133.172 23.7999 133.297 24.2165 133.547 24.4499C133.814 24.6665 134.264 24.7749 134.897 24.7749H136.447V27.4999H134.272Z" fill="#333333"/>
<path d="M139.495 13.1749C138.911 13.1749 138.428 12.9999 138.045 12.6499C137.678 12.2999 137.495 11.8582 137.495 11.3249C137.495 10.7915 137.678 10.3582 138.045 10.0249C138.428 9.67488 138.911 9.49988 139.495 9.49988C140.078 9.49988 140.553 9.67488 140.92 10.0249C141.303 10.3582 141.495 10.7915 141.495 11.3249C141.495 11.8582 141.303 12.2999 140.92 12.6499C140.553 12.9999 140.078 13.1749 139.495 13.1749ZM137.895 27.4999V15.0999H141.095V27.4999H137.895Z" fill="#333333"/>
<path d="M142.935 27.4999V15.0999H145.76L146.01 17.1999C146.393 16.4665 146.943 15.8832 147.66 15.4499C148.393 15.0165 149.251 14.7999 150.235 14.7999C151.768 14.7999 152.96 15.2832 153.81 16.2499C154.66 17.2165 155.085 18.6332 155.085 20.4999V27.4999H151.885V20.7999C151.885 19.7332 151.668 18.9165 151.235 18.3499C150.801 17.7832 150.126 17.4999 149.21 17.4999C148.31 17.4999 147.568 17.8165 146.985 18.4499C146.418 19.0832 146.135 19.9665 146.135 21.0999V27.4999H142.935Z" fill="#333333"/>
<path d="M162.67 27.7999C161.42 27.7999 160.311 27.5332 159.345 26.9999C158.378 26.4665 157.62 25.7165 157.07 24.7499C156.52 23.7832 156.245 22.6665 156.245 21.3999C156.245 20.1165 156.511 18.9749 157.045 17.9749C157.595 16.9749 158.345 16.1999 159.295 15.6499C160.261 15.0832 161.395 14.7999 162.695 14.7999C163.911 14.7999 164.986 15.0665 165.92 15.5999C166.853 16.1332 167.578 16.8665 168.095 17.7999C168.628 18.7165 168.895 19.7415 168.895 20.8749C168.895 21.0582 168.886 21.2499 168.87 21.4499C168.87 21.6499 168.861 21.8582 168.845 22.0749H159.42C159.486 23.0415 159.82 23.7999 160.42 24.3499C161.036 24.8999 161.778 25.1749 162.645 25.1749C163.295 25.1749 163.836 25.0332 164.27 24.7499C164.72 24.4499 165.053 24.0665 165.27 23.5999H168.52C168.286 24.3832 167.895 25.0999 167.345 25.7499C166.811 26.3832 166.145 26.8832 165.345 27.2499C164.561 27.6165 163.67 27.7999 162.67 27.7999ZM162.695 17.3999C161.911 17.3999 161.22 17.6249 160.62 18.0749C160.02 18.5082 159.636 19.1749 159.47 20.0749H165.645C165.595 19.2582 165.295 18.6082 164.745 18.1249C164.195 17.6415 163.511 17.3999 162.695 17.3999Z" fill="#333333"/>
</g>
</svg>
