<svg width="127" height="40" viewBox="0 0 127 40" fill="none" xmlns="http://www.w3.org/2000/svg">
<g opacity="0.84">
<path opacity="0.5" fill-rule="evenodd" clip-rule="evenodd" d="M28.9874 7.00043L20.9151 4.83746C20.3578 4.68814 19.906 5.03479 19.906 5.61172V13.9688C19.906 14.5457 20.3578 15.1345 20.9151 15.2838L28.9874 17.4468C29.5447 17.5961 29.9964 17.2494 29.9964 16.6725V8.31543C29.9964 7.7385 29.5447 7.14975 28.9874 7.00043ZM20.9151 1.70356C18.686 1.10627 16.8789 2.49287 16.8789 4.80061V13.1577C16.8789 15.4654 18.686 17.8204 20.9151 18.4177L28.9874 20.5807C31.2165 21.178 33.0235 19.7914 33.0235 17.4836V9.12655C33.0235 6.8188 31.2165 4.46381 28.9874 3.86652L20.9151 1.70356Z" fill="#333333"/>
<path opacity="0.7" fill-rule="evenodd" clip-rule="evenodd" d="M22.6539 13.809L12.5635 11.1053C12.0062 10.956 11.5545 11.3026 11.5545 11.8795V22.3259C11.5545 22.9028 12.0062 23.4916 12.5635 23.6409L22.6539 26.3446C23.2112 26.4939 23.6629 26.1473 23.6629 25.5703V15.124C23.6629 14.5471 23.2112 13.9583 22.6539 13.809ZM12.5635 7.97138C10.3344 7.37409 8.52734 8.76069 8.52734 11.0684V21.5148C8.52734 23.8225 10.3344 26.1775 12.5635 26.7748L22.6539 29.4785C24.883 30.0758 26.69 28.6892 26.69 26.3815V15.9351C26.69 13.6274 24.883 11.2724 22.6539 10.6751L12.5635 7.97138Z" fill="#333333"/>
<path fill-rule="evenodd" clip-rule="evenodd" d="M16.3126 20.6174L4.20412 17.373C3.64685 17.2237 3.19509 17.5703 3.19509 18.1472V30.6829C3.19509 31.2598 3.64685 31.8485 4.20412 31.9979L16.3126 35.2423C16.8699 35.3916 17.3216 35.045 17.3216 34.468V21.9324C17.3216 21.3555 16.8699 20.7668 16.3126 20.6174ZM4.20412 14.2391C1.97502 13.6418 0.167969 15.0284 0.167969 17.3361V29.8717C0.167969 32.1795 1.97502 34.5345 4.20412 35.1318L16.3126 38.3762C18.5417 38.9735 20.3487 37.5869 20.3487 35.2792V22.7436C20.3487 20.4358 18.5417 18.0808 16.3126 17.4835L4.20412 14.2391Z" fill="#333333"/>
</g>
<g opacity="0.84">
<path d="M44.8693 27.1733C45.8182 27.6088 46.907 27.8266 48.1359 27.8266C49.3648 27.8266 50.4382 27.6166 51.3559 27.1966C52.2893 26.7611 53.0126 26.1544 53.5259 25.3766C54.0393 24.5833 54.2959 23.6577 54.2959 22.6V22.32C54.2959 21.34 54.0704 20.5466 53.6193 19.94C53.1682 19.3177 52.5926 18.8588 51.8926 18.5633C51.2082 18.2677 50.5004 18.12 49.7693 18.12H48.9059V17.7466L53.8293 15.1333V11.1666H42.2559V13.8266H50.5159V14.2L45.2426 17V20.2666H48.5093C49.0382 20.2666 49.5126 20.3444 49.9326 20.5C50.3526 20.64 50.687 20.8655 50.9359 21.1766C51.1848 21.4877 51.3093 21.8922 51.3093 22.39V22.6233C51.3093 23.3544 51.0293 23.9611 50.4693 24.4433C49.9248 24.9255 49.147 25.1666 48.1359 25.1666C47.1404 25.1666 46.3393 24.91 45.7326 24.3966C45.1259 23.8677 44.8226 23.1677 44.8226 22.2966V21.97H41.8359V22.39C41.8359 23.51 42.1004 24.4822 42.6293 25.3066C43.1737 26.1155 43.9204 26.7377 44.8693 27.1733Z" fill="#333333"/>
<path fill-rule="evenodd" clip-rule="evenodd" d="M65.0386 11.7966C64.2608 11.3766 63.3586 11.1666 62.3319 11.1666H55.6119V27.5H58.6919V21.5266H62.3319C63.3275 21.5266 64.2141 21.3244 64.9919 20.92C65.7852 20.5 66.4075 19.9166 66.8586 19.17C67.3252 18.4077 67.5586 17.5211 67.5586 16.51V16.1833C67.5586 15.1566 67.333 14.27 66.8819 13.5233C66.4463 12.7766 65.8319 12.2011 65.0386 11.7966ZM63.8019 18.12C63.3508 18.5244 62.7597 18.7266 62.0286 18.7266H58.6919V13.9666H62.0286C62.7597 13.9666 63.3508 14.1688 63.8019 14.5733C64.253 14.9777 64.4786 15.53 64.4786 16.23V16.4633C64.4786 17.1633 64.253 17.7155 63.8019 18.12Z" fill="#333333"/>
<path fill-rule="evenodd" clip-rule="evenodd" d="M73.8538 27.8266C72.7027 27.8266 71.6683 27.5933 70.7505 27.1266C69.8327 26.66 69.1094 25.9833 68.5805 25.0966C68.0516 24.21 67.7872 23.1444 67.7872 21.9V21.5266C67.7872 20.2822 68.0516 19.2166 68.5805 18.33C69.1094 17.4433 69.8327 16.7666 70.7505 16.3C71.6683 15.8333 72.7027 15.6 73.8538 15.6C75.0049 15.6 76.0394 15.8333 76.9572 16.3C77.8749 16.7666 78.5983 17.4433 79.1272 18.33C79.656 19.2166 79.9205 20.2822 79.9205 21.5266V21.9C79.9205 23.1444 79.656 24.21 79.1272 25.0966C78.5983 25.9833 77.8749 26.66 76.9572 27.1266C76.0394 27.5933 75.0049 27.8266 73.8538 27.8266ZM73.8538 25.2133C74.756 25.2133 75.5027 24.9255 76.0938 24.35C76.6849 23.7588 76.9805 22.9188 76.9805 21.83V21.5966C76.9805 20.5077 76.6849 19.6755 76.0938 19.1C75.5183 18.5088 74.7716 18.2133 73.8538 18.2133C72.9516 18.2133 72.2049 18.5088 71.6138 19.1C71.0227 19.6755 70.7272 20.5077 70.7272 21.5966V21.83C70.7272 22.9188 71.0227 23.7588 71.6138 24.35C72.2049 24.9255 72.9516 25.2133 73.8538 25.2133Z" fill="#333333"/>
<path d="M85.6209 16.2066C85.232 16.4244 84.952 16.7666 84.7809 17.2333H84.3609V15.9266H81.4676V27.5H84.4076V20.92C84.4076 20.0955 84.6487 19.4888 85.1309 19.1C85.6132 18.6955 86.2276 18.4933 86.9743 18.4933H88.4209V18.4916H91.4189V24.8866C91.4189 25.68 91.6522 26.3177 92.1189 26.8C92.6011 27.2666 93.2233 27.5 93.9856 27.5H97.2522V25.0733H95.0122C94.5767 25.0733 94.3589 24.84 94.3589 24.3733V18.4916H97.5322V15.8833H94.3589V12.3333H91.4189V15.8833H88.4209V15.88H87.0209C86.492 15.88 86.0254 15.9888 85.6209 16.2066Z" fill="#333333"/>
<path fill-rule="evenodd" clip-rule="evenodd" d="M100.404 27.4066C101.057 27.6866 101.796 27.8266 102.62 27.8266C103.429 27.8266 104.067 27.71 104.534 27.4766C105 27.2433 105.342 26.9788 105.56 26.6833C105.778 26.3722 105.918 26.1233 105.98 25.9366H106.424V25.96C106.424 26.4266 106.61 26.8 106.984 27.08C107.357 27.36 107.831 27.5 108.407 27.5H110.367V25.0733H109.434C108.998 25.0733 108.78 24.84 108.78 24.3733V20.0566C108.78 18.61 108.337 17.5055 107.45 16.7433C106.563 15.9811 105.358 15.6 103.834 15.6C102.838 15.6 101.99 15.7555 101.29 16.0666C100.606 16.3622 100.054 16.7588 99.6335 17.2566C99.2291 17.7388 98.9335 18.2755 98.7468 18.8666L101.454 19.7766C101.562 19.2477 101.796 18.82 102.154 18.4933C102.511 18.1511 103.056 17.98 103.787 17.98C104.534 17.98 105.078 18.1588 105.42 18.5166C105.762 18.8588 105.934 19.3022 105.934 19.8466V20.5H102.76C101.889 20.5 101.111 20.64 100.427 20.92C99.758 21.1844 99.2291 21.5888 98.8402 22.1333C98.4668 22.6622 98.2802 23.3233 98.2802 24.1166C98.2802 24.91 98.4668 25.5866 98.8402 26.1466C99.2291 26.6911 99.7502 27.1111 100.404 27.4066ZM105.14 24.77C104.627 25.2211 103.958 25.4466 103.134 25.4466C102.511 25.4466 102.037 25.3144 101.71 25.05C101.384 24.7855 101.22 24.4433 101.22 24.0233C101.22 23.6033 101.376 23.2766 101.687 23.0433C101.998 22.81 102.426 22.6933 102.97 22.6933H105.934V22.9266C105.934 23.6888 105.669 24.3033 105.14 24.77Z" fill="#333333"/>
<path d="M117.478 26.8466C118.442 27.5 119.679 27.8266 121.188 27.8266C122.665 27.8266 123.84 27.5 124.711 26.8466C125.598 26.1777 126.041 25.2366 126.041 24.0233C126.041 23.2144 125.831 22.5766 125.411 22.11C125.007 21.6277 124.447 21.2622 123.731 21.0133C123.031 20.7488 122.245 20.5388 121.374 20.3833L120.721 20.2666C120.192 20.1733 119.772 20.0411 119.461 19.87C119.15 19.6833 118.994 19.4033 118.994 19.03C118.994 18.6877 119.142 18.4233 119.438 18.2366C119.733 18.0344 120.161 17.9333 120.721 17.9333C121.281 17.9333 121.748 18.0577 122.121 18.3066C122.51 18.5555 122.767 18.9755 122.891 19.5666L125.621 18.7266C125.357 17.7933 124.797 17.0388 123.941 16.4633C123.085 15.8877 122.012 15.6 120.721 15.6C119.352 15.6 118.248 15.9111 117.408 16.5333C116.568 17.14 116.148 18.0188 116.148 19.17C116.148 19.9322 116.35 20.5544 116.754 21.0366C117.159 21.5188 117.695 21.9 118.364 22.18C119.033 22.4444 119.772 22.6544 120.581 22.81L121.234 22.9266C121.919 23.0511 122.417 23.2144 122.728 23.4166C123.039 23.6033 123.194 23.8755 123.194 24.2333C123.194 24.5911 123.031 24.8944 122.704 25.1433C122.378 25.3766 121.872 25.4933 121.188 25.4933C120.737 25.4933 120.317 25.4311 119.928 25.3066C119.554 25.1666 119.235 24.9411 118.971 24.63C118.722 24.3188 118.543 23.8911 118.434 23.3466L115.728 24.0466C115.93 25.26 116.513 26.1933 117.478 26.8466Z" fill="#333333"/>
<path d="M111.35 27.5V11.1666H114.29V27.5H111.35Z" fill="#333333"/>
</g>
</svg>
