<svg width="100" height="32" viewBox="0 0 100 32" fill="none" xmlns="http://www.w3.org/2000/svg">
<path d="M47.0373 19.7903L45.9374 25.285C45.453 27.5125 44.1109 28.9998 41.3696 28.9998C38.2235 28.9998 37.393 27.0484 38.0836 24.3025C39.0601 20.4072 42.2377 19.2472 47.0373 19.7903ZM51.9926 11.935L48.6472 12.1479L47.5895 17.5282C46.3106 17.4831 45.9081 17.4424 44.4043 17.4424C39.6973 17.4424 35.589 19.421 34.5035 24.0625C33.5255 28.2475 35.9027 31.4951 41.0867 31.4951C46.3971 31.4951 48.7074 28.7244 49.5379 24.8291L51.9926 11.935ZM15.7039 20.025C10.799 19.5782 6.57947 19.9852 6.51101 21.6507C6.40494 24.1513 14.5951 21.9697 14.4371 26.5699C14.2069 33.3284 2.81805 31.7735 0 30.9136L0.511553 28.9072C5.37055 29.6783 10.4966 29.7423 10.6087 27.0627C10.7291 24.2145 2.5051 26.7745 2.69769 22.1623C2.84138 18.7266 7.98173 16.8737 16.3953 18.1097L15.7039 20.025ZM28.9291 24.6222C28.2212 27.4433 25.9839 29.2149 23.32 29.2149C20.5343 29.2149 19.281 27.6005 20.028 24.6222C20.7367 21.8012 22.9996 19.9077 25.6626 19.9077C28.3242 19.9077 29.637 21.8012 28.9291 24.6222ZM26.0922 17.5982C21.2144 17.5982 17.2935 20.4192 16.3291 24.6222C15.3624 28.8275 17.9894 31.6486 22.8649 31.6486C27.7405 31.6486 31.6629 28.8275 32.6273 24.6222C33.594 20.42 30.9685 17.5982 26.0922 17.5982ZM82.4495 31.5771H78.2097C75.6384 29.16 70.7199 23.6052 67.0984 17.7268H70.2099C73.6486 22.4722 82.4495 31.5771 82.4495 31.5771ZM86.8925 4.06685L88.8439 0L89.4006 4.13455L93.378 2.74283L90.5983 6.30715L93.6134 8.64299L89.5894 8.95368L89.3675 13.2537L87.1302 10.0761L83.8428 13.1078L85.075 8.83557L81.197 8.30972L84.9712 6.1597L83.423 2.47953L86.8925 4.06685ZM95.1609 24.6651C94.4417 27.5306 92.1698 29.33 89.4646 29.33C86.636 29.33 85.3609 27.6901 86.1207 24.6651C86.8399 21.7997 89.1381 19.8761 91.8425 19.8761C94.5493 19.8761 95.8816 21.7997 95.1609 24.6651ZM92.2796 17.5275C87.3258 17.5275 83.344 20.3952 82.3623 24.6651C81.3813 28.9358 84.0489 31.802 89.0019 31.802C93.9557 31.802 97.939 28.9358 98.9185 24.6651C99.9002 20.3952 97.2342 17.5275 92.2796 17.5275Z" fill="#3D3D3D"/>
<path d="M63.8828 30.3939C71.8909 25.9456 78.8472 19.1104 83.7807 13.2012C80.2337 24.3034 71.6953 30.278 63.8828 30.3939Z" fill="#D9D9D9"/>
<path d="M60.7127 19.6556C62.2466 19.6556 63.0816 20.2123 63.0816 21.2761C63.0816 24.0994 57.5779 23.9128 55.1503 23.4186C56.0041 21.3046 57.9322 19.6556 60.7127 19.6556ZM66.3804 21.1226C66.3804 19.0749 64.7487 17.5703 61.0467 17.5703C55.042 17.5703 51.1406 21.4679 51.1406 26.293C51.1406 29.409 53.7277 31.9991 58.4528 31.9991C61.7087 31.9991 63.8828 30.3945 63.8828 30.3945C59.7392 30.8383 54.6508 30.3945 54.6508 25.962C54.6508 25.786 54.6606 25.61 54.6749 25.4347C60.3283 26.6082 66.3804 25.1887 66.3804 21.1226Z" fill="#3D3D3D"/>
</svg>
