<svg width="110" height="40" viewBox="0 0 110 40" fill="none" xmlns="http://www.w3.org/2000/svg">
<path fill-rule="evenodd" clip-rule="evenodd" d="M92.3976 7.75931H89.9922V10.164H92.3976V14.8993C92.3976 16.8532 92.4718 18.2058 94.0502 19.0328H97.2819C95.0274 17.6801 94.952 16.252 94.952 14.373V10.164H97.4334V7.75931H94.952V4.97852H92.3976V7.75931Z" fill="#3D3D3D"/>
<path fill-rule="evenodd" clip-rule="evenodd" d="M22.6515 4.7536C20.0965 1.59675 16.1133 -0.206802 12.0547 0.0189541C8.67271 0.244087 5.51649 1.74705 3.26142 4.30271C2.12393 5.54368 1.25084 7.00313 0.695264 8.59223C0.13969 10.1813 -0.0867421 11.8668 0.0297453 13.5462C0.180042 16.9282 1.75846 20.0851 4.3135 22.3395C6.7937 24.6694 10.1002 25.7963 13.5576 25.5712C17.0151 25.346 20.3216 23.767 22.576 21.0623L22.3509 20.8372C20.3216 22.8665 17.6911 24.1443 14.9103 24.294C11.9044 24.4449 9.04814 23.4683 6.7937 21.3635C4.53863 19.3342 3.18597 16.5534 3.03629 13.472C2.886 10.3906 3.86323 7.45955 5.89254 5.20511C7.84639 2.87521 10.6272 1.52254 13.6331 1.37225C16.8648 1.14711 20.0965 2.42494 22.3509 4.90451L22.4257 4.97998L22.6515 4.7536Z" fill="#D9D9D9"/>
<path fill-rule="evenodd" clip-rule="evenodd" d="M27.6102 6.7823C24.1534 6.7823 21.3726 9.48763 21.3726 12.9451C21.3726 16.4025 24.1534 19.1827 27.6102 19.1827C31.0671 19.1827 33.773 16.4019 33.773 12.9451C33.773 9.48826 31.0671 6.7823 27.6102 6.7823ZM27.6102 16.8534C25.5055 16.8534 23.7774 15.1253 23.7774 12.9451C23.7774 10.8409 25.5061 9.1122 27.6102 9.1122C29.7144 9.1122 31.4431 10.8409 31.4431 12.9451C31.4431 15.1247 29.7144 16.8534 27.6102 16.8534ZM63.1581 14.8995C62.4808 16.1019 61.2042 16.7786 59.8509 16.7786C57.8216 16.7786 56.0935 15.0498 56.0935 13.0205C56.0935 10.9164 57.8216 9.18766 59.8509 9.18766C61.2042 9.18766 62.4808 10.0146 63.1581 11.1415L65.1119 9.93915C64.0592 8.06013 61.9557 6.7823 59.7755 6.7823C56.3187 6.7823 53.5379 9.56309 53.5379 12.9451C53.5359 13.7648 53.6959 14.5768 54.0087 15.3344C54.3214 16.0921 54.7808 16.7805 55.3604 17.3601C55.94 17.9397 56.6285 18.3991 57.3861 18.7119C58.1438 19.0246 58.9558 19.1846 59.7755 19.1827C61.9557 19.1827 63.985 17.9803 65.1119 16.1013L63.1581 14.8995ZM18.4416 15.0492C17.7649 16.2516 16.4122 17.0031 14.9847 17.0031C12.8051 17.0031 11.0016 15.1989 11.0016 13.0199C11.0016 10.7655 12.8058 8.96191 14.9847 8.96191C16.4129 8.96191 17.7649 9.78885 18.517 11.0661L20.6218 9.71339C19.4194 7.75954 17.2398 6.40625 14.8351 6.40625C11.2273 6.40625 8.29688 9.33734 8.29688 12.9444C8.29688 16.5522 11.228 19.5581 14.8351 19.5581C17.2398 19.5581 19.344 18.2809 20.5469 16.3264L18.4416 15.0492ZM88.7858 10.1643C88.7858 9.33796 88.4852 8.58648 87.8091 7.98529C87.0577 7.15835 85.7798 6.7823 84.4265 6.7823C81.4961 6.7823 79.9931 8.51039 79.9931 10.2391C79.9931 12.6439 82.7739 13.4708 84.2769 13.9971C84.9529 14.2223 86.6068 14.6732 86.6068 15.7252C86.6068 16.7779 85.8553 17.2282 84.4265 17.2282C83.5254 17.2282 82.2476 16.7773 82.2476 15.0486H79.5422C79.4668 16.251 79.8416 17.1534 80.5937 17.8294C81.4961 18.7312 82.9236 19.182 84.4265 19.182C86.0804 19.182 87.3583 18.806 88.2594 17.9048C88.9354 17.2282 89.3121 16.5522 89.3121 15.5749C89.3121 12.8696 86.5313 12.2684 84.8774 11.7421C83.826 11.366 82.623 10.9906 82.623 9.93789C82.623 9.33671 83.0751 8.58523 84.4272 8.58523C85.5553 8.58523 86.2313 9.03612 86.381 10.163H88.7858V10.1643ZM44.2195 8.51102C43.5429 7.30865 42.7159 6.63201 40.9124 6.63201C39.7849 6.63201 38.4322 7.53378 37.9065 8.58648V6.93322H35.5017V19.033H37.9819V13.396C37.9819 11.7427 38.2825 9.03674 40.3867 9.03674C41.7393 9.03674 42.3411 10.2391 42.3411 12.569V19.0324H44.8962V12.9444C44.8962 10.3894 45.7231 9.03612 47.3009 9.03612C48.9542 9.03612 49.2554 10.6894 49.2554 12.1175V19.0317H51.8104V11.7427C51.8104 8.43556 50.3829 6.63201 47.8273 6.63201C46.3985 6.63201 44.9704 7.38349 44.2195 8.51102ZM75.4836 6.9326V8.28526C74.4309 7.30865 73.0782 6.70747 71.6507 6.70747C68.3436 6.70747 65.7886 9.48763 65.7886 12.8702C65.7886 16.327 68.3442 19.1078 71.6507 19.1078C73.0782 19.1078 74.4315 18.5066 75.4836 17.5294C75.4836 17.6049 75.4081 19.033 75.4081 19.033H77.7381V6.9326H75.4836ZM71.8004 16.8534C69.7724 16.8534 68.043 15.0498 68.043 12.8702C68.043 10.6152 69.7724 8.81161 71.8004 8.81161C73.8297 8.81161 75.4836 10.6152 75.4836 12.8702C75.4836 15.0492 73.8297 16.8534 71.8004 16.8534ZM98.6311 16.7025C99.3071 16.7025 99.8335 17.2288 99.8335 17.9055C99.8355 18.0639 99.8057 18.2212 99.746 18.368C99.6863 18.5147 99.5978 18.6481 99.4858 18.7601C99.3737 18.8722 99.2404 18.9607 99.0936 19.0204C98.9468 19.0801 98.7896 19.1098 98.6311 19.1078C98.4726 19.1099 98.3153 19.0803 98.1685 19.0206C98.0217 18.9609 97.8883 18.8724 97.7762 18.7603C97.6642 18.6483 97.5757 18.5149 97.516 18.3681C97.4563 18.2212 97.4266 18.0639 97.4287 17.9055C97.4287 17.2288 97.9538 16.7025 98.6311 16.7025ZM98.6311 18.8821C99.1574 18.8821 99.6077 18.4312 99.6077 17.9055C99.6077 17.3043 99.1568 16.8528 98.6311 16.8528C98.1054 16.8528 97.6545 17.3037 97.6545 17.9055C97.6545 18.4312 98.1048 18.8821 98.6311 18.8821ZM98.1808 17.154H98.7059C99.0065 17.154 99.2323 17.3043 99.2323 17.6049C99.2323 17.8306 99.0071 17.9055 98.8568 17.9809L99.2323 18.5821H99.0071L98.6317 17.9809H98.4066V18.5821H98.1814V17.154H98.1808ZM98.406 17.83H98.6311C98.7808 17.83 99.0065 17.7545 99.0065 17.5294C99.0065 17.3791 98.8568 17.3791 98.7059 17.3791H98.4066V17.83H98.406Z" fill="#3D3D3D"/>
<path fill-rule="evenodd" clip-rule="evenodd" d="M35.5 32.2622V22.9432H39.934C42.0382 22.9432 43.7669 23.3941 43.7669 25.2718C43.7669 26.2497 43.0909 26.9257 42.4897 27.3011C43.5418 27.6017 44.0681 28.4293 44.0681 29.4814C44.0681 31.5107 42.4897 32.2622 40.085 32.2622H35.5ZM38.5814 25.1222V26.6251H39.8586C40.4598 26.6251 40.9113 26.4 40.9113 25.8736C40.9113 25.1222 40.3101 25.1222 39.6335 25.1222H38.5814ZM38.5814 28.3538V30.0819H39.934C40.6855 30.0819 41.2119 29.9323 41.2119 29.2562C41.2119 28.4293 40.5352 28.3538 39.5586 28.3538H38.5814ZM45.5711 22.9432H48.6525V28.5048C48.6525 29.4059 48.8028 30.2328 50.0806 30.2328C51.2081 30.2328 51.5087 29.5556 51.5087 28.5048V22.9432H54.5895V28.2042C54.5895 31.2101 53.2368 32.4879 50.0806 32.4879C47.225 32.4879 45.5717 31.4352 45.5717 28.2042L45.5711 22.9432ZM61.278 25.6485C61.278 25.2718 61.0528 25.1222 60.8271 24.9712C60.602 24.897 60.3762 24.8216 60.0756 24.8216C59.3996 24.8216 59.099 25.0467 59.099 25.3479C59.099 26.7754 64.4354 25.8743 64.4354 29.3311C64.4354 31.4358 62.6313 32.4879 60.0762 32.4879C57.596 32.4879 56.0176 31.0592 55.9434 29.4065H58.8739C58.9493 29.7071 59.099 30.0071 59.4002 30.158C59.6253 30.3077 59.9266 30.3831 60.2259 30.3831C61.0528 30.3831 61.5037 30.0826 61.5037 29.7071C61.5037 28.2784 56.1685 29.2562 56.1685 25.6485C56.1685 23.6947 57.8966 22.6426 60.2259 22.6426C62.7816 22.6426 63.9846 23.9946 64.2103 25.6485H61.278ZM66.1635 32.2622H69.2449V22.9432H66.1635V32.2622ZM77.586 28.0526L77.5118 25.8736V22.9432H80.4423V32.2622H77.5118L74.2047 27.1515L74.3544 29.3304V32.2622H71.3484V22.9432H74.2802L77.586 28.0526ZM82.3219 32.2622V22.9432H89.9116V25.1222H85.4021V26.4H89.2355V28.6544H85.4021V30.0819H90.138V32.2622H82.3219ZM96.751 25.6485C96.6755 25.2718 96.5259 25.1222 96.3001 24.9712C96.075 24.897 95.8492 24.8216 95.5486 24.8216C94.8726 24.8216 94.572 25.0467 94.572 25.3479C94.572 26.7754 99.9084 25.8743 99.9084 29.3311C99.9084 31.4358 98.1043 32.4879 95.5492 32.4879C93.069 32.4879 91.4906 31.0592 91.4152 29.4065H94.3469C94.4211 29.7071 94.572 30.0071 94.8732 30.158C95.0984 30.3077 95.3996 30.3831 95.6989 30.3831C96.4504 30.3831 96.9767 30.0826 96.9767 29.7071C96.9767 28.2784 91.6403 29.2562 91.6403 25.6485C91.6403 23.6947 93.2942 22.6426 95.6989 22.6426C98.2546 22.6426 99.4563 23.9946 99.6833 25.6485H96.751ZM106.446 25.6485C106.371 25.2718 106.221 25.1222 105.994 24.9712C105.769 24.897 105.469 24.8216 105.168 24.8216C104.491 24.8216 104.192 25.0467 104.192 25.3479C104.192 26.7754 109.602 25.8743 109.602 29.3311C109.602 31.4358 107.798 32.4879 105.169 32.4879C102.763 32.4879 101.11 31.0592 101.035 29.4065H103.965C104.041 29.7071 104.266 30.0071 104.492 30.158C104.717 30.3077 105.093 30.3831 105.394 30.3831C106.145 30.3831 106.672 30.0826 106.672 29.7071C106.672 28.2784 101.26 29.2562 101.26 25.6485C101.26 23.6947 102.988 22.6426 105.318 22.6426C107.95 22.6426 109.076 23.9946 109.302 25.6485H106.446Z" fill="#D9D9D9"/>
<path fill-rule="evenodd" clip-rule="evenodd" d="M52.3359 36.7697C52.2611 36.4691 52.1108 35.9428 51.2838 35.9428C50.8329 35.9428 50.1563 36.2434 50.1563 37.5954C50.1563 38.4224 50.4569 39.1739 51.2838 39.1739C51.8096 39.1739 52.1856 38.8733 52.3359 38.2727H53.3131C53.0874 39.3254 52.4114 40.0008 51.2838 40.0008C50.0815 40.0008 49.1797 39.1739 49.1797 37.5954C49.1797 35.9428 50.0815 35.1152 51.2838 35.1152C52.712 35.1152 53.2377 36.0918 53.3131 36.7691L52.3359 36.7697ZM56.0939 35.1152C56.6957 35.1152 58.3484 35.4158 58.3484 37.5954C58.3484 39.7002 56.6957 40.0008 56.0939 40.0008C55.4921 40.0008 53.9143 39.7002 53.9143 37.5954C53.9143 35.4165 55.4921 35.1152 56.0939 35.1152ZM56.0939 39.1739C56.6203 39.1739 57.3718 38.8733 57.3718 37.5954C57.3718 36.2434 56.6203 35.9428 56.0939 35.9428C55.5676 35.9428 54.8916 36.2434 54.8916 37.5954C54.8916 38.8733 55.5676 39.1739 56.0939 39.1739ZM63.6094 39.8499H62.7082V36.0176L61.8052 39.8499H60.904L60.0771 36.0176H60.0016V39.8499H59.1005V35.2662H60.528L61.3549 38.8733L62.1819 35.2662H63.6094V39.8499ZM69.0213 39.8499H68.1183V36.0176L67.2913 39.8499H66.3147L65.4878 36.0176V39.8499H64.586V35.2662H65.9393L66.841 38.8733L67.668 35.2662H69.0213V39.8499ZM73.7559 38.2727C73.7559 39.4751 73.0044 40.0008 71.8008 40.0008C71.4254 40.0008 70.7494 39.9253 70.3733 39.399C70.1482 39.1739 69.9979 38.7984 69.9979 38.3463V35.2662H70.9745V38.2721C70.9745 38.8726 71.3499 39.1732 71.8002 39.1732C72.4775 39.1732 72.7781 38.8726 72.7781 38.2721V35.2662H73.7547V38.2727H73.7559ZM77.5875 35.2662H78.4899V39.8499H77.5133L75.6337 36.544V39.8499H74.7325V35.2662H75.7091L77.5875 38.4978V35.2662ZM79.3917 39.8499H80.3683V35.2662H79.3917V39.8499ZM84.2773 36.7697C84.2018 36.4691 84.0521 35.9428 83.2246 35.9428C82.7737 35.9428 82.0977 36.2434 82.0977 37.5954C82.0977 38.4224 82.397 39.1739 83.2246 39.1739C83.7509 39.1739 84.1257 38.8733 84.2773 38.2727H85.2539C85.0288 39.3254 84.3527 40.0008 83.2246 40.0008C82.0222 40.0008 81.1198 39.1739 81.1198 37.5954C81.1198 35.9428 82.0222 35.1152 83.2246 35.1152C84.6521 35.1152 85.1784 36.0918 85.2539 36.7691L84.2773 36.7697ZM86.6814 39.8499H85.7048L87.2832 35.2662H88.4101L90.064 39.8499H89.0113L88.7107 38.9487H86.9826L86.6814 39.8499ZM87.2832 38.1218H88.4101L87.885 36.3176L87.2832 38.1218ZM92.243 39.8499H91.2664V36.0925H89.8389V35.2662H93.5963V36.0925H92.243V39.8499ZM94.1968 39.8499H95.1747V35.2662H94.1968V39.8499ZM98.1051 35.1152C98.7812 35.1152 100.36 35.4158 100.36 37.5954C100.36 39.7002 98.7812 40.0008 98.1051 40.0008C97.5033 40.0008 95.9249 39.7002 95.9249 37.5954C95.9249 35.4165 97.504 35.1152 98.1051 35.1152ZM98.1051 39.1739C98.6315 39.1739 99.383 38.8733 99.383 37.5954C99.383 36.2434 98.6315 35.9428 98.1051 35.9428C97.6542 35.9428 96.9028 36.2434 96.9028 37.5954C96.9034 38.8733 97.6549 39.1739 98.1051 39.1739ZM104.042 35.2662H104.945V39.8499H103.967L102.088 36.544V39.8499H101.187V35.2662H102.164L104.042 38.4978V35.2662ZM106.598 38.4224C106.598 38.723 106.747 39.1739 107.574 39.1739C108.025 39.1739 108.551 39.0984 108.551 38.572C108.551 38.2727 108.176 38.1212 107.725 38.0469L107.199 37.896C106.448 37.7464 105.77 37.5954 105.77 36.544C105.77 36.0176 105.995 35.1152 107.498 35.1152C108.927 35.1152 109.303 36.0176 109.303 36.6182H108.401C108.401 36.3931 108.326 35.9422 107.425 35.9422C107.124 35.9422 106.673 36.0919 106.673 36.4685C106.673 36.844 106.973 36.9194 107.124 36.9949L108.252 37.22C108.928 37.3697 109.455 37.6709 109.455 38.4978C109.455 39.8499 108.026 40.0008 107.65 40.0008C105.997 40.0008 105.697 39.0242 105.697 38.4224H106.598Z" fill="#3D3D3D"/>
</svg>
