<svg width="101" height="28" viewBox="0 0 101 28" fill="none" xmlns="http://www.w3.org/2000/svg">
<path d="M20.715 4.64794C21.1642 4.12259 21.4529 3.57318 21.4529 2.99169C21.4529 2.01718 20.6469 1.3996 19.6603 1.3996C18.742 1.3996 17.98 1.99312 17.8356 2.99169L16.4922 2.66685C16.7488 1.03065 18.0843 0 19.6523 0C21.4128 0 22.8124 1.19908 22.8124 2.97966C22.8124 3.95416 22.3633 4.84044 21.7136 5.59037C20.4143 7.10225 20.3822 7.15839 18.9786 8.81465H22.8445V10.2022H16.6125V9.60869L20.715 4.64794Z" fill="#646464"/>
<path d="M16.6347 17.0043L16.6468 11.9393H27.635C27.7473 12.6451 27.8034 13.375 27.8034 14.1008C27.8034 21.7645 21.5634 28.0006 13.9037 28.0006C6.24004 28.0126 0 21.7766 0 14.1129C0 6.44917 6.24004 0.213147 13.8997 0.213147V5.11775C8.93897 5.11775 4.9046 9.15212 4.9046 14.1129C4.9046 19.0736 8.93897 23.108 13.8997 23.108C17.8418 23.108 21.2145 20.5534 22.4256 17.0043M38.0859 13.5073C38.0859 9.8459 38.3104 8.35407 38.916 7.45977C39.678 6.34089 41.1457 5.72331 43.0627 5.72331C44.755 5.72331 46.1666 6.21657 46.9166 7.10285C47.486 7.72846 47.7226 8.60271 47.7226 9.98225V10.8124H44.6187C44.5745 9.24435 44.5304 8.96363 44.3059 8.62677C44.0612 8.24579 43.588 8.00918 43.0185 8.00918C42.401 8.00918 41.8997 8.27787 41.6871 8.68291C41.3743 9.30852 41.2821 10.4635 41.2821 13.4873C41.2821 15.9857 41.3944 17.4414 41.5949 18.059C41.7753 18.5723 42.2887 18.8651 42.9744 18.8651C44.1855 18.8651 44.5184 18.2475 44.6227 15.9416H47.7146C47.6906 17.8906 47.5783 18.6846 47.1652 19.4466C46.5957 20.5454 45.0919 21.159 42.9303 21.159C40.4118 21.159 38.8879 20.2286 38.3826 18.436C38.1861 17.7101 38.0859 15.9496 38.0859 13.5073ZM49.5032 5.95991H54.3076C56.6135 5.95991 57.0305 6.04814 57.8366 6.69781C58.5545 7.29134 58.9114 8.26584 58.9114 9.70955C58.9114 10.9207 58.6668 11.8511 58.1935 12.4767C57.7885 13.0261 57.2992 13.2627 56.2445 13.4953C58.2497 13.7399 58.9435 14.6823 58.9675 17.2048C58.9675 17.6099 59.0116 18.436 59.0558 19.4666C59.0999 20.1845 59.1239 20.3168 59.3004 20.9464H55.9959C55.8595 19.9719 55.8595 19.9479 55.8595 18.1111C55.8595 16.3065 55.7232 15.4122 55.3663 15.0072C55.1216 14.7385 54.853 14.6703 54.0549 14.6703H52.555V20.9544H49.4952L49.5032 5.95991ZM53.8143 12.4566C55.2139 12.4566 55.7192 11.8631 55.7192 10.2951C55.7192 9.46492 55.4946 8.7952 55.1257 8.47036C54.857 8.24579 54.6565 8.20167 53.8945 8.20167H52.539V12.4566H53.8143ZM60.8604 13.4311C60.8604 9.93413 61.0168 8.72702 61.6223 7.67231C62.3402 6.38501 63.828 5.72331 65.9455 5.72331C68.2875 5.72331 69.8756 6.59755 70.4931 8.24178C70.806 9.04785 70.9423 10.6279 70.9423 13.5073C70.9423 16.6554 70.7859 18.1432 70.3488 18.9974C69.6309 20.4211 68.099 21.183 65.9695 21.183C63.84 21.183 62.3723 20.5334 61.6344 19.234C61.0288 18.1913 60.8604 16.9482 60.8604 13.4311ZM65.9013 18.8731C66.8317 18.8731 67.3811 18.4239 67.5696 17.5417C67.6819 16.9722 67.7701 15.0232 67.7701 12.9258C67.7701 10.676 67.6579 9.35263 67.4333 8.81525C67.2328 8.32198 66.6473 8.00918 65.9094 8.00918C65.0592 8.00918 64.4657 8.39016 64.2972 9.03983C64.1408 9.66544 64.0526 11.2254 64.0526 13.6116C64.0526 15.5927 64.1208 16.892 64.2331 17.5216C64.4015 18.4239 64.9469 18.8731 65.9013 18.8731ZM71.9489 5.95991H75.0729L76.0915 11.426C76.4484 13.4071 76.5407 15.2117 76.7091 18.6606C77.3347 14.0688 77.5392 12.7895 77.828 11.426L79.015 5.95991H82.5201L83.6389 11.426C84.1522 13.9244 84.2645 15.6167 84.4249 18.6606C84.6255 16.118 84.83 14.2572 85.3192 11.426L86.2937 5.95991H89.0368L86.013 20.9585H82.6203L81.2047 13.9885C80.96 12.7774 80.6553 9.94616 80.5871 8.41021C80.1379 11.7829 80.1179 12.2641 79.757 13.9885L78.3012 20.9544H74.8283L71.9489 5.95991ZM90.3762 5.95991H94.567C96.9973 5.95991 97.7392 6.09626 98.4971 6.63365C99.4476 7.32743 99.9208 8.53854 100.121 10.9126C100.189 11.843 100.234 13.0301 100.234 14.0848C100.234 16.7837 100.045 18.1071 99.608 18.9894C98.9824 20.2567 97.5346 20.9705 95.6779 20.9705H90.3923L90.3762 5.95991ZM94.8477 18.5924C95.9225 18.5924 96.516 18.3477 96.7286 17.7863C96.9531 17.1928 97.0213 16.3306 97.0213 13.8763C97.0213 11.1974 96.9331 10.0224 96.6844 9.28446C96.4599 8.65885 95.8543 8.30995 94.9239 8.30995H93.5243V18.5924H94.8477ZM33.5382 0.0527344H32.5396V27.7319H33.5382V0.0527344Z" fill="#646464"/>
</svg>
