<svg width="104" height="24" viewBox="0 0 104 24" fill="none" xmlns="http://www.w3.org/2000/svg">
<path fill-rule="evenodd" clip-rule="evenodd" d="M8.43179 0L9.64139 2.692H3.99235V6.2887H11.3346L12.786 8.9807H3.99235V13.0323H10.1256L7.65711 15.7231H0V0H8.43179Z" fill="#3D3D3D"/>
<path fill-rule="evenodd" clip-rule="evenodd" d="M16.3115 4.17578L18.1552 7.38294L21.7741 4.17578H26.1914L20.2723 10.0373L23.8253 15.7804H19.382L17.6644 12.5362L6.9595 23.764H2.51562L15.6912 9.90893L12.3894 4.17578H16.3115Z" fill="#D9D9D9"/>
<path fill-rule="evenodd" clip-rule="evenodd" d="M34.0641 8.38586C33.5063 6.53549 32.4722 6.51281 31.3328 6.47075C30.059 6.40601 29.1577 7.07334 28.7598 8.19219C28.6276 8.53582 28.202 10.1925 28.6536 11.5914C29.2368 13.4213 30.2184 13.6786 31.3848 13.7001C32.3133 13.7433 33.4809 13.6138 34.0641 11.6356H37.6309C37.6575 13.227 35.8741 14.7814 35.3412 15.1477C34.25 15.8803 33.4538 16.1409 31.1203 16.2068C26.6322 16.334 25.0358 13.3571 24.7691 11.6567C24.6098 10.6247 24.4764 8.62269 25.2749 7.13808C26.9775 4.01337 28.9186 3.97021 31.3052 3.84128C32.7372 3.77599 34.2771 4.05653 35.1011 4.48703C36.7246 5.30653 37.6298 7.4391 37.6298 8.38586H34.0641ZM42.9026 8.79976C42.8755 7.69363 43.7276 6.26436 46.0146 6.35012C48.2479 6.43645 48.6208 7.91054 48.6208 8.79976H42.9026ZM52.4787 10.8255C52.5589 9.42448 52.5589 7.8458 51.2553 6.13487C50.3506 4.97674 48.5937 3.84073 45.775 3.84073C44.1266 3.84073 40.2173 4.05376 39.2865 8.62546C39.1001 9.53183 39.1001 10.436 39.1532 11.126C39.2334 11.8359 39.3657 12.3522 39.4188 12.5448C39.7912 13.5563 40.6688 14.6131 41.999 15.3231C43.0094 15.841 44.3396 16.2073 45.7479 16.2073C48.2744 16.2073 51.6802 14.6779 52.3188 12.4169H48.6479C48.4609 13.0201 47.5562 13.5563 46.4932 13.7289C45.4297 13.8783 44.2052 13.6426 43.3547 12.6958C42.8229 12.0938 42.8229 11.4491 42.9026 10.8255H52.4787ZM54.0629 0H57.783V15.7231H54.0629V0ZM59.8647 0H63.5842V15.7231H59.8647V0ZM69.3002 8.79976C69.2731 7.69363 70.1247 6.26436 72.4117 6.35012C74.6455 6.43645 75.0173 7.91054 75.0173 8.79976H69.3002ZM78.8758 10.8255C78.956 9.42448 78.956 7.8458 77.6523 6.13487C76.7476 4.97674 74.9913 3.84073 72.1721 3.84073C70.5237 3.84073 66.6149 4.05376 65.683 8.62546C65.4971 9.53183 65.4971 10.436 65.5502 11.126C65.6305 11.8359 65.7633 12.3522 65.8159 12.5448C66.1888 13.5563 67.0653 14.6131 68.3955 15.3231C69.4059 15.841 70.7356 16.2073 72.1444 16.2073C74.6721 16.2073 78.0779 14.6779 78.7164 12.4169H75.0439C74.8569 13.0201 73.9533 13.5563 72.8886 13.7289C71.8251 13.8783 70.6028 13.6426 69.7512 12.6958C69.2194 12.0938 69.2194 11.4491 69.2997 10.8255H78.8758ZM80.9021 4.05266H84.6211V5.80841H84.6753C85.3941 4.57999 86.7775 3.84792 88.22 3.84128C91.5218 3.84128 93.7534 4.95737 93.7534 7.88398V15.7237H90.0344V8.76933C90.0344 7.73237 89.8734 6.50119 87.3424 6.50119C85.0737 6.50119 84.6211 7.51656 84.6211 8.46665V15.7231H80.9021V4.05266ZM96.6109 4.29392V1.09174H100.33V4.29392H102.406V6.2887H100.33V12.8474C100.33 13.429 100.436 13.8567 100.942 13.8567L102.353 13.8805V15.9262C101.793 16.0773 101.181 16.1857 100.569 16.2073C99.9575 16.2289 99.3731 16.1857 98.8143 16.0563C97.6987 15.7752 96.8222 15.1084 96.6109 13.8805V6.2887H94.7749V4.29392H96.6109ZM16.0247 23.8677H15.3828L16.1674 17.4656H16.8099L16.5238 19.7946C16.8586 19.4825 17.2968 19.1937 17.7334 19.1937C18.5158 19.1937 19.3337 19.9014 19.1151 21.687C18.9009 23.4323 17.786 24 17.169 24C16.6671 24 16.3467 23.7278 16.0883 23.3504L16.0247 23.8677ZM16.1807 22.5917C16.3152 22.9796 16.6948 23.44 17.1469 23.44C17.5912 23.44 18.2784 23.0045 18.4417 21.671C18.5252 20.9893 18.4876 19.7537 17.5906 19.7537C17.0971 19.7537 16.6854 20.0895 16.4397 20.4863L16.1807 22.5917ZM24.3397 19.3254H24.9805L24.4244 23.8677H23.782L23.8401 23.3985C23.4245 23.7023 23.0338 23.9994 22.5154 23.9994C21.8735 23.9994 21.3982 23.6448 21.5431 22.4606L21.9277 19.3254H22.5701L22.206 22.2963C22.1479 22.7738 22.1441 23.4721 22.662 23.4721C23.0571 23.4721 23.6231 23.0864 23.9159 22.7804L24.3397 19.3254ZM30.0247 20.3369C29.815 19.9584 29.5378 19.7371 29.0619 19.7371C28.6419 19.7371 28.2203 19.9512 28.1639 20.4127C28.0277 21.5227 30.4818 21.0374 30.2942 22.5668C30.1852 23.4561 29.4852 24 28.6292 24C27.8966 24 27.3444 23.6791 27.0505 23.0455L27.6 22.7234C27.7903 23.1938 28.1517 23.4561 28.6951 23.4561C29.1643 23.4561 29.6153 23.2021 29.6789 22.6825C29.8183 21.5393 27.3582 22.0827 27.5579 20.452C27.6537 19.6718 28.3536 19.1942 29.1029 19.1942C29.7364 19.1942 30.2306 19.4571 30.5205 19.9844L30.0247 20.3369ZM33.3105 23.8677H32.6686L33.2258 19.3254H33.8677L33.3105 23.8677ZM34.0093 18.1733H33.3675L33.4538 17.4656H34.0968L34.0093 18.1733ZM36.6017 23.8677H35.9593L36.5165 19.3254H37.1589L37.1003 19.7946C37.517 19.4908 37.9071 19.1937 38.4261 19.1937C39.0669 19.1937 39.5433 19.5484 39.3972 20.7325L39.0132 23.8677H38.3708L38.7349 20.898C38.7935 20.4193 38.9606 19.721 38.2789 19.721C37.8838 19.721 37.3189 20.1056 37.025 20.4127L36.6017 23.8677ZM42.4705 21.7042C42.3111 23.0045 42.8069 23.4561 43.4648 23.4561C43.9418 23.4561 44.3927 23.0693 44.6716 22.6747L45.0949 22.9796C44.7773 23.5645 44.115 24 43.3326 24C42.3199 24 41.5995 23.2995 41.8087 21.5963C42.0178 19.8942 42.9093 19.1937 43.9219 19.1937C45.2305 19.1937 45.4369 20.592 45.21 21.7042H42.4705ZM44.6014 21.1608C44.6904 20.5759 44.4802 19.7376 43.8057 19.7376C43.0808 19.7376 42.6392 20.5189 42.5529 21.1608H44.6014ZM50.4712 20.3369C50.2626 19.9584 49.9854 19.7371 49.5084 19.7371C49.0878 19.7371 48.6667 19.9512 48.6109 20.4127C48.4742 21.5227 50.9282 21.0374 50.7401 22.5668C50.6311 23.4561 49.9311 24 49.0762 24C48.3436 24 47.7903 23.6791 47.4975 23.0455L48.0465 22.7234C48.2363 23.1938 48.5992 23.4561 49.1421 23.4561C49.6113 23.4561 50.0634 23.2021 50.1248 22.6825C50.2648 21.5393 47.8046 22.0827 48.0044 20.452C48.1001 19.6718 48.8007 19.1942 49.5488 19.1942C50.1835 19.1942 50.6776 19.4571 50.9664 19.9844L50.4712 20.3369ZM56.0666 20.3369C55.8579 19.9584 55.5802 19.7371 55.1026 19.7371C54.6832 19.7371 54.2616 19.9512 54.2057 20.4127C54.0696 21.5227 56.5236 21.0374 56.336 22.5668C56.227 23.4561 55.5265 24 54.6716 24C53.9401 24 53.3856 23.6791 53.0935 23.0455L53.6424 22.7234C53.8316 23.1938 54.1935 23.4561 54.7374 23.4561C55.2078 23.4561 55.6571 23.2021 55.7207 22.6825C55.8613 21.5393 53.3995 22.0827 53.6003 20.452C53.6955 19.6718 54.3966 19.1942 55.1447 19.1942C55.7788 19.1942 56.273 19.4571 56.5618 19.9844L56.0666 20.3369ZM65.6759 20.3369C65.4672 19.9584 65.1906 19.7371 64.713 19.7371C64.2925 19.7371 63.8714 19.9512 63.8161 20.4127C63.6789 21.5227 66.1335 21.0374 65.9464 22.5668C65.8363 23.4561 65.1369 24 64.2809 24C63.5483 24 62.9949 23.6791 62.7028 23.0455L63.2517 22.7234C63.4409 23.1938 63.805 23.4561 64.3473 23.4561C64.8165 23.4561 65.268 23.2021 65.3295 22.6825C65.4711 21.5393 63.0104 22.0827 63.2091 20.452C63.3053 19.6718 64.0053 19.1942 64.7534 19.1942C65.3876 19.1942 65.8828 19.4571 66.1711 19.9844L65.6759 20.3369ZM68.4669 21.5963C68.6755 19.8942 69.5681 19.1937 70.5796 19.1937C71.5911 19.1937 72.3121 19.8942 72.1046 21.5963C71.8948 23.2995 71.0034 24 69.9908 24C68.9782 24 68.2577 23.2995 68.4669 21.5963ZM71.4621 21.5963C71.5573 20.8227 71.5009 19.7376 70.5143 19.7376C69.5266 19.7376 69.2034 20.8227 69.1093 21.5963C69.0142 22.371 69.0706 23.4561 70.0572 23.4561C71.0449 23.4561 71.367 22.371 71.4621 21.5963ZM76.5772 19.8693H75.7383L75.2486 23.8683H74.6068L75.0976 19.8693H74.4059L74.4717 19.3259H75.1623L75.2652 18.5037C75.3593 17.729 75.8446 17.3356 76.6098 17.3356L76.9407 17.3843L76.8738 17.9365C76.7756 17.8993 76.6717 17.8792 76.5667 17.8773C76.0814 17.8773 75.9541 18.1257 75.9077 18.4943L75.8058 19.3265H76.6447L76.5772 19.8693ZM79.8104 19.3254H80.839L80.7732 19.8688H79.7445L79.3954 22.7229C79.34 23.1672 79.2958 23.4555 79.8231 23.4555C80.0035 23.4555 80.1789 23.4395 80.3399 23.398L80.2835 23.8672C80.0682 23.9408 79.8469 23.9989 79.6255 23.9989C78.5382 23.9989 78.6865 23.2663 78.7878 22.4352L79.1021 19.8682H78.4115L78.4774 19.3248H79.169L79.3494 17.8518H79.9913L79.8104 19.3254ZM86.1998 23.8677H85.5657L85.185 20.2627H85.1689L83.8785 23.8677H83.2278L82.6175 19.3254H83.2433L83.6622 23.0206H83.6788L85.0035 19.3254H85.6293L86.0078 23.0206H86.0238L87.3242 19.3254H87.9572L86.1998 23.8677ZM92.1377 23.8677L92.1443 23.2917C91.7293 23.6536 91.2756 23.9994 90.7405 23.9994C90.0411 23.9994 89.553 23.4146 89.6404 22.7002C89.8015 21.3976 91.2009 21.1193 92.2384 20.8476L92.4503 20.7895L92.4807 20.5344C92.5455 20.0154 92.2267 19.7371 91.7155 19.7371C91.2141 19.7371 90.8273 20.0669 90.5169 20.4514L90.1052 20.1156C90.5507 19.5722 91.0907 19.1937 91.7824 19.1937C92.3994 19.1937 93.2416 19.5722 93.1149 20.6086L92.8382 22.864C92.8044 23.2021 92.7452 23.5479 92.8393 23.8677H92.1377ZM92.1211 21.3921C91.4897 21.5714 90.3498 21.8198 90.248 22.6338C90.2026 23.0112 90.4522 23.3913 90.8401 23.3913C91.3492 23.3913 91.8615 23.0366 92.2223 22.6498L92.3844 21.3174L92.1211 21.3921ZM96.4592 20.3048H96.4753C96.7973 19.7614 97.1874 19.2606 97.862 19.2606H98.1093L98.0368 19.8433C97.2134 19.7288 96.6651 20.6346 96.3381 21.2925L96.0227 23.8677H95.3808L95.9374 19.3254H96.5793L96.4592 20.3048ZM100.706 21.7042C100.546 23.0045 101.041 23.4561 101.7 23.4561C102.177 23.4561 102.628 23.0693 102.907 22.6747L103.331 22.9796C103.014 23.5645 102.35 24 101.567 24C100.557 24 99.8346 23.2995 100.044 21.5963C100.253 19.8942 101.145 19.1937 102.157 19.1937C103.465 19.1937 103.672 20.592 103.445 21.7042H100.706ZM102.837 21.1608C102.926 20.5759 102.716 19.7376 102.041 19.7376C101.316 19.7376 100.876 20.5189 100.789 21.1608H102.837Z" fill="#3D3D3D"/>
</svg>
