<svg width="102" height="28" viewBox="0 0 102 28" fill="none" xmlns="http://www.w3.org/2000/svg">
<path fill-rule="evenodd" clip-rule="evenodd" d="M68.3918 7.72442H60.7035V9.33369C61.3442 9.33369 61.9855 9.49468 62.1448 9.81664C62.4657 9.97762 62.6261 10.46 62.6261 11.104V13.3572H57.3402V11.104C57.3402 10.4606 57.5007 9.97762 57.6611 9.81664C57.9809 9.49468 58.6221 9.33369 59.2628 9.33369V7.72442H51.4141V9.33369C52.0548 9.33369 52.2147 9.3337 52.5345 9.49468C52.8554 9.49468 52.8554 9.81664 53.0148 9.81664C53.3357 10.2996 53.4961 10.621 53.4961 11.104V19.6327C53.4961 19.6327 53.3357 20.1151 53.0148 20.2761L52.5345 20.7585H51.4141V22.3683H59.2617V20.7585H58.1403C57.9798 20.4366 57.66 20.2761 57.66 20.2761C57.4996 20.1146 57.4996 19.7926 57.4996 19.6327C57.3391 19.4712 57.3391 18.9893 57.3391 18.9893V15.6098H62.6251V19.6327C62.6251 19.6327 62.4646 20.1151 62.4646 20.2761C62.1437 20.2761 61.9844 20.4366 61.8239 20.7585H60.7025V22.3683H68.3907V20.7585H67.2692C67.1088 20.4366 66.9494 20.2761 66.6285 20.2761C66.6285 20.1146 66.4681 19.7926 66.4681 19.6327V11.1034C66.4681 10.6205 66.6285 10.299 66.9494 9.8161C67.1088 9.49414 67.75 9.33315 68.3907 9.33315V7.72442H68.3918ZM69.3528 7.72442V9.33369C69.9935 9.33369 70.4732 9.3337 70.6336 9.49468C70.9545 9.49468 71.1139 9.81664 71.1139 9.97762C71.4348 10.2996 71.4347 10.4606 71.4347 10.4606L71.5952 11.104V19.6327C71.5952 19.6327 71.4348 20.1151 71.1139 20.2761L70.6336 20.7585H69.3528V22.3683H82.9665L85.5293 17.2186L83.9276 16.5752C82.9665 18.1844 82.005 18.9894 80.7241 19.6327C79.4422 20.2761 78.1614 20.4366 76.7201 20.4366C76.2388 20.4366 76.0784 20.4366 75.7591 20.2761C75.5987 20.1146 75.4382 19.4712 75.4382 18.6668V15.6093H76.0789C77.0399 15.6093 77.5213 15.7697 77.8411 15.9312C78.3224 16.4147 78.6416 17.0581 78.6416 17.8619H80.2434V11.1034H78.6416C78.6416 11.9078 78.3218 12.5517 77.8411 13.0347C77.5213 13.1956 77.0405 13.3566 76.0789 13.3566H75.4382V11.4254C75.4382 10.621 75.5987 10.46 75.5987 9.97708C75.7591 9.8161 76.3993 9.49414 77.2004 9.49414H77.6806C79.2823 9.49414 80.4038 9.97708 81.3648 10.6205C82.3259 11.2644 82.9665 12.0688 83.4468 12.8731L84.8891 12.0688L82.8066 7.72388L69.3528 7.72442ZM99.3035 17.2186C98.9826 17.8619 98.5029 18.6674 97.7018 19.4712C97.2204 19.7932 96.9012 20.1146 96.2605 20.2761C95.7792 20.7585 95.139 20.7585 94.4983 20.7585C94.017 20.7585 93.8577 20.7585 93.2164 20.4366C92.7362 20.2761 92.4158 20.1146 91.9356 19.6327C91.6147 19.1493 91.135 18.6674 90.9746 17.8625C90.6548 17.2191 90.4943 16.0922 90.4943 15.1269C90.4943 13.0352 90.6548 11.4259 91.6147 10.6215C92.4153 9.49522 93.2164 9.17325 94.017 9.17325C95.2989 9.17325 96.26 9.49521 97.0611 10.4606C97.7018 11.2655 98.5023 12.0698 98.9826 13.3572L100.745 12.8742L98.8232 7.72496H97.5413L97.2204 8.04692C96.9006 7.88594 96.2605 7.72496 95.6187 7.403C95.1385 7.403 94.3379 7.24256 93.6972 7.24256C91.2949 7.24256 89.3723 8.04692 88.0915 9.33477C86.8096 10.7831 86.009 12.8747 86.009 15.1274C86.009 17.2196 86.8096 19.1503 88.4113 20.7596C89.5328 22.2084 91.6147 22.8518 93.8577 22.8518C95.7792 22.8518 97.5408 22.2084 98.5023 21.2426C99.7832 20.4376 100.425 19.1503 101.065 18.185L99.3035 17.2186ZM37.9592 2.57463C36.1976 0.804908 33.9552 0 30.7518 0C26.267 0 22.1025 1.4483 18.4189 4.1839C15.0555 7.24147 13.1335 10.621 12.3323 14.4824C12.012 15.6093 11.8516 16.4142 11.8516 17.218C11.8516 20.758 13.1329 23.1716 15.055 25.2644C17.1369 27.0347 19.6997 28 22.9031 28C24.8252 28 26.4269 27.678 28.1885 27.3566C29.6298 26.8731 31.5524 25.7473 32.6733 24.9424C34.4349 23.4936 33.4739 23.0117 32.1925 23.8156C31.5518 24.299 29.6298 25.4248 28.3484 25.5858C27.2269 25.7473 25.6252 26.0682 23.8636 26.0682C21.1404 26.0682 19.0585 25.4248 17.2968 23.8156C15.6951 22.2063 15.0544 20.2756 15.0544 17.54C15.0544 16.5746 15.0544 15.7697 15.2143 14.9654C15.855 11.2639 17.6166 8.36726 20.1794 5.79264C23.0625 3.21801 26.2659 1.9307 30.1095 1.9307C32.6722 1.9307 34.5943 2.57408 36.0355 4.02292C37.3169 5.31023 38.1175 7.24147 38.1175 9.33369C37.9571 12.5522 37.1565 15.1263 36.0355 16.5752C34.5943 18.6674 33.4728 19.1498 33.3124 19.1498C32.8321 19.1498 32.8321 18.9893 32.8321 18.9893C32.8321 18.1844 33.4728 15.9318 33.6327 15.1269L36.035 7.403C36.035 7.24255 36.035 7.08103 35.5542 7.08103H32.5112C32.1909 7.08103 31.5502 7.24201 31.3898 7.88594L31.0694 8.52987C29.9485 13.3577 26.9055 16.4153 26.1044 17.2191C24.823 18.5064 23.8625 18.9893 23.5416 18.9893C23.0614 18.9893 23.0614 18.6674 23.0614 18.346C23.0614 18.1844 23.0614 17.8625 23.2213 16.8971L25.784 10.621C26.2648 9.81664 26.2648 8.85075 26.2648 8.52933C26.2648 7.40245 25.6241 6.59809 24.3428 6.59809C23.0614 6.59809 20.9789 7.08103 18.5766 9.17325C17.6156 10.4606 17.2952 11.104 17.2952 11.104C17.2952 11.4259 17.7755 11.4259 17.7755 11.4259C18.0958 11.4259 18.5766 10.7825 19.0568 10.4606C19.6975 9.81718 20.4981 8.85129 21.1388 8.85129C21.619 8.85129 21.619 9.17325 21.619 9.33423C21.619 9.49521 21.2987 9.97762 21.1388 10.6215L19.2167 14.9664C18.8964 15.9318 17.9354 17.8625 17.9354 19.6333C17.9354 21.7255 19.5371 22.2079 20.3382 22.2079C22.4202 22.2079 26.1038 20.2772 29.3078 14.645L28.8276 16.0928C28.6671 17.0592 28.1863 18.9899 28.1863 20.4376C28.1863 20.9211 28.1863 22.2079 29.6276 22.2079C32.831 22.2079 35.2333 19.7937 36.5152 18.3465C38.117 16.0928 39.5582 14.0011 39.7187 12.0704C40.039 10.6221 40.039 9.49576 40.039 8.69085C40.0417 5.95416 39.5609 4.02292 37.9592 2.57463Z" fill="#3D3D3D"/>
<path fill-rule="evenodd" clip-rule="evenodd" d="M37.9592 2.57463C36.1976 0.804908 33.9552 0 30.7518 0C26.267 0 22.1025 1.4483 18.4189 4.1839C15.0555 7.24147 13.1335 10.621 12.3323 14.4824C12.012 15.6093 11.8516 16.4142 11.8516 17.218C11.8516 20.758 13.1329 23.1716 15.055 25.2644C17.1369 27.0347 19.6997 28 22.9031 28C24.8252 28 26.4269 27.678 28.1885 27.3566C29.6298 26.8731 31.5524 25.7473 32.6733 24.9424C34.4349 23.4936 33.4739 23.0117 32.1925 23.8156C31.5518 24.299 29.6298 25.4248 28.3484 25.5858C27.2269 25.7473 25.6252 26.0682 23.8636 26.0682C21.1404 26.0682 19.0585 25.4248 17.2968 23.8156C15.6951 22.2063 15.0544 20.2756 15.0544 17.54C15.0544 16.5746 15.0544 15.7697 15.2144 14.9654C15.855 11.2639 17.6166 8.36726 20.1794 5.79264C23.0625 3.21801 26.2659 1.9307 30.1095 1.9307C32.6722 1.9307 34.5943 2.57408 36.0355 4.02292C37.3169 5.31023 38.1175 7.24147 38.1175 9.33369C37.9571 12.5522 37.1565 15.1263 36.0355 16.5752C34.5943 18.6674 33.3124 19.1498 33.3124 19.1498L32.8321 18.9893C32.8321 18.1844 33.4728 15.9318 33.6327 15.1269L36.035 7.403C36.035 7.24255 35.5542 7.08103 35.5542 7.08103H32.5112C32.1909 7.08103 31.5502 7.24201 31.3898 7.88594L31.0694 8.52987C29.9485 13.3577 26.9055 16.4153 26.1044 17.2191C24.823 18.5064 23.8625 18.9893 23.5416 18.9893C23.0614 18.9893 23.0614 18.346 23.0614 18.346C23.0614 18.346 23.0614 17.8625 23.2213 16.8971L25.784 10.621C26.2648 9.81664 26.2648 8.85075 26.2648 8.52933C26.2648 7.40245 25.6241 6.59809 24.3428 6.59809C23.0614 6.59809 20.9789 7.08103 18.5766 9.17325C17.6156 10.4606 17.2952 11.104 17.2952 11.104C17.2952 11.4259 17.7755 11.4259 17.7755 11.4259C18.0958 11.4259 18.5766 10.7825 19.0568 10.4606C19.6975 9.81718 20.4981 8.85129 21.1388 8.85129C21.619 8.85129 21.619 9.33423 21.619 9.33423C21.619 9.33423 21.2987 9.97762 21.1388 10.6215L19.2167 14.9664C18.8964 15.9318 17.9354 17.8625 17.9354 19.6333C17.9354 21.7255 19.5371 22.2079 20.3382 22.2079C22.4202 22.2079 26.1038 20.2772 29.3078 14.645L28.8276 16.0928C28.6671 17.0592 28.1863 18.9899 28.1863 20.4376C28.1863 20.9211 28.1863 22.2079 29.6276 22.2079C32.831 22.2079 35.2333 19.7937 36.5152 18.3465C38.117 16.0928 39.5582 14.0011 39.7187 12.0704C40.039 10.6221 40.039 9.49576 40.039 8.69085C40.0417 5.95416 39.5609 4.02292 37.9592 2.57463Z" fill="#D9D9D9"/>
<path fill-rule="evenodd" clip-rule="evenodd" d="M0 7.72318V9.33246C0.320343 9.33246 0.480784 9.33246 0.961028 9.49344C1.12093 9.49344 1.44181 9.8154 1.60171 9.97638C1.60171 10.2983 1.76161 10.2983 1.76161 10.4593V19.6315C1.76161 19.7919 1.60171 20.1139 1.60171 20.2749C1.44181 20.2749 1.12093 20.4353 0.961028 20.7573H0V22.3671H10.4114C11.212 22.3671 11.8527 22.2056 12.4934 21.8836C13.134 21.7232 13.7747 21.0787 14.0945 20.7568C14.5753 20.1134 14.8957 19.1475 14.8957 18.1821C14.8957 17.5387 14.8957 17.0563 14.5753 16.5728C14.4154 15.9295 13.9346 15.6075 13.4544 15.124C13.134 14.4806 12.3329 13.9977 11.3724 13.9977C10.4114 13.6763 8.97013 13.3543 7.52832 13.3543H5.60627V10.6187C5.60627 10.4577 5.60627 10.2967 5.92661 9.9753L6.08651 9.81432C6.24695 9.49236 6.56729 9.49236 6.88764 9.49236H7.36788C8.64925 9.49236 9.93062 9.81432 10.4114 10.4577C11.212 10.7797 11.8527 11.745 12.4934 12.8714L13.9346 12.067L12.3329 7.7221H0V7.72318ZM5.60627 15.608H7.36788C8.32891 15.608 9.28994 15.7685 9.77018 15.93C10.4114 16.4135 10.5708 17.0569 10.5708 17.8607C10.5708 18.5041 10.4109 18.9876 10.0905 19.631C9.93062 19.7914 9.44984 20.1134 8.96959 20.2743C8.64925 20.4348 8.16847 20.4348 7.52832 20.4348C6.88764 20.4348 6.72774 20.4348 6.24695 20.2743C5.92661 20.2743 5.60627 19.7909 5.60627 19.4694V15.608ZM41.6435 15.7685H44.5266C45.0068 15.93 45.3271 16.0904 45.6475 16.4129C45.8074 16.8954 45.9678 17.2168 45.9678 17.8607C45.9678 18.6656 45.8074 19.47 45.1667 19.7914C44.8464 20.4348 43.8853 20.7568 42.7644 20.9183C42.2842 20.9183 41.8034 20.7568 41.3231 20.7568C41.1632 20.4348 41.0028 20.4348 40.6824 20.2743C40.522 20.1128 40.3621 19.7909 40.3621 19.631C40.0418 19.4694 40.0418 19.1475 40.0418 18.9876C40.0418 18.9876 40.0418 18.6656 40.3621 18.5041V17.8607C40.3621 17.5393 40.0418 17.2173 39.8819 16.8954C39.7214 16.4129 39.0807 16.0904 38.44 16.0904C37.7994 16.0904 37.3191 16.5739 36.9988 17.0569C36.6784 17.2173 36.5185 17.8607 36.5185 18.5046C36.5185 19.6315 37.1592 20.7573 38.1202 21.5622C39.2412 22.3671 41.1632 22.8495 43.4056 22.8495C45.9684 22.8495 47.73 22.3671 48.8514 21.2402C49.8125 20.4353 50.2927 19.47 50.2927 18.1827C50.2927 17.2173 50.1328 16.4135 49.4921 15.7685C48.8514 14.9647 47.8904 14.6427 46.7695 14.4812H46.9294C47.73 14.3207 48.3707 13.8378 49.0113 13.3554C49.6526 12.8724 49.8119 12.0681 49.8119 11.2632C49.8119 10.2973 49.4916 9.17094 48.3707 8.52755C47.5701 7.72264 45.9684 7.24023 44.2062 7.24023C43.2452 7.24023 42.4446 7.40068 41.8039 7.40068C41.1632 7.72264 40.5225 7.88362 39.8819 8.04461L39.7214 7.72264H37.7994L37.3186 12.0675L39.561 12.3895C39.7209 11.9065 39.8813 11.2632 40.522 10.4582C41.0028 10.2973 41.3226 9.81486 41.8034 9.4929C42.2842 9.33192 42.7644 9.17094 43.2446 9.17094C44.3661 9.33192 45.0063 9.4929 45.3266 9.9753C45.6469 10.2973 45.8074 10.4582 45.8074 10.6187C45.8074 10.7791 45.9678 11.1016 45.9678 11.2626C45.8074 11.906 45.8074 12.3889 45.6475 12.5499C45.1667 13.0329 45.0068 13.1933 44.5266 13.1933C44.2062 13.3543 43.7254 13.6763 43.2452 13.6763H41.6429L41.6435 15.7685Z" fill="#3D3D3D"/>
<path fill-rule="evenodd" clip-rule="evenodd" d="M45.5186 2.45943H45.9788V5.92216H45.5186V3.11741L43.7127 5.92216H43.2578V2.45943H43.7127V5.2442L45.5186 2.45943ZM51.906 5.92216H51.4511V2.45943H51.906V3.90395H53.613V2.45943H54.0679V5.92216H53.613V4.29452H51.906V5.92216ZM61.0587 5.53159H60.8659C60.7837 5.53159 60.6822 5.52457 60.5639 5.5116C60.4391 5.4972 60.3163 5.46912 60.1976 5.42787C59.9805 5.3517 59.7811 5.21827 59.6012 5.02704C59.4213 4.8358 59.3311 4.54571 59.3311 4.15622C59.3311 3.76349 59.423 3.47124 59.6066 3.27839C59.7892 3.08553 59.9918 2.95426 60.2122 2.88512C60.3348 2.84568 60.4515 2.81921 60.5655 2.80624C60.6795 2.79328 60.7794 2.78626 60.8653 2.78626H61.0582V2.26172H61.513V2.78626H61.701C61.7864 2.78626 61.8868 2.7922 62.0008 2.80355C62.1148 2.81489 62.231 2.84028 62.3493 2.88025C62.5707 2.9494 62.7744 3.08013 62.9602 3.27136C63.1471 3.4626 63.2401 3.75755 63.2401 4.15676C63.2401 4.5295 63.1569 4.81041 62.9878 5.00057C62.8198 5.19018 62.6356 5.32469 62.4341 5.40356C62.2974 5.45665 62.1545 5.49241 62.0089 5.50998C61.8739 5.52457 61.7718 5.53213 61.7021 5.53213H61.5141V6.05127H61.0592L61.0587 5.53159ZM61.0587 3.15198H60.9301C60.5768 3.15198 60.3235 3.21572 60.1706 3.34267C60.0177 3.46962 59.9172 3.609 59.8708 3.76025C59.8496 3.82878 59.8347 3.89913 59.8265 3.97039C59.8144 4.09197 59.8136 4.2144 59.8243 4.33611C59.8297 4.4004 59.8411 4.46738 59.8611 4.53653C59.9075 4.69481 60.0075 4.83905 60.1609 4.96924C60.3143 5.09943 60.5704 5.16479 60.9301 5.16479H61.0587V3.15198ZM61.6421 5.16533C61.7043 5.16533 61.7739 5.16209 61.8501 5.15507C61.9301 5.14804 62.0093 5.13485 62.0873 5.11563C62.2553 5.06971 62.4092 4.97734 62.5475 4.8385C62.6858 4.69967 62.7555 4.47224 62.7555 4.15568C62.7555 3.84236 62.6847 3.61656 62.5443 3.47826C62.4171 3.34723 62.2579 3.25169 62.0824 3.20114C62.0035 3.18115 61.9263 3.16819 61.8501 3.1617C61.7739 3.15522 61.7043 3.15144 61.6421 3.15144H61.5136V5.16479L61.6421 5.16533ZM69.9289 6.02588C69.4076 6.02264 69.0078 5.85625 68.7291 5.52673C68.4504 5.19666 68.3115 4.75153 68.3115 4.19134C68.3115 3.53499 68.4752 3.06501 68.801 2.7814C69.1109 2.50407 69.513 2.35229 69.9289 2.35571C70.3616 2.35571 70.7381 2.49779 71.0623 2.7814C71.3853 3.06501 71.5463 3.53499 71.5463 4.19134C71.5463 4.75477 71.4069 5.20098 71.1287 5.52943C70.8505 5.85787 70.4502 6.02156 69.9289 6.02156V6.02588ZM69.9289 5.63531C70.3216 5.63531 70.6085 5.50026 70.79 5.23016C70.9715 4.96005 71.0623 4.61324 71.0623 4.19134C71.0623 3.79212 70.9991 3.49285 70.8732 3.29351C70.7489 3.09418 70.6096 2.95481 70.4583 2.87539C70.3642 2.82346 70.2622 2.78749 70.1563 2.76897C70.081 2.7562 70.0048 2.7488 69.9284 2.74683C69.8754 2.74683 69.8198 2.75007 69.7604 2.75655C69.6996 2.76329 69.6399 2.77669 69.5821 2.79652C69.3838 2.8527 69.2034 2.98344 69.0408 3.1898C68.8771 3.39615 68.795 3.73 68.795 4.19134C68.795 4.27021 68.8004 4.36258 68.8107 4.46846C68.8204 4.5738 68.8404 4.68238 68.8696 4.79475C68.9257 5.00597 69.0332 5.19882 69.1915 5.37331C69.3509 5.5478 69.5956 5.63531 69.9289 5.63531Z" fill="#3D3D3D"/>
</svg>
