<svg width="123" height="32" viewBox="0 0 123 32" fill="none" xmlns="http://www.w3.org/2000/svg">
<path d="M20.5381 17.9919C20.6111 16.6793 21.2548 15.5218 22.2245 14.7008C23.177 13.8946 24.4581 13.4032 25.8557 13.4023C27.2533 13.4032 28.5344 13.8946 29.4869 14.7008C30.4566 15.5218 31.1002 16.6793 31.1742 17.9919C31.2481 19.3416 30.7061 20.5967 29.7539 21.5256C28.784 22.4709 27.402 23.065 25.8566 23.065C24.3103 23.065 22.9274 22.4709 21.9566 21.5256C21.0052 20.5967 20.4633 19.3416 20.5381 17.9919Z" fill="#3D3D3D"/>
<path d="M12.0658 20.649C12.0747 21.1613 12.2397 22.1599 12.485 22.9416C13.0016 24.5924 13.8784 26.1206 15.0994 27.4677C16.3518 28.8506 17.8921 29.9629 19.6733 30.7509C21.5458 31.5807 23.5751 32.0042 25.6789 32C27.7836 31.9964 29.8118 31.566 31.6842 30.7311C33.4639 29.9344 35.0042 28.8194 36.2557 27.4329C37.475 26.0806 38.35 24.5498 38.8674 22.8982C39.126 22.0758 39.2908 21.2268 39.3588 20.3673C39.4236 19.529 39.3965 18.6862 39.278 17.8538C39.0458 16.2213 38.4805 14.6888 37.6117 13.2919C36.8139 12.0092 35.7895 10.8855 34.57 9.93922L34.5718 9.93744L22.2677 0.488775C22.2574 0.479898 22.247 0.471144 22.2365 0.462507C21.4267 -0.155796 20.0699 -0.154017 19.1828 0.466957C18.2835 1.09573 18.1827 2.13328 18.9802 2.78988L18.9775 2.79166L24.1099 6.96638L8.46504 6.98286H8.44345C7.15095 6.98375 5.909 7.83361 5.66186 8.905C5.41049 9.99756 6.28907 10.9029 7.63277 10.908L7.63099 10.9133L15.5603 10.8977L1.40989 21.758C1.39252 21.7718 1.37337 21.7849 1.35601 21.7988C0.0225457 22.8207 -0.409621 24.5211 0.430443 25.597C1.28453 26.6911 3.09781 26.692 4.44708 25.6014L12.1693 19.2828C12.1693 19.2828 12.0571 20.136 12.0658 20.649ZM31.9087 23.5045C30.3181 25.1274 28.0915 26.0458 25.6798 26.0501C23.2671 26.0545 21.0397 25.143 19.448 23.5243C18.6705 22.7348 18.0992 21.8293 17.746 20.8614C17.4002 19.9106 17.2669 18.8955 17.3555 17.8877C17.4402 16.9043 17.7309 15.9499 18.2087 15.0863C18.6741 14.2426 19.3133 13.4807 20.1021 12.8355C21.6485 11.5744 23.6167 10.8924 25.678 10.8897C27.7393 10.8873 29.7067 11.5639 31.2539 12.8197C32.0418 13.4616 32.6811 14.2208 33.1455 15.0629C33.6236 15.9255 33.9148 16.8791 34.0005 17.8616C34.0887 18.8698 33.9551 19.885 33.6091 20.836C33.2568 21.805 32.6862 22.7121 31.9087 23.5045Z" fill="#D9D9D9"/>
<path d="M104.839 17.972C104.959 16.6457 105.984 15.8047 107.549 15.8047C109.115 15.8047 110.14 16.6457 110.261 17.972H104.839ZM110.1 21.2439C109.698 22.2276 108.754 22.8096 107.47 22.8096C105.863 22.8096 104.78 21.8059 104.74 20.2204H113.975V19.7541C113.975 15.7838 111.646 13.5519 107.47 13.5519C103.414 13.5519 100.964 15.8047 100.964 19.3375C100.964 22.8904 103.453 25.1385 107.47 25.1385C109.878 25.1385 111.749 24.314 112.903 22.8599L110.1 21.2439ZM63.8466 17.978C63.9693 16.6517 64.9922 15.8116 66.5585 15.8116C68.1231 15.8116 69.1486 16.6517 69.2686 17.978H63.8466ZM69.1077 21.251C68.7067 22.2345 67.7622 22.8165 66.4777 22.8165C64.8713 22.8165 63.7867 21.8119 63.7467 20.2264H72.9822V19.761C72.9822 15.7907 70.6524 13.5582 66.4777 13.5582C62.4203 13.5582 59.9729 15.8116 59.9729 19.3436C59.9729 22.8973 62.4604 25.1456 66.4777 25.1456C68.8859 25.1456 70.7566 24.3212 71.9108 22.8668L69.1077 21.251ZM55.812 11.1524H59.1449V24.782H55.812V11.1524ZM73.8103 14.7723H77.1605V15.5845C78.3495 14.3192 79.7715 13.68 81.3771 13.68C83.2287 13.68 84.6298 14.3192 85.3534 15.408C85.9561 16.3081 85.9962 17.3936 85.9962 18.8217V24.782H82.6406V19.5437C82.6406 17.3729 82.204 16.3683 80.2968 16.3683C78.3677 16.3683 77.1605 17.5163 77.1605 19.4435V24.782H73.8103V14.7723ZM96.7843 19.5045C96.7843 21.371 95.5379 22.5947 93.6116 22.5947C91.6825 22.5947 90.437 21.4118 90.437 19.5261C90.437 17.6138 91.6634 16.4308 93.6116 16.4308C95.5379 16.4308 96.7843 17.6329 96.7843 19.5045ZM96.7843 15.2272C95.9398 14.3192 94.7144 13.8207 93.0088 13.8207C89.3369 13.8207 86.824 16.0891 86.824 19.4854C86.824 22.8147 89.3159 25.1438 92.9478 25.1438C94.6153 25.1438 95.8399 24.7237 96.7843 23.7783V24.782H100.137V10.287L96.7843 11.1524V15.2272ZM48.1985 16.4308C50.1458 16.4308 51.3704 17.6138 51.3704 19.5261C51.3704 21.4118 50.1257 22.5947 48.1985 22.5947C46.2712 22.5947 45.0257 21.371 45.0257 19.5045C45.0257 17.6329 46.2712 16.4308 48.1985 16.4308ZM45.0257 11.1524L41.6719 10.287V24.782H45.0257V23.7783C45.9693 24.7237 47.1939 25.1438 48.8604 25.1438C52.4941 25.1438 54.984 22.8147 54.984 19.4854C54.984 16.0891 52.4749 13.8207 48.8003 13.8207C47.093 13.8207 45.8693 14.3192 45.0257 15.2272V11.1524ZM114.803 24.782V14.7723H118.156V15.3906C119.16 14.1825 120.223 13.5807 121.428 13.5807C121.67 13.5807 121.97 13.6199 122.372 13.6599V16.5125C122.051 16.4709 121.69 16.4709 121.308 16.4709C119.36 16.4709 118.156 17.7563 118.156 19.9436V24.782H114.803Z" fill="#3D3D3D"/>
</svg>
