<svg width="174" height="40" viewBox="0 0 174 40" fill="none" xmlns="http://www.w3.org/2000/svg">
<g opacity="0.84">
<path d="M33.3273 19.5143C33.0705 10.5341 25.71 3.33301 16.6676 3.33301C13.8039 3.33301 11.1089 4.05522 8.75487 5.32744L33.3273 19.5143Z" fill="black"/>
<path d="M6.41157 6.86129C5.72177 7.40052 5.07552 7.99289 4.47897 8.63225L32.6102 24.8738C32.863 24.0458 33.0531 23.1904 33.175 22.3131L6.41157 6.86129Z" fill="black"/>
<path d="M28.8564 31.3668C28.2599 32.0062 27.6136 32.5986 26.9239 33.1378L0.160218 17.6858C0.282057 16.8086 0.472174 15.9532 0.72503 15.1252L28.8564 31.3668Z" fill="black"/>
<path d="M30.4372 29.3927L1.6462 12.7703C2.01008 12.0156 2.42914 11.2925 2.89817 10.6063L31.6891 27.2288C31.3252 27.9834 30.9062 28.7065 30.4372 29.3927Z" fill="black"/>
<path d="M16.6676 36.6663C19.5314 36.6663 22.2265 35.944 24.5806 34.6717L0.0078125 20.4846C0.264393 29.4651 7.625 36.6663 16.6676 36.6663Z" fill="black"/>
</g>
<g opacity="0.84">
<path d="M62.2988 20.3747C62.2988 19.1663 61.6322 18.3747 60.6322 18.3747C59.5697 18.3747 58.7363 18.958 57.8197 20.458V27.4997H49.1055C44.5846 27.4997 41.668 24.7288 41.668 20.2288C41.668 15.7288 44.5846 12.958 49.1055 12.958H52.6055V15.7705H49.1055C46.668 15.7705 45.2096 17.3955 45.2096 20.2288C45.2096 23.0622 46.668 24.6872 49.1055 24.6872H54.5697V12.083H57.8197V17.1872C58.7988 16.1038 60.0488 15.6663 61.2988 15.6663C63.9447 15.6663 65.5488 17.458 65.5488 20.1663V27.4997H62.2988V20.3747Z" fill="black"/>
<path d="M73.041 18.3747C73.916 18.3747 74.291 19.083 74.291 20.1663V21.7288H77.5618V20.1663C77.5618 17.208 75.9785 15.6663 73.7493 15.6663C72.5618 15.6663 71.5618 16.1872 70.7077 17.208L70.6452 15.9163H67.4993V27.4997H70.7493V20.2705C71.6035 19.0205 72.3118 18.3747 73.041 18.3747Z" fill="black"/>
<path fill-rule="evenodd" clip-rule="evenodd" d="M84.3198 27.7497C80.6115 27.7497 78.3615 25.4788 78.3615 21.708C78.3615 17.9372 80.6115 15.6663 84.3198 15.6663C88.0282 15.6663 90.2573 17.9372 90.2573 21.708C90.2573 25.4788 88.0282 27.7497 84.3198 27.7497ZM81.6115 21.708C81.6115 23.8538 82.6323 25.1247 84.3198 25.1247C85.9865 25.1247 87.0073 23.8538 87.0073 21.708C87.0073 19.5622 85.9865 18.2913 84.3198 18.2913C82.6323 18.2913 81.6115 19.5622 81.6115 21.708Z" fill="black"/>
<path d="M104.897 18.3538C106.001 18.3538 106.71 19.0622 106.71 20.2288V27.4997H109.96V20.2288C109.96 17.3747 108.106 15.6663 105.814 15.6663C104.022 15.6663 102.668 16.458 101.96 17.6872C101.251 16.3955 99.8973 15.6663 98.314 15.6663C97.0015 15.6663 95.7515 16.3122 94.9598 17.3122L94.8973 15.9163H91.7515V27.4997H95.0015V20.1455C95.6473 19.083 96.4806 18.3538 97.4181 18.3538C98.5015 18.3538 99.2306 19.0622 99.2306 20.2288V27.4997H102.481V20.1872C103.126 19.1038 103.96 18.3538 104.897 18.3538Z" fill="black"/>
<path fill-rule="evenodd" clip-rule="evenodd" d="M118.82 27.4997L118.757 26.3538C117.966 27.3538 116.736 27.7497 115.299 27.7497C113.049 27.7497 111.57 26.3122 111.57 24.2705C111.57 21.8747 113.466 20.5205 116.591 20.5205H118.716V19.7288C118.716 18.6247 117.945 17.958 116.632 17.958C115.341 17.958 114.507 18.583 114.403 19.6038H111.236C111.445 17.1663 113.528 15.6663 116.778 15.6663C119.945 15.6663 121.966 17.208 121.966 19.9372V27.4997H118.82ZM114.757 24.0622C114.757 24.6872 115.195 25.1872 116.111 25.1872C117.236 25.1872 118.091 24.6247 118.716 23.6663V22.7705L116.528 22.7913C115.445 22.7913 114.757 23.1663 114.757 24.0622Z" fill="black"/>
<path d="M124.735 23.333C124.735 25.7913 126.277 27.4997 128.631 27.4997H131.548V24.8747H129.923C128.506 24.8747 127.985 24.5413 127.985 23.333V18.5413H130.36V15.9163H127.985V12.083H124.735V15.9163H122.756V18.5413H124.735V23.333Z" fill="black"/>
<path fill-rule="evenodd" clip-rule="evenodd" d="M137.931 27.7497C134.222 27.7497 131.972 25.4788 131.972 21.708C131.972 17.9372 134.222 15.6663 137.931 15.6663C141.639 15.6663 143.868 17.9372 143.868 21.708C143.868 25.4788 141.639 27.7497 137.931 27.7497ZM135.222 21.708C135.222 23.8538 136.243 25.1247 137.931 25.1247C139.597 25.1247 140.618 23.8538 140.618 21.708C140.618 19.5622 139.597 18.2913 137.931 18.2913C136.243 18.2913 135.222 19.5622 135.222 21.708Z" fill="black"/>
<path fill-rule="evenodd" clip-rule="evenodd" d="M144.821 21.708C144.821 25.4788 147.071 27.7497 150.779 27.7497C154.487 27.7497 156.716 25.4788 156.716 21.708C156.716 17.9372 154.487 15.6663 150.779 15.6663C147.071 15.6663 144.821 17.9372 144.821 21.708ZM150.779 25.1247C149.091 25.1247 148.071 23.8538 148.071 21.708C148.071 19.5622 149.091 18.2913 150.779 18.2913C152.446 18.2913 153.466 19.5622 153.466 21.708C153.466 23.8538 152.446 25.1247 150.779 25.1247Z" fill="black"/>
<path d="M162.864 23.3538C162.906 26.083 164.864 27.7497 168.052 27.7497C171.052 27.7497 172.864 26.333 172.864 23.9788C172.864 21.1156 170.495 20.6671 168.612 20.3109C167.372 20.0761 166.343 19.8814 166.343 19.0622C166.343 18.3955 166.885 18.0205 167.802 18.0205C168.885 18.0205 169.593 18.583 169.656 19.6038H172.656C172.447 17.1247 170.802 15.6663 167.906 15.6663C165.052 15.6663 163.114 16.9997 163.114 19.2705C163.114 21.9893 165.451 22.5355 167.327 22.974C168.584 23.268 169.635 23.5135 169.635 24.333C169.635 24.9997 169.031 25.3955 168.052 25.3955C166.635 25.3955 165.802 24.6247 165.864 23.3538H162.864Z" fill="black"/>
<path d="M158.231 27.4997V12.083H161.481V27.4997H158.231Z" fill="black"/>
</g>
</svg>
