<svg width="132" height="40" viewBox="0 0 132 40" fill="none" xmlns="http://www.w3.org/2000/svg">
<g opacity="0.84">
<path d="M26.6654 21.667C26.6654 26.2694 22.9344 30.0003 18.332 30.0003C13.7297 30.0003 9.9987 26.2694 9.9987 21.667H3.33203C3.33203 29.9513 10.0478 36.667 18.332 36.667C26.6163 36.667 33.332 29.9513 33.332 21.667C33.332 13.3827 26.6163 6.66699 18.332 6.66699V13.3337C22.9344 13.3337 26.6654 17.0646 26.6654 21.667Z" fill="black"/>
<path opacity="0.5" d="M8.33333 3.33301C8.33333 7.93538 4.60237 11.6663 0 11.6663V18.333C8.28427 18.333 15 11.6173 15 3.33301H8.33333Z" fill="black"/>
</g>
<g opacity="0.84">
<path d="M41.668 11.5254H53.143V14.7429H45.6055V17.8929H52.873V21.0879H45.6055V24.2829H53.323V27.5004H41.668V11.5254Z" fill="black"/>
<path d="M54.3789 19.3329C54.8289 16.7004 56.8089 15.3054 60.1389 15.3054C63.9639 15.3054 65.8539 17.0604 65.8539 20.5479V23.9454C65.8539 24.8229 66.2139 24.9579 66.6189 24.9579H67.0239V27.5004L66.4839 27.5454C65.8539 27.5679 63.1089 27.9954 62.7039 25.7004C62.0739 26.9829 60.7239 27.7704 58.4514 27.7704C56.0214 27.7704 54.1764 26.4654 54.1764 24.3504C54.1764 22.2129 55.7739 21.3129 58.7214 20.7279L61.9164 20.0754C61.9164 18.4329 61.3539 17.6679 60.1164 17.6679C59.0814 17.6679 58.4514 18.2754 58.2489 19.4904L54.3789 19.3329ZM58.1589 24.1929C58.1589 24.8904 58.7214 25.3854 59.7789 25.3854C61.0839 25.3854 61.9839 24.3954 61.9839 22.4379V22.3254L60.2964 22.6404C59.0139 22.8654 58.1589 23.1354 58.1589 24.1929Z" fill="black"/>
<path d="M75.1234 19.5129C74.9434 18.4554 74.1109 17.8254 73.2109 17.8254C72.2659 17.8254 71.5909 18.3204 71.6359 19.1079C71.6809 19.8729 72.5359 20.2329 73.5934 20.4129C77.3959 20.9754 79.0159 21.9429 79.0159 24.1704C79.0159 26.5554 76.8109 27.7704 73.5259 27.7704C69.8134 27.7704 67.5634 26.2629 67.3609 23.6979L71.2534 23.5404C71.4559 24.5979 72.1984 25.1829 73.3909 25.1829C74.2009 25.1829 75.0784 24.8679 75.0334 24.1254C75.0109 23.2479 74.0659 23.0229 72.9634 22.8204C69.2959 22.1454 67.6534 21.2454 67.6534 19.1079C67.6534 16.7004 69.6784 15.2829 73.3234 15.2829C76.5184 15.2829 78.5884 16.7904 78.9709 19.3779L75.1234 19.5129Z" fill="black"/>
<path d="M78.7576 15.5754H82.3576L85.1476 23.4729L87.8026 15.5754H91.4026L86.7676 28.5129C86.1826 30.1554 85.0801 30.8754 83.2351 30.8754H80.8951V28.1304H82.4476C83.2126 28.1304 83.5951 27.9279 83.8201 27.3654L84.0676 26.7579H83.0326L78.7576 15.5754Z" fill="black"/>
<path d="M104.74 11.5254V14.7429H100.015V27.5004H96.0995V14.7429H91.3745V11.5254H104.74Z" fill="black"/>
<path d="M104.832 19.3329C105.282 16.7004 107.262 15.3054 110.592 15.3054C114.417 15.3054 116.307 17.0604 116.307 20.5479V23.9454C116.307 24.8229 116.667 24.9579 117.072 24.9579H117.477V27.5004L116.937 27.5454C116.307 27.5679 113.562 27.9954 113.157 25.7004C112.527 26.9829 111.177 27.7704 108.904 27.7704C106.474 27.7704 104.629 26.4654 104.629 24.3504C104.629 22.2129 106.227 21.3129 109.174 20.7279L112.369 20.0754C112.369 18.4329 111.807 17.6679 110.569 17.6679C109.534 17.6679 108.904 18.2754 108.702 19.4904L104.832 19.3329ZM108.612 24.1929C108.612 24.8904 109.174 25.3854 110.232 25.3854C111.537 25.3854 112.437 24.3954 112.437 22.4379V22.3254L110.749 22.6404C109.467 22.8654 108.612 23.1354 108.612 24.1929Z" fill="black"/>
<path d="M126.967 15.5529H131.152L126.945 21.4479L131.265 27.5004H127.08L124.74 23.8554L122.377 27.5004H118.192L122.512 21.4479L118.305 15.5529H122.467L124.74 19.0179L126.967 15.5529Z" fill="black"/>
</g>
</svg>
