<svg width="119" height="40" viewBox="0 0 119 40" fill="none" xmlns="http://www.w3.org/2000/svg">
<g opacity="0.84">
<path d="M23.8689 32.6397C23.3662 33.7567 22.7414 34.8506 21.9923 35.797C28.2073 33.7022 32.7826 28.0425 33.2862 21.2497H31.0738C28.3739 21.2497 26.2051 23.4047 25.7663 26.0688C25.3617 28.5244 24.7145 30.7605 23.8689 32.6397Z" fill="black"/>
<path d="M18.9753 21.2497C21.8021 21.2497 24.1145 23.6079 23.5953 26.3866C22.4676 32.4219 19.7897 36.6663 16.6657 36.6663C12.7128 36.6663 9.47415 29.8706 9.1865 21.2497H18.9753Z" fill="black"/>
<path d="M25.8237 14.2915C26.2371 16.9804 28.4159 19.1663 31.1364 19.1663H33.3119C32.9683 12.189 28.334 6.33981 21.9923 4.20232C22.7414 5.14877 23.3662 6.24267 23.8689 7.35963C24.7558 9.3305 25.4244 11.6939 25.8237 14.2915Z" fill="black"/>
<path d="M23.6788 14.0794C24.1516 16.8441 21.8493 19.1663 19.0445 19.1663H9.17494C9.37033 10.3487 12.6493 3.33301 16.6657 3.33301C19.8696 3.33301 22.6043 7.79735 23.6788 14.0794Z" fill="black"/>
<path d="M7.09113 19.1663C7.18579 14.6594 8.0456 10.5085 9.46259 7.35963C9.96522 6.24267 10.5901 5.14877 11.3392 4.20232C4.99745 6.33981 0.363109 12.189 0.0195312 19.1663H7.09113Z" fill="black"/>
<path d="M0.0452295 21.2497C0.548895 28.0425 5.1241 33.7022 11.3392 35.797C10.5901 34.8506 9.96522 33.7567 9.46259 32.6397C8.08938 29.5881 7.23945 25.5955 7.10209 21.2497H0.0452295Z" fill="black"/>
</g>
<g opacity="0.84">
<path d="M41.668 27.4992V11.0967H54.1555V14.2242H45.358V17.7117H53.008V20.6367H45.358V24.3717H54.1555V27.4992H41.668Z" fill="black"/>
<path d="M60.3301 27.7242C58.9951 27.7242 57.9976 27.2892 57.3376 26.4192C56.6776 25.5342 56.3476 24.3717 56.3476 22.9317V15.4167H59.7901V22.4367C59.7901 23.3967 59.9776 24.0567 60.3526 24.4167C60.7426 24.7617 61.2601 24.9342 61.9051 24.9342C62.6701 24.9342 63.2476 24.6792 63.6376 24.1692C64.0276 23.6592 64.2226 22.9917 64.2226 22.1667V15.4167H67.6651V27.4992H64.4476L64.2001 25.5192H64.0201C63.7501 26.1792 63.2851 26.7117 62.6251 27.1167C61.9801 27.5217 61.2151 27.7242 60.3301 27.7242Z" fill="black"/>
<path d="M70.2484 27.4992V15.4167H73.4659L73.7134 17.4192H73.9159C74.1859 16.6692 74.5459 16.1217 74.9959 15.7767C75.4459 15.4167 76.0909 15.2367 76.9309 15.2367H78.0109V18.7467H76.4584C75.4684 18.7467 74.7634 19.0017 74.3434 19.5117C73.9234 20.0067 73.7134 20.6742 73.7134 21.5142V27.4992H70.2484Z" fill="black"/>
<path d="M84.6382 27.7242C82.6732 27.7242 81.2107 27.1617 80.2507 26.0367C79.2907 24.9117 78.8107 23.4117 78.8107 21.5367V21.4692C78.8107 19.3392 79.3432 17.7642 80.4082 16.7442C81.4732 15.7092 82.8832 15.1917 84.6382 15.1917C86.4082 15.1917 87.8257 15.7092 88.8907 16.7442C89.9707 17.7642 90.5107 19.3392 90.5107 21.4692V21.5367C90.4957 23.4117 90.0082 24.9117 89.0482 26.0367C88.0882 27.1617 86.6182 27.7242 84.6382 27.7242ZM84.6382 24.9342C85.4032 24.9342 85.9807 24.7242 86.3707 24.3042C86.7757 23.8842 86.9782 23.3067 86.9782 22.5717V20.4117C86.9782 19.6617 86.7682 19.0767 86.3482 18.6567C85.9432 18.2217 85.3732 18.0042 84.6382 18.0042C83.9182 18.0042 83.3482 18.2217 82.9282 18.6567C82.5232 19.0767 82.3207 19.6617 82.3207 20.4117V22.5717C82.3207 23.3067 82.5157 23.8842 82.9057 24.3042C83.3107 24.7242 83.8882 24.9342 84.6382 24.9342Z" fill="black"/>
<path d="M92.3977 31.2567V15.4167H95.6827L95.8627 17.1942H96.0202C96.3202 16.5642 96.7852 16.0767 97.4152 15.7317C98.0602 15.3717 98.7802 15.1917 99.5752 15.1917C101.195 15.1917 102.373 15.7392 103.108 16.8342C103.843 17.9292 104.21 19.3917 104.21 21.2217V21.7392C104.21 23.8242 103.79 25.3467 102.95 26.3067C102.125 27.2517 101 27.7242 99.5752 27.7242C98.7952 27.7242 98.0827 27.5517 97.4377 27.2067C96.7927 26.8467 96.3202 26.3517 96.0202 25.7217H95.8627V31.2567H92.3977ZM98.1802 24.9117C98.9302 24.9117 99.5077 24.7017 99.9127 24.2817C100.318 23.8617 100.52 23.2692 100.52 22.5042V20.4342C100.52 19.6692 100.318 19.0767 99.9127 18.6567C99.5077 18.2217 98.9302 18.0042 98.1802 18.0042C97.4752 18.0042 96.9127 18.2217 96.4927 18.6567C96.0877 19.0917 95.8852 19.6992 95.8852 20.4792V22.4592C95.8852 23.2392 96.0877 23.8467 96.4927 24.2817C96.9127 24.7017 97.4752 24.9117 98.1802 24.9117Z" fill="black"/>
<path d="M109.046 27.7242C107.936 27.7242 107.036 27.4317 106.346 26.8467C105.656 26.2467 105.311 25.4517 105.311 24.4617V24.4167C105.311 23.2617 105.678 22.3692 106.413 21.7392C107.148 21.1092 108.138 20.7192 109.383 20.5692L112.758 20.1192V19.6467C112.758 18.5067 112.068 17.9367 110.688 17.9367C110.028 17.9367 109.503 18.0642 109.113 18.3192C108.738 18.5742 108.551 18.9417 108.551 19.4217H105.423C105.423 18.0867 105.911 17.0517 106.886 16.3167C107.861 15.5667 109.233 15.1917 111.003 15.1917C112.623 15.1917 113.891 15.5367 114.806 16.2267C115.736 16.9167 116.201 18.0117 116.201 19.5117V25.0692H117.776V27.4992H113.636L113.366 25.6317H113.118C112.818 26.2917 112.316 26.8092 111.611 27.1842C110.921 27.5442 110.066 27.7242 109.046 27.7242ZM110.531 25.2492C111.131 25.2492 111.633 25.1067 112.038 24.8217C112.458 24.5217 112.698 24.1392 112.758 23.6742V22.0542L110.486 22.3917C109.976 22.4517 109.563 22.5867 109.248 22.7967C108.933 22.9917 108.776 23.2917 108.776 23.6967V23.9892C108.776 24.3642 108.926 24.6717 109.226 24.9117C109.541 25.1367 109.976 25.2492 110.531 25.2492Z" fill="black"/>
</g>
</svg>
