<svg width="170" height="40" viewBox="0 0 170 40" fill="none" xmlns="http://www.w3.org/2000/svg">
<g opacity="0.84">
<path d="M11.875 4.16699C11.875 10.7254 6.55838 16.042 0 16.042V23.9587H11.875V35.8337H19.7917C19.7917 29.2753 25.1083 23.9587 31.6667 23.9587V16.042H19.7917V4.16699H11.875Z" fill="black"/>
</g>
<g opacity="0.84">
<path d="M46.832 27.8C45.0654 27.8 43.5487 27.425 42.282 26.675C41.0154 25.9083 40.0404 24.85 39.357 23.5C38.6737 22.1333 38.332 20.5583 38.332 18.775C38.332 16.9917 38.6737 15.4167 39.357 14.05C40.0404 12.6833 41.0154 11.6167 42.282 10.85C43.5487 10.0833 45.0654 9.7 46.832 9.7C48.932 9.7 50.6487 10.225 51.982 11.275C53.332 12.3083 54.1737 13.7667 54.507 15.65H50.982C50.7654 14.7 50.2987 13.9583 49.582 13.425C48.882 12.875 47.9487 12.6 46.782 12.6C45.1654 12.6 43.8987 13.15 42.982 14.25C42.0654 15.35 41.607 16.8583 41.607 18.775C41.607 20.6917 42.0654 22.2 42.982 23.3C43.8987 24.3833 45.1654 24.925 46.782 24.925C47.9487 24.925 48.882 24.675 49.582 24.175C50.2987 23.6583 50.7654 22.95 50.982 22.05H54.507C54.1737 23.85 53.332 25.2583 51.982 26.275C50.6487 27.2917 48.932 27.8 46.832 27.8Z" fill="black"/>
<path d="M55.7646 27.5V9.5H58.9646V27.5H55.7646Z" fill="black"/>
<path d="M66.4344 27.8C65.2677 27.8 64.226 27.5167 63.3094 26.95C62.3927 26.3833 61.6677 25.6083 61.1344 24.625C60.601 23.6417 60.3344 22.525 60.3344 21.275C60.3344 20.025 60.601 18.9167 61.1344 17.95C61.6677 16.9667 62.3927 16.2 63.3094 15.65C64.226 15.0833 65.2677 14.8 66.4344 14.8C67.3677 14.8 68.1844 14.975 68.8844 15.325C69.5844 15.675 70.151 16.1667 70.5844 16.8L70.7594 15.1H73.7844V27.5H70.7844L70.5844 25.725C70.1844 26.275 69.651 26.7583 68.9844 27.175C68.3344 27.5917 67.4844 27.8 66.4344 27.8ZM67.1094 25C68.1427 25 68.9844 24.6583 69.6344 23.975C70.301 23.275 70.6344 22.3833 70.6344 21.3C70.6344 20.2167 70.301 19.3333 69.6344 18.65C68.9844 17.95 68.1427 17.6 67.1094 17.6C66.0927 17.6 65.251 17.9417 64.5844 18.625C63.9177 19.3083 63.5844 20.1917 63.5844 21.275C63.5844 22.3583 63.9177 23.25 64.5844 23.95C65.251 24.65 66.0927 25 67.1094 25Z" fill="black"/>
<path d="M75.543 27.5V15.1H78.368L78.618 17.2C79.0013 16.4667 79.5513 15.8833 80.268 15.45C81.0013 15.0167 81.8596 14.8 82.843 14.8C84.3763 14.8 85.568 15.2833 86.418 16.25C87.268 17.2167 87.693 18.6333 87.693 20.5V27.5H84.493V20.8C84.493 19.7333 84.2763 18.9167 83.843 18.35C83.4096 17.7833 82.7346 17.5 81.818 17.5C80.918 17.5 80.1763 17.8167 79.593 18.45C79.0263 19.0833 78.743 19.9667 78.743 21.1V27.5H75.543Z" fill="black"/>
<path d="M94.9529 27.8C93.7863 27.8 92.7446 27.5167 91.8279 26.95C90.9113 26.3833 90.1863 25.6083 89.6529 24.625C89.1196 23.6417 88.8529 22.525 88.8529 21.275C88.8529 20.025 89.1196 18.9167 89.6529 17.95C90.1863 16.9667 90.9113 16.2 91.8279 15.65C92.7446 15.0833 93.7863 14.8 94.9529 14.8C95.8863 14.8 96.7029 14.975 97.4029 15.325C98.1029 15.675 98.6696 16.1667 99.1029 16.8V9.5H102.303V27.5H99.4529L99.1029 25.725C98.7029 26.275 98.1696 26.7583 97.5029 27.175C96.8529 27.5917 96.0029 27.8 94.9529 27.8ZM95.6279 25C96.6613 25 97.5029 24.6583 98.1529 23.975C98.8196 23.275 99.1529 22.3833 99.1529 21.3C99.1529 20.2167 98.8196 19.3333 98.1529 18.65C97.5029 17.95 96.6613 17.6 95.6279 17.6C94.6113 17.6 93.7696 17.9417 93.1029 18.625C92.4363 19.3083 92.1029 20.1917 92.1029 21.275C92.1029 22.3583 92.4363 23.25 93.1029 23.95C93.7696 24.65 94.6113 25 95.6279 25Z" fill="black"/>
<path d="M110.087 27.8C108.837 27.8 107.728 27.5333 106.762 27C105.795 26.4667 105.037 25.7167 104.487 24.75C103.937 23.7833 103.662 22.6667 103.662 21.4C103.662 20.1167 103.928 18.975 104.462 17.975C105.012 16.975 105.762 16.2 106.712 15.65C107.678 15.0833 108.812 14.8 110.112 14.8C111.328 14.8 112.403 15.0667 113.337 15.6C114.27 16.1333 114.995 16.8667 115.512 17.8C116.045 18.7167 116.312 19.7417 116.312 20.875C116.312 21.0583 116.303 21.25 116.287 21.45C116.287 21.65 116.278 21.8583 116.262 22.075H106.837C106.903 23.0417 107.237 23.8 107.837 24.35C108.453 24.9 109.195 25.175 110.062 25.175C110.712 25.175 111.253 25.0333 111.687 24.75C112.137 24.45 112.47 24.0667 112.687 23.6H115.937C115.703 24.3833 115.312 25.1 114.762 25.75C114.228 26.3833 113.562 26.8833 112.762 27.25C111.978 27.6167 111.087 27.8 110.087 27.8ZM110.112 17.4C109.328 17.4 108.637 17.625 108.037 18.075C107.437 18.5083 107.053 19.175 106.887 20.075H113.062C113.012 19.2583 112.712 18.6083 112.162 18.125C111.612 17.6417 110.928 17.4 110.112 17.4Z" fill="black"/>
<path d="M122.628 27.8C121.528 27.8 120.561 27.625 119.728 27.275C118.895 26.9083 118.228 26.4083 117.728 25.775C117.228 25.1417 116.928 24.4083 116.828 23.575H120.053C120.153 24.0583 120.42 24.475 120.853 24.825C121.303 25.1583 121.878 25.325 122.578 25.325C123.278 25.325 123.786 25.1833 124.103 24.9C124.436 24.6167 124.603 24.2917 124.603 23.925C124.603 23.3917 124.37 23.0333 123.903 22.85C123.436 22.65 122.786 22.4583 121.953 22.275C121.42 22.1583 120.878 22.0167 120.328 21.85C119.778 21.6833 119.27 21.475 118.803 21.225C118.353 20.9583 117.986 20.625 117.703 20.225C117.42 19.8083 117.278 19.3 117.278 18.7C117.278 17.6 117.711 16.675 118.578 15.925C119.461 15.175 120.695 14.8 122.278 14.8C123.745 14.8 124.911 15.1417 125.778 15.825C126.661 16.5083 127.186 17.45 127.353 18.65H124.328C124.145 17.7333 123.453 17.275 122.253 17.275C121.653 17.275 121.186 17.3917 120.853 17.625C120.536 17.8583 120.378 18.15 120.378 18.5C120.378 18.8667 120.62 19.1583 121.103 19.375C121.586 19.5917 122.228 19.7917 123.028 19.975C123.895 20.175 124.686 20.4 125.403 20.65C126.136 20.8833 126.72 21.2417 127.153 21.725C127.586 22.1917 127.803 22.8667 127.803 23.75C127.82 24.5167 127.62 25.2083 127.203 25.825C126.786 26.4417 126.186 26.925 125.403 27.275C124.62 27.625 123.695 27.8 122.628 27.8Z" fill="black"/>
<path d="M134.272 27.5C132.972 27.5 131.93 27.1833 131.147 26.55C130.364 25.9167 129.972 24.7917 129.972 23.175V17.775H127.847V15.1H129.972L130.347 11.775H133.172V15.1H136.522V17.775H134.005C133.545 17.775 133.172 18.1481 133.172 18.6083V23.2C133.172 23.8 133.297 24.2167 133.547 24.45C133.814 24.6667 134.264 24.775 134.897 24.775H136.447V27.5H134.272Z" fill="black"/>
<path d="M139.495 13.175C138.911 13.175 138.428 13 138.045 12.65C137.678 12.3 137.495 11.8583 137.495 11.325C137.495 10.7917 137.678 10.3583 138.045 10.025C138.428 9.675 138.911 9.5 139.495 9.5C140.078 9.5 140.553 9.675 140.92 10.025C141.303 10.3583 141.495 10.7917 141.495 11.325C141.495 11.8583 141.303 12.3 140.92 12.65C140.553 13 140.078 13.175 139.495 13.175ZM137.895 27.5V15.1H141.095V27.5H137.895Z" fill="black"/>
<path d="M142.935 27.5V15.1H145.76L146.01 17.2C146.393 16.4667 146.943 15.8833 147.66 15.45C148.393 15.0167 149.251 14.8 150.235 14.8C151.768 14.8 152.96 15.2833 153.81 16.25C154.66 17.2167 155.085 18.6333 155.085 20.5V27.5H151.885V20.8C151.885 19.7333 151.668 18.9167 151.235 18.35C150.801 17.7833 150.126 17.5 149.21 17.5C148.31 17.5 147.568 17.8167 146.985 18.45C146.418 19.0833 146.135 19.9667 146.135 21.1V27.5H142.935Z" fill="black"/>
<path d="M162.67 27.8C161.42 27.8 160.311 27.5333 159.345 27C158.378 26.4667 157.62 25.7167 157.07 24.75C156.52 23.7833 156.245 22.6667 156.245 21.4C156.245 20.1167 156.511 18.975 157.045 17.975C157.595 16.975 158.345 16.2 159.295 15.65C160.261 15.0833 161.395 14.8 162.695 14.8C163.911 14.8 164.986 15.0667 165.92 15.6C166.853 16.1333 167.578 16.8667 168.095 17.8C168.628 18.7167 168.895 19.7417 168.895 20.875C168.895 21.0583 168.886 21.25 168.87 21.45C168.87 21.65 168.861 21.8583 168.845 22.075H159.42C159.486 23.0417 159.82 23.8 160.42 24.35C161.036 24.9 161.778 25.175 162.645 25.175C163.295 25.175 163.836 25.0333 164.27 24.75C164.72 24.45 165.053 24.0667 165.27 23.6H168.52C168.286 24.3833 167.895 25.1 167.345 25.75C166.811 26.3833 166.145 26.8833 165.345 27.25C164.561 27.6167 163.67 27.8 162.67 27.8ZM162.695 17.4C161.911 17.4 161.22 17.625 160.62 18.075C160.02 18.5083 159.636 19.175 159.47 20.075H165.645C165.595 19.2583 165.295 18.6083 164.745 18.125C164.195 17.6417 163.511 17.4 162.695 17.4Z" fill="black"/>
</g>
</svg>
