<svg width="1920" height="269" viewBox="0 0 1920 269" fill="none" xmlns="http://www.w3.org/2000/svg">
<g opacity="0.16">
<mask id="path-1-outside-1_3_10707" maskUnits="userSpaceOnUse" x="-2" y="0" width="1924" height="269" fill="black">
<rect fill="white" x="-2" width="1924" height="269"/>
<path d="M1767.85 164.597V264.126H1712.86V4.75977H1788.35C1823.43 4.75977 1849.44 11.1979 1866.39 24.0743C1883.47 36.8192 1892.02 56.2651 1892.02 82.412C1892.02 97.6534 1887.81 111.252 1879.4 123.209C1871.12 135.034 1859.23 144.363 1843.73 151.195C1882.75 209.402 1908.18 247.045 1920 264.126H1858.9L1797.02 164.597H1767.85ZM1767.85 49.8927V119.858H1785.59C1802.93 119.858 1815.74 116.968 1824.02 111.187C1832.3 105.405 1836.44 96.4051 1836.44 84.1858C1836.44 71.9664 1832.23 63.2289 1823.82 57.9732C1815.55 52.5862 1802.41 49.8927 1784.41 49.8927H1767.85Z"/>
<path d="M1674.36 218.796V264.126H1525.17V4.75977H1674.36V49.8927H1580.15V106.851H1667.86V151.787H1580.15V218.796H1674.36Z"/>
<path d="M1403.47 159.079L1452.55 4.75977H1508.12L1420.03 264.126H1359.92L1272.01 4.75977H1327.59L1376.27 159.079C1378.64 167.094 1381.33 177.408 1384.35 190.021C1387.51 202.635 1389.41 211.372 1390.07 216.234C1391.52 204.409 1395.98 185.357 1403.47 159.079Z"/>
<path d="M1254.99 264.126H1200.01V4.75977H1254.99V264.126Z"/>
<path d="M1030.76 264.126V164.597H1059.93L1121.81 264.126H1182.91C1171.08 247.045 1145.66 209.402 1106.64 151.195C1122.14 144.363 1134.03 135.034 1142.31 123.209C1150.72 111.252 1154.92 97.6534 1154.92 82.412C1154.92 56.2651 1129.3 24.0743 1129.3 24.0743L1086.73 57.9732C1095.14 63.2289 1099.34 71.9664 1099.34 84.1858C1099.34 96.4051 1095.2 105.405 1086.93 111.187C1078.65 116.968 1065.84 119.858 1048.49 119.858H1030.76V4.75977H975.77V264.126H1030.76Z"/>
<path d="M925.943 4.75977V264.126H855.977L743.243 68.0246H741.667C743.9 103.5 745.017 128.202 745.017 142.129V264.126H695.942V4.75977H765.12L877.854 199.087H879.036C877.328 166.634 876.474 142.786 876.474 127.545V4.75977H925.943Z"/>
<path d="M657.422 218.796V264.126H508.228V4.75977H657.422V49.8927H563.215V106.851H650.918V151.787H563.215V218.796H657.422Z"/>
<path d="M359.098 164.188V118.464H461.977V252.877C432.282 262.731 401.537 267.659 369.74 267.659C330.717 267.659 300.826 256.162 280.066 233.168C259.437 210.175 249.123 177.524 249.123 135.216C249.123 92.7768 261.08 59.7976 284.993 36.2786C309.169 12.7595 342.411 1 384.719 1C411.391 1 437.013 6.32135 461.583 16.964L443.451 61.1115C424.53 51.6513 404.822 46.9212 384.325 46.9212C360.674 46.9212 341.622 54.9361 327.169 70.9658C312.848 86.8642 305.687 108.609 305.687 136.202C305.687 163.662 311.468 184.816 323.031 199.664C334.593 214.511 351.345 221.934 373.288 221.934C384.719 221.934 396.347 220.752 408.172 218.387V164.188H359.098Z"/>
<path d="M250.694 264.127H191.371L172.648 202.439H78.0464L59.3232 264.127H0L91.4483 3.77539H158.655L250.694 264.127ZM91.8425 156.321H159.443L130.077 61.5218C127.975 54.4267 126.398 48.5798 125.347 43.9811C121.8 58.1714 110.631 95.6179 91.8425 156.321Z"/>
</mask>
<path d="M1767.85 164.597V264.126H1712.86V4.75977H1788.35C1823.43 4.75977 1849.44 11.1979 1866.39 24.0743C1883.47 36.8192 1892.02 56.2651 1892.02 82.412C1892.02 97.6534 1887.81 111.252 1879.4 123.209C1871.12 135.034 1859.23 144.363 1843.73 151.195C1882.75 209.402 1908.18 247.045 1920 264.126H1858.9L1797.02 164.597H1767.85ZM1767.85 49.8927V119.858H1785.59C1802.93 119.858 1815.74 116.968 1824.02 111.187C1832.3 105.405 1836.44 96.4051 1836.44 84.1858C1836.44 71.9664 1832.23 63.2289 1823.82 57.9732C1815.55 52.5862 1802.41 49.8927 1784.41 49.8927H1767.85Z" stroke="url(#paint0_linear_3_10707)" stroke-width="2" mask="url(#path-1-outside-1_3_10707)"/>
<path d="M1674.36 218.796V264.126H1525.17V4.75977H1674.36V49.8927H1580.15V106.851H1667.86V151.787H1580.15V218.796H1674.36Z" stroke="url(#paint1_linear_3_10707)" stroke-width="2" mask="url(#path-1-outside-1_3_10707)"/>
<path d="M1403.47 159.079L1452.55 4.75977H1508.12L1420.03 264.126H1359.92L1272.01 4.75977H1327.59L1376.27 159.079C1378.64 167.094 1381.33 177.408 1384.35 190.021C1387.51 202.635 1389.41 211.372 1390.07 216.234C1391.52 204.409 1395.98 185.357 1403.47 159.079Z" stroke="url(#paint2_linear_3_10707)" stroke-width="2" mask="url(#path-1-outside-1_3_10707)"/>
<path d="M1254.99 264.126H1200.01V4.75977H1254.99V264.126Z" stroke="url(#paint3_linear_3_10707)" stroke-width="2" mask="url(#path-1-outside-1_3_10707)"/>
<path d="M1030.76 264.126V164.597H1059.93L1121.81 264.126H1182.91C1171.08 247.045 1145.66 209.402 1106.64 151.195C1122.14 144.363 1134.03 135.034 1142.31 123.209C1150.72 111.252 1154.92 97.6534 1154.92 82.412C1154.92 56.2651 1129.3 24.0743 1129.3 24.0743L1086.73 57.9732C1095.14 63.2289 1099.34 71.9664 1099.34 84.1858C1099.34 96.4051 1095.2 105.405 1086.93 111.187C1078.65 116.968 1065.84 119.858 1048.49 119.858H1030.76V4.75977H975.77V264.126H1030.76Z" stroke="url(#paint4_linear_3_10707)" stroke-width="2" mask="url(#path-1-outside-1_3_10707)"/>
<path d="M925.943 4.75977V264.126H855.977L743.243 68.0246H741.667C743.9 103.5 745.017 128.202 745.017 142.129V264.126H695.942V4.75977H765.12L877.854 199.087H879.036C877.328 166.634 876.474 142.786 876.474 127.545V4.75977H925.943Z" stroke="url(#paint5_linear_3_10707)" stroke-width="2" mask="url(#path-1-outside-1_3_10707)"/>
<path d="M657.422 218.796V264.126H508.228V4.75977H657.422V49.8927H563.215V106.851H650.918V151.787H563.215V218.796H657.422Z" stroke="url(#paint6_linear_3_10707)" stroke-width="2" mask="url(#path-1-outside-1_3_10707)"/>
<path d="M359.098 164.188V118.464H461.977V252.877C432.282 262.731 401.537 267.659 369.74 267.659C330.717 267.659 300.826 256.162 280.066 233.168C259.437 210.175 249.123 177.524 249.123 135.216C249.123 92.7768 261.08 59.7976 284.993 36.2786C309.169 12.7595 342.411 1 384.719 1C411.391 1 437.013 6.32135 461.583 16.964L443.451 61.1115C424.53 51.6513 404.822 46.9212 384.325 46.9212C360.674 46.9212 341.622 54.9361 327.169 70.9658C312.848 86.8642 305.687 108.609 305.687 136.202C305.687 163.662 311.468 184.816 323.031 199.664C334.593 214.511 351.345 221.934 373.288 221.934C384.719 221.934 396.347 220.752 408.172 218.387V164.188H359.098Z" stroke="url(#paint7_linear_3_10707)" stroke-width="2" mask="url(#path-1-outside-1_3_10707)"/>
<path d="M250.694 264.127H191.371L172.648 202.439H78.0464L59.3232 264.127H0L91.4483 3.77539H158.655L250.694 264.127ZM91.8425 156.321H159.443L130.077 61.5218C127.975 54.4267 126.398 48.5798 125.347 43.9811C121.8 58.1714 110.631 95.6179 91.8425 156.321Z" stroke="url(#paint8_linear_3_10707)" stroke-width="2" mask="url(#path-1-outside-1_3_10707)"/>
</g>
<defs>
<linearGradient id="paint0_linear_3_10707" x1="879.87" y1="332.622" x2="881.535" y2="12.5432" gradientUnits="userSpaceOnUse">
<stop offset="0.2" stop-color="#120C1F"/>
<stop offset="1" stop-color="#FCFCFC"/>
</linearGradient>
<linearGradient id="paint1_linear_3_10707" x1="879.87" y1="332.622" x2="881.535" y2="12.5432" gradientUnits="userSpaceOnUse">
<stop offset="0.2" stop-color="#120C1F"/>
<stop offset="1" stop-color="#FCFCFC"/>
</linearGradient>
<linearGradient id="paint2_linear_3_10707" x1="879.87" y1="332.622" x2="881.535" y2="12.5432" gradientUnits="userSpaceOnUse">
<stop offset="0.2" stop-color="#120C1F"/>
<stop offset="1" stop-color="#FCFCFC"/>
</linearGradient>
<linearGradient id="paint3_linear_3_10707" x1="879.87" y1="332.622" x2="881.535" y2="12.5432" gradientUnits="userSpaceOnUse">
<stop offset="0.2" stop-color="#120C1F"/>
<stop offset="1" stop-color="#FCFCFC"/>
</linearGradient>
<linearGradient id="paint4_linear_3_10707" x1="879.87" y1="332.622" x2="881.535" y2="12.5432" gradientUnits="userSpaceOnUse">
<stop offset="0.2" stop-color="#120C1F"/>
<stop offset="1" stop-color="#FCFCFC"/>
</linearGradient>
<linearGradient id="paint5_linear_3_10707" x1="879.87" y1="332.622" x2="881.535" y2="12.5432" gradientUnits="userSpaceOnUse">
<stop offset="0.2" stop-color="#120C1F"/>
<stop offset="1" stop-color="#FCFCFC"/>
</linearGradient>
<linearGradient id="paint6_linear_3_10707" x1="879.87" y1="332.622" x2="881.535" y2="12.5432" gradientUnits="userSpaceOnUse">
<stop offset="0.2" stop-color="#120C1F"/>
<stop offset="1" stop-color="#FCFCFC"/>
</linearGradient>
<linearGradient id="paint7_linear_3_10707" x1="879.87" y1="332.622" x2="881.535" y2="12.5432" gradientUnits="userSpaceOnUse">
<stop offset="0.2" stop-color="#120C1F"/>
<stop offset="1" stop-color="#FCFCFC"/>
</linearGradient>
<linearGradient id="paint8_linear_3_10707" x1="879.87" y1="332.622" x2="881.535" y2="12.5432" gradientUnits="userSpaceOnUse">
<stop offset="0.2" stop-color="#120C1F"/>
<stop offset="1" stop-color="#FCFCFC"/>
</linearGradient>
</defs>
</svg>
