<svg width="225" height="52" viewBox="0 0 225 52" fill="none" xmlns="http://www.w3.org/2000/svg">
<path d="M77.857 31.0355C78.364 32.4005 78.949 33.2975 80.47 33.2975L80.431 33.6875H73.84V33.2975C75.361 33.2975 76.102 32.7515 75.244 30.4115L73.255 25.1465H61.906L59.722 31.4255C59.293 32.6735 59.761 33.2975 61.087 33.2975V33.6875H56.875V33.2975C57.967 33.2975 58.786 32.7125 59.176 31.6985L68.068 6.0365H68.497L77.857 31.0355ZM62.023 24.7565H73.099L67.327 9.3905L62.023 24.7565ZM94.6636 30.8015C97.7056 30.8015 99.7336 32.9465 99.7336 36.1055C99.7336 40.0445 96.7306 43.1255 91.5436 43.1255C88.8136 43.1255 86.5516 41.9165 84.2116 41.9165C83.4316 41.9165 82.6126 42.0725 81.7546 42.4625L81.6766 42.3845L85.4986 39.6935C86.4736 41.7995 89.2426 42.6965 91.8946 42.6965C95.3266 42.6965 98.0956 40.3565 98.0956 37.2755C98.0956 34.9745 96.3796 33.2585 94.1176 33.2585C91.0756 33.2585 89.1646 34.8185 86.2786 34.8185C83.2366 34.8185 81.3256 32.7125 81.3256 30.8795C81.3256 28.6955 82.8856 26.9015 85.1086 26.8235C83.5096 25.3025 82.6126 23.2355 82.6126 21.0515C82.6126 16.7225 86.0446 13.1345 90.3736 13.1345C91.7386 13.1345 93.1036 13.4855 94.2736 14.1875C95.0536 12.3935 96.7696 11.2625 98.7196 11.2625C98.8366 11.2625 98.9536 11.2625 99.0706 11.2625V14.0315C98.5246 13.5245 97.7836 13.2515 97.0036 13.2515C96.9256 13.2515 96.8086 13.2515 96.7306 13.2515C95.9116 13.2905 95.1316 13.7195 94.5856 14.3825C96.8086 15.8645 98.1736 18.3605 98.1736 21.0515C98.1736 25.3415 94.7026 28.9295 90.3736 28.9295C88.5796 28.9295 86.7856 28.3055 85.4206 27.0965C83.7826 27.0965 82.3786 28.3445 82.3006 29.9825C82.2616 31.6205 83.5486 32.8295 85.1866 32.8295C88.8526 32.8295 91.0366 30.8015 94.6636 30.8015ZM90.3736 13.5245C86.6686 13.5245 84.8356 16.8785 84.8356 21.0515C84.8356 25.1855 86.6686 28.5395 90.3736 28.5395C94.1176 28.5395 95.9506 25.1855 95.9506 21.0515C95.9506 16.8785 94.1176 13.5245 90.3736 13.5245ZM138.897 30.4895C138.897 32.0495 139.209 33.2975 140.73 33.2975V33.6875H134.841V33.2975C136.362 33.2975 136.674 32.0495 136.674 30.4895V20.2325C136.674 15.8645 133.749 13.7585 130.941 13.7585C121.035 13.7585 125.13 33.8825 111.285 33.8825C105.591 33.8825 101.028 29.0075 101.028 23.4305C101.028 17.2295 105.045 13.0175 111.012 13.0175C116.355 13.0175 119.202 17.2685 119.202 20.0765H103.641C103.407 21.1685 103.29 22.2995 103.29 23.4305C103.29 27.8375 106.02 31.8935 110.505 32.5955C111.207 32.7125 111.87 32.7515 112.494 32.7515C118.656 32.7515 120.645 27.6815 122.517 22.7285V16.2545C122.517 14.7335 122.205 13.4855 120.684 13.4855V13.0955H124.74V17.5805C126.183 15.0065 128.133 13.1345 131.526 13.1345C135.699 13.1345 138.897 16.0595 138.897 20.8175V30.4895ZM111.012 13.4075C106.8 13.4075 104.616 16.2155 103.758 19.6865H116.901C116.784 17.1905 115.536 13.4075 111.012 13.4075ZM124.74 30.4895C124.74 32.0495 125.052 33.2975 126.612 33.2975V33.6875H120.684V33.2975C122.205 33.2975 122.517 32.0495 122.517 30.4895V25.9655C122.985 24.9125 123.375 23.8595 123.765 22.8455C124.077 21.9875 124.428 21.1295 124.74 20.3495V30.4895Z" fill="#161310"/>
<path d="M153.1 21.5195C158.248 22.8455 158.014 33.2975 163.591 33.2975V33.7265H162.967C152.944 33.7265 157.936 21.7145 150.565 21.6755H147.367V30.5285C147.367 32.0495 147.718 33.3365 149.239 33.3365V33.7265H143.311V33.3365C144.832 33.3365 145.183 32.0495 145.183 30.5285V9.2345C145.183 7.7135 144.832 6.4655 143.311 6.4655V6.0365H151.033C157.156 6.0365 160.549 9.1175 160.549 13.8755C160.549 18.0485 157.897 20.8955 153.1 21.5195ZM147.367 21.2465H150.76C156.454 21.2465 158.326 17.3465 158.326 13.8755C158.326 10.2095 156.493 6.4655 150.76 6.4655H147.367V21.2465ZM167.905 10.8335C167.125 10.8335 166.462 10.1705 166.462 9.3905C166.462 8.5715 167.125 7.9475 167.905 7.9475C168.724 7.9475 169.348 8.5715 169.348 9.3905C169.348 10.1705 168.724 10.8335 167.905 10.8335ZM169.348 30.5285C169.348 32.0885 169.699 33.3365 171.22 33.3365V33.7265H165.292V33.3365C166.813 33.3365 167.164 32.0885 167.164 30.5285V16.3325C167.164 14.7725 166.813 13.5245 165.292 13.5245V13.1345H169.348V30.5285ZM191.958 13.1345V13.5245C190.788 13.5245 189.969 14.1095 189.579 15.1235L182.481 33.6875H182.052L174.408 15.8255C173.823 14.4215 173.199 13.5245 171.678 13.5245V13.1345H178.269L178.308 13.5245C176.826 13.5245 176.085 14.1095 177.06 16.4105L183.183 30.7235L189.033 15.3965C189.54 14.2265 189.111 13.5245 187.746 13.5245V13.1345H191.958ZM214.85 30.4895C214.85 32.0495 215.201 33.2975 216.722 33.2975V33.6875H210.794V33.2975C212.315 33.2975 212.627 32.0495 212.627 30.4895V25.6535C213.056 24.7955 213.407 23.9375 213.797 23.1185C214.148 22.2605 214.499 21.4415 214.85 20.6615V30.4895ZM214.85 18.0485C216.488 15.1235 218.594 12.9785 222.221 12.9785C222.494 12.9785 222.806 12.9785 223.118 13.0175V15.7085C221.948 15.1625 220.934 14.9285 220.037 14.9285C212.12 14.9285 213.836 33.8825 201.395 33.8825C195.74 33.8825 191.138 29.0075 191.138 23.4695C191.138 17.2295 195.116 13.0175 201.122 13.0175C206.465 13.0175 209.312 17.2685 209.312 20.0765H193.751C193.517 21.1685 193.4 22.2995 193.4 23.4695C193.4 27.7595 196.169 31.9715 200.615 32.6345C201.239 32.7125 201.824 32.7905 202.37 32.7905C208.298 32.7905 210.521 27.7205 212.627 22.7675V16.2935C212.627 14.7335 212.315 13.4855 210.794 13.4855V13.0955H214.85V18.0485ZM201.161 13.4075C196.91 13.4075 194.726 16.2155 193.868 19.6865H207.011C206.894 17.1905 205.685 13.4075 201.161 13.4075Z" fill="#787878"/>
<path d="M28.3487 19.7031C23.6362 18.6062 19.2324 16.8919 14.9831 14.7794C11.0831 12.8456 7.30495 10.6925 4.03057 7.77562C3.20995 7.04437 2.5112 6.18313 1.7962 5.35438C1.5362 5.05375 1.35745 4.66375 1.19495 4.29812C0.577449 2.8925 0.967449 1.77938 2.33245 1.0725C3.73807 0.34125 5.28995 0.11375 6.84182 0.073125C9.77495 0 12.7162 0 15.6574 0C21.0037 0 26.3581 0.0325 31.7043 0.04875C36.2543 0.065 40.8125 0.065 45.3625 0.08125C45.525 0.08125 45.6874 0.08125 45.8581 0.08125V38.2119C44.6881 38.2119 43.5912 38.2119 42.5025 38.2119C36.2787 38.1956 30.0468 38.2119 23.8231 38.1387C22.7343 38.1225 21.9949 38.4313 21.2474 39.2194C17.2906 43.4038 13.2768 47.5231 9.27932 51.6669C9.18182 51.7725 9.10057 51.8862 9.00307 52C8.96245 51.9675 8.92182 51.935 8.87307 51.9106C15.3487 41.2019 21.8243 30.485 28.3487 19.7031ZM11.9281 6.97938V3.33125H8.2962V6.97938H11.9281ZM23.6606 3.37188V7.01188H27.2925V3.37188H23.6606ZM31.2412 34.8319H34.8975V31.2081H31.2412V34.8319ZM19.6143 3.35563H15.9824V6.99562H19.6143V3.35563ZM34.9706 3.4125H31.3468V7.01188H34.9706V3.4125ZM42.6406 7.0525V3.39625H39.0412V7.0525H42.6406ZM23.5874 34.8075H27.2031V31.2244H23.5874V34.8075ZM38.9356 34.8563H42.5675V31.2244H38.9356V34.8563Z" fill="#161310"/>
<path d="M13.3477 22.5061C12.1127 21.8561 10.9345 21.2468 9.69141 20.5968C10.2358 19.378 10.7639 18.208 11.3164 16.9893C12.6652 17.6636 13.9733 18.3055 15.3139 18.9799C14.6558 20.158 14.022 21.2955 13.3477 22.5061Z" fill="#787878"/>
<path d="M18.712 20.4424C20.0852 20.9461 21.377 21.4174 22.7502 21.9211C22.1164 22.953 21.507 23.9768 20.8733 24.9843C20.8083 25.0818 20.5889 25.163 20.4752 25.1305C19.2564 24.7568 18.0377 24.3668 16.7539 23.9524C17.4364 22.7336 18.062 21.6043 18.712 20.4424Z" fill="#787878"/>
<path d="M4.63851 12.9106C5.82476 13.6906 6.93789 14.4219 8.09164 15.1775C7.57164 16.3231 7.06789 17.4444 6.53164 18.6469C5.54851 17.9563 4.61414 17.3144 3.70414 16.64C3.60664 16.5669 3.57414 16.315 3.61476 16.1769C3.93164 15.1044 4.28101 14.04 4.63851 12.9188V12.9106Z" fill="#787878"/>
<path d="M0.52 13.2924C0.349375 11.8868 0.170625 10.4893 0 9.08365L0.170625 8.97803C0.585 9.40865 1.0075 9.83928 1.40563 10.2862C1.48688 10.3837 1.51125 10.5868 1.47062 10.7168C1.21062 11.5699 0.934375 12.423 0.66625 13.268C0.6175 13.268 0.576875 13.2762 0.528125 13.2843L0.52 13.2924Z" fill="#787878"/>
</svg>
