<svg width="196" height="44" viewBox="0 0 196 44" fill="none" xmlns="http://www.w3.org/2000/svg">
<path d="M184.593 24.2694V31.7343H180.469V12.2812H186.13C188.761 12.2812 190.713 12.7641 191.984 13.7299C193.265 14.6858 193.906 16.1443 193.906 18.1053C193.906 19.2485 193.59 20.2684 192.96 21.1652C192.339 22.0521 191.447 22.7518 190.284 23.2642C193.211 27.6299 195.118 30.4532 196.005 31.7343H191.422L186.781 24.2694H184.593ZM184.593 15.6663V20.9139H185.923C187.224 20.9139 188.185 20.6971 188.806 20.2635C189.427 19.8299 189.737 19.1549 189.737 18.2384C189.737 17.3219 189.422 16.6666 188.791 16.2724C188.17 15.8683 187.185 15.6663 185.835 15.6663H184.593Z" fill="white"/>
<path d="M177.581 28.3345V31.7343H166.391V12.2812H177.581V15.6663H170.515V19.9383H177.093V23.3086H170.515V28.3345H177.581Z" fill="white"/>
<path d="M157.266 23.8555L160.947 12.2812H165.115L158.508 31.7343H153.999L147.406 12.2812H151.575L155.226 23.8555C155.403 24.4567 155.605 25.2303 155.832 26.1763C156.068 27.1223 156.211 27.7777 156.261 28.1423C156.369 27.2554 156.704 25.8265 157.266 23.8555Z" fill="white"/>
<path d="M146.124 31.7343H142V12.2812H146.124V31.7343Z" fill="white"/>
<path d="M129.312 31.7343V24.2694H131.499L136.141 31.7343H140.723C139.836 30.4532 137.93 27.6299 135.003 23.2642C136.166 22.7518 137.057 22.0521 137.678 21.1652C138.309 20.2684 138.624 19.2485 138.624 18.1053C138.624 16.1443 136.703 13.7299 136.703 13.7299L133.51 16.2724C134.14 16.6666 134.456 17.3219 134.456 18.2384C134.456 19.1549 134.145 19.8299 133.525 20.2635C132.904 20.6971 131.943 20.9139 130.642 20.9139H129.312V12.2812H125.188V31.7343H129.312Z" fill="#BAF6BE"/>
<path d="M121.446 12.2812V31.7343H116.198L107.743 17.0263H107.625C107.792 19.687 107.876 21.5397 107.876 22.5843V31.7343H104.195V12.2812H109.384L117.839 26.8563H117.928C117.8 24.4222 117.736 22.6336 117.736 21.4904V12.2812H121.446Z" fill="white"/>
<path d="M101.307 28.3345V31.7343H90.1172V12.2812H101.307V15.6663H94.2414V19.9383H100.819V23.3086H94.2414V28.3345H101.307Z" fill="white"/>
<path d="M78.9358 24.2395V20.8101H86.652V30.8914C84.4249 31.6305 82.1189 32 79.7341 32C76.8072 32 74.5653 31.1377 73.0083 29.4132C71.4611 27.6886 70.6875 25.2397 70.6875 22.0665C70.6875 18.8835 71.5843 16.41 73.3778 14.646C75.1911 12.882 77.6843 12 80.8575 12C82.858 12 84.7796 12.3991 86.6225 13.1973L85.2625 16.5085C83.8435 15.799 82.3653 15.4442 80.8279 15.4442C79.0541 15.4442 77.6252 16.0453 76.5412 17.2476C75.467 18.44 74.9299 20.071 74.9299 22.1404C74.9299 24.2 75.3635 25.7866 76.2307 26.9002C77.0979 28.0138 78.3544 28.5706 80.0001 28.5706C80.8575 28.5706 81.7296 28.4819 82.6165 28.3045V24.2395H78.9358Z" fill="white"/>
<path d="M70.8027 31.734H66.3533L64.949 27.1073H57.8537L56.4494 31.734H52L58.8588 12.207H63.8995L70.8027 31.734ZM58.8884 23.6483H63.9586L61.7561 16.5381C61.5984 16.006 61.4802 15.5675 61.4013 15.2226C61.1353 16.2869 60.2976 19.0954 58.8884 23.6483Z" fill="white"/>
<path d="M0.67542 20.3574C0.670628 20.3622 0.661043 20.3622 0.65625 20.3622V20.367C0.65625 20.3718 0.661044 20.3718 0.661044 20.3718C0.819196 20.4053 0.977348 20.4389 1.1355 20.4676C0.977348 20.4293 0.828781 20.391 0.67542 20.3574ZM0.67542 20.3574C0.670628 20.3622 0.661043 20.3622 0.65625 20.3622V20.367C0.65625 20.3718 0.661044 20.3718 0.661044 20.3718C0.819196 20.4053 0.977348 20.4389 1.1355 20.4676C0.977348 20.4293 0.828781 20.391 0.67542 20.3574ZM0.67542 20.3574C0.670628 20.3622 0.661043 20.3622 0.65625 20.3622V20.367C0.65625 20.3718 0.661044 20.3718 0.661044 20.3718C0.819196 20.4053 0.977348 20.4389 1.1355 20.4676C0.977348 20.4293 0.828781 20.391 0.67542 20.3574ZM0.67542 20.3574C0.670628 20.3622 0.661043 20.3622 0.65625 20.3622V20.367C0.65625 20.3718 0.661044 20.3718 0.661044 20.3718C0.819196 20.4053 0.977348 20.4389 1.1355 20.4676C0.977348 20.4293 0.828781 20.391 0.67542 20.3574ZM0.67542 20.3574C0.670628 20.3622 0.661043 20.3622 0.65625 20.3622V20.367C0.65625 20.3718 0.661044 20.3718 0.661044 20.3718C0.819196 20.4053 0.977348 20.4389 1.1355 20.4676C0.977348 20.4293 0.828781 20.391 0.67542 20.3574Z" fill="white"/>
<path d="M21.01 6.8384C21.01 8.96148 20.7848 11.0223 20.3582 12.9824C19.9365 14.9377 19.3135 16.7972 18.5275 18.5321C16.807 19.3133 14.9619 19.9315 13.0257 20.3533C11.0464 20.7846 8.97125 21.0146 6.829 21.0146C4.87366 21.0146 2.96624 20.8229 1.14029 20.4587C1.1355 20.4587 1.13071 20.4539 1.13071 20.4539C0.977349 20.4204 0.828781 20.382 0.67542 20.3485C0.828781 20.3149 0.977349 20.2814 1.13071 20.243C0.972556 20.2718 0.814403 20.3053 0.65625 20.3389C1.7729 15.2061 4.24584 10.7299 7.59101 7.50456C10.8116 4.19773 15.259 1.75355 20.3535 0.646484V0.651277C20.3582 0.660862 20.3582 0.670447 20.3582 0.680032C20.7848 2.65454 21.01 4.71532 21.01 6.8384Z" fill="white"/>
<path d="M1.1355 20.4637C0.977348 20.435 0.819194 20.4014 0.661042 20.3679C0.661042 20.3679 0.65625 20.3679 0.65625 20.3631V20.3583C0.661043 20.3583 0.670628 20.3583 0.67542 20.3535C0.833573 20.3919 0.98214 20.4302 1.1355 20.4637Z" fill="white"/>
<path d="M20.3538 0.656573C18.3793 0.23004 16.3137 0 14.181 0C9.94445 0 5.95709 0.900991 2.48252 2.48252C0.900991 5.95709 0 9.94445 0 14.181C0 16.3137 0.23004 18.3841 0.656573 20.3538C0.656573 20.349 0.661366 20.349 0.661366 20.349C1.77802 15.2162 4.25095 10.74 7.59612 7.51465C10.8167 4.20782 15.2641 1.76364 20.3586 0.656573H20.3538Z" fill="#665B4F"/>
<path d="M23.6259 0.67542C23.6211 0.670628 23.6211 0.661043 23.6211 0.65625H23.6163C23.6115 0.65625 23.6115 0.661043 23.6115 0.661043C23.5779 0.819195 23.5444 0.977348 23.5156 1.1355C23.5588 0.98214 23.5923 0.82878 23.6259 0.67542ZM23.6259 0.67542C23.6211 0.670628 23.6211 0.661043 23.6211 0.65625H23.6163C23.6115 0.65625 23.6115 0.661043 23.6115 0.661043C23.5779 0.819195 23.5444 0.977348 23.5156 1.1355C23.5588 0.98214 23.5923 0.82878 23.6259 0.67542ZM23.6259 0.67542C23.6211 0.670628 23.6211 0.661043 23.6211 0.65625H23.6163C23.6115 0.65625 23.6115 0.661043 23.6115 0.661043C23.5779 0.819195 23.5444 0.977348 23.5156 1.1355C23.5588 0.98214 23.5923 0.82878 23.6259 0.67542ZM23.6259 0.67542C23.6211 0.670628 23.6211 0.661043 23.6211 0.65625H23.6163C23.6115 0.65625 23.6115 0.661043 23.6115 0.661043C23.5779 0.819195 23.5444 0.977348 23.5156 1.1355C23.5588 0.98214 23.5923 0.82878 23.6259 0.67542ZM23.6259 0.67542C23.6211 0.670628 23.6211 0.661043 23.6211 0.65625H23.6163C23.6115 0.65625 23.6115 0.661043 23.6115 0.661043C23.5779 0.819195 23.5444 0.977348 23.5156 1.1355C23.5588 0.98214 23.5923 0.82878 23.6259 0.67542Z" fill="#BAF6BE"/>
<path d="M37.1546 21.0196C35.0315 21.0196 32.9707 20.7944 31.0058 20.3678C29.0456 19.9461 27.1862 19.3231 25.4513 18.5323C24.6701 16.8118 24.0519 14.9667 23.6301 13.0257C23.1988 11.0464 22.9688 8.96646 22.9688 6.829C22.9688 4.86886 23.1605 2.96624 23.5247 1.14029C23.5247 1.1355 23.5295 1.13071 23.5295 1.13071C23.563 0.977348 23.6014 0.82878 23.6349 0.67542C23.6685 0.82878 23.702 0.977348 23.7403 1.13071C23.7116 0.972555 23.678 0.814403 23.6445 0.65625C28.7821 1.7729 33.2583 4.25063 36.4836 7.59101C39.7905 10.8164 42.2346 15.259 43.3417 20.3582H43.3369C43.3273 20.363 43.3177 20.363 43.3081 20.363C41.3384 20.7944 39.2777 21.0196 37.1546 21.0196Z" fill="#BAF6BE"/>
<path d="M23.5234 1.13159C23.5522 0.973442 23.5857 0.815289 23.6193 0.657136C23.6193 0.657136 23.6193 0.652344 23.6241 0.652344H23.6289C23.6289 0.657136 23.6289 0.666721 23.6337 0.671514C23.5905 0.829666 23.557 0.983027 23.5234 1.13159Z" fill="#BAF6BE"/>
<path d="M43.3444 20.3634C43.7709 18.3936 44.001 16.3233 44.001 14.1906C44.001 9.94924 43.1 5.96188 41.5137 2.48731C38.0343 0.900991 34.0517 0 29.8104 0C27.6777 0 25.6073 0.23004 23.6328 0.656573C23.6376 0.656573 23.6376 0.661366 23.6376 0.661366C28.7752 1.77802 33.2514 4.25575 36.4767 7.59612C39.7836 10.8215 42.2277 15.2641 43.3348 20.3634H43.3444Z" fill="#665B4F"/>
<path d="M43.3195 23.6376C43.3242 23.6328 43.3338 23.6328 43.3386 23.6328V23.628C43.3386 23.6232 43.3338 23.6232 43.3338 23.6232C43.1757 23.5896 43.0175 23.5561 42.8594 23.5273C43.0175 23.5705 43.1709 23.604 43.3195 23.6376ZM43.3195 23.6376C43.3242 23.6328 43.3338 23.6328 43.3386 23.6328V23.628C43.3386 23.6232 43.3338 23.6232 43.3338 23.6232C43.1757 23.5896 43.0175 23.5561 42.8594 23.5273C43.0175 23.5705 43.1709 23.604 43.3195 23.6376ZM43.3195 23.6376C43.3242 23.6328 43.3338 23.6328 43.3386 23.6328V23.628C43.3386 23.6232 43.3338 23.6232 43.3338 23.6232C43.1757 23.5896 43.0175 23.5561 42.8594 23.5273C43.0175 23.5705 43.1709 23.604 43.3195 23.6376ZM43.3195 23.6376C43.3242 23.6328 43.3338 23.6328 43.3386 23.6328V23.628C43.3386 23.6232 43.3338 23.6232 43.3338 23.6232C43.1757 23.5896 43.0175 23.5561 42.8594 23.5273C43.0175 23.5705 43.1709 23.604 43.3195 23.6376ZM43.3195 23.6376C43.3242 23.6328 43.3338 23.6328 43.3386 23.6328V23.628C43.3386 23.6232 43.3338 23.6232 43.3338 23.6232C43.1757 23.5896 43.0175 23.5561 42.8594 23.5273C43.0175 23.5705 43.1709 23.604 43.3195 23.6376Z" fill="white"/>
<path d="M22.9844 37.1567C22.9844 35.0336 23.2096 32.9728 23.6362 31.0127C24.0579 29.0574 24.6809 27.1979 25.4669 25.463C27.1874 24.6818 29.0325 24.0636 30.9687 23.6418C32.948 23.2105 35.0231 22.9805 37.1654 22.9805C39.1207 22.9805 41.0282 23.1722 42.8541 23.5364C42.8589 23.5364 42.8637 23.5412 42.8637 23.5412C43.017 23.5747 43.1656 23.6131 43.319 23.6466C43.1656 23.6802 43.017 23.7137 42.8637 23.7521C43.0218 23.7233 43.18 23.6898 43.3382 23.6562C42.2215 28.789 39.7486 33.2652 36.4034 36.4905C33.1828 39.7974 28.7354 42.2416 23.6409 43.3486V43.3438C23.6362 43.3342 23.6362 43.3247 23.6362 43.3151C23.2096 41.3454 22.9844 39.2798 22.9844 37.1567Z" fill="white"/>
<path d="M42.8594 23.5371C43.0175 23.5659 43.1757 23.5994 43.3338 23.633C43.3338 23.633 43.3386 23.633 43.3386 23.6378V23.6425C43.3338 23.6425 43.3242 23.6425 43.3195 23.6473C43.1661 23.6042 43.0127 23.5707 42.8594 23.5371Z" fill="white"/>
<path d="M23.6454 43.3437C25.6151 43.7702 27.6855 44.0003 29.8182 44.0003C34.0547 44.0003 38.0421 43.0993 41.5167 41.5177C43.0982 38.0432 43.9992 34.0558 43.9992 29.8192C43.9992 27.6866 43.7691 25.6162 43.3426 23.6465C43.3426 23.6513 43.3378 23.6513 43.3378 23.6513C42.2212 28.7841 39.7482 33.2603 36.4031 36.4856C33.1825 39.7924 28.7351 42.2366 23.6406 43.3437H23.6454Z" fill="#665B4F"/>
<path d="M20.3672 43.3195C20.372 43.3242 20.372 43.3338 20.372 43.3386H20.3768C20.3816 43.3386 20.3816 43.3338 20.3816 43.3338C20.4151 43.1757 20.4487 43.0175 20.4774 42.8594C20.4391 43.0175 20.4007 43.1709 20.3672 43.3195ZM20.3672 43.3195C20.372 43.3242 20.372 43.3338 20.372 43.3386H20.3768C20.3816 43.3386 20.3816 43.3338 20.3816 43.3338C20.4151 43.1757 20.4487 43.0175 20.4774 42.8594C20.4391 43.0175 20.4007 43.1709 20.3672 43.3195ZM20.3672 43.3195C20.372 43.3242 20.372 43.3338 20.372 43.3386H20.3768C20.3816 43.3386 20.3816 43.3338 20.3816 43.3338C20.4151 43.1757 20.4487 43.0175 20.4774 42.8594C20.4391 43.0175 20.4007 43.1709 20.3672 43.3195ZM20.3672 43.3195C20.372 43.3242 20.372 43.3338 20.372 43.3386H20.3768C20.3816 43.3386 20.3816 43.3338 20.3816 43.3338C20.4151 43.1757 20.4487 43.0175 20.4774 42.8594C20.4391 43.0175 20.4007 43.1709 20.3672 43.3195ZM20.3672 43.3195C20.372 43.3242 20.372 43.3338 20.372 43.3386H20.3768C20.3816 43.3386 20.3816 43.3338 20.3816 43.3338C20.4151 43.1757 20.4487 43.0175 20.4774 42.8594C20.4391 43.0175 20.4007 43.1709 20.3672 43.3195Z" fill="#BAF6BE"/>
<path d="M6.84338 22.9746C8.96646 22.9746 11.0272 23.1999 12.9922 23.6264C14.9523 24.0481 16.8118 24.6712 18.5467 25.4619C19.3279 27.1824 19.9461 29.0275 20.3678 30.9685C20.7992 32.9478 21.0292 35.0278 21.0292 37.1652C21.0292 39.1254 20.8375 41.028 20.4733 42.8539C20.4733 42.8587 20.4685 42.8635 20.4685 42.8635C20.4349 43.0169 20.3966 43.1654 20.363 43.3188C20.3295 43.1654 20.2959 43.0169 20.2576 42.8635C20.2864 43.0217 20.3199 43.1798 20.3535 43.338C15.2159 42.2213 10.7397 39.7436 7.51433 36.4032C4.2075 33.1779 1.76332 28.7352 0.65625 23.636H0.661042C0.670627 23.6312 0.680212 23.6312 0.689797 23.6312C2.65472 23.1999 4.7203 22.9746 6.84338 22.9746Z" fill="#BAF6BE"/>
<path d="M20.4696 42.8633C20.4408 43.0214 20.4073 43.1796 20.3738 43.3377C20.3738 43.3377 20.3738 43.3425 20.369 43.3425H20.3642C20.3642 43.3377 20.3642 43.3282 20.3594 43.3234C20.3977 43.17 20.4361 43.0166 20.4696 42.8633Z" fill="#BAF6BE"/>
<path d="M0.656573 23.6367C0.23004 25.6064 0 27.6768 0 29.8095C0 34.0508 0.900991 38.0382 2.48731 41.5128C5.96188 43.0943 9.94924 44.0001 14.1906 44.0001C16.3233 44.0001 18.3936 43.77 20.3682 43.3435C20.3634 43.3435 20.3634 43.3387 20.3634 43.3387C15.2258 42.2221 10.7496 39.7443 7.52424 36.404C4.21741 33.1786 1.77323 28.7359 0.666158 23.6367H0.656573Z" fill="#665B4F"/>
</svg>
