<svg width="179" height="40" viewBox="0 0 179 40" fill="none" xmlns="http://www.w3.org/2000/svg">
<path d="M167.812 22.0624V28.8487H164.062V11.1641H169.209C171.601 11.1641 173.375 11.603 174.531 12.481C175.695 13.35 176.278 14.6759 176.278 16.4587C176.278 17.4979 175.991 18.4252 175.418 19.2404C174.853 20.0467 174.043 20.6828 172.985 21.1486C175.646 25.1174 177.38 27.6841 178.186 28.8487H174.02L169.801 22.0624H167.812ZM167.812 14.2414V19.012H169.021C170.204 19.012 171.077 18.8149 171.642 18.4207C172.206 18.0265 172.488 17.4128 172.488 16.5797C172.488 15.7465 172.202 15.1507 171.628 14.7924C171.064 14.4251 170.168 14.2414 168.941 14.2414H167.812Z" fill="#010101"/>
<path d="M161.438 25.7579V28.8487H151.266V11.1641H161.438V14.2414H155.015V18.1251H160.995V21.189H155.015V25.7579H161.438Z" fill="#010101"/>
<path d="M142.971 21.6862L146.317 11.1641H150.107L144.1 28.8487H140.001L134.008 11.1641H137.797L141.117 21.6862C141.278 22.2327 141.462 22.9359 141.668 23.796C141.883 24.656 142.013 25.2518 142.057 25.5833C142.156 24.777 142.46 23.4779 142.971 21.6862Z" fill="#010101"/>
<path d="M132.843 28.8487H129.094V11.1641H132.843V28.8487Z" fill="#010101"/>
<path d="M117.554 28.8487V22.0624H119.543L123.762 28.8487H127.928C127.122 27.6841 125.388 25.1174 122.728 21.1486C123.785 20.6828 124.596 20.0467 125.16 19.2404C125.733 18.4252 126.02 17.4979 126.02 16.4587C126.02 14.6759 124.273 12.481 124.273 12.481L121.37 14.7924C121.944 15.1507 122.23 15.7465 122.23 16.5797C122.23 17.4128 121.948 18.0265 121.384 18.4207C120.819 18.8149 119.946 19.012 118.763 19.012H117.554V11.1641H113.805V28.8487H117.554Z" fill="#FC4827"/>
<path d="M110.409 11.1641V28.8487H105.638L97.9517 15.4777H97.8442C97.9965 17.8966 98.0727 19.5809 98.0727 20.5305V28.8487H94.7266V11.1641H99.4434L107.13 24.4141H107.211C107.094 22.2013 107.036 20.5753 107.036 19.5361V11.1641H110.409Z" fill="#010101"/>
<path d="M92.1024 25.7579V28.8487H81.9297V11.1641H92.1024V14.2414H85.6789V18.1251H91.6589V21.189H85.6789V25.7579H92.1024Z" fill="#010101"/>
<path d="M71.7563 22.035V18.9174H78.7711V28.0822C76.7464 28.7541 74.65 29.0901 72.482 29.0901C69.8212 29.0901 67.7831 28.3062 66.3676 26.7384C64.9611 25.1706 64.2578 22.9444 64.2578 20.0596C64.2578 17.1659 65.0731 14.9173 66.7036 13.3136C68.352 11.71 70.6186 10.9082 73.5033 10.9082C75.3219 10.9082 77.0689 11.271 78.7442 11.9967L77.5079 15.0069C76.2178 14.3618 74.874 14.0393 73.4764 14.0393C71.8638 14.0393 70.5648 14.5858 69.5793 15.6788C68.6028 16.7628 68.1146 18.2455 68.1146 20.1268C68.1146 21.9992 68.5088 23.4416 69.2971 24.4539C70.0855 25.4663 71.2278 25.9724 72.7239 25.9724C73.5033 25.9724 74.2961 25.8918 75.1024 25.7305V22.035H71.7563Z" fill="#010101"/>
<path d="M64.3668 28.8495H60.3219L59.0453 24.6434H52.595L51.3183 28.8495H47.2734L53.5088 11.0977H58.0912L64.3668 28.8495ZM53.5356 21.4988H58.1449L56.1426 15.035C55.9993 14.5513 55.8918 14.1526 55.8201 13.839C55.5782 14.8066 54.8167 17.3599 53.5356 21.4988Z" fill="#010101"/>
<path d="M0.61899 18.5078C0.614633 18.5122 0.605919 18.5122 0.601562 18.5122V18.5165C0.601562 18.5209 0.60592 18.5209 0.60592 18.5209C0.749696 18.5514 0.893471 18.5819 1.03725 18.608C0.893471 18.5732 0.758409 18.5383 0.61899 18.5078ZM0.61899 18.5078C0.614633 18.5122 0.605919 18.5122 0.601562 18.5122V18.5165C0.601562 18.5209 0.60592 18.5209 0.60592 18.5209C0.749696 18.5514 0.893471 18.5819 1.03725 18.608C0.893471 18.5732 0.758409 18.5383 0.61899 18.5078ZM0.61899 18.5078C0.614633 18.5122 0.605919 18.5122 0.601562 18.5122V18.5165C0.601562 18.5209 0.60592 18.5209 0.60592 18.5209C0.749696 18.5514 0.893471 18.5819 1.03725 18.608C0.893471 18.5732 0.758409 18.5383 0.61899 18.5078ZM0.61899 18.5078C0.614633 18.5122 0.605919 18.5122 0.601562 18.5122V18.5165C0.601562 18.5209 0.60592 18.5209 0.60592 18.5209C0.749696 18.5514 0.893471 18.5819 1.03725 18.608C0.893471 18.5732 0.758409 18.5383 0.61899 18.5078ZM0.61899 18.5078C0.614633 18.5122 0.605919 18.5122 0.601562 18.5122V18.5165C0.601562 18.5209 0.60592 18.5209 0.60592 18.5209C0.749696 18.5514 0.893471 18.5819 1.03725 18.608C0.893471 18.5732 0.758409 18.5383 0.61899 18.5078Z" fill="#FC4827"/>
<path d="M19.0973 6.21693C19.0973 8.14701 18.8925 10.0205 18.5047 11.8024C18.1213 13.58 17.5549 15.2704 16.8404 16.8476C15.2763 17.5578 13.5989 18.1198 11.8388 18.5032C10.0394 18.8953 8.15287 19.1045 6.20536 19.1045C4.42777 19.1045 2.69375 18.9302 1.03379 18.5991C1.02943 18.5991 1.02508 18.5947 1.02508 18.5947C0.885659 18.5642 0.750597 18.5294 0.611178 18.4989C0.750597 18.4684 0.885659 18.4379 1.02508 18.403C0.881302 18.4292 0.737526 18.4597 0.59375 18.4902C1.60889 13.824 3.85702 9.75468 6.8981 6.82253C9.82589 3.81631 13.869 1.59432 18.5004 0.587891V0.592247C18.5047 0.600961 18.5047 0.609675 18.5047 0.618388C18.8925 2.41341 19.0973 4.28685 19.0973 6.21693Z" fill="#FC4827"/>
<path d="M1.02943 18.6041C0.885658 18.578 0.741882 18.5475 0.598106 18.517C0.598106 18.517 0.59375 18.517 0.59375 18.5126V18.5083C0.598107 18.5083 0.606821 18.5083 0.611178 18.5039C0.754953 18.5388 0.890015 18.5736 1.02943 18.6041Z" fill="#FC4827"/>
<path d="M18.5035 0.596887C16.7085 0.209128 14.8307 0 12.8919 0C9.04045 0 5.41555 0.819086 2.25684 2.25684C0.819086 5.41555 0 9.04044 0 12.8919C0 14.8307 0.209128 16.7128 0.596887 18.5035C0.596887 18.4991 0.601244 18.4991 0.601244 18.4991C1.61639 13.833 3.86452 9.76368 6.90559 6.83153C9.83339 3.82531 13.8765 1.60332 18.5079 0.596887H18.5035Z" fill="#DDDDFB"/>
<path d="M21.483 0.615084C21.4787 0.610727 21.4787 0.602013 21.4787 0.597656H21.4743C21.47 0.597656 21.47 0.602013 21.47 0.602013C21.4395 0.745789 21.409 0.889564 21.3828 1.03334C21.422 0.893921 21.4525 0.754502 21.483 0.615084ZM21.483 0.615084C21.4787 0.610727 21.4787 0.602013 21.4787 0.597656H21.4743C21.47 0.597656 21.47 0.602013 21.47 0.602013C21.4395 0.745789 21.409 0.889564 21.3828 1.03334C21.422 0.893921 21.4525 0.754502 21.483 0.615084ZM21.483 0.615084C21.4787 0.610727 21.4787 0.602013 21.4787 0.597656H21.4743C21.47 0.597656 21.47 0.602013 21.47 0.602013C21.4395 0.745789 21.409 0.889564 21.3828 1.03334C21.422 0.893921 21.4525 0.754502 21.483 0.615084ZM21.483 0.615084C21.4787 0.610727 21.4787 0.602013 21.4787 0.597656H21.4743C21.47 0.597656 21.47 0.602013 21.47 0.602013C21.4395 0.745789 21.409 0.889564 21.3828 1.03334C21.422 0.893921 21.4525 0.754502 21.483 0.615084ZM21.483 0.615084C21.4787 0.610727 21.4787 0.602013 21.4787 0.597656H21.4743C21.47 0.597656 21.47 0.602013 21.47 0.602013C21.4395 0.745789 21.409 0.889564 21.3828 1.03334C21.422 0.893921 21.4525 0.754502 21.483 0.615084Z" fill="#8811FF"/>
<path d="M33.7791 19.1099C31.849 19.1099 29.9755 18.9051 28.1892 18.5173C26.4073 18.1339 24.7168 17.5675 23.1397 16.8487C22.4295 15.2846 21.8675 13.6072 21.4841 11.8427C21.0919 10.0433 20.8828 8.15242 20.8828 6.20927C20.8828 4.42732 21.0571 2.69765 21.3882 1.0377C21.3882 1.03334 21.3926 1.02898 21.3926 1.02898C21.4231 0.889564 21.4579 0.754502 21.4884 0.615084C21.5189 0.754502 21.5494 0.889564 21.5843 1.02898C21.5581 0.885208 21.5276 0.741432 21.4971 0.597656C26.1677 1.6128 30.237 3.86529 33.1691 6.902C36.1753 9.83416 38.3973 13.8729 39.4037 18.5086H39.3994C39.3907 18.513 39.382 18.513 39.3732 18.513C37.5826 18.9051 35.7091 19.1099 33.7791 19.1099Z" fill="#8811FF"/>
<path d="M21.3906 1.02943C21.4168 0.885658 21.4473 0.741883 21.4778 0.598107C21.4778 0.598107 21.4778 0.59375 21.4821 0.59375H21.4865C21.4865 0.598107 21.4865 0.606821 21.4908 0.611177C21.4516 0.754953 21.4211 0.894372 21.3906 1.02943Z" fill="#8811FF"/>
<path d="M39.4041 18.5122C39.7918 16.7216 40.0009 14.8394 40.0009 12.9006C40.0009 9.0448 39.1819 5.41991 37.7397 2.2612C34.5767 0.819086 30.9561 0 27.1003 0C25.1615 0 23.2794 0.209128 21.4844 0.596887C21.4887 0.596887 21.4887 0.601244 21.4887 0.601244C26.1593 1.61639 30.2286 3.86887 33.1607 6.90559C36.1669 9.83775 38.3889 13.8765 39.3953 18.5122H39.4041Z" fill="#DDDDFB"/>
<path d="M39.3792 21.4869C39.3836 21.4826 39.3923 21.4826 39.3966 21.4826V21.4782C39.3966 21.4739 39.3923 21.4739 39.3923 21.4739C39.2485 21.4434 39.1047 21.4129 38.9609 21.3867C39.1047 21.4259 39.2441 21.4564 39.3792 21.4869ZM39.3792 21.4869C39.3836 21.4826 39.3923 21.4826 39.3966 21.4826V21.4782C39.3966 21.4739 39.3923 21.4739 39.3923 21.4739C39.2485 21.4434 39.1047 21.4129 38.9609 21.3867C39.1047 21.4259 39.2441 21.4564 39.3792 21.4869ZM39.3792 21.4869C39.3836 21.4826 39.3923 21.4826 39.3966 21.4826V21.4782C39.3966 21.4739 39.3923 21.4739 39.3923 21.4739C39.2485 21.4434 39.1047 21.4129 38.9609 21.3867C39.1047 21.4259 39.2441 21.4564 39.3792 21.4869ZM39.3792 21.4869C39.3836 21.4826 39.3923 21.4826 39.3966 21.4826V21.4782C39.3966 21.4739 39.3923 21.4739 39.3923 21.4739C39.2485 21.4434 39.1047 21.4129 38.9609 21.3867C39.1047 21.4259 39.2441 21.4564 39.3792 21.4869ZM39.3792 21.4869C39.3836 21.4826 39.3923 21.4826 39.3966 21.4826V21.4782C39.3966 21.4739 39.3923 21.4739 39.3923 21.4739C39.2485 21.4434 39.1047 21.4129 38.9609 21.3867C39.1047 21.4259 39.2441 21.4564 39.3792 21.4869Z" fill="#FC4827"/>
<path d="M20.8906 33.7782C20.8906 31.8481 21.0954 29.9746 21.4832 28.1927C21.8666 26.4151 22.4329 24.7246 23.1475 23.1475C24.7116 22.4373 26.389 21.8753 28.1491 21.4919C29.9485 21.0998 31.835 20.8906 33.7825 20.8906C35.5601 20.8906 37.2941 21.0649 38.9541 21.396C38.9584 21.396 38.9628 21.4004 38.9628 21.4004C39.1022 21.4309 39.2373 21.4657 39.3767 21.4962C39.2373 21.5267 39.1022 21.5572 38.9628 21.5921C39.1066 21.5659 39.2503 21.5354 39.3941 21.5049C38.379 26.1711 36.1309 30.2404 33.0898 33.1726C30.162 36.1788 26.1188 38.4008 21.4875 39.4072V39.4028C21.4832 39.3941 21.4832 39.3854 21.4832 39.3767C21.0954 37.586 20.8906 35.7082 20.8906 33.7782Z" fill="#FC4827"/>
<path d="M38.9609 21.3965C39.1047 21.4226 39.2485 21.4531 39.3923 21.4836C39.3923 21.4836 39.3966 21.4836 39.3966 21.488V21.4923C39.3923 21.4923 39.3836 21.4923 39.3792 21.4967C39.2398 21.4575 39.1004 21.427 38.9609 21.3965Z" fill="#FC4827"/>
<path d="M21.4887 39.4027C23.2794 39.7905 25.1615 39.9996 27.1003 39.9996C30.9518 39.9996 34.5767 39.1805 37.7354 37.7428C39.1731 34.584 39.9922 30.9592 39.9922 27.1077C39.9922 25.1689 39.7831 23.2868 39.3953 21.4961C39.3953 21.5005 39.391 21.5004 39.391 21.5004C38.3758 26.1666 36.1277 30.2359 33.0866 33.1681C30.1588 36.1743 26.1157 38.3963 21.4844 39.4027H21.4887Z" fill="#DDDDFB"/>
<path d="M18.5156 39.3851C18.52 39.3894 18.52 39.3981 18.52 39.4025H18.5243C18.5287 39.4025 18.5287 39.3981 18.5287 39.3981C18.5592 39.2543 18.5897 39.1106 18.6158 38.9668C18.581 39.1106 18.5461 39.25 18.5156 39.3851ZM18.5156 39.3851C18.52 39.3894 18.52 39.3981 18.52 39.4025H18.5243C18.5287 39.4025 18.5287 39.3981 18.5287 39.3981C18.5592 39.2543 18.5897 39.1106 18.6158 38.9668C18.581 39.1106 18.5461 39.25 18.5156 39.3851ZM18.5156 39.3851C18.52 39.3894 18.52 39.3981 18.52 39.4025H18.5243C18.5287 39.4025 18.5287 39.3981 18.5287 39.3981C18.5592 39.2543 18.5897 39.1106 18.6158 38.9668C18.581 39.1106 18.5461 39.25 18.5156 39.3851ZM18.5156 39.3851C18.52 39.3894 18.52 39.3981 18.52 39.4025H18.5243C18.5287 39.4025 18.5287 39.3981 18.5287 39.3981C18.5592 39.2543 18.5897 39.1106 18.6158 38.9668C18.581 39.1106 18.5461 39.25 18.5156 39.3851ZM18.5156 39.3851C18.52 39.3894 18.52 39.3981 18.52 39.4025H18.5243C18.5287 39.4025 18.5287 39.3981 18.5287 39.3981C18.5592 39.2543 18.5897 39.1106 18.6158 38.9668C18.581 39.1106 18.5461 39.25 18.5156 39.3851Z" fill="#8811FF"/>
<path d="M6.21843 20.8887C8.14851 20.8887 10.022 21.0934 11.8083 21.4812C13.5902 21.8646 15.2807 22.431 16.8578 23.1499C17.568 24.714 18.13 26.3914 18.5134 28.1559C18.9056 29.9553 19.1147 31.8461 19.1147 33.7893C19.1147 35.5712 18.9404 37.3009 18.6093 38.9608C18.6093 38.9652 18.6049 38.9696 18.6049 38.9696C18.5744 39.109 18.5396 39.244 18.5091 39.3835C18.4786 39.244 18.4481 39.109 18.4132 38.9696C18.4394 39.1133 18.4699 39.2571 18.5004 39.4009C13.8298 38.3857 9.76054 36.1333 6.82839 33.0965C3.82217 30.1644 1.60018 26.1256 0.59375 21.4899H0.598106C0.60682 21.4856 0.615534 21.4856 0.624248 21.4856C2.41055 21.0934 4.28835 20.8887 6.21843 20.8887Z" fill="#8811FF"/>
<path d="M18.608 38.9707C18.5819 39.1145 18.5514 39.2583 18.5209 39.402C18.5209 39.402 18.5209 39.4064 18.5165 39.4064H18.5122C18.5122 39.402 18.5122 39.3933 18.5078 39.389C18.5427 39.2495 18.5775 39.1101 18.608 38.9707Z" fill="#8811FF"/>
<path d="M0.596887 21.4883C0.209128 23.2789 0 25.1611 0 27.0999C0 30.9557 0.819085 34.5806 2.2612 37.7393C5.41991 39.1771 9.0448 40.0005 12.9006 40.0005C14.8394 40.0005 16.7216 39.7914 18.5166 39.4036C18.5122 39.4036 18.5122 39.3993 18.5122 39.3993C13.8417 38.3841 9.77239 36.1316 6.84024 33.0949C3.83402 30.1627 1.61203 26.124 0.6056 21.4883H0.596887Z" fill="#DDDDFB"/>
</svg>
