<svg width="286" height="64" viewBox="0 0 286 64" fill="none" xmlns="http://www.w3.org/2000/svg">
<path d="M268.499 35.3005V46.1585H262.5V17.8633H270.735C274.562 17.8633 277.4 18.5656 279.249 19.9704C281.113 21.3608 282.044 23.4822 282.044 26.3346C282.044 27.9974 281.586 29.4809 280.668 30.7853C279.765 32.0754 278.468 33.0931 276.777 33.8385C281.034 40.1884 283.807 44.2951 285.097 46.1585H278.432L271.681 35.3005H268.499ZM268.499 22.787V30.4198H270.434C272.326 30.4198 273.723 30.1045 274.626 29.4738C275.53 28.8431 275.981 27.8612 275.981 26.5281C275.981 25.1951 275.522 24.2419 274.605 23.6685C273.702 23.0808 272.269 22.787 270.305 22.787H268.499Z" fill="white"/>
<path d="M258.3 41.2133V46.1585H242.023V17.8633H258.3V22.787H248.022V29.0007H257.59V33.903H248.022V41.2133H258.3Z" fill="white"/>
<path d="M228.747 34.6985L234.101 17.8633H240.164L230.553 46.1585H223.996L214.406 17.8633H220.47L225.78 34.6985C226.038 35.5729 226.332 36.6981 226.662 38.0741C227.006 39.4502 227.214 40.4034 227.285 40.9338C227.443 39.6437 227.93 37.5653 228.747 34.6985Z" fill="white"/>
<path d="M212.553 46.1585H206.555V17.8633H212.553V46.1585Z" fill="white"/>
<path d="M188.093 46.1585V35.3005H191.275L198.026 46.1585H204.691C203.401 44.2951 200.628 40.1884 196.37 33.8385C198.062 33.0931 199.359 32.0754 200.262 30.7853C201.179 29.4809 201.638 27.9974 201.638 26.3346C201.638 23.4822 198.843 19.9704 198.843 19.9704L194.199 23.6685C195.116 24.2419 195.575 25.1951 195.575 26.5281C195.575 27.8612 195.123 28.8431 194.22 29.4738C193.317 30.1045 191.92 30.4198 190.028 30.4198H188.093V17.8633H182.094V46.1585H188.093Z" fill="#FC4827"/>
<path d="M176.654 17.8633V46.1585H169.021L156.723 24.7651H156.551C156.794 28.6352 156.916 31.33 156.916 32.8494V46.1585H151.562V17.8633H159.109L171.408 39.0632H171.537C171.351 35.5227 171.257 32.9211 171.257 31.2583V17.8633H176.654Z" fill="white"/>
<path d="M147.362 41.2133V46.1585H131.086V17.8633H147.362V22.787H137.085V29.0007H146.653V33.903H137.085V41.2133H147.362Z" fill="white"/>
<path d="M114.818 35.2559V30.2677H126.041V44.9313C122.802 46.0063 119.448 46.5439 115.979 46.5439C111.722 46.5439 108.461 45.2896 106.196 42.7812C103.946 40.2728 102.82 36.7108 102.82 32.0952C102.82 27.4654 104.125 23.8676 106.733 21.3018C109.371 18.736 112.997 17.4531 117.613 17.4531C120.523 17.4531 123.318 18.0336 125.998 19.1947L124.02 24.0109C121.956 22.9789 119.806 22.4628 117.57 22.4628C114.99 22.4628 112.911 23.3372 111.335 25.0859C109.772 26.8204 108.991 29.1926 108.991 32.2027C108.991 35.1985 109.622 37.5063 110.883 39.126C112.145 40.7458 113.972 41.5556 116.366 41.5556C117.613 41.5556 118.881 41.4266 120.172 41.1686V35.2559H114.818Z" fill="white"/>
<path d="M102.99 46.1586H96.518L94.4754 39.4288H84.155L82.1124 46.1586H75.6406L85.617 17.7559H92.9489L102.99 46.1586ZM85.66 34.3976H93.0349L89.8312 24.0556C89.6019 23.2816 89.4299 22.6437 89.3152 22.142C88.9282 23.6901 87.7098 27.7753 85.66 34.3976Z" fill="white"/>
<path d="M0.988822 29.6113C0.981851 29.6183 0.967908 29.6183 0.960938 29.6183V29.6253C0.960938 29.6322 0.96791 29.6322 0.96791 29.6322C1.19795 29.681 1.42799 29.7298 1.65802 29.7717C1.42799 29.7159 1.21189 29.6601 0.988822 29.6113ZM0.988822 29.6113C0.981851 29.6183 0.967908 29.6183 0.960938 29.6183V29.6253C0.960938 29.6322 0.96791 29.6322 0.96791 29.6322C1.19795 29.681 1.42799 29.7298 1.65802 29.7717C1.42799 29.7159 1.21189 29.6601 0.988822 29.6113ZM0.988822 29.6113C0.981851 29.6183 0.967908 29.6183 0.960938 29.6183V29.6253C0.960938 29.6322 0.96791 29.6322 0.96791 29.6322C1.19795 29.681 1.42799 29.7298 1.65802 29.7717C1.42799 29.7159 1.21189 29.6601 0.988822 29.6113ZM0.988822 29.6113C0.981851 29.6183 0.967908 29.6183 0.960938 29.6183V29.6253C0.960938 29.6322 0.96791 29.6322 0.96791 29.6322C1.19795 29.681 1.42799 29.7298 1.65802 29.7717C1.42799 29.7159 1.21189 29.6601 0.988822 29.6113ZM0.988822 29.6113C0.981851 29.6183 0.967908 29.6183 0.960938 29.6183V29.6253C0.960938 29.6322 0.96791 29.6322 0.96791 29.6322C1.19795 29.681 1.42799 29.7298 1.65802 29.7717C1.42799 29.7159 1.21189 29.6601 0.988822 29.6113Z" fill="#FC4827"/>
<path d="M30.5662 9.94582C30.5662 13.0339 30.2386 16.0314 29.6182 18.8825C29.0048 21.7266 28.0986 24.4313 26.9553 26.9548C24.4528 28.091 21.769 28.9903 18.9528 29.6037C16.0738 30.2311 13.0554 30.5657 9.93942 30.5657C7.09531 30.5657 4.3209 30.2868 1.665 29.7571C1.65803 29.7571 1.65106 29.7501 1.65106 29.7501C1.42799 29.7013 1.21189 29.6455 0.988822 29.5967C1.21189 29.5479 1.42799 29.4991 1.65106 29.4434C1.42102 29.4852 1.19098 29.534 0.960938 29.5828C2.58515 22.117 6.18212 15.6062 11.0478 10.9148C15.7322 6.10487 22.2012 2.54973 29.6112 0.939453V0.946424C29.6182 0.960366 29.6182 0.974307 29.6182 0.988249C30.2386 3.86025 30.5662 6.85773 30.5662 9.94582Z" fill="#FC4827"/>
<path d="M1.65021 29.7658C1.42017 29.724 1.19013 29.6752 0.960095 29.6264C0.960095 29.6264 0.953125 29.6264 0.953125 29.6194V29.6124C0.960096 29.6124 0.974038 29.6124 0.981009 29.6055C1.21105 29.6612 1.42714 29.717 1.65021 29.7658Z" fill="#FC4827"/>
<path d="M29.6131 0.95501C26.7411 0.334602 23.7367 0 20.6346 0C14.4724 0 8.67261 1.31052 3.61873 3.61091C1.31834 8.6648 0.0078125 14.4646 0.0078125 20.6268C0.0078125 23.7289 0.342414 26.7403 0.962822 29.6053C0.962822 29.5983 0.969794 29.5983 0.969794 29.5983C2.59401 22.1325 6.19098 15.6217 11.0567 10.9303C15.7411 6.12043 22.2101 2.56528 29.6201 0.95501H29.6131Z" fill="#2A2439"/>
<path d="M34.3713 0.984915C34.3643 0.977944 34.3643 0.964002 34.3643 0.957031H34.3573C34.3504 0.957031 34.3504 0.964002 34.3504 0.964002C34.3016 1.19404 34.2528 1.42408 34.2109 1.65412C34.2737 1.43105 34.3225 1.20798 34.3713 0.984915ZM34.3713 0.984915C34.3643 0.977944 34.3643 0.964002 34.3643 0.957031H34.3573C34.3504 0.957031 34.3504 0.964002 34.3504 0.964002C34.3016 1.19404 34.2528 1.42408 34.2109 1.65412C34.2737 1.43105 34.3225 1.20798 34.3713 0.984915ZM34.3713 0.984915C34.3643 0.977944 34.3643 0.964002 34.3643 0.957031H34.3573C34.3504 0.957031 34.3504 0.964002 34.3504 0.964002C34.3016 1.19404 34.2528 1.42408 34.2109 1.65412C34.2737 1.43105 34.3225 1.20798 34.3713 0.984915ZM34.3713 0.984915C34.3643 0.977944 34.3643 0.964002 34.3643 0.957031H34.3573C34.3504 0.957031 34.3504 0.964002 34.3504 0.964002C34.3016 1.19404 34.2528 1.42408 34.2109 1.65412C34.2737 1.43105 34.3225 1.20798 34.3713 0.984915ZM34.3713 0.984915C34.3643 0.977944 34.3643 0.964002 34.3643 0.957031H34.3573C34.3504 0.957031 34.3504 0.964002 34.3504 0.964002C34.3016 1.19404 34.2528 1.42408 34.2109 1.65412C34.2737 1.43105 34.3225 1.20798 34.3713 0.984915Z" fill="#8811FF"/>
<path d="M54.0479 30.5763C50.9598 30.5763 47.9623 30.2486 45.1042 29.6282C42.2531 29.0148 39.5484 28.1086 37.025 26.9584C35.8887 24.4558 34.9895 21.7721 34.376 18.9489C33.7487 16.0699 33.4141 13.0445 33.4141 9.93552C33.4141 7.08443 33.6929 4.31699 34.2227 1.66109C34.2227 1.65412 34.2297 1.64715 34.2297 1.64715C34.2785 1.42408 34.3342 1.20798 34.383 0.984915C34.4318 1.20798 34.4806 1.42408 34.5364 1.64715C34.4945 1.41711 34.4458 1.18707 34.397 0.957031C41.8697 2.58124 48.3805 6.18519 53.0719 11.0439C57.8818 15.7353 61.437 22.1973 63.0472 29.6143H63.0403C63.0263 29.6213 63.0124 29.6213 62.9985 29.6213C60.1334 30.2486 57.136 30.5763 54.0479 30.5763Z" fill="#8811FF"/>
<path d="M34.2266 1.64826C34.2684 1.41822 34.3172 1.18818 34.366 0.958143C34.366 0.958143 34.366 0.951172 34.373 0.951172H34.3799C34.3799 0.958143 34.3799 0.972084 34.3869 0.979055C34.3242 1.20909 34.2754 1.43216 34.2266 1.64826Z" fill="#8811FF"/>
<path d="M63.0462 29.6192C63.6666 26.7542 64.0012 23.7428 64.0012 20.6408C64.0012 14.4715 62.6907 8.67177 60.3833 3.61788C55.3225 1.31052 49.5297 0 43.3605 0C40.2584 0 37.247 0.334602 34.375 0.95501C34.382 0.95501 34.382 0.961981 34.382 0.961981C41.8547 2.58619 48.3655 6.19014 53.0569 11.0488C57.8668 15.7402 61.422 22.2022 63.0323 29.6192H63.0462Z" fill="#2A2439"/>
<path d="M63.0051 34.3791C63.0121 34.3721 63.0261 34.3721 63.033 34.3721V34.3651C63.033 34.3582 63.0261 34.3582 63.0261 34.3582C62.796 34.3094 62.566 34.2606 62.3359 34.2188C62.566 34.2815 62.789 34.3303 63.0051 34.3791ZM63.0051 34.3791C63.0121 34.3721 63.0261 34.3721 63.033 34.3721V34.3651C63.033 34.3582 63.0261 34.3582 63.0261 34.3582C62.796 34.3094 62.566 34.2606 62.3359 34.2188C62.566 34.2815 62.789 34.3303 63.0051 34.3791ZM63.0051 34.3791C63.0121 34.3721 63.0261 34.3721 63.033 34.3721V34.3651C63.033 34.3582 63.0261 34.3582 63.0261 34.3582C62.796 34.3094 62.566 34.2606 62.3359 34.2188C62.566 34.2815 62.789 34.3303 63.0051 34.3791ZM63.0051 34.3791C63.0121 34.3721 63.0261 34.3721 63.033 34.3721V34.3651C63.033 34.3582 63.0261 34.3582 63.0261 34.3582C62.796 34.3094 62.566 34.2606 62.3359 34.2188C62.566 34.2815 62.789 34.3303 63.0051 34.3791ZM63.0051 34.3791C63.0121 34.3721 63.0261 34.3721 63.033 34.3721V34.3651C63.033 34.3582 63.0261 34.3582 63.0261 34.3582C62.796 34.3094 62.566 34.2606 62.3359 34.2188C62.566 34.2815 62.789 34.3303 63.0051 34.3791Z" fill="#FC4827"/>
<path d="M33.4297 54.0456C33.4297 50.9575 33.7573 47.9601 34.3777 45.109C34.9912 42.2648 35.8974 39.5602 37.0406 37.0367C39.5431 35.9004 42.2269 35.0012 45.0432 34.3878C47.9221 33.7604 50.9405 33.4258 54.0565 33.4258C56.9006 33.4258 59.675 33.7046 62.3309 34.2344C62.3379 34.2344 62.3449 34.2414 62.3449 34.2414C62.5679 34.2902 62.784 34.3459 63.0071 34.3947C62.784 34.4435 62.5679 34.4923 62.3449 34.5481C62.5749 34.5063 62.805 34.4575 63.035 34.4087C61.4108 41.8745 57.8138 48.3853 52.9481 53.0767C48.2637 57.8866 41.7947 61.4417 34.3847 63.052V63.045C34.3777 63.0311 34.3777 63.0171 34.3777 63.0032C33.7573 60.1382 33.4297 57.1337 33.4297 54.0456Z" fill="#FC4827"/>
<path d="M62.3438 34.2344C62.5738 34.2762 62.8038 34.325 63.0339 34.3738C63.0339 34.3738 63.0408 34.3738 63.0408 34.3808V34.3877C63.0339 34.3877 63.0199 34.3877 63.013 34.3947C62.7899 34.332 62.5668 34.2832 62.3438 34.2344Z" fill="#FC4827"/>
<path d="M34.3898 63.0448C37.2548 63.6652 40.2662 63.9998 43.3683 63.9998C49.5305 63.9998 55.3303 62.6893 60.3842 60.3889C62.6846 55.335 63.9951 49.5353 63.9951 43.373C63.9951 40.271 63.6605 37.2596 63.0401 34.3945C63.0401 34.4015 63.0331 34.4015 63.0331 34.4015C61.4089 41.8673 57.8119 48.3781 52.9463 53.0695C48.2618 57.8794 41.7929 61.4346 34.3828 63.0448H34.3898Z" fill="#2A2439"/>
<path d="M29.625 63.013C29.632 63.0199 29.632 63.0339 29.632 63.0408H29.6389C29.6459 63.0408 29.6459 63.0339 29.6459 63.0339C29.6947 62.8038 29.7435 62.5738 29.7853 62.3438C29.7296 62.5738 29.6738 62.7969 29.625 63.013ZM29.625 63.013C29.632 63.0199 29.632 63.0339 29.632 63.0408H29.6389C29.6459 63.0408 29.6459 63.0339 29.6459 63.0339C29.6947 62.8038 29.7435 62.5738 29.7853 62.3438C29.7296 62.5738 29.6738 62.7969 29.625 63.013ZM29.625 63.013C29.632 63.0199 29.632 63.0339 29.632 63.0408H29.6389C29.6459 63.0408 29.6459 63.0339 29.6459 63.0339C29.6947 62.8038 29.7435 62.5738 29.7853 62.3438C29.7296 62.5738 29.6738 62.7969 29.625 63.013ZM29.625 63.013C29.632 63.0199 29.632 63.0339 29.632 63.0408H29.6389C29.6459 63.0408 29.6459 63.0339 29.6459 63.0339C29.6947 62.8038 29.7435 62.5738 29.7853 62.3438C29.7296 62.5738 29.6738 62.7969 29.625 63.013ZM29.625 63.013C29.632 63.0199 29.632 63.0339 29.632 63.0408H29.6389C29.6459 63.0408 29.6459 63.0339 29.6459 63.0339C29.6947 62.8038 29.7435 62.5738 29.7853 62.3438C29.7296 62.5738 29.6738 62.7969 29.625 63.013Z" fill="#8811FF"/>
<path d="M9.95252 33.4199C13.0406 33.4199 16.0381 33.7476 18.8962 34.368C21.7472 34.9814 24.4519 35.8876 26.9754 37.0378C28.1117 39.5404 29.0109 42.2241 29.6243 45.0473C30.2517 47.9263 30.5863 50.9517 30.5863 54.0607C30.5863 56.9118 30.3075 59.6792 29.7777 62.3351C29.7777 62.3421 29.7707 62.3491 29.7707 62.3491C29.7219 62.5721 29.6662 62.7882 29.6174 63.0113C29.5686 62.7882 29.5198 62.5721 29.464 62.3491C29.5058 62.5791 29.5546 62.8091 29.6034 63.0392C22.1306 61.415 15.6198 57.811 10.9284 52.9523C6.11854 48.2609 2.5634 41.7989 0.953125 34.3819H0.960095C0.974036 34.3749 0.987979 34.3749 1.00192 34.3749C3.85998 33.7476 6.86443 33.4199 9.95252 33.4199Z" fill="#8811FF"/>
<path d="M29.7775 62.3516C29.7357 62.5816 29.6869 62.8116 29.6381 63.0417C29.6381 63.0417 29.6381 63.0486 29.6311 63.0486H29.6242C29.6242 63.0417 29.6242 63.0277 29.6172 63.0208C29.673 62.7977 29.7287 62.5746 29.7775 62.3516Z" fill="#8811FF"/>
<path d="M0.955009 34.3789C0.334601 37.2439 0 40.2554 0 43.3574C0 49.5266 1.31052 55.3264 3.61788 60.3803C8.67177 62.6807 14.4715 63.9981 20.6408 63.9981C23.7428 63.9981 26.7542 63.6636 29.6262 63.0431C29.6192 63.0431 29.6192 63.0362 29.6192 63.0362C22.1465 61.412 15.6357 57.808 10.9443 52.9493C6.13437 48.2579 2.57922 41.7959 0.968951 34.3789H0.955009Z" fill="#2A2439"/>
</svg>
