<svg width="240" height="56" viewBox="0 0 240 56" fill="none" xmlns="http://www.w3.org/2000/svg">
<path d="M65.3936 9.92H66.4336L77.1136 35.16C77.7936 36.8 78.8336 37.6 80.2736 37.6V38C78.6736 37.92 77.7536 37.84 75.9936 37.84C74.2736 37.84 73.1136 37.92 71.5136 38V37.6C72.7536 37.6 73.3536 37.2 73.3536 36.36C73.3536 36 73.2736 35.6 73.0736 35.16L70.1536 28.32H58.1936L55.3136 35.16C55.1936 35.48 55.1136 35.76 55.1136 36.04C55.1136 36.8 55.6336 37.32 56.7136 37.6V38C55.7536 37.92 55.1936 37.84 54.1136 37.84C53.1136 37.84 52.5936 37.92 51.5536 38V37.6C53.1136 37.2 54.1536 36.4 54.6736 35.16L65.3936 9.92ZM58.4736 27.72H69.9136L64.1936 14.24L58.4736 27.72ZM85.4386 24.08C85.4386 27.56 87.3986 30.24 89.9186 30.24C92.4786 30.24 94.4386 27.52 94.4386 24.08C94.4386 20.64 92.4786 18 89.9186 18C87.3986 18 85.4386 20.6 85.4386 24.08ZM84.3586 36.44L83.8386 37.2C82.3586 39.36 82.5986 41.64 84.5186 42.96C85.7986 43.88 87.8386 44.36 89.8786 44.36C90.6386 44.36 91.3986 44.28 92.1186 44.16C95.4386 43.52 98.3186 41.32 98.3586 39.4C98.3986 38.44 97.6786 37.84 96.0786 37.6C92.7986 37.12 87.4386 37.28 84.3586 36.44ZM83.4786 30.84L84.7586 29.4C82.7986 28.28 81.6386 26.4 81.6386 24.08C81.6386 20.16 84.9186 17.6 89.9586 17.6C94.2386 17.6 96.3986 16.4 96.3986 14.24L99.4786 16.16C99.4786 17.56 96.5586 17.92 93.1186 17.96C96.3186 18.8 98.2386 21 98.2386 24.04C98.2386 28 94.9186 30.64 89.9586 30.64C88.0786 30.64 86.4786 30.28 85.1586 29.64L84.2386 30.72C83.2786 31.84 83.6786 32.6 85.3586 33.04C88.4786 33.88 92.7186 33.16 96.5186 34.08C98.6786 34.56 99.7586 35.76 99.7586 37.52C99.7586 41.84 93.5186 46 87.0386 46C83.1186 46 80.5586 44.44 80.5586 42.04C80.5586 40.96 81.0786 39.96 82.6786 37.84L83.8786 36.32C83.5186 36.2 83.2386 36.04 82.9586 35.88C81.3186 34.88 81.5586 33.04 83.4786 30.84ZM101.357 28C101.357 21.76 105.237 17.6 110.997 17.6C116.557 17.6 120.277 21.44 120.277 27.04H105.117C105.197 33.32 108.117 37.52 112.677 37.52C115.677 37.52 118.397 35.68 119.997 32.56L120.357 33.04C118.637 36.44 115.397 38.4 111.277 38.4C105.317 38.4 101.357 34.28 101.357 28ZM105.117 26.44H116.717C116.517 21.48 114.117 18.08 110.917 18.08C107.677 18.08 105.237 21.6 105.117 26.44ZM127.827 17.72V24.6C128.907 20.48 132.107 17.6 136.067 17.6C141.987 17.6 142.227 23.08 142.227 27.52V35.44C142.227 36.84 142.907 37.56 144.227 37.6V38C142.787 37.92 141.907 37.84 140.347 37.84C138.827 37.84 137.987 37.92 136.627 38V37.6C137.947 37.56 138.627 36.88 138.627 35.48V27.6C138.627 24.32 138.587 23.2 138.147 21.96C137.467 19.84 136.147 18.6 134.427 18.6C131.147 18.6 127.827 22.96 127.827 27.72V35.44C127.827 36.84 128.507 37.56 129.827 37.6V38C128.467 37.92 127.547 37.84 126.027 37.84C124.467 37.84 123.587 37.92 122.227 38V37.6C123.547 37.56 124.227 36.84 124.227 35.44V21.24C124.227 19.36 123.547 18.4 122.227 18.4V18C122.947 18.04 123.667 18.08 124.347 18.08C125.587 18.08 126.907 18 127.827 17.72ZM146.816 38V37.6C148.136 37.56 148.816 36.84 148.816 35.44V12.52C148.816 11.12 148.176 10.4 146.896 10.4H146.816V10C147.576 10.04 149.856 10.08 151.496 10.08C153.216 10.08 155.016 10 156.296 10C163.176 10 167.016 12.36 167.016 16.6C167.016 20.12 164.256 22.96 160.256 24C163.536 24.8 164.936 28.48 165.856 31.36C166.696 33.84 166.856 35.44 167.816 36.24C168.136 36.52 168.456 36.64 168.816 36.64C169.416 36.64 170.056 36.24 170.576 35.4L170.696 36C169.856 37.52 168.536 38.4 166.896 38.44C163.816 38.48 162.816 35.28 162.176 32.84C161.616 30.64 160.896 28.96 159.896 27.4C158.576 25.24 157.376 24.4 155.736 24.4H152.616V35.44C152.616 36.84 153.296 37.56 154.616 37.6V38C153.056 37.92 152.136 37.84 150.576 37.84C148.976 37.84 148.096 37.92 146.816 38ZM152.616 23.8H156.456C159.976 23.8 163.016 20.44 163.016 16.56C163.016 12.92 160.376 10.6 156.256 10.6H153.656C152.976 10.6 152.616 10.96 152.616 11.64V23.8ZM173.376 14C173.376 12.88 174.376 12 175.616 12C176.856 12 177.856 12.88 177.856 14C177.856 15.12 176.856 16 175.616 16C174.376 16 173.376 15.12 173.376 14ZM177.416 17.72V35.44C177.416 36.84 178.096 37.56 179.416 37.6V38C178.056 37.92 177.176 37.84 175.656 37.84C174.096 37.84 173.216 37.92 171.816 38V37.6C173.136 37.56 173.816 36.84 173.816 35.44V21.24C173.816 19.36 173.136 18.4 171.816 18.4V18C172.536 18.04 173.216 18.08 173.896 18.08C175.176 18.08 176.456 18 177.416 17.72ZM189.765 38.08L182.485 20.6C181.885 19.12 181.085 18.4 180.085 18.4V18C181.445 18.08 182.205 18.16 183.765 18.16C185.365 18.16 186.085 18.08 186.885 18V18.4C186.325 18.4 186.045 18.68 186.045 19.2C186.045 19.56 186.165 20 186.405 20.6L191.925 33.84L197.485 20.6C197.605 20.32 197.645 20.04 197.645 19.8C197.645 19.16 197.205 18.68 196.365 18.4V18C197.205 18.08 197.685 18.16 198.645 18.16C199.605 18.16 200.085 18.08 200.885 18V18.4C199.485 18.8 198.565 19.52 198.125 20.6L190.805 38.08H189.765ZM201.052 28C201.052 21.76 204.932 17.6 210.692 17.6C216.252 17.6 219.972 21.44 219.972 27.04H204.812C204.892 33.32 207.812 37.52 212.372 37.52C215.372 37.52 218.092 35.68 219.692 32.56L220.052 33.04C218.332 36.44 215.092 38.4 210.972 38.4C205.012 38.4 201.052 34.28 201.052 28ZM204.812 26.44H216.412C216.212 21.48 213.812 18.08 210.612 18.08C207.372 18.08 204.932 21.6 204.812 26.44ZM227.523 17.72V24.6C228.603 20.48 231.763 17.6 235.563 17.6C236.843 17.6 238.163 17.92 238.923 18.4L238.003 23.72C237.643 20.76 236.163 19.08 233.923 19.08C230.523 19.08 227.523 23.12 227.523 27.72V35.44C227.523 36.84 228.203 37.56 229.523 37.6V38C228.163 37.92 227.283 37.84 225.763 37.84C224.203 37.84 223.323 37.92 221.923 38V37.6C223.243 37.56 223.923 36.84 223.923 35.44V21.24C223.923 19.36 223.243 18.4 221.923 18.4V18C222.643 18.04 223.323 18.08 224.003 18.08C225.283 18.08 226.563 18 227.523 17.72Z" fill="white"/>
<path d="M17.4346 0C7.82067 0 0 7.82067 0 17.4346V42.8394H34.8692V17.4346C34.8692 7.82067 27.0486 0 17.4346 0ZM21.7758 40.8468H13.0959V25.8929H21.7758V40.8468ZM32.8767 40.8468H23.7684V23.9004H11.1034V40.8468H1.99253V17.4346C1.99253 9.25529 8.38605 2.54296 16.4384 2.0274V6.4259C13.0137 6.89166 10.3761 9.82565 10.3761 13.3773H24.411C24.411 9.85305 21.8157 6.93898 18.4309 6.43587V2.0274C26.4832 2.54296 32.8767 9.25529 32.8767 17.4346V40.8468Z" fill="white"/>
<path d="M23.354 47.4197H11.1797V49.4122H23.354V47.4197Z" fill="white"/>
<path d="M27.0916 54.0076H7.44531V56.0001H27.0916V54.0076Z" fill="white"/>
<path d="M17.9338 15.0586H16.9375V18.5605H17.9338V15.0586Z" fill="white"/>
<path d="M20.7282 14.7618L19.9258 15.3523L22.0944 18.2991L22.8968 17.7086L20.7282 14.7618Z" fill="white"/>
<path d="M14.1413 14.7595L11.9727 17.7063L12.7751 18.2968L14.9437 15.35L14.1413 14.7595Z" fill="white"/>
</svg>
