<svg width="274" height="64" viewBox="0 0 274 64" fill="none" xmlns="http://www.w3.org/2000/svg">
<path d="M74.7355 11.3373H75.9241L88.1298 40.183C88.907 42.0573 90.0955 42.9716 91.7413 42.9716V43.4287C89.9127 43.3373 88.8613 43.2459 86.8498 43.2459C84.8841 43.2459 83.5584 43.3373 81.7298 43.4287V42.9716C83.147 42.9716 83.8327 42.5144 83.8327 41.5544C83.8327 41.143 83.7413 40.6859 83.5127 40.183L80.1755 32.3659H66.507L63.2155 40.183C63.0784 40.5487 62.987 40.8687 62.987 41.1887C62.987 42.0573 63.5813 42.6516 64.8155 42.9716V43.4287C63.7184 43.3373 63.0784 43.2459 61.8441 43.2459C60.7013 43.2459 60.107 43.3373 58.9184 43.4287V42.9716C60.7013 42.5144 61.8898 41.6001 62.4841 40.183L74.7355 11.3373ZM66.827 31.6801H79.9013L73.3641 16.2744L66.827 31.6801ZM97.6441 27.5201C97.6441 31.4973 99.8841 34.5601 102.764 34.5601C105.69 34.5601 107.93 31.4516 107.93 27.5201C107.93 23.5887 105.69 20.5716 102.764 20.5716C99.8841 20.5716 97.6441 23.543 97.6441 27.5201ZM96.4098 41.6459L95.8155 42.5144C94.1241 44.983 94.3984 47.5887 96.5927 49.0973C98.0555 50.1487 100.387 50.6973 102.718 50.6973C103.587 50.6973 104.456 50.6059 105.278 50.4687C109.073 49.7373 112.364 47.223 112.41 45.0287C112.456 43.9316 111.633 43.2459 109.804 42.9716C106.056 42.423 99.9298 42.6059 96.4098 41.6459ZM95.4041 35.2459L96.867 33.6001C94.627 32.3201 93.3012 30.1716 93.3012 27.5201C93.3012 23.0401 97.0498 20.1144 102.81 20.1144C107.701 20.1144 110.17 18.743 110.17 16.2744L113.69 18.4687C113.69 20.0687 110.353 20.4801 106.421 20.5259C110.078 21.4859 112.273 24.0001 112.273 27.4744C112.273 32.0001 108.478 35.0173 102.81 35.0173C100.661 35.0173 98.8327 34.6059 97.3241 33.8744L96.2727 35.1087C95.1755 36.3887 95.6327 37.2573 97.5527 37.7601C101.118 38.7201 105.964 37.8973 110.307 38.9487C112.776 39.4973 114.01 40.8687 114.01 42.8801C114.01 47.8173 106.878 52.5716 99.4727 52.5716C94.9927 52.5716 92.067 50.7887 92.067 48.0459C92.067 46.8116 92.6612 45.6687 94.4898 43.2459L95.8612 41.5087C95.4498 41.3716 95.1298 41.1887 94.8098 41.0059C92.9355 39.863 93.2098 37.7601 95.4041 35.2459ZM115.836 32.0001C115.836 24.8687 120.271 20.1144 126.853 20.1144C133.208 20.1144 137.459 24.503 137.459 30.903H120.133C120.225 38.0801 123.562 42.8801 128.773 42.8801C132.202 42.8801 135.311 40.7773 137.139 37.2116L137.551 37.7601C135.585 41.6459 131.882 43.8859 127.173 43.8859C120.362 43.8859 115.836 39.1773 115.836 32.0001ZM120.133 30.2173H133.391C133.162 24.5487 130.419 20.663 126.762 20.663C123.059 20.663 120.271 24.6859 120.133 30.2173ZM146.088 20.2516V28.1144C147.323 23.4059 150.98 20.1144 155.506 20.1144C162.271 20.1144 162.546 26.3773 162.546 31.4516V40.503C162.546 42.103 163.323 42.9259 164.831 42.9716V43.4287C163.186 43.3373 162.18 43.2459 160.397 43.2459C158.66 43.2459 157.7 43.3373 156.146 43.4287V42.9716C157.654 42.9259 158.431 42.1487 158.431 40.5487V31.543C158.431 27.7944 158.386 26.5144 157.883 25.0973C157.106 22.6744 155.597 21.2573 153.631 21.2573C149.883 21.2573 146.088 26.2401 146.088 31.6801V40.503C146.088 42.103 146.866 42.9259 148.374 42.9716V43.4287C146.82 43.3373 145.768 43.2459 144.031 43.2459C142.248 43.2459 141.243 43.3373 139.688 43.4287V42.9716C141.197 42.9259 141.974 42.103 141.974 40.503V24.2744C141.974 22.1259 141.197 21.0287 139.688 21.0287V20.5716C140.511 20.6173 141.334 20.663 142.111 20.663C143.528 20.663 145.037 20.5716 146.088 20.2516Z" fill="#333333"/>
<path d="M167.79 43.4287V42.9716C169.299 42.9259 170.076 42.103 170.076 40.503V14.3087C170.076 12.7087 169.344 11.8859 167.882 11.8859H167.79V11.4287C168.659 11.4744 171.264 11.5201 173.139 11.5201C175.104 11.5201 177.162 11.4287 178.624 11.4287C186.487 11.4287 190.876 14.1259 190.876 18.9716C190.876 22.9944 187.722 26.2401 183.15 27.4287C186.899 28.343 188.499 32.5487 189.55 35.8401C190.51 38.6744 190.693 40.503 191.79 41.4173C192.156 41.7373 192.522 41.8744 192.933 41.8744C193.619 41.8744 194.35 41.4173 194.944 40.4573L195.082 41.143C194.122 42.8801 192.613 43.8859 190.739 43.9316C187.219 43.9773 186.076 40.3201 185.344 37.5316C184.704 35.0173 183.882 33.0973 182.739 31.3144C181.23 28.8459 179.859 27.8859 177.984 27.8859H174.419V40.503C174.419 42.103 175.196 42.9259 176.704 42.9716V43.4287C174.922 43.3373 173.87 43.2459 172.087 43.2459C170.259 43.2459 169.253 43.3373 167.79 43.4287ZM174.419 27.2001H178.807C182.83 27.2001 186.304 23.3601 186.304 18.9259C186.304 14.7659 183.287 12.1144 178.579 12.1144H175.607C174.83 12.1144 174.419 12.5259 174.419 13.303V27.2001ZM198.144 16.0001C198.144 14.7201 199.287 13.7144 200.704 13.7144C202.122 13.7144 203.264 14.7201 203.264 16.0001C203.264 17.2801 202.122 18.2859 200.704 18.2859C199.287 18.2859 198.144 17.2801 198.144 16.0001ZM202.762 20.2516V40.503C202.762 42.103 203.539 42.9259 205.047 42.9716V43.4287C203.493 43.3373 202.487 43.2459 200.75 43.2459C198.967 43.2459 197.962 43.3373 196.362 43.4287V42.9716C197.87 42.9259 198.647 42.103 198.647 40.503V24.2744C198.647 22.1259 197.87 21.0287 196.362 21.0287V20.5716C197.184 20.6173 197.962 20.663 198.739 20.663C200.202 20.663 201.664 20.5716 202.762 20.2516ZM216.874 43.5201L208.554 23.543C207.868 21.8516 206.954 21.0287 205.811 21.0287V20.5716C207.365 20.663 208.234 20.7544 210.017 20.7544C211.845 20.7544 212.668 20.663 213.582 20.5716V21.0287C212.942 21.0287 212.622 21.3487 212.622 21.943C212.622 22.3544 212.759 22.8573 213.034 23.543L219.342 38.6744L225.697 23.543C225.834 23.223 225.879 22.903 225.879 22.6287C225.879 21.8973 225.377 21.3487 224.417 21.0287V20.5716C225.377 20.663 225.925 20.7544 227.022 20.7544C228.119 20.7544 228.668 20.663 229.582 20.5716V21.0287C227.982 21.4859 226.931 22.3087 226.428 23.543L218.062 43.5201H216.874ZM229.774 32.0001C229.774 24.8687 234.208 20.1144 240.791 20.1144C247.145 20.1144 251.397 24.503 251.397 30.903H234.071C234.162 38.0801 237.499 42.8801 242.711 42.8801C246.139 42.8801 249.248 40.7773 251.077 37.2116L251.488 37.7601C249.522 41.6459 245.819 43.8859 241.111 43.8859C234.299 43.8859 229.774 39.1773 229.774 32.0001ZM234.071 30.2173H247.328C247.099 24.5487 244.357 20.663 240.699 20.663C236.997 20.663 234.208 24.6859 234.071 30.2173ZM260.026 20.2516V28.1144C261.26 23.4059 264.872 20.1144 269.214 20.1144C270.677 20.1144 272.186 20.4801 273.054 21.0287L272.003 27.1087C271.592 23.7259 269.9 21.8059 267.34 21.8059C263.454 21.8059 260.026 26.423 260.026 31.6801V40.503C260.026 42.103 260.803 42.9259 262.312 42.9716V43.4287C260.757 43.3373 259.752 43.2459 258.014 43.2459C256.232 43.2459 255.226 43.3373 253.626 43.4287V42.9716C255.134 42.9259 255.912 42.103 255.912 40.503V24.2744C255.912 22.1259 255.134 21.0287 253.626 21.0287V20.5716C254.449 20.6173 255.226 20.663 256.003 20.663C257.466 20.663 258.929 20.5716 260.026 20.2516Z" fill="#B19F6F"/>
<path d="M19.9253 0C8.93791 0 0 8.93791 0 19.9253V48.9593H39.8506V19.9253C39.8506 8.93791 30.9127 0 19.9253 0ZM24.8867 46.6821H14.9667V29.5919H24.8867V46.6821ZM37.5734 46.6821H27.1639V27.3147H12.6896V46.6821H2.27718V19.9253C2.27718 10.5775 9.58406 2.90625 18.7867 2.31703V7.34389C14.8728 7.87618 11.8584 11.2293 11.8584 15.2884H27.8982C27.8982 11.2606 24.9322 7.93026 21.0639 7.35528V2.31703C30.2665 2.90625 37.5734 10.5775 37.5734 19.9253V46.6821Z" fill="#333333"/>
<path d="M26.6909 54.1943H12.7773V56.4715H26.6909V54.1943Z" fill="#B19F6F"/>
<path d="M30.9608 61.7227H8.50781V63.9998H30.9608V61.7227Z" fill="#333333"/>
<path d="M20.4941 17.21H19.3555V21.2121H20.4941V17.21Z" fill="#B19F6F"/>
<path d="M23.6905 16.8706L22.7734 17.5454L25.2519 20.9132L26.1689 20.2383L23.6905 16.8706Z" fill="#B19F6F"/>
<path d="M16.162 16.8676L13.6836 20.2354L14.6006 20.9102L17.079 17.5424L16.162 16.8676Z" fill="#B19F6F"/>
</svg>
