<svg width="185" height="36" viewBox="0 0 185 36" fill="none" xmlns="http://www.w3.org/2000/svg">
<path d="M111.294 22.5051C111.653 22.4033 112.008 22.2803 112.35 22.1446C116.335 20.5459 119.163 16.6572 119.218 12.0985C119.286 6.00462 114.14 1.01758 108.073 1.01758H96.2109V6.57287H108.246C110.328 6.57287 112.303 7.70513 113.194 9.59647C113.359 9.94845 113.489 10.3174 113.578 10.7075C113.768 11.526 113.781 12.4123 113.544 13.3325C112.983 15.5207 111.092 17.1788 108.854 17.4205C107.689 17.5477 106.587 17.306 105.654 16.8014C105.186 16.5469 104.776 16.2077 104.401 15.8303L104.008 15.4359C103.801 15.1857 103.62 14.9143 103.463 14.6302L107.368 10.7075H96.2194V21.9072L99.491 18.6206L102.856 22.0005L111.092 30.6981H119.21L111.303 22.5009L111.294 22.5051Z" fill="#FB995A"/>
<path d="M9.82339 1.07812H16.7297L26.4771 28.0616H20.3011L18.2284 22.1628H8.02081L5.94807 28.0616H0L9.82339 1.07812ZM16.6537 17.5023L13.0866 7.24831L9.55743 17.5023H16.658H16.6537Z" fill="#1E1E1E"/>
<path d="M47.3114 27.484C47.3114 30.0793 46.4544 32.1488 44.7405 33.6881C43.0266 35.2317 40.367 35.9993 36.7577 35.9993C33.9715 35.9993 31.7172 35.3844 30.0033 34.1504C28.2894 32.9163 27.3691 31.1692 27.2425 28.9089H32.6924C32.9499 29.8588 33.4523 30.5924 34.2079 31.1056C34.9635 31.6187 35.9556 31.8774 37.1798 31.8774C38.7164 31.8774 39.9027 31.4915 40.747 30.7197C41.5913 29.9478 42.0134 28.8071 42.0134 27.2889V25.2068C40.5823 27.0303 38.5476 27.942 35.9134 27.942C34.1741 27.942 32.6122 27.5307 31.2318 26.708C29.8513 25.8853 28.7706 24.7233 27.9897 23.2179C27.2087 21.7125 26.8203 19.9611 26.8203 17.9552C26.8203 15.9494 27.2087 14.2277 27.9897 12.7137C28.7706 11.1998 29.8556 10.0294 31.2529 9.20669C32.646 8.384 34.2121 7.97266 35.9514 7.97266C38.5349 7.97266 40.5823 8.97346 42.0894 10.9793L42.5496 8.24406H47.3072V27.4798L47.3114 27.484ZM41.9754 18.04C41.9754 16.3692 41.5406 15.0079 40.671 13.9563C39.8014 12.9046 38.6362 12.3745 37.1798 12.3745C35.7234 12.3745 34.5498 12.8961 33.6676 13.935C32.7853 14.974 32.342 16.331 32.342 18.0019C32.342 19.6727 32.7853 21.0212 33.6676 22.0475C34.5498 23.0737 35.7192 23.5911 37.1798 23.5911C38.6405 23.5911 39.8014 23.078 40.671 22.0475C41.5406 21.0212 41.9754 19.6812 41.9754 18.04Z" fill="#1E1E1E"/>
<path d="M55.0484 9.27053C56.5428 8.43512 58.2778 8.01953 60.2492 8.01953C62.2207 8.01953 64.0021 8.40967 65.5261 9.1942C67.05 9.97872 68.2363 11.0813 69.0932 12.5104C69.9502 13.9395 70.3935 15.6146 70.4188 17.5399C70.4188 18.2353 70.3681 18.8502 70.2668 19.3888H55.956V19.5415C56.0826 20.979 56.5428 22.1113 57.3364 22.934C58.1301 23.7567 59.215 24.168 60.5996 24.168C61.7014 24.168 62.6133 23.9306 63.3436 23.4556C64.0739 22.9806 64.5509 22.2809 64.7831 21.3565H70.1148C69.9122 22.6668 69.4099 23.85 68.6204 24.9017C67.831 25.9534 66.7799 26.7845 65.4754 27.3867C64.171 27.9889 62.6724 28.2942 60.988 28.2942C58.7886 28.2942 56.8889 27.8829 55.289 27.0602C53.6891 26.2375 52.4606 25.0628 51.6036 23.5319C50.7467 22.001 50.3203 20.2242 50.3203 18.1929C50.3203 16.1616 50.734 14.3424 51.5657 12.8157C52.3973 11.2849 53.5624 10.1059 55.0568 9.27053H55.0484ZM63.5293 13.049C62.723 12.3917 61.7056 12.0651 60.4772 12.0651C59.2487 12.0651 58.3074 12.4044 57.5053 13.0871C56.7032 13.7699 56.2219 14.6859 56.0657 15.8436H65.0069C64.8295 14.635 64.3356 13.7063 63.5293 13.049Z" fill="#1E1E1E"/>
<path d="M92.596 17.3066V28.061H87.1841V17.6162C87.1841 14.1982 85.8543 12.4892 83.1948 12.4892C81.789 12.4892 80.6999 12.9642 79.9316 13.9141C79.1633 14.864 78.7791 16.1998 78.7791 17.9215V28.061H73.3672V8.24853H78.0868L78.5849 10.7166C79.2773 9.86847 80.1089 9.20692 81.0798 8.73197C82.0508 8.25701 83.2539 8.01953 84.685 8.01953C86.9857 8.01953 88.8811 8.74045 90.3629 10.178C91.8446 11.6156 92.5876 13.9946 92.5876 17.3109L92.596 17.3066Z" fill="#1E1E1E"/>
<path d="M127.327 3.04481C127.327 3.91839 127.031 4.65202 126.444 5.24148C125.857 5.83093 125.114 6.12778 124.22 6.12778C123.325 6.12778 122.577 5.83093 121.974 5.24148C121.374 4.65202 121.07 3.91839 121.07 3.04481C121.07 2.17123 121.37 1.44607 121.974 0.865098C122.573 0.288366 123.325 0 124.22 0C125.114 0 125.857 0.288366 126.444 0.865098C127.031 1.44183 127.327 2.17123 127.327 3.04481ZM126.904 8.24812V28.0606H121.492V8.24812H126.904Z" fill="#FB995A"/>
<path d="M134.535 8.24609L139.292 22.5075L143.974 8.24609H149.652L142.551 28.0585H135.835L128.734 8.24609H134.53H134.535Z" fill="#FB995A"/>
<path d="M154.666 9.27053C156.16 8.43512 157.895 8.01953 159.866 8.01953C161.838 8.01953 163.619 8.40967 165.143 9.1942C166.667 9.97872 167.853 11.0813 168.71 12.5104C169.567 13.9395 170.011 15.6146 170.036 17.5399C170.036 18.2353 169.985 18.8502 169.884 19.3888H155.573V19.5415C155.7 20.979 156.16 22.1113 156.954 22.934C157.747 23.7567 158.832 24.168 160.217 24.168C161.319 24.168 162.23 23.9306 162.961 23.4556C163.691 22.9806 164.168 22.2809 164.4 21.3565H169.732C169.525 22.6668 169.027 23.85 168.238 24.9017C167.444 25.9534 166.397 26.7845 165.093 27.3867C163.788 27.9889 162.29 28.2942 160.605 28.2942C158.406 28.2942 156.506 27.8829 154.906 27.0602C153.306 26.2375 152.078 25.0628 151.221 23.5319C150.364 22.001 149.938 20.2242 149.938 18.1929C149.938 16.1616 150.355 14.3424 151.183 12.8157C152.014 11.2849 153.18 10.1059 154.674 9.27053H154.666ZM163.147 13.049C162.34 12.3917 161.323 12.0651 160.094 12.0651C158.866 12.0651 157.925 12.4044 157.122 13.0871C156.316 13.7699 155.839 14.6859 155.683 15.8436H164.624C164.447 14.635 163.953 13.7063 163.147 13.049Z" fill="#FB995A"/>
<path d="M185.002 13.1822H182.854C181.317 13.1822 180.194 13.6445 179.476 14.5689C178.759 15.4934 178.404 16.7529 178.404 18.3474V28.0628H172.992V8.24609H177.902L178.4 11.2146C178.987 10.2392 179.717 9.50133 180.587 8.99669C181.456 8.49629 182.621 8.24609 184.078 8.24609H184.998V13.178L185.002 13.1822Z" fill="#FB995A"/>
</svg>
