<svg width="206" height="40" viewBox="0 0 206 40" fill="none" xmlns="http://www.w3.org/2000/svg">
<path d="M123.666 25.0063C124.065 24.8933 124.459 24.7566 124.839 24.6058C129.266 22.8294 132.409 18.5086 132.47 13.4432C132.545 6.67212 126.827 1.13086 120.087 1.13086H106.906V7.30352H120.279C122.592 7.30352 124.787 8.56162 125.777 10.6631C125.96 11.0542 126.105 11.4642 126.203 11.8977C126.415 12.8071 126.429 13.7919 126.166 14.8144C125.542 17.2458 123.441 19.0881 120.955 19.3567C119.66 19.4981 118.436 19.2295 117.399 18.6688C116.879 18.386 116.424 18.0091 116.006 17.5897L115.57 17.1515C115.34 16.8735 115.138 16.5719 114.965 16.2562L119.304 11.8977H106.916V24.342L110.551 20.6902L114.289 24.4456L123.441 34.1098H132.461L123.675 25.0016L123.666 25.0063Z" fill="#F05757"/>
<path d="M10.9151 1.19727H18.589L29.4196 31.1794H22.5572L20.2541 24.6251H8.91219L6.60909 31.1794H0L10.9151 1.19727ZM18.5045 19.4467L14.5409 8.05316L10.6196 19.4467H18.5092H18.5045Z" fill="#212326"/>
<path d="M52.573 30.5391C52.573 33.4228 51.6208 35.7222 49.7164 37.4327C47.812 39.1478 44.8569 40.0007 40.8464 40.0007C37.7506 40.0007 35.2458 39.3175 33.3414 37.9463C31.437 36.5751 30.4145 34.6338 30.2738 32.1223H36.3293C36.6155 33.1778 37.1737 33.993 38.0133 34.5631C38.8529 35.1332 39.9552 35.4207 41.3155 35.4207C43.0229 35.4207 44.3409 34.9919 45.2791 34.1343C46.2172 33.2767 46.6863 32.0092 46.6863 30.3223V28.0088C45.0961 30.0349 42.8352 31.048 39.9083 31.048C37.9758 31.048 36.2402 30.5909 34.7064 29.6768C33.1726 28.7627 31.9718 27.4716 31.104 25.7989C30.2362 24.1261 29.8047 22.1801 29.8047 19.9513C29.8047 17.7226 30.2362 15.8095 31.104 14.1273C31.9718 12.4452 33.1772 11.1447 34.7298 10.2306C36.2778 9.31643 38.018 8.85938 39.9505 8.85938C42.8212 8.85938 45.0961 9.9714 46.7707 12.2002L47.282 9.16094H52.5683V30.5344L52.573 30.5391ZM46.644 20.0456C46.644 18.1891 46.1609 16.6765 45.1946 15.5079C44.2284 14.3394 42.9338 13.7504 41.3155 13.7504C39.6972 13.7504 38.3932 14.33 37.4129 15.4844C36.4325 16.6388 35.94 18.1466 35.94 20.0032C35.94 21.8597 36.4325 23.3581 37.4129 24.4984C38.3932 25.6387 39.6925 26.2135 41.3155 26.2135C42.9384 26.2135 44.2284 25.6434 45.1946 24.4984C46.1609 23.3581 46.644 21.8691 46.644 20.0456Z" fill="#212326"/>
<path d="M61.1676 10.3002C62.828 9.37193 64.7559 8.91016 66.9464 8.91016C69.1369 8.91016 71.1164 9.34366 72.8097 10.2154C74.503 11.0871 75.8211 12.3122 76.7733 13.9001C77.7255 15.488 78.218 17.3493 78.2461 19.4885C78.2461 20.2613 78.1899 20.9445 78.0773 21.5429H62.1761V21.7125C62.3168 23.3099 62.8281 24.568 63.7099 25.4821C64.5917 26.3962 65.7972 26.8533 67.3357 26.8533C68.56 26.8533 69.5732 26.5894 70.3847 26.0617C71.1961 25.5339 71.7262 24.7565 71.9842 23.7293H77.9084C77.6833 25.1853 77.1251 26.4999 76.2479 27.6685C75.3708 28.837 74.2028 29.7606 72.7534 30.4297C71.304 31.0988 69.6388 31.438 67.7673 31.438C65.3235 31.438 63.2127 30.981 61.4349 30.0668C59.6572 29.1527 58.2922 27.8475 57.34 26.1465C56.3878 24.4455 55.9141 22.4712 55.9141 20.2141C55.9141 17.9571 56.3737 15.9357 57.2978 14.2394C58.2219 12.5384 59.5165 11.2284 61.1769 10.3002H61.1676ZM70.591 14.4985C69.6951 13.7682 68.5647 13.4054 67.1997 13.4054C65.8347 13.4054 64.7887 13.7823 63.8975 14.5409C63.0063 15.2996 62.4716 16.3174 62.298 17.6037H72.2328C72.0358 16.2608 71.4869 15.2289 70.591 14.4985Z" fill="#212326"/>
<path d="M102.889 19.2293V31.1789H96.8759V19.5733C96.8759 15.7755 95.3983 13.8766 92.4432 13.8766C90.8812 13.8766 89.6711 14.4043 88.8174 15.4598C87.9637 16.5153 87.5368 17.9995 87.5368 19.9126V31.1789H81.5234V9.1646H86.7676L87.3211 11.907C88.0903 10.9646 89.0144 10.2295 90.0932 9.70177C91.1721 9.17403 92.5089 8.91016 94.099 8.91016C96.6554 8.91016 98.7615 9.71119 100.408 11.3085C102.054 12.9059 102.88 15.5493 102.88 19.2341L102.889 19.2293Z" fill="#212326"/>
<path d="M141.475 3.38319C141.475 4.35385 141.147 5.16902 140.495 5.82398C139.843 6.47894 139.017 6.80878 138.023 6.80878C137.028 6.80878 136.198 6.47894 135.527 5.82398C134.861 5.16902 134.523 4.35385 134.523 3.38319C134.523 2.41252 134.856 1.60678 135.527 0.961239C136.193 0.320413 137.028 0 138.023 0C139.017 0 139.843 0.320413 140.495 0.961239C141.147 1.60207 141.475 2.41252 141.475 3.38319ZM141.006 9.16476V31.179H134.993V9.16476H141.006Z" fill="#212326"/>
<path d="M149.484 9.16211L154.77 25.0084L159.972 9.16211H166.281L158.391 31.1764H150.929L143.039 9.16211H149.479H149.484Z" fill="#212326"/>
<path d="M171.855 10.3002C173.516 9.37193 175.443 8.91016 177.634 8.91016C179.824 8.91016 181.804 9.34366 183.497 10.2154C185.191 11.0871 186.509 12.3122 187.461 13.9001C188.413 15.488 188.906 17.3493 188.934 19.4885C188.934 20.2613 188.877 20.9445 188.765 21.5429H172.864V21.7125C173.004 23.3099 173.516 24.568 174.397 25.4821C175.279 26.3962 176.485 26.8533 178.023 26.8533C179.247 26.8533 180.261 26.5894 181.072 26.0617C181.884 25.5339 182.414 24.7565 182.672 23.7293H188.596C188.366 25.1853 187.813 26.4999 186.935 27.6685C186.054 28.837 184.89 29.7606 183.441 30.4297C181.992 31.0988 180.326 31.438 178.455 31.438C176.011 31.438 173.9 30.981 172.122 30.0668C170.345 29.1527 168.98 27.8475 168.028 26.1465C167.075 24.4455 166.602 22.4712 166.602 20.2141C166.602 17.9571 167.066 15.9357 167.985 14.2394C168.909 12.5384 170.204 11.2284 171.864 10.3002H171.855ZM181.279 14.4985C180.383 13.7682 179.252 13.4054 177.887 13.4054C176.522 13.4054 175.476 13.7823 174.585 14.5409C173.689 15.2996 173.159 16.3174 172.986 17.6037H182.92C182.723 16.2608 182.174 15.2289 181.279 14.4985Z" fill="#212326"/>
<path d="M205.564 14.6468H203.176C201.469 14.6468 200.221 15.1604 199.424 16.1876C198.626 17.2148 198.232 18.6143 198.232 20.386V31.1811H192.219V9.16211H197.674L198.227 12.4605C198.879 11.3767 199.691 10.5568 200.657 9.99613C201.623 9.44011 202.918 9.16211 204.536 9.16211H205.559V14.6421L205.564 14.6468Z" fill="#212326"/>
</svg>
