<svg width="249" height="52" viewBox="0 0 249 52" fill="none" xmlns="http://www.w3.org/2000/svg">
<path d="M70.2452 40C69.9722 40 69.7772 39.844 69.7772 39.571C69.7772 39.259 70.0112 39.064 70.3232 38.869C70.6742 38.635 71.2592 38.128 71.5712 37.387L80.8142 14.26C81.0092 13.753 81.3992 13.48 81.9062 13.48H83.1932C83.7002 13.48 84.0512 13.753 84.2462 14.26L93.4502 37.387C93.7232 38.128 94.3862 38.635 94.7372 38.869C95.0492 39.064 95.2052 39.259 95.2052 39.532C95.2052 39.805 95.0102 40 94.6982 40H88.9652C88.6922 40 88.4972 39.844 88.4972 39.532C88.4972 39.22 88.6922 39.064 89.0432 38.791C89.3942 38.518 89.7452 38.05 89.4332 37.231L87.1322 31.147H75.1592L73.1312 36.646C72.7022 37.855 73.4822 38.362 74.2232 38.83C74.5742 39.064 74.8082 39.22 74.8082 39.532C74.8082 39.844 74.6132 40 74.3402 40H70.2452ZM75.4322 30.445H86.8592L81.0872 15.157L75.4322 30.445ZM104.987 47.41C100.502 47.41 96.9529 45.46 96.9529 42.925C96.9529 41.755 97.6939 41.131 98.7079 41.131C99.8389 41.131 100.385 41.95 100.697 42.964C101.243 44.836 102.023 46.981 105.065 46.981C108.575 46.981 110.915 44.485 110.915 40V36.217C109.355 38.362 107.054 39.532 104.246 39.532C99.0979 39.532 95.7049 35.632 95.7049 29.704C95.7049 23.659 99.2929 19.72 104.831 19.72C107.561 19.72 109.745 20.656 111.5 22.528C111.89 22.06 112.163 21.592 112.397 21.163C112.787 20.422 113.06 19.915 113.645 19.915C114.113 19.915 114.347 20.227 114.347 20.734V39.259C114.347 44.407 110.681 47.41 104.987 47.41ZM99.1369 28.456C99.1369 33.253 101.789 38.167 106.001 38.167C108.068 38.167 109.823 37.036 110.915 35.281V25.375C109.901 22.528 107.756 20.149 104.987 20.149C101.555 20.149 99.1369 23.737 99.1369 28.456ZM127.775 40.39C121.964 40.39 117.908 36.412 117.908 30.055C117.908 23.971 121.847 19.72 127.892 19.72C132.338 19.72 135.302 21.982 135.302 25.297C135.302 29.392 130.817 31.03 121.535 31.108C122.237 35.203 124.811 38.44 128.984 38.44C132.689 38.44 134.483 36.1 135.029 35.32C135.185 35.086 135.302 34.969 135.419 34.969C135.536 34.969 135.614 35.047 135.614 35.398C135.614 37.114 133.157 40.39 127.775 40.39ZM121.34 28.69C121.34 29.353 121.379 30.016 121.457 30.64C129.179 30.523 131.909 28.729 131.909 25.18C131.909 22.177 130.232 20.149 127.619 20.149C123.914 20.149 121.34 23.893 121.34 28.69ZM152.914 40C152.641 40 152.485 39.883 152.485 39.61C152.485 39.415 152.641 39.259 152.797 39.103C153.07 38.83 153.343 38.557 153.343 37.894V25.375C153.343 22.879 151.627 21.241 149.092 21.241C146.674 21.241 144.412 22.684 143.125 24.946V37.894C143.125 38.557 143.398 38.83 143.671 39.103C143.827 39.259 143.983 39.415 143.983 39.61C143.983 39.883 143.827 40 143.554 40H139.264C138.991 40 138.835 39.883 138.835 39.61C138.835 39.415 138.991 39.259 139.147 39.103C139.42 38.83 139.693 38.557 139.693 37.894V22.333C139.693 21.748 139.42 21.475 139.147 21.202C138.913 20.968 138.757 20.812 138.757 20.578C138.757 20.266 138.952 20.11 139.225 20.11H141.838C142.618 20.11 143.125 20.656 143.125 21.475V24.088C144.763 21.436 147.493 19.72 150.496 19.72C154.201 19.72 156.775 22.021 156.775 25.765V37.894C156.775 38.557 157.048 38.83 157.321 39.103C157.477 39.259 157.633 39.415 157.633 39.61C157.633 39.883 157.477 40 157.204 40H152.914Z" fill="#1E2F22"/>
<path d="M162.164 40C161.891 40 161.696 39.844 161.696 39.571C161.696 39.337 161.813 39.22 162.086 38.986C162.359 38.752 162.749 38.401 162.749 37.504V15.976C162.749 15.079 162.359 14.728 162.086 14.494C161.813 14.26 161.696 14.143 161.696 13.909C161.696 13.636 161.891 13.48 162.164 13.48H174.488C179.675 13.48 183.068 16.444 183.068 21.046C183.068 25.102 180.416 27.91 175.931 28.534L182.093 36.919C183.107 38.284 183.614 38.674 184.121 38.83C184.55 38.947 184.784 39.064 184.784 39.376C184.784 39.883 184.082 40.39 182.795 40.39C181.118 40.39 179.441 39.532 178.232 37.816L171.641 28.69H166.415V37.504C166.415 38.401 166.805 38.752 167.078 38.986C167.351 39.22 167.468 39.337 167.468 39.571C167.468 39.844 167.273 40 167 40H162.164ZM166.415 28.066H173.084C177.374 28.066 179.402 25.414 179.402 21.709C179.402 18.121 177.374 14.104 173.435 14.104H166.415V28.066ZM187.519 40C187.246 40 187.09 39.883 187.09 39.61C187.09 39.415 187.246 39.259 187.402 39.103C187.675 38.83 187.948 38.557 187.948 37.894V22.333C187.948 21.748 187.675 21.475 187.402 21.202C187.168 20.968 187.012 20.812 187.012 20.578C187.012 20.266 187.207 20.11 187.48 20.11H190.093C190.873 20.11 191.38 20.656 191.38 21.475V37.894C191.38 38.557 191.653 38.83 191.926 39.103C192.082 39.259 192.238 39.415 192.238 39.61C192.238 39.883 192.082 40 191.809 40H187.519ZM187.246 14.728C187.246 13.402 188.143 12.505 189.508 12.505C190.873 12.505 191.77 13.402 191.77 14.728C191.77 16.054 190.873 16.951 189.508 16.951C188.143 16.951 187.246 16.054 187.246 14.728ZM203.918 40C203.411 40 203.099 39.805 202.904 39.337L195.923 22.684C195.611 21.943 195.299 21.592 194.831 21.28C194.48 21.046 194.246 20.89 194.246 20.578C194.246 20.266 194.441 20.11 194.714 20.11H200.135C200.408 20.11 200.564 20.266 200.564 20.539C200.564 20.812 200.408 20.929 200.096 21.163C199.667 21.475 199.355 21.904 199.667 22.645L205.751 37.933L211.367 23.386C211.913 21.943 211.133 21.514 210.431 21.163C210.08 20.968 209.885 20.851 209.885 20.539C209.885 20.266 210.08 20.11 210.314 20.11H214.097C214.331 20.11 214.487 20.266 214.487 20.539C214.487 20.851 214.214 21.046 213.824 21.28C213.317 21.592 213.083 21.943 212.771 22.684L205.751 39.337C205.556 39.805 205.244 40 204.776 40H203.918ZM224.704 40.39C218.893 40.39 214.837 36.412 214.837 30.055C214.837 23.971 218.776 19.72 224.821 19.72C229.267 19.72 232.231 21.982 232.231 25.297C232.231 29.392 227.746 31.03 218.464 31.108C219.166 35.203 221.74 38.44 225.913 38.44C229.618 38.44 231.412 36.1 231.958 35.32C232.114 35.086 232.231 34.969 232.348 34.969C232.465 34.969 232.543 35.047 232.543 35.398C232.543 37.114 230.086 40.39 224.704 40.39ZM218.269 28.69C218.269 29.353 218.308 30.016 218.386 30.64C226.108 30.523 228.838 28.729 228.838 25.18C228.838 22.177 227.161 20.149 224.548 20.149C220.843 20.149 218.269 23.893 218.269 28.69ZM236.192 40C235.919 40 235.763 39.883 235.763 39.61C235.763 39.415 235.919 39.259 236.075 39.103C236.348 38.83 236.621 38.557 236.621 37.894V22.333C236.621 21.748 236.348 21.475 236.075 21.202C235.841 20.968 235.685 20.812 235.685 20.578C235.685 20.266 235.88 20.11 236.153 20.11H238.766C239.546 20.11 240.053 20.656 240.053 21.475V24.322C241.184 21.436 243.251 19.72 245.591 19.72C247.307 19.72 248.399 20.617 248.399 21.904C248.399 22.996 247.58 23.776 246.293 23.776C245.786 23.776 245.162 23.659 244.577 23.191C244.031 22.762 243.563 22.45 242.9 22.45C241.808 22.45 240.755 23.308 240.053 25.531V37.894C240.053 38.518 240.326 38.752 240.638 38.986C240.989 39.22 241.223 39.376 241.223 39.61C241.223 39.883 241.067 40 240.794 40H236.192Z" fill="#BF9156"/>
<path fill-rule="evenodd" clip-rule="evenodd" d="M13.1248 15.1686C11.7609 18.0507 10.998 21.2725 10.998 24.6722C10.998 26.0566 11.1247 27.4115 11.367 28.726L16.7824 30.7998L26.9094 22.3799L19.4208 17.7576C18.4226 18.4177 17.5365 18.7775 17.3918 18.5696C17.2652 18.3869 17.7517 17.8209 18.5311 17.2097L14.1729 14.5188C14.1629 14.5251 14.1534 14.5319 14.1439 14.5387C14.1344 14.5454 14.125 14.5522 14.115 14.5586C13.7682 14.7989 13.4297 15.0058 13.1248 15.1686ZM18.537 7.98135C21.9566 9.10292 25.7017 10.3428 29.141 11.4861C29.7287 11.0792 30.2188 10.741 30.2188 10.741L30.3001 9.40101L34.7615 6.31227L37.1214 9.7211L32.8084 12.7068C34.6584 13.3234 36.3167 13.8768 37.6585 14.3253C40.3345 12.5875 44.3875 9.96521 47.7706 7.82136C43.8735 4.45847 38.7966 2.42529 33.2449 2.42529C27.6065 2.42529 22.4579 4.52347 18.537 7.98135ZM52.0152 12.7276C48.4534 15.358 43.8781 18.6192 41.0348 20.633C41.025 21.2464 41.0142 21.9021 41.0024 22.5933L53.262 14.9575C52.8884 14.1883 52.4718 13.444 52.0152 12.7276ZM30.511 29.1277L30.1229 27.3204L18.7463 34.2665L18.6393 36.5219L30.511 29.1277ZM18.5445 38.5225L30.7661 30.3153L31.8131 35.1912L20.2015 42.6928C19.5804 42.2429 18.9844 41.7623 18.415 41.2529L18.5445 38.5225ZM47.6655 24.9499L46.044 22.6077L40.9389 26.1431C40.9563 25.2068 40.9726 24.3058 40.9876 23.4512L53.353 15.1474H53.3548C54.1071 16.7315 54.6803 18.4206 55.0402 20.1855L47.6655 24.9499ZM43.0316 28.8239L43.9427 29.1053L48.404 26.0166L47.969 25.3882L55.0867 20.4352C55.3526 21.8078 55.4918 23.2237 55.4918 24.6723C55.4918 25.1714 55.4755 25.6651 55.4412 26.1551L40.7376 35.6565C40.7809 33.87 40.8207 32.0771 40.8568 30.3373L43.0316 28.8239ZM32.082 36.4433L21.6821 43.6803C22.8756 44.4091 24.1415 45.0257 25.4688 45.5231L32.9886 40.6638L32.454 38.1744C31.8065 38.5216 31.3092 38.6699 31.2043 38.5198C31.0832 38.3444 31.5281 37.8145 32.2514 37.2322L32.082 36.4433ZM33.2909 42.0714L27.4294 46.1505C29.283 46.6514 31.2325 46.919 33.2452 46.919C33.6081 46.919 33.969 46.9104 34.3276 46.8932L33.7488 44.1982C32.9278 44.6882 32.255 44.9306 32.1302 44.7515C31.9892 44.549 32.604 43.8763 33.5318 43.1927L33.2909 42.0714ZM40.4404 45.7293C48.5857 42.9458 54.6036 35.568 55.398 26.6867L40.7066 36.9107C40.6282 40.0172 40.5393 43.062 40.4404 45.7293Z" fill="#BF9156"/>
<path d="M5.04 1.54629C5.28775 1.42875 17.5179 5.45424 27.2833 8.70031C27.871 8.29342 28.3611 7.95525 28.3611 7.95525L28.4424 6.61523L32.9038 3.52649L35.2637 6.93531L30.9507 9.92097C32.8007 10.5376 34.459 11.091 35.8008 11.5395C40.6545 8.38745 50.0383 2.32571 51.7382 1.48662C54.0493 0.345519 57.8397 -0.446559 58.2502 0.278608C58.6607 1.00378 56.648 4.32037 55.2754 5.91357C54.2356 7.11977 44.105 14.357 39.1771 17.8472C39.1518 19.4386 39.1192 21.3139 39.0812 23.3574L44.1863 19.8219L46.5463 23.2308L42.085 26.3195L40.8028 25.9235C40.8028 25.9235 39.848 26.5853 39.0071 27.1658C38.7792 38.2405 38.4031 51.666 37.9094 51.8975C37.0685 52.2935 34.0394 51.4146 34.0394 51.4146L31.8911 41.4124C31.07 41.9025 30.3973 42.1448 30.2725 41.9657C30.1315 41.7632 30.7463 41.0905 31.6741 40.4069L30.5962 35.3886C29.9488 35.7358 29.4515 35.8841 29.3466 35.734C29.2255 35.5586 29.6704 35.0287 30.3937 34.4464L28.2652 24.5346L16.8886 31.4807L16.2683 44.559L13.2791 45.8845L10.3585 36.083L12.3676 33.4916C12.3676 33.4916 9.5628 35.3434 9.14325 34.6002C8.7237 33.8569 10.9589 31.7917 10.9589 31.7917L8.36383 32.6579L0 27.1604L2.77408 23.361L14.9247 28.014L25.0517 19.5941L17.5631 14.9718C16.5649 15.6319 15.6788 15.9918 15.5341 15.7838C15.4075 15.6011 15.894 15.0351 16.6734 14.4239L12.3152 11.733C12.2953 11.7456 12.2772 11.7601 12.2573 11.7728C11.1795 12.5196 10.1813 12.9446 10.0257 12.7222C9.8865 12.5196 10.4905 11.8541 11.4092 11.176L3.28043 6.1577C3.28043 6.1577 4.62407 1.74341 5.04 1.5481V1.54629Z" fill="#1E2F22"/>
</svg>
