<svg width="309" height="60" viewBox="0 0 309 60" fill="none" xmlns="http://www.w3.org/2000/svg">
<path d="M185.494 37.5118C186.092 37.3422 186.684 37.1372 187.253 36.9111C193.895 34.2465 198.609 27.7653 198.701 20.1674C198.813 10.011 190.237 1.69922 180.126 1.69922H160.355V10.9581H180.415C183.883 10.9581 187.176 12.8452 188.661 15.9974C188.935 16.584 189.153 17.1989 189.301 17.8492C189.617 19.2133 189.639 20.6904 189.245 22.2241C188.309 25.8711 185.157 28.6347 181.428 29.0375C179.486 29.2496 177.65 28.8467 176.095 28.0056C175.314 27.5815 174.631 27.0161 174.005 26.3871L173.351 25.7298C173.006 25.3128 172.703 24.8604 172.443 24.3869L178.951 17.8492H160.37V36.5153L165.822 31.0377L171.43 36.6708L185.157 51.1668H198.687L185.509 37.5048L185.494 37.5118Z" fill="#F05757"/>
<path d="M16.3724 1.79297H27.8829L44.1287 46.7655H33.8353L30.3807 36.9341H13.3681L9.91347 46.7655H0L16.3724 1.79297ZM27.7563 29.1666L21.811 12.0766L15.9291 29.1666H27.7633H27.7563Z" fill="white"/>
<path d="M78.8589 45.8081C78.8589 50.1336 77.4306 53.5827 74.5741 56.1483C71.7175 58.721 67.285 60.0002 61.2693 60.0002C56.6257 60.0002 52.8686 58.9754 50.012 56.9187C47.1555 54.8619 45.6217 51.95 45.4106 48.1829H54.4939C54.923 49.766 55.7603 50.9888 57.0197 51.844C58.2791 52.6992 59.9325 53.1303 61.9729 53.1303C64.534 53.1303 66.511 52.4872 67.9182 51.2008C69.3254 49.9145 70.0289 48.0132 70.0289 45.4829V42.0127C67.6438 45.0518 64.2525 46.5714 59.8622 46.5714C56.9634 46.5714 54.3602 45.8858 52.0595 44.5147C49.7587 43.1435 47.9576 41.2069 46.656 38.6978C45.3543 36.1888 44.707 33.2698 44.707 29.9267C44.707 26.5836 45.3543 23.7141 46.656 21.1909C47.9576 18.6677 49.7658 16.717 52.0946 15.3458C54.4165 13.9746 57.0267 13.2891 59.9255 13.2891C64.2314 13.2891 67.6438 14.9571 70.1556 18.3001L70.9225 13.7414H78.8519V45.801L78.8589 45.8081ZM69.9656 30.0681C69.9656 27.2833 69.2409 25.0146 67.7915 23.2617C66.3422 21.5089 64.4003 20.6255 61.9729 20.6255C59.5456 20.6255 57.5896 21.4948 56.1191 23.2264C54.6486 24.958 53.9099 27.2197 53.9099 30.0044C53.9099 32.7892 54.6486 35.0367 56.1191 36.7471C57.5896 38.4575 59.5385 39.3198 61.9729 39.3198C64.4073 39.3198 66.3422 38.4646 67.7915 36.7471C69.2409 35.0367 69.9656 32.8033 69.9656 30.0681Z" fill="white"/>
<path d="M91.7512 15.4502C94.2419 14.0579 97.1336 13.3652 100.419 13.3652C103.705 13.3652 106.674 14.0155 109.214 15.323C111.754 16.6306 113.731 18.4682 115.159 20.85C116.588 23.2319 117.326 26.0237 117.369 29.2325C117.369 30.3916 117.284 31.4164 117.115 32.314H93.2639V32.5685C93.475 34.9645 94.2419 36.8516 95.5646 38.2227C96.8874 39.5939 98.6956 40.2795 101.003 40.2795C102.84 40.2795 104.359 39.8837 105.577 39.0921C106.794 38.3005 107.589 37.1343 107.976 35.5935H116.862C116.524 37.7775 115.687 39.7494 114.371 41.5022C113.056 43.255 111.304 44.6403 109.13 45.6439C106.956 46.6476 104.458 47.1564 101.651 47.1564C97.9849 47.1564 94.8188 46.4709 92.1523 45.0997C89.4857 43.7286 87.4383 41.7708 86.01 39.2193C84.5817 36.6678 83.8711 33.7064 83.8711 30.3209C83.8711 26.9354 84.5606 23.9033 85.9467 21.3589C87.3327 18.8074 89.2746 16.8426 91.7653 15.4502H91.7512ZM105.886 21.7477C104.542 20.6521 102.847 20.1079 100.799 20.1079C98.7518 20.1079 97.1829 20.6734 95.8461 21.8113C94.5093 22.9492 93.7072 24.4758 93.4468 26.4053H108.349C108.053 24.391 107.23 22.8432 105.886 21.7477Z" fill="white"/>
<path d="M154.329 28.8437V46.7677H145.309V29.3597C145.309 23.663 143.093 20.8147 138.661 20.8147C136.318 20.8147 134.502 21.6063 133.222 23.1895C131.941 24.7727 131.301 26.999 131.301 29.8686V46.7677H122.281V13.7469H130.147L130.978 17.8604C132.131 16.4468 133.517 15.3442 135.136 14.5526C136.754 13.761 138.759 13.3652 141.144 13.3652C144.979 13.3652 148.138 14.5668 150.607 16.9628C153.077 19.3587 154.315 23.3238 154.315 28.8508L154.329 28.8437Z" fill="white"/>
<path d="M212.208 5.07469C212.208 6.53066 211.716 7.75339 210.738 8.73582C209.76 9.71824 208.522 10.213 207.03 10.213C205.538 10.213 204.293 9.71824 203.287 8.73582C202.288 7.75339 201.781 6.53066 201.781 5.07469C201.781 3.61872 202.281 2.41012 203.287 1.44183C204.286 0.480611 205.538 0 207.03 0C208.522 0 209.76 0.480611 210.738 1.44183C211.716 2.40306 212.208 3.61872 212.208 5.07469ZM211.505 13.7469V46.7677H202.485V13.7469H211.505Z" fill="white"/>
<path d="M224.222 13.7461L232.151 37.5152L239.954 13.7461H249.417L237.583 46.7669H226.389L214.555 13.7461H224.215H224.222Z" fill="white"/>
<path d="M257.779 15.4502C260.269 14.0579 263.161 13.3652 266.447 13.3652C269.732 13.3652 272.702 14.0155 275.241 15.323C277.781 16.6306 279.758 18.4682 281.187 20.85C282.615 23.2319 283.354 26.0237 283.396 29.2325C283.396 30.3916 283.312 31.4164 283.143 32.314H259.291V32.5685C259.502 34.9645 260.269 36.8516 261.592 38.2227C262.915 39.5939 264.723 40.2795 267.031 40.2795C268.867 40.2795 270.387 39.8837 271.604 39.0921C272.821 38.3005 273.616 37.1343 274.003 35.5935H282.889C282.545 37.7775 281.714 39.7494 280.399 41.5022C279.076 43.255 277.331 44.6403 275.157 45.6439C272.983 46.6476 270.485 47.1564 267.678 47.1564C264.012 47.1564 260.846 46.4709 258.18 45.0997C255.513 43.7286 253.466 41.7708 252.037 39.2193C250.609 36.6678 249.898 33.7064 249.898 30.3209C249.898 26.9354 250.595 23.9033 251.974 21.3589C253.36 18.8074 255.302 16.8426 257.793 15.4502H257.779ZM271.914 21.7477C270.57 20.6521 268.874 20.1079 266.827 20.1079C264.779 20.1079 263.21 20.6734 261.873 21.8113C260.53 22.9492 259.735 24.4758 259.474 26.4053H274.376C274.081 24.391 273.257 22.8432 271.914 21.7477Z" fill="white"/>
<path d="M308.341 21.973H304.76C302.199 21.973 300.327 22.7434 299.131 24.2842C297.935 25.825 297.344 27.9241 297.344 30.5816V46.774H288.324V13.7461H296.507L297.337 18.6936C298.315 17.068 299.532 15.8382 300.982 14.9971C302.431 14.1631 304.373 13.7461 306.8 13.7461H308.334V21.966L308.341 21.973Z" fill="white"/>
</svg>
