<svg width="144" height="44" viewBox="0 0 144 44" fill="none" xmlns="http://www.w3.org/2000/svg">
<path d="M19.7933 20.9628C18.8621 20.9628 18.0598 21.0174 17.2685 20.9497C16.3482 20.871 15.8192 21.2054 15.4017 22.0492C14.6147 23.6362 13.6966 25.1577 12.7501 26.8584C10.0067 25.3522 7.36165 23.9117 4.73411 22.4405C4.39529 22.2503 4.11548 21.929 3.8641 21.6229C3.10993 20.7048 3.35039 19.861 4.51552 19.6009C5.43144 19.3976 6.3889 19.3364 7.33105 19.308C12.3894 19.1637 17.4521 19.1309 22.5083 18.9036C27.171 18.6916 31.8336 18.1866 36.2165 16.4837C38.2538 15.6924 40.1972 14.5338 41.9853 13.266C43.7559 12.009 44.7374 10.0744 45.1003 7.9147C45.9179 3.04435 42.4903 -0.418234 37.3773 0.0408204C34.0743 0.335927 31.2238 1.70435 28.6093 3.65205C24.6418 6.6053 21.7847 10.4832 19.461 14.7852C19.0894 15.476 18.6719 15.7842 17.8631 15.7886C14.2584 15.8017 10.6537 15.8345 7.05125 15.9613C5.71999 16.0072 4.33408 16.1383 3.0837 16.558C0.0779883 17.5614 -0.953791 20.86 0.991726 23.3586C1.8377 24.445 3.01594 25.3522 4.20511 26.0758C6.12877 27.2475 8.18577 28.1984 10.1837 29.2454C10.4898 29.4072 10.7827 29.593 11.1303 29.7963C9.01425 33.6218 6.95069 37.3423 4.89806 41.0694C4.24008 42.2651 4.38873 43.2269 5.27624 43.7516C6.21183 44.3046 7.15836 43.9264 7.8382 42.6957C11.6855 35.7553 15.5285 28.8126 19.3692 21.8678C19.5179 21.5967 19.6337 21.3082 19.7933 20.9628ZM36.5969 3.56898C37.55 3.34601 38.6429 3.39848 39.607 3.61052C41.3754 4.00399 42.1514 5.36585 41.8257 7.15835C41.4497 9.22847 40.2212 10.704 38.4965 11.8101C35.8034 13.5392 32.7605 14.2715 29.663 14.7787C27.5207 15.1306 25.3522 15.3252 23.1947 15.5875C23.1444 15.4541 23.0941 15.323 23.0438 15.1896C26.3643 9.9411 30.063 5.10135 36.5969 3.5668V3.56898Z" fill="#6644FF"/>
<path d="M76.3465 3.50988C76.1323 2.59615 75.3038 2.12179 74.2239 2.29885C74.0447 2.32946 73.8632 2.3535 73.6884 2.40159C70.3985 3.33282 67.067 4.146 63.8252 5.22587C57.5012 7.33315 51.5051 10.1312 46.3309 14.4288C39.8932 19.7757 36.2754 26.4254 37.0908 35.036C37.2088 36.2908 37.4427 37.5346 37.6548 39.0035C30.9045 35.7093 24.3138 32.4937 17.6422 29.2366C17.1197 30.1919 16.6191 31.1122 16.0508 32.1505C16.4705 32.3757 16.7831 32.5549 17.1066 32.7123C21.7802 35.0032 26.456 37.2941 31.1318 39.5806C33.8468 40.9075 36.5683 42.2191 39.2768 43.5547C40.1052 43.9635 40.9184 44.239 41.7032 43.5198C42.4508 42.8356 42.2978 42.0311 41.9633 41.2048C41.7863 40.7676 41.6398 40.3151 41.4999 39.8626C40.4244 36.4066 39.9588 32.9047 40.6561 29.3044C41.6398 24.222 44.5122 20.3353 48.3923 17.1045C53.4266 12.9139 59.2762 10.2405 65.4385 8.2294C68.5491 7.21511 71.7385 6.44565 74.895 5.57782C75.988 5.27834 76.5717 4.46953 76.3465 3.50988Z" fill="black"/>
<path d="M54.3946 41.5496C52.7729 41.5496 51.4843 41.0971 50.5289 40.1919C49.5735 39.2742 49.0957 37.9542 49.0957 36.2319V33.1394C49.0957 31.4171 49.5735 30.1034 50.5289 29.1982C51.4843 28.2805 52.7729 27.8216 54.3946 27.8216C56.0163 27.8216 57.3049 28.2805 58.2603 29.1982C59.2283 30.1034 59.7123 31.4171 59.7123 33.1394V36.2319C59.7123 37.9542 59.2283 39.2742 58.2603 40.1919C57.3049 41.0971 56.0163 41.5496 54.3946 41.5496ZM54.3946 39.7205C55.438 39.7205 56.2426 39.4188 56.8083 38.8154C57.374 38.1994 57.6569 37.3634 57.6569 36.3074V33.0639C57.6569 32.0079 57.374 31.1782 56.8083 30.5748C56.2426 29.9588 55.438 29.6508 54.3946 29.6508C53.3763 29.6508 52.578 29.9588 51.9997 30.5748C51.4215 31.1782 51.1323 32.0079 51.1323 33.0639V36.3074C51.1323 37.3634 51.4215 38.1994 51.9997 38.8154C52.578 39.4188 53.3763 39.7205 54.3946 39.7205ZM61.9912 41.2856V28.0856H63.9335V41.2856H61.9912ZM66.6274 41.2856V31.9891H68.5697V41.2856H66.6274ZM67.608 30.7256C67.2309 30.7256 66.9103 30.6062 66.6463 30.3674C66.3949 30.1159 66.2691 29.7954 66.2691 29.4056C66.2691 29.0159 66.3949 28.7016 66.6463 28.4628C66.9103 28.2114 67.2309 28.0856 67.608 28.0856C67.9977 28.0856 68.3183 28.2114 68.5697 28.4628C68.8211 28.7016 68.9469 29.0159 68.9469 29.4056C68.9469 29.7954 68.8211 30.1159 68.5697 30.3674C68.3183 30.6062 67.9977 30.7256 67.608 30.7256ZM73.4133 41.2856L70.2831 31.9891H72.3385L74.8088 39.8525H75.1105L77.5808 31.9891H79.6362L76.5059 41.2856H73.4133ZM85.2626 41.5496C84.3197 41.5496 83.4963 41.3548 82.7923 40.9651C82.0883 40.5628 81.5351 40.0034 81.1328 39.2868C80.7431 38.5576 80.5483 37.7154 80.5483 36.7599V36.5336C80.5483 35.5656 80.7431 34.7234 81.1328 34.0068C81.5226 33.2776 82.0631 32.7182 82.7546 32.3285C83.4586 31.9262 84.2694 31.7251 85.1871 31.7251C86.0797 31.7251 86.8591 31.9262 87.5254 32.3285C88.2043 32.7182 88.7323 33.2651 89.1094 33.9691C89.4866 34.6731 89.6751 35.4965 89.6751 36.4394V37.1748H82.5283C82.5534 37.9919 82.8237 38.6456 83.3391 39.1359C83.8671 39.6136 84.5208 39.8525 85.3003 39.8525C86.0294 39.8525 86.5763 39.6891 86.9408 39.3622C87.318 39.0354 87.6071 38.6582 87.8083 38.2308L89.4111 39.0605C89.2351 39.4125 88.9774 39.7834 88.638 40.1731C88.3111 40.5628 87.8774 40.8896 87.3368 41.1536C86.7963 41.4176 86.1048 41.5496 85.2626 41.5496ZM82.5471 35.6851H87.6951C87.6448 34.9811 87.3934 34.4342 86.9408 34.0445C86.4883 33.6422 85.8974 33.4411 85.1683 33.4411C84.4391 33.4411 83.842 33.6422 83.3768 34.0445C82.9243 34.4342 82.6477 34.9811 82.5471 35.6851ZM91.8246 41.2856V31.9891H93.7291V33.0828H94.0308C94.1817 32.6931 94.4206 32.4102 94.7474 32.2342C95.0868 32.0456 95.5017 31.9514 95.992 31.9514H97.1046V33.7051H95.9166C95.288 33.7051 94.7726 33.8811 94.3703 34.2331C93.968 34.5725 93.7668 35.1005 93.7668 35.8171V41.2856H91.8246Z" fill="#6644FF"/>
<path d="M103.49 41.2856V28.0856H105.526V39.4376H111.881V41.2856H103.49ZM113.615 41.2856V31.9891H115.557V41.2856H113.615ZM114.595 30.7256C114.218 30.7256 113.898 30.6062 113.634 30.3674C113.382 30.1159 113.257 29.7954 113.257 29.4056C113.257 29.0159 113.382 28.7016 113.634 28.4628C113.898 28.2114 114.218 28.0856 114.595 28.0856C114.985 28.0856 115.306 28.2114 115.557 28.4628C115.809 28.7016 115.934 29.0159 115.934 29.4056C115.934 29.7954 115.809 30.1159 115.557 30.3674C115.306 30.6062 114.985 30.7256 114.595 30.7256ZM121.136 41.5496C120.47 41.5496 119.873 41.4365 119.345 41.2102C118.829 40.9839 118.414 40.6508 118.1 40.2108C117.798 39.7708 117.648 39.2365 117.648 38.6079C117.648 37.9668 117.798 37.4388 118.1 37.0239C118.414 36.5965 118.836 36.2759 119.364 36.0622C119.904 35.8485 120.514 35.7416 121.193 35.7416H124.021V35.1382C124.021 34.5976 123.858 34.1639 123.531 33.8371C123.204 33.5102 122.701 33.3468 122.022 33.3468C121.356 33.3468 120.847 33.5039 120.495 33.8182C120.143 34.1325 119.91 34.5411 119.797 35.0439L117.987 34.4594C118.138 33.9565 118.377 33.5039 118.704 33.1016C119.043 32.6868 119.489 32.3536 120.042 32.1022C120.596 31.8508 121.262 31.7251 122.041 31.7251C123.248 31.7251 124.197 32.0331 124.889 32.6491C125.58 33.2651 125.926 34.1388 125.926 35.2702V39.0982C125.926 39.4754 126.102 39.6639 126.454 39.6639H127.246V41.2856H125.794C125.354 41.2856 124.996 41.1725 124.719 40.9462C124.442 40.7199 124.304 40.4119 124.304 40.0222V39.9656H124.021C123.921 40.1542 123.77 40.3742 123.569 40.6256C123.368 40.8771 123.072 41.0971 122.682 41.2856C122.293 41.4616 121.777 41.5496 121.136 41.5496ZM121.419 39.9468C122.198 39.9468 122.827 39.7268 123.305 39.2868C123.782 38.8342 124.021 38.2182 124.021 37.4388V37.2502H121.306C120.79 37.2502 120.376 37.3634 120.061 37.5896C119.747 37.8034 119.59 38.1239 119.59 38.5514C119.59 38.9788 119.753 39.3182 120.08 39.5696C120.407 39.8211 120.853 39.9468 121.419 39.9468ZM128.946 41.2856V31.9891H130.85V33.0828H131.152C131.328 32.7559 131.611 32.4668 132.001 32.2154C132.39 31.9639 132.918 31.8382 133.585 31.8382C134.276 31.8382 134.829 31.9828 135.244 32.2719C135.672 32.5485 135.992 32.9068 136.206 33.3468H136.508C136.721 32.9194 137.029 32.5611 137.432 32.2719C137.846 31.9828 138.431 31.8382 139.185 31.8382C139.789 31.8382 140.323 31.9639 140.788 32.2154C141.253 32.4542 141.624 32.8188 141.901 33.3091C142.177 33.7868 142.316 34.3839 142.316 35.1005V41.2856H140.373V35.2514C140.373 34.6856 140.216 34.2519 139.902 33.9502C139.6 33.6359 139.166 33.4788 138.601 33.4788C137.997 33.4788 137.513 33.6736 137.149 34.0634C136.784 34.4531 136.602 35.0125 136.602 35.7416V41.2856H134.66V35.2514C134.66 34.6856 134.502 34.2519 134.188 33.9502C133.886 33.6359 133.453 33.4788 132.887 33.4788C132.284 33.4788 131.8 33.6736 131.435 34.0634C131.07 34.4531 130.888 35.0125 130.888 35.7416V41.2856H128.946Z" fill="black"/>
</svg>
