<svg width="100" height="100" viewBox="0 0 100 100" fill="none" xmlns="http://www.w3.org/2000/svg">
<path d="M99 50C99 77.062 77.062 99 50 99C22.938 99 1 77.062 1 50C1 22.938 22.938 1 50 1C77.062 1 99 22.938 99 50Z" stroke="white" stroke-width="2"/>
<path d="M86.1764 52.3619L92.5914 50.0771L92.4969 51.3009L87.1174 53.1256L87.1459 52.7558L92.1814 55.3863L92.0903 56.5661L86.1023 53.3216L86.1764 52.3619Z" fill="white"/>
<path d="M85.7041 56.3523L91.8049 57.5654L91.5832 58.6828L85.4824 57.4696L85.7041 56.3523Z" fill="white"/>
<path d="M85.2867 58.7766L91.1957 60.7207L90.4904 62.8684C90.2681 63.5452 89.9634 64.077 89.5763 64.464C89.1929 64.8585 88.741 65.1033 88.2206 65.1985C87.7058 65.2956 87.1355 65.2412 86.5097 65.0353C85.8894 64.8313 85.3981 64.5364 85.0357 64.1506C84.6732 63.7649 84.4518 63.2985 84.3714 62.7515C84.2892 62.2101 84.3592 61.601 84.5814 60.9242L85.2867 58.7766ZM85.8281 60.1539L85.5003 61.1522C85.2652 61.8681 85.2611 62.4555 85.4881 62.9144C85.715 63.3733 86.175 63.7167 86.8678 63.9447C87.5663 64.1745 88.1401 64.1712 88.5892 63.9347C89.044 63.7001 89.3889 63.2249 89.624 62.509L89.9518 61.5107L85.8281 60.1539Z" fill="white"/>
<path d="M83.1679 64.8001L88.7007 67.6447L86.7859 71.376L85.9933 70.9684L87.4082 68.2112L85.8779 67.4244L84.5556 70.001L83.7551 69.5894L85.0774 67.0129L83.4686 66.1857L82.0536 68.9429L81.2531 68.5313L83.1679 64.8001Z" fill="white"/>
<path d="M83.5702 70.8351C84.0954 71.2234 84.4797 71.6539 84.7231 72.1266C84.963 72.6041 85.0543 73.0998 84.9969 73.6136C84.9442 74.1309 84.7344 74.6381 84.3674 75.1354C84.004 75.6279 83.583 75.9754 83.1046 76.1779C82.6308 76.3839 82.1307 76.4423 81.6042 76.3531C81.0742 76.2687 80.549 76.0341 80.0285 75.6493C79.5034 75.261 79.1202 74.824 78.879 74.3383C78.6391 73.8608 78.5455 73.3634 78.5982 72.8461C78.6509 72.3288 78.8589 71.8239 79.2224 71.3314C79.5893 70.8342 80.012 70.4843 80.4905 70.2818C80.9655 70.0841 81.4662 70.0298 81.9927 70.119C82.524 70.2116 83.0498 70.4503 83.5702 70.8351ZM82.8626 71.7941C82.2996 71.3778 81.7705 71.1733 81.2753 71.1804C80.78 71.1876 80.356 71.4303 80.003 71.9086C79.6605 72.3727 79.5552 72.8474 79.6869 73.3327C79.8187 73.8181 80.1661 74.2688 80.7291 74.6851C81.2968 75.1048 81.8294 75.3046 82.3269 75.2845C82.8209 75.2691 83.2408 75.027 83.5868 74.5582C83.9398 74.0799 84.0492 73.6046 83.9152 73.1322C83.7812 72.6599 83.4303 72.2138 82.8626 71.7941Z" fill="white"/>
<path d="M75.2476 76.1361L79.2976 80.8613L77.2017 82.6611C76.6838 83.1057 76.1815 83.3199 75.6947 83.3035C75.208 83.2871 74.7769 83.06 74.4016 82.6221C74.0301 82.1886 73.8714 81.7277 73.9254 81.2391C73.9794 80.7506 74.2653 80.284 74.7831 79.8393L76.0152 78.7813L74.3837 76.8778L75.2476 76.1361ZM76.6012 79.465L75.4696 80.4367C75.1839 80.6821 75.0232 80.9286 74.9876 81.1764C74.9558 81.4286 75.0395 81.671 75.2386 81.9033C75.4378 82.1357 75.6624 82.2531 75.9125 82.2555C76.1664 82.2624 76.4362 82.1432 76.7219 81.8979L77.8535 80.9261L76.6012 79.465Z" fill="white"/>
<path d="M71.0857 79.5938L74.4248 84.8465L73.4645 85.458L70.6417 81.0174L68.1704 82.5913L67.6542 81.7792L71.0857 79.5938Z" fill="white"/>
<path d="M67.5976 81.9264L67.505 88.7593L66.6316 89.1406L61.5326 84.5746L62.5919 84.1121L63.9859 85.4111L63.4419 85.3114L66.8626 83.8178L66.5494 84.2918L66.5464 82.3854L67.5976 81.9264ZM66.5896 87.8294L66.5516 84.628L66.8712 84.7872L64.154 85.9736L64.2145 85.6485L66.5572 87.8435L66.5896 87.8294Z" fill="white"/>
<path d="M59.6679 85.0036L60.3933 87.8533L59.9947 87.2532L63.5632 90.435L62.2893 90.7599L59.814 88.4749L60.0534 88.4138L58.972 91.6057L57.7409 91.9197L59.3449 87.4189L59.2904 88.1345L58.565 85.2848L59.6679 85.0036Z" fill="white"/>
<path d="M53.7169 86.207L53.909 92.4299L53.0536 92.4563L49.3027 87.8985L49.532 87.8914L49.6761 92.5607L48.6179 92.5934L48.4258 86.3706L49.2812 86.3441L53.0233 90.9023L52.8028 90.9091L52.6587 86.2397L53.7169 86.207Z" fill="white"/>
<path d="M47.046 89.4326C46.9483 90.0788 46.7475 90.62 46.4436 91.0562C46.1339 91.4916 45.7386 91.8039 45.2579 91.9931C44.7764 92.1881 44.2302 92.2394 43.6196 92.1469C43.0148 92.0553 42.5112 91.845 42.1088 91.5161C41.7055 91.193 41.4203 90.7777 41.2532 90.2701C41.0802 89.7616 41.0421 89.1871 41.1389 88.5468C41.2366 87.9007 41.4437 87.3575 41.7601 86.9171C42.0698 86.4818 42.4655 86.1666 42.947 85.9716C43.4286 85.7766 43.9718 85.7249 44.5767 85.8165C45.1873 85.909 45.6938 86.1197 46.0962 86.4486C46.4928 86.7766 46.7746 87.1944 46.9418 87.702C47.108 88.2154 47.1428 88.7923 47.046 89.4326ZM45.8683 89.2543C45.973 88.5616 45.9066 87.9977 45.669 87.5628C45.4313 87.1279 45.0188 86.8659 44.4314 86.7769C43.8615 86.6906 43.393 86.8191 43.0258 87.1624C42.6586 87.5058 42.4226 88.0238 42.3179 88.7165C42.2123 89.415 42.2846 89.9797 42.5347 90.4106C42.779 90.8406 43.1891 91.0992 43.7648 91.1864C44.3522 91.2754 44.8232 91.1502 45.1779 90.8109C45.5326 90.4717 45.7627 89.9528 45.8683 89.2543Z" fill="white"/>
<path d="M39.1492 84.7586L38.922 91.3574L37.8215 90.9251L38.1075 85.5542L38.436 85.6833L34.8731 89.767L34.0846 89.4573L34.3706 84.0864L34.6745 84.2057L31.1608 88.3088L30.126 87.9024L34.4597 82.9165L35.3384 83.2617L35.1192 88.3174L34.9385 88.2464L38.2705 84.4134L39.1492 84.7586Z" fill="white"/>
<path d="M28.9261 82.0172L28.4201 82.7298L26.234 81.1745L26.74 80.4619L28.9261 82.0172Z" fill="white"/>
<path d="M25.8771 79.7818L25.3036 80.4412L23.2807 78.6784L23.8543 78.019L25.8771 79.7818Z" fill="white"/>
<path d="M23.0634 77.2586L22.4281 77.8585L20.5875 75.9059L21.2228 75.3059L23.0634 77.2586Z" fill="white"/>
<path d="M20.5092 74.4716L19.8181 75.0063L18.1777 72.8823L18.8688 72.3476L20.5092 74.4716Z" fill="white"/>
<path d="M18.2387 71.4443L17.4983 71.9082L16.0752 69.6327L16.8155 69.1688L18.2387 71.4443Z" fill="white"/>
<path d="M16.3096 68.2649L15.5283 68.6557L14.3294 66.2542L15.1107 65.8634L16.3096 68.2649Z" fill="white"/>
<path d="M14.6638 64.8384L13.8472 65.1486L12.8955 62.6387L13.7121 62.3285L14.6638 64.8384Z" fill="white"/>
<path d="M13.3889 61.3294L12.5459 61.5581L11.8444 58.967L12.6874 58.7383L13.3889 61.3294Z" fill="white"/>
<path d="M12.4335 57.5665L11.5715 57.7072L11.1397 55.0576L12.0017 54.9169L12.4335 57.5665Z" fill="white"/>
<path d="M13.7088 49.3444L7.40625 51.9238L7.44411 50.6969L12.7336 48.6251L12.7221 48.9958L7.57049 46.6012L7.60699 45.4184L13.7385 48.3823L13.7088 49.3444Z" fill="white"/>
<path d="M13.98 45.4432L7.82644 44.5353L7.99241 43.4083L14.1459 44.3162L13.98 45.4432Z" fill="white"/>
<path d="M14.2993 42.8641L8.30833 41.1902L8.91561 39.0127C9.10697 38.3266 9.38724 37.7814 9.75644 37.3772C10.1216 36.9658 10.5619 36.7007 11.0774 36.5819C11.5873 36.4616 12.1595 36.49 12.794 36.6673C13.4229 36.843 13.9271 37.1153 14.3066 37.4842C14.6862 37.8531 14.9285 38.3089 15.0336 38.8517C15.1403 39.3889 15.0979 40.0005 14.9066 40.6866L14.2993 42.8641ZM13.696 41.5128L13.9783 40.5006C14.1808 39.7748 14.1582 39.1878 13.9107 38.7397C13.6632 38.2916 13.1881 37.9693 12.4857 37.7731C11.7775 37.5752 11.2044 37.6046 10.7665 37.8612C10.3229 38.1162 9.99983 38.6066 9.7974 39.3324L9.51511 40.3446L13.696 41.5128Z" fill="white"/>
<path d="M16.0903 36.8646L10.4269 34.2905L12.1596 30.4711L12.9709 30.8399L11.6905 33.6622L13.257 34.3742L14.4535 31.7368L15.2729 32.1093L14.0764 34.7467L15.7233 35.4952L17.0036 32.6728L17.823 33.0453L16.0903 36.8646Z" fill="white"/>
<path d="M15.4226 30.7996C14.8796 30.4367 14.4753 30.025 14.2097 29.5643C13.9474 29.0988 13.8327 28.6081 13.8657 28.0921C13.8937 27.5729 14.0792 27.0562 14.4221 26.5421C14.7618 26.0328 15.1658 25.6657 15.6341 25.4407C16.0976 25.2124 16.5944 25.1303 17.1245 25.1943C17.6579 25.2534 18.1936 25.4628 18.7317 25.8224C19.2747 26.1852 19.6782 26.6035 19.9422 27.0772C20.2045 27.5427 20.3216 28.0351 20.2936 28.5543C20.2655 29.0736 20.0816 29.5878 19.742 30.097C19.3991 30.6111 18.9934 30.9807 18.5251 31.2057C18.06 31.4259 17.5624 31.5039 17.0323 31.4399C16.4973 31.3726 15.9607 31.1591 15.4226 30.7996ZM16.0839 29.808C16.6661 30.197 17.2043 30.3762 17.6986 30.3455C18.1929 30.3148 18.605 30.0522 18.9348 29.5576C19.2549 29.0778 19.3376 28.5986 19.1829 28.1201C19.0283 27.6416 18.6599 27.2078 18.0777 26.8188C17.4907 26.4265 16.9492 26.2523 16.4533 26.296C15.9606 26.3349 15.5526 26.5967 15.2293 27.0814C14.8994 27.576 14.8127 28.056 14.969 28.5214C15.1253 28.9869 15.4969 29.4158 16.0839 29.808Z" fill="white"/>
<path d="M23.4167 25.1696L19.1482 20.6411L21.1568 18.7443C21.6531 18.2756 22.1447 18.0379 22.6317 18.0313C23.1188 18.0246 23.56 18.2311 23.9556 18.6508C24.3471 19.0662 24.5275 19.5191 24.4966 20.0097C24.4657 20.5002 24.2021 20.9798 23.7058 21.4485L22.5251 22.5636L24.2446 24.3878L23.4167 25.1696ZM21.9075 21.9084L22.992 20.8842C23.2658 20.6256 23.4146 20.3717 23.4385 20.1226C23.4584 19.8691 23.3633 19.631 23.1535 19.4083C22.9436 19.1857 22.7136 19.079 22.4637 19.0884C22.2098 19.0935 21.9459 19.2253 21.6721 19.4839L20.5876 20.5081L21.9075 21.9084Z" fill="white"/>
<path d="M27.432 21.4853L23.847 16.3976L24.7771 15.741L27.8078 20.0421L30.2015 18.3523L30.7558 19.1389L27.432 21.4853Z" fill="white"/>
<path d="M30.8089 18.978L30.5715 12.1486L31.4255 11.7255L36.739 16.0395L35.7032 16.5527L34.2482 15.3227L34.7963 15.3959L31.4517 17.0533L31.7417 16.5647L31.8368 18.4687L30.8089 18.978ZM31.5308 13.0331L31.7233 16.2289L31.3964 16.0855L34.0531 14.769L34.0084 15.0966L31.5624 13.0175L31.5308 13.0331Z" fill="white"/>
<path d="M38.5367 15.5274L37.6721 12.7169L38.0997 13.2966L34.379 10.2946L35.6354 9.90736L38.2201 12.0676L37.984 12.1403L38.907 8.899L40.1212 8.52476L38.7405 13.0991L38.7599 12.3817L39.6245 15.1922L38.5367 15.5274Z" fill="white"/>
<path d="M44.2979 14.0239L43.8185 7.81662L44.6718 7.75061L48.6292 12.1299L48.4005 12.1476L48.0408 7.48994L49.0964 7.40826L49.5758 13.6156L48.7225 13.6816L44.7739 9.3016L44.9938 9.28458L45.3535 13.9423L44.2979 14.0239Z" fill="white"/>
<path d="M50.8617 10.4521C50.9296 9.80218 51.1052 9.25229 51.3888 8.80247C51.6781 8.35326 52.0585 8.02308 52.53 7.81193C53.0021 7.59493 53.5453 7.51854 54.1595 7.58277C54.7679 7.64639 55.2807 7.8332 55.6978 8.14318C56.1155 8.44731 56.4195 8.84906 56.6099 9.34844C56.806 9.84842 56.8705 10.4205 56.8033 11.0646C56.7355 11.7145 56.5536 12.2667 56.2578 12.7212C55.9685 13.1704 55.5877 13.5035 55.1157 13.7205C54.6435 13.9375 54.1033 14.0142 53.4949 13.9506C52.8807 13.8863 52.365 13.6992 51.9479 13.3892C51.5366 13.0799 51.2358 12.6755 51.0455 12.1761C50.8558 11.6709 50.7945 11.0962 50.8617 10.4521ZM52.0464 10.576C51.9736 11.2728 52.066 11.833 52.3234 12.2565C52.5808 12.68 53.0049 12.9226 53.5957 12.9844C54.169 13.0444 54.6312 12.8944 54.9822 12.5345C55.3332 12.1746 55.545 11.6463 55.6178 10.9495C55.6911 10.2468 55.5929 9.68605 55.3232 9.26717C55.0593 8.8489 54.6378 8.60948 54.0587 8.54892C53.4678 8.48714 53.0031 8.63388 52.6644 8.98914C52.3257 9.3444 52.1197 9.87336 52.0464 10.576Z" fill="white"/>
<path d="M59.0946 14.7417L59.0245 8.13931L60.1434 8.52153L60.0994 13.8999L59.7654 13.7858L63.141 9.54552L63.9426 9.81935L63.8986 15.1977L63.5897 15.0922L66.9151 10.8348L67.9672 11.1942L63.8623 16.3704L62.9689 16.0652L62.9604 11.0048L63.1441 11.0676L59.988 15.0469L59.0946 14.7417Z" fill="white"/>
<path d="M69.4305 16.9806L69.902 16.2447L72.1596 17.6941L71.688 18.43L69.4305 16.9806Z" fill="white"/>
<path d="M72.5995 19.0746L73.1412 18.3888L75.2451 20.0538L74.7034 20.7396L72.5995 19.0746Z" fill="white"/>
<path d="M75.5355 21.4614L76.1418 20.8321L78.0725 22.6956L77.4662 23.3249L75.5355 21.4614Z" fill="white"/>
<path d="M78.2227 24.1233L78.8877 23.5565L80.6267 25.6004L79.9617 26.1672L78.2227 24.1233Z" fill="white"/>
<path d="M80.6414 27.0436L81.3588 26.5449L82.8886 28.75L82.1712 29.2487L80.6414 27.0436Z" fill="white"/>
<path d="M82.7706 30.2038L83.5338 29.7787L84.838 32.1245L84.0747 32.5496L82.7706 30.2038Z" fill="white"/>
<path d="M84.5024 33.4024L85.303 33.0528L86.3754 35.5135L85.5748 35.8631L84.5024 33.4024Z" fill="white"/>
<path d="M86.0034 36.9847L86.8352 36.718L87.6535 39.2746L86.8217 39.5413L86.0034 36.9847Z" fill="white"/>
<path d="M87.0998 40.5686L87.9538 40.3851L88.5166 43.01L87.6626 43.1934L87.0998 40.5686Z" fill="white"/>
</svg>
