<svg width="64" height="64" viewBox="0 0 64 64" fill="none" xmlns="http://www.w3.org/2000/svg">
<path d="M5.94118 19.9744C6.39113 31.2395 22.4813 31.2531 22.9412 19.9743C22.8708 18.0829 23.2059 14.7853 22.4016 13.0269C25.5348 11.3619 24.3173 6.4549 20.7243 6.47437H11.9412C5.08718 6.05896 2.03102 12.6146 5.94118 17.4751V19.9744ZM20.9412 19.9744C20.6321 28.5858 8.23995 28.5661 7.94118 19.9742V16.5092C8.31734 15.0758 9.40108 13.9015 10.843 13.4744H20.424C21.2192 14.999 20.8729 18.3015 20.9412 19.9744ZM6.61598 11.0442C7.24489 9.70923 8.32496 8.47437 11.9412 8.47437H20.7244C21.5515 8.47437 22.2244 9.14722 22.2244 9.97437C22.2244 10.8015 21.5515 11.4744 20.7244 11.4744H10.699C8.90169 11.7933 7.39229 13.05 6.53981 14.615C6.11745 13.4343 6.11745 12.1013 6.61598 11.0442Z" fill="#2A3B4E"/>
<path d="M3.94117 44.9351V52.4746C3.94117 55.2314 6.18433 57.4746 8.94117 57.4746H19.1614C19.7136 57.4746 20.1614 57.0268 20.1614 56.4746C20.1614 55.9223 19.7136 55.4746 19.1614 55.4746H8.94117C7.28688 55.4746 5.94117 54.1289 5.94117 52.4746V46.1289C7.14478 46.7854 15.9802 46.3626 17.4412 46.4747C22.0648 46.3282 22.067 39.6215 17.4411 39.4746H10.2947C10.4951 38.2658 10.4063 33.2259 8.38075 33.9257C7.86793 34.1303 7.61793 34.7119 7.82252 35.2251C8.43385 36.7588 8.55006 38.4595 8.15309 40.0351C7.82344 40.6728 8.32717 41.4929 9.0516 41.4745C9.05154 41.4746 17.4412 41.4746 17.4412 41.4746C19.4102 41.509 19.414 44.4394 17.4411 44.4746H7.94118C5.78108 44.5221 3.90817 42.6167 3.94125 40.4745C3.61087 35.9926 6.20553 31.7912 10.5828 30.1748C12.5946 31.893 16.2858 31.8937 18.2981 30.1758C19.4685 30.39 20.8358 32.21 21.7771 30.9884C22.7121 29.4228 19.4779 28.555 18.3666 28.0824C18.0003 27.9629 17.5974 28.0678 17.3338 28.3486C16.6692 29.0537 15.5877 29.4746 14.4412 29.4746C13.2947 29.4746 12.2131 29.0537 11.5486 28.3486C11.2849 28.0688 10.884 27.9643 10.5188 28.0815C5.38844 29.709 1.94116 34.2876 1.94116 39.4746C1.79291 41.4911 2.37502 43.5861 3.94117 44.9351Z" fill="#2A3B4E"/>
<path d="M40.8411 23.6747V21.5871C44.5202 22.6465 46.6874 23.4256 50.4949 20.2381C50.6878 20.08 50.8142 19.8559 50.8504 19.6098C51.0101 18.5757 52.2407 17.7609 53.2165 18.2946C54.1522 19.9074 53.77 23.2461 53.8411 25.0445C53.8411 26.7832 53.1638 28.4179 51.9368 29.6445C49.7667 31.8781 46.0056 32.1839 43.5359 30.3007C42.4716 29.5356 41.3007 31.1097 42.3465 31.9082C47.7589 36.0421 55.9767 31.8611 55.841 25.0442C55.783 22.6486 56.1947 19.127 54.8135 17.0255C52.9861 15.1027 49.5198 16.4707 48.9573 18.9082C44.7784 22.276 43.5605 19.3508 39.7177 19.5432C39.3944 19.5827 39.1172 19.8067 38.9763 20.0955C38.7122 20.7216 38.8903 22.9811 38.841 23.6748C38.863 24.9875 40.8187 24.9904 40.8411 23.6747Z" fill="#2A3B4E"/>
<path d="M44.0178 53.7703C44.4879 52.5407 42.6806 51.8106 42.1643 53.0184C41.5686 54.4876 40.0725 55.4744 38.4412 55.4744H25.4412C23.2356 55.4744 21.4412 53.7381 21.4412 51.6043C21.116 47.2309 23.7117 43.1788 28.0881 41.6072C30.1088 43.2825 33.773 43.2824 35.7937 41.6077C37.4661 42.2176 38.9324 43.2078 40.0593 44.4935C40.9187 45.4738 42.4249 44.1617 41.5632 43.175C40.075 41.4778 38.1018 40.2132 35.8567 39.5189C35.4983 39.408 35.1072 39.5067 34.846 39.7757C34.1741 40.4637 33.0882 40.8743 31.9412 40.8743C30.7942 40.8743 29.7083 40.4637 29.0364 39.7757C28.7742 39.5067 28.384 39.409 28.0261 39.5189C22.8914 41.1033 19.4412 45.5706 19.4412 50.6346C19.0575 54.2246 21.6785 57.4806 25.4413 57.4744C25.4412 57.4744 38.4412 57.4744 38.4412 57.4744C40.9163 57.4744 43.1052 56.0203 44.0178 53.7703Z" fill="#2A3B4E"/>
<path d="M35.3743 21.9174C35.9172 21.8168 36.2752 21.2944 36.1741 20.7514C35.7429 18.4335 35.9265 16.6581 36.6653 16.0019C39.3095 13.8659 41.0685 13.9075 43.6653 10.1107C45.3679 7.52801 48.7758 8.36071 49.993 10.0746C51.1589 11.9399 53.9114 13.9448 56.3357 13.9448C57.3665 13.9448 58.7327 15.4257 58.8455 16.6366C58.936 18.0323 57.8347 19.3532 57.5638 20.8041C57.0603 23.1406 57.3186 24.9887 58.3308 26.2973C60.9258 29.5905 60.6397 34.7184 57.5292 37.6118C55.9943 35.5312 53.8088 33.9692 51.2634 33.1615C50.9001 33.0458 50.5007 33.1479 50.2375 33.4247C49.5691 34.1259 48.4861 34.5443 47.3411 34.5443C46.1965 34.5443 45.1135 34.1259 44.4446 33.4242C43.6769 32.6817 42.5448 33.5325 41.7634 33.8206C41.2698 34.0678 41.0696 34.6684 41.3171 35.1625C41.8361 36.1216 42.734 35.5671 43.4827 35.2514C45.5006 36.96 49.1775 36.9613 51.1961 35.2538C55.0617 36.6643 57.8703 40.4303 57.8411 44.5443V45.5443C57.8729 47.6801 56.0031 49.586 53.8411 49.5443C53.8411 49.5443 44.3411 49.5443 44.3411 49.5443C42.3699 49.5152 42.3702 46.5754 44.3411 46.5443C44.3411 46.5443 52.7112 46.5443 52.7112 46.5443C53.3519 46.5613 53.8633 45.89 53.6746 45.2773C53.2244 43.6523 53.325 41.8871 53.9592 40.3066C54.1648 39.7944 53.9158 39.2118 53.4031 39.0063C51.3642 38.3244 51.2921 43.3183 51.4871 44.5444H44.3411C41.2838 44.4911 39.6665 48.3871 41.8641 50.5214C42.5237 51.1811 43.4031 51.5444 44.3411 51.5444C45.9196 51.4291 54.5863 51.8603 55.8411 51.1988V52.5444C55.8411 54.1987 54.4954 55.5444 52.8411 55.5444H44.6814C43.3714 55.5647 43.3638 57.5222 44.6815 57.5444C44.6814 57.5444 52.8411 57.5444 52.8411 57.5444C55.5979 57.5444 57.8411 55.3012 57.8411 52.5444V49.9977C60.7864 47.3513 60.1339 42.6189 58.5837 39.3711C62.7021 35.8535 63.2329 29.275 59.9122 25.0726C59.2781 24.2529 59.1458 22.9584 59.5178 21.2309C59.915 19.6137 61.0142 18.3454 60.8367 16.4516C60.6472 14.4169 58.5486 11.9447 56.3645 11.9447C54.7229 11.9447 52.5554 10.4003 51.6897 9.01505C49.7051 5.87552 44.108 5.48972 42.016 8.97959C38.1487 14.7499 32.5756 12.4547 34.2084 21.1176C34.3093 21.6601 34.8259 22.0214 35.3743 21.9174Z" fill="#2A3B4E"/>
<path d="M31.9412 39.4745C36.9036 39.4745 40.9412 35.6615 40.9412 30.9745C40.4475 19.6981 23.433 19.7017 22.9412 30.9746C22.9412 35.6615 26.9788 39.4745 31.9412 39.4745ZM31.9412 24.4745C36.5603 24.4204 40.1062 28.7784 38.5953 32.9826C36.2363 33.6442 34.9799 30.7076 34.1137 28.9247C33.3981 27.2362 31.3126 25.0665 28.9512 25.1061C29.8594 24.7054 30.8706 24.4745 31.9412 24.4745ZM30.0731 27.3764C31.0676 27.6762 32.1227 29.2486 32.7145 30.5966C33.5817 32.549 35.0288 34.6959 37.3981 35.0355C33.1377 40.1024 23.7649 36.6469 25.1145 29.9203C25.3914 27.6885 28.0559 26.5071 30.0731 27.3764Z" fill="#2A3B4E"/>
</svg>
