<svg width="64" height="64" viewBox="0 0 64 64" fill="none" xmlns="http://www.w3.org/2000/svg">
<g clip-path="url(#clip0_1_289)">
<path d="M61.8667 43.7333H61.4592L55.9723 32.7583C56.5533 32.5307 57.0772 32.1784 57.5073 31.7263C57.9373 31.2742 58.263 30.7332 58.4613 30.1416C58.6596 29.55 58.7257 28.922 58.655 28.3021C58.5842 27.6821 58.3784 27.0852 58.0519 26.5534C57.7255 26.0217 57.2863 25.568 56.7655 25.2243C56.2447 24.8807 55.6548 24.6555 55.0375 24.5646C54.4201 24.4737 53.7904 24.5193 53.1926 24.6981C52.5948 24.877 52.0435 25.1849 51.5776 25.5999H36.9557C36.1781 24.9095 35.1733 24.5297 34.1333 24.5333H33.0667V20.2986C35.524 20.3177 37.9412 20.9233 40.1173 22.065C40.4773 22.2982 40.9006 22.4142 41.3292 22.3972C41.7578 22.3802 42.1705 22.231 42.5109 21.9701C44.4287 20.7742 46.661 20.1808 48.9195 20.2666C50.9141 20.2113 52.8883 20.6798 54.6453 21.6255C54.9612 21.8065 55.3187 21.9023 55.6828 21.9036C56.0468 21.9049 56.405 21.8117 56.7221 21.633C56.9845 21.4911 57.2042 21.2818 57.3585 21.0265C57.5128 20.7713 57.5962 20.4795 57.6 20.1813V20.0255C57.6 14.6197 54.9024 9.55835 50.0032 5.77275C44.7987 1.924 38.4721 -0.104656 32 -5.49322e-05C25.5279 -0.104656 19.2013 1.924 13.9968 5.77275C9.09761 9.55835 6.40001 14.6197 6.40001 20.0255V20.1813C6.4038 20.4795 6.48717 20.7713 6.6415 21.0265C6.79584 21.2818 7.01553 21.4911 7.27787 21.633C7.59513 21.8115 7.95325 21.9046 8.31726 21.9033C8.68127 21.902 9.03871 21.8063 9.35467 21.6255C11.1117 20.6798 13.0859 20.2113 15.0805 20.2666C17.3393 20.1818 19.5717 20.7762 21.4891 21.9733C21.8294 22.2349 22.2424 22.3845 22.6713 22.4015C23.1002 22.4185 23.5238 22.302 23.8837 22.0682C26.0591 20.9252 28.4761 20.3185 30.9333 20.2986V24.5333H29.8667C28.8276 24.5313 27.824 24.9108 27.0464 25.5999H12.4224C11.9565 25.1849 11.4052 24.877 10.8074 24.6981C10.2096 24.5193 9.57988 24.4737 8.96256 24.5646C8.34523 24.6555 7.75536 24.8807 7.23452 25.2243C6.71368 25.568 6.27455 26.0217 5.94809 26.5534C5.62163 27.0852 5.41577 27.6821 5.34504 28.3021C5.27431 28.922 5.34042 29.55 5.53872 30.1416C5.73701 30.7332 6.06267 31.2742 6.49272 31.7263C6.92277 32.1784 7.44676 32.5307 8.02774 32.7583L2.54081 43.7333H2.13334C1.56754 43.7333 1.02492 43.958 0.624845 44.3581C0.224768 44.7582 6.34496e-06 45.3008 6.34496e-06 45.8666V46.641C-0.0333906 49.1149 0.872777 51.5094 2.53568 53.3414C4.19858 55.1733 6.49443 56.3064 8.96001 56.5119C9.17334 56.5258 9.38667 56.5333 9.60641 56.5333C12.0432 56.5405 14.3897 55.6115 16.1611 53.9381C17.1183 53.0393 17.8817 51.9543 18.4043 50.7497C18.9269 49.5451 19.1977 48.2463 19.2 46.9333V45.8666C19.2 45.3008 18.9752 44.7582 18.5752 44.3581C18.1751 43.958 17.6325 43.7333 17.0667 43.7333H16.6592L11.1744 32.7626C11.6322 32.5841 12.0547 32.3259 12.4224 31.9999H27.0443C27.5276 32.4227 28.1017 32.7285 28.7221 32.8938L26.752 56.5333H22.4C21.2684 56.5333 20.1832 56.9828 19.383 57.783C18.5829 58.5831 18.1333 59.6684 18.1333 60.7999V61.8666C18.1333 62.4324 18.3581 62.975 18.7582 63.3751C19.1583 63.7752 19.7009 63.9999 20.2667 63.9999H43.7333C44.2991 63.9999 44.8418 63.7752 45.2418 63.3751C45.6419 62.975 45.8667 62.4324 45.8667 61.8666V60.7999C45.8667 59.6684 45.4172 58.5831 44.617 57.783C43.8168 56.9828 42.7316 56.5333 41.6 56.5333H37.248L35.2779 32.8938C35.8968 32.7263 36.4697 32.4207 36.9536 31.9999H51.5776C51.9453 32.3259 52.3678 32.5841 52.8256 32.7626L47.3408 43.7333H46.9333C46.3675 43.7333 45.8249 43.958 45.4248 44.3581C45.0248 44.7582 44.8 45.3008 44.8 45.8666V46.641C44.7666 49.1149 45.6728 51.5094 47.3357 53.3414C48.9986 55.1733 51.2944 56.3064 53.76 56.5119C53.9733 56.5258 54.192 56.5333 54.4064 56.5333C56.8432 56.5405 59.1897 55.6115 60.9611 53.9381C61.9183 53.0393 62.6817 51.9543 63.2043 50.7497C63.7269 49.5451 63.9977 48.2463 64 46.9333V45.8666C64 45.3008 63.7752 44.7582 63.3752 44.3581C62.9751 43.958 62.4325 43.7333 61.8667 43.7333ZM55.4667 19.6362C53.443 18.5992 51.1928 18.0827 48.9195 18.1333C46.7633 18.1129 44.6273 18.5491 42.6517 19.4133C42.6732 14.8291 41.6779 10.2973 39.7376 6.14395C39.1079 4.85917 38.2984 3.67069 37.3333 2.61435C41.457 3.2899 45.3562 4.95242 48.6987 7.46021C52.944 10.7402 55.3333 15.0506 55.4667 19.6362ZM8.54401 19.6426C8.66987 15.0559 11.0603 10.7413 15.3067 7.46021C18.6474 4.95244 22.5447 3.28922 26.6667 2.61221C23.5435 5.93275 21.456 12.1237 21.3451 19.4154C19.3708 18.5505 17.2358 18.1135 15.0805 18.1333C12.8079 18.0799 10.5582 18.5989 8.53867 19.6426H8.54401ZM23.4773 19.8474C23.5179 10.2282 27.4016 2.13328 32 2.13328C34.1163 2.13328 36.2432 3.94661 37.8336 7.10715C39.684 11.0956 40.607 15.4513 40.5333 19.8474C37.8486 18.6585 34.9356 18.0734 32 18.1333C29.0644 18.0734 26.1514 18.6585 23.4667 19.8474H23.4773ZM17.0667 46.9333C17.0666 47.9558 16.8565 48.9675 16.4494 49.9055C16.0423 50.8435 15.4469 51.688 14.7001 52.3864C13.9532 53.0849 13.0708 53.6225 12.1077 53.9659C11.1445 54.3093 10.1211 54.4512 9.10081 54.3829C7.17515 54.2141 5.38517 53.3213 4.09205 51.8844C2.79894 50.4476 2.09895 48.5737 2.13334 46.641V45.8666H17.0667V46.9333ZM4.92587 43.7333L9.60001 34.385L14.2741 43.7333H4.92587ZM43.7333 60.7999V61.8666H20.2667V60.7999C20.2667 60.2342 20.4914 59.6915 20.8915 59.2915C21.2916 58.8914 21.8342 58.6666 22.4 58.6666H41.6C42.1658 58.6666 42.7084 58.8914 43.1085 59.2915C43.5086 59.6915 43.7333 60.2342 43.7333 60.7999ZM28.8928 56.5333L30.848 33.0666H33.152L35.1072 56.5333H28.8928ZM52.0213 29.8666H36.512C36.343 29.8697 36.1768 29.9109 36.0259 29.9872C35.875 30.0635 35.7433 30.1729 35.6405 30.3071C35.4432 30.506 35.2084 30.6637 34.9497 30.7712C34.691 30.8787 34.4135 30.9338 34.1333 30.9333H29.8667C29.5692 30.9359 29.2747 30.8747 29.0029 30.7538C28.7311 30.6329 28.4884 30.4552 28.2912 30.2325C28.1912 30.1177 28.0678 30.0257 27.9292 29.9626C27.7907 29.8995 27.6402 29.8667 27.488 29.8666H11.9787C11.8264 29.8667 11.676 29.8995 11.5375 29.9626C11.3989 30.0257 11.2755 30.1177 11.1755 30.2325C10.9782 30.4552 10.7356 30.6329 10.4638 30.7538C10.192 30.8747 9.89745 30.9359 9.60001 30.9333C9.03421 30.9333 8.49159 30.7085 8.09151 30.3084C7.69143 29.9084 7.46667 29.3657 7.46667 28.7999C7.46667 28.2342 7.69143 27.6915 8.09151 27.2915C8.49159 26.8914 9.03421 26.6666 9.60001 26.6666C9.89745 26.664 10.192 26.7252 10.4638 26.8461C10.7356 26.967 10.9782 27.1447 11.1755 27.3674C11.2755 27.4822 11.3989 27.5742 11.5375 27.6373C11.676 27.7004 11.8264 27.7331 11.9787 27.7333H27.488C27.6571 27.7302 27.8232 27.689 27.9741 27.6127C28.125 27.5364 28.2567 27.427 28.3595 27.2927C28.5568 27.0939 28.7916 26.9362 29.0504 26.8287C29.3091 26.7212 29.5865 26.6661 29.8667 26.6666H34.1333C34.4308 26.664 34.7253 26.7252 34.9971 26.8461C35.2689 26.967 35.5116 27.1447 35.7088 27.3674C35.8088 27.4822 35.9323 27.5742 36.0708 27.6373C36.2093 27.7004 36.3598 27.7331 36.512 27.7333H52.0213C52.1736 27.7331 52.324 27.7004 52.4626 27.6373C52.6011 27.5742 52.7245 27.4822 52.8245 27.3674C53.0218 27.1447 53.2645 26.967 53.5362 26.8461C53.808 26.7252 54.1026 26.664 54.4 26.6666C54.9658 26.6666 55.5084 26.8914 55.9085 27.2915C56.3086 27.6915 56.5333 28.2342 56.5333 28.7999C56.5333 29.3657 56.3086 29.9084 55.9085 30.3084C55.5084 30.7085 54.9658 30.9333 54.4 30.9333C54.1026 30.9359 53.808 30.8747 53.5362 30.7538C53.2645 30.6329 53.0218 30.4552 52.8245 30.2325C52.7245 30.1177 52.6011 30.0257 52.4626 29.9626C52.324 29.8995 52.1736 29.8667 52.0213 29.8666ZM54.4 34.385L59.0741 43.7333H49.7259L54.4 34.385ZM61.8667 46.9333C61.8666 47.9558 61.6565 48.9675 61.2494 49.9055C60.8423 50.8435 60.2469 51.688 59.5001 52.3864C58.7532 53.0849 57.8708 53.6225 56.9077 53.9659C55.9445 54.3093 54.9211 54.4512 53.9008 54.3829C51.9751 54.2141 50.1852 53.3213 48.8921 51.8844C47.5989 50.4476 46.899 48.5737 46.9333 46.641V45.8666H61.8667V46.9333Z" fill="#2A3B4E"/>
</g>
<defs>
<clipPath id="clip0_1_289">
<rect width="64" height="64" fill="white"/>
</clipPath>
</defs>
</svg>
