<svg width="64" height="64" viewBox="0 0 64 64" fill="none" xmlns="http://www.w3.org/2000/svg">
<g clip-path="url(#clip0_1_279)">
<path d="M63.3354 44.5797H63.335C63.335 40.8043 62.2503 37.1439 60.1982 33.9941C58.3098 31.0954 55.6984 28.7624 52.6207 27.2174V25.2597C52.6207 22.27 50.1883 19.8377 47.1986 19.8377H46.1689V18.5279C46.9007 18.1609 47.5677 17.6813 48.1558 17.0932C49.6105 15.6385 50.4115 13.7046 50.4115 11.6477C50.4115 9.59084 49.6105 7.65682 48.1558 6.20231L44.2094 2.25577C42.7546 0.801133 40.8208 0 38.7639 0C36.7068 0 34.7729 0.801133 33.3186 2.25565C32.9606 2.61353 32.6412 3.0029 32.3637 3.41703H31.6363C31.3583 3.00203 31.0389 2.61265 30.6818 2.25552C27.6791 -0.747132 22.7936 -0.747132 19.7908 2.25552L19.1083 2.93803C18.7422 3.30416 18.7422 3.89766 19.1083 4.26379C19.4745 4.62992 20.0681 4.62992 20.4342 4.26379L21.1167 3.58128C23.3317 1.36626 26.9006 1.31226 29.183 3.41691H27.4367C26.8047 3.41691 26.213 3.59166 25.7065 3.89479C25.5502 3.87566 25.3931 3.86554 25.236 3.86554C24.2122 3.86554 23.2493 4.26442 22.5251 4.98867L18.5772 8.93534C17.8529 9.65972 17.454 10.6229 17.454 11.6476C17.454 12.2342 17.5892 12.8082 17.8438 13.3288C17.836 13.4216 17.8312 13.5153 17.8312 13.6101V16.337C17.5992 16.1652 17.3785 15.9752 17.1704 15.7669C14.8988 13.4954 14.8987 9.79922 17.1703 7.5277L17.784 6.91394C18.1503 6.54781 18.1503 5.95418 17.7842 5.58805C17.4179 5.22205 16.8243 5.22193 16.4584 5.58805L15.8445 6.20181C12.8419 9.20446 12.8419 14.0901 15.8445 17.0927C16.4339 17.682 17.1008 18.1619 17.8313 18.5281V19.8377H16.8014C13.8116 19.8377 11.3792 22.27 11.3792 25.2597V27.2174C8.30156 28.7624 5.69016 31.0954 3.80177 33.9941C1.75237 37.1392 0.668237 40.7935 0.664987 44.5629C0.664987 44.5686 0.664612 44.5741 0.664612 44.5797L0.664737 44.5798C0.664737 55.2882 9.37657 64 20.0849 64C24.407 64 28.6103 62.5524 32.0068 59.9098C35.2976 62.4717 39.4309 64 43.9148 64C54.6135 64 63.3191 55.3037 63.3346 44.6084C63.3347 44.5989 63.3354 44.5894 63.3354 44.5797ZM47.1987 21.7127C49.1546 21.7127 50.7459 23.3039 50.7459 25.2597V27.8056C50.7459 28.1706 50.9577 28.5025 51.2889 28.6562C54.2834 30.045 56.821 32.2448 58.6274 35.0176C60.4806 37.8621 61.4601 41.1687 61.4601 44.5798C61.4601 44.5829 61.46 44.5861 61.46 44.5893C61.4547 45.8788 60.4044 46.9265 59.1137 46.9265C57.8197 46.9265 56.767 45.8737 56.767 44.5797H56.7665C56.7663 37.4929 51.0014 31.7274 43.9152 31.7274C37.9325 31.7274 32.8916 35.8362 31.4658 41.3802C30.7264 40.7438 29.7658 40.3579 28.716 40.3579C28.015 40.3579 27.3539 40.5306 26.7714 40.8343C27.2199 38.7723 28.0385 36.8037 29.2023 35.0175C31.0087 32.2447 33.5463 30.0449 36.5408 28.656C36.8718 28.5024 37.0838 28.1705 37.0838 27.8055V25.2596C37.0838 23.741 38.0479 22.4295 39.4091 21.929V22.7368C39.4091 24.6005 40.9254 26.1168 42.7892 26.1168C44.6528 26.1168 46.1691 24.6005 46.1691 22.7368V21.7127H47.1987ZM35.9352 52.1095C34.9518 51.0681 34.1699 49.8349 33.6514 48.4727C34.1539 48.6842 34.7056 48.8015 35.2842 48.8015C35.9836 48.8015 36.6432 48.6295 37.2247 48.3272C36.9401 49.633 36.5082 50.9031 35.9352 52.1095ZM37.6299 44.5973C37.6202 45.8831 36.5721 46.9265 35.2841 46.9265C33.9922 46.9265 32.9411 45.8771 32.9376 44.5861C32.9376 44.5841 32.9376 44.5822 32.9376 44.5802C32.9376 44.5801 32.9376 44.5799 32.9376 44.5798H32.9378C32.9378 44.5777 32.9377 44.5757 32.9377 44.5736C32.9394 41.6644 34.0789 39.0166 35.9341 37.0512C37.0458 39.3901 37.6302 41.9687 37.6302 44.5799C37.6302 44.5857 37.6299 44.5914 37.6299 44.5973ZM9.10769 44.5797H9.10819C9.10819 44.5754 9.10794 44.5712 9.10782 44.5669C9.11482 38.5199 14.0364 33.6025 20.0849 33.6025C22.4419 33.6025 24.731 34.3642 26.6116 35.7567C25.2297 38.4615 24.5031 41.4569 24.4953 44.5299C24.4952 44.5466 24.4941 44.5629 24.4941 44.5797H24.4945V44.5798C24.4945 47.7535 25.2599 50.7517 26.6155 53.3999C24.7336 54.7944 22.4429 55.5572 20.0848 55.5572C14.032 55.5572 9.10769 50.6327 9.10769 44.5797C9.10769 44.5798 9.10769 44.5798 9.10769 44.5797ZM24.591 19.9778V18.6038C25.3846 18.2283 26.1045 17.7234 26.7349 17.0932L30.6808 13.1471C31.2064 12.6222 31.649 12.0281 31.9998 11.3846C32.3504 12.0281 32.7929 12.6221 33.3183 13.1468L37.2648 17.0933C37.8951 17.7237 38.6151 18.2284 39.4089 18.6041V19.9781C36.9941 20.536 35.2086 22.7058 35.2086 25.26V27.2176C34.0699 27.7893 32.9956 28.4694 31.9975 29.2454C30.9957 28.466 29.9221 27.7856 28.7908 27.2176V25.2601C28.791 22.7056 27.0057 20.5357 24.591 19.9778ZM27.9483 10.4121C28.0234 10.337 28.0941 10.2579 28.1626 10.1768H30.5114C30.2267 10.7837 29.8369 11.3401 29.3555 11.8207L25.4092 15.7672C25.1552 16.0212 24.8812 16.247 24.5911 16.447V13.7704L27.9483 10.4121ZM39.9435 6.79694C39.9435 6.55106 39.9164 6.31156 39.8664 6.08056C39.9669 6.14919 40.0622 6.22694 40.1503 6.31481L44.0967 10.2613C44.2094 10.3741 44.3047 10.4991 44.3854 10.632C43.9097 10.376 43.366 10.2302 42.789 10.2302C41.6305 10.2302 40.6066 10.8162 39.9974 11.7071L38.0979 9.80697C39.1922 9.24684 39.9435 8.10833 39.9435 6.79694ZM44.2939 13.61V22.737C44.2939 23.5667 43.6189 24.2419 42.789 24.2419C41.9591 24.2419 41.284 23.5667 41.284 22.737V13.61C41.284 12.7802 41.9591 12.1051 42.789 12.1051C43.6189 12.1051 44.2939 12.7802 44.2939 13.61ZM35.8372 10.1768C35.9057 10.2577 35.9763 10.3369 36.0515 10.412L39.409 13.7708V16.4473C39.1187 16.2472 38.8449 16.0213 38.5907 15.7673L34.6438 11.8204C34.1628 11.3401 33.7732 10.7837 33.4884 10.177L35.8372 10.1768ZM38.7639 1.87502C40.3199 1.87502 41.7829 2.48102 42.8834 3.58154L46.8298 7.52807C47.9303 8.62858 48.5363 10.0916 48.5363 11.6477C48.5363 13.2039 47.9302 14.6669 46.8298 15.7674C46.6219 15.9753 46.4012 16.1653 46.1689 16.3373V13.6103C46.1689 13.5153 46.1639 13.4215 46.1563 13.3285C46.4107 12.8083 46.5458 12.2344 46.5458 11.6479C46.5458 10.6232 46.1469 9.65997 45.4227 8.93559L41.4754 4.9883C40.7498 4.26454 39.7869 3.86591 38.764 3.86591C38.607 3.86591 38.4499 3.87604 38.2939 3.89504C37.7874 3.59191 37.1957 3.41716 36.5637 3.41716H34.8172C35.8956 2.4214 37.2875 1.87502 38.7639 1.87502ZM27.4366 5.29205H36.5636C37.3935 5.29205 38.0685 5.96718 38.0685 6.79694C38.0685 7.6267 37.3935 8.30183 36.5636 8.30183H27.4366C26.6067 8.30183 25.9317 7.6267 25.9317 6.79694C25.9317 5.96718 26.6067 5.29205 27.4366 5.29205ZM23.8508 6.31481C23.9386 6.22706 24.0336 6.14944 24.1337 6.08093C24.0837 6.31194 24.0567 6.55131 24.0567 6.79694C24.0567 8.1082 24.8078 9.24672 25.902 9.80685L24.0026 11.707C23.3933 10.8161 22.3694 10.2302 21.2111 10.2302C20.6338 10.2302 20.0902 10.376 19.6143 10.6321C19.695 10.4992 19.7903 10.3741 19.9031 10.2615L23.8508 6.31481ZM22.716 13.61V22.737C22.716 23.5667 22.0408 24.2419 21.2109 24.2419C20.3811 24.2419 19.706 23.5667 19.706 22.737V13.61C19.706 12.7802 20.3811 12.1051 21.2109 12.1051C22.0408 12.1051 22.716 12.7802 22.716 13.61ZM5.37253 35.0176C7.1788 32.2448 9.71645 30.045 12.711 28.6562C13.042 28.5025 13.254 28.1706 13.254 27.8056V25.2597C13.254 23.3039 14.8451 21.7127 16.8011 21.7127H17.831V22.737C17.831 24.6006 19.3473 26.1169 21.2109 26.1169C23.0747 26.1169 24.591 24.6006 24.591 22.737V21.9291C25.952 22.4296 26.916 23.7412 26.916 25.2597V27.8056C26.916 28.1708 27.1279 28.5027 27.4592 28.6562C28.5473 29.1605 29.5809 29.7775 30.5449 30.4947C29.4469 31.5374 28.4679 32.7099 27.6313 33.9941C27.6041 34.0357 27.5791 34.0783 27.5524 34.1202C25.3839 32.5711 22.7715 31.7274 20.0851 31.7274C14.1026 31.7274 9.06169 35.8362 7.63605 41.3802C6.89667 40.7439 5.93604 40.358 4.8864 40.358C4.18527 40.358 3.52414 40.5308 2.94163 40.8345C3.39001 38.7724 4.20877 36.8039 5.37253 35.0176ZM20.0849 62.125C10.4105 62.125 2.53976 54.2543 2.53976 44.5798C2.53976 44.5786 2.53976 44.5772 2.53976 44.5759C2.54188 43.2837 3.59364 42.233 4.88628 42.233C6.17779 42.233 7.22855 43.2817 7.23268 44.5721C7.23268 44.5747 7.23255 44.5773 7.23255 44.5798C7.23255 51.6666 12.9981 57.4322 20.0848 57.4322C22.7722 57.4322 25.3862 56.5874 27.5561 55.0363C28.407 56.3628 29.415 57.5792 30.5532 58.6598C27.5397 60.901 23.8628 62.125 20.0849 62.125ZM43.9148 62.125C34.2403 62.125 26.3696 54.2543 26.3696 44.5798C26.3696 44.5761 26.3699 44.5722 26.3699 44.5684C26.376 43.2797 27.4259 42.233 28.7161 42.233C30.0088 42.233 31.0605 43.2837 31.0627 44.5759V44.5797H31.0624C31.0624 44.5861 31.0629 44.5922 31.0629 44.5986C31.0729 51.6764 36.8345 57.4314 43.9153 57.4314C46.0188 57.4314 48.1056 56.9118 49.95 55.9288C50.4069 55.6853 50.5799 55.1174 50.3364 54.6605C50.0931 54.2037 49.5251 54.0305 49.0681 54.2742C47.4941 55.113 45.7122 55.5565 43.9152 55.5565C41.4726 55.5565 39.214 54.7544 37.3885 53.4001C38.7644 50.7032 39.4939 47.6955 39.5042 44.6456C39.5046 44.6236 39.5059 44.6018 39.5059 44.5797H39.5052C39.5052 41.5079 38.7737 38.4765 37.387 35.7601C39.2129 34.4051 41.472 33.6025 43.9152 33.6025C49.9675 33.6025 54.8915 38.527 54.8915 44.5801C54.8915 47.4466 53.7934 50.1591 51.7994 52.2179C51.4391 52.5899 51.4486 53.1834 51.8206 53.5435C52.1926 53.9038 52.7861 53.8942 53.1462 53.5223C54.7208 51.8966 55.8174 49.9225 56.365 47.78C57.1043 48.4157 58.0645 48.8014 59.1137 48.8014C59.8138 48.8014 60.4742 48.629 61.0561 48.3261C59.3351 56.2066 52.3036 62.125 43.9148 62.125Z" fill="#2A3B4E"/>
</g>
<defs>
<clipPath id="clip0_1_279">
<rect width="64" height="64" fill="white"/>
</clipPath>
</defs>
</svg>
