<svg width="48" height="48" viewBox="0 0 48 48" fill="none" xmlns="http://www.w3.org/2000/svg">
<path fill-rule="evenodd" clip-rule="evenodd" d="M12 24C18.6274 24 24 18.6274 24 12C24 18.6274 29.3726 24 36 24C29.3726 24 24 29.3726 24 36C24 29.3726 18.6274 24 12 24ZM12 24C5.37259 24 0 29.3726 0 36C0 42.6274 5.37259 48 12 48C18.6274 48 24 42.6274 24 36C24 42.6274 29.3726 48 36 48C42.6274 48 48 42.6274 48 36C48 29.3726 42.6274 24 36 24C42.6274 24 48 18.6274 48 12C48 5.37259 42.6274 0 36 0C29.3726 0 24 5.37259 24 12C24 5.37259 18.6274 0 12 0C5.37259 0 0 5.37259 0 12C0 18.6274 5.37259 24 12 24Z" fill="black"/>
</svg>
