<svg width="48" height="48" viewBox="0 0 48 48" fill="none" xmlns="http://www.w3.org/2000/svg">
<path fill-rule="evenodd" clip-rule="evenodd" d="M29.9758 1.18011L25.392 20.6395L35.9105 3.6384C36.2364 3.11186 36.9679 3.02686 37.4057 3.46466L44.5354 10.5942C44.9731 11.0321 44.8882 11.7637 44.3616 12.0894L27.3605 22.6081L46.8199 18.0242C47.4226 17.8823 48 18.3395 48 18.9587V29.0414C48 29.6606 47.4226 30.1178 46.8199 29.9758L27.3605 25.392L44.3616 35.9107C44.8882 36.2364 44.9731 36.9679 44.5354 37.4059L37.4057 44.5354C36.9679 44.9731 36.2364 44.8882 35.9105 44.3616L25.392 27.3605L29.9758 46.8199C30.1178 47.4226 29.6604 48 29.0414 48H18.9586C18.3395 48 17.8823 47.4226 18.0242 46.8199L22.6081 27.3605L12.0894 44.3616C11.7637 44.8882 11.032 44.9731 10.5942 44.5354L3.46466 37.4057C3.02686 36.9679 3.11186 36.2364 3.6384 35.9105L20.6394 25.392L1.18011 29.9758C0.577454 30.1178 0 29.6606 0 29.0414V18.9587C4.67794e-07 18.3395 0.577452 17.8823 1.18011 18.0242L20.6395 22.6081L3.6384 12.0895C3.11186 11.7637 3.02686 11.0321 3.46466 10.5942L10.5942 3.46469C11.032 3.02688 11.7637 3.11189 12.0894 3.63842L22.6081 20.6396L18.0242 1.18011C17.8823 0.577454 18.3395 9.35587e-07 18.9586 8.8146e-07L29.0414 0C29.6606 0 30.1178 0.577452 29.9758 1.18011ZM24 26.743C25.5149 26.743 26.743 25.5149 26.743 24C26.743 22.4852 25.5149 21.2571 24 21.2571C22.4852 21.2571 21.2571 22.4852 21.2571 24C21.2571 25.5149 22.4852 26.743 24 26.743Z" fill="black"/>
</svg>
