<svg width="48" height="48" viewBox="0 0 48 48" fill="none" xmlns="http://www.w3.org/2000/svg">
<path d="M24 48C22.4167 48 20.9583 47.6042 19.625 46.8125C18.3333 46.0625 17.2917 45.0418 16.5 43.7501C15.75 42.4166 15.375 40.9584 15.375 39.3749C15.375 37.375 15.8333 35.7084 16.75 34.375C17.6667 33.0418 19.0833 31.4791 21 29.6875C22.4167 28.3958 23.125 27.1666 23.125 25.9999V24.875H22C20.7083 24.875 18.9375 26.1667 16.6875 28.7501C14.4792 31.3334 11.7917 32.6249 8.625 32.6249C7.04167 32.6249 5.58334 32.25 4.24999 31.5C2.95834 30.7082 1.91667 29.6666 1.125 28.375C0.375 27.0418 0 25.5833 0 24C0 22.4167 0.375 20.9792 1.125 19.6875C1.91667 18.3542 2.95834 17.3125 4.24999 16.5625C5.58334 15.7708 7.04167 15.375 8.625 15.375C11.75 15.375 14.4167 16.6458 16.625 19.1875C18.8333 21.7292 20.625 23 22 23H23.125V22C23.125 20.8333 22.4167 19.6042 21 18.3125L19.5625 17C18.5208 16.0417 17.5625 14.8958 16.6875 13.5625C15.8125 12.1875 15.375 10.5417 15.375 8.625C15.375 7.04167 15.75 5.60417 16.5 4.31251C17.2917 2.97917 18.3333 1.9375 19.625 1.1875C20.9583 0.395832 22.4167 0 24 0C25.5833 0 27.0209 0.395832 28.3126 1.1875C29.6458 1.97916 30.6876 3.02083 31.4376 4.31251C32.2291 5.60417 32.6249 7.04167 32.6249 8.625C32.6249 11.75 31.3541 14.4167 28.8125 16.625C26.2709 18.8333 25.0001 20.625 25.0001 22V23H25.9999C27.4166 23 29.2082 21.7292 31.375 19.1875C33.4999 16.6458 36.1666 15.375 39.3751 15.375C40.9584 15.375 42.3958 15.7708 43.6874 16.5625C45.0209 17.3125 46.0625 18.3333 46.8125 19.625C47.6042 20.9167 48 22.375 48 24C48 25.5833 47.6042 27.0418 46.8125 28.375C46.0625 29.6666 45.0209 30.7082 43.6874 31.5C42.3958 32.25 40.9584 32.6249 39.3751 32.6249C37.4167 32.6249 35.7293 32.1458 34.3126 31.1875C32.9376 30.2292 31.3958 28.8334 29.6875 27C28.3958 25.5833 27.1666 24.875 25.9999 24.875H25.0001V25.9999C25.0001 27.5417 26.2709 29.3333 28.8125 31.375C31.3541 33.4166 32.6249 36.0833 32.6249 39.3749C32.6249 40.9584 32.2291 42.4166 31.4376 43.7501C30.6876 45.0418 29.6666 46.0625 28.375 46.8125C27.0833 47.6042 25.625 48 24 48Z" fill="black"/>
</svg>
