<svg width="40" height="40" viewBox="0 0 40 40" fill="none" xmlns="http://www.w3.org/2000/svg">
<path d="M20 40C18.6806 40 17.4653 39.6702 16.3542 39.0104C15.2778 38.3854 14.4097 37.5348 13.75 36.4584C13.125 35.3472 12.8125 34.132 12.8125 32.8124C12.8125 31.1458 13.1944 29.757 13.9583 28.6458C14.7222 27.5348 15.9028 26.2326 17.5 24.7396C18.6806 23.6632 19.2708 22.6388 19.2708 21.6666V20.7292H18.3333C17.2569 20.7292 15.7812 21.8056 13.9062 23.9584C12.066 26.1112 9.82638 27.1874 7.1875 27.1874C5.86806 27.1874 4.65278 26.875 3.54166 26.25C2.46528 25.5902 1.59722 24.7222 0.9375 23.6458C0.3125 22.5348 0 21.3194 0 20C0 18.6806 0.3125 17.4826 0.9375 16.4062C1.59722 15.2951 2.46528 14.4271 3.54166 13.8021C4.65278 13.1424 5.86806 12.8125 7.1875 12.8125C9.79166 12.8125 12.0139 13.8715 13.8542 15.9896C15.6944 18.1076 17.1875 19.1667 18.3333 19.1667H19.2708V18.3333C19.2708 17.3611 18.6806 16.3368 17.5 15.2604L16.3021 14.1667C15.434 13.3681 14.6354 12.4132 13.9062 11.3021C13.1771 10.1562 12.8125 8.78472 12.8125 7.1875C12.8125 5.86806 13.125 4.67014 13.75 3.59376C14.4097 2.48264 15.2778 1.61458 16.3542 0.989582C17.4653 0.32986 18.6806 0 20 0C21.3194 0 22.5174 0.32986 23.5938 0.989582C24.7048 1.6493 25.573 2.51736 26.198 3.59376C26.8576 4.67014 27.1874 5.86806 27.1874 7.1875C27.1874 9.79166 26.1284 12.0139 24.0104 13.8542C21.8924 15.6944 20.8334 17.1875 20.8334 18.3333V19.1667H21.6666C22.8472 19.1667 24.3402 18.1076 26.1458 15.9896C27.9166 13.8715 30.1388 12.8125 32.8126 12.8125C34.132 12.8125 35.3298 13.1424 36.4062 13.8021C37.5174 14.4271 38.3854 15.2778 39.0104 16.3542C39.6702 17.4306 40 18.6458 40 20C40 21.3194 39.6702 22.5348 39.0104 23.6458C38.3854 24.7222 37.5174 25.5902 36.4062 26.25C35.3298 26.875 34.132 27.1874 32.8126 27.1874C31.1806 27.1874 29.7744 26.7882 28.5938 25.9896C27.448 25.191 26.1632 24.0278 24.7396 22.5C23.6632 21.3194 22.6388 20.7292 21.6666 20.7292H20.8334V21.6666C20.8334 22.9514 21.8924 24.4444 24.0104 26.1458C26.1284 27.8472 27.1874 30.0694 27.1874 32.8124C27.1874 34.132 26.8576 35.3472 26.198 36.4584C25.573 37.5348 24.7222 38.3854 23.6458 39.0104C22.5694 39.6702 21.3542 40 20 40Z" fill="white"/>
</svg>
