<svg width="40" height="40" viewBox="0 0 40 40" fill="none" xmlns="http://www.w3.org/2000/svg">
<path fill-rule="evenodd" clip-rule="evenodd" d="M24.9798 0.983426L21.16 17.1996L29.9254 3.032C30.197 2.59322 30.8066 2.52238 31.1714 2.88722L37.1128 8.82854C37.4776 9.19338 37.4068 9.80306 36.968 10.0745L22.8004 18.8401L39.0166 15.0202C39.5188 14.9019 40 15.2829 40 15.7989V24.2012C40 24.7172 39.5188 25.0982 39.0166 24.9798L22.8004 21.16L36.968 29.9256C37.4068 30.197 37.4776 30.8066 37.1128 31.1716L31.1714 37.1128C30.8066 37.4776 30.197 37.4068 29.9254 36.968L21.16 22.8004L24.9798 39.0166C25.0982 39.5188 24.717 40 24.2012 40H15.7989C15.2829 40 14.9019 39.5188 15.0202 39.0166L18.8401 22.8004L10.0745 36.968C9.80306 37.4068 9.19336 37.4776 8.82852 37.1128L2.88722 31.1714C2.52238 30.8066 2.59322 30.197 3.032 29.9254L17.1995 21.16L0.983428 24.9798C0.481212 25.0982 0 24.7172 0 24.2012V15.7989C3.89828e-07 15.2829 0.48121 14.9019 0.983428 15.0202L17.1996 18.8401L3.032 10.0746C2.59322 9.80308 2.52238 9.19338 2.88722 8.82854L8.82852 2.88724C9.19336 2.5224 9.80306 2.59324 10.0745 3.03202L18.8401 17.1997L15.0202 0.983428C14.9019 0.481212 15.2829 7.79656e-07 15.7989 7.3455e-07L24.2012 0C24.7172 0 25.0982 0.48121 24.9798 0.983426ZM20 22.2858C21.2624 22.2858 22.2858 21.2624 22.2858 20C22.2858 18.7376 21.2624 17.7143 20 17.7143C18.7376 17.7143 17.7143 18.7376 17.7143 20C17.7143 21.2624 18.7376 22.2858 20 22.2858Z" fill="white"/>
</svg>
