<svg width="104" height="104" viewBox="0 0 104 104" fill="none" xmlns="http://www.w3.org/2000/svg">
<path fill-rule="evenodd" clip-rule="evenodd" d="M49.6 18.9C43.7 18.9 38.2 20.5 33.4 23.2L29.3 17.8C29.1 17.6 28.8 17.4 28.5 17.4H19.7C19.3 16 18 15 16.4 15C14.5 15 13 16.5 13 18.4C13.1 22.3 18.6 23.1 19.7 19.4H28L31.7 24.3C5.10001 42 17.2 83.8 49.6 84.1C50.2 84.1 50.6 83.7 50.6 83.1V19.9C50.6 19.4 50.2 18.9 49.6 18.9ZM48.6 82.1C18.7 80.9 8.09996 42.2 32.9 25.9L40.1 35.4C40.9 36.4 42.5 35.2 41.7 34.2L34.6 24.9C38.8 22.5 43.5 21.1 48.6 21V82.1ZM55.5 49.5999H84.2C84.8 49.5999 85.2 49.1999 85.2 48.5999C85.3 32.5999 71.8 18.8 55.5 18.9C54.9 18.9 54.5 19.3 54.5 19.9V48.5999C54.5 49.0999 54.9 49.5999 55.5 49.5999ZM83.1 47.5999H76.8L82.3 42.0999C82.8 43.7999 83.1 45.6999 83.1 47.5999ZM81.7 39.8999L74 47.5999H67.3L79.7 35.2C80.5 36.7 81.2 38.1999 81.7 39.8999ZM78.6 33.4L64.5 47.5H57.8L75.7 29.5999C76.7 30.7999 77.7 32.1 78.6 33.4ZM56.5 20.9C58.3 21 60.1 21.1999 61.8 21.5999L56.5 26.9V20.9ZM56.5 29.6999L64 22.1999C65.6 22.6999 67.2 23.3999 68.7 24.1999L56.5 36.3999V29.6999ZM56.5 39.2999L70.5 25.2999C71.8 26.1999 73.1 27.1999 74.3 28.1999L56.5 46V39.2999ZM84.3984 83.4999C84.8984 82.0999 86.1985 81.0999 87.6985 81.0999C92.1985 81.2999 92.1984 87.8999 87.5984 87.9999C85.9985 87.9999 84.6985 86.9999 84.2985 85.5999H75.4985C75.1985 85.5999 74.8985 85.3999 74.6985 85.2L70.6985 79.8999C66.1985 82.4999 60.9984 84.0999 55.3984 84.0999C54.7984 84.0999 54.3984 83.6999 54.3984 83.0999V54.3999C54.3984 53.7999 54.7984 53.3999 55.3984 53.3999H84.0984C84.6984 53.3999 85.0984 53.7999 85.0984 54.3999C85.0984 64.3999 80.0984 73.2999 72.3984 78.7L76.0984 83.4999H84.3984Z" fill="#F04C23"/>
</svg>
