<svg width="104" height="104" viewBox="0 0 104 104" fill="none" xmlns="http://www.w3.org/2000/svg">
<path fill-rule="evenodd" clip-rule="evenodd" d="M50.1468 14.5858C50.1298 14.5868 50.1128 14.5868 50.0958 14.5868C49.5668 14.5868 49.1238 14.1718 49.0978 13.6368L48.7708 7.04981C48.7428 6.49881 49.1678 6.02878 49.7198 6.00178C50.2708 5.96878 50.7408 6.39882 50.7688 6.95082L51.0958 13.5378C51.1238 14.0888 50.6988 14.5588 50.1468 14.5858ZM55.1782 21.5778C55.2902 21.6188 55.4072 21.6388 55.5202 21.6388C55.9282 21.6388 56.3122 21.3868 56.4592 20.9798L60.7432 9.20778C60.9322 8.68878 60.6652 8.1148 60.1452 7.9258C59.6292 7.7378 59.0522 8.00582 58.8642 8.52382L54.5802 20.2958C54.3912 20.8148 54.6582 21.3888 55.1782 21.5778ZM45.0628 19.8729C44.7228 19.8729 44.3907 19.6988 44.2027 19.3848L40.0118 12.3509C39.7298 11.8759 39.8848 11.2629 40.3598 10.9799C40.8338 10.6959 41.4478 10.8529 41.7308 11.3269L45.9217 18.3609C46.2037 18.8359 46.0488 19.4488 45.5738 19.7318C45.4138 19.8278 45.2368 19.8729 45.0628 19.8729ZM75.3124 67.0088L88.3854 88.4787L88.3864 88.4808C88.6734 88.9528 88.5244 89.5678 88.0524 89.8548C87.5774 90.1438 86.9654 89.9927 86.6774 89.5207L74.1274 68.9098L58.1134 78.8008L66.1404 92.0898C66.4264 92.5628 66.2754 93.1768 65.8014 93.4628C65.6394 93.5608 65.4614 93.6067 65.2854 93.6067C64.9474 93.6067 64.6174 93.4348 64.4294 93.1238L55.8894 78.9878C55.6054 78.5178 55.7524 77.9077 56.2194 77.6197L58.5464 76.1828L52.1904 64.4978C51.7584 65.5628 51.3654 66.4338 51.0364 67.0028L45.1564 77.1897L46.7664 78.3288C46.9884 78.4848 47.1354 78.7237 47.1774 78.9917C47.2184 79.2598 47.1504 79.5328 46.9874 79.7488L33.3934 97.7118C33.1974 97.9698 32.8984 98.1078 32.5944 98.1078C32.4004 98.1078 32.2044 98.0517 32.0324 97.9347L16.4374 87.3307C15.9864 87.0237 15.8644 86.4127 16.1644 85.9557L28.7104 66.8268C28.8584 66.5998 29.0924 66.4427 29.3594 66.3927C29.6284 66.3428 29.9014 66.4028 30.1234 66.5588L31.6874 67.6648C32.6314 62.9218 32.9894 58.5698 32.7334 54.7268C32.4624 50.6478 30.9664 46.9948 28.0284 43.2298L27.9924 43.1948C25.6934 40.6858 25.1384 39.7747 25.0134 39.1797C24.8544 38.4167 25.0574 37.3288 25.8754 36.7388C26.4634 36.3148 27.5304 36.0227 29.2834 37.0387C30.0424 37.4797 30.7484 37.9678 31.4044 38.4708L28.4874 33.0698C27.6354 31.8628 27.8884 30.2308 29.0844 29.3208C30.3424 28.3628 32.1634 28.5808 33.1424 29.8028L35.4674 33.3277L33.3954 27.1348C33.0224 26.4218 32.9404 25.6108 33.1694 24.8388C33.4134 24.0108 33.9824 23.3288 34.7674 22.9188C35.5884 22.4898 36.5644 22.4177 37.4414 22.7187C38.3034 23.0137 38.9814 23.6207 39.3504 24.4267L42.3104 32.5578L42.0404 28.8058C41.9214 28.0488 42.1354 27.2198 42.6504 26.5498C43.1654 25.8788 43.9114 25.4578 44.7514 25.3648C46.4184 25.1758 47.9474 26.3858 48.1474 28.0558L49.6864 48.1008L51.3484 45.3017C52.0484 44.1977 53.8654 41.3338 56.8274 43.0998L57.3024 43.3827C58.2094 43.9237 58.6314 45.0058 58.3284 46.0138C57.4564 48.9228 55.0994 56.6578 53.1194 62.0668C53.13 62.0816 53.1425 62.0944 53.1551 62.1072C53.1722 62.1248 53.1893 62.1423 53.2014 62.1648L60.2504 75.1247L69.9824 69.1138L65.8674 58.7547C64.8044 56.0747 65.5744 53.0318 67.7854 51.1818L75.9594 44.3418C76.3944 43.9278 76.2064 43.3918 76.1374 43.2378C76.0694 43.0878 75.7954 42.6048 75.1614 42.6598C73.868 42.774 71.5405 43.9273 70.6412 44.3729L70.6234 44.3818L66.7184 46.2837C66.3034 46.4847 65.8004 46.3767 65.5064 46.0177C65.2134 45.6588 65.2044 45.1458 65.4854 44.7778L75.1624 32.1058C75.4474 31.7318 75.4384 31.2187 75.1414 30.8567C74.9444 30.6157 74.6444 30.4658 74.3434 30.4888C74.0344 30.4938 73.7504 30.6388 73.5624 30.8858L66.0684 40.3338C65.7264 40.7668 65.0964 40.8398 64.6644 40.4958C64.3304 40.2308 64.2164 39.7978 64.3364 39.4148C64.3244 39.2648 64.3364 39.1118 64.3974 38.9628L70.1664 24.7728C70.2774 24.4968 70.2094 24.2657 70.1324 24.1197C70.0024 23.8727 69.7484 23.6908 69.4364 23.6208C68.9114 23.5038 68.3384 23.7398 68.1104 24.1738L61.9814 38.1878C61.9784 38.1943 61.9739 38.1995 61.9694 38.2048C61.9649 38.21 61.9604 38.2153 61.9574 38.2218C61.9194 38.2988 61.8674 38.3638 61.8124 38.4278C61.8016 38.4402 61.7918 38.4538 61.7821 38.4674C61.7677 38.4876 61.7533 38.5076 61.7354 38.5238C61.6564 38.5948 61.5654 38.6487 61.4674 38.6927C61.4604 38.696 61.454 38.7004 61.4477 38.7047C61.4405 38.7097 61.4334 38.7146 61.4254 38.7178C61.3124 38.7618 61.1914 38.7868 61.0654 38.7868H61.0544H61.0474C61.0094 38.7858 60.9714 38.7837 60.9334 38.7787C60.9044 38.7746 60.8788 38.7638 60.8532 38.7529C60.8357 38.7455 60.8181 38.7381 60.7994 38.7328C60.7814 38.728 60.7631 38.7254 60.7448 38.7229C60.7173 38.719 60.6898 38.7152 60.6634 38.7038C60.6533 38.6995 60.6455 38.6927 60.6376 38.686C60.6307 38.68 60.6238 38.674 60.6154 38.6698C60.5524 38.6378 60.4994 38.5948 60.4454 38.5508L60.4259 38.5354C60.3843 38.5028 60.3431 38.4705 60.3094 38.4308C60.2736 38.389 60.248 38.3429 60.222 38.2962L60.2084 38.2718L60.1966 38.2509C60.1687 38.2016 60.1418 38.1542 60.1234 38.0998C60.109 38.0566 60.1032 38.0122 60.0973 37.9671C60.0955 37.9527 60.0936 37.9383 60.0914 37.9238C60.0814 37.8538 60.0724 37.7868 60.0774 37.7148C60.0776 37.7102 60.0774 37.7056 60.0769 37.7012C60.0764 37.6969 60.0758 37.6927 60.0751 37.6885C60.0734 37.6781 60.0717 37.6678 60.0734 37.6568L61.6344 25.8418C61.6434 25.7708 61.6614 25.7018 61.6844 25.6348C61.7544 25.4418 61.7054 25.2848 61.6514 25.1858C61.5554 25.0108 61.3714 24.8807 61.1444 24.8277C60.7424 24.7347 60.2994 24.9168 60.1294 25.2398L57.0214 37.9347C57.0137 37.9641 56.9995 37.9894 56.9853 38.0147L56.9852 38.0148C56.9753 38.0326 56.9652 38.0504 56.9574 38.0698C56.9521 38.0826 56.9471 38.0955 56.942 38.1083L56.942 38.1084L56.9419 38.1085L56.9419 38.1086C56.921 38.1617 56.9004 38.2143 56.8674 38.2618C56.8384 38.3044 56.8017 38.3387 56.7644 38.3734L56.7644 38.3734L56.7543 38.3829L56.7374 38.3988C56.7285 38.4077 56.7198 38.4166 56.7111 38.4255C56.6747 38.4628 56.6388 38.4997 56.5944 38.5287C56.5469 38.5596 56.4957 38.5786 56.4432 38.598L56.4426 38.5982C56.429 38.6033 56.4152 38.6084 56.4014 38.6138C56.3943 38.6166 56.3875 38.6197 56.3807 38.623C56.3703 38.6281 56.3601 38.6335 56.35 38.639C56.3229 38.6535 56.2959 38.668 56.2644 38.6748C56.2599 38.6758 56.2555 38.6753 56.2509 38.6748C56.2462 38.6743 56.2414 38.6738 56.2364 38.6748C56.1843 38.6855 56.1305 38.6827 56.0763 38.68C56.0597 38.6791 56.043 38.6783 56.0264 38.6778C56.0071 38.6772 55.9878 38.6774 55.9687 38.6777C55.9261 38.6782 55.8841 38.6787 55.8434 38.6698C55.8412 38.6696 55.8391 38.6696 55.837 38.6696L55.8305 38.6699C55.8244 38.6702 55.8184 38.6705 55.8124 38.6688C55.7776 38.6605 55.7481 38.6439 55.7184 38.6273C55.7011 38.6176 55.6838 38.6079 55.6654 38.5998C55.6516 38.594 55.6377 38.5885 55.624 38.583C55.5761 38.5639 55.5291 38.5453 55.4864 38.5157C55.442 38.4856 55.4064 38.4473 55.3706 38.4088L55.3705 38.4087C55.3612 38.3987 55.3519 38.3887 55.3424 38.3788L55.3275 38.3638L55.3107 38.3473C55.2777 38.315 55.2451 38.2831 55.2194 38.2438C55.1831 38.1879 55.1609 38.1266 55.1382 38.064L55.1294 38.0398C55.1227 38.0208 55.1134 38.0035 55.1043 37.9863C55.0917 37.9625 55.0792 37.939 55.0734 37.9118L53.4274 30.3968C53.4034 30.2928 53.3974 30.1858 53.4094 30.0798L53.4095 30.078C53.4117 30.0524 53.4177 29.9819 53.3474 29.9018C53.2724 29.8158 53.1504 29.7628 53.0104 29.7588C52.8274 29.7428 52.6294 29.8538 52.5564 29.9758L52.7684 40.8208C52.7794 41.3738 52.3404 41.8298 51.7884 41.8407H51.7684C51.2244 41.8407 50.7794 41.4058 50.7684 40.8608L50.5534 29.8307C50.5514 29.7417 50.5624 29.6537 50.5834 29.5677C50.8554 28.4817 51.8914 27.7178 53.0754 27.7598C53.7674 27.7828 54.4154 28.0848 54.8544 28.5878C55.2284 29.0168 55.4224 29.5498 55.4094 30.1048L56.1034 33.2738L58.2084 24.6748C58.2214 24.6258 58.2364 24.5768 58.2564 24.5298C58.7784 23.2698 60.2164 22.5608 61.5964 22.8818C62.3804 23.0638 63.0394 23.5548 63.4074 24.2308C63.7414 24.8438 63.8094 25.5378 63.6054 26.1998L62.9824 30.9148L66.3094 23.3108C66.9844 22.0198 68.4744 21.3568 69.8734 21.6728C70.7574 21.8718 71.4974 22.4248 71.9014 23.1908C72.2814 23.9128 72.3254 24.7628 72.0214 25.5238L68.6104 33.9148L71.9824 29.6637C72.5284 28.9437 73.3794 28.5098 74.3054 28.4917C75.2254 28.4847 76.0994 28.8747 76.6874 29.5907C77.5754 30.6727 77.6034 32.2078 76.7524 33.3218L69.6354 42.6427L69.7354 42.5937L69.7424 42.5903L69.7425 42.5902C70.9042 42.0139 73.3118 40.8194 74.9864 40.6717C76.2784 40.5587 77.4354 41.2467 77.9624 42.4217C78.4954 43.6077 78.2304 44.9488 77.2884 45.8388L69.0694 52.7187C67.5214 54.0127 66.9824 56.1438 67.7274 58.0188L71.7124 68.0488L73.9324 66.6778C74.1604 66.5378 74.4324 66.4948 74.6914 66.5558C74.9504 66.6188 75.1734 66.7808 75.3124 67.0088ZM43.5174 76.0278L49.3044 66.0008L49.3064 66.0018C50.7544 63.4948 53.9284 53.7377 56.4154 45.4427C56.4554 45.3117 56.4004 45.1768 56.2804 45.1048L55.8044 44.8218L55.8041 44.8216C55.1702 44.4427 54.5152 44.0511 53.0534 46.3528L49.7924 51.8458C49.5704 52.2198 49.1354 52.4108 48.7054 52.3088C48.2804 52.2098 47.9684 51.8468 47.9354 51.4118L46.1584 28.2558C46.0924 27.7138 45.5644 27.2908 44.9734 27.3558C44.6794 27.3888 44.4194 27.5357 44.2384 27.7707C44.0584 28.0047 43.9834 28.2958 44.0274 28.5878L44.8204 39.5628C44.8209 39.5732 44.8187 39.583 44.8165 39.593C44.8145 39.6023 44.8124 39.6117 44.8124 39.6218C44.8134 39.6919 44.8001 39.7574 44.7864 39.8246L44.7854 39.8298L44.7791 39.8614C44.7698 39.9098 44.7605 39.9576 44.7424 40.0028C44.7197 40.0583 44.6886 40.1055 44.6561 40.155L44.6464 40.1698L44.6305 40.1941C44.6013 40.2389 44.5727 40.2828 44.5354 40.3218C44.502 40.3568 44.4629 40.3842 44.4231 40.412L44.4231 40.4121L44.4075 40.423L44.3924 40.4338C44.3354 40.4748 44.2804 40.5137 44.2154 40.5417C44.2069 40.5458 44.1996 40.5512 44.1924 40.5566C44.1834 40.5633 44.1744 40.5699 44.1634 40.5738C44.1369 40.5838 44.11 40.5858 44.0832 40.5879H44.0832C44.0645 40.5893 44.0459 40.5907 44.0274 40.5948C44.0088 40.5988 43.9912 40.6051 43.9737 40.6114C43.9478 40.6207 43.922 40.63 43.8934 40.6318C43.8824 40.6323 43.8722 40.6301 43.862 40.6278C43.8527 40.6258 43.8434 40.6238 43.8334 40.6238C43.7594 40.6248 43.6894 40.6108 43.6174 40.5948C43.6034 40.5916 43.5896 40.5888 43.5758 40.586C43.5371 40.5782 43.4992 40.5705 43.4624 40.5558C43.3914 40.5278 43.3304 40.4868 43.2674 40.4438C43.2556 40.4355 43.2437 40.4277 43.2319 40.4199L43.2319 40.4198C43.2007 40.3992 43.17 40.3789 43.1424 40.3528C43.0947 40.3079 43.0584 40.2551 43.0211 40.201L43.0134 40.1897L43.0124 40.1884C42.9758 40.1369 42.9412 40.0883 42.9154 40.0298C42.9112 40.0204 42.9052 40.0124 42.8993 40.0043C42.8925 39.9952 42.8857 39.986 42.8814 39.9748L37.5004 25.1868C37.3924 24.9578 37.1294 24.7277 36.7914 24.6117C36.4294 24.4887 36.0264 24.5177 35.6914 24.6927C35.3914 24.8487 35.1764 25.1028 35.0864 25.4068C35.0034 25.6868 35.0394 25.9838 35.1854 26.2428C35.2164 26.2978 35.2424 26.3568 35.2634 26.4178L39.7874 39.9438C39.7924 39.9571 39.7928 39.9701 39.7931 39.983C39.7934 39.9933 39.7937 40.0035 39.7964 40.0138C39.8134 40.0818 39.8184 40.1467 39.8214 40.2157L39.8221 40.2308C39.825 40.2883 39.8277 40.3437 39.8194 40.4007C39.8104 40.4637 39.7904 40.5218 39.7694 40.5818L39.768 40.5859L39.768 40.5859C39.7475 40.6455 39.7277 40.703 39.6964 40.7577C39.6668 40.8084 39.6289 40.8518 39.5898 40.8966L39.5844 40.9028C39.5394 40.9558 39.4944 41.0048 39.4384 41.0478C39.4297 41.0546 39.4229 41.0627 39.4162 41.0707C39.4082 41.0803 39.4003 41.0897 39.3894 41.0968C39.3677 41.1115 39.3435 41.1192 39.3194 41.127C39.3024 41.1325 39.2855 41.1379 39.2694 41.1457C39.2539 41.1537 39.2397 41.1634 39.2257 41.1731L39.2256 41.1731C39.2044 41.1878 39.1833 41.2023 39.1574 41.2107C39.1427 41.2156 39.1281 41.217 39.1136 41.2183C39.1014 41.2194 39.0893 41.2205 39.0774 41.2237C39.0324 41.2347 38.9904 41.2408 38.9454 41.2458C38.93 41.2471 38.9145 41.2505 38.8989 41.254C38.879 41.2583 38.8591 41.2627 38.8394 41.2627C38.8116 41.2627 38.7853 41.2572 38.7589 41.2515C38.7436 41.2483 38.7282 41.245 38.7124 41.2428L38.6885 41.2399L38.6884 41.2399C38.658 41.2362 38.6283 41.2327 38.5974 41.2248C38.5054 41.2018 38.4204 41.1647 38.3384 41.1167C38.3291 41.1112 38.3193 41.1069 38.3095 41.1026L38.3095 41.1026C38.2983 41.0976 38.2871 41.0927 38.2764 41.0857C38.1774 41.0177 38.0934 40.9317 38.0234 40.8307C38.0211 40.8275 38.0181 40.8251 38.0151 40.8227L38.0151 40.8227C38.0116 40.8199 38.0081 40.8171 38.0054 40.8128L31.5264 30.9798C31.2784 30.6768 30.6904 30.6127 30.2954 30.9137C29.9584 31.1697 29.8904 31.6098 30.1364 31.9368C30.1654 31.9758 30.1934 32.0178 30.2164 32.0618L36.6444 43.9648C36.6644 44.0008 36.6731 44.0394 36.6819 44.078L36.6819 44.078C36.6868 44.0994 36.6916 44.1208 36.6984 44.1418C36.7033 44.1568 36.7087 44.1716 36.714 44.1862C36.727 44.222 36.7397 44.2571 36.7454 44.2948C36.7552 44.36 36.7507 44.4219 36.7461 44.4857L36.7444 44.5088C36.7434 44.5229 36.7427 44.5369 36.7421 44.5509V44.5509V44.551C36.74 44.5935 36.7379 44.6357 36.7274 44.6778C36.7143 44.7303 36.6917 44.7774 36.6686 44.8258L36.6534 44.8578L36.6396 44.8878C36.618 44.9354 36.5968 44.9819 36.5654 45.0257C36.5376 45.0643 36.5028 45.0957 36.4672 45.1278L36.4671 45.1278C36.4566 45.1374 36.4459 45.1469 36.4354 45.1568C36.4204 45.171 36.407 45.1866 36.3935 45.2023C36.371 45.2285 36.3484 45.2547 36.3184 45.2748C36.3105 45.28 36.3018 45.2828 36.2931 45.2856C36.2893 45.2868 36.2855 45.288 36.2818 45.2894C36.2779 45.2909 36.2741 45.2926 36.2704 45.2948C36.2644 45.2983 36.2597 45.3028 36.2549 45.3072L36.2549 45.3073L36.2549 45.3073C36.2501 45.3118 36.2454 45.3163 36.2394 45.3198C36.1554 45.3648 36.0674 45.3937 35.9784 45.4137C35.9567 45.4185 35.9354 45.4205 35.9137 45.4225L35.8941 45.4245L35.8824 45.4258C35.8678 45.4273 35.8532 45.4296 35.8386 45.4319C35.8142 45.4358 35.7898 45.4397 35.7654 45.4397C35.7395 45.4397 35.7144 45.4351 35.6894 45.4305L35.6894 45.4305L35.6766 45.4282L35.6596 45.4254L35.6484 45.4238C35.6361 45.4223 35.624 45.4211 35.612 45.42C35.5839 45.4174 35.5564 45.4148 35.5284 45.4078C35.4294 45.3838 35.3344 45.3447 35.2464 45.2917C35.2242 45.278 35.205 45.2618 35.1858 45.2455L35.1857 45.2455C35.1754 45.2368 35.1652 45.2281 35.1544 45.2198C35.0924 45.1718 35.0374 45.1168 34.9874 45.0538C34.9795 45.0436 34.9701 45.0357 34.9608 45.028L34.9608 45.028C34.9501 45.019 34.9394 45.0101 34.9314 44.9978C34.9054 44.9588 32.2974 41.1038 28.2794 38.7668C27.3955 38.2536 27.0743 38.3504 27.0481 38.3583L27.0464 38.3588C26.9974 38.3978 26.9414 38.6188 26.9724 38.7688C27.0124 38.8768 27.3374 39.5168 29.4684 41.8418L29.5564 41.9378C32.8024 46.0928 34.4314 50.0948 34.7314 54.5918C35.0134 58.8478 34.5914 63.6707 33.4754 68.9267L43.5174 76.0278ZM20.1569 56.8158C22.4469 56.8158 24.3089 54.9528 24.3089 52.6628C24.3089 50.3728 22.4469 48.5098 20.1569 48.5098C17.8669 48.5098 16.0039 50.3728 16.0039 52.6628C16.0039 54.9528 17.8669 56.8158 20.1569 56.8158ZM20.1569 50.5098C21.3439 50.5098 22.3089 51.4758 22.3089 52.6628C22.3089 53.8498 21.3429 54.8158 20.1569 54.8158C18.9709 54.8158 18.0039 53.8498 18.0039 52.6628C18.0039 51.4758 18.9699 50.5098 20.1569 50.5098ZM79.1037 51.1898C79.1487 50.9178 79.3047 50.6768 79.5337 50.5228C79.7627 50.3698 80.0467 50.3168 80.3147 50.3788L84.9717 51.4528L85.7907 46.8328C85.8867 46.2898 86.3977 45.9288 86.9497 46.0228C87.4937 46.1198 87.8567 46.6389 87.7597 47.1828L86.7567 52.8389C86.7087 53.1079 86.5527 53.3469 86.3237 53.4979C86.0947 53.6499 85.8137 53.6998 85.5477 53.6388L80.9017 52.5678L80.2397 56.5598C80.1587 57.0488 79.7347 57.3958 79.2547 57.3958C79.2007 57.3958 79.1457 57.3908 79.0907 57.3818C78.5457 57.2918 78.1767 56.7768 78.2677 56.2318L79.1037 51.1898ZM19.413 29.9368C20.746 29.9368 21.826 28.8569 21.826 27.5239C21.826 26.1909 20.746 25.1108 19.413 25.1108C18.08 25.1108 17 26.1909 17 27.5239C17 28.8569 18.08 29.9368 19.413 29.9368ZM81.6445 21.4198C81.6445 22.5244 80.7491 23.4198 79.6445 23.4198C78.5399 23.4198 77.6445 22.5244 77.6445 21.4198C77.6445 20.3152 78.5399 19.4198 79.6445 19.4198C80.7491 19.4198 81.6445 20.3152 81.6445 21.4198Z" fill="#F04C23"/>
</svg>
