<svg width="104" height="104" viewBox="0 0 104 104" fill="none" xmlns="http://www.w3.org/2000/svg">
<path fill-rule="evenodd" clip-rule="evenodd" d="M67.4718 35.3004C75.6138 43.7224 79.0588 51.8074 77.7668 59.3944C80.8038 57.1344 85.4378 59.4844 85.3458 63.3234C85.3438 64.6074 84.8408 65.8114 83.9308 66.7154L69.1318 81.5144C66.9708 83.6764 64.0988 84.8654 61.0448 84.8654H32.7218V88.9404C32.7218 89.4904 32.2818 89.9404 31.7218 89.9404H18.0018C17.4378 89.9524 16.9668 89.4314 17.0018 88.8804L19.0918 55.6404C19.1218 55.1104 19.5618 54.7004 20.0918 54.7004H31.7218C32.2818 54.7004 32.7218 55.1504 32.7218 55.7004V59.2234H35.1808C34.6058 50.5004 38.7748 42.1614 45.0508 35.3004H43.7718C43.2218 35.3004 42.7718 34.8504 42.7718 34.3004V29.8304C42.7718 29.2804 43.2218 28.8304 43.7718 28.8304H45.1068C43.9538 27.2914 40.1008 19.9754 43.6478 20.7304C43.6938 20.7544 47.7228 22.7504 51.8838 22.8054C49.9458 20.0264 49.7898 16.2294 49.7828 16.0354C49.7458 15.4264 50.3368 14.9094 50.9338 15.0134C55.0098 15.6394 66.3748 16.8784 69.9768 15.1044C70.3158 14.9394 70.7198 14.9764 71.0218 15.2044C71.3228 15.4334 71.4698 15.8124 71.4018 16.1834C71.3448 16.4894 70.0868 23.1414 66.9038 28.8314C66.9978 28.8447 67.254 28.8387 67.5669 28.8315C68.2425 28.8158 69.1826 28.794 69.3268 28.9464L72.9858 25.6024C73.9688 24.7164 75.2848 26.2064 74.3358 27.0784L69.8708 31.1584V32.2914L76.1118 36.9914C76.5528 37.3234 76.6408 37.9504 76.3088 38.3914C75.9748 38.8344 75.3458 38.9184 74.9088 38.5884L69.7718 34.7194C69.5078 35.3675 68.7419 35.3331 68.0784 35.3032C67.8574 35.2933 67.6478 35.2839 67.4718 35.3004ZM24.8608 85.4294C21.4188 85.3404 21.4198 80.2984 24.8608 80.2094C28.3028 80.2984 28.3018 85.3404 24.8608 85.4294ZM56.4208 24.0344C52.7078 25.6634 47.0498 24.3364 44.4908 23.2674V23.2684C44.9638 24.7754 46.0028 26.6834 47.5238 28.8304H64.5888C67.0308 24.8784 68.4428 20.0184 69.0598 17.5044C64.1438 18.6304 55.2368 17.6164 51.9098 17.1714C52.1338 18.6554 52.7488 21.1404 54.3398 22.5734C55.2348 22.3784 56.0538 22.0714 56.7678 21.6424C57.5328 21.1464 58.5578 21.9864 58.2248 22.8334C58.225 22.832 58.225 22.8322 58.2249 22.8339C58.224 22.8721 58.2041 23.6994 59.2528 25.6934C59.8458 26.8694 58.1128 27.7764 57.4828 26.6254C56.9148 25.5444 56.5928 24.6944 56.4208 24.0344ZM47.8698 35.2994C42.2898 40.6094 38.3578 47.7294 37.3288 54.4264V54.4244C37.0738 56.0814 37.0358 57.6864 37.1918 59.2204H40.5438C43.9408 59.2204 47.1358 60.5444 49.5388 62.9474L51.7198 65.1284H64.8338C66.7468 65.1284 68.3918 66.2894 69.1098 67.9414L74.9988 62.0464C75.1228 61.7444 75.2358 61.4294 75.3378 61.0824C77.6998 53.1904 74.0958 44.5184 64.6448 35.2994H47.8698ZM67.7178 80.0994L82.5188 65.2974V65.2994C85.0908 62.6174 81.2148 58.7764 78.5468 61.3274L76.6088 63.2674L69.4348 70.4494C69.1628 72.6984 67.1228 74.4954 64.8348 74.4584H50.1168C48.7978 74.4374 48.8088 72.4764 50.1168 72.4584H64.8348C66.2768 72.4874 67.5248 71.2254 67.4988 69.7944C67.4988 68.3254 66.3038 67.1304 64.8348 67.1304H51.3068C51.0418 67.1304 50.7878 67.0254 50.5998 66.8374L48.1258 64.3634C46.0998 62.3374 43.4078 61.2224 40.5448 61.2224C39.695 61.2228 38.4667 61.2225 37.1912 61.2222H37.1855H37.1803C35.5337 61.2217 33.8102 61.2213 32.7218 61.2224V82.8644H61.0448C63.5648 82.8644 65.9348 81.8824 67.7178 80.0994ZM37.0828 35.9156C33.2558 35.9156 30.1528 39.0186 30.1528 42.8456C30.1528 39.0186 27.0498 35.9156 23.2228 35.9156C27.0498 35.9156 30.1528 32.8136 30.1528 28.9856C30.1528 32.8126 33.2558 35.9156 37.0828 35.9156ZM82.4546 47.0214C82.4546 44.9864 84.1046 43.3364 86.1396 43.3364C84.1046 43.3364 82.4546 41.6864 82.4546 39.6514C82.4546 41.6864 80.8046 43.3364 78.7696 43.3364C80.8046 43.3364 82.4546 44.9864 82.4546 47.0214ZM51.9689 58.4264H58.4188C60.7019 58.3864 60.6998 55.1134 58.4188 55.0744H54.7339C49.7969 54.9184 49.7969 47.8784 54.7339 47.7225H55.5769V45.3274C55.5769 44.7744 56.0249 44.3274 56.5769 44.3274C57.1289 44.3274 57.5769 44.7744 57.5769 45.3274V47.7225H60.1499C61.4659 47.7435 61.4609 49.7034 60.1499 49.7225H54.7339C53.7769 49.7225 52.9978 50.4744 52.9978 51.3984C52.9978 52.3224 53.7769 53.0744 54.7339 53.0744H58.4188C63.8998 53.4634 63.0929 61.0114 57.5769 60.4264V62.8214C57.5769 63.3745 57.1289 63.8214 56.5769 63.8214C56.0249 63.8214 55.5769 63.3745 55.5769 62.8214V60.4264H51.9689C51.4169 60.4264 50.9689 59.9794 50.9689 59.4264C50.9689 58.8734 51.4169 58.4264 51.9689 58.4264Z" fill="#F04C23"/>
</svg>
