<svg width="104" height="104" viewBox="0 0 104 104" fill="none" xmlns="http://www.w3.org/2000/svg">
<path d="M85.7395 56.1412C85.4395 55.9612 85.0695 55.9512 84.7595 56.1112C83.9195 56.5512 83.0495 56.8712 82.1495 57.0512C82.6495 54.7712 82.9195 52.3912 82.9195 49.9512C83.0135 38.1822 76.3345 26.9452 66.2295 21.2812C55.7425 14.9572 40.6515 15.7322 30.9095 22.9912C8.76951 38.4842 14.0445 73.0842 39.7495 81.3412C46.4095 83.5892 54.4695 83.4612 61.0395 81.0112C62.0795 82.1712 63.3095 83.1712 64.6895 83.9712L71.1395 87.7012C71.2895 87.7912 71.4695 87.8312 71.6395 87.8312C71.8095 87.8312 71.9795 87.7912 72.1395 87.7012L78.5895 83.9712C83.2995 81.2412 86.2195 76.1712 86.2195 70.7212V57.0012C86.2195 56.6512 86.0395 56.3212 85.7395 56.1412ZM65.5955 23.2112C71.9485 26.9432 76.8545 32.8772 79.2725 39.9592C76.9755 39.8492 74.9405 41.1762 73.4595 42.7522C70.4955 46.1152 63.6425 47.8242 61.3375 42.9312C60.2825 40.3332 61.4635 37.1662 64.0045 35.9082C65.1105 35.4452 66.7485 35.3462 67.1185 33.6552C67.4385 32.0572 65.9965 31.0022 64.6035 29.9822C61.5025 27.7262 60.9945 26.8072 65.5955 23.2122V23.2112ZM31.4685 25.0522C34.2255 28.1412 38.0855 28.7862 41.4655 27.5542C42.9485 27.1422 43.5925 27.0162 43.9935 27.4512C44.8085 28.2172 45.2755 30.5722 44.4225 31.4152C43.1425 32.3952 42.3555 33.3992 41.2975 34.3802C40.0085 35.5282 40.7365 37.2422 41.3785 38.7532C42.1585 40.5892 42.6465 41.9732 41.8215 43.0672C41.1435 43.9702 39.3035 44.1212 38.6065 44.1772C37.2585 44.2912 36.1915 43.9692 35.3325 43.7092C34.4105 43.4302 33.4565 43.1422 32.7905 43.9372C32.0705 44.8122 32.6915 45.7772 33.2385 46.6282C35.4765 49.4572 34.0135 52.3242 31.3355 54.2802C30.1765 55.0902 29.2275 55.2802 28.8045 55.1142C28.4535 54.9742 28.3185 54.3642 28.1365 53.3762C27.9115 52.1532 27.6315 50.6332 26.3685 49.5462C24.7945 48.1862 22.3495 48.0432 18.9325 49.1012C19.2025 39.2522 24.0715 30.5422 31.4705 25.0522H31.4685ZM49.9195 80.9512C46.8695 80.9512 43.9195 80.5112 41.1295 79.6812C41.3895 78.9912 41.9295 78.0612 42.3895 77.2712C43.6395 75.1012 44.9395 72.8512 44.1895 71.1112C42.5495 67.2912 42.0195 63.9812 42.7295 62.0212C42.8995 61.5512 43.5795 61.0512 44.4895 60.7112C48.2235 59.4582 51.6155 60.7502 53.1895 64.5912C53.8595 65.9012 54.5195 67.2712 55.9995 67.1912C56.4195 67.1812 56.7595 67.0512 57.0495 66.8512V70.7212C57.0495 73.8512 58.0195 76.8512 59.7295 79.3612C56.6495 80.3912 53.3495 80.9512 49.9195 80.9512ZM77.9795 67.2712C77.9395 67.3212 77.8995 67.3712 77.8495 67.4212L70.5195 74.7712C70.3295 74.9612 70.0695 75.0612 69.8195 75.0612C69.4235 75.0872 69.0835 74.7702 68.8295 74.4912L65.5695 71.2412L65.4295 71.1012C64.4985 70.1512 65.8865 68.7782 66.8395 69.6812L69.8095 72.6512L76.3895 66.0612C77.1995 65.1372 78.6455 66.2512 77.9795 67.2712ZM80.0495 57.2312C77.0295 57.1912 74.2695 55.7712 72.4395 53.3412C72.0595 52.8412 71.2195 52.8412 70.8395 53.3412C68.0815 57.1482 62.6265 58.3602 58.5195 56.1112C57.8815 55.7532 57.0315 56.2742 57.0495 57.0012V63.3612C56.7135 63.9032 56.2905 64.8972 55.9395 65.2012C55.6995 65.1112 55.2595 64.2512 54.9695 63.6812C54.2695 62.3012 53.2995 60.4212 51.3395 59.3012C47.8015 57.3912 42.3525 58.0952 40.8495 61.3412C39.9495 63.8112 40.4895 67.5612 42.3495 71.9012C42.7095 72.7212 41.5195 74.7712 40.6595 76.2612C40.0695 77.2812 39.5295 78.2012 39.2295 79.0412C27.7525 74.8222 19.4555 63.9972 18.9505 51.2022C29.7505 47.7092 23.3555 56.6632 29.1425 57.1682C32.6075 56.9782 36.3975 53.0342 36.3725 49.3732C36.3345 47.8342 35.6035 46.6152 35.0205 45.7042C35.9285 45.9742 37.2085 46.3062 38.7715 46.1702C39.7975 46.0862 42.2015 45.8912 43.4185 44.2692C45.0005 42.1682 43.9705 39.7432 43.2175 37.9712C42.9355 37.3052 42.4085 36.0672 42.6305 35.8692C42.9905 35.5442 43.3455 35.1792 43.7175 34.7932C44.2985 34.1912 44.8985 33.5702 45.6435 32.9962C47.5595 31.4782 47.0335 27.6902 45.4605 26.0932C44.1935 24.7212 42.5335 25.1792 40.9285 25.6272C39.7585 25.9512 38.4325 26.3182 37.0435 26.0902C35.6995 25.8642 34.3845 25.1202 33.1385 23.8912C37.9785 20.7712 43.7385 18.9512 49.9185 18.9512C54.8495 18.9512 59.5195 20.1112 63.6595 22.1722C59.0115 25.7602 59.2805 28.9372 63.4195 31.5942C64.0945 32.0882 65.2245 32.9152 65.1535 33.2682C65.1185 33.4502 64.4515 33.6512 64.0925 33.7592C60.0265 34.9202 57.8895 39.8382 59.4735 43.6612C60.5605 46.6032 63.9975 48.2732 67.4595 47.9132C69.6895 47.7242 71.9385 46.7482 73.7965 45.1652C74.8025 44.3102 75.7375 43.1692 76.8495 42.5462C77.7415 42.0392 78.8205 41.8692 79.8825 42.0232C81.1955 46.8352 81.2585 52.3772 80.0475 57.2312H80.0495Z" fill="#F04C23"/>
</svg>
