<svg width="146" height="80" viewBox="0 0 146 80" fill="none" xmlns="http://www.w3.org/2000/svg">
<path fill-rule="evenodd" clip-rule="evenodd" d="M38.9298 26.9522V41.4978L42.7805 45.7755H39.7849C39.3568 46.2036 38.9298 46.2036 38.9298 46.6317V70.1608L42.7805 71.017V49.1992H47.0582C47.4863 49.1992 47.4863 49.1992 47.4863 48.7711V44.9215L41.9254 38.5032V17.9687C41.9254 17.9687 41.9254 17.5405 41.4973 17.5405H32.5126C32.0845 17.5405 32.0845 17.9687 31.6575 18.3968V26.9522L24.3853 18.3968H23.5291L0 44.9204V48.3419C0 49.1981 0.428108 49.1981 0.856214 49.1981H4.70694V69.3046H8.55766V46.6317C8.12955 45.7755 8.12955 45.7755 7.70145 45.7755H4.70694L23.5302 23.9577H23.9583C27.3809 27.8073 30.8036 31.658 33.7981 35.5076C34.2262 35.5076 34.6543 35.5076 35.0813 35.0795V20.5351H38.932V26.9522H38.9298ZM94.1164 71.0159V16.6855C94.1164 15.4022 94.1164 14.9741 94.5434 14.1179C95.3996 13.6898 95.8277 13.2617 96.6839 13.2617H141.603C142.459 13.6898 143.314 14.1179 143.741 14.5449C144.17 14.973 144.17 15.4011 144.599 16.2562V70.1597L141.177 69.7316V16.2573H97.5401V70.5878L94.1164 71.0159Z" fill="#3E73B0"/>
<path fill-rule="evenodd" clip-rule="evenodd" d="M102.67 23.5302H109.089C110.371 23.9583 110.371 24.3864 110.798 25.2415V32.0868H107.804L108.233 26.0966H102.67V23.5302ZM114.65 23.5302H121.494C122.35 23.9583 122.776 24.3864 122.776 25.2415V32.0868H120.211V26.0966H114.65V23.5302ZM127.484 23.5302H133.901C135.183 23.9583 135.183 24.3864 135.613 25.2415V32.0868H133.045V26.0966H127.484V23.5302ZM102.67 38.5028H109.089C110.371 38.9309 110.371 38.9309 110.798 40.2141V47.0582H107.804L108.233 41.0692H102.67V38.5028ZM114.65 38.5028H121.494C122.35 38.9309 122.776 38.9309 122.776 40.2141V47.0582H120.211V41.0692H114.65V38.5028ZM127.484 38.5028H133.901C135.183 38.9309 135.183 38.9309 135.613 40.2141V47.0582H133.045V41.0692H127.484V38.5028ZM102.67 52.6202H109.089C110.371 53.0483 110.371 53.4764 110.798 54.3315V61.1768H107.804L108.233 55.1866H102.67V52.6202ZM114.65 52.6202H121.494C122.35 53.0483 122.776 53.4764 122.776 54.3315V61.1768H120.211V55.1866H114.65V52.6202ZM127.484 52.6202H133.901C135.183 53.0483 135.183 53.4764 135.613 54.3315V61.1768H133.045V55.1866H127.484V52.6202ZM25.2382 47.4863H31.6553C32.9385 47.4863 33.3666 47.9144 33.3666 49.1976V56.0429H30.7991V50.0538H25.2382V47.4863ZM12.832 47.4863H19.2492C20.5324 47.4863 20.5324 47.9144 20.9605 49.1976V68.8771H18.3941V50.0538H12.832V47.4863ZM50.9067 71.4435V2.99451C51.3337 2.13942 51.3337 1.71131 51.7618 0.856214C52.1899 0.428108 53.045 0 53.4731 0H86.415C87.2712 0 88.1263 0.428108 88.5533 0.856214C88.9802 1.71243 88.9803 2.13942 89.4095 2.99451V71.4435L85.9869 71.8716V2.99451H81.281V72.2986H79.1427V2.99451H74.4347V73.5807H72.7245V2.99451H68.0187V73.5807H65.8804V2.99451H61.1734V72.2986H59.0351V2.99451H54.3293V71.8716L50.9067 71.4435Z" fill="#3E73B0"/>
<path fill-rule="evenodd" clip-rule="evenodd" d="M130.479 71.4453C123.633 71.4453 115.079 72.3004 109.944 73.1566C104.811 74.0128 91.9777 76.1511 87.2719 76.1511C82.5639 76.5804 77.003 77.0074 73.5803 77.0074C70.5869 77.0074 65.0249 76.5804 60.3191 76.1511C55.6133 76.1511 42.7801 74.0128 37.6462 73.1566C32.5123 72.3004 23.9557 71.4453 17.1116 71.4453C9.83938 71.4453 1.71094 73.5825 1.71094 73.5825V77.4343C1.71094 77.4343 11.1226 74.4398 17.1116 74.4398C22.6736 74.4398 32.9404 75.7219 36.79 76.1489C40.2126 76.5781 50.0523 78.2894 59.464 79.1457C66.3092 80.0019 72.2982 80.0019 73.5803 80.0019C75.2916 80.0019 81.2818 80.0019 88.1281 79.1457C97.5387 78.2894 107.38 76.5781 110.8 76.1489C114.652 75.7219 124.489 74.4398 130.479 74.4398C136.47 74.4398 145.88 77.4343 145.88 77.4343V73.5825C145.88 73.5836 137.752 71.4453 130.479 71.4453Z" fill="#3E73B0"/>
</svg>
