<svg width="16" height="16" viewBox="0 0 16 16" fill="none" xmlns="http://www.w3.org/2000/svg">
<g clip-path="url(#clip0_1678_4764)">
<path d="M6.63166 5.46094C7.27847 5.46094 7.80469 5.98716 7.80469 6.63397C7.80469 7.28078 7.27847 7.80703 6.63166 7.80703C5.98484 7.80703 5.45862 7.28081 5.45862 6.63397C5.45862 5.98716 5.98484 5.46094 6.63166 5.46094Z" fill="#5587FF"/>
<path d="M3.89728 13.6562C4.54409 13.6562 5.07031 14.1825 5.07031 14.8293C5.07031 15.4761 4.54409 16.0023 3.89728 16.0023C3.25047 16.0023 2.72425 15.4761 2.72425 14.8293C2.72425 14.1825 3.25055 13.6562 3.89728 13.6562Z" fill="#5587FF"/>
<path d="M6.63166 2.73047C7.27847 2.73047 7.80469 3.25669 7.80469 3.90353C7.80469 4.55034 7.27847 5.07656 6.63166 5.07656C5.98484 5.07656 5.45862 4.55034 5.45862 3.90353C5.45862 3.25669 5.98484 2.73047 6.63166 2.73047Z" fill="#5587FF"/>
<path d="M6.63166 8.19141C7.27847 8.19141 7.80469 8.71763 7.80469 9.36444C7.80469 10.0112 7.27847 10.5375 6.63166 10.5375C5.98484 10.5375 5.45862 10.0112 5.45862 9.36444C5.45862 8.71763 5.98484 8.19141 6.63166 8.19141Z" fill="#5587FF"/>
<path d="M6.63166 10.9219C7.27847 10.9219 7.80469 11.4481 7.80469 12.0949C7.80469 12.7417 7.27847 13.2679 6.63166 13.2679C5.98484 13.2679 5.45862 12.7417 5.45862 12.0949C5.45862 11.4481 5.98484 10.9219 6.63166 10.9219Z" fill="#5587FF"/>
<path d="M3.89728 10.9219C4.54409 10.9219 5.07031 11.4481 5.07031 12.0949C5.07031 12.7417 4.54409 13.2679 3.89728 13.2679C3.25047 13.2679 2.72425 12.7417 2.72425 12.0949C2.72425 11.4481 3.25055 10.9219 3.89728 10.9219Z" fill="#5587FF"/>
<path d="M13.2656 8.00116C13.2656 8.64797 12.7394 9.17419 12.0926 9.17419C11.4458 9.17419 10.9195 8.64797 10.9195 8.00116C10.9195 7.35435 11.4458 6.82812 12.0926 6.82812C12.7394 6.82815 13.2656 7.35437 13.2656 8.00116Z" fill="#5587FF"/>
<path d="M9.35822 5.46094C10.005 5.46094 10.5312 5.98716 10.5312 6.63397C10.5312 7.28078 10.005 7.80703 9.35822 7.80703C8.71141 7.80703 8.18519 7.28081 8.18519 6.63397C8.18519 5.98716 8.71138 5.46094 9.35822 5.46094Z" fill="#5587FF"/>
<path d="M9.35822 8.19141C10.005 8.19141 10.5312 8.71763 10.5312 9.36444C10.5312 10.0112 10.005 10.5375 9.35822 10.5375C8.71141 10.5375 8.18519 10.0112 8.18519 9.36444C8.18519 8.71763 8.71138 8.19141 9.35822 8.19141Z" fill="#5587FF"/>
<path d="M3.89728 8.19141C4.54409 8.19141 5.07031 8.71763 5.07031 9.36444C5.07031 10.0112 4.54409 10.5375 3.89728 10.5375C3.25047 10.5375 2.72425 10.0112 2.72425 9.36444C2.72425 8.71763 3.25055 8.19141 3.89728 8.19141Z" fill="#5587FF"/>
<path d="M3.89728 5.46094C4.54409 5.46094 5.07031 5.98716 5.07031 6.63397C5.07031 7.28078 4.54409 7.80703 3.89728 7.80703C3.25047 7.80703 2.72425 7.28081 2.72425 6.63397C2.72425 5.98716 3.25055 5.46094 3.89728 5.46094Z" fill="#5587FF"/>
<path d="M3.89728 2.73047C4.54409 2.73047 5.07031 3.25669 5.07031 3.90353C5.07031 4.55034 4.54409 5.07656 3.89728 5.07656C3.25047 5.07656 2.72425 4.55034 2.72425 3.90353C2.72425 3.25669 3.25055 2.73047 3.89728 2.73047Z" fill="#5587FF"/>
<path d="M3.89728 0C4.54409 0 5.07031 0.526221 5.07031 1.17303C5.07031 1.81984 4.54409 2.34606 3.89728 2.34606C3.25047 2.34606 2.72425 1.81984 2.72425 1.17303C2.72425 0.526221 3.25055 0 3.89728 0Z" fill="#5587FF"/>
</g>
<defs>
<clipPath id="clip0_1678_4764">
<rect width="16" height="16" fill="white" transform="matrix(-1 0 0 1 16 0)"/>
</clipPath>
</defs>
</svg>
