<svg width="17" height="16" viewBox="0 0 17 16" fill="none" xmlns="http://www.w3.org/2000/svg">
<g clip-path="url(#clip0_1712_1511)">
<path d="M7.13166 5.46094C7.77847 5.46094 8.30469 5.98716 8.30469 6.63397C8.30469 7.28078 7.77847 7.80703 7.13166 7.80703C6.48484 7.80703 5.95862 7.28081 5.95862 6.63397C5.95862 5.98716 6.48484 5.46094 7.13166 5.46094Z" fill="#2A3B4E"/>
<path d="M4.39728 13.6562C5.04409 13.6562 5.57031 14.1825 5.57031 14.8293C5.57031 15.4761 5.04409 16.0023 4.39728 16.0023C3.75047 16.0023 3.22425 15.4761 3.22425 14.8293C3.22425 14.1825 3.75055 13.6562 4.39728 13.6562Z" fill="#2A3B4E"/>
<path d="M7.13166 2.73047C7.77847 2.73047 8.30469 3.25669 8.30469 3.90353C8.30469 4.55034 7.77847 5.07656 7.13166 5.07656C6.48484 5.07656 5.95862 4.55034 5.95862 3.90353C5.95862 3.25669 6.48484 2.73047 7.13166 2.73047Z" fill="#2A3B4E"/>
<path d="M7.13166 8.19141C7.77847 8.19141 8.30469 8.71763 8.30469 9.36444C8.30469 10.0112 7.77847 10.5375 7.13166 10.5375C6.48484 10.5375 5.95862 10.0112 5.95862 9.36444C5.95862 8.71763 6.48484 8.19141 7.13166 8.19141Z" fill="#2A3B4E"/>
<path d="M7.13166 10.9219C7.77847 10.9219 8.30469 11.4481 8.30469 12.0949C8.30469 12.7417 7.77847 13.2679 7.13166 13.2679C6.48484 13.2679 5.95862 12.7417 5.95862 12.0949C5.95862 11.4481 6.48484 10.9219 7.13166 10.9219Z" fill="#2A3B4E"/>
<path d="M4.39728 10.9219C5.04409 10.9219 5.57031 11.4481 5.57031 12.0949C5.57031 12.7417 5.04409 13.2679 4.39728 13.2679C3.75047 13.2679 3.22425 12.7417 3.22425 12.0949C3.22425 11.4481 3.75055 10.9219 4.39728 10.9219Z" fill="#2A3B4E"/>
<path d="M13.7656 8.00116C13.7656 8.64797 13.2394 9.17419 12.5926 9.17419C11.9458 9.17419 11.4195 8.64797 11.4195 8.00116C11.4195 7.35435 11.9458 6.82812 12.5926 6.82812C13.2394 6.82815 13.7656 7.35437 13.7656 8.00116Z" fill="#2A3B4E"/>
<path d="M9.85822 5.46094C10.505 5.46094 11.0312 5.98716 11.0312 6.63397C11.0312 7.28078 10.505 7.80703 9.85822 7.80703C9.21141 7.80703 8.68519 7.28081 8.68519 6.63397C8.68519 5.98716 9.21138 5.46094 9.85822 5.46094Z" fill="#2A3B4E"/>
<path d="M9.85822 8.19141C10.505 8.19141 11.0312 8.71763 11.0312 9.36444C11.0312 10.0112 10.505 10.5375 9.85822 10.5375C9.21141 10.5375 8.68519 10.0112 8.68519 9.36444C8.68519 8.71763 9.21138 8.19141 9.85822 8.19141Z" fill="#2A3B4E"/>
<path d="M4.39728 8.19141C5.04409 8.19141 5.57031 8.71763 5.57031 9.36444C5.57031 10.0112 5.04409 10.5375 4.39728 10.5375C3.75047 10.5375 3.22425 10.0112 3.22425 9.36444C3.22425 8.71763 3.75055 8.19141 4.39728 8.19141Z" fill="#2A3B4E"/>
<path d="M4.39728 5.46094C5.04409 5.46094 5.57031 5.98716 5.57031 6.63397C5.57031 7.28078 5.04409 7.80703 4.39728 7.80703C3.75047 7.80703 3.22425 7.28081 3.22425 6.63397C3.22425 5.98716 3.75055 5.46094 4.39728 5.46094Z" fill="#2A3B4E"/>
<path d="M4.39728 2.73047C5.04409 2.73047 5.57031 3.25669 5.57031 3.90353C5.57031 4.55034 5.04409 5.07656 4.39728 5.07656C3.75047 5.07656 3.22425 4.55034 3.22425 3.90353C3.22425 3.25669 3.75055 2.73047 4.39728 2.73047Z" fill="#2A3B4E"/>
<path d="M4.39728 0C5.04409 0 5.57031 0.526221 5.57031 1.17303C5.57031 1.81984 5.04409 2.34606 4.39728 2.34606C3.75047 2.34606 3.22425 1.81984 3.22425 1.17303C3.22425 0.526221 3.75055 0 4.39728 0Z" fill="#2A3B4E"/>
</g>
<defs>
<clipPath id="clip0_1712_1511">
<rect width="16" height="16" fill="white" transform="matrix(-1 0 0 1 16.5 0)"/>
</clipPath>
</defs>
</svg>
