<svg width="12" height="16" viewBox="0 0 12 16" fill="none" xmlns="http://www.w3.org/2000/svg">
<path d="M4.63166 5.46094C5.27847 5.46094 5.80469 5.98716 5.80469 6.63397C5.80469 7.28078 5.27847 7.80703 4.63166 7.80703C3.98484 7.80703 3.45862 7.28081 3.45862 6.63397C3.45862 5.98716 3.98484 5.46094 4.63166 5.46094Z" fill="#2A3B4E"/>
<path d="M1.89728 13.6543C2.54409 13.6543 3.07031 14.1805 3.07031 14.8273C3.07031 15.4741 2.54409 16.0004 1.89728 16.0004C1.25047 16.0004 0.724249 15.4741 0.724249 14.8273C0.724249 14.1805 1.25055 13.6543 1.89728 13.6543Z" fill="#2A3B4E"/>
<path d="M4.63166 2.73047C5.27847 2.73047 5.80469 3.25669 5.80469 3.90353C5.80469 4.55034 5.27847 5.07656 4.63166 5.07656C3.98484 5.07656 3.45862 4.55034 3.45862 3.90353C3.45862 3.25669 3.98484 2.73047 4.63166 2.73047Z" fill="#2A3B4E"/>
<path d="M4.63166 8.19141C5.27847 8.19141 5.80469 8.71763 5.80469 9.36444C5.80469 10.0112 5.27847 10.5375 4.63166 10.5375C3.98484 10.5375 3.45862 10.0112 3.45862 9.36444C3.45862 8.71763 3.98484 8.19141 4.63166 8.19141Z" fill="#2A3B4E"/>
<path d="M4.63166 10.9238C5.27847 10.9238 5.80469 11.45 5.80469 12.0969C5.80469 12.7437 5.27847 13.2699 4.63166 13.2699C3.98484 13.2699 3.45862 12.7437 3.45862 12.0969C3.45862 11.45 3.98484 10.9238 4.63166 10.9238Z" fill="#2A3B4E"/>
<path d="M1.89728 10.9238C2.54409 10.9238 3.07031 11.45 3.07031 12.0969C3.07031 12.7437 2.54409 13.2699 1.89728 13.2699C1.25047 13.2699 0.724249 12.7437 0.724249 12.0969C0.724249 11.45 1.25055 10.9238 1.89728 10.9238Z" fill="#2A3B4E"/>
<path d="M11.2656 7.9992C11.2656 8.64601 10.7394 9.17224 10.0926 9.17224C9.44578 9.17224 8.91953 8.64601 8.91953 7.9992C8.91953 7.35239 9.44575 6.82617 10.0926 6.82617C10.7394 6.8262 11.2656 7.35242 11.2656 7.9992Z" fill="#2A3B4E"/>
<path d="M7.35822 5.46094C8.00503 5.46094 8.53125 5.98716 8.53125 6.63397C8.53125 7.28078 8.00503 7.80703 7.35822 7.80703C6.71141 7.80703 6.18519 7.28081 6.18519 6.63397C6.18519 5.98716 6.71138 5.46094 7.35822 5.46094Z" fill="#2A3B4E"/>
<path d="M7.35822 8.19141C8.00503 8.19141 8.53125 8.71763 8.53125 9.36444C8.53125 10.0112 8.00503 10.5375 7.35822 10.5375C6.71141 10.5375 6.18519 10.0112 6.18519 9.36444C6.18519 8.71763 6.71138 8.19141 7.35822 8.19141Z" fill="#2A3B4E"/>
<path d="M1.89728 8.19141C2.54409 8.19141 3.07031 8.71763 3.07031 9.36444C3.07031 10.0112 2.54409 10.5375 1.89728 10.5375C1.25047 10.5375 0.724249 10.0112 0.724249 9.36444C0.724249 8.71763 1.25055 8.19141 1.89728 8.19141Z" fill="#2A3B4E"/>
<path d="M1.89728 5.46094C2.54409 5.46094 3.07031 5.98716 3.07031 6.63397C3.07031 7.28078 2.54409 7.80703 1.89728 7.80703C1.25047 7.80703 0.724249 7.28081 0.724249 6.63397C0.724249 5.98716 1.25055 5.46094 1.89728 5.46094Z" fill="#2A3B4E"/>
<path d="M1.89728 2.73047C2.54409 2.73047 3.07031 3.25669 3.07031 3.90353C3.07031 4.55034 2.54409 5.07656 1.89728 5.07656C1.25047 5.07656 0.724249 4.55034 0.724249 3.90353C0.724249 3.25669 1.25055 2.73047 1.89728 2.73047Z" fill="#2A3B4E"/>
<path d="M1.89728 0C2.54409 0 3.07031 0.526221 3.07031 1.17303C3.07031 1.81984 2.54409 2.34606 1.89728 2.34606C1.25047 2.34606 0.724249 1.81984 0.724249 1.17303C0.724249 0.526221 1.25055 0 1.89728 0Z" fill="#2A3B4E"/>
</svg>
