<svg width="247" height="280" viewBox="0 0 247 280" fill="none" xmlns="http://www.w3.org/2000/svg">
<g opacity="0.08">
<path d="M152.694 106.094C127.312 100.188 103.594 90.9563 80.7067 79.5813C59.7014 69.1688 39.3524 57.575 21.7167 41.8687C17.2968 37.9312 13.5334 33.2938 9.68237 28.8313C8.28202 27.2125 7.31927 25.1125 6.44405 23.1437C3.1182 15.575 5.21874 9.58125 12.5706 5.775C20.1413 1.8375 28.4997 0.6125 36.8581 0.39375C52.6558 0 68.4974 0 84.3389 0C113.134 0 141.972 0.175 170.767 0.2625C195.273 0.35 219.823 0.35 244.33 0.4375C245.205 0.4375 246.08 0.4375 246.999 0.4375V205.756C240.698 205.756 234.79 205.756 228.926 205.756C195.405 205.669 161.84 205.756 128.319 205.362C122.455 205.275 118.473 206.938 114.447 211.181C93.1349 233.713 71.5169 255.894 49.9864 278.206C49.4613 278.775 49.0237 279.388 48.4985 280C48.2797 279.825 48.0609 279.65 47.7983 279.519C82.676 221.856 117.554 164.15 152.694 106.094ZM64.2525 37.5812V17.9375H44.6913V37.5812H64.2525ZM127.444 18.1562V37.7563H147.005V18.1562H127.444ZM168.273 187.556H187.965V168.044H168.273V187.556ZM105.651 18.0688H86.0894V37.6687H105.651V18.0688ZM188.359 18.375H168.842V37.7563H188.359V18.375ZM229.67 37.975V18.2875H210.284V37.975H229.67ZM127.05 187.425H146.524V168.131H127.05V187.425ZM209.715 187.688H229.276V168.131H209.715V187.688Z" fill="#161310"/>
<path d="M71.8956 121.188C65.2439 117.688 58.8986 114.406 52.2031 110.906C55.1351 104.344 57.9796 98.0439 60.9554 91.4814C68.2197 95.1127 75.2653 98.5689 82.4858 102.2C78.9412 108.544 75.5278 114.669 71.8956 121.188Z" fill="#787878"/>
<path d="M100.789 110.075C108.184 112.788 115.142 115.325 122.538 118.038C119.125 123.594 115.842 129.106 112.429 134.531C112.079 135.056 110.897 135.494 110.285 135.319C103.721 133.306 97.1564 131.206 90.2422 128.975C93.9181 122.413 97.2877 116.331 100.789 110.075Z" fill="#787878"/>
<path d="M24.9849 69.52C31.3741 73.72 37.3693 77.6575 43.5834 81.7263C40.7827 87.895 38.0695 93.9325 35.1813 100.408C29.8862 96.6888 24.8537 93.2325 19.9524 89.6013C19.4273 89.2075 19.2522 87.8513 19.471 87.1075C21.1777 81.3325 23.0595 75.6013 24.9849 69.5638V69.52Z" fill="#787878"/>
<path d="M2.80071 71.574C1.88173 64.0053 0.918984 56.4803 0 48.9115L0.918984 48.3428C3.1508 50.6615 5.42638 52.9803 7.57068 55.3865C8.00829 55.9115 8.13958 57.0053 7.92077 57.7053C6.52041 62.299 5.03253 66.8928 3.58841 71.4428C3.32585 71.4428 3.10704 71.4865 2.84448 71.5303L2.80071 71.574Z" fill="#787878"/>
</g>
</svg>
