<svg width="206" height="331" viewBox="0 0 206 331" fill="none" xmlns="http://www.w3.org/2000/svg">
<g opacity="0.56">
<path d="M103 0C46.2029 0 0 46.2029 0 103V253.086H206V103C206 46.2029 159.797 0 103 0ZM128.647 241.314H77.3677V152.97H128.647V241.314ZM194.229 241.314H140.418V141.198H65.5963V241.314H11.7714V103C11.7714 54.6783 49.543 15.0233 97.1143 11.9774V37.9629C76.8821 40.7144 61.2997 58.0479 61.2997 79.0304H144.215C144.215 58.2097 128.882 40.994 108.886 38.0217V11.9774C156.457 15.0233 194.229 54.6783 194.229 103V241.314Z" fill="white"/>
<path d="M137.974 280.147H66.0508V291.919H137.974V280.147Z" fill="white"/>
<path d="M160.047 319.063H43.9805V330.835H160.047V319.063Z" fill="white"/>
<path d="M105.94 88.9639H100.055V109.652H105.94V88.9639Z" fill="white"/>
<path d="M122.463 87.2092L117.723 90.6978L130.534 108.107L135.275 104.618L122.463 87.2092Z" fill="white"/>
<path d="M83.5461 87.1938L70.7344 104.603L75.4748 108.092L88.2865 90.6824L83.5461 87.1938Z" fill="white"/>
</g>
</svg>
