<svg width="16" height="16" viewBox="0 0 16 16" fill="none" xmlns="http://www.w3.org/2000/svg">
<g clip-path="url(#clip0_1662_14413)">
<path d="M10.0317 3.33464C10.6828 3.46168 11.2813 3.78014 11.7504 4.24926C12.2195 4.71838 12.538 5.31681 12.665 5.96797M10.0317 0.667969C11.3845 0.81826 12.6461 1.42409 13.6092 2.38597C14.5723 3.34786 15.1797 4.60864 15.3317 5.9613M14.665 11.2813V13.2813C14.6657 13.467 14.6277 13.6507 14.5533 13.8209C14.479 13.991 14.3699 14.1437 14.233 14.2692C14.0962 14.3947 13.9347 14.4903 13.7588 14.5498C13.5829 14.6093 13.3966 14.6313 13.2117 14.6146C11.1602 14.3917 9.18966 13.6907 7.45833 12.568C5.84755 11.5444 4.48189 10.1787 3.45833 8.56797C2.33165 6.82877 1.63049 4.84863 1.41166 2.78797C1.395 2.60361 1.41691 2.41781 1.47599 2.24238C1.53508 2.06696 1.63004 1.90576 1.75484 1.76905C1.87964 1.63234 2.03153 1.52311 2.20086 1.44832C2.37018 1.37353 2.55322 1.33481 2.73833 1.33464H4.73833C5.06187 1.33145 5.37552 1.44602 5.62084 1.65699C5.86615 1.86796 6.02638 2.16093 6.07166 2.4813C6.15608 3.12135 6.31263 3.74979 6.53833 4.35464C6.62802 4.59325 6.64744 4.85258 6.59427 5.10189C6.54109 5.3512 6.41757 5.58004 6.23833 5.7613L5.39166 6.60797C6.3407 8.277 7.72263 9.65893 9.39166 10.608L10.2383 9.7613C10.4196 9.58206 10.6484 9.45853 10.8977 9.40536C11.1471 9.35219 11.4064 9.37161 11.645 9.4613C12.2498 9.687 12.8783 9.84355 13.5183 9.92797C13.8422 9.97365 14.1379 10.1368 14.3493 10.3863C14.5608 10.6358 14.6731 10.9544 14.665 11.2813Z" stroke="white" stroke-width="1.5" stroke-linecap="round" stroke-linejoin="round"/>
</g>
<defs>
<clipPath id="clip0_1662_14413">
<rect width="16" height="16" fill="white"/>
</clipPath>
</defs>
</svg>
