<svg width="20" height="20" viewBox="0 0 20 20" fill="none" xmlns="http://www.w3.org/2000/svg">
<path fill-rule="evenodd" clip-rule="evenodd" d="M8.67001 18.6702C3.88764 18.6702 0 14.7825 0 10.0001C0 5.21776 3.88764 1.33008 8.67001 1.33008C11.0775 1.33008 13.3223 2.28982 14.9815 4.04658C15.0654 4.14116 15.0561 4.24709 15.0024 4.32409L15.5113 4.9892C15.6083 4.93979 15.7344 4.94998 15.8111 5.07132C16.8196 6.51905 17.3402 8.22704 17.3402 10.0001C17.3401 14.7825 13.4524 18.6702 8.67001 18.6702ZM8.67001 16.8809C4.87991 16.8809 1.78928 13.7902 1.78928 10.0001C1.78928 6.21003 4.87991 3.11936 8.67001 3.11936C10.4756 3.11936 12.1836 3.8188 13.4687 5.07137C13.572 5.17333 13.5559 5.295 13.4886 5.37684L14.1329 6.17635C14.2311 6.11886 14.367 6.1244 14.4446 6.24256C17.3689 10.6927 14.1953 16.8809 8.67001 16.8809Z" fill="#111827" fill-opacity="0.3"/>
<path fill-rule="evenodd" clip-rule="evenodd" d="M8.89816 14.4575C8.80058 14.4575 8.71924 14.3925 8.68671 14.3111C8.67047 14.2786 7.27151 10.6674 5.10806 9.30101C4.68512 9.04075 4.35985 8.76421 4.48996 8.14606C4.62007 7.54421 5.02676 7.20261 5.75873 7.03993C7.06002 6.76339 8.45894 8.78045 8.9795 9.61008C10.8013 6.95864 14.445 2.79436 19.7479 2.30637C20.0037 2.27638 20.0983 2.65558 19.8618 2.76184C19.7804 2.79436 12.2002 6.2592 9.12585 14.3274C9.07708 14.4087 8.99574 14.4575 8.89816 14.4575Z" fill="#1E2F22"/>
</svg>
