<svg width="20" height="20" viewBox="0 0 20 20" fill="none" xmlns="http://www.w3.org/2000/svg">
<g clip-path="url(#clip0_1712_1622)">
<path d="M18.7539 8.96094C17.6484 8.19141 15.5586 8.13281 13.0508 8.76953C13.0078 8.78125 12.9805 8.72266 13.0234 8.69922C15.2539 7.39063 16.6992 5.88281 16.9453 4.55859C17.043 4.04688 16.9336 3.61328 16.6406 3.33594C16.3672 3.04297 15.9336 2.93359 15.418 3.02734C14.0937 3.26953 12.5781 4.70703 11.2617 6.93359C11.2383 6.97266 11.1797 6.94922 11.1914 6.90234C11.8398 4.39844 11.7852 2.30859 11.0273 1.19922C10.7461 0.796875 10.3828 0.566406 10.0039 0.554688H10H9.99609C9.61719 0.566406 9.25391 0.792969 8.97656 1.19922C8.21094 2.30859 8.16406 4.39844 8.8125 6.89844C8.82422 6.94141 8.76562 6.96875 8.74219 6.92969C7.42578 4.70313 5.91016 3.26953 4.58594 3.02734C4.07422 2.93359 3.64062 3.04297 3.36328 3.33594C3.07031 3.61328 2.96094 4.04688 3.05859 4.55859C3.30859 5.88281 4.75 7.39063 6.98047 8.69922C7.01953 8.72266 6.99609 8.78125 6.95312 8.76953C4.44531 8.13281 2.35937 8.19141 1.25 8.96094C0.839844 9.24609 0.613281 9.61328 0.609375 10C0.613281 10.3867 0.839844 10.7539 1.25 11.0391C2.35547 11.8086 4.44531 11.8672 6.95312 11.2305C6.99609 11.2188 7.02344 11.2773 6.98047 11.3008C4.75 12.6094 3.30469 14.1172 3.05859 15.4414C2.96094 15.9531 3.07031 16.3867 3.36328 16.6641C3.63672 16.957 4.07031 17.0664 4.58594 16.9727C5.91016 16.7305 7.42578 15.293 8.74219 13.0664C8.76562 13.0273 8.82422 13.0508 8.8125 13.0977C8.16406 15.6016 8.21875 17.6914 8.97656 18.8008C9.25391 19.2031 9.61719 19.4336 9.99609 19.4453H10H10.0039C10.3828 19.4336 10.7461 19.207 11.0234 18.8008C11.7891 17.6914 11.8359 15.6016 11.1875 13.1016C11.1758 13.0586 11.2344 13.0313 11.2578 13.0703C12.5742 15.2969 14.0898 16.7305 15.4141 16.9727C15.9258 17.0664 16.3594 16.957 16.6367 16.6641C16.9297 16.3867 17.0391 15.9531 16.9414 15.4414C16.6914 14.1172 15.25 12.6094 13.0195 11.3008C12.9805 11.2773 13.0039 11.2188 13.0469 11.2305C15.5547 11.8672 17.6406 11.8086 18.75 11.0391C19.1602 10.7539 19.3867 10.3867 19.3906 10C19.3906 9.61328 19.1641 9.24609 18.7539 8.96094Z" fill="#022946"/>
</g>
<defs>
<clipPath id="clip0_1712_1622">
<rect width="20" height="20" fill="white"/>
</clipPath>
</defs>
</svg>
