<svg width="285" height="343" viewBox="0 0 285 343" fill="none" xmlns="http://www.w3.org/2000/svg">
<path d="M142.218 58.9467C175.127 58.9416 207.019 70.3173 232.461 91.1355C257.902 111.954 275.319 140.926 281.744 173.117C288.169 205.307 283.204 238.724 267.695 267.672C252.186 296.621 227.093 319.311 196.691 331.875C166.29 344.44 132.46 346.102 100.968 336.578C69.4753 327.054 42.268 306.934 23.9817 279.646C5.69548 252.357 -2.53824 219.589 0.683525 186.925C3.90529 154.261 18.3832 123.721 41.6503 100.51C54.8398 87.3133 70.5149 76.8475 87.7741 69.7146C105.033 62.5816 123.536 58.9222 142.218 58.9467ZM190.384 20.9586C188.529 20.7498 186.799 19.9183 185.48 18.6005C184.161 17.2826 183.33 15.5567 183.124 13.7059L181.452 0L179.78 13.7059C179.57 15.5564 178.737 17.281 177.415 18.5968C176.094 19.9125 174.364 20.7413 172.508 20.9472L158.766 22.6147L172.508 24.2823C174.364 24.4926 176.093 25.3243 177.414 26.6416C178.735 27.9589 179.569 29.6839 179.78 31.535L181.44 45.2408L183.112 31.535C183.325 29.6877 184.158 27.9666 185.476 26.6518C186.795 25.337 188.52 24.5059 190.372 24.2937L204.114 22.6261L190.372 20.9586H190.384ZM255.04 46.9998C251.778 46.6314 248.738 45.1718 246.415 42.8591C244.092 40.5463 242.623 37.5169 242.248 34.2647L239.328 10.0852L236.374 34.2647C236.001 37.5202 234.534 40.5539 232.211 42.8708C229.888 45.1877 226.846 46.6512 223.582 47.0226L199.373 49.9465L223.582 52.8819C226.847 53.2513 229.89 54.7141 232.213 57.0314C234.536 59.3487 236.003 62.3835 236.374 65.6398L239.328 89.7621L242.271 65.6169C242.64 62.3599 244.106 59.324 246.429 57.0063C248.753 54.6886 251.797 53.2264 255.063 52.859L279.271 49.9237L255.063 46.9998H255.04ZM206.416 83.6287C205.634 86.1059 204.602 88.4976 203.336 90.7672C215.06 96.9174 225.855 104.688 235.4 113.85C235.965 111.376 236.412 108.836 236.74 106.232C227.768 97.3044 217.57 89.6939 206.451 83.6287H206.416ZM246.6 117.22C246.189 119.627 245.631 122.007 244.928 124.347C252.6 133.866 258.729 144.526 263.09 155.939C263.854 153.144 264.461 150.277 264.911 147.338C260.165 136.535 254.004 126.407 246.588 117.22H246.6ZM271.793 167.337C270.859 169.712 269.797 172.034 268.61 174.293C270.476 182.617 271.671 191.077 272.183 199.592C270.9 192.127 269.105 184.758 266.812 177.537C261.16 186.968 254.049 195.449 245.741 202.664C249.498 216.319 251.525 230.39 251.776 244.547C260.963 235.791 268.877 225.795 275.286 214.851C275.777 210.154 276.026 205.434 276.031 200.711C276.037 189.426 274.61 178.185 271.782 167.257L271.793 167.337ZM272.549 231.195C266.26 238.738 259.321 245.717 251.81 252.051C251.65 260.386 250.997 268.704 249.852 276.962C250.146 269.312 250.02 261.652 249.474 254.016C235.366 265.578 219.872 275.346 203.347 283.095C204.332 288.646 205.229 294.262 206.038 299.942C204.695 294.482 203.301 289.095 201.858 283.78C187.305 290.608 171.899 295.456 156.052 298.194C168.649 295.236 184.601 289.24 201.022 280.639C196.854 265.578 192.273 251.077 187.281 237.135C165.368 245.81 142.378 251.485 118.937 254.004C123.678 266.362 128.988 279.052 134.866 292.072C127.545 279.615 120.941 267.052 115.055 254.381C108.58 254.915 102.079 255.056 95.5874 254.804C101.519 254.29 107.761 253.57 114.208 252.634C107.947 239.024 102.486 225.063 97.8549 210.819C81.3645 213.218 66.111 213.96 53.7891 213.001C68.2282 212.089 82.5923 210.239 96.7899 207.461C91.5198 190.725 87.5384 173.611 84.8802 156.27C70.2298 158.76 57.5299 159.091 46.7807 157.264C44.4154 171.952 44.1686 186.902 46.0478 201.659C41.2759 187.019 39.8133 171.507 41.7649 156.236C36.4529 154.966 31.3695 152.886 26.6945 150.068C31.5303 152.328 36.7076 153.776 42.0168 154.351C44.1926 138.726 49.6894 122.607 58.5071 105.992C56.0516 105.215 53.7332 104.058 51.6362 102.566C50.2505 103.834 48.9107 105.124 47.5823 106.438C32.9198 121.042 21.8572 138.842 15.2656 158.436C8.67407 178.031 6.73359 198.883 9.59704 219.353C12.4605 239.822 20.0496 259.349 31.7668 276.395C43.484 293.442 59.0092 307.542 77.1197 317.586C95.2301 327.63 115.431 333.343 136.132 334.275C156.833 335.207 177.468 331.334 196.413 322.959C215.357 314.584 232.093 301.936 245.303 286.013C258.513 270.089 267.836 251.324 272.538 231.195H272.549ZM54.5563 99.9045C73.0965 110.721 108.379 99.3677 124.308 85.7988C134.901 76.7872 140.581 66.5878 126.289 68.2096C98.5649 71.362 74.4249 82.2353 54.5563 99.9045ZM152.456 67.6728C152.007 69.0218 151.44 70.3288 150.761 71.579C164.952 74.8464 178.805 79.4351 192.136 85.2849C193.02 82.8222 193.616 80.2658 193.911 77.6667C180.715 72.1615 166.719 68.8065 152.456 67.7299V67.6728ZM199.786 96.3524C195.33 102.321 190.149 107.715 184.36 112.411C197.076 122.843 208.522 134.727 218.463 147.818C224.906 140.051 229.894 131.192 233.19 121.663C223.249 111.786 212.021 103.289 199.809 96.3981L199.786 96.3524ZM242.237 131.656C237.976 140.977 232.006 149.422 224.636 156.555C232.33 168.13 238.507 180.639 243.016 193.778C250.991 184.583 257.125 173.948 261.086 162.449C256.202 151.372 249.846 140.999 242.191 131.611L242.237 131.656ZM148.334 75.3024C146.199 78.0675 143.76 80.5846 141.062 82.8064C153.688 89.9505 165.799 97.9651 177.306 106.792C182.197 102.163 186.352 96.8168 189.628 90.9386C176.399 84.4689 162.599 79.2346 148.402 75.3024H148.334ZM179.631 116.135C169.017 124.026 157.638 130.841 145.665 136.476C155.595 151.302 164.4 166.849 172.004 182.985C187.933 174.99 202.397 165.19 213.642 153.289C203.906 139.549 192.488 127.076 179.654 116.157L179.631 116.135ZM219.208 161.615C206.909 172.363 191.483 181.489 174.718 188.936C180.871 202.641 186.201 216.699 190.682 231.036C208.477 222.949 224.888 212.555 237.839 199.398C232.999 186.176 226.753 173.51 219.208 161.615ZM240.473 207.176C226.56 218.392 209.726 227.803 191.941 235.216C196.34 249.858 199.937 264.728 202.717 279.76C219.415 270.967 234.923 260.09 248.867 247.391C247.461 233.734 244.649 220.258 240.473 207.176ZM135.118 87.2494L133.801 88.1403C128.063 91.8783 122.031 95.1479 115.765 97.9171C125.161 108.494 133.921 119.615 142.001 131.222C153.076 125.632 163.454 118.763 172.92 110.755C161.206 101.589 148.536 93.7087 135.13 87.2494H135.118ZM139.585 139.343C129.637 143.791 119.417 147.606 108.986 150.765C102.878 152.501 97.0113 153.94 91.3847 155.082C94.1308 172.367 97.9554 189.464 102.836 206.274C123.518 201.922 145.608 195.343 165.82 186.035C158.029 169.956 149.268 154.364 139.585 139.343ZM168.465 191.654C147.677 200.11 126.011 206.239 103.867 209.928C107.867 223.49 112.624 237.542 118.136 252.085C139.894 248.659 163.747 242.651 185.815 233.263C180.471 218.795 174.688 204.937 168.465 191.688V191.654ZM110.704 100.076C103.308 103.041 95.6361 105.267 87.8004 106.723C87.6382 121.316 88.6107 135.899 90.7091 150.342C97.7874 148.674 104.775 146.642 111.643 144.254C120.034 141.355 128.254 137.984 136.264 134.158C128.38 122.336 119.847 110.958 110.704 100.076ZM47.2158 154.831C58.0376 155.55 70.8291 154.454 84.2389 151.758C82.2076 137.149 81.1631 122.42 81.1126 107.671C76.8262 108.139 72.5052 108.204 68.2066 107.865C67.0615 107.763 66.0423 107.637 64.9887 107.488C56.3043 122.098 50.2832 138.126 47.2044 154.831H47.2158Z" fill="white"/>
</svg>
