<svg width="24" height="24" viewBox="0 0 24 24" fill="none" xmlns="http://www.w3.org/2000/svg">
<g clip-path="url(#clip0_1898_3334)">
<path d="M14.3742 1.74886C14.2784 1.4609 14.0291 1.25103 13.729 1.20566L13.031 1.09926L12.7334 0.465656C12.6003 0.181503 12.3148 0 12.001 0C11.6872 0 11.4018 0.181503 11.2686 0.465656L10.971 1.09926L10.273 1.20606C9.97317 1.25171 9.72405 1.4613 9.62778 1.74894C9.53151 2.03657 9.60426 2.35389 9.81623 2.57086L10.3462 3.11446L10.2262 3.85966C10.1753 4.1658 10.3041 4.47407 10.5577 4.65305C10.8112 4.83202 11.1448 4.85013 11.4162 4.69966L12.001 4.37406L12.587 4.69846C12.8581 4.84925 13.1916 4.83105 13.4446 4.65166C13.6991 4.47405 13.8285 4.1657 13.777 3.85966L13.657 3.11446L14.187 2.57086C14.3992 2.35393 14.4715 2.03625 14.3742 1.74886ZM12.9422 2.70006C12.8536 2.79091 12.8134 2.91841 12.8338 3.04366L12.9742 3.99806L12.1946 3.56686C12.0742 3.50023 11.9279 3.50023 11.8074 3.56686L11.0142 3.98846L11.1682 3.04366C11.1886 2.91841 11.1484 2.79091 11.0598 2.70006L10.3938 1.99686L11.3026 1.85806C11.4346 1.83798 11.5479 1.75335 11.6046 1.63246L12.0046 0.800456L12.0074 0.805256L12.3954 1.63246C12.4521 1.75335 12.5654 1.83798 12.6974 1.85806L13.6114 2.01206L12.9422 2.70006Z" fill="#BF9156"/>
<path d="M8.7644 2.40026C8.6738 2.12824 8.43859 1.92978 8.1552 1.88626L7.5552 1.79386L7.2988 1.24346C7.17354 0.973503 6.903 0.800781 6.6054 0.800781C6.3078 0.800781 6.03725 0.973503 5.912 1.24346L5.6556 1.79386L5.0556 1.88626C4.77202 1.931 4.53696 2.12994 4.44594 2.40221C4.35493 2.67449 4.42312 2.97479 4.6228 3.18106L5.0828 3.65626L4.9772 4.30866C4.9279 4.59881 5.04964 4.89148 5.29018 5.06106C5.53072 5.23064 5.84728 5.24698 6.104 5.10306L6.606 4.82306L7.1076 5.10306C7.36448 5.24546 7.68016 5.22844 7.92024 5.05924C8.16032 4.89004 8.28251 4.59847 8.2348 4.30866L8.1292 3.65626L8.5892 3.18106C8.78945 2.97427 8.8571 2.67279 8.7644 2.40026ZM7.4132 3.24346C7.32539 3.3341 7.2855 3.46087 7.3056 3.58546L7.4324 4.36866L6.7988 4.01626C6.67791 3.94904 6.53088 3.94904 6.41 4.01626L5.7764 4.36866L5.9032 3.58546C5.92329 3.46087 5.88341 3.3341 5.7956 3.24346L5.2376 2.66706L5.9876 2.55146C6.11969 2.5313 6.233 2.44651 6.2896 2.32546L6.5936 1.62546L6.9192 2.32546C6.9758 2.44651 7.0891 2.5313 7.2212 2.55146L7.9712 2.66706L7.4132 3.24346Z" fill="#BF9156"/>
<path d="M3.95807 3.8523C3.87265 3.59517 3.65061 3.40741 3.38287 3.3659L2.87247 3.2859L2.65487 2.8199C2.5364 2.5641 2.28016 2.40039 1.99827 2.40039C1.71637 2.40039 1.46013 2.5641 1.34167 2.8199L1.12367 3.2879L0.613266 3.3679C0.34558 3.41075 0.123841 3.59872 0.0377357 3.85578C-0.04837 4.11284 0.015405 4.39645 0.203266 4.5919L0.598066 4.9979L0.507666 5.5555C0.461484 5.82992 0.576674 6.10652 0.803986 6.26705C1.0313 6.42757 1.3305 6.44361 1.57367 6.3083L1.99807 6.0719L2.42247 6.3083C2.66572 6.44319 2.9647 6.42707 3.19203 6.26679C3.41937 6.10651 3.535 5.83033 3.48967 5.5559L3.39807 4.9979L3.79167 4.5919C3.98133 4.39601 4.04556 4.11053 3.95807 3.8523ZM2.68527 4.5855C2.59746 4.67614 2.55757 4.80291 2.57767 4.9275L2.67567 5.5335L2.19287 5.2647C2.07177 5.19718 1.92436 5.19718 1.80327 5.2647L1.32047 5.5335L1.41847 4.9275C1.43856 4.80291 1.39867 4.67614 1.31087 4.5855L0.874866 4.1351L1.45687 4.0455C1.58875 4.02501 1.70172 3.94009 1.75807 3.8191L1.99807 3.3047L2.23807 3.8191C2.29448 3.94019 2.40763 4.02513 2.53967 4.0455L3.12167 4.1351L2.68527 4.5855Z" fill="#BF9156"/>
<path d="M19.5613 2.40023C19.4707 2.1282 19.2355 1.92975 18.9521 1.88623L18.3521 1.79383L18.0953 1.24303C17.9699 0.973306 17.6995 0.800781 17.4021 0.800781C17.1046 0.800781 16.8342 0.973306 16.7089 1.24303L16.4525 1.79343L15.8525 1.88583C15.5689 1.93057 15.3338 2.12951 15.2428 2.40178C15.1518 2.67406 15.22 2.97436 15.4197 3.18063L15.8797 3.65583L15.7741 4.30823C15.7248 4.59838 15.8465 4.89105 16.0871 5.06063C16.3276 5.23021 16.6442 5.24655 16.9009 5.10263L17.4029 4.82263L17.9045 5.10263C18.1614 5.24503 18.477 5.22801 18.7171 5.05881C18.9572 4.88961 19.0794 4.59804 19.0317 4.30823L18.9261 3.65583L19.3861 3.18063C19.5862 2.97392 19.6538 2.67264 19.5613 2.40023ZM18.2101 3.24343C18.1223 3.33407 18.0824 3.46084 18.1025 3.58543L18.2293 4.36863L17.5957 4.01623C17.4748 3.94901 17.3278 3.94901 17.2069 4.01623L16.5733 4.36863L16.7001 3.58543C16.7202 3.46084 16.6803 3.33407 16.5925 3.24343L16.0325 2.66703L16.7825 2.55143C16.9146 2.53127 17.0279 2.44648 17.0845 2.32543L17.4013 1.64903L17.7161 2.32543C17.7727 2.44648 17.886 2.53127 18.0181 2.55143L18.7681 2.66703L18.2101 3.24343Z" fill="#BF9156"/>
<path d="M20.8093 6.26782C21.036 6.42788 21.3345 6.44344 21.5765 6.30782L22.0009 6.07142L22.4253 6.30782C22.6686 6.44272 22.9676 6.42659 23.1949 6.26632C23.4222 6.10604 23.5379 5.82986 23.4925 5.55542L23.4009 4.99742L23.7945 4.59142C23.9836 4.39607 24.0481 4.11171 23.9619 3.85391C23.8756 3.59611 23.6531 3.40777 23.3845 3.36542L22.8741 3.28542L22.6565 2.81782C22.5379 2.56208 22.2817 2.39844 21.9997 2.39844C21.7178 2.39844 21.4615 2.56208 21.3429 2.81782L21.1253 3.28542L20.6149 3.36542C20.3464 3.40777 20.1238 3.59611 20.0376 3.85391C19.9514 4.11171 20.0159 4.39607 20.2049 4.59142L20.5985 4.99742L20.5081 5.55502C20.4622 5.83088 20.5795 6.1085 20.8093 6.26782ZM21.4597 4.04502C21.5918 4.02466 21.7049 3.93972 21.7613 3.81862L22.0009 3.30422L22.2409 3.81862C22.2974 3.93972 22.4105 4.02466 22.5425 4.04502L23.1245 4.13462L22.6885 4.58502C22.6007 4.67567 22.5608 4.80243 22.5809 4.92702L22.6789 5.53302L22.1961 5.26422C22.075 5.1967 21.9276 5.1967 21.8065 5.26422L21.3237 5.53302L21.4217 4.92702C21.4418 4.80243 21.4019 4.67567 21.3141 4.58502L20.8781 4.13462L21.4597 4.04502Z" fill="#BF9156"/>
<path d="M0.8 23.9996H23.2C23.6418 23.9996 24 23.6414 24 23.1996V19.1996C24 18.7578 23.6418 18.3996 23.2 18.3996H22V8.39961C22 7.73687 21.4627 7.19961 20.8 7.19961H16.4V6.79961C16.4 6.13687 15.8627 5.59961 15.2 5.59961H8.8C8.13726 5.59961 7.6 6.13687 7.6 6.79961V7.19961H3.2C2.53726 7.19961 2 7.73687 2 8.39961V18.3996H0.8C0.358172 18.3996 0 18.7578 0 19.1996V23.1996C0 23.6414 0.358172 23.9996 0.8 23.9996ZM3.2 23.1996V21.1996H4.8V23.1996H3.2ZM10.4 20.7996H11.6V23.1996H10.4V20.7996ZM12.4 23.1996V20.7996H13.6V23.1996H12.4ZM19.2 23.1996V21.1996H20.8V23.1996H19.2ZM20.8 7.99961C21.0209 7.99961 21.2 8.1787 21.2 8.39961V18.3996H16.4V7.99961H20.8ZM8.4 6.79961C8.4 6.5787 8.57909 6.39961 8.8 6.39961H15.2C15.4209 6.39961 15.6 6.5787 15.6 6.79961V18.3996H8.4V6.79961ZM2.8 8.39961C2.8 8.1787 2.97909 7.99961 3.2 7.99961H7.6V18.3996H2.8V8.39961ZM0.8 19.1996H23.2V23.1996H21.6V21.1996C21.8209 21.1996 22 21.0205 22 20.7996C22 20.5787 21.8209 20.3996 21.6 20.3996H18.4C18.1791 20.3996 18 20.5787 18 20.7996C18 21.0205 18.1791 21.1996 18.4 21.1996V23.1996H14.4V20.7996H14.8C15.0209 20.7996 15.2 20.6205 15.2 20.3996C15.2 20.1787 15.0209 19.9996 14.8 19.9996H9.2C8.97909 19.9996 8.8 20.1787 8.8 20.3996C8.8 20.6205 8.97909 20.7996 9.2 20.7996H9.6V23.1996H5.6V21.1996C5.82091 21.1996 6 21.0205 6 20.7996C6 20.5787 5.82091 20.3996 5.6 20.3996H2.4C2.17909 20.3996 2 20.5787 2 20.7996C2 21.0205 2.17909 21.1996 2.4 21.1996V23.1996H0.8V19.1996Z" fill="#BF9156"/>
<path d="M10.0031 9.99961H10.8031C11.245 9.99961 11.6031 9.64144 11.6031 9.19961V8.39961C11.6031 7.95778 11.245 7.59961 10.8031 7.59961H10.0031C9.5613 7.59961 9.20312 7.95778 9.20312 8.39961V9.19961C9.20312 9.64144 9.5613 9.99961 10.0031 9.99961ZM10.0031 8.39961H10.8031V9.19961H10.0031V8.39961Z" fill="#BF9156"/>
<path d="M13.1984 9.99961H13.9984C14.4403 9.99961 14.7984 9.64144 14.7984 9.19961V8.39961C14.7984 7.95778 14.4403 7.59961 13.9984 7.59961H13.1984C12.7566 7.59961 12.3984 7.95778 12.3984 8.39961V9.19961C12.3984 9.64144 12.7566 9.99961 13.1984 9.99961ZM13.1984 8.39961H13.9984V9.19961H13.1984V8.39961Z" fill="#BF9156"/>
<path d="M10.0031 13.5992H10.8031C11.245 13.5992 11.6031 13.241 11.6031 12.7992V11.9992C11.6031 11.5574 11.245 11.1992 10.8031 11.1992H10.0031C9.5613 11.1992 9.20312 11.5574 9.20312 11.9992V12.7992C9.20312 13.241 9.5613 13.5992 10.0031 13.5992ZM10.8031 11.9992V12.7992H10.0031V11.9992H10.8031Z" fill="#BF9156"/>
<path d="M13.1984 13.5992H13.9984C14.4403 13.5992 14.7984 13.241 14.7984 12.7992V11.9992C14.7984 11.5574 14.4403 11.1992 13.9984 11.1992H13.1984C12.7566 11.1992 12.3984 11.5574 12.3984 11.9992V12.7992C12.3984 13.241 12.7566 13.5992 13.1984 13.5992ZM13.9984 11.9992V12.7992H13.1984V11.9992H13.9984Z" fill="#BF9156"/>
<path d="M10.8031 14.8008H10.0031C9.5613 14.8008 9.20312 15.159 9.20312 15.6008V16.4008C9.20312 16.8426 9.5613 17.2008 10.0031 17.2008H10.8031C11.245 17.2008 11.6031 16.8426 11.6031 16.4008V15.6008C11.6031 15.159 11.245 14.8008 10.8031 14.8008ZM10.0031 16.4008V15.6008H10.8031V16.4008H10.0031Z" fill="#BF9156"/>
<path d="M4.40156 11.2008H6.00156C6.44339 11.2008 6.80156 10.8426 6.80156 10.4008V9.60078C6.80156 9.15895 6.44339 8.80078 6.00156 8.80078H4.40156C3.95973 8.80078 3.60156 9.15895 3.60156 9.60078V10.4008C3.60156 10.8426 3.95973 11.2008 4.40156 11.2008ZM4.40156 9.60078H6.00156V10.4008H4.40156V9.60078Z" fill="#BF9156"/>
<path d="M6.00156 12H4.40156C3.95973 12 3.60156 12.3582 3.60156 12.8V13.6C3.60156 14.0418 3.95973 14.4 4.40156 14.4H6.00156C6.44339 14.4 6.80156 14.0418 6.80156 13.6V12.8C6.80156 12.3582 6.44339 12 6.00156 12ZM4.40156 13.6V12.8H6.00156V13.6H4.40156Z" fill="#BF9156"/>
<path d="M6.00156 15.1992H4.40156C3.95973 15.1992 3.60156 15.5574 3.60156 15.9992V16.7992C3.60156 17.241 3.95973 17.5992 4.40156 17.5992H6.00156C6.44339 17.5992 6.80156 17.241 6.80156 16.7992V15.9992C6.80156 15.5574 6.44339 15.1992 6.00156 15.1992ZM4.40156 16.7992V15.9992H6.00156V16.7992H4.40156Z" fill="#BF9156"/>
<path d="M18.0031 11.2008H19.6031C20.045 11.2008 20.4031 10.8426 20.4031 10.4008V9.60078C20.4031 9.15895 20.045 8.80078 19.6031 8.80078H18.0031C17.5613 8.80078 17.2031 9.15895 17.2031 9.60078V10.4008C17.2031 10.8426 17.5613 11.2008 18.0031 11.2008ZM18.0031 9.60078H19.6031V10.4008H18.0031V9.60078Z" fill="#BF9156"/>
<path d="M17.2031 12.8V13.6C17.2031 14.0418 17.5613 14.4 18.0031 14.4H19.6031C20.045 14.4 20.4031 14.0418 20.4031 13.6V12.8C20.4031 12.3582 20.045 12 19.6031 12H18.0031C17.5613 12 17.2031 12.3582 17.2031 12.8ZM19.6031 13.6H18.0031V12.8H19.6031V13.6Z" fill="#BF9156"/>
<path d="M19.6031 15.1992H18.0031C17.5613 15.1992 17.2031 15.5574 17.2031 15.9992V16.7992C17.2031 17.241 17.5613 17.5992 18.0031 17.5992H19.6031C20.045 17.5992 20.4031 17.241 20.4031 16.7992V15.9992C20.4031 15.5574 20.045 15.1992 19.6031 15.1992ZM19.6031 16.7992H18.0031V15.9992H19.6031V16.7992Z" fill="#BF9156"/>
<path d="M13.9984 14.8008H13.1984C12.7566 14.8008 12.3984 15.159 12.3984 15.6008V16.4008C12.3984 16.8426 12.7566 17.2008 13.1984 17.2008H13.9984C14.4403 17.2008 14.7984 16.8426 14.7984 16.4008V15.6008C14.7984 15.159 14.4403 14.8008 13.9984 14.8008ZM13.1984 16.4008V15.6008H13.9984V16.4008H13.1984Z" fill="#BF9156"/>
</g>
<defs>
<clipPath id="clip0_1898_3334">
<rect width="24" height="24" fill="white"/>
</clipPath>
</defs>
</svg>
