<svg width="24" height="24" viewBox="0 0 24 24" fill="none" xmlns="http://www.w3.org/2000/svg">
<path d="M20.5 8.75H15V5.5C14.9992 4.8372 14.7356 4.20178 14.2669 3.73311C13.7982 3.26444 13.1628 3.00079 12.5 3H3.5C2.8372 3.00079 2.20178 3.26444 1.73311 3.73311C1.26444 4.20178 1.00079 4.8372 1 5.5V11.5C1.00079 12.1628 1.26444 12.7982 1.73311 13.2669C2.20178 13.7356 2.8372 13.9992 3.5 14V15.045C3.49963 15.2423 3.55796 15.4352 3.66756 15.5992C3.77717 15.7632 3.9331 15.8909 4.1155 15.966C4.2987 16.0423 4.50047 16.0624 4.69511 16.0236C4.88975 15.9849 5.06846 15.8891 5.2085 15.7485C5.22675 15.731 5.24348 15.7119 5.2585 15.6915L6.5025 14H9V17.25C9.00079 17.9128 9.26444 18.5482 9.73311 19.0169C10.2018 19.4856 10.8372 19.7492 11.5 19.75H17.043L18.793 21.5C18.9329 21.6398 19.111 21.735 19.305 21.7736C19.4989 21.8122 19.7 21.7923 19.8827 21.7167C20.0654 21.641 20.2215 21.5129 20.3314 21.3485C20.4413 21.184 20.5 20.9907 20.5 20.793V19.75C21.1628 19.7492 21.7982 19.4856 22.2669 19.0169C22.7356 18.5482 22.9992 17.9128 23 17.25V11.25C22.9992 10.5872 22.7356 9.95178 22.2669 9.48311C21.7982 9.01444 21.1628 8.75079 20.5 8.75ZM6.25 13C6.17208 13.0004 6.09534 13.019 6.02589 13.0543C5.95644 13.0897 5.89621 13.1408 5.85 13.2035L4.5 15.0335V13.5C4.5 13.3674 4.44732 13.2402 4.35355 13.1464C4.25979 13.0527 4.13261 13 4 13H3.5C3.10218 13 2.72064 12.842 2.43934 12.5607C2.15804 12.2794 2 11.8978 2 11.5V5.5C2 5.10218 2.15804 4.72064 2.43934 4.43934C2.72064 4.15804 3.10218 4 3.5 4H12.5C12.8978 4 13.2794 4.15804 13.5607 4.43934C13.842 4.72064 14 5.10218 14 5.5V8.75H11.5C10.9681 8.75157 10.4507 8.92425 10.0245 9.2425L8.455 5.7925C8.41523 5.70521 8.35118 5.6312 8.27051 5.5793C8.18983 5.5274 8.09593 5.4998 8 5.4998C7.90407 5.4998 7.81017 5.5274 7.72949 5.5793C7.64882 5.6312 7.58477 5.70521 7.545 5.7925L5.045 11.2925C5.0179 11.3524 5.00287 11.417 5.00076 11.4827C4.99866 11.5484 5.00953 11.6138 5.03275 11.6753C5.05597 11.7368 5.09108 11.7931 5.13608 11.841C5.18108 11.8889 5.23508 11.9275 5.295 11.9545C5.35925 11.9843 5.42918 11.9998 5.5 12C5.59596 12 5.68989 11.9723 5.77057 11.9204C5.85125 11.8684 5.91527 11.7944 5.955 11.707L6.731 10H9.27L9.3055 10.0775C9.10788 10.4369 9.00289 10.8399 9 11.25V13H6.25ZM8.8155 9H7.1855L8 7.208L8.8155 9ZM22 17.25C22 17.6478 21.842 18.0294 21.5607 18.3107C21.2794 18.592 20.8978 18.75 20.5 18.75H20C19.8674 18.75 19.7402 18.8027 19.6464 18.8964C19.5527 18.9902 19.5 19.1174 19.5 19.25V20.793L17.6035 18.8965C17.5098 18.8027 17.3826 18.75 17.25 18.75H11.5C11.1022 18.75 10.7206 18.592 10.4393 18.3107C10.158 18.0294 10 17.6478 10 17.25V11.25C10 10.8522 10.158 10.4706 10.4393 10.1893C10.7206 9.90804 11.1022 9.75 11.5 9.75H20.5C20.8978 9.75 21.2794 9.90804 21.5607 10.1893C21.842 10.4706 22 10.8522 22 11.25V17.25Z" fill="#BF9156"/>
<path d="M18.5 12.5H16.5V11.5C16.5 11.3674 16.4473 11.2402 16.3536 11.1464C16.2598 11.0527 16.1326 11 16 11C15.8674 11 15.7402 11.0527 15.6464 11.1464C15.5527 11.2402 15.5 11.3674 15.5 11.5V12.5H13.5C13.3674 12.5 13.2402 12.5527 13.1464 12.6464C13.0527 12.7402 13 12.8674 13 13C13 13.1326 13.0527 13.2598 13.1464 13.3536C13.2402 13.4473 13.3674 13.5 13.5 13.5H17.21C17.0876 14.3494 16.6556 15.1237 15.997 15.674C15.6123 15.3527 15.3014 14.9523 15.0855 14.5C15.0583 14.4391 15.0192 14.3843 14.9706 14.3388C14.9219 14.2933 14.8646 14.2579 14.8021 14.2348C14.7396 14.2118 14.6731 14.2014 14.6065 14.2044C14.5399 14.2074 14.4746 14.2237 14.4144 14.2523C14.3542 14.2809 14.3003 14.3212 14.256 14.371C14.2116 14.4207 14.1776 14.4788 14.156 14.5418C14.1344 14.6049 14.1256 14.6716 14.1301 14.7381C14.1347 14.8046 14.1525 14.8695 14.1825 14.929C14.4148 15.4107 14.7325 15.8464 15.12 16.215C14.6757 16.4043 14.1975 16.5012 13.7145 16.5C13.6497 16.5003 13.5857 16.5136 13.5261 16.539C13.4666 16.5645 13.4127 16.6016 13.3678 16.6482C13.3228 16.6948 13.2876 16.75 13.2643 16.8104C13.241 16.8708 13.23 16.9353 13.232 17C13.236 17.1344 13.2925 17.262 13.3893 17.3554C13.486 17.4488 13.6155 17.5007 13.75 17.5C14.5446 17.4997 15.3248 17.2874 16.01 16.885C16.7016 17.2857 17.4862 17.4978 18.2855 17.5C18.3503 17.4997 18.4143 17.4864 18.4739 17.461C18.5334 17.4355 18.5873 17.3984 18.6322 17.3518C18.6772 17.3052 18.7124 17.2501 18.7357 17.1896C18.759 17.1292 18.77 17.0647 18.768 17C18.764 16.8656 18.7075 16.738 18.6107 16.6446C18.514 16.5512 18.3845 16.4993 18.25 16.5C17.7822 16.4982 17.3197 16.4019 16.89 16.217C17.6348 15.4928 18.1051 14.5324 18.2205 13.5H18.5C18.6326 13.5 18.7598 13.4473 18.8536 13.3536C18.9473 13.2598 19 13.1326 19 13C19 12.8674 18.9473 12.7402 18.8536 12.6464C18.7598 12.5527 18.6326 12.5 18.5 12.5Z" fill="#BF9156"/>
</svg>
