<svg width="24" height="24" viewBox="0 0 24 24" fill="none" xmlns="http://www.w3.org/2000/svg">
<path d="M21.338 22.7818L20.9495 19.131C20.8882 18.5629 20.6528 18.0276 20.2755 17.5984C19.8982 17.1693 19.3974 16.8673 18.8418 16.7338L14.5401 15.7063L14.396 14.0078C15.4 13.2334 16.1535 12.1802 16.5621 10.9798C16.6167 10.9838 16.6713 10.9879 16.7243 10.9879C16.971 10.9956 17.2163 10.9477 17.4419 10.8477C17.6676 10.7477 17.8678 10.5983 18.0278 10.4104C18.2216 10.1768 18.3527 9.89776 18.4087 9.59949C18.4648 9.30123 18.4439 8.9936 18.3481 8.70564C18.296 8.55207 18.2118 8.41132 18.1013 8.29269C17.9907 8.17407 17.8562 8.08027 17.7066 8.01752C17.6948 8.01264 17.683 8.00945 17.6712 8.00514V6.12339C17.6712 0.913703 12.7375 0.853516 12.6878 0.853516H7.15115C7.06412 0.853516 6.98066 0.888086 6.91913 0.949621C6.85759 1.01116 6.82302 1.09462 6.82302 1.18164C6.82764 1.52904 6.90598 1.87151 7.05286 2.18637C7.19973 2.50123 7.4118 2.78131 7.67502 3.00808C7.26321 3.25971 6.92285 3.61279 6.68649 4.03354C6.45013 4.4543 6.32567 4.92866 6.32502 5.41127V8.00533C6.31321 8.00964 6.30121 8.01283 6.2894 8.0177C6.13988 8.08049 6.00539 8.17429 5.89482 8.29292C5.78424 8.41154 5.7001 8.55228 5.64796 8.70583C5.55218 8.9938 5.53133 9.30141 5.58736 9.59967C5.64339 9.89793 5.77446 10.177 5.96821 10.4106C6.12823 10.5985 6.32851 10.748 6.55419 10.848C6.77988 10.948 7.02518 10.9959 7.2719 10.9881C7.32496 10.9881 7.37952 10.984 7.43408 10.98C7.84271 12.1805 8.59627 13.2338 9.60046 14.0081L9.45609 15.7065L5.15427 16.7338C4.59866 16.8673 4.09791 17.1693 3.72062 17.5984C3.34333 18.0276 3.10796 18.5629 3.04677 19.131L2.65809 22.7818C2.6489 22.8684 2.67447 22.9551 2.72918 23.0228C2.78389 23.0905 2.86326 23.1337 2.94984 23.143C2.96165 23.1441 2.97327 23.1446 2.9849 23.1446C3.0658 23.1445 3.14381 23.1145 3.20395 23.0604C3.26409 23.0063 3.30213 22.9318 3.31077 22.8514L3.69946 19.2006C3.74611 18.7672 3.92562 18.3589 4.21339 18.0316C4.50116 17.7042 4.8831 17.4739 5.3069 17.3721L7.80327 16.7758L7.03452 20.4836C7.02279 20.5405 7.02635 20.5995 7.04484 20.6545C7.06333 20.7096 7.09609 20.7587 7.13977 20.797C7.18346 20.8352 7.23651 20.8612 7.29352 20.8723C7.35053 20.8834 7.40945 20.8791 7.46427 20.86L9.43471 20.1688V22.8165C9.43471 22.9035 9.46928 22.987 9.53082 23.0485C9.59235 23.1101 9.67581 23.1446 9.76284 23.1446C9.84986 23.1446 9.93332 23.1101 9.99485 23.0485C10.0564 22.987 10.091 22.9035 10.091 22.8165V17.6771C10.3303 17.9465 10.624 18.1622 10.9527 18.3098C11.2814 18.4575 11.6377 18.5339 11.998 18.5339C12.3584 18.5339 12.7146 18.4575 13.0434 18.3098C13.3721 18.1622 13.6658 17.9465 13.9051 17.6771V22.8165C13.9051 22.9035 13.9397 22.987 14.0012 23.0485C14.0627 23.1101 14.1462 23.1446 14.2332 23.1446C14.3202 23.1446 14.4037 23.1101 14.4652 23.0485C14.5268 22.987 14.5613 22.9035 14.5613 22.8165V20.1688L16.5318 20.86C16.5866 20.8792 16.6456 20.8835 16.7026 20.8725C16.7597 20.8615 16.8128 20.8355 16.8565 20.7973C16.9003 20.759 16.9331 20.7098 16.9515 20.6547C16.97 20.5996 16.9735 20.5405 16.9617 20.4836L16.193 16.7758L18.6893 17.3721C19.1131 17.4739 19.4951 17.7043 19.7829 18.0316C20.0707 18.3589 20.2502 18.7672 20.297 19.2006L20.6855 22.8514C20.6941 22.9319 20.7321 23.0063 20.7922 23.0604C20.8524 23.1146 20.9304 23.1445 21.0113 23.1446C21.023 23.1446 21.0346 23.1446 21.0466 23.143C21.1331 23.1337 21.2124 23.0905 21.2671 23.0227C21.3217 22.955 21.3472 22.8684 21.338 22.7818ZM17.7355 8.93889C17.7898 9.11763 17.799 9.30701 17.7625 9.4902C17.7259 9.67338 17.6446 9.84468 17.5259 9.98889C17.4302 10.0997 17.3111 10.1879 17.1772 10.2471C17.0433 10.3063 16.8979 10.3351 16.7515 10.3315C16.8821 9.77358 16.9536 9.20349 16.9647 8.63064C17.1275 8.57839 17.3025 8.57747 17.4659 8.62802C17.5304 8.6576 17.5879 8.70065 17.6344 8.75427C17.6809 8.80789 17.7154 8.87084 17.7355 8.93889ZM8.41677 3.37802C8.4765 3.35654 8.52873 3.31823 8.56716 3.26772C8.60559 3.21721 8.62857 3.15665 8.63333 3.09336C8.63809 3.03007 8.62442 2.96675 8.59398 2.91106C8.56353 2.85537 8.51762 2.80968 8.46177 2.77952C8.22532 2.64367 8.01908 2.46098 7.85568 2.24265C7.69229 2.02432 7.57518 1.77493 7.51152 1.50977H12.6884C12.865 1.50977 17.0155 1.56208 17.0155 6.12339V7.94908C16.917 7.96345 16.8198 7.98558 16.7247 8.01527L16.1144 7.39989C15.8123 7.09393 15.6185 6.69763 15.5624 6.27133L15.4064 5.06814C15.4003 5.02202 15.3844 4.97772 15.3599 4.93819C15.3354 4.89866 15.3027 4.86479 15.2641 4.83883C15.2255 4.81288 15.1818 4.79543 15.1359 4.78763C15.09 4.77984 15.043 4.78189 14.998 4.79364C14.0136 5.01451 13.0069 5.12115 11.998 5.11145C10.9891 5.12031 9.98254 5.01336 8.99802 4.7927C8.95293 4.78095 8.90586 4.77893 8.85993 4.78678C8.81401 4.79463 8.77027 4.81216 8.73165 4.83822C8.69302 4.86427 8.66038 4.89825 8.63589 4.93789C8.61141 4.97753 8.59565 5.02193 8.58965 5.06814L8.43384 6.27114C8.37767 6.69754 8.1837 7.09391 7.88146 7.39989L7.27302 8.01583C7.1779 7.98623 7.0806 7.96416 6.98202 7.94983V5.41127C6.9826 4.96584 7.12074 4.53147 7.37755 4.16753C7.63436 3.80359 7.99731 3.52785 8.41677 3.37802ZM6.47071 9.98833C6.35195 9.84414 6.27069 9.67282 6.23414 9.48963C6.1976 9.30643 6.20692 9.11705 6.26127 8.93833C6.28135 8.87019 6.31581 8.80715 6.36232 8.75346C6.40883 8.69977 6.46632 8.65667 6.5309 8.62708C6.69423 8.5766 6.86914 8.57758 7.0319 8.62989C7.04318 9.20268 7.1147 9.77269 7.24527 10.3305C7.09891 10.3342 6.95355 10.3054 6.81962 10.2463C6.6857 10.1871 6.56654 10.099 6.47071 9.98833ZM7.68552 8.53164L8.34871 7.86283C8.75209 7.45446 9.01087 6.92539 9.08559 6.35627L9.19546 5.50895C10.1193 5.68435 11.0577 5.77099 11.998 5.7677C12.9385 5.77103 13.8772 5.68438 14.8011 5.50895L14.911 6.35627C14.9857 6.92539 15.2445 7.45446 15.6479 7.86283L16.3105 8.53164C16.2582 11.9492 14.2036 13.5101 12.973 14.139C12.671 14.2928 12.3369 14.373 11.998 14.373C11.6591 14.373 11.325 14.2928 11.023 14.139C9.7919 13.5101 7.73727 11.9492 7.68552 8.53164ZM7.7954 20.0486L8.5079 16.6075L9.43452 16.3862V19.4734L7.7954 20.0486ZM11.998 17.8776C11.494 17.8769 11.0106 17.677 10.6534 17.3213C10.2962 16.9657 10.0942 16.4832 10.0913 15.9791L10.2226 14.44C10.3986 14.5489 10.568 14.6434 10.7247 14.7235C11.1192 14.9243 11.5556 15.0291 11.9983 15.0291C12.441 15.0291 12.8774 14.9243 13.2719 14.7235C13.4286 14.6434 13.598 14.5489 13.7742 14.44L13.9055 15.9797C13.9026 16.4838 13.7004 16.9663 13.343 17.3219C12.9857 17.6775 12.5021 17.8772 11.998 17.8776ZM16.2012 20.0486L14.5613 19.4734V16.3866L15.4878 16.6078L16.2012 20.0486Z" fill="#BF9156"/>
<path d="M13.3719 12.0933C13.4478 12.0506 13.5036 11.9795 13.5271 11.8956C13.5506 11.8117 13.5398 11.7219 13.4971 11.646C13.4544 11.57 13.3833 11.5142 13.2994 11.4907C13.2155 11.4672 13.1257 11.478 13.0497 11.5207C12.7207 11.6715 12.3616 11.7451 11.9997 11.7358C11.6384 11.7451 11.2797 11.6719 10.9509 11.5218C10.8751 11.479 10.7854 11.468 10.7015 11.4912C10.6176 11.5145 10.5463 11.5702 10.5035 11.646C10.4606 11.7217 10.4496 11.8115 10.4729 11.8954C10.4962 11.9793 10.5518 12.0505 10.6276 12.0933C11.0545 12.3012 11.5251 12.4036 11.9997 12.392C12.4744 12.4036 12.9449 12.3011 13.3719 12.0933Z" fill="#BF9156"/>
<path d="M10.6955 8.15953C10.7605 8.21744 10.8458 8.24716 10.9327 8.24217C11.0196 8.23718 11.1009 8.19787 11.1589 8.1329C11.2168 8.06793 11.2465 7.98262 11.2415 7.89573C11.2365 7.80884 11.1972 7.7275 11.1322 7.66959C10.8582 7.45228 10.5156 7.33986 10.166 7.35253C9.81651 7.33986 9.47392 7.45228 9.19986 7.66959C9.13672 7.72717 9.09878 7.80727 9.09421 7.89259C9.08965 7.97792 9.11885 8.06161 9.17548 8.12559C9.23266 8.19015 9.31276 8.22986 9.39876 8.23626C9.48476 8.24267 9.56987 8.21528 9.63598 8.1599C9.79508 8.06124 9.97856 8.00896 10.1658 8.00896C10.353 8.00896 10.5365 8.06124 10.6955 8.1599V8.15953Z" fill="#BF9156"/>
<path d="M10.6166 9.03698C10.6166 8.94742 10.5901 8.85985 10.5403 8.78536C10.4906 8.71088 10.4199 8.65281 10.3372 8.61851C10.2544 8.58421 10.1634 8.57521 10.0755 8.59266C9.98768 8.61011 9.90698 8.65322 9.84363 8.71654C9.78028 8.77986 9.73714 8.86055 9.71965 8.94839C9.70216 9.03623 9.71112 9.12729 9.74539 9.21004C9.77966 9.29279 9.83769 9.36352 9.91216 9.41328C9.98663 9.46305 10.0742 9.48961 10.1637 9.48961C10.2838 9.48961 10.399 9.44193 10.4839 9.35705C10.5688 9.27217 10.6165 9.15705 10.6166 9.03698Z" fill="#BF9156"/>
<path d="M13.3001 8.16031C13.4592 8.06164 13.6426 8.00936 13.8298 8.00936C14.017 8.00936 14.2004 8.06164 14.3595 8.16031C14.4245 8.21821 14.5098 8.24794 14.5967 8.24295C14.6836 8.23796 14.7649 8.19865 14.8228 8.13368C14.8807 8.06871 14.9104 7.9834 14.9054 7.89651C14.9005 7.80962 14.8612 7.72828 14.7962 7.67037C14.5161 7.46453 14.1777 7.35352 13.8301 7.35352C13.4825 7.35352 13.144 7.46453 12.864 7.67037C12.8008 7.72792 12.7628 7.80803 12.7583 7.89337C12.7537 7.97871 12.7829 8.06241 12.8396 8.12637C12.8969 8.19075 12.977 8.23029 13.063 8.23663C13.149 8.24296 13.234 8.21559 13.3001 8.16031Z" fill="#BF9156"/>
<path d="M13.828 8.58594C13.7384 8.5859 13.6509 8.61243 13.5764 8.66216C13.5019 8.71189 13.4438 8.7826 13.4095 8.86534C13.3752 8.94807 13.3662 9.03912 13.3837 9.12697C13.4011 9.21482 13.4442 9.29553 13.5076 9.35887C13.5709 9.42222 13.6516 9.46536 13.7394 9.48285C13.8272 9.50034 13.9183 9.49138 14.0011 9.45711C14.0838 9.42285 14.1545 9.36481 14.2043 9.29034C14.2541 9.21587 14.2806 9.12832 14.2806 9.03875C14.2806 8.91869 14.2329 8.80354 14.1481 8.71863C14.0632 8.63372 13.9481 8.58599 13.828 8.58594Z" fill="#BF9156"/>
</svg>
