<svg width="24" height="24" viewBox="0 0 24 24" fill="none" xmlns="http://www.w3.org/2000/svg">
<g clip-path="url(#clip0_1898_3513)">
<path d="M6.17551 19.8746C6.1549 19.7953 6.10891 19.7249 6.04456 19.6742C5.9802 19.6235 5.90102 19.5952 5.8191 19.5938C5.73761 19.5941 5.65833 19.6202 5.59258 19.6684C5.52684 19.7165 5.47801 19.7842 5.45307 19.8618L4.42182 23.3306C4.39346 23.4259 4.40413 23.5286 4.45148 23.616C4.49884 23.7035 4.57899 23.7686 4.67432 23.7969C4.76965 23.8253 4.87234 23.8146 4.9598 23.7673C5.04727 23.7199 5.11233 23.6398 5.1407 23.5444L5.78779 21.3677L6.10575 22.5941C6.13071 22.6904 6.19289 22.7728 6.27862 22.8232C6.36434 22.8737 6.46659 22.888 6.56286 22.863C6.65914 22.838 6.74155 22.7759 6.79198 22.6901C6.8424 22.6044 6.85671 22.5022 6.83175 22.4059L6.17551 19.8746Z" fill="#BF9156"/>
<path d="M18.5469 19.8618C18.5239 19.7844 18.4765 19.7164 18.4118 19.6681C18.347 19.6198 18.2684 19.5937 18.1876 19.5938H18.1809C18.099 19.5952 18.0198 19.6235 17.9555 19.6742C17.8911 19.7249 17.8451 19.7953 17.8245 19.8746L17.1683 22.4059C17.1433 22.5021 17.1576 22.6044 17.208 22.6901C17.2584 22.7758 17.3409 22.838 17.4371 22.863C17.5334 22.888 17.6357 22.8736 17.7214 22.8232C17.8071 22.7728 17.8693 22.6904 17.8943 22.5941L18.2122 21.3677L18.8593 23.5444C18.8877 23.6398 18.9527 23.7199 19.0402 23.7673C19.1277 23.8146 19.2303 23.8253 19.3257 23.7969C19.421 23.7686 19.5012 23.7035 19.5485 23.616C19.5959 23.5286 19.6065 23.4259 19.5782 23.3306L18.5469 19.8618Z" fill="#BF9156"/>
<path d="M23.4268 23.5367L21.4078 15.1968C21.4053 15.1868 21.4025 15.1767 21.3992 15.167C20.9743 13.8871 20.0416 13.5676 18.9616 13.1975C18.8583 13.162 18.7524 13.1257 18.6445 13.0878C17.5592 12.7061 16.5428 12.1513 15.6347 11.445C15.4597 11.3064 15.3143 11.1341 15.207 10.9383C15.0997 10.7426 15.0328 10.5273 15.0102 10.3052C15.4736 9.72382 15.8545 9.08125 16.1422 8.39569C16.1654 8.39075 16.1884 8.38537 16.2113 8.37954C16.5636 8.29002 16.8823 8.10003 17.1286 7.83269C17.3749 7.56534 17.5381 7.23218 17.5985 6.87374C17.6589 6.5153 17.6137 6.14705 17.4686 5.81378C17.3235 5.48052 17.0847 5.19662 16.7811 4.99664V4.41927C16.7811 1.98247 14.6363 0 11.9999 0C9.36354 0 7.21869 1.98247 7.21869 4.41927V4.9957C6.91005 5.19902 6.66837 5.489 6.52401 5.82923C6.37964 6.16946 6.33903 6.54476 6.40728 6.90799C6.47553 7.27122 6.64959 7.60619 6.9076 7.87082C7.16561 8.13544 7.49606 8.31793 7.85745 8.39535C8.14516 9.08104 8.52616 9.72373 8.98967 10.3052C8.96702 10.5273 8.90008 10.7426 8.7928 10.9384C8.68553 11.1341 8.5401 11.3064 8.3651 11.445C7.45699 12.1513 6.44061 12.7061 5.35533 13.0878C5.24739 13.1257 5.14155 13.162 5.03819 13.1975C3.95824 13.5676 3.02551 13.8871 2.60062 15.167C2.59732 15.1767 2.59448 15.1868 2.59201 15.1969L0.573015 23.5367C0.549634 23.6334 0.565597 23.7354 0.617395 23.8203C0.669193 23.9051 0.752583 23.966 0.849227 23.9894C0.878199 23.9965 0.907927 24.0001 0.937759 24C1.02181 23.9999 1.10339 23.9716 1.16943 23.9196C1.23547 23.8676 1.28214 23.7949 1.30195 23.7133L3.3172 15.3889C3.62702 14.4738 4.28619 14.248 5.28136 13.907C5.38655 13.871 5.49422 13.834 5.60418 13.7954C6.41648 13.509 7.19371 13.1315 7.92096 12.67L11.7348 16.4839C11.7696 16.5187 11.8109 16.5463 11.8564 16.5652C11.9019 16.584 11.9507 16.5938 11.9999 16.5938C12.0492 16.5938 12.0979 16.584 12.1434 16.5652C12.1889 16.5463 12.2302 16.5187 12.265 16.4839L16.0789 12.67C16.8061 13.1315 17.5833 13.509 18.3957 13.7954C18.5056 13.834 18.6133 13.871 18.7185 13.907C19.7136 14.248 20.3728 14.4738 20.6826 15.3889L22.6979 23.7133C22.7177 23.7949 22.7643 23.8676 22.8304 23.9196C22.8964 23.9716 22.978 23.9999 23.0621 24C23.0919 24.0001 23.1216 23.9965 23.1506 23.9894C23.2472 23.966 23.3306 23.9051 23.3824 23.8203C23.4342 23.7354 23.4502 23.6334 23.4268 23.5367ZM7.96869 4.41927C7.96869 2.39279 9.77352 0.75 11.9999 0.75C14.2263 0.75 16.0311 2.39279 16.0311 4.41927V4.76096L15.2695 5.01484C15.1919 4.86055 15.073 4.73077 14.9262 4.6399C14.7793 4.54903 14.6101 4.5006 14.4374 4.5H13.3124C13.1302 4.50031 12.9521 4.55367 12.7997 4.65356C12.6473 4.75345 12.5273 4.89555 12.4544 5.0625H11.5454C11.4725 4.89555 11.3525 4.75345 11.2001 4.65356C11.0478 4.55367 10.8696 4.50031 10.6874 4.5H9.56241C9.38969 4.5006 9.22052 4.54902 9.07364 4.6399C8.92676 4.73077 8.80792 4.86055 8.73029 5.01484L7.96866 4.76096L7.96869 4.41927ZM14.6249 5.4375V5.8125C14.6248 5.86221 14.6051 5.90988 14.5699 5.94503C14.5348 5.98018 14.4871 5.99995 14.4374 6H13.3124C13.2627 5.99995 13.215 5.98018 13.1799 5.94503C13.1447 5.90988 13.125 5.86221 13.1249 5.8125V5.4375C13.125 5.38779 13.1447 5.34012 13.1799 5.30497C13.215 5.26982 13.2627 5.25005 13.3124 5.25H14.4374C14.4871 5.25005 14.5348 5.26983 14.5699 5.30498C14.6051 5.34013 14.6248 5.38779 14.6249 5.4375ZM10.8749 5.4375V5.8125C10.8749 5.86221 10.8551 5.90988 10.8199 5.94503C10.7848 5.98018 10.7371 5.99995 10.6874 6H9.56241C9.5127 5.99995 9.46504 5.98018 9.42988 5.94503C9.39473 5.90988 9.37496 5.86221 9.37491 5.8125V5.4375C9.37496 5.38779 9.39473 5.34012 9.42988 5.30497C9.46504 5.26982 9.5127 5.25005 9.56241 5.25H10.6874C10.7371 5.25005 10.7848 5.26982 10.8199 5.30497C10.8551 5.34012 10.8749 5.38779 10.8749 5.4375ZM8.24993 6.5625C8.15048 6.5625 8.0551 6.60201 7.98477 6.67234C7.91445 6.74266 7.87494 6.83805 7.87493 6.9375V7.62125C7.65784 7.54477 7.46948 7.40342 7.33537 7.21636C7.20125 7.02929 7.12786 6.80553 7.12511 6.57537C7.12237 6.34521 7.19041 6.11976 7.32003 5.92955C7.44964 5.73934 7.63457 5.59355 7.84979 5.51191L8.62494 5.77029V5.8125C8.62523 6.06105 8.72409 6.29934 8.89984 6.47509C9.0756 6.65084 9.31388 6.74971 9.56244 6.75H10.6874C10.936 6.74971 11.1743 6.65084 11.35 6.47509C11.5258 6.29934 11.6246 6.06105 11.6249 5.8125H12.3749C12.3752 6.06105 12.4741 6.29934 12.6498 6.47509C12.8256 6.65084 13.0639 6.74971 13.3124 6.75H14.4374C14.686 6.74971 14.9243 6.65084 15.1 6.47509C15.2758 6.29934 15.3746 6.06105 15.3749 5.8125V5.77029L16.1493 5.51216C16.3646 5.59375 16.5497 5.73953 16.6794 5.92978C16.8092 6.12002 16.8773 6.34553 16.8746 6.57578C16.872 6.80604 16.7986 7.02991 16.6645 7.2171C16.5304 7.40429 16.342 7.54576 16.1249 7.62235V6.9375C16.1249 6.83804 16.0854 6.74266 16.0151 6.67233C15.9447 6.60201 15.8493 6.5625 15.7499 6.5625C15.6504 6.5625 15.555 6.60201 15.4847 6.67233C15.4144 6.74266 15.3749 6.83804 15.3749 6.9375V7.85669L13.936 8.7724C13.8187 8.50575 13.6264 8.27896 13.3825 8.11963C13.1386 7.9603 12.8537 7.87531 12.5624 7.875H11.4374C11.1461 7.8753 10.8612 7.96029 10.6173 8.11963C10.3734 8.27895 10.1811 8.50575 10.0639 8.7724L8.62493 7.85669V6.9375C8.62492 6.83805 8.58542 6.74267 8.51509 6.67234C8.44477 6.60202 8.34939 6.56251 8.24993 6.5625ZM8.98362 8.97392L10.1111 9.69141C10.1678 9.72746 10.2331 9.74762 10.3003 9.74977C10.3674 9.75193 10.434 9.73601 10.4928 9.70368C10.5517 9.67134 10.6009 9.62378 10.6351 9.56596C10.6693 9.50814 10.6874 9.44219 10.6874 9.375C10.6876 9.17615 10.7667 8.98551 10.9073 8.8449C11.0479 8.7043 11.2386 8.62521 11.4374 8.625H12.5624C12.7613 8.62521 12.9519 8.7043 13.0925 8.8449C13.2331 8.98551 13.3122 9.17615 13.3124 9.375C13.3124 9.44219 13.3305 9.50815 13.3647 9.56598C13.3989 9.62381 13.4481 9.67138 13.507 9.70371C13.5659 9.73605 13.6324 9.75197 13.6995 9.74981C13.7667 9.74764 13.832 9.72747 13.8887 9.69141L15.0162 8.97391C14.7761 9.38467 14.4967 9.77119 14.182 10.1281C13.995 10.3458 13.7883 10.5459 13.5646 10.7258C13.1139 11.066 12.5646 11.25 11.9999 11.25C11.4352 11.25 10.886 11.066 10.4352 10.7258C10.2115 10.5459 10.0048 10.3458 9.8178 10.1281C9.50313 9.77119 9.22376 9.38467 8.98362 8.97392ZM11.9999 15.6885L8.55217 12.2407C8.64378 12.1738 8.73546 12.1069 8.82525 12.0372C9.17443 11.7629 9.43999 11.3965 9.59198 10.9793C9.71331 11.0996 9.84144 11.2129 9.97572 11.3186C10.5579 11.7607 11.2689 12 11.9999 12C12.7309 12 13.4419 11.7607 14.0241 11.3186C14.1584 11.2129 14.2865 11.0996 14.4078 10.9793C14.5598 11.3965 14.8254 11.7629 15.1746 12.0372C15.2644 12.1069 15.356 12.1738 15.4477 12.2407L11.9999 15.6885Z" fill="#BF9156"/>
<path d="M11.625 10.125H12.375C12.4745 10.125 12.5698 10.0855 12.6402 10.0152C12.7105 9.94484 12.75 9.84946 12.75 9.75C12.75 9.65054 12.7105 9.55516 12.6402 9.48483C12.5698 9.41451 12.4745 9.375 12.375 9.375H11.625C11.5255 9.375 11.4302 9.41451 11.3598 9.48483C11.2895 9.55516 11.25 9.65054 11.25 9.75C11.25 9.84946 11.2895 9.94484 11.3598 10.0152C11.4302 10.0855 11.5255 10.125 11.625 10.125Z" fill="#BF9156"/>
</g>
<defs>
<clipPath id="clip0_1898_3513">
<rect width="24" height="24" fill="white"/>
</clipPath>
</defs>
</svg>
