<svg width="26" height="26" viewBox="0 0 26 26" fill="none" xmlns="http://www.w3.org/2000/svg">
<path d="M25.0872 11.9868C24.845 11.2065 24.1062 10.6855 23.2894 10.7183L23.1152 10.7254C22.6042 10.7462 22.1235 10.9569 21.7635 11.3169L19.0702 13.9819C19.0064 13.8844 18.9332 13.7918 18.8499 13.7053C18.4958 13.3374 17.9998 13.1266 17.4892 13.1266H13.6903C12.9735 13.1266 12.2746 13.0336 11.6125 12.8505C9.88824 12.3732 8.24296 12.7178 6.85446 13.8468C6.26874 14.3233 5.84771 14.8433 5.58944 15.2108C5.29695 15.0074 4.94897 14.9007 4.58805 14.9068C4.13027 14.9147 3.70329 15.1004 3.38596 15.4302L0.930456 17.9791C0.749102 18.1673 0.752821 18.4665 0.939085 18.6502L2.91375 20.598C3.10136 20.7829 3.40381 20.781 3.58903 20.5932C3.77396 20.4055 3.77202 20.1033 3.58427 19.9181L1.94554 18.3018L4.07359 16.0925C4.21358 15.9472 4.40208 15.8651 4.60396 15.8618C4.80778 15.8581 4.99687 15.9339 5.14193 16.0745L8.93877 19.7591C9.08353 19.8996 9.1649 20.088 9.16773 20.2897C9.17056 20.4916 9.09453 20.6822 8.95365 20.8268L6.86249 22.9724L6.32438 22.4599C6.13335 22.2779 5.83119 22.2854 5.64925 22.4764C5.46759 22.6674 5.47503 22.9696 5.66606 23.1512L6.54575 23.9893C6.63829 24.0772 6.75671 24.1209 6.87499 24.1209C6.99936 24.1209 7.12344 24.0726 7.21702 23.9768L9.63756 21.4932C9.95668 21.1659 10.1288 20.7337 10.1226 20.2766C10.1196 20.0676 10.0791 19.8648 10.005 19.6759L10.8576 19.5767C11.2532 19.5307 11.6557 19.5072 12.0539 19.5072H17.8342C17.9227 19.5072 18.0123 19.5035 18.1005 19.496L18.6544 19.4499C19.2159 19.4033 19.757 19.2084 20.2195 18.8868C20.4465 18.7288 20.6524 18.5419 20.8316 18.3311L24.7266 13.7486C25.1429 13.259 25.2775 12.6005 25.0872 11.9868ZM23.9991 13.1302L20.1039 17.7127C19.9782 17.8606 19.8336 17.9918 19.6741 18.1028C19.3493 18.3287 18.9692 18.4655 18.5753 18.4984L18.0211 18.5445C17.9593 18.5497 17.8963 18.5524 17.8342 18.5524H12.0539C11.6189 18.5524 11.1793 18.5778 10.7474 18.6279L9.36679 18.7886L6.31248 15.8435C6.52046 15.5352 6.90266 15.0383 7.45699 14.5877C8.61177 13.6488 9.92409 13.3739 11.3578 13.7706C12.1027 13.9768 12.8875 14.0813 13.6903 14.0813H17.4892C17.7417 14.0813 17.987 14.1857 18.1623 14.3675C18.2904 14.5005 18.3716 14.6636 18.4051 14.8345C18.4045 14.8777 18.4098 14.9207 18.421 14.9625C18.4336 15.1864 18.3665 15.4146 18.2175 15.6001L18.2027 15.6185C18.0246 15.8405 17.7591 15.968 17.4743 15.968H14.1671C13.9033 15.968 13.6897 16.1817 13.6897 16.4453C13.6897 16.7091 13.9033 16.9228 14.1671 16.9228H17.4743C18.0502 16.9228 18.5872 16.6652 18.9476 16.2157L18.9624 16.1974C19.2385 15.8535 19.3754 15.4372 19.3767 15.0218L22.4367 11.9938C22.6286 11.8021 22.8833 11.6903 23.1542 11.6793L23.3286 11.6723C23.7136 11.656 24.0613 11.9022 24.1752 12.2698C24.2682 12.5694 24.2023 12.8911 23.9991 13.1302Z" fill="#BF9156"/>
<path d="M4.59753 16.8672C3.88461 16.8672 3.30469 17.4473 3.30469 18.16C3.30469 18.8731 3.88461 19.4532 4.59753 19.4532C5.31045 19.4532 5.89051 18.8731 5.89051 18.16C5.89051 17.4473 5.31045 16.8672 4.59753 16.8672ZM4.59753 18.4982C4.41111 18.4982 4.25937 18.3466 4.25937 18.16C4.25937 17.9738 4.41111 17.8222 4.59753 17.8222C4.78379 17.8222 4.93554 17.9738 4.93554 18.16C4.93554 18.3466 4.78379 18.4982 4.59753 18.4982Z" fill="#BF9156"/>
<path d="M12.143 16.038L12.1184 16.0438C11.8618 16.1041 11.7023 16.3612 11.7628 16.6178C11.8143 16.8377 12.0105 16.9862 12.2272 16.9862C12.2632 16.9862 12.3001 16.9819 12.3367 16.9732L12.3614 16.9676C12.618 16.9073 12.7772 16.6502 12.7169 16.3936C12.6567 16.137 12.3997 15.9781 12.143 16.038Z" fill="#BF9156"/>
<path d="M4.53363 21.0908L4.50894 21.0966C4.2523 21.157 4.09312 21.4138 4.15337 21.6704C4.20499 21.8905 4.40108 22.0388 4.61769 22.0388C4.65399 22.0388 4.69059 22.0348 4.72748 22.0262L4.75203 22.0205C5.00867 21.9603 5.168 21.7032 5.1076 21.4465C5.04735 21.1898 4.79027 21.0307 4.53363 21.0908Z" fill="#BF9156"/>
<path d="M14.7717 11.8931C17.5579 11.8931 19.8246 9.62642 19.8246 6.84019C19.8246 4.05397 17.5579 1.78711 14.7717 1.78711C13.6288 1.78711 12.5508 2.15934 11.6541 2.86333C11.4493 3.02401 11.2554 3.20194 11.0778 3.39237C10.8121 3.67698 10.5793 3.99223 10.386 4.3289C9.94935 5.08987 9.71875 5.95841 9.71875 6.84019C9.71875 9.62642 11.9855 11.8931 14.7717 11.8931ZM11.2142 4.80408C11.371 4.53078 11.5598 4.27504 11.7757 4.044C11.9198 3.88927 12.0774 3.74496 12.2436 3.61449C12.9708 3.0438 13.845 2.74208 14.7717 2.74208C17.0313 2.74208 18.8698 4.58033 18.8698 6.84019C18.8698 9.09991 17.0313 10.9383 14.7717 10.9383C12.512 10.9383 10.6734 9.09991 10.6734 6.84019C10.6734 6.12474 10.8604 5.42075 11.2142 4.80408Z" fill="#BF9156"/>
<path d="M15.2024 8.47326C15.0099 8.58766 14.7598 8.62828 14.5902 8.62828C14.2683 8.62828 13.9861 8.24891 13.9861 7.81657C13.9861 7.55294 13.7723 7.33916 13.5087 7.33916C13.2449 7.33916 13.0312 7.55294 13.0312 7.81657C13.0312 8.64345 13.535 9.33912 14.2131 9.53059C14.2286 9.78038 14.4354 9.97839 14.689 9.97839C14.9495 9.97839 15.1609 9.76967 15.166 9.5102C15.8556 9.33123 16.4507 8.81781 16.4507 7.92056C16.4507 6.84478 15.3521 6.25787 14.788 6.25787C14.7808 6.25787 14.08 6.19554 14.08 5.74728C14.08 5.05891 14.7808 5.03957 14.788 5.03957C14.9207 5.03957 15.0821 5.11842 15.2093 5.24562C15.2704 5.30692 15.277 5.31331 15.277 5.57069C15.277 5.83432 15.4909 6.04706 15.7544 6.04706C16.018 6.04706 16.232 5.83253 16.232 5.56876C16.232 5.26362 16.232 4.91787 15.8846 4.57034C15.6757 4.36176 15.4255 4.21328 15.1651 4.13919C15.1505 3.88851 14.9434 3.68945 14.689 3.68945C14.4254 3.68945 14.2116 3.90339 14.2116 4.16702V4.19826C13.69 4.39211 13.1251 4.85539 13.1251 5.74728C13.1251 6.84121 14.2622 7.21106 14.7845 7.21255C14.928 7.22416 15.4957 7.47558 15.4957 7.92041C15.4957 8.18226 15.4054 8.3526 15.2024 8.47326Z" fill="#BF9156"/>
</svg>
