<svg width="24" height="24" viewBox="0 0 24 24" fill="none" xmlns="http://www.w3.org/2000/svg">
<g clip-path="url(#clip0_1898_3393)">
<path d="M21.2903 21.9178V19.0808L21.3468 18.9929C21.8872 18.1495 22.4032 17.5199 22.9695 17.0126C23.6244 16.4265 24 15.5869 24 14.7097C24 13.9474 23.7248 13.231 23.2258 12.6659V1.54839H22.4516V0H17.0323V1.54839H16.2581V4.64516H14.7097V6.19355H13.9355V7.74194H13.1613V3.09677H12.3871V1.54839H11.2258V0H6.58065V1.54839H5.41935V3.09677H4.64516V6.19355H1.54839V7.74194H0.774194V12.6659C0.275202 13.231 0 13.9474 0 14.7097C0 15.5869 0.375567 16.4265 1.03049 17.013C1.59715 17.5205 2.11278 18.1499 2.65316 18.9933L2.70968 19.0812V21.9178C1.18265 22.4036 0.296182 22.8383 0.214151 22.8793L0 22.9865V24H24V22.9865L23.7859 22.8797C23.7038 22.8383 22.8174 22.4036 21.2903 21.9178ZM16.2581 20.8006V19.1106C16.5953 18.7165 16.9595 18.3914 17.3411 18.1444C17.8994 17.7832 18.2922 17.2409 18.4706 16.6227C18.5396 16.7094 18.6128 16.7933 18.6914 16.8735C19.2762 17.4696 19.9436 18.1877 20.4604 18.994L20.5161 19.0812V21.6844C19.3582 21.3538 17.9238 21.0248 16.2581 20.8006ZM8.13414 13.9362C8.2723 13.9362 8.41198 13.9506 8.55091 13.9795C9.28522 14.1328 9.87721 14.7314 10.0243 15.4688C10.1772 16.2367 9.8825 16.9928 9.25592 17.4418C9.03289 17.6018 8.77432 17.7976 8.51613 18.0225V15.0968H7.74194V16.0188L6.75359 15.5249L6.40713 16.2174L7.74194 16.8845V18.0062C7.52779 17.8146 7.30721 17.6416 7.07926 17.494C6.52451 17.136 6.19355 16.5291 6.19355 15.871C6.19355 15.2852 6.45439 14.7375 6.90972 14.3679C7.25693 14.0857 7.68769 13.9362 8.13414 13.9362ZM14.1283 13.7996C13.869 14.0187 13.6463 14.2808 13.4837 14.5808L13.3754 14.3636L12.3871 14.8575V13.9355H11.6129V17.7488C11.3029 17.3585 10.9873 17.0117 10.7009 16.7094C10.8425 16.2724 10.8793 15.7978 10.7837 15.3177C10.6644 14.7189 10.332 14.1903 9.87721 13.8043C10.2403 12.9747 11.06 12.4026 11.9605 12.3875C12.9054 12.372 13.7608 12.9434 14.1283 13.7996ZM16.2581 16.8845L17.5923 16.2171L17.2458 15.5245L16.2581 16.0188V15.0968H15.4839V18.0229C15.2257 17.7979 14.9675 17.6021 14.7441 17.4422C14.1171 16.9931 13.8228 16.2371 13.9757 15.4691C14.1224 14.7318 14.7148 14.1334 15.4491 13.9801C15.588 13.951 15.7277 13.9366 15.8659 13.9366C16.3123 13.9366 16.7434 14.0861 17.0907 14.3683C17.5456 14.7375 17.8065 15.2852 17.8065 15.871C17.8065 16.5291 17.4755 17.136 16.9207 17.4944C16.6928 17.642 16.4722 17.815 16.2581 18.0066V16.8845ZM12.3871 15.7232L13.2193 15.307C13.2186 15.3104 13.217 15.3139 13.2163 15.3177C13.1222 15.7901 13.1566 16.2573 13.2925 16.6884C12.9825 16.9928 12.6818 17.3326 12.3871 17.7208V15.7232ZM8.51613 19.1114C8.88073 18.6859 9.32208 18.3468 9.70691 18.0713C9.95413 17.894 10.1602 17.6802 10.3297 17.4445C10.747 17.8959 11.1848 18.4122 11.5571 18.994L11.6129 19.0812V20.5199C10.517 20.5331 9.48198 20.6014 8.51613 20.707V19.1114ZM12.3871 19.0808L12.4436 18.9929C12.8415 18.3724 13.2411 17.8564 13.6548 17.4212C13.8276 17.6664 14.0381 17.8885 14.2935 18.0716C14.6783 18.3472 15.1193 18.6863 15.4843 19.1118V20.707C14.5184 20.6014 13.4834 20.5331 12.3875 20.5199V19.0808H12.3871ZM22.4531 16.4357C22.053 16.7941 21.6685 17.2184 21.2903 17.7178V15.7228L22.6246 15.0554L22.2781 14.3628L21.2903 14.8575V13.9355H20.5161V17.7477C20.0988 17.2215 19.6522 16.7474 19.2441 16.3316C18.7942 15.8729 18.5589 15.2667 18.5825 14.6237C18.626 13.4106 19.6495 12.4071 20.8641 12.3875C20.877 12.3871 20.89 12.3871 20.9032 12.3871C21.5168 12.3871 22.0936 12.6228 22.5318 13.0537C22.9791 13.4938 23.2258 14.0818 23.2258 14.7097C23.2258 15.3671 22.944 15.9965 22.4531 16.4357ZM17.8065 0.774194H21.6774V1.54839H17.8065V0.774194ZM17.0323 2.32258H22.4516V12.031C21.9711 11.753 21.424 11.6063 20.8511 11.6133C20.6029 11.6176 20.3617 11.6554 20.129 11.7178V7.74194H18.5806V6.19355H17.8065V4.64516H17.0323V2.32258ZM15.4839 5.41935H17.0323V6.19355H15.4839V5.41935ZM14.7097 6.96774H17.8065V7.74194H14.7097V6.96774ZM19.3548 8.51613V12H19.425C18.6534 12.4292 18.0743 13.1787 17.8796 14.0574C17.7868 13.9548 17.6883 13.8561 17.5789 13.7671C16.9421 13.2496 16.1086 13.052 15.2907 13.2222C15.1185 13.2581 14.9546 13.3172 14.7957 13.3858C14.4615 12.6797 13.8724 12.1389 13.1617 11.8497V8.51613H19.3548ZM7.35484 0.774194H10.4516V1.54839H7.35484V0.774194ZM6.19355 2.32258H11.6129V3.09677H6.19355V2.32258ZM5.41935 3.87097H12.3871V11.6424C12.2427 11.6241 12.0968 11.6106 11.9478 11.6133C10.7837 11.6326 9.7173 12.3438 9.21207 13.3892C9.05066 13.3189 8.8847 13.2588 8.70968 13.2222C8.38496 13.1543 8.05853 13.1469 7.74194 13.1927V7.74194H6.96774V6.19355H5.41935V3.87097ZM2.32258 6.96774H6.19355V7.74194H2.32258V6.96774ZM6.96774 8.51613V13.4246C6.77457 13.5159 6.59066 13.6293 6.42112 13.7671C6.31168 13.8561 6.21321 13.9548 6.1204 14.0574C5.8176 12.6918 4.5843 11.6369 3.14894 11.6133C2.57075 11.6036 2.0264 11.7507 1.54839 12.0291V8.51613H6.96774ZM1.54688 16.4357C1.05601 15.9965 0.774194 15.3671 0.774194 14.7097C0.774194 14.0818 1.02085 13.4938 1.46825 13.0537C1.906 12.6228 2.48324 12.3871 3.09677 12.3871C3.11001 12.3871 3.12305 12.3871 3.13666 12.3875C4.35106 12.4077 5.37437 13.411 5.41822 14.6237C5.44147 15.2667 5.20653 15.8732 4.75668 16.3316C4.3486 16.7474 3.90197 17.2215 3.48463 17.7477V13.9355H2.70968V14.8575L1.72133 14.3636L1.37487 15.0561L2.70968 15.7232V17.7182C2.33146 17.2184 1.94701 16.7947 1.54688 16.4357ZM3.48387 19.0808L3.53925 18.994C4.05601 18.1877 4.72379 17.4696 5.30859 16.8735C5.38722 16.7933 5.46037 16.7094 5.52936 16.6227C5.70779 17.2409 6.10055 17.7832 6.6589 18.1444C7.04089 18.3914 7.40512 18.7169 7.74194 19.1106V20.8006C6.07617 21.0248 4.64176 21.3538 3.48387 21.6844V19.0808ZM1.36259 23.2258C2.96673 22.5875 6.85849 21.2903 12 21.2903C17.1415 21.2903 21.0333 22.5875 22.6374 23.2258H1.36259Z" fill="#BF9156"/>
<path d="M2.32812 9.29102H3.10232V10.0652H2.32812V9.29102Z" fill="#BF9156"/>
<path d="M3.86719 9.29102H4.64138V10.0652H3.86719V9.29102Z" fill="#BF9156"/>
<path d="M5.42188 9.29102H6.19607V10.0652H5.42188V9.29102Z" fill="#BF9156"/>
<path d="M6.19531 4.64453H6.96951V5.41872H6.19531V4.64453Z" fill="#BF9156"/>
<path d="M8.51562 4.64453H9.28982V5.41872H8.51562V4.64453Z" fill="#BF9156"/>
<path d="M10.8438 4.64453H11.6179V5.41872H10.8438V4.64453Z" fill="#BF9156"/>
<path d="M8.51562 6.19336H9.28982V6.96755H8.51562V6.19336Z" fill="#BF9156"/>
<path d="M10.8438 6.19336H11.6179V6.96755H10.8438V6.19336Z" fill="#BF9156"/>
<path d="M8.51562 7.74219H9.28982V8.51638H8.51562V7.74219Z" fill="#BF9156"/>
<path d="M10.8438 7.74219H11.6179V8.51638H10.8438V7.74219Z" fill="#BF9156"/>
<path d="M8.51562 9.29102H9.28982V10.0652H8.51562V9.29102Z" fill="#BF9156"/>
<path d="M10.8438 9.29102H11.6179V10.0652H10.8438V9.29102Z" fill="#BF9156"/>
<path d="M18.5781 3.09766H19.3523V3.87185H18.5781V3.09766Z" fill="#BF9156"/>
<path d="M18.5781 4.64453H19.3523V5.41872H18.5781V4.64453Z" fill="#BF9156"/>
<path d="M20.1328 3.09766H20.907V3.87185H20.1328V3.09766Z" fill="#BF9156"/>
<path d="M20.1328 4.64453H20.907V5.41872H20.1328V4.64453Z" fill="#BF9156"/>
<path d="M18.5827 11.6136V9.29102H13.9375V11.6136H18.5827ZM17.8085 10.8394H16.6472V10.0652H17.8085V10.8394ZM14.7117 10.0652H15.873V10.8394H14.7117V10.0652Z" fill="#BF9156"/>
</g>
<defs>
<clipPath id="clip0_1898_3393">
<rect width="24" height="24" fill="white"/>
</clipPath>
</defs>
</svg>
