<svg width="24" height="24" viewBox="0 0 24 24" fill="none" xmlns="http://www.w3.org/2000/svg">
<g clip-path="url(#clip0_1898_3418)">
<path d="M19.3346 9.96606C19.5529 9.74634 19.5529 9.39038 19.3346 9.17065C19.1149 8.95093 18.7574 8.95093 18.5377 9.17065L18.0074 9.70093C17.7892 9.92065 17.7892 10.2766 18.0074 10.4963C18.1173 10.6062 18.2623 10.6611 18.4059 10.6611C18.5494 10.6611 18.6945 10.6062 18.8043 10.4963L19.3346 9.96606Z" fill="#BF9156"/>
<path d="M13.9059 10.6611C14.0494 10.6611 14.1945 10.6062 14.3043 10.4963L14.8346 9.96606C15.0529 9.74634 15.0529 9.39038 14.8346 9.17065C14.6149 8.95093 14.2574 8.95093 14.0377 9.17065L13.5074 9.70093C13.2892 9.92065 13.2892 10.2766 13.5074 10.4963C13.6173 10.6062 13.7623 10.6611 13.9059 10.6611Z" fill="#BF9156"/>
<path d="M17.3043 8.99634L17.8346 8.46606C18.0529 8.24634 18.0529 7.89038 17.8346 7.67065C17.6149 7.45093 17.2574 7.45093 17.0377 7.67065L16.5074 8.20093C16.2892 8.42065 16.2892 8.77661 16.5074 8.99634C16.6173 9.1062 16.7623 9.16113 16.9059 9.16113C17.0494 9.16113 17.1945 9.1062 17.3043 8.99634Z" fill="#BF9156"/>
<path d="M13.9059 7.66113C14.0494 7.66113 14.1945 7.6062 14.3043 7.49634L14.8346 6.96606C14.9789 6.82086 14.9922 6.62585 14.9456 6.44037C15.5693 6.97632 16.3697 7.3125 17.2545 7.3125H21.7545C22.8912 7.3125 23.817 6.38745 23.817 5.25C23.817 4.11255 22.8912 3.1875 21.7545 3.1875C21.4176 3.1875 21.0924 3.26807 20.8024 3.41968C20.6339 1.60986 19.1075 0.1875 17.2545 0.1875C15.2902 0.1875 13.692 1.78564 13.692 3.75C13.692 4.63486 14.0282 5.43521 14.5641 6.05878C14.3781 6.01218 14.1828 6.02554 14.0377 6.17065L13.5074 6.70093C13.2892 6.92065 13.2892 7.27661 13.5074 7.49634C13.6173 7.6062 13.7623 7.66113 13.9059 7.66113ZM17.2545 1.3125C18.5992 1.3125 19.692 2.40601 19.692 3.75C19.692 4.30225 20.1417 4.75195 20.694 4.75195C20.8434 4.75195 20.9869 4.69263 21.0924 4.58643C21.2682 4.40991 21.504 4.3125 21.7545 4.3125C22.2716 4.3125 22.692 4.73291 22.692 5.25C22.692 5.76709 22.2716 6.1875 21.7545 6.1875H17.2545C15.9098 6.1875 14.817 5.09399 14.817 3.75C14.817 2.40601 15.9098 1.3125 17.2545 1.3125Z" fill="#BF9156"/>
<path d="M21.5377 7.67065L21.0074 8.20093C20.7892 8.42065 20.7892 8.77661 21.0074 8.99634C21.1173 9.1062 21.2623 9.16113 21.4059 9.16113C21.5494 9.16113 21.6945 9.1062 21.8043 8.99634L22.3346 8.46606C22.5529 8.24634 22.5529 7.89038 22.3346 7.67065C22.1149 7.45093 21.7574 7.45093 21.5377 7.67065Z" fill="#BF9156"/>
<path d="M23.25 11.4375C22.9395 11.4375 22.6875 11.6895 22.6875 12C22.6875 12.7608 22.6046 13.502 22.4527 14.2182L21.5625 13.9797C21.2651 13.9021 20.9546 14.0771 20.874 14.3774C20.7935 14.6777 20.9722 14.9861 21.2725 15.0667L22.1587 15.3041C21.9846 15.8378 21.7666 16.3507 21.5144 16.8439L20.7246 16.3879C20.4595 16.2327 20.1123 16.3228 19.9556 16.5938C19.8003 16.8625 19.8926 17.2068 20.1621 17.3621L20.9528 17.8185C20.6482 18.2856 20.305 18.7234 19.9331 19.1363L19.2935 18.4966C19.0737 18.2769 18.7163 18.2769 18.4966 18.4966C18.2783 18.7163 18.2783 19.0723 18.4966 19.292L19.137 19.9324C18.724 20.3044 18.2861 20.6477 17.8188 20.9525L17.3628 20.1628C17.2031 19.8918 16.856 19.8032 16.5938 19.957C16.3242 20.1123 16.2319 20.4565 16.3872 20.7253L16.8431 21.5148C16.3504 21.7667 15.838 21.9845 15.3049 22.1584L15.0674 21.2717C14.9868 20.9722 14.6777 20.7942 14.3789 20.874C14.0786 20.9546 13.8999 21.2629 13.9805 21.5632L14.2187 22.4526C13.6811 22.5666 13.1263 22.6295 12.5625 22.659V21.75C12.5625 21.4395 12.3105 21.1875 12 21.1875C11.6895 21.1875 11.4375 21.4395 11.4375 21.75V22.659C10.8737 22.6295 10.3189 22.5666 9.78131 22.4526L10.0195 21.5632C10.1001 21.2629 9.92139 20.9546 9.62109 20.874C9.3252 20.7949 9.01318 20.9722 8.93262 21.2717L8.69513 22.1584C8.16202 21.9845 7.6496 21.7667 7.15686 21.5148L7.61279 20.7253C7.76807 20.4565 7.67578 20.1123 7.40625 19.957C7.14111 19.8032 6.79395 19.8918 6.63721 20.1628L6.18118 20.9525C5.7139 20.6477 5.276 20.3044 4.86301 19.9324L5.50342 19.292C5.72168 19.0723 5.72168 18.7163 5.50342 18.4966C5.28369 18.2769 4.92627 18.2769 4.70654 18.4966L4.06686 19.1363C3.69498 18.7234 3.35184 18.2856 3.04724 17.8185L3.83789 17.3621C4.10742 17.2068 4.19971 16.8625 4.04443 16.5938C3.8877 16.3257 3.54199 16.2334 3.27539 16.3879L2.48557 16.8439C2.23343 16.3507 2.01535 15.8378 1.84131 15.3041L2.72754 15.0667C3.02783 14.9861 3.20654 14.6777 3.12598 14.3774C3.04541 14.0771 2.73779 13.9006 2.4375 13.9797L1.54733 14.2182C1.43335 13.6807 1.37054 13.1261 1.34097 12.5625H2.25C2.56055 12.5625 2.8125 12.3105 2.8125 12C2.8125 11.6895 2.56055 11.4375 2.25 11.4375H1.34097C1.37054 10.8739 1.43335 10.3193 1.54733 9.78177L2.4375 10.0203C2.48584 10.0334 2.53418 10.0393 2.58252 10.0393C2.83154 10.0393 3.05859 9.87378 3.12598 9.62256C3.20654 9.32227 3.02783 9.01392 2.72754 8.93335L1.84131 8.69586C2.01535 8.1622 2.23343 7.64932 2.48557 7.15613L3.27539 7.61206C3.36328 7.66333 3.45996 7.6875 3.55664 7.6875C3.75 7.6875 3.93896 7.58643 4.04443 7.40625C4.19971 7.13745 4.10742 6.79321 3.83789 6.63794L3.04724 6.18155C3.35184 5.71445 3.69498 5.27664 4.06686 4.86374L4.70654 5.50342C4.81641 5.61328 4.96143 5.66821 5.10498 5.66821C5.24854 5.66821 5.39355 5.61328 5.50342 5.50342C5.72168 5.28369 5.72168 4.92773 5.50342 4.70801L4.86301 4.0676C5.276 3.69562 5.7139 3.35229 6.18118 3.04752L6.63721 3.83716C6.74268 4.01733 6.93164 4.11841 7.125 4.11841C7.22168 4.11841 7.31836 4.09424 7.40625 4.04297C7.67578 3.8877 7.76807 3.54346 7.61279 3.27466L7.15686 2.4852C7.6496 2.23334 8.16202 2.01553 8.69513 1.84158L8.93262 2.72827C9 2.97949 9.22705 3.14502 9.47607 3.14502C9.52441 3.14502 9.57275 3.13916 9.62109 3.12598C9.92139 3.04541 10.1001 2.73706 10.0195 2.43677L9.78131 1.54742C10.3189 1.43344 10.8737 1.37054 11.4375 1.34097V2.25C11.4375 2.56055 11.6895 2.8125 12 2.8125C12.3105 2.8125 12.5625 2.56055 12.5625 2.25V0.75C12.5625 0.439453 12.3105 0.1875 12 0.1875C5.48584 0.1875 0.1875 5.48657 0.1875 12C0.1875 18.5134 5.48584 23.8125 12 23.8125C18.5142 23.8125 23.8125 18.5134 23.8125 12C23.8125 11.6895 23.5605 11.4375 23.25 11.4375Z" fill="#BF9156"/>
<path d="M12 6.5625C12.3105 6.5625 12.5625 6.31055 12.5625 6C12.5625 5.68945 12.3105 5.4375 12 5.4375C8.38184 5.4375 5.4375 8.3811 5.4375 12C5.4375 15.6189 8.38184 18.5625 12 18.5625C15.6182 18.5625 18.5625 15.6189 18.5625 12C18.5625 11.6895 18.3105 11.4375 18 11.4375C17.6895 11.4375 17.4375 11.6895 17.4375 12C17.4375 14.9985 14.9985 17.4375 12 17.4375C9.00146 17.4375 6.5625 14.9985 6.5625 12C6.5625 9.00146 9.00146 6.5625 12 6.5625Z" fill="#BF9156"/>
</g>
<defs>
<clipPath id="clip0_1898_3418">
<rect width="24" height="24" fill="white"/>
</clipPath>
</defs>
</svg>
