<svg width="24" height="24" viewBox="0 0 24 24" fill="none" xmlns="http://www.w3.org/2000/svg">
<path d="M21.8306 13.0731H10.5469V3.20312L21.8269 6.70937V13.0731H21.8306ZM11.2969 12.3231H21.0769V7.26063L11.2969 4.22313V12.3231Z" fill="#BF9156"/>
<path d="M10.9231 13.0721H4.39062V6.22461H10.9231V6.97461H5.14062V12.3221H10.9231V13.0721Z" fill="#BF9156"/>
<path d="M4.76187 6.97508H3.26562V4.92383H10.9194V5.67383H4.01562V6.22508H4.76187V6.97508Z" fill="#BF9156"/>
<path d="M21.8319 14.261H4.39062V12.6973H5.14062V13.511H21.0819V12.6973H21.8319V14.261Z" fill="#BF9156"/>
<path d="M23.1994 22.949H0.609375V20.7402H23.1956V22.949H23.1994ZM1.35938 22.199H22.4456V21.4902H1.35938V22.199Z" fill="#BF9156"/>
<path d="M2.19531 21.1167H1.44531V13.5117H4.76406V14.2617H2.19531V21.1167Z" fill="#BF9156"/>
<path d="M10.5469 13.8867H11.2969V21.1167H10.5469V13.8867Z" fill="#BF9156"/>
<path d="M22.9319 7.78484L9.29688 3.55109L9.54062 1.02734L23.0556 4.98734L22.9319 7.78484ZM10.0994 3.01859L22.2269 6.78359L22.2831 5.54234L10.1969 2.00234L10.0994 3.01859Z" fill="#BF9156"/>
<path d="M9.93688 21.4906H3.26562V15.9219H9.93688V21.4906ZM4.01562 20.7406H9.18687V16.6719H4.01562V20.7406Z" fill="#BF9156"/>
<path d="M19.2338 21.3825H15.4688V16.0312H19.2338V21.3825ZM16.2188 20.6325H18.4838V16.7812H16.2188V20.6325Z" fill="#BF9156"/>
<path d="M19.7169 12.6979H18.9669V9.05664H13.4844V12.6979H12.7344V8.30664H19.7169V12.6979Z" fill="#BF9156"/>
<path d="M9.56125 12.6962H8.81125V9.34375H6.71875V12.6962H5.96875V8.59375H9.56125V12.6962Z" fill="#BF9156"/>
<path d="M21.0781 13.8867H21.8281V21.008H21.0781V13.8867Z" fill="#BF9156"/>
<path d="M3.78125 17.2344H9.56V17.9844H3.78125V17.2344Z" fill="#BF9156"/>
<path d="M3.78125 18.3594H9.56V19.1094H3.78125V18.3594Z" fill="#BF9156"/>
<path d="M3.78125 19.4844H9.56V20.2344H3.78125V19.4844Z" fill="#BF9156"/>
</svg>
