<svg width="24" height="24" viewBox="0 0 24 24" fill="none" xmlns="http://www.w3.org/2000/svg">
<g clip-path="url(#clip0_1898_3370)">
<path d="M14.8429 13.7907C15.4874 12.9931 15.4393 11.8178 14.6983 11.0766C13.9056 10.2839 12.616 10.2837 11.8233 11.0762L11.1438 11.7557C10.8944 12.0053 10.4883 12.0051 10.2385 11.7555C10.1175 11.6345 10.051 11.4737 10.0509 11.3027C10.0509 11.1319 10.1175 10.9711 10.2382 10.8503L11.3879 9.70053C11.66 9.42862 11.66 8.9877 11.3879 8.71579C11.116 8.4437 10.6751 8.4437 10.4032 8.71579L10.0856 9.03329L9.78261 8.73026C9.5107 8.45834 9.06978 8.45834 8.79768 8.73026C8.52577 9.00235 8.52577 9.44308 8.79768 9.71518L9.10896 10.0263C8.81691 10.3868 8.65816 10.8327 8.65816 11.3031C8.65816 11.846 8.86983 12.3565 9.2538 12.7404C9.65004 13.1369 10.1708 13.335 10.6914 13.335C11.2119 13.335 11.7325 13.1369 12.1286 12.7408L12.8081 12.0613C13.0576 11.8117 13.4638 11.8119 13.7135 12.0615C13.9631 12.3112 13.9633 12.7174 13.7137 12.9668L12.3803 14.3001C12.1082 14.5721 12.1082 15.013 12.3803 15.2849C12.5162 15.4209 12.6944 15.489 12.8727 15.4889C13.0509 15.4889 13.2292 15.4209 13.3651 15.2849L13.8664 14.7837L14.1694 15.0866C14.3055 15.2226 14.4837 15.2906 14.6618 15.2906C14.8402 15.2906 15.0183 15.2226 15.1544 15.0866C15.4263 14.8147 15.4263 14.3737 15.1544 14.1018L14.8429 13.7907Z" fill="#BF9156"/>
<path d="M16.5338 4.42538C16.1392 4.81998 15.9219 5.34457 15.9219 5.9025C15.9219 6.4606 16.1392 6.9852 16.5338 7.37979C16.941 7.78702 17.4761 7.99063 18.0111 7.99063C18.5461 7.99063 19.081 7.78702 19.4882 7.37979C20.3029 6.56515 20.3029 5.23984 19.4882 4.4252C18.6738 3.61075 17.3483 3.61093 16.5338 4.42538ZM18.5035 6.39505C18.2319 6.6666 17.7901 6.66641 17.5186 6.39505C17.2472 6.1235 17.2472 5.68167 17.5186 5.41013C17.7901 5.13876 18.2319 5.13876 18.5035 5.41013C18.775 5.68167 18.775 6.1235 18.5035 6.39505Z" fill="#BF9156"/>
<path d="M23.5743 0.964701C23.5633 0.596476 23.2676 0.300578 22.8996 0.289408L13.4056 0.000284808C13.2118 -0.00520835 13.0254 0.0689493 12.8896 0.206278L1.17082 12.0457C-0.265274 13.4966 -0.265274 15.8574 1.17082 17.3081L6.71214 22.9064C7.40996 23.6115 8.33848 23.9999 9.32652 23.9999C10.3144 23.9999 11.2429 23.6115 11.9409 22.9064L23.6595 11.067C23.7937 10.9315 23.8664 10.7469 23.8605 10.5563L23.5743 0.964701ZM10.951 21.9266C10.5167 22.3655 9.93974 22.6072 9.32652 22.6072C8.71312 22.6072 8.13615 22.3655 7.70183 21.9266L2.16069 16.3283C1.25926 15.4178 1.25926 13.9361 2.16069 13.0255L13.6661 1.40159L22.2018 1.6616L22.4596 10.2996L10.951 21.9266Z" fill="#BF9156"/>
</g>
<defs>
<clipPath id="clip0_1898_3370">
<rect width="24" height="24" fill="white"/>
</clipPath>
</defs>
</svg>
