<svg width="24" height="24" viewBox="0 0 24 24" fill="none" xmlns="http://www.w3.org/2000/svg">
<path d="M19.9708 8.5772C20.0928 8.57767 20.2138 8.55361 20.3264 8.50646C20.439 8.45931 20.5409 8.39002 20.6263 8.30271C21.2413 7.67608 22.2729 6.42096 22.2729 5.05446C22.2751 4.59341 22.1382 4.14242 21.8801 3.76042C21.6219 3.37842 21.2545 3.08319 20.8259 2.9133C20.3973 2.74341 19.9275 2.70678 19.4777 2.80819C19.0279 2.9096 18.6192 3.14433 18.305 3.4817C17.8799 3.93188 17.6506 4.53226 17.6675 5.15121C17.7144 6.48021 18.7153 7.69296 19.3081 8.29783C19.3943 8.38637 19.4973 8.45672 19.6111 8.50471C19.7249 8.5527 19.8472 8.57735 19.9708 8.5772ZM18.8499 3.99508C19.0619 3.76858 19.3372 3.61114 19.6399 3.54327C19.9426 3.4754 20.2587 3.50023 20.5471 3.61453C20.8355 3.72883 21.0829 3.92732 21.2569 4.18414C21.4309 4.44096 21.5236 4.74422 21.5229 5.05446C21.5229 6.15433 20.6259 7.23246 20.0911 7.77696C20.0577 7.80923 20.0128 7.82692 19.9663 7.82615C19.9199 7.82537 19.8756 7.8062 19.8433 7.77283C19.3269 7.24596 18.4558 6.20121 18.4183 5.12496C18.4071 4.70607 18.5623 4.29981 18.8499 3.99508ZM21.2011 5.06608C21.2011 4.82244 21.1289 4.58427 20.9935 4.38169C20.8582 4.17911 20.6658 4.02121 20.4407 3.92798C20.2156 3.83474 19.9679 3.81034 19.7289 3.85788C19.49 3.90541 19.2705 4.02273 19.0982 4.19501C18.9259 4.36729 18.8086 4.58679 18.7611 4.82575C18.7135 5.06471 18.7379 5.3124 18.8312 5.5375C18.9244 5.76259 19.0823 5.95499 19.2849 6.09035C19.4874 6.22571 19.7256 6.29796 19.9693 6.29796C20.2959 6.29756 20.609 6.16764 20.8399 5.93671C21.0708 5.70577 21.2007 5.39267 21.2011 5.06608ZM19.4874 5.06608C19.4874 4.97077 19.5156 4.87761 19.5686 4.79836C19.6215 4.71912 19.6968 4.65736 19.7849 4.62089C19.8729 4.58441 19.9698 4.57487 20.0633 4.59346C20.1567 4.61206 20.2426 4.65795 20.31 4.72534C20.3774 4.79273 20.4233 4.8786 20.4419 4.97207C20.4605 5.06555 20.4509 5.16243 20.4145 5.25049C20.378 5.33854 20.3162 5.4138 20.237 5.46674C20.1577 5.51969 20.0646 5.54796 19.9693 5.54796C19.8416 5.54766 19.7192 5.49678 19.629 5.40647C19.5387 5.31615 19.4876 5.19376 19.4874 5.06608ZM22.3434 18.4982C22.3213 18.4194 22.274 18.35 22.2088 18.3006C22.1437 18.2512 22.0641 18.2244 21.9823 18.2245H21.3121V16.381C21.3121 16.3205 21.2975 16.2609 21.2694 16.2073C21.2414 16.1537 21.2008 16.1077 21.1512 16.0732C21.1015 16.0387 21.0443 16.0167 20.9843 16.0091C20.9243 16.0015 20.8633 16.0085 20.8066 16.0296L19.7191 16.4331C19.4956 15.9047 19.1497 15.437 18.71 15.0685H20.1868C20.4851 15.0685 20.7713 14.9499 20.9823 14.739C21.1932 14.528 21.3118 14.2418 21.3118 13.9435V10.7248C21.3118 10.4265 21.1932 10.1403 20.9823 9.92933C20.7713 9.71836 20.4851 9.59983 20.1868 9.59983H15.8675C16.1021 9.51115 16.3167 9.37678 16.4989 9.20452C16.6812 9.03226 16.8274 8.82553 16.9291 8.59633C17.1997 8.03962 17.2382 7.39825 17.036 6.81321C16.9965 6.67506 16.924 6.54861 16.8247 6.44479C16.7254 6.34097 16.6023 6.2629 16.466 6.21733C16.308 6.17285 16.141 6.17065 15.9819 6.21096C16.1061 5.59276 16.1356 4.95926 16.0693 4.33221C15.9989 3.71211 15.7837 3.11724 15.4411 2.59558C14.7129 1.5557 13.7754 1.12858 12.0973 1.07308C10.6348 1.0247 9.54389 1.34833 8.86364 2.03495C8.4812 2.41882 8.24065 2.92133 8.18151 3.45996C7.63401 3.96246 7.56914 4.88496 7.97414 6.20308C7.8373 6.17644 7.69617 6.18157 7.56164 6.21808C7.42629 6.2641 7.3041 6.3422 7.20549 6.44571C7.10689 6.54921 7.0348 6.67504 6.99539 6.81246C6.79325 7.39763 6.83169 8.03911 7.10226 8.59596C7.20376 8.82504 7.34968 9.03172 7.53159 9.20404C7.71349 9.37635 7.92777 9.51088 8.16201 9.59983H3.82289C3.52452 9.59983 3.23837 9.71836 3.02739 9.92933C2.81641 10.1403 2.69789 10.4265 2.69789 10.7248V13.9435C2.69789 14.2418 2.81641 14.528 3.02739 14.739C3.23837 14.9499 3.52452 15.0685 3.82289 15.0685H5.29251C4.85867 15.4389 4.51844 15.9066 4.29951 16.4335L3.22364 16.0296C3.16688 16.0083 3.10582 16.0011 3.04568 16.0086C2.98553 16.0161 2.9281 16.038 2.8783 16.0726C2.82849 16.1071 2.78781 16.1532 2.75972 16.2069C2.73163 16.2606 2.71697 16.3203 2.71701 16.381V18.2248H2.02776C1.94595 18.2248 1.86637 18.2516 1.80117 18.301C1.73597 18.3504 1.68873 18.4198 1.66664 18.4986C1.40279 19.4385 1.40279 20.433 1.66664 21.373C1.68873 21.4517 1.73597 21.5211 1.80117 21.5705C1.86637 21.62 1.94595 21.6467 2.02776 21.6467H2.71701V22.5568C2.71701 22.6563 2.75652 22.7517 2.82685 22.822C2.89717 22.8923 2.99255 22.9318 3.09201 22.9318H20.9371C21.0366 22.9318 21.132 22.8923 21.2023 22.822C21.2726 22.7517 21.3121 22.6563 21.3121 22.5568V21.6463H21.9823C22.0641 21.6463 22.1437 21.6196 22.2088 21.5702C22.274 21.5208 22.3213 21.4514 22.3434 21.3726C22.6072 20.4326 22.6072 19.4382 22.3434 18.4982ZM19.0175 16.6937L17.7253 17.1748L17.7755 15.3373C18.3271 15.641 18.7635 16.1176 19.0175 16.6937ZM12.1243 16.0225C12.0525 16.0004 11.9759 16.0004 11.9041 16.0225L8.57264 17.0455L8.64239 14.4006L8.87714 14.3147C9.27905 14.7364 9.7619 15.0728 10.2968 15.3036C10.8317 15.5345 11.4077 15.655 11.9902 15.6582C12.5728 15.6613 13.15 15.5469 13.6874 15.3218C14.2247 15.0967 14.7111 14.7655 15.1175 14.3481L15.38 14.4407L15.4486 17.0432L12.1243 16.0225ZM9.28439 11.56C9.33501 11.6132 9.38564 11.6623 9.43439 11.713V12.688C9.43399 12.8707 9.37764 13.0489 9.27292 13.1987C9.16821 13.3485 9.02014 13.4626 8.84864 13.5257L8.59364 13.6191C8.53907 13.5085 8.449 13.4195 8.33785 13.3662C8.22669 13.3129 8.10087 13.2984 7.98051 13.3251L7.00551 13.5366C6.81603 13.5782 6.6429 13.6744 6.50753 13.8134C6.37216 13.9523 6.2805 14.1279 6.24389 14.3185H5.98139V10.3498H8.51376C8.68971 10.7995 8.95121 11.2105 9.28439 11.56ZM10.3381 4.07458C10.7026 3.90883 11.5175 4.18071 11.855 4.33708C11.9049 4.36049 11.9593 4.37263 12.0144 4.37263C12.0695 4.37263 12.1239 4.36049 12.1738 4.33708C12.5113 4.17921 13.3269 3.90733 13.6906 4.07458C14.2591 4.33408 14.7076 4.53883 14.5906 6.03996C14.5853 6.10856 14.5989 6.17732 14.63 6.23871L15.0238 7.01233V8.97695C15.0266 9.74603 14.7319 10.4864 14.2014 11.0432C13.7358 11.5831 13.1517 12.008 12.4948 12.2848C12.1809 12.3746 11.8482 12.3746 11.5344 12.2848C10.8774 12.0079 10.2932 11.583 9.82739 11.0432C9.2967 10.4862 9.00202 9.74553 9.00501 8.97621V7.01233L9.39801 6.23908C9.42919 6.17759 9.44282 6.10869 9.43739 6.03996C9.32114 4.53733 9.76964 4.33408 10.3381 4.07458ZM17.015 13.5373L16.04 13.3262C15.9128 13.2981 15.7798 13.3158 15.6644 13.3762C15.549 13.4365 15.4587 13.5357 15.4093 13.6562L15.1434 13.5617C14.9823 13.5045 14.8429 13.3989 14.7442 13.2593C14.6456 13.1197 14.5926 12.953 14.5925 12.7821V11.713C14.6431 11.6623 14.6934 11.6132 14.7425 11.56C15.0764 11.2107 15.3389 10.7996 15.5154 10.3498H18.0425V14.3185H17.78C17.743 14.1277 17.6507 13.9519 17.5147 13.8131C17.3788 13.6742 17.205 13.5783 17.015 13.5373ZM14.4114 13.9948C13.7454 14.5896 12.8823 14.9156 11.9894 14.9096C11.0966 14.9037 10.2378 14.5661 9.57989 13.9626C9.76899 13.8082 9.92147 13.6137 10.0263 13.3932C10.1312 13.1727 10.1858 12.9317 10.1863 12.6876V12.3748C10.5203 12.64 10.8952 12.8492 11.2963 12.9943C11.7646 13.135 12.2638 13.135 12.7321 12.9943C13.1333 12.8492 13.5083 12.64 13.8425 12.3748V12.7813C13.8427 13.0128 13.8937 13.2413 13.992 13.4508C14.0903 13.6603 14.2335 13.8457 14.4114 13.9937V13.9948ZM7.05501 17.4658L6.97364 14.5123C6.97219 14.4557 6.99054 14.4004 7.02552 14.3559C7.06051 14.3114 7.10993 14.2805 7.16526 14.2686L7.90026 14.1092L7.81701 17.2765L7.12214 17.4898L7.05501 17.4658ZM16.205 17.2753L16.1218 14.1103L16.8568 14.2693C16.9121 14.2814 16.9615 14.3124 16.9964 14.357C17.0314 14.4015 17.0498 14.4568 17.0484 14.5135L16.9681 17.455L16.8879 17.4846L16.205 17.2753ZM20.5621 10.7248V13.9435C20.5621 14.0429 20.5226 14.1383 20.4523 14.2086C20.382 14.2789 20.2866 14.3185 20.1871 14.3185H20.0206V10.3498H20.1871C20.2866 10.3498 20.382 10.3893 20.4523 10.4597C20.5226 10.53 20.5621 10.6254 20.5621 10.7248ZM19.2706 10.3498V14.3185H18.7925V10.3498H19.2706ZM16.2448 6.93433C16.2703 6.94221 16.3033 6.99358 16.3288 7.06558C16.4624 7.46205 16.4355 7.89509 16.2538 8.27196C16.1513 8.49668 15.9849 8.68621 15.7753 8.81683V7.12183C16.0355 6.95158 16.1956 6.9197 16.2448 6.93396V6.93433ZM8.75751 3.95796C8.81018 3.92206 8.85283 3.87334 8.88144 3.81639C8.91004 3.75944 8.92366 3.69613 8.92101 3.63246C8.93871 3.22865 9.10844 2.84648 9.39614 2.56258C9.91626 2.03758 10.8448 1.7837 12.0721 1.82233C13.517 1.86996 14.2374 2.18495 14.8261 3.02533C15.0928 3.43788 15.262 3.90568 15.3211 4.39333C15.3466 4.68096 15.3544 4.96988 15.3444 5.25846C15.347 4.84536 15.2185 4.44208 14.9774 4.10664C14.7363 3.7712 14.395 3.52088 14.0026 3.39171C13.3573 3.09696 12.4018 3.4292 12.0151 3.58933C11.6278 3.42996 10.6723 3.09658 10.0276 3.39171C9.23226 3.75471 8.58201 4.20283 8.68139 5.95108C8.37014 4.92396 8.38851 4.20958 8.75751 3.95796ZM7.77651 8.27046C7.59483 7.89358 7.56791 7.46056 7.70151 7.06408C7.72701 6.99246 7.76001 6.94071 7.78551 6.93283C7.83314 6.91858 7.99326 6.94821 8.25689 7.12033V8.81571C8.04672 8.68553 7.87963 8.49626 7.77651 8.27158V8.27046ZM3.44789 13.9435V10.7248C3.44789 10.6254 3.48739 10.53 3.55772 10.4597C3.62805 10.3893 3.72343 10.3498 3.82289 10.3498H4.00064V14.3185H3.82289C3.72343 14.3185 3.62805 14.2789 3.55772 14.2086C3.48739 14.1383 3.44789 14.0429 3.44789 13.9435ZM4.75064 14.3185V10.3498H5.23026V14.3185H4.75064ZM6.24539 15.3178L6.29639 17.1816L5.00189 16.6963C5.25233 16.1119 5.68953 15.6271 6.24501 15.3178H6.24539ZM2.32101 18.9748H3.10589C3.23368 18.9723 3.36068 18.9953 3.47948 19.0425C3.59828 19.0896 3.70648 19.16 3.79774 19.2495C3.88901 19.339 3.96151 19.4457 4.01101 19.5636C4.0605 19.6814 4.08599 19.808 4.08599 19.9358C4.08599 20.0636 4.0605 20.1901 4.01101 20.308C3.96151 20.4258 3.88901 20.5326 3.79774 20.6221C3.70648 20.7115 3.59828 20.7819 3.47948 20.8291C3.36068 20.8762 3.23368 20.8992 3.10589 20.8967H2.32101C2.18478 20.2633 2.18478 19.6082 2.32101 18.9748ZM7.10976 20.0428C7.0103 20.0428 6.91492 20.0823 6.8446 20.1527C6.77427 20.223 6.73476 20.3184 6.73476 20.4178V22.1803H3.46701V21.6062C3.84894 21.5238 4.19111 21.3131 4.43653 21.009C4.68196 20.705 4.81582 20.3261 4.81582 19.9354C4.81582 19.5447 4.68196 19.1658 4.43653 18.8617C4.19111 18.5577 3.84894 18.347 3.46701 18.2646V16.9217L6.97814 18.2383C7.05578 18.2672 7.14073 18.2698 7.22001 18.2458L11.6398 16.8883V22.1815H7.48476V20.419C7.48496 20.3696 7.4754 20.3207 7.45665 20.275C7.43789 20.2293 7.4103 20.1878 7.37546 20.1528C7.34062 20.1178 7.29921 20.0901 7.25361 20.0711C7.20802 20.0522 7.15913 20.0425 7.10976 20.0425V20.0428ZM12.3898 22.1803V16.8883L16.5256 18.1588V19.7185C16.5256 19.8179 16.5651 19.9133 16.6355 19.9836C16.7058 20.0539 16.8012 20.0935 16.9006 20.0935C17.0001 20.0935 17.0955 20.0539 17.1658 19.9836C17.2361 19.9133 17.2756 19.8179 17.2756 19.7185V18.1408L20.5625 16.9198V18.259C20.1761 18.3378 19.8288 18.5477 19.5793 18.8531C19.3299 19.1586 19.1936 19.5408 19.1936 19.9352C19.1936 20.3296 19.3299 20.7118 19.5793 21.0173C19.8288 21.3228 20.1761 21.5327 20.5625 21.6115V22.1811L12.3898 22.1803ZM21.6898 20.8952H20.9041C20.6526 20.8902 20.413 20.7868 20.2368 20.6071C20.0607 20.4275 19.962 20.1859 19.962 19.9343C19.962 19.6827 20.0607 19.4411 20.2368 19.2614C20.413 19.0817 20.6526 18.9783 20.9041 18.9733H21.689C21.8254 19.6071 21.8254 20.2626 21.689 20.8963L21.6898 20.8952ZM7.48476 19.2231C7.48476 19.2973 7.46277 19.3698 7.42156 19.4314C7.38036 19.4931 7.32179 19.5412 7.25327 19.5695C7.18475 19.5979 7.10934 19.6053 7.0366 19.5909C6.96386 19.5764 6.89704 19.5407 6.8446 19.4882C6.79215 19.4358 6.75644 19.369 6.74197 19.2962C6.7275 19.2235 6.73492 19.1481 6.76331 19.0796C6.79169 19.0111 6.83975 18.9525 6.90142 18.9113C6.96309 18.8701 7.03559 18.8481 7.10976 18.8481C7.20922 18.8481 7.3046 18.8876 7.37493 18.9579C7.44525 19.0282 7.48476 19.1236 7.48476 19.2231ZM17.2756 20.9125C17.2756 20.9866 17.2536 21.0591 17.2124 21.1208C17.1712 21.1825 17.1127 21.2305 17.0441 21.2589C16.9756 21.2873 16.9002 21.2947 16.8275 21.2803C16.7547 21.2658 16.6879 21.2301 16.6355 21.1776C16.583 21.1252 16.5473 21.0584 16.5328 20.9856C16.5184 20.9129 16.5258 20.8375 16.5542 20.7689C16.5826 20.7004 16.6306 20.6419 16.6923 20.6007C16.754 20.5595 16.8265 20.5375 16.9006 20.5375C16.9499 20.5375 16.9986 20.5473 17.0441 20.5661C17.0896 20.585 17.1309 20.6127 17.1657 20.6476C17.2005 20.6824 17.2281 20.7238 17.2469 20.7693C17.2657 20.8148 17.2753 20.8636 17.2753 20.9128L17.2756 20.9125Z" fill="#BF9156"/>
</svg>
