<svg width="24" height="24" viewBox="0 0 24 24" fill="none" xmlns="http://www.w3.org/2000/svg">
<g clip-path="url(#clip0_1898_3361)">
<path d="M1.0625 24H22.9415C23.041 24 23.1363 23.9605 23.2067 23.8902C23.277 23.8198 23.3165 23.7245 23.3165 23.625V21.8812C23.3165 21.7818 23.277 21.6864 23.2067 21.6161C23.1363 21.5458 23.041 21.5062 22.9415 21.5062H22.3664V20.1375C22.3664 20.038 22.3269 19.9427 22.2566 19.8723C22.1863 19.802 22.0909 19.7625 21.9914 19.7625H21.4447V8.30156H22.9415C23.041 8.30156 23.1363 8.26205 23.2067 8.19173C23.277 8.1214 23.3165 8.02602 23.3165 7.92656V6.18281C23.3165 6.08336 23.277 5.98797 23.2067 5.91765C23.1363 5.84732 23.041 5.80781 22.9415 5.80781H22.3664V4.43906C22.3664 4.33961 22.3269 4.24422 22.2566 4.1739C22.1863 4.10357 22.0909 4.06406 21.9914 4.06406H21.4447V0.375C21.4447 0.275544 21.4052 0.180161 21.3349 0.109835C21.2646 0.0395088 21.1692 0 21.0697 0L2.93427 0C2.83481 0 2.73943 0.0395088 2.6691 0.109835C2.59877 0.180161 2.55927 0.275544 2.55927 0.375V4.06406H2.01256C1.91311 4.06406 1.81772 4.10357 1.7474 4.1739C1.67707 4.24422 1.63756 4.33961 1.63756 4.43906V5.80781H1.0625C0.963044 5.80781 0.867661 5.84732 0.797335 5.91765C0.727009 5.98797 0.6875 6.08336 0.6875 6.18281V7.92656C0.6875 8.02602 0.727009 8.1214 0.797335 8.19173C0.867661 8.26205 0.963044 8.30156 1.0625 8.30156H2.55927V19.7625H2.01256C1.91311 19.7625 1.81772 19.802 1.7474 19.8723C1.67707 19.9427 1.63756 20.038 1.63756 20.1375V21.5062H1.0625C0.963044 21.5062 0.867661 21.5458 0.797335 21.6161C0.727009 21.6864 0.6875 21.7818 0.6875 21.8812V23.625C0.6875 23.7245 0.727009 23.8198 0.797335 23.8902C0.867661 23.9605 0.963044 24 1.0625 24ZM3.30927 0.75H20.6947V4.06406H3.30927V0.75ZM2.38756 4.81406H21.6164V5.80781H2.38756V4.81406ZM1.4375 6.55781H22.5665V7.55156H1.4375V6.55781ZM3.30927 8.30156H20.6947V19.7625H3.30927V8.30156ZM2.38756 20.5125H21.6164V21.5062H2.38756V20.5125ZM1.4375 22.2562H22.5665V23.25H1.4375V22.2562ZM6.84041 8.83331H4.49666C4.3972 8.83331 4.30182 8.87282 4.23149 8.94315C4.16117 9.01347 4.12166 9.10886 4.12166 9.20831V13.2719C4.12166 13.3714 4.16117 13.4667 4.23149 13.5371C4.30182 13.6074 4.3972 13.6469 4.49666 13.6469H6.84041C6.93986 13.6469 7.03525 13.6074 7.10557 13.5371C7.1759 13.4667 7.21541 13.3714 7.21541 13.2719V9.20831C7.21541 9.10886 7.1759 9.01347 7.10557 8.94315C7.03525 8.87282 6.93986 8.83331 6.84041 8.83331ZM6.46541 12.8969H4.87166V9.58331H6.46541V12.8969ZM11.0628 8.83331H8.71902C8.61956 8.83331 8.52418 8.87282 8.45385 8.94315C8.38353 9.01347 8.34402 9.10886 8.34402 9.20831V13.2719C8.34402 13.3714 8.38353 13.4667 8.45385 13.5371C8.52418 13.6074 8.61956 13.6469 8.71902 13.6469H11.0628C11.1622 13.6469 11.2576 13.6074 11.3279 13.5371C11.3983 13.4667 11.4378 13.3714 11.4378 13.2719V9.20831C11.4378 9.10886 11.3983 9.01347 11.3279 8.94315C11.2576 8.87282 11.1622 8.83331 11.0628 8.83331ZM10.6878 12.8969H9.09402V9.58331H10.6878V12.8969ZM15.2852 8.83331H12.9414C12.842 8.83331 12.7466 8.87282 12.6763 8.94315C12.6059 9.01347 12.5664 9.10886 12.5664 9.20831V13.2719C12.5664 13.3714 12.6059 13.4667 12.6763 13.5371C12.7466 13.6074 12.842 13.6469 12.9414 13.6469H15.2852C15.3846 13.6469 15.48 13.6074 15.5503 13.5371C15.6207 13.4667 15.6602 13.3714 15.6602 13.2719V9.20831C15.6602 9.10886 15.6207 9.01347 15.5503 8.94315C15.48 8.87282 15.3846 8.83331 15.2852 8.83331ZM14.9102 12.8969H13.3164V9.58331H14.9102V12.8969ZM19.5075 8.83331H17.1638C17.0643 8.83331 16.9689 8.87282 16.8986 8.94315C16.8283 9.01347 16.7888 9.10886 16.7888 9.20831V13.2719C16.7888 13.3714 16.8283 13.4667 16.8986 13.5371C16.9689 13.6074 17.0643 13.6469 17.1638 13.6469H19.5075C19.607 13.6469 19.7024 13.6074 19.7727 13.5371C19.843 13.4667 19.8825 13.3714 19.8825 13.2719V9.20831C19.8825 9.10886 19.843 9.01347 19.7727 8.94315C19.7024 8.87282 19.607 8.83331 19.5075 8.83331ZM19.1325 12.8969H17.5388V9.58331H19.1325V12.8969ZM6.84041 14.4169H4.49666C4.3972 14.4169 4.30182 14.4564 4.23149 14.5268C4.16117 14.5971 4.12166 14.6925 4.12166 14.7919V18.8555C4.12166 18.9549 4.16117 19.0503 4.23149 19.1206C4.30182 19.191 4.3972 19.2305 4.49666 19.2305H6.84041C6.93986 19.2305 7.03525 19.191 7.10557 19.1206C7.1759 19.0503 7.21541 18.9549 7.21541 18.8555V14.7919C7.21541 14.6925 7.1759 14.5971 7.10557 14.5268C7.03525 14.4564 6.93986 14.4169 6.84041 14.4169ZM6.46541 18.4805H4.87166V15.1669H6.46541V18.4805ZM11.0628 14.4169H8.71902C8.61956 14.4169 8.52418 14.4564 8.45385 14.5268C8.38353 14.5971 8.34402 14.6925 8.34402 14.7919V18.8555C8.34402 18.9549 8.38353 19.0503 8.45385 19.1206C8.52418 19.191 8.61956 19.2305 8.71902 19.2305H11.0628C11.1622 19.2305 11.2576 19.191 11.3279 19.1206C11.3983 19.0503 11.4378 18.9549 11.4378 18.8555V14.7919C11.4378 14.6925 11.3983 14.5971 11.3279 14.5268C11.2576 14.4564 11.1622 14.4169 11.0628 14.4169ZM10.6878 18.4805H9.09402V15.1669H10.6878V18.4805ZM15.2852 14.4169H12.9414C12.842 14.4169 12.7466 14.4564 12.6763 14.5268C12.6059 14.5971 12.5664 14.6925 12.5664 14.7919V18.8555C12.5664 18.9549 12.6059 19.0503 12.6763 19.1206C12.7466 19.191 12.842 19.2305 12.9414 19.2305H15.2852C15.3846 19.2305 15.48 19.191 15.5503 19.1206C15.6207 19.0503 15.6602 18.9549 15.6602 18.8555V14.7919C15.6602 14.6925 15.6207 14.5971 15.5503 14.5268C15.48 14.4564 15.3846 14.4169 15.2852 14.4169ZM14.9102 18.4805H13.3164V15.1669H14.9102V18.4805ZM19.5075 14.4169H17.1638C17.0643 14.4169 16.9689 14.4564 16.8986 14.5268C16.8283 14.5971 16.7888 14.6925 16.7888 14.7919V18.8555C16.7888 18.9549 16.8283 19.0503 16.8986 19.1206C16.9689 19.191 17.0643 19.2305 17.1638 19.2305H19.5075C19.607 19.2305 19.7024 19.191 19.7727 19.1206C19.843 19.0503 19.8825 18.9549 19.8825 18.8555V14.7919C19.8825 14.6925 19.843 14.5971 19.7727 14.5268C19.7024 14.4564 19.607 14.4169 19.5075 14.4169ZM19.1325 18.4805H17.5388V15.1669H19.1325V18.4805Z" fill="#BF9156"/>
</g>
<defs>
<clipPath id="clip0_1898_3361">
<rect width="24" height="24" fill="white"/>
</clipPath>
</defs>
</svg>
