<svg width="24" height="24" viewBox="0 0 24 24" fill="none" xmlns="http://www.w3.org/2000/svg">
<path d="M9.88266 21.1554V23.0156C9.88266 23.1151 9.84315 23.2105 9.77282 23.2808C9.70249 23.3511 9.60711 23.3906 9.50766 23.3906C9.4082 23.3906 9.31282 23.3511 9.24249 23.2808C9.17216 23.2105 9.13266 23.1151 9.13266 23.0156V21.1554C9.13266 21.056 9.17216 20.9606 9.24249 20.8903C9.31282 20.8199 9.4082 20.7804 9.50766 20.7804C9.60711 20.7804 9.70249 20.8199 9.77282 20.8903C9.84315 20.9606 9.88266 21.056 9.88266 21.1554ZM14.4863 20.7804C14.3869 20.7804 14.2915 20.8199 14.2212 20.8903C14.1509 20.9606 14.1113 21.056 14.1113 21.1554V23.0156C14.1113 23.1151 14.1509 23.2105 14.2212 23.2808C14.2915 23.3511 14.3869 23.3906 14.4863 23.3906C14.5858 23.3906 14.6812 23.3511 14.7515 23.2808C14.8218 23.2105 14.8613 23.1151 14.8613 23.0156V21.1554C14.8613 21.056 14.8218 20.9606 14.7515 20.8903C14.6812 20.8199 14.5858 20.7804 14.4863 20.7804ZM20.6146 19.545V21.8663C20.6146 21.9658 20.5751 22.0611 20.5048 22.1315C20.4344 22.2018 20.3391 22.2413 20.2396 22.2413C20.1401 22.2413 20.0448 22.2018 19.9744 22.1315C19.9041 22.0611 19.8646 21.9658 19.8646 21.8663V19.545C19.8646 18.8138 19.2115 18.2193 18.4087 18.2193H15.7539C15.662 18.2193 15.5703 18.2273 15.4799 18.2431C16.3772 18.7406 16.9805 19.6565 16.9805 20.7023V23.0156C16.9805 23.1151 16.941 23.2105 16.8706 23.2808C16.8003 23.3511 16.7049 23.3906 16.6055 23.3906C16.506 23.3906 16.4106 23.3511 16.3403 23.2808C16.27 23.2105 16.2305 23.1151 16.2305 23.0156V20.7023C16.2305 19.5413 15.2 18.5967 13.9336 18.5967H13.0154C13.0212 18.7336 12.9918 18.8697 12.93 18.992C12.8869 19.0676 12.8326 19.1363 12.7689 19.1957L13.3009 22.1873C13.3126 22.2531 13.3066 22.3208 13.2834 22.3834C13.2601 22.446 13.2206 22.5013 13.1689 22.5435L12.2348 23.3063C12.1679 23.3609 12.0841 23.3908 11.9977 23.3908C11.9112 23.3908 11.8274 23.3609 11.7605 23.3063L10.8264 22.5435C10.7746 22.5013 10.7351 22.446 10.7119 22.3834C10.6887 22.3208 10.6826 22.2531 10.6943 22.1873L11.2264 19.1959C11.1627 19.1364 11.1081 19.0678 11.0644 18.9924C11.0025 18.87 10.9731 18.7337 10.979 18.5967H10.0617C8.79516 18.5967 7.76484 19.5413 7.76484 20.7023V23.0156C7.76484 23.1151 7.72534 23.2105 7.65501 23.2808C7.58468 23.3511 7.4893 23.3906 7.38984 23.3906C7.29039 23.3906 7.19501 23.3511 7.12468 23.2808C7.05435 23.2105 7.01484 23.1151 7.01484 23.0156V20.7023C7.01484 19.6566 7.61812 18.7409 8.51522 18.2433C8.42442 18.2273 8.3324 18.2193 8.2402 18.2193H5.58661C4.78308 18.2193 4.12936 18.814 4.12936 19.545V21.8663C4.12936 21.9658 4.08985 22.0611 4.01952 22.1315C3.9492 22.2018 3.85382 22.2413 3.75436 22.2413C3.6549 22.2413 3.55952 22.2018 3.48919 22.1315C3.41887 22.0611 3.37936 21.9658 3.37936 21.8663V19.545C3.37936 18.4482 4.2892 17.5475 5.43652 17.4746C5.03808 16.9641 4.83033 16.2581 4.83033 15.5749C4.82903 15.3005 4.88195 15.0286 4.98605 14.7747C5.09015 14.5208 5.24338 14.29 5.43693 14.0955C5.63049 13.9011 5.86057 13.7467 6.11394 13.6414C6.36732 13.5361 6.639 13.4819 6.91338 13.4819C7.18777 13.4819 7.45945 13.5361 7.71282 13.6414C7.9662 13.7467 8.19627 13.9011 8.38983 14.0955C8.58339 14.29 8.73662 14.5208 8.84072 14.7747C8.94482 15.0286 8.99774 15.3005 8.99644 15.5749C8.99644 16.2581 8.78902 16.9642 8.39058 17.4747C8.81181 17.5007 9.21759 17.6429 9.56287 17.8856C9.72791 17.8598 9.89468 17.8468 10.0617 17.8467H10.2152C10.0479 17.6745 9.90038 17.4841 9.77541 17.2791C9.3713 16.6236 9.12998 15.7381 9.12998 14.9105C9.13305 14.1522 9.43646 13.4259 9.97379 12.8907C10.5111 12.3556 11.2386 12.0551 11.997 12.0551C12.7553 12.0551 13.4828 12.3556 14.0202 12.8907C14.5575 13.4259 14.8609 14.1522 14.864 14.9105C14.864 15.7722 14.6209 16.6485 14.197 17.3149C14.0758 17.507 13.9339 17.6853 13.7741 17.8467H13.9335C14.1001 17.8468 14.2665 17.8598 14.4312 17.8854C14.7765 17.6428 15.1824 17.5006 15.6036 17.4746C15.2051 16.9641 14.9977 16.2581 14.9977 15.5749C15.0003 15.024 15.221 14.4965 15.6114 14.1078C16.0019 13.7192 16.5304 13.501 17.0814 13.501C17.6323 13.501 18.1608 13.7192 18.5513 14.1078C18.9418 14.4965 19.1625 15.024 19.1651 15.5749C19.1651 16.2581 18.9576 16.9641 18.5589 17.4746C19.7053 17.5476 20.6146 18.448 20.6146 19.545ZM5.58047 15.5749C5.58047 16.3615 5.99423 17.4693 6.91416 17.4693C7.83291 17.4693 8.24658 16.3615 8.24658 15.5749C8.24762 15.3992 8.21391 15.225 8.14738 15.0623C8.08086 14.8997 7.98283 14.7518 7.85894 14.6271C7.73505 14.5025 7.58775 14.4036 7.4255 14.3361C7.26324 14.2686 7.08925 14.2339 6.91352 14.2339C6.7378 14.2339 6.5638 14.2686 6.40155 14.3361C6.2393 14.4036 6.09199 14.5025 5.9681 14.6271C5.84421 14.7518 5.74619 14.8997 5.67966 15.0623C5.61314 15.225 5.57943 15.3992 5.58047 15.5749ZM9.88013 14.9105C9.88013 15.605 10.0797 16.3433 10.4139 16.8855C10.8072 17.5233 11.34 17.8464 11.9978 17.8464C13.5396 17.8464 14.1141 16.0455 14.1141 14.9103C14.1115 14.3505 13.8873 13.8146 13.4905 13.4198C13.0938 13.0249 12.5569 12.8032 11.9971 12.8032C11.4374 12.8032 10.9004 13.0249 10.5037 13.4198C10.107 13.8146 9.88276 14.3505 9.88013 14.9103V14.9105ZM12.524 22.1016L11.9977 19.1425L11.4713 22.1016L11.9977 22.5315L12.524 22.1016ZM12.2541 18.5965H11.7412C11.7369 18.5965 11.733 18.5965 11.7293 18.5969C11.7284 18.6107 11.7283 18.6245 11.7291 18.6383C11.7465 18.6576 11.7678 18.6729 11.7915 18.6834C11.841 18.7056 11.8851 18.7384 11.9207 18.7793C11.9563 18.8203 11.9826 18.8684 11.9978 18.9205C12.0128 18.8687 12.0389 18.8208 12.0742 18.78C12.1095 18.7392 12.1532 18.7065 12.2023 18.6841C12.2263 18.6735 12.2478 18.658 12.2654 18.6385C12.2662 18.6247 12.2662 18.6107 12.2654 18.5969C12.2619 18.5968 12.2581 18.5967 12.2541 18.5967V18.5965ZM15.7477 15.5749C15.7477 16.3615 16.1614 17.4693 17.0813 17.4693C18.0013 17.4693 18.4148 16.3615 18.4148 15.5749C18.4128 15.2225 18.2713 14.8853 18.0214 14.6369C17.7715 14.3885 17.4335 14.249 17.0811 14.249C16.7288 14.249 16.3907 14.3885 16.1408 14.6369C15.8909 14.8853 15.7495 15.2225 15.7474 15.5749H15.7477ZM19.52 4.92488C20.5109 5.91043 21.2965 7.08273 21.8313 8.37393C22.3661 9.66513 22.6395 11.0496 22.6357 12.4471C22.6357 12.6193 22.6306 12.7853 22.6263 12.9108C22.6228 13.0079 22.5819 13.0998 22.512 13.1673C22.4421 13.2348 22.3488 13.2725 22.2517 13.2725H22.2445C22.1462 13.2708 22.0525 13.2305 21.9836 13.1604C21.9147 13.0902 21.8761 12.9958 21.8761 12.8975C21.8747 12.0923 21.5542 11.3204 20.9848 10.7511C20.4154 10.1817 19.6435 9.86121 18.8383 9.8598C18.0331 9.8584 17.2601 10.1762 16.6888 10.7436C16.1174 11.311 15.7942 12.0817 15.7899 12.8869C15.7899 12.9864 15.7504 13.0818 15.6801 13.1521C15.6098 13.2224 15.5144 13.2619 15.4149 13.2619C15.3155 13.2619 15.2201 13.2224 15.1498 13.1521C15.0794 13.0818 15.0399 12.9864 15.0399 12.8869C15.0399 12.8772 15.0392 12.8677 15.0391 12.858H15.036C15.0362 12.8287 15.0363 12.7986 15.0366 12.769C15.0034 11.9829 14.667 11.2402 14.0979 10.697C13.5288 10.1537 12.7714 9.85204 11.9846 9.85541C11.1978 9.85877 10.443 10.1669 9.87858 10.715C9.31416 11.2631 8.9841 12.0087 8.95772 12.795C8.95819 12.8269 8.95847 12.8586 8.95903 12.8909H8.95486C8.95432 12.9903 8.9143 13.0855 8.8436 13.1554C8.7729 13.2254 8.6773 13.2644 8.57784 13.2638C8.47839 13.2633 8.38322 13.2233 8.31327 13.1526C8.24332 13.0819 8.20432 12.9863 8.20486 12.8868C8.20063 12.0818 7.87749 11.3112 7.30624 10.744C6.73499 10.1767 5.96219 9.85896 5.15714 9.86036C4.35208 9.86177 3.58039 10.1822 3.01112 10.7514C2.44185 11.3207 2.1214 12.0924 2.11997 12.8974C2.11999 12.9955 2.08163 13.0896 2.01308 13.1597C1.94454 13.2298 1.85128 13.2703 1.75327 13.2724H1.74483C1.64827 13.2724 1.55545 13.2351 1.48569 13.1683C1.41593 13.1016 1.37462 13.0105 1.37034 12.914C1.36294 12.7468 1.35938 12.594 1.35938 12.447C1.35917 9.69057 2.42909 7.04166 4.34365 5.05857C6.25821 3.07548 8.86787 1.9131 11.6227 1.81641V0.984375C11.6227 0.884919 11.6622 0.789536 11.7325 0.71921C11.8028 0.648884 11.8982 0.609375 11.9977 0.609375C12.0971 0.609375 12.1925 0.648884 12.2628 0.71921C12.3331 0.789536 12.3727 0.884919 12.3727 0.984375V1.81641C15.0642 1.90355 17.6209 3.01548 19.5199 4.92488H19.52ZM8.25361 10.7044C8.3723 8.58436 8.70689 6.62798 9.22514 5.07159C9.57122 4.03209 9.97626 3.23203 10.4281 2.68402C6.39689 3.32972 3.17142 6.42047 2.32655 10.3825C2.70483 9.955 3.17489 9.61853 3.70155 9.39828C4.22821 9.17804 4.79786 9.07971 5.36788 9.11066C5.9379 9.14162 6.49355 9.30104 6.99327 9.57703C7.49299 9.85301 7.92384 10.2384 8.25361 10.7044ZM14.9809 10.5609C14.682 5.7623 13.2751 2.55937 11.9977 2.55937C10.7195 2.55937 9.31172 5.76328 9.01298 10.5628C9.36679 10.109 9.81939 9.74191 10.3364 9.48936C10.8534 9.2368 11.4211 9.10545 11.9965 9.10528C12.5719 9.10512 13.1398 9.23614 13.6569 9.48839C14.174 9.74065 14.6269 10.1075 14.9809 10.561V10.5609ZM21.6685 10.3812C20.8229 6.41972 17.5974 3.32934 13.5664 2.68397C14.0181 3.23203 14.423 4.03214 14.769 5.07169C15.2873 6.62869 15.6219 8.58572 15.7404 10.7061C16.0701 10.2399 16.5008 9.85421 17.0005 9.57794C17.5001 9.30167 18.0558 9.14194 18.6259 9.11067C19.196 9.07941 19.7658 9.17743 20.2927 9.39741C20.8195 9.61738 21.2899 9.95362 21.6685 10.381V10.3812Z" fill="#BF9156"/>
</svg>
