<svg width="82" height="72" viewBox="0 0 82 72" fill="none" xmlns="http://www.w3.org/2000/svg">
<path d="M7.56245 2.14102C7.90548 1.97827 24.8396 7.55202 38.3608 12.0466C39.1746 11.4832 39.8532 11.015 39.8532 11.015L39.9658 9.15955L46.143 4.88283L49.4107 9.60274L43.4388 13.7367C46.0003 14.5906 48.2964 15.3568 50.1543 15.9778C56.8749 11.6134 69.8678 3.22022 72.2215 2.05839C75.4215 0.478411 80.6698 -0.618312 81.2382 0.385765C81.8065 1.38984 79.0197 5.98205 77.1192 8.18802C75.6794 9.85814 61.6524 19.8789 54.8292 24.7115C54.7941 26.9149 54.7491 29.5115 54.6965 32.341L61.7651 27.4458L65.0327 32.1657L58.8555 36.4424L57.0802 35.894C57.0802 35.894 55.7581 36.8105 54.5938 37.6142C54.2783 52.9483 53.7575 71.5375 53.0739 71.858C51.9096 72.4064 47.7155 71.1895 47.7155 71.1895L44.7408 57.3402C43.6041 58.0188 42.6726 58.3543 42.4998 58.1064C42.3045 57.826 43.1558 56.8945 44.4404 55.948L42.948 48.9996C42.0516 49.4804 41.363 49.6857 41.2178 49.4779C41.05 49.235 41.666 48.5013 42.6676 47.6951L39.7205 33.971L23.9682 43.5886L23.1094 61.6971L18.9704 63.5324L14.9265 49.9611L17.7084 46.373C17.7084 46.373 13.8248 48.937 13.2439 47.9079C12.663 46.8788 15.7578 44.0193 15.7578 44.0193L12.1647 45.2187L0.583984 37.6067L4.42502 32.346L21.2489 38.7886L35.271 27.1303L24.9022 20.7302C23.52 21.6442 22.2931 22.1424 22.0928 21.8545C21.9175 21.6016 22.591 20.8179 23.6702 19.9715L17.6358 16.2457C17.6082 16.2632 17.5832 16.2832 17.5556 16.3008C16.0633 17.3349 14.6811 17.9233 14.4658 17.6153C14.273 17.3349 15.1093 16.4134 16.3813 15.4745L5.12612 8.52605C5.12612 8.52605 6.98654 2.41395 7.56245 2.14353V2.14102Z" fill="#BF9156"/>
</svg>
