<svg width="124" height="124" viewBox="0 0 124 124" fill="none" xmlns="http://www.w3.org/2000/svg">
<path d="M57.7737 64.6888L57.7689 64.6936L27.0376 95.8639C17.3054 105.735 0.5 98.8439 0.5 84.9818V16C0.5 7.43959 7.43959 0.5 16 0.5H85.0234C98.8799 0.5 105.774 17.2938 95.9139 27.0294L57.7737 64.6888Z" fill="#F6F6F6" stroke="#29434C"/>
<g clip-path="url(#clip0_3_2371)">
<path d="M28.0469 38.9995V31.2042C28.0469 27.9745 31.5438 25.9542 34.3375 27.5714L41.0922 31.4714L47.8469 35.3714C50.6453 36.9839 50.6453 41.0245 47.8469 42.637L41.0922 46.537L34.3375 50.437C31.5438 52.0448 28.0469 50.0292 28.0469 46.7995V38.9995Z" fill="#29434C"/>
</g>
<defs>
<clipPath id="clip0_3_2371">
<rect width="24" height="24" fill="white" transform="translate(27 27)"/>
</clipPath>
</defs>
</svg>
