<svg width="96" height="96" viewBox="0 0 96 96" fill="none" xmlns="http://www.w3.org/2000/svg">
<path fill-rule="evenodd" clip-rule="evenodd" d="M86.3168 60.3682L76.0343 21.9925C75.8199 21.1932 74.9985 20.7192 74.1995 20.9333C69.2849 22.25 59.1078 24.9771 51.558 26.9999C50.7593 27.214 49.9371 26.7394 49.7233 25.9407C49.5091 25.1419 49.9838 24.3197 50.7825 24.1059C58.3322 22.0829 68.5096 19.3558 73.4239 18.039C75.8215 17.3967 78.286 18.8194 78.9283 21.217C81.4715 30.7086 89.3974 60.2882 89.3974 60.2882C89.5153 60.7277 89.4268 61.1972 89.1572 61.5637L77.7882 77.0178C77.5867 77.2918 77.2979 77.4891 76.9692 77.5771L60.9472 81.8701C60.1487 82.0842 59.3265 81.6096 59.1124 80.8109C58.8985 80.0121 59.3731 79.1902 60.1719 78.9761L75.6861 74.8189L86.3168 60.3682Z" fill="black"/>
<path fill-rule="evenodd" clip-rule="evenodd" d="M57.9411 29.1337L50.7702 27.2123C49.9715 26.9982 49.4969 26.176 49.7107 25.3773C49.9248 24.5788 50.747 24.1039 51.5455 24.318C56.0327 25.5204 59.2242 26.3755 59.2242 26.3755C59.5529 26.4635 59.8417 26.6608 60.0431 26.9348L71.4121 42.3889C71.6818 42.7554 71.7702 43.2249 71.6524 43.6644C71.6524 43.6644 63.7265 73.244 61.1833 82.7356C60.5409 85.1332 58.0765 86.556 55.6789 85.9136C46.7568 83.5231 19.7415 76.2842 10.8194 73.8934C9.66794 73.5849 8.68636 72.8317 8.09041 71.7995C7.49445 70.7672 7.33293 69.5405 7.64142 68.389C10.1369 59.076 17.9415 29.9486 20.4369 20.6355C20.7454 19.484 21.4986 18.5025 22.5309 17.9065C23.5631 17.3103 24.7901 17.1488 25.9413 17.4575C28.9656 18.2676 33.9926 19.6148 39.2351 21.0195C40.0339 21.2333 40.5085 22.0555 40.2946 22.8543C40.0805 23.653 39.2583 24.1276 38.4596 23.9135C33.2173 22.5088 28.19 21.1619 25.166 20.3515C24.782 20.2488 24.3732 20.3025 24.0291 20.5012C23.685 20.6999 23.434 21.027 23.3309 21.4108C20.8355 30.7241 13.0309 59.8515 10.5354 69.1646C10.4327 69.5483 10.4866 69.9571 10.6851 70.3012C10.8838 70.6453 11.2109 70.8966 11.5949 70.9994C20.5167 73.3899 47.5324 80.6288 56.4542 83.0193C57.2535 83.2334 58.0749 82.7594 58.2892 81.9601L68.5718 43.5844L57.9411 29.1337Z" fill="#7A7A7A"/>
<path fill-rule="evenodd" clip-rule="evenodd" d="M57.5676 38.34L70.5915 41.8297C71.39 42.0436 71.8648 42.8658 71.6507 43.6645C71.4366 44.4632 70.6147 44.9379 69.8159 44.7237L55.345 40.8463C54.546 40.6321 54.0717 39.8108 54.2858 39.0115L57.3877 27.4348C57.6018 26.6361 58.4238 26.1615 59.2225 26.3756C60.0212 26.5894 60.4958 27.4116 60.282 28.2104L57.5676 38.34Z" fill="#7A7A7A"/>
<path fill-rule="evenodd" clip-rule="evenodd" d="M75.3176 65.6126L78.032 75.7422C78.2458 76.541 77.7712 77.3631 76.9725 77.577C76.1737 77.7911 75.3518 77.3165 75.1377 76.5178L72.0358 64.9411C71.8217 64.1418 72.296 63.3205 73.095 63.1063L87.5659 59.2289C88.3647 59.0147 89.1866 59.4896 89.4007 60.2881C89.6148 61.0868 89.14 61.909 88.3415 62.1229L75.3176 65.6126Z" fill="black"/>
<path fill-rule="evenodd" clip-rule="evenodd" d="M43.4417 17.9778V29.9627C43.4417 31.1546 43.9152 32.2979 44.7582 33.1406C45.6009 33.9836 46.744 34.4571 47.9361 34.4571C50.4181 34.4571 52.4303 32.4449 52.4303 29.9627C52.4303 26.8507 52.4303 21.8976 52.4303 17.9778C52.4303 13.8406 49.0768 10.4871 44.9399 10.4871C40.8027 10.4871 37.4492 13.8406 37.4492 17.9778V30.3998C37.4492 34.3719 39.6934 38.0032 43.2462 39.7797L44.2698 40.2913C45.0095 40.6613 45.9099 40.3609 46.2799 39.6214C46.6496 38.8818 46.3494 37.9814 45.6098 37.6114L44.5861 37.0996C42.0486 35.8308 40.4454 33.2372 40.4454 30.3998C40.4454 26.6795 40.4454 21.7854 40.4454 17.9778C40.4454 15.4955 42.4577 13.4833 44.9399 13.4833C47.4219 13.4833 49.4341 15.4955 49.4341 17.9778V29.9627C49.4341 30.79 48.7635 31.4609 47.9361 31.4609C47.5387 31.4609 47.1576 31.3029 46.8766 31.0219C46.5959 30.7412 46.4379 30.3601 46.4379 29.9627C46.4379 25.5906 46.4379 17.9778 46.4379 17.9778C46.4379 17.1507 45.7667 16.4795 44.9399 16.4795C44.1129 16.4795 43.4417 17.1507 43.4417 17.9778Z" fill="#6644FF"/>
<path fill-rule="evenodd" clip-rule="evenodd" d="M34.1028 50.6642L54.362 56.0927C55.1608 56.3066 55.983 55.832 56.1968 55.0332C56.4109 54.2348 55.936 53.4126 55.1376 53.1984L34.8783 47.7701C34.0796 47.556 33.2577 48.0306 33.0436 48.8294C32.8294 49.6281 33.3043 50.4503 34.1028 50.6642Z" fill="#6644FF"/>
<path fill-rule="evenodd" clip-rule="evenodd" d="M24.5405 57.4078L52.035 64.775C52.8335 64.9891 53.6557 64.5145 53.8698 63.7157C54.0837 62.917 53.6091 62.0948 52.8103 61.881L25.316 54.5138C24.5173 54.2997 23.6951 54.7745 23.481 55.573C23.2671 56.3717 23.7417 57.1939 24.5405 57.4078Z" fill="#7A7A7A"/>
<path fill-rule="evenodd" clip-rule="evenodd" d="M22.2162 66.0905L36.6869 69.9679C37.4856 70.1818 38.3078 69.7072 38.5217 68.9084C38.7358 68.11 38.2612 67.2878 37.4625 67.0737L22.9915 63.1962C22.1931 62.9823 21.3709 63.4569 21.1567 64.2557C20.9429 65.0544 21.4175 65.8764 22.2162 66.0905Z" fill="#6644FF"/>
<path fill-rule="evenodd" clip-rule="evenodd" d="M42.4739 71.5188L49.7092 73.4576C50.508 73.6715 51.3302 73.1969 51.5443 72.3981C51.7581 71.5997 51.2835 70.7775 50.4848 70.5634L43.2495 68.6247C42.4507 68.4106 41.6285 68.8852 41.4147 69.684C41.2006 70.4827 41.6752 71.3049 42.4739 71.5188Z" fill="#6644FF"/>
</svg>
