<svg width="96" height="96" viewBox="0 0 96 96" fill="none" xmlns="http://www.w3.org/2000/svg">
<path fill-rule="evenodd" clip-rule="evenodd" d="M38.5103 58.972L51.2225 46.2598C51.8071 45.6752 51.8071 44.726 51.2225 44.1411C50.6378 43.5565 49.6883 43.5565 49.1037 44.1411L36.3918 56.8533C35.8069 57.4379 35.8069 58.3871 36.3918 58.972C36.9764 59.5567 37.9256 59.5567 38.5103 58.972Z" fill="#6644FF"/>
<path d="M52.2814 46.0781C53.9362 46.0781 55.2776 44.7367 55.2776 43.0819C55.2776 41.4271 53.9362 40.0857 52.2814 40.0857C50.6266 40.0857 49.2852 41.4271 49.2852 43.0819C49.2852 44.7367 50.6266 46.0781 52.2814 46.0781Z" fill="#6644FF"/>
<path fill-rule="evenodd" clip-rule="evenodd" d="M63.6024 48.2987L64.4508 39.8146C64.533 38.9919 65.2679 38.3908 66.0906 38.473C66.9133 38.5553 67.5144 39.2901 67.4322 40.1128L66.4848 49.5869C66.4247 50.1869 66.0108 50.6925 65.4345 50.8697L37.8919 59.3444C37.3615 59.5075 36.7844 59.3644 36.3921 58.972C35.9995 58.5794 35.8563 58.0023 36.0194 57.4719L44.4941 29.9293C44.6715 29.353 45.1769 28.9391 45.7769 28.8792L55.2162 27.9351C56.0389 27.8529 56.7737 28.454 56.856 29.2767C56.9382 30.0995 56.3372 30.8343 55.5144 30.9165L47.0653 31.7614L39.7154 55.6484L63.6024 48.2987Z" fill="#7A7A7A"/>
<path fill-rule="evenodd" clip-rule="evenodd" d="M67.4136 19.4753L60.7564 26.1324C60.1718 26.717 59.2223 26.717 58.6377 26.1324C58.0531 25.5478 58.0531 24.5983 58.6377 24.0137L66.3544 16.2973C66.9393 15.7121 67.8879 15.7121 68.4728 16.2973L79.0663 26.8907C79.6514 27.4756 79.6514 28.4243 79.0663 29.0092L71.3499 36.7259C70.7652 37.3105 69.8158 37.3105 69.2311 36.7259C68.6465 36.1412 68.6465 35.1917 69.2311 34.6071L75.8883 27.9499L67.4136 19.4753Z" fill="#6644FF"/>
<path fill-rule="evenodd" clip-rule="evenodd" d="M54.3985 24.0137C56.1537 22.2588 58.9992 22.2588 60.7544 24.0137C63.5735 26.8328 68.5288 31.7881 71.3478 34.6072C73.1031 36.3624 73.1028 39.2082 71.3478 40.9631C69.5926 42.7184 66.7469 42.7184 64.9919 40.9631C62.1728 38.1441 57.2175 33.1887 54.3985 30.37C52.6432 28.6147 52.6432 25.769 54.3985 24.0137ZM69.2291 38.8447C69.8143 38.2595 69.8143 37.3108 69.2291 36.7259C66.4101 33.9069 61.4547 28.9515 58.6357 26.1325C58.0508 25.5476 57.1021 25.5476 56.5172 26.1325C55.932 26.7176 55.932 27.666 56.5172 28.2512C59.336 31.0703 64.2913 36.0256 67.1104 38.8447C67.6955 39.4296 68.6439 39.4296 69.2291 38.8447Z" fill="#6644FF"/>
<path fill-rule="evenodd" clip-rule="evenodd" d="M28.0346 14.3698C14.6081 28.2658 14.0542 50.0205 26.3716 64.5656C26.9058 65.1966 27.8521 65.2751 28.4831 64.7406C29.1141 64.2062 29.1926 63.2602 28.6581 62.6292C17.3268 49.2485 17.8376 29.2352 30.1892 16.4518C30.7639 15.8572 30.7477 14.908 30.1531 14.3334C29.5582 13.759 28.6093 13.7752 28.0346 14.3698Z" fill="#7A7A7A"/>
<path fill-rule="evenodd" clip-rule="evenodd" d="M30.9905 69.1536C45.5142 81.2871 67.0989 80.6976 80.9358 67.3843C81.5318 66.811 81.5498 65.8618 80.9768 65.2661C80.4035 64.6702 79.4543 64.6518 78.8583 65.2251C66.1292 77.4727 46.2725 78.0161 32.9115 66.8542C32.277 66.3243 31.3313 66.409 30.8012 67.0435C30.2713 67.678 30.3559 68.6237 30.9905 69.1536Z" fill="#7A7A7A"/>
<path fill-rule="evenodd" clip-rule="evenodd" d="M30.6105 68.9886L46.5004 84.8788C47.0851 85.4634 48.0345 85.4634 48.6192 84.8788C49.2038 84.2941 49.2038 83.3447 48.6192 82.76L32.729 66.8699C32.1444 66.2852 31.1952 66.2852 30.6105 66.8699C30.0257 67.4548 30.0257 68.404 30.6105 68.9886Z" fill="#7A7A7A"/>
<path fill-rule="evenodd" clip-rule="evenodd" d="M10.4855 48.8612L26.3754 64.7513C26.9601 65.336 27.9095 65.336 28.4942 64.7513C29.0788 64.1667 29.0788 63.2172 28.4942 62.6326L12.604 46.7424C12.0194 46.1578 11.0702 46.1578 10.4855 46.7424C9.90065 47.3273 9.90065 48.2765 10.4855 48.8612Z" fill="#7A7A7A"/>
<path fill-rule="evenodd" clip-rule="evenodd" d="M81.0784 69.4586C81.6636 70.0437 82.612 70.0437 83.1972 69.4586L87.4344 65.2213C88.0196 64.6362 88.0196 63.6878 87.4344 63.1026L83.1972 58.8654C82.612 58.2802 81.6636 58.2802 81.0784 58.8654L76.8412 63.1026C76.2561 63.6878 76.2561 64.6362 76.8412 65.2213L81.0784 69.4586ZM80.0192 64.1621L82.1377 66.2806L84.2564 64.1621L82.1377 62.0434L80.0192 64.1621Z" fill="black"/>
<path fill-rule="evenodd" clip-rule="evenodd" d="M30.1409 18.5225C30.7261 19.1074 31.6745 19.1074 32.2597 18.5225L36.4969 14.2851C37.0821 13.7002 37.0821 12.7515 36.4969 12.1663L32.2597 7.92911C31.6745 7.34394 30.7261 7.34394 30.1409 7.92911L25.9037 12.1663C25.3186 12.7515 25.3186 13.7002 25.9037 14.2851L30.1409 18.5225ZM29.0817 13.2258L31.2002 15.3443L33.3189 13.2258L31.2002 11.1071L29.0817 13.2258Z" fill="black"/>
<path fill-rule="evenodd" clip-rule="evenodd" d="M28.6451 70.9569C29.23 71.5421 30.1787 71.5421 30.7636 70.9569L35.0011 66.7197C35.586 66.1345 35.586 65.1859 35.0011 64.601L30.7636 60.3635C30.1787 59.7786 29.23 59.7786 28.6451 60.3635L24.4076 64.601C23.8225 65.1859 23.8225 66.1345 24.4076 66.7197L28.6451 70.9569ZM27.5856 65.6602L29.7043 67.7789L31.8231 65.6602L29.7043 63.5415L27.5856 65.6602Z" fill="black"/>
<path d="M48.6212 87.8753C50.276 87.8753 51.6174 86.5338 51.6174 84.879C51.6174 83.2243 50.276 81.8828 48.6212 81.8828C46.9665 81.8828 45.625 83.2243 45.625 84.879C45.625 86.5338 46.9665 87.8753 48.6212 87.8753Z" fill="black"/>
<path d="M10.4845 49.739C12.1393 49.739 13.4807 48.3976 13.4807 46.7428C13.4807 45.088 12.1393 43.7466 10.4845 43.7466C8.82974 43.7466 7.48828 45.088 7.48828 46.7428C7.48828 48.3976 8.82974 49.739 10.4845 49.739Z" fill="black"/>
</svg>
