<svg width="96" height="96" viewBox="0 0 96 96" fill="none" xmlns="http://www.w3.org/2000/svg">
<path fill-rule="evenodd" clip-rule="evenodd" d="M31.7364 72.2455L25.4381 79.9009C25.0592 80.3618 24.4428 80.5535 23.8692 80.3895C23.2956 80.2256 22.8742 79.7367 22.796 79.1453L19.4934 54.1287C19.4141 53.5279 19.7045 52.9384 20.2296 52.6353C20.7546 52.3322 21.4104 52.3753 21.891 52.7445L41.9048 68.1129C42.3805 68.4783 42.5924 69.092 42.4436 69.6729C42.2947 70.254 41.8137 70.69 41.2207 70.7817L31.7364 72.2455ZM37.3006 68.355L22.9378 57.3258L25.3151 75.3344L29.7856 69.9005C30.0197 69.616 30.35 69.4277 30.7141 69.3717L37.3006 68.355Z" fill="#7A7A7A"/>
<path fill-rule="evenodd" clip-rule="evenodd" d="M21.2481 33.2943L14.9498 40.9498C14.5709 41.4104 13.9545 41.6024 13.3809 41.4384C12.8073 41.2742 12.3859 40.7855 12.3077 40.1939L9.0051 15.1775C8.92582 14.5765 9.21652 13.987 9.74128 13.6839C10.2663 13.3808 10.9221 13.4239 11.4027 13.7931L31.4165 29.1615C31.8922 29.5268 32.1042 30.1406 31.9553 30.7217C31.8064 31.3026 31.3254 31.7389 30.7327 31.8303L21.2481 33.2943ZM26.8123 29.4036L12.4495 18.3747L14.8269 36.383L19.2973 30.9491C19.5314 30.6648 19.862 30.4766 20.2258 30.4202L26.8123 29.4036Z" fill="#6644FF"/>
<path fill-rule="evenodd" clip-rule="evenodd" d="M86.8966 68.9141C86.8966 66.4319 84.8844 64.4197 82.4024 64.4197C75.1469 64.4197 56.699 64.4197 49.4434 64.4197C46.9614 64.4197 44.9492 66.4319 44.9492 68.9141V77.9028C44.9492 80.3851 46.9614 82.3973 49.4434 82.3973H82.4024C84.8844 82.3973 86.8966 80.3851 86.8966 77.9028V68.9141ZM83.9004 68.9141V77.9028C83.9004 78.7301 83.2298 79.4008 82.4024 79.4008C75.1469 79.4008 56.699 79.4008 49.4434 79.4008C48.6161 79.4008 47.9454 78.7301 47.9454 77.9028C47.9454 75.2919 47.9454 71.525 47.9454 68.9141C47.9454 68.0866 48.6161 67.4159 49.4434 67.4159H82.4024C83.2298 67.4159 83.9004 68.0866 83.9004 68.9141Z" fill="#7A7A7A"/>
<path fill-rule="evenodd" clip-rule="evenodd" d="M76.4084 29.9626C76.4084 27.4804 74.3961 25.4681 71.9141 25.4681C64.6586 25.4681 46.2107 25.4681 38.9551 25.4681C36.4732 25.4681 34.4609 27.4804 34.4609 29.9626V38.9513C34.4609 41.4335 36.4732 43.4458 38.9551 43.4458H71.9141C74.3961 43.4458 76.4084 41.4335 76.4084 38.9513V29.9626ZM73.4121 29.9626V38.9513C73.4121 39.7789 72.7415 40.4495 71.9141 40.4495C64.6586 40.4495 46.2107 40.4495 38.9551 40.4495C38.1278 40.4495 37.4572 39.7789 37.4572 38.9513C37.4572 36.3404 37.4572 32.5735 37.4572 29.9626C37.4572 29.1353 38.1278 28.4646 38.9551 28.4646H71.9141C72.7415 28.4646 73.4121 29.1353 73.4121 29.9626Z" fill="#7A7A7A"/>
<path fill-rule="evenodd" clip-rule="evenodd" d="M53.9357 74.9066H77.9058C78.7326 74.9066 79.4038 74.2352 79.4038 73.4084C79.4038 72.5816 78.7326 71.9104 77.9058 71.9104H53.9357C53.109 71.9104 52.4375 72.5816 52.4375 73.4084C52.4375 74.2352 53.109 74.9066 53.9357 74.9066Z" fill="#6644FF"/>
<path fill-rule="evenodd" clip-rule="evenodd" d="M43.4472 35.9551H67.4173C68.244 35.9551 68.9155 35.2839 68.9155 34.4571C68.9155 33.6303 68.244 32.9589 67.4173 32.9589H43.4472C42.6204 32.9589 41.9492 33.6303 41.9492 34.4571C41.9492 35.2839 42.6204 35.9551 43.4472 35.9551Z" fill="black"/>
</svg>
