<svg width="75" height="70" viewBox="0 0 75 70" fill="none" xmlns="http://www.w3.org/2000/svg">
<path d="M17.504 20.8169L6.51562 39.8845H17.7767H17.7839L28.773 20.8169H17.504Z" stroke="#0D323D" stroke-width="1.2" stroke-linecap="round" stroke-linejoin="round"/>
<path d="M40.1892 1L34.5555 10.777L45.7715 30.24L51.406 20.463L40.1892 1Z" stroke="#0D323D" stroke-width="1.2" stroke-linecap="round" stroke-linejoin="round"/>
<path d="M17.7774 39.8918L17.7806 39.8847H17.7734L17.7774 39.8918Z" stroke="#0D323D" stroke-width="1.2" stroke-linecap="round" stroke-linejoin="round"/>
<path d="M34.5564 10.7772H1L12.1441 30.1153L17.5019 20.8174H28.7709L34.3034 30.2402H45.7733L34.5564 10.7772Z" stroke="#0D323D" stroke-width="1.2" stroke-linecap="round" stroke-linejoin="round"/>
<path d="M6.63451 1L1 10.777H34.5564L40.1909 1H6.63451Z" stroke="#0D323D" stroke-width="1.2" stroke-linecap="round" stroke-linejoin="round"/>
<path d="M34.3804 49.6615L28.6399 39.8845L34.3029 30.2396L28.7704 20.8169L17.7812 39.8845L34.5599 68.9996L45.704 49.6615H34.3804Z" stroke="#0D323D" stroke-width="1.2" stroke-linecap="round" stroke-linejoin="round"/>
<path d="M17.7839 39.8847L17.7807 39.8918L17.7767 39.8847H6.51562L23.2942 68.9998H34.5625L17.7839 39.8847Z" stroke="#0D323D" stroke-width="1.2" stroke-linecap="round" stroke-linejoin="round"/>
<path d="M51.3321 39.8847H28.6406L34.3811 49.6617H56.9658L51.3321 39.8847Z" stroke="#0D323D" stroke-width="1.2" stroke-linecap="round" stroke-linejoin="round"/>
<path d="M68.1145 10.7772L51.3359 39.8922L56.9665 49.6621L73.7451 20.5478L68.1145 10.7772Z" stroke="#0D323D" stroke-width="1.2" stroke-linecap="round" stroke-linejoin="round"/>
<path d="M45.8256 10.7772L51.408 20.4632L45.7735 30.2402H34.3036L28.6406 39.8851H51.3321L68.1138 10.7772H45.8256Z" stroke="#0D323D" stroke-width="1.2" stroke-linecap="round" stroke-linejoin="round"/>
</svg>
