<svg width="68" height="68" viewBox="0 0 68 68" fill="none" xmlns="http://www.w3.org/2000/svg">
<path d="M66.5047 44.8795H22.3047V0.638672H36.2039C44.2401 0.638672 51.9474 3.83107 57.6299 9.51357C63.3124 15.196 66.5047 22.9031 66.5047 30.9395V44.8795Z" stroke="#0D323D" stroke-width="0.688" stroke-miterlimit="10"/>
<path d="M62.9149 47.0281H20.2109V4.31055H34.0013C37.7976 4.30877 41.5572 5.05497 45.0651 6.50653C48.5729 7.9581 51.7605 10.0866 54.4455 12.7704C57.1306 15.4541 59.2605 18.6407 60.7138 22.1479C62.1669 25.655 62.9149 29.4142 62.9149 33.2105V47.0281Z" stroke="#0D323D" stroke-width="0.688" stroke-miterlimit="10"/>
<path d="M59.3252 49.204H18.1172V7.98242H31.826C35.4372 7.98242 39.0132 8.6937 42.3495 10.0757C45.6859 11.4576 48.7173 13.4832 51.2709 16.0367C53.8244 18.5903 55.85 21.6218 57.232 24.9582C58.6139 28.2945 59.3252 31.8704 59.3252 35.4816V49.204Z" stroke="#0D323D" stroke-width="0.704" stroke-miterlimit="10"/>
<path d="M55.7626 51.3819H16.0234V11.6563H29.6234C33.0549 11.6527 36.4532 12.3255 39.6245 13.636C42.7957 14.9468 45.6774 16.8696 48.105 19.2947C50.5326 21.7197 52.4585 24.5995 53.7724 27.7693C55.0863 30.9392 55.7626 34.3369 55.7626 37.7683V51.3819Z" stroke="#0D323D" stroke-width="0.72" stroke-miterlimit="10"/>
<path d="M52.1593 53.5577H13.9297V15.3281H27.4481C34.0008 15.3318 40.284 17.9365 44.9176 22.5699C49.5511 27.2034 52.1556 33.4866 52.1593 40.0393V53.5577Z" stroke="#0D323D" stroke-width="0.736" stroke-miterlimit="10"/>
<path d="M48.5617 55.7591H11.8281V19.0391H25.2513C31.4265 19.0391 37.3495 21.4894 41.7198 25.8521C46.0902 30.2149 48.551 36.1334 48.5617 42.3087V55.7591Z" stroke="#0D323D" stroke-width="0.736" stroke-miterlimit="10"/>
<path d="M44.972 57.9231H9.73438V22.6719H23.1168C28.9194 22.69 34.4781 25.0075 38.5749 29.1171C42.6716 33.2266 44.972 38.7925 44.972 44.5951V57.9231Z" stroke="#0D323D" stroke-width="0.752" stroke-miterlimit="10"/>
<path d="M41.3958 60.099H7.64062V26.3438H20.8734C26.3152 26.3474 31.5331 28.5108 35.381 32.3586C39.2289 36.2066 41.3922 41.4244 41.3958 46.8661V60.099Z" stroke="#0D323D" stroke-width="0.768" stroke-miterlimit="10"/>
<path d="M37.806 62.2748H5.54688V30.0156H18.6844C23.7571 30.0192 28.6207 32.0369 32.2063 35.6249C35.7919 39.2132 37.806 44.0782 37.806 49.1508V62.2748Z" stroke="#0D323D" stroke-width="0.784" stroke-miterlimit="10"/>
<path d="M34.2164 64.4643H3.45312V33.6875H16.4956C18.8173 33.6875 21.1163 34.1449 23.2614 35.0334C25.4064 35.9218 27.3554 37.2242 28.9972 38.8658C30.6389 40.5076 31.9412 42.4566 32.8297 44.6016C33.7182 46.7468 34.1756 49.0457 34.1756 51.3675L34.2164 64.4643Z" stroke="#0D323D" stroke-width="0.784" stroke-miterlimit="10"/>
<path d="M30.6402 66.64H1.35938V37.3592H14.3066C18.6349 37.3592 22.7859 39.0786 25.8466 42.1392C28.9071 45.1997 30.6266 49.3509 30.6266 53.6792L30.6402 66.64Z" stroke="#0D323D" stroke-width="0.8" stroke-miterlimit="10"/>
</svg>
