<svg width="68" height="68" viewBox="0 0 68 68" fill="none" xmlns="http://www.w3.org/2000/svg">
<path d="M50.256 5.86133H17.752L1.5 33.9998L17.752 62.1382H50.256L66.508 33.9998L50.256 5.86133Z" stroke="#0D323D" stroke-width="0.8" stroke-miterlimit="10"/>
<path d="M50.3045 8.37695H20.7109L5.91406 33.9993L20.7109 59.6217H50.3045L65.1013 33.9993L50.3045 8.37695Z" stroke="#0D323D" stroke-width="0.8" stroke-miterlimit="10"/>
<path d="M50.3608 10.8945H23.6776L10.3359 34.0009L23.6776 57.1073H50.3608L63.7024 34.0009L50.3608 10.8945Z" stroke="#0D323D" stroke-width="0.8" stroke-miterlimit="10"/>
<path d="M50.417 13.4102H26.6442L14.7578 34.0005L26.6442 54.5909H50.417L62.3034 34.0005L50.417 13.4102Z" stroke="#0D323D" stroke-width="0.8" stroke-miterlimit="10"/>
<path d="M50.4869 15.9256H29.6109L19.1797 34L29.6109 52.0744H50.4869L60.9181 34L50.4869 15.9256Z" stroke="#0D323D" stroke-width="0.8" stroke-miterlimit="10"/>
<path d="M50.5353 18.4414H32.5698L23.5938 33.9998L32.5698 49.5582H50.5353L59.5113 33.9998L50.5353 18.4414Z" stroke="#0D323D" stroke-width="0.8" stroke-miterlimit="10"/>
<path d="M50.5916 20.9707H35.5364L28.0156 33.9995L35.5364 47.0283H50.5916L58.1124 33.9995L50.5916 20.9707Z" stroke="#0D323D" stroke-width="0.8" stroke-miterlimit="10"/>
<path d="M50.6479 23.4863H38.5031L32.4375 33.9991L38.5031 44.5119H50.6479L56.7135 33.9991L50.6479 23.4863Z" stroke="#0D323D" stroke-width="0.8" stroke-miterlimit="10"/>
<path d="M50.7042 26.0039H41.4698L36.8594 34.0007L41.4698 41.9975H50.7042L55.3282 34.0007L50.7042 26.0039Z" stroke="#0D323D" stroke-width="0.8" stroke-miterlimit="10"/>
<path d="M50.7662 28.5195H44.4286L41.2734 34.0003L44.4286 39.4811H50.7662L53.9214 34.0003L50.7662 28.5195Z" stroke="#0D323D" stroke-width="0.8" stroke-miterlimit="10"/>
</svg>
