<svg width="60" height="68" viewBox="0 0 60 68" fill="none" xmlns="http://www.w3.org/2000/svg">
<path d="M9.625 31.6816L21.8461 38.7376V52.7806L9.625 45.7247V31.6816Z" stroke="#0D323D" stroke-width="1.2" stroke-miterlimit="10"/>
<path d="M50.3774 45.7247L38.1562 52.7806V38.7376L50.3774 31.6816V45.7247Z" stroke="#0D323D" stroke-width="1.2" stroke-miterlimit="10"/>
<path d="M21.8461 38.6699L9.625 45.7257" stroke="#0D323D" stroke-width="1.2" stroke-miterlimit="10"/>
<path d="M50.3774 45.7257L38.1562 38.6699" stroke="#0D323D" stroke-width="1.2" stroke-miterlimit="10"/>
<path d="M8.01438 21.407L1.45312 17.6172" stroke="#0D323D" stroke-width="1.2" stroke-miterlimit="10"/>
<path d="M58.2987 17.6152L29.9557 34.0793L10.0078 22.5575" stroke="#0D323D" stroke-width="1.2" stroke-miterlimit="10"/>
<path d="M51.9005 54.1734L58.4617 50.3837V17.6164L29.9578 1.15234L1.54688 17.6701V50.3837L29.9578 66.8473L49.9057 55.3255" stroke="#0D323D" stroke-width="1.2" stroke-miterlimit="10"/>
<path d="M29.9571 10.5605L42.0583 17.6165L29.9571 24.6725L17.6953 17.6166L29.9571 10.5605Z" stroke="#0D323D" stroke-width="1.2" stroke-miterlimit="10"/>
<path d="M29.9531 34.0801V66.8473" stroke="#0D323D" stroke-width="1.2" stroke-miterlimit="10"/>
<path d="M29.9531 10.5605V24.6725" stroke="#0D323D" stroke-width="1.2" stroke-miterlimit="10"/>
</svg>
