<svg width="108" height="109" viewBox="0 0 108 109" fill="none" xmlns="http://www.w3.org/2000/svg">
<path d="M53.5834 85.4887C70.7891 85.4887 84.7371 71.417 84.7371 54.0588C84.7371 36.7005 70.7891 22.6289 53.5834 22.6289C36.3777 22.6289 22.4297 36.7005 22.4297 54.0588C22.4297 71.417 36.3777 85.4887 53.5834 85.4887Z" fill="#BF9156"/>
<path opacity="0.6" d="M55.6964 5.02985C55.8063 5.03365 55.9144 5.05953 56.0142 5.10598C56.114 5.15243 56.2037 5.21851 56.2779 5.30036C56.3521 5.38221 56.4094 5.47816 56.4464 5.58264C56.4835 5.68711 56.4994 5.798 56.4935 5.90879C56.4783 6.13207 56.3771 6.34049 56.2116 6.48944C56.0461 6.63839 55.8294 6.71605 55.6079 6.7058C55.3912 6.69234 55.1885 6.59338 55.0435 6.43031C54.8985 6.26725 54.8228 6.05316 54.8329 5.8343C54.8425 5.61233 54.9387 5.40321 55.1005 5.25251C55.2623 5.10181 55.4765 5.02178 55.6964 5.02985Z" fill="#F6EFE6"/>
<path opacity="0.6" d="M102.179 48.5036C102.204 48.7276 102.14 48.9526 102.001 49.1293C101.862 49.3059 101.659 49.4198 101.437 49.4461C101.329 49.4575 101.219 49.4472 101.114 49.4157C101.01 49.3843 100.912 49.3323 100.828 49.2629C100.743 49.1934 100.673 49.1077 100.621 49.0108C100.569 48.9139 100.536 48.8076 100.525 48.6981C100.504 48.4772 100.571 48.257 100.709 48.0848C100.848 47.9127 101.048 47.8025 101.267 47.778C101.483 47.7546 101.699 47.8175 101.87 47.9531C102.04 48.0888 102.151 48.2864 102.179 48.5036Z" fill="#F6EFE6"/>
<path opacity="0.6" d="M54.0103 103.091C53.9 103.092 53.7907 103.071 53.6885 103.03C53.5864 102.988 53.4934 102.926 53.4151 102.848C53.3368 102.77 53.2746 102.678 53.2322 102.575C53.1898 102.473 53.168 102.364 53.168 102.253C53.1699 102.031 53.2584 101.819 53.4146 101.662C53.5708 101.505 53.782 101.416 54.0029 101.414C54.22 101.418 54.4273 101.506 54.5815 101.659C54.7357 101.813 54.8249 102.02 54.8306 102.238C54.8326 102.46 54.7477 102.674 54.5943 102.833C54.4408 102.993 54.2311 103.086 54.0103 103.091Z" fill="#1E2F22"/>
<path d="M6.37591 45.9799L5.98748 45.5511C5.9566 45.5252 5.93165 45.492 5.91445 45.4541C5.89726 45.4162 5.88833 45.3745 5.88833 45.3322C5.88833 45.29 5.89726 45.2483 5.91445 45.2104C5.93165 45.1724 5.9566 45.1392 5.98748 45.1134C6.28885 44.919 6.55049 44.6604 6.75647 44.3532C6.96244 44.046 7.1085 43.6967 7.18565 43.3266C7.23969 43.1661 7.263 42.9954 7.25413 42.8249C7.24527 42.6544 7.20443 42.4876 7.13411 42.3347C7.06378 42.1818 6.96543 42.046 6.84503 41.9354C6.72463 41.8249 6.58466 41.742 6.4337 41.6917C5.75615 41.522 5.19427 42.049 4.46715 43.1479C3.74002 44.2468 2.9055 45.1044 1.59997 44.7828C0.724112 44.5595 -0.325323 43.5231 0.0960808 41.5845C0.277882 40.777 0.677683 40.0462 1.24463 39.4851C1.27011 39.4559 1.3009 39.4326 1.335 39.4167C1.3691 39.4008 1.40579 39.3926 1.44292 39.3926C1.48006 39.3926 1.51685 39.4008 1.55095 39.4167C1.58505 39.4326 1.61574 39.4559 1.64122 39.4851L2.00484 39.9049C2.03473 39.9335 2.05864 39.9685 2.07504 40.0078C2.09144 40.0471 2.09996 40.0896 2.09996 40.1327C2.09996 40.1758 2.09144 40.2184 2.07504 40.2577C2.05864 40.297 2.03473 40.332 2.00484 40.3606C1.55663 40.7455 1.23268 41.2741 1.07941 41.8704C1.02099 42.0282 0.993351 42.1974 0.998314 42.3673C1.00328 42.5373 1.04075 42.7042 1.10826 42.8578C1.17577 43.0113 1.27193 43.1481 1.39068 43.2595C1.50942 43.3709 1.64818 43.4546 1.79827 43.5053C2.44277 43.6661 2.95506 43.2194 3.54999 42.2992C4.37627 41.0127 5.26864 39.9586 6.64027 40.298C6.94165 40.3994 7.22131 40.5647 7.46282 40.7843C7.70434 41.004 7.90282 41.2736 8.04673 41.5773C8.19063 41.881 8.27709 42.2127 8.30091 42.553C8.32472 42.8932 8.28542 43.2352 8.18542 43.5589C7.98514 44.5236 7.46853 45.3773 6.73115 45.9621C6.64026 46.0961 6.54116 46.1765 6.37591 45.9799Z" fill="#F6EFE6"/>
<path d="M4.58206 28.9919C5.01599 28.0104 5.79595 27.2408 6.76004 26.8426C6.7873 26.8287 6.81712 26.8211 6.84743 26.8202C6.87773 26.8192 6.90783 26.8251 6.93581 26.8372C6.9638 26.8494 6.98895 26.8675 7.00965 26.8906C7.03036 26.9137 7.04614 26.9411 7.05591 26.971L7.30251 27.6817C7.36004 27.8016 7.30248 27.9044 7.17098 27.9557C6.49886 28.2645 5.95 28.8061 5.61763 29.4885C5.45468 29.8538 5.36271 30.2491 5.34685 30.6516C5.33099 31.054 5.39157 31.4558 5.52523 31.8338C5.65889 32.2118 5.86289 32.5585 6.12558 32.854C6.38827 33.1496 6.70444 33.3882 7.05591 33.556C7.40309 33.7356 7.78103 33.8418 8.16782 33.8683C8.55461 33.8949 8.94262 33.8413 9.30943 33.7107C9.67624 33.5802 10.0146 33.3752 10.305 33.1076C10.5953 32.84 10.8318 32.515 11.0009 32.1516C11.3112 31.4607 11.3724 30.6765 11.1735 29.9424C11.1589 29.8911 11.1625 29.8361 11.1836 29.7873C11.2048 29.7386 11.242 29.6994 11.2886 29.6769L11.9789 29.4115C12.0345 29.3925 12.0951 29.3971 12.1475 29.4243C12.1998 29.4516 12.2397 29.4993 12.2584 29.557C12.5887 30.592 12.5149 31.7209 12.0529 32.6997C11.8253 33.2186 11.5004 33.6848 11.0973 34.0711C10.6943 34.4573 10.2212 34.7557 9.70592 34.9488C9.19062 35.1418 8.64351 35.2257 8.09669 35.1953C7.54987 35.1649 7.01434 35.021 6.52167 34.7719C6.02581 34.5301 5.58133 34.1876 5.21432 33.7643C4.84731 33.341 4.56521 32.8456 4.38452 32.3072C4.20383 31.7687 4.12827 31.1981 4.1622 30.6287C4.19613 30.0594 4.33883 29.5029 4.58206 28.9919Z" fill="#F6EFE6"/>
<path d="M9.20162 21.2772C9.18105 21.2576 9.16478 21.2343 9.15364 21.2086C9.14249 21.1829 9.13672 21.1554 9.13672 21.1275C9.13672 21.0997 9.14249 21.0721 9.15364 21.0464C9.16478 21.0208 9.18105 20.9975 9.20162 20.9779L11.209 18.5512C11.4128 18.2953 11.6675 18.0812 11.9582 17.9212C12.2489 17.7613 12.5697 17.6587 12.9021 17.6195C13.2344 17.5804 13.5715 17.6054 13.8937 17.6931C14.2159 17.7809 14.5167 17.9296 14.7785 18.1306C15.1809 18.46 15.4702 18.8992 15.6081 19.3902C15.7461 19.8812 15.7262 20.4009 15.5512 20.8808L18.9108 21.4632C18.9508 21.4687 18.9885 21.4843 19.0202 21.5084C19.0518 21.5326 19.0762 21.5645 19.0907 21.6008C19.1053 21.6371 19.1094 21.6765 19.1029 21.7148C19.0964 21.7532 19.0793 21.7893 19.0535 21.8192L18.4992 22.4825C18.4695 22.5246 18.4267 22.5567 18.3769 22.5741C18.3272 22.5916 18.2729 22.5935 18.222 22.5795L14.8625 21.9001L13.7454 23.2348L16.0804 25.0386C16.1205 25.0804 16.1428 25.1353 16.1428 25.1923C16.1428 25.2493 16.1205 25.3041 16.0804 25.346L15.6016 25.9203C15.5813 25.9401 15.5571 25.9559 15.5304 25.9666C15.5037 25.9773 15.4751 25.9829 15.4462 25.9829C15.4173 25.9829 15.3887 25.9773 15.3621 25.9666C15.3354 25.9559 15.3111 25.9401 15.2908 25.9203L9.20162 21.2772ZM14.2409 21.0345C14.4756 20.7435 14.5824 20.3755 14.5385 20.0095C14.4945 19.6435 14.3033 19.3087 14.0059 19.077C13.7061 18.8612 13.331 18.7659 12.9597 18.8112C12.5884 18.8565 12.2497 19.0387 12.0152 19.3196L10.6966 20.897L12.9224 22.62L14.2409 21.0345Z" fill="#F6EFE6"/>
<path d="M20.7432 9.25872C21.1749 8.919 21.6694 8.66961 22.1977 8.5252C22.7261 8.38079 23.2775 8.34427 23.82 8.41775C24.3625 8.49122 24.8851 8.67322 25.357 8.95309C25.8289 9.23296 26.2408 9.60506 26.5684 10.0476C26.9003 10.4854 27.1424 10.9854 27.2808 11.5186C27.4192 12.0517 27.451 12.6074 27.3744 13.1531C27.2978 13.6988 27.1143 14.2237 26.8347 14.6971C26.555 15.1705 26.1849 15.583 25.7457 15.9105C24.8799 16.5775 23.7875 16.8708 22.7078 16.726C21.6282 16.5812 20.6495 16.0102 19.9864 15.1382C19.6485 14.7041 19.3997 14.2063 19.2547 13.674C19.1097 13.1417 19.0712 12.5855 19.1417 12.0381C19.2122 11.4906 19.3902 10.9628 19.6652 10.4856C19.9402 10.0083 20.3066 9.59127 20.7432 9.25872ZM25.0792 15.0136C25.7105 14.5221 26.1243 13.799 26.2306 13.0013C26.3369 12.2037 26.1272 11.396 25.6469 10.7535C25.1595 10.1155 24.4437 9.69566 23.6532 9.5839C22.8627 9.47213 22.0603 9.67735 21.418 10.1556C20.7922 10.6536 20.3842 11.3789 20.2812 12.1765C20.1782 12.9741 20.3883 13.7807 20.8667 14.424C21.3498 15.0633 22.0636 15.4839 22.8527 15.5943C23.6417 15.7048 24.442 15.4961 25.0792 15.0136Z" fill="#F6EFE6"/>
<path d="M29.928 3.96437C29.9152 3.93846 29.9079 3.9104 29.9065 3.88177C29.9051 3.85314 29.9096 3.82453 29.9197 3.79757C29.9299 3.77061 29.9455 3.74584 29.9656 3.72468C29.9858 3.70353 30.0102 3.68641 30.0373 3.67429L30.752 3.36808C30.8067 3.34639 30.8681 3.34605 30.9231 3.36712C30.9781 3.3882 31.0224 3.42904 31.0464 3.48091L33.8802 9.52446L36.798 8.25934C36.8517 8.23711 36.9122 8.23559 36.9671 8.25511C37.0219 8.27463 37.0668 8.31367 37.0923 8.3641L37.3613 8.92815C37.3741 8.95406 37.3815 8.98215 37.3829 9.01078C37.3843 9.0394 37.3798 9.06802 37.3696 9.09498C37.3595 9.12193 37.3438 9.14668 37.3237 9.16784C37.3035 9.189 37.2791 9.20614 37.252 9.21825L33.4092 10.8782C33.3545 10.8999 33.2931 10.9002 33.2381 10.8792C33.1831 10.8581 33.139 10.8173 33.1149 10.7654L29.928 3.96437Z" fill="#F6EFE6"/>
<path d="M39.0542 0.469013C39.0464 0.439662 39.0448 0.409072 39.0496 0.379105C39.0543 0.349138 39.0653 0.320437 39.0818 0.294726C39.0983 0.269016 39.12 0.246829 39.1456 0.229556C39.1712 0.212282 39.2002 0.20026 39.2307 0.194232L40.0255 0.00534962C40.0863 -0.0075771 40.15 0.00313042 40.2028 0.0352228C40.2556 0.0673152 40.2934 0.11823 40.3081 0.177068L41.9681 7.04643L45.2442 6.29939C45.2738 6.29168 45.3046 6.28982 45.3349 6.29389C45.3653 6.29795 45.3944 6.30788 45.4207 6.32308C45.4471 6.33828 45.47 6.35846 45.4882 6.38241C45.5064 6.40636 45.5195 6.4336 45.5267 6.46254L45.6857 7.10654C45.6935 7.13589 45.6951 7.16648 45.6903 7.19645C45.6856 7.22642 45.6746 7.25512 45.6581 7.28083C45.6416 7.30654 45.6198 7.32873 45.5942 7.346C45.5686 7.36327 45.5396 7.3753 45.509 7.38132L41.2087 8.37738C41.1481 8.38816 41.0855 8.3765 41.0332 8.34473C40.981 8.31296 40.9428 8.26337 40.9262 8.20564L39.0542 0.469013Z" fill="#F6EFE6"/>
<path d="M70.0615 0.98884C70.0808 0.932613 70.1211 0.886456 70.1735 0.860468C70.226 0.834479 70.2863 0.830772 70.3414 0.850151L72.8854 1.82962C73.9177 2.22346 74.7557 3.01869 75.2164 4.04177C75.6771 5.06485 75.7233 6.23271 75.3447 7.2904C74.9544 8.34928 74.1693 9.20674 73.1614 9.67472C72.1535 10.1427 71.0052 10.183 69.9683 9.78672L67.4243 8.81592C67.3717 8.79121 67.3303 8.74709 67.3083 8.69242C67.2863 8.63775 67.2852 8.57659 67.3055 8.52122L70.0615 0.98884ZM70.2651 8.65991C70.6357 8.81456 71.0335 8.88935 71.4336 8.87962C71.8338 8.86989 72.2278 8.77584 72.5907 8.60335C72.9537 8.43087 73.278 8.18365 73.5432 7.87719C73.8084 7.57073 74.0088 7.21162 74.132 6.82232C74.2881 6.44985 74.3679 6.04862 74.3663 5.6434C74.3648 5.23819 74.282 4.83758 74.1231 4.46636C73.9641 4.09513 73.7324 3.76116 73.4422 3.48506C73.1521 3.20896 72.8096 2.9966 72.436 2.8611L70.9265 2.28902L68.8065 8.08783L70.2651 8.65991Z" fill="#F6EFE6"/>
<path d="M85.4585 8.31533C85.906 8.62961 86.2873 9.03027 86.5805 9.49418C86.8736 9.95808 87.0727 10.476 87.1663 11.0181C87.2599 11.5601 87.2462 12.1155 87.1258 12.6521C87.0055 13.1888 86.7809 13.696 86.4651 14.1445C86.1531 14.5955 85.7556 14.9796 85.2956 15.2747C84.8356 15.5697 84.3223 15.7699 83.7852 15.8635C83.2482 15.9572 82.6981 15.9426 82.1666 15.8205C81.6352 15.6984 81.133 15.4712 80.6891 15.1522C80.2416 14.8379 79.8602 14.4372 79.5671 13.9733C79.2739 13.5094 79.0748 12.9915 78.9812 12.4494C78.8876 11.9074 78.9014 11.352 79.0218 10.8154C79.1421 10.2787 79.3666 9.77147 79.6824 9.32294C79.9945 8.87197 80.3919 8.48789 80.8519 8.19284C81.3118 7.89779 81.8252 7.69762 82.3622 7.60393C82.8993 7.51024 83.4495 7.52488 83.9809 7.64698C84.5124 7.76909 85.0145 7.99624 85.4585 8.31533ZM81.3327 14.2611C81.9919 14.7167 82.8016 14.8934 83.5884 14.7533C84.3751 14.6131 85.0762 14.1674 85.541 13.5116C86.0001 12.8482 86.1838 12.0298 86.0528 11.2315C85.9217 10.4331 85.4863 9.71819 84.8396 9.23966C84.1743 8.79247 83.3629 8.62331 82.5764 8.76776C81.7899 8.91222 81.0897 9.35904 80.6231 10.0141C80.1636 10.6716 79.9779 11.4847 80.106 12.2788C80.234 13.0729 80.6656 13.7846 81.3079 14.2611H81.3327Z" fill="#F6EFE6"/>
<path d="M92.7764 15.1889C92.7934 15.1577 92.8183 15.1317 92.8486 15.1136C92.8788 15.0955 92.9132 15.0859 92.9484 15.0859C92.9835 15.0859 93.018 15.0955 93.0482 15.1136C93.0785 15.1317 93.1033 15.1577 93.1203 15.1889L93.6036 15.7873C93.6293 15.8268 93.643 15.873 93.643 15.9203C93.643 15.9676 93.6293 16.0139 93.6036 16.0533L90.4095 20.5336V20.5751L95.7902 18.5636C95.8302 18.5518 95.8728 18.5526 95.9123 18.5659C95.9518 18.5793 95.9864 18.6046 96.0113 18.6384L96.1424 18.7963C96.1653 18.8307 96.1775 18.8712 96.1775 18.9127C96.1775 18.9542 96.1653 18.9947 96.1424 19.0291L93.1449 24.0164L98.0588 21.7056C98.1022 21.6902 98.1491 21.6875 98.194 21.6978C98.2388 21.7081 98.28 21.7309 98.3127 21.7638L98.7959 22.3706C98.8221 22.3947 98.8415 22.4256 98.8519 22.4599C98.8623 22.4943 98.8633 22.5308 98.8549 22.5657C98.8465 22.6006 98.829 22.6326 98.8042 22.6582C98.7794 22.6839 98.7483 22.7022 98.714 22.7114L91.3432 25.9615C91.3005 25.9816 91.2524 25.9868 91.2064 25.9763C91.1605 25.9658 91.1193 25.9401 91.0892 25.9033L90.9746 25.762C90.9529 25.7256 90.9415 25.6839 90.9415 25.6414C90.9415 25.5989 90.9529 25.5573 90.9746 25.5209L94.1113 20.2676V20.2177L88.4357 22.3207C88.3965 22.3323 88.3548 22.3323 88.3156 22.3205C88.2764 22.3087 88.2413 22.2857 88.2146 22.2542L88.1 22.1046C88.0743 22.0651 88.0605 22.0189 88.0605 21.9716C88.0605 21.9243 88.0743 21.8781 88.1 21.8386L92.7764 15.1889Z" fill="#F6EFE6"/>
<path d="M102.014 28.5119C102.039 28.5014 102.066 28.4961 102.094 28.4961C102.121 28.4961 102.148 28.5016 102.174 28.5122C102.199 28.5228 102.222 28.5383 102.241 28.5577C102.26 28.5772 102.275 28.6003 102.285 28.6255V28.7067C102.322 28.7637 102.341 28.8298 102.341 28.8973C102.341 28.9648 102.322 29.0309 102.285 29.088L99.1322 35.716L104.072 33.5256C104.097 33.5134 104.126 33.5065 104.154 33.5052C104.183 33.5039 104.211 33.5084 104.238 33.5182C104.265 33.528 104.29 33.5431 104.311 33.5625C104.331 33.5818 104.348 33.6052 104.36 33.631L104.656 34.3044C104.679 34.3562 104.68 34.4146 104.66 34.4675C104.64 34.5204 104.601 34.5637 104.549 34.5883L97.461 37.7036C97.4083 37.7211 97.351 37.7193 97.2995 37.6984C97.2481 37.6775 97.2061 37.639 97.1812 37.59L97.14 37.4926C97.1048 37.4381 97.0862 37.3748 97.0862 37.3101C97.0862 37.2455 97.1048 37.1822 97.14 37.1276L100.433 30.4184L95.3042 32.6737C95.2783 32.6859 95.2502 32.6928 95.2216 32.6941C95.1929 32.6954 95.1643 32.6909 95.1375 32.6811C95.1106 32.6713 95.086 32.6562 95.0651 32.6368C95.0443 32.6175 95.0276 32.5941 95.0161 32.5683L94.7197 31.9111C94.6996 31.8582 94.7002 31.7997 94.7215 31.7472C94.7428 31.6947 94.7833 31.6519 94.8349 31.6272L102.014 28.5119Z" fill="#F6EFE6"/>
<path d="M101.534 59.5786L101.944 59.9585C101.974 59.9825 101.997 60.0128 102.013 60.0471C102.029 60.0813 102.038 60.1188 102.038 60.1567C102.038 60.1947 102.029 60.2321 102.013 60.2664C101.997 60.3007 101.974 60.3309 101.944 60.3549C101.657 60.5499 101.412 60.8009 101.223 61.0932C101.034 61.3854 100.906 61.7129 100.845 62.0562C100.798 62.2069 100.782 62.3657 100.798 62.5229C100.814 62.6801 100.862 62.8322 100.939 62.9699C101.016 63.1077 101.12 63.2281 101.245 63.3238C101.37 63.4195 101.513 63.4884 101.665 63.5262C102.346 63.6418 102.88 63.1215 103.536 62.0727C104.192 61.0239 104.988 60.1815 106.301 60.421C107.178 60.5697 108.269 61.4698 107.941 63.2867C107.791 64.0396 107.43 64.7334 106.899 65.2853C106.875 65.3134 106.845 65.3359 106.811 65.3513C106.777 65.3667 106.74 65.3747 106.703 65.3747C106.665 65.3747 106.629 65.3667 106.595 65.3513C106.561 65.3359 106.53 65.3134 106.506 65.2853L106.128 64.9219C106.095 64.9001 106.068 64.8713 106.047 64.8377C106.026 64.804 106.013 64.7662 106.009 64.7269C106.004 64.6876 106.008 64.6478 106.02 64.6101C106.032 64.5725 106.052 64.538 106.079 64.509C106.494 64.1241 106.781 63.6192 106.899 63.0637C107.064 62.0975 106.522 61.668 106.079 61.5937C105.439 61.4781 104.955 61.9158 104.438 62.7994C103.675 64.03 102.855 65.054 101.477 64.8145C101.172 64.7388 100.886 64.6023 100.635 64.4133C100.384 64.2242 100.173 63.9864 100.014 63.7138C99.8559 63.4413 99.7535 63.1395 99.713 62.8265C99.6725 62.5134 99.6948 62.1953 99.7785 61.891C99.9313 60.9888 100.4 60.1715 101.099 59.5869C101.272 59.5291 101.362 59.4465 101.534 59.5786Z" fill="#1E2F22"/>
<path d="M104.347 75.6218C103.969 76.6369 103.233 77.4589 102.293 77.9164C102.267 77.9323 102.237 77.942 102.207 77.9449C102.177 77.9477 102.146 77.9437 102.117 77.933C102.088 77.9224 102.062 77.9053 102.04 77.883C102.018 77.8607 102.001 77.8337 101.99 77.8038L101.702 77.1024C101.636 76.9812 101.702 76.8773 101.817 76.8167C102.473 76.4689 102.994 75.8899 103.287 75.1801C103.432 74.8029 103.505 74.3991 103.5 73.9921C103.496 73.5851 103.415 73.1831 103.263 72.8093C103.11 72.4355 102.888 72.0975 102.61 71.8148C102.332 71.532 102.004 71.3103 101.644 71.1624C101.289 71.0026 100.906 70.9184 100.519 70.9147C100.133 70.911 99.7488 70.9877 99.3902 71.1405C99.0315 71.2934 98.705 71.5192 98.4293 71.8053C98.1536 72.0914 97.9342 72.432 97.7835 72.8076C97.5157 73.5249 97.4954 74.3187 97.7261 75.0503C97.7444 75.0989 97.7453 75.153 97.7287 75.2023C97.7121 75.2517 97.6791 75.293 97.6357 75.3187L96.954 75.6304C96.9271 75.6429 96.8981 75.6495 96.8687 75.6497C96.8394 75.6499 96.8103 75.6437 96.7833 75.6315C96.7563 75.6193 96.732 75.6014 96.7119 75.5788C96.6918 75.5563 96.6763 75.5296 96.6664 75.5005C96.2675 74.48 96.2675 73.3346 96.6664 72.314C96.8659 71.7773 97.1652 71.288 97.5465 70.8749C97.9278 70.4617 98.3836 70.133 98.8871 69.908C99.3906 69.683 99.9315 69.5662 100.478 69.5645C101.025 69.5628 101.567 69.6762 102.072 69.8981C102.582 70.11 103.048 70.4276 103.44 70.8321C103.832 71.2367 104.144 71.72 104.356 72.2536C104.568 72.7871 104.676 73.3601 104.675 73.9386C104.673 74.5171 104.562 75.0894 104.347 75.6218Z" fill="#1E2F22"/>
<path d="M99.6008 84.0733C99.6479 84.1077 99.6795 84.1585 99.6889 84.2151C99.6983 84.2717 99.6849 84.3296 99.6513 84.3767L97.7755 86.9264C97.5867 87.1973 97.3444 87.4288 97.0627 87.6072C96.781 87.7856 96.4656 87.9074 96.1349 87.9654C95.8043 88.0234 95.4651 88.0166 95.1372 87.9451C94.8094 87.8737 94.4994 87.7392 94.2256 87.5495C93.8052 87.2361 93.4918 86.806 93.3267 86.3159C93.1615 85.8257 93.1522 85.2984 93.3002 84.803L89.9353 84.4013C89.8946 84.3988 89.8554 84.3856 89.8217 84.3631C89.788 84.3407 89.7611 84.3098 89.7438 84.2737C89.7266 84.2376 89.7197 84.1977 89.7238 84.1581C89.7279 84.1185 89.7429 84.0807 89.7671 84.0487L90.2887 83.3437C90.3147 83.2986 90.355 83.263 90.4036 83.2423C90.4522 83.2216 90.5063 83.2169 90.5578 83.2289L93.9227 83.7454L94.9658 82.327L92.5263 80.63C92.4779 80.5968 92.4446 80.5466 92.4336 80.4899C92.4226 80.4333 92.4347 80.3747 92.4674 80.3266L92.9217 79.7117C92.9569 79.6658 93.009 79.6351 93.0671 79.6259C93.1251 79.6167 93.1846 79.6298 93.2329 79.6625L99.6008 84.0733ZM94.5536 84.5898C94.3364 84.8976 94.2518 85.2761 94.3179 85.644C94.384 86.0119 94.5955 86.3399 94.9069 86.5575C95.2184 86.7618 95.5996 86.8393 95.969 86.7735C96.3384 86.7076 96.6666 86.5036 96.8837 86.2049L98.112 84.5652L95.7818 82.9255L94.5536 84.5898Z" fill="#1E2F22"/>
<path d="M89.0837 96.1958C88.6727 96.5596 88.1939 96.8367 87.6753 97.011C87.1567 97.1853 86.6088 97.2533 86.0639 97.2108C85.519 97.1684 84.9879 97.0164 84.502 96.7639C84.016 96.5114 83.585 96.1634 83.2341 95.7403C82.88 95.3234 82.6116 94.8396 82.4444 94.317C82.2773 93.7943 82.2149 93.2434 82.2607 92.6961C82.3065 92.1489 82.4597 91.6164 82.7113 91.1295C82.963 90.6426 83.3079 90.2111 83.7263 89.86C84.1362 89.4997 84.613 89.2251 85.1289 89.0524C85.6448 88.8796 86.1895 88.8121 86.7315 88.8537C87.2735 88.8953 87.8018 89.0453 88.2859 89.2948C88.77 89.5443 89.2001 89.8885 89.5513 90.3073C89.9081 90.7228 90.1794 91.2059 90.3493 91.7284C90.5191 92.251 90.5842 92.8024 90.5406 93.3505C90.4971 93.8987 90.3458 94.4326 90.0957 94.9211C89.8455 95.4097 89.5015 95.843 89.0837 96.1958ZM84.4483 90.7131C83.848 91.2384 83.4763 91.9809 83.4134 92.7804C83.3504 93.5798 83.6014 94.3723 84.112 94.9867C84.6329 95.5962 85.37 95.975 86.1648 96.0416C86.9595 96.1082 87.7483 95.8573 88.3617 95.3428C88.9571 94.8114 89.3231 94.066 89.3813 93.2659C89.4396 92.4658 89.1855 91.6745 88.6735 91.061C88.1557 90.4543 87.4222 90.0776 86.6315 90.0126C85.8409 89.9475 85.0566 90.1991 84.4483 90.7131Z" fill="#1E2F22"/>
<path d="M80.5646 102.424C80.5886 102.476 80.5928 102.535 80.5764 102.589C80.5599 102.644 80.524 102.691 80.4756 102.72L79.8036 103.065C79.7529 103.092 79.6941 103.097 79.6397 103.08C79.5853 103.063 79.5395 103.026 79.5121 102.975L76.4515 96.9699L73.7148 98.4177C73.6642 98.4441 73.6054 98.4495 73.5509 98.4326C73.4965 98.4157 73.4508 98.3779 73.4233 98.3272L73.1319 97.7678C73.1065 97.7154 73.1024 97.6549 73.1206 97.5995C73.1388 97.544 73.1777 97.4981 73.229 97.4717L76.8239 95.5714C76.8745 95.545 76.9334 95.5397 76.9878 95.5566C77.0422 95.5735 77.088 95.6113 77.1154 95.6619L80.5646 102.424Z" fill="#1E2F22"/>
<path d="M70.6046 106.76C70.6135 106.789 70.6167 106.82 70.6139 106.85C70.6111 106.88 70.6023 106.91 70.5883 106.937C70.5742 106.963 70.5551 106.987 70.5321 107.006C70.509 107.024 70.4825 107.038 70.4541 107.046L69.7103 107.271C69.6538 107.287 69.5934 107.28 69.5419 107.251C69.4905 107.222 69.4519 107.173 69.4345 107.115L67.4871 100.284L64.4367 101.219C64.4087 101.228 64.3792 101.231 64.3499 101.228C64.3207 101.226 64.2924 101.217 64.2666 101.202C64.2408 101.187 64.2181 101.168 64.2 101.144C64.1818 101.12 64.1684 101.092 64.1608 101.063L63.977 100.422C63.9613 100.364 63.9683 100.301 63.9963 100.248C64.0244 100.194 64.0714 100.155 64.1274 100.136L68.139 98.9069C68.1955 98.8907 68.256 98.8979 68.3075 98.927C68.359 98.9561 68.3975 99.0048 68.4149 99.0628L70.6046 106.76Z" fill="#1E2F22"/>
<path d="M40.8119 107.955C40.7939 108.011 40.7555 108.059 40.7045 108.088C40.6534 108.117 40.5933 108.125 40.5363 108.111L37.8759 107.241C36.8055 106.908 35.9096 106.159 35.385 105.158C34.8604 104.157 34.7499 102.987 35.0778 101.904C35.4145 100.82 36.163 99.9151 37.1589 99.3879C38.1547 98.8608 39.3167 98.7546 40.3899 99.0927L43.0504 99.9197C43.1062 99.9394 43.152 99.9808 43.1778 100.035C43.2037 100.088 43.2073 100.15 43.188 100.207L40.8119 107.955ZM40.1747 100.268C39.7896 100.135 39.3815 100.084 38.976 100.118C38.5705 100.152 38.1763 100.27 37.8181 100.466C37.46 100.661 37.1457 100.929 36.8949 101.253C36.644 101.577 36.4622 101.95 36.3606 102.348C36.2241 102.734 36.1677 103.143 36.1951 103.551C36.2225 103.959 36.333 104.358 36.5198 104.72C36.7065 105.083 36.9655 105.403 37.2804 105.66C37.5952 105.917 37.9591 106.106 38.3494 106.214L39.9078 106.701L41.7331 100.755L40.1747 100.268Z" fill="#1E2F22"/>
<path d="M24.3916 101.596C23.9249 101.311 23.5199 100.934 23.2005 100.488C22.8811 100.041 22.6537 99.535 22.5321 98.9984C22.4105 98.4619 22.3971 97.9061 22.4925 97.3642C22.588 96.8223 22.7904 96.3053 23.0878 95.8438C23.3714 95.3738 23.7457 94.9661 24.1886 94.6447C24.6314 94.3234 25.1338 94.095 25.6658 93.9732C26.1978 93.8513 26.7486 93.8384 27.2857 93.9353C27.8227 94.0321 28.335 94.2368 28.7921 94.5371C29.2528 94.8218 29.6526 95.1961 29.9685 95.6381C30.2843 96.0801 30.5099 96.581 30.632 97.1118C30.7541 97.6425 30.7702 98.1925 30.6796 98.7296C30.589 99.2667 30.3934 99.7802 30.1041 100.24C29.8245 100.716 29.4528 101.129 29.0112 101.456C28.5695 101.783 28.0671 102.017 27.5338 102.143C27.0005 102.27 26.4473 102.287 25.9074 102.193C25.3676 102.099 24.852 101.896 24.3916 101.596ZM28.1647 95.515C27.4947 95.1068 26.6929 94.9797 25.9311 95.161C25.1693 95.3423 24.5083 95.8176 24.0901 96.4848C23.6723 97.1626 23.5346 97.9787 23.7068 98.7577C23.879 99.5367 24.3472 100.217 25.0109 100.651C25.6915 101.057 26.5019 101.179 27.2702 100.991C28.0384 100.804 28.7042 100.323 29.1263 99.6487C29.5387 98.971 29.6691 98.1565 29.489 97.3823C29.3089 96.6082 28.8329 95.9371 28.1647 95.515Z" fill="#1E2F22"/>
<path d="M16.4734 94.6059C16.4563 94.6369 16.4314 94.6627 16.4011 94.6807C16.3708 94.6987 16.3362 94.7082 16.301 94.7082C16.2658 94.7082 16.2313 94.6987 16.201 94.6807C16.1707 94.6627 16.1457 94.6369 16.1287 94.6059L15.6033 94.0356C15.5775 93.9964 15.5638 93.9504 15.5638 93.9034C15.5638 93.8564 15.5775 93.8104 15.6033 93.7712L18.5585 89.1515V89.1102L13.2802 91.4076C13.2404 91.4209 13.1976 91.4225 13.1569 91.4122C13.1163 91.402 13.0793 91.3803 13.0503 91.3498L12.9107 91.1928C12.8878 91.1586 12.8756 91.1183 12.8756 91.0771C12.8756 91.0358 12.8878 90.9955 12.9107 90.9614L15.6444 85.8624L10.8175 88.4242C10.7761 88.4449 10.7293 88.4521 10.6837 88.4447C10.638 88.4373 10.5959 88.4157 10.563 88.3829L10.0376 87.8044C10.0111 87.7816 9.99118 87.7521 9.97971 87.719C9.96824 87.6858 9.96572 87.6502 9.9724 87.6157C9.97908 87.5813 9.99468 87.5492 10.0177 87.5229C10.0407 87.4965 10.0703 87.4767 10.1034 87.4656L17.2861 83.8376C17.3272 83.8156 17.3743 83.8078 17.4202 83.8152C17.4662 83.8227 17.5084 83.8451 17.5406 83.8789L17.6637 84.0194C17.6847 84.0543 17.6958 84.0943 17.6958 84.1351C17.6958 84.1759 17.6847 84.2159 17.6637 84.2508L14.807 89.6391L20.3726 87.2342C20.4132 87.2229 20.4562 87.2232 20.4968 87.2348C20.5373 87.2465 20.5739 87.2691 20.6025 87.3003L20.7256 87.4325C20.7536 87.4709 20.7687 87.5172 20.7687 87.5648C20.7687 87.6124 20.7536 87.6587 20.7256 87.697L16.4734 94.6059Z" fill="#1E2F22"/>
<path d="M6.3219 82.9521C6.29667 82.9653 6.26928 82.9731 6.24117 82.975C6.21305 82.977 6.18478 82.973 6.15813 82.9634C6.13148 82.9539 6.10696 82.9388 6.08589 82.9191C6.06483 82.8995 6.04766 82.8756 6.03543 82.849V82.763C5.99998 82.7022 5.98128 82.6323 5.98128 82.561C5.98128 82.4897 5.99998 82.4198 6.03543 82.359L8.79389 75.1635L3.97272 77.7425C3.92154 77.7702 3.86218 77.7758 3.80715 77.7581C3.75213 77.7404 3.70579 77.7009 3.67806 77.648L3.34243 76.9602C3.31882 76.9051 3.31584 76.8427 3.33404 76.7854C3.35223 76.728 3.39037 76.68 3.44075 76.6508L10.3 72.937C10.3522 72.9133 10.4113 72.9117 10.4646 72.9325C10.518 72.9533 10.5617 72.995 10.5865 73.0488V73.1433C10.6224 73.2008 10.6416 73.268 10.6416 73.3367C10.6416 73.4055 10.6224 73.4727 10.5865 73.5302L7.68069 80.8202L12.6492 78.138C12.7004 78.1104 12.7598 78.1048 12.8148 78.1225C12.8698 78.1401 12.9162 78.1796 12.9439 78.2326L13.2712 78.9117C13.2948 78.9668 13.2979 79.0293 13.2797 79.0866C13.2615 79.1439 13.2234 79.192 13.173 79.2212L6.3219 82.9521Z" fill="#1E2F22"/>
<path opacity="0.6" d="M5.82453 62.1699C5.79037 61.9478 5.84383 61.721 5.97333 61.5384C6.10284 61.3558 6.29806 61.232 6.51693 61.1936C6.7347 61.1593 6.95703 61.2138 7.13515 61.3451C7.31327 61.4764 7.43267 61.6739 7.4671 61.8941C7.50104 62.1125 7.44797 62.3356 7.31956 62.5144C7.19114 62.6932 6.99782 62.8132 6.78207 62.848C6.67517 62.8673 6.56561 62.8651 6.45957 62.8414C6.35353 62.8177 6.25308 62.7731 6.16412 62.7101C6.07516 62.6471 5.99942 62.5669 5.94114 62.4742C5.88287 62.3815 5.8432 62.2781 5.82453 62.1699Z" fill="#1E2F22"/>
</svg>
