<svg width="48" height="48" viewBox="0 0 48 48" fill="none" xmlns="http://www.w3.org/2000/svg">
<g clip-path="url(#clip0_386_666)">
<path d="M21.375 18.0008H0.75C0.3 18.0008 0 17.6258 0 17.2508V12.4508C0 10.3508 1.725 8.55078 3.9 8.55078H23.925C24.375 8.55078 24.675 8.92578 24.675 9.30078C24.675 9.67578 24.3 10.0508 23.925 10.0508H3.825C2.55 10.0508 1.5 11.1008 1.5 12.3758V16.4258H21.375C21.825 16.4258 22.125 16.8008 22.125 17.1758C22.125 17.5508 21.825 18.0008 21.375 18.0008Z" fill="#1E1E1E"/>
<path d="M3.825 45.7508C2.775 45.7508 1.8 45.3758 1.125 44.6258C0.375 43.8758 0 42.9008 0 41.8508V17.1758C0 16.7258 0.375 16.4258 0.75 16.4258H21.375C21.825 16.4258 22.125 16.8008 22.125 17.1758C22.125 17.5508 21.75 17.9258 21.375 17.9258H1.5V41.7758C1.5 42.3758 1.725 42.9758 2.175 43.4258C2.625 43.8758 3.225 44.1008 3.825 44.1008H39C40.275 44.1008 41.325 43.0508 41.325 41.7758V26.7758C41.325 26.3258 41.7 26.0258 42.075 26.0258C42.45 26.0258 42.825 26.4008 42.825 26.7758V41.7758C42.825 43.8758 41.1 45.6758 38.925 45.6758H3.825V45.7508Z" fill="#1E1E1E"/>
<path d="M6.75156 14.0254H5.10156C4.65156 14.0254 4.35156 13.6504 4.35156 13.2754C4.35156 12.9004 4.72656 12.5254 5.10156 12.5254H6.75156C7.20156 12.5254 7.50156 12.9004 7.50156 13.2754C7.50156 13.6504 7.20156 14.0254 6.75156 14.0254Z" fill="#1E1E1E"/>
<path d="M10.4234 14.0254H8.77344C8.32344 14.0254 8.02344 13.6504 8.02344 13.2754C8.02344 12.9004 8.39844 12.5254 8.77344 12.5254H10.4234C10.8734 12.5254 11.1734 12.9004 11.1734 13.2754C11.1734 13.6504 10.8734 14.0254 10.4234 14.0254Z" fill="#1E1E1E"/>
<path d="M14.1031 14.0254H12.4531C12.0031 14.0254 11.7031 13.6504 11.7031 13.2754C11.7031 12.9004 12.0781 12.5254 12.4531 12.5254H14.1031C14.5531 12.5254 14.8531 12.9004 14.8531 13.2754C14.8531 13.6504 14.5531 14.0254 14.1031 14.0254Z" fill="#1E1E1E"/>
<path d="M18.4469 31.5754H7.49687C6.22187 31.5754 5.17188 30.5254 5.17188 29.2504V22.7254C5.17188 21.4504 6.22187 20.4004 7.49687 20.4004H18.4469C19.7219 20.4004 20.7719 21.4504 20.7719 22.7254V29.2504C20.7719 30.5254 19.7219 31.5754 18.4469 31.5754ZM18.4469 21.9004H7.49687C7.04687 21.9004 6.74687 22.2754 6.74687 22.6504V29.2504C6.74687 29.7004 7.12187 30.0004 7.49687 30.0004H18.4469C18.8969 30.0004 19.1969 29.6254 19.1969 29.2504V22.7254C19.1969 22.2754 18.8219 21.9004 18.4469 21.9004Z" fill="#1E1E1E"/>
<path d="M26.325 26.9258H25.5C25.05 26.9258 24.75 26.5508 24.75 26.1758C24.75 25.8008 25.125 25.4258 25.5 25.4258H26.325C26.775 25.4258 27.075 25.8008 27.075 26.1758C27.075 26.5508 26.7 26.9258 26.325 26.9258Z" fill="#1E1E1E"/>
<path d="M37.35 31.875H25.5C25.05 31.875 24.75 31.5 24.75 31.125C24.75 30.75 25.125 30.375 25.5 30.375H37.35C37.8 30.375 38.1 30.75 38.1 31.125C38.1 31.5 37.725 31.875 37.35 31.875Z" fill="#1E1E1E"/>
<path d="M37.3469 36.8242H5.54688C5.09687 36.8242 4.79688 36.4492 4.79688 36.0742C4.79688 35.6992 5.17188 35.3242 5.54688 35.3242H37.3469C37.7969 35.3242 38.0969 35.6992 38.0969 36.0742C38.0969 36.4492 37.7219 36.8242 37.3469 36.8242Z" fill="#1E1E1E"/>
<path d="M37.3469 41.7754H5.54688C5.09687 41.7754 4.79688 41.4004 4.79688 41.0254C4.79688 40.6504 5.17188 40.2754 5.54688 40.2754H37.3469C37.7969 40.2754 38.0969 40.6504 38.0969 41.0254C38.0969 41.4004 37.7219 41.7754 37.3469 41.7754Z" fill="#1E1E1E"/>
<path d="M36.3 27.225H35.1C34.125 27.225 33.3 26.475 33.15 25.575L32.85 23.7C32.85 23.55 32.7 23.475 32.625 23.4C32.325 23.325 32.1 23.175 31.8 23.1C31.65 23.025 31.575 23.025 31.425 23.1L29.925 24.225C29.175 24.75 28.05 24.675 27.375 24L26.475 23.1C25.8 22.425 25.725 21.375 26.25 20.55L27.375 19.05C27.45 18.9 27.45 18.75 27.375 18.675C27.225 18.45 27.15 18.15 27 17.85C26.925 17.7 26.85 17.625 26.7 17.625L24.9 17.325C23.925 17.175 23.25 16.35 23.25 15.375V14.1C23.25 13.125 23.925 12.3 24.9 12.15L26.7 11.85C26.85 11.85 26.925 11.7 27 11.625C27.075 11.325 27.225 11.1 27.375 10.8C27.45 10.65 27.45 10.5 27.375 10.425L26.25 8.925C25.65 8.175 25.8 7.125 26.4 6.375L27.3 5.475C27.975 4.8 29.1 4.725 29.85 5.325L31.275 6.45C31.425 6.6 31.575 6.525 31.65 6.45C31.95 6.3 32.175 6.225 32.475 6.075C32.625 6 32.7 5.925 32.775 5.775L33.075 3.9C33.3 3 34.125 2.25 35.1 2.25H36.3C37.275 2.25 38.1 3 38.25 3.9L38.55 5.775C38.55 5.925 38.7 6 38.775 6.075C39.075 6.15 39.3 6.3 39.6 6.375C39.75 6.45 39.825 6.45 39.975 6.375L41.475 5.25C42.225 4.65 43.35 4.8 44.025 5.475L44.925 6.375C45.6 7.05 45.675 8.1 45.15 8.925L44.025 10.425C43.95 10.575 43.95 10.725 44.025 10.8C44.175 11.025 44.25 11.325 44.4 11.625C44.475 11.775 44.55 11.85 44.7 11.85L46.5 12.15C47.475 12.3 48.15 13.125 48.15 14.1V15.375C48.15 16.35 47.475 17.175 46.5 17.325L44.7 17.625C44.55 17.625 44.475 17.775 44.4 17.85C44.325 18.15 44.175 18.375 44.1 18.675C44.025 18.825 44.025 18.975 44.1 19.125L45.225 20.625C45.75 21.375 45.675 22.425 45.075 23.175L43.95 24C43.275 24.675 42.15 24.75 41.4 24.15L39.975 23.025C39.825 22.875 39.675 22.95 39.6 23.025C39.3 23.175 39.075 23.25 38.775 23.4C38.625 23.475 38.55 23.55 38.55 23.7L38.25 25.575C38.1 26.475 37.275 27.225 36.3 27.225ZM31.575 21.45C31.875 21.45 32.175 21.525 32.4 21.675C32.625 21.75 32.85 21.9 33.075 21.975C33.75 22.2 34.2 22.8 34.35 23.475L34.65 25.35C34.65 25.575 34.875 25.725 35.025 25.725H36.225C36.45 25.725 36.6 25.575 36.6 25.425L36.9 23.55C36.975 22.875 37.5 22.275 38.175 22.05C38.4 21.975 38.625 21.9 38.85 21.75C39.45 21.45 40.275 21.525 40.875 21.975L42.375 23.1C42.6 23.25 42.75 23.175 42.9 23.025L43.8 22.125C43.95 21.975 43.95 21.75 43.8 21.6L42.675 20.1C42.225 19.5 42.15 18.75 42.45 18.15C42.525 17.925 42.675 17.7 42.75 17.475C42.975 16.8 43.575 16.275 44.25 16.2L46.05 15.9C46.275 15.9 46.35 15.675 46.35 15.525V14.25C46.35 14.025 46.2 13.875 46.05 13.875L44.25 13.575C43.575 13.5 42.975 12.975 42.75 12.3C42.675 12.075 42.6 11.85 42.45 11.625C42.15 10.95 42.225 10.2 42.6 9.6L43.725 8.1C43.875 7.95 43.8 7.725 43.725 7.575L42.825 6.675C42.75 6.6 42.6 6.525 42.525 6.525C42.45 6.525 42.375 6.525 42.3 6.6L40.875 7.725C40.35 8.175 39.525 8.25 38.85 7.95C38.625 7.875 38.4 7.725 38.175 7.65C37.5 7.425 37.05 6.825 36.9 6.15L36.6 4.275C36.6 4.05 36.375 3.9 36.225 3.9H35.025C34.8 3.9 34.65 4.05 34.65 4.2L34.425 6C34.35 6.675 33.825 7.275 33.15 7.5C32.925 7.575 32.7 7.65 32.475 7.8C31.875 8.1 31.05 8.025 30.45 7.575L28.95 6.45C28.725 6.225 28.575 6.375 28.425 6.525L27.525 7.425C27.375 7.575 27.375 7.8 27.525 7.95L28.65 9.45C29.025 10.05 29.1 10.8 28.8 11.4C28.725 11.625 28.575 11.85 28.5 12.075C28.275 12.75 27.675 13.275 27 13.35L25.2 13.65C24.975 13.65 24.9 13.875 24.9 14.025V15.3C24.9 15.525 25.05 15.675 25.2 15.675L27 15.975C27.675 16.05 28.275 16.575 28.5 17.25C28.575 17.475 28.65 17.7 28.8 17.925C29.1 18.6 29.025 19.35 28.575 19.95L27.45 21.45C27.3 21.6 27.375 21.825 27.45 21.975L28.35 22.875C28.5 23.025 28.65 23.1 28.875 22.95L30.375 21.825C30.75 21.6 31.2 21.45 31.575 21.45Z" fill="#1E1E1E"/>
<path d="M35.6969 19.7258C32.9219 19.7258 30.6719 17.4758 30.6719 14.7008C30.6719 11.9258 32.9219 9.67578 35.6969 9.67578C38.4719 9.67578 40.7219 11.9258 40.7219 14.7008C40.7219 17.4758 38.4719 19.7258 35.6969 19.7258ZM35.6969 11.2508C33.7469 11.2508 32.2469 12.8258 32.2469 14.7008C32.2469 16.6508 33.8219 18.1508 35.6969 18.1508C37.5719 18.1508 39.1469 16.5758 39.1469 14.7008C39.1469 12.8258 37.5719 11.2508 35.6969 11.2508Z" fill="#1E1E1E"/>
</g>
<defs>
<clipPath id="clip0_386_666">
<rect width="48" height="48" fill="white"/>
</clipPath>
</defs>
</svg>
