<svg width="66" height="65" viewBox="0 0 66 65" fill="none" xmlns="http://www.w3.org/2000/svg">
<g clip-path="url(#clip0_386_469)">
<path d="M43.3741 49.2232L44.7846 46.5704C45.2503 45.692 45.3486 44.6648 45.0579 43.714C44.7672 42.7633 44.1113 41.9666 43.2341 41.4988L37.6596 38.5348C38.8737 37.73 40.0014 36.8019 41.0247 35.7652L44.6119 35.0894C45.1691 34.9851 45.6808 34.7124 46.0782 34.3081C46.4755 33.9038 46.7392 33.3874 46.8338 32.8285C46.9284 32.2695 46.8492 31.6951 46.607 31.1826C46.3649 30.67 45.9713 30.2441 45.4794 29.9623L49.1118 26.6901C50.0388 25.855 50.7508 24.8087 51.1875 23.64C51.6242 22.4713 51.7727 21.2145 51.6205 19.9762C51.4683 18.7378 51.0199 17.5544 50.3132 16.5262C49.6065 15.498 48.6624 14.6553 47.5608 14.0694L41.9387 11.0801C37.7324 8.84222 32.9815 7.83261 28.2287 8.16659C28.0862 8.176 27.9494 8.22587 27.8343 8.31035C27.7192 8.39483 27.6306 8.51041 27.5789 8.6435C27.5272 8.7766 27.5146 8.92168 27.5426 9.0617C27.5705 9.20171 27.6378 9.33085 27.7366 9.43392L29.0515 10.8126C29.2323 11.0028 29.3723 11.2278 29.463 11.474C29.5536 11.7202 29.5931 11.9824 29.5788 12.2443C29.5645 12.5063 29.4969 12.7626 29.38 12.9975C29.2632 13.2324 29.0996 13.441 28.8992 13.6104C28.5297 13.9226 28.2305 14.3095 28.0213 14.7456C27.812 15.1818 27.6976 15.6573 27.6854 16.1409L27.5789 20.4597C27.0698 20.2389 26.5061 20.1763 25.961 20.2799C25.4159 20.3836 24.9145 20.6488 24.5221 21.041C24.1296 21.4333 23.8641 21.9344 23.7602 22.4795C23.6562 23.0245 23.7185 23.5883 23.939 24.0974L25.3846 27.4492C25.097 28.877 24.9577 30.3307 24.969 31.7871L19.3945 28.8231C18.5161 28.3574 17.4889 28.2591 16.5381 28.5498C15.5874 28.8404 14.7907 29.4964 14.3229 30.3736L12.9124 33.0264C10.997 32.8478 9.07147 33.239 7.37762 34.151C5.68376 35.0629 4.29705 36.4549 3.39157 38.1522L1.63105 41.4632C1.53767 41.6388 1.51788 41.8444 1.57603 42.0346C1.63419 42.2248 1.76553 42.3841 1.94116 42.4775L41.6738 63.6037C41.8494 63.6971 42.055 63.7169 42.2452 63.6588C42.4354 63.6006 42.5947 63.4693 42.6881 63.2936L44.4486 59.9826C45.3494 58.2828 45.728 56.3548 45.5368 54.4406C45.3456 52.5263 44.5932 50.7113 43.3741 49.2232ZM41.8935 28.0446L37.9203 25.932C37.7446 25.8386 37.5391 25.8188 37.3489 25.877C37.1586 25.9351 36.9993 26.0665 36.9059 26.2421L36.5538 26.9043L35.2294 26.2001L35.5815 25.5379C35.6749 25.3623 35.6947 25.1567 35.6365 24.9665C35.5784 24.7763 35.447 24.617 35.2714 24.5236L29.3115 21.3546L29.8273 20.3845L35.426 19.8269C36.6314 19.7056 37.8457 19.945 38.9149 20.5149C40.4462 21.3268 42.2077 21.5953 43.9114 21.2765L45.4537 20.9863L45.683 23.2947C45.8167 24.6208 45.5534 25.9566 44.9266 27.1328L43.8801 29.1009L41.8935 28.0446ZM40.5271 29.0169L39.4708 31.0036C39.3774 31.1792 39.2181 31.3105 39.0279 31.3687C38.8376 31.4268 38.6321 31.4071 38.4565 31.3137L37.1321 30.6095C36.9564 30.5161 36.8251 30.3568 36.7669 30.1665C36.7088 29.9763 36.7286 29.7708 36.8219 29.5952L37.8783 27.6085L40.5271 29.0169ZM33.905 25.4959L32.8487 27.4825C32.7553 27.6582 32.596 27.7895 32.4057 27.8477C32.2155 27.9058 32.01 27.886 31.8344 27.7926L30.5099 27.0884C30.3343 26.995 30.203 26.8357 30.1448 26.6455C30.0867 26.4553 30.1065 26.2497 30.1998 26.0741L31.2561 24.0875L33.905 25.4959ZM45.2262 32.9595C45.1367 33.1286 45.0102 33.2754 44.8561 33.3887C44.702 33.5021 44.5242 33.5792 44.3361 33.6143L42.625 33.9361C43.3206 33.05 43.9442 32.1096 44.4898 31.1239L44.699 31.2352C44.8469 31.3138 44.9778 31.4207 45.0843 31.5499C45.1908 31.6791 45.2708 31.8281 45.3197 31.9882C45.3687 32.1483 45.3856 32.3165 45.3696 32.4832C45.3535 32.6498 45.3048 32.8117 45.2262 32.9595ZM29.8667 14.7559C30.2231 14.4546 30.5142 14.0837 30.7222 13.6659C30.9302 13.2481 31.0506 12.7922 31.076 12.3262C31.1015 11.8602 31.0315 11.394 30.8703 10.956C30.7091 10.518 30.4601 10.1176 30.1386 9.77928L29.9712 9.60532C33.8986 9.59867 37.7671 10.5601 41.2345 12.4045L46.8566 15.3939C47.745 15.8664 48.5065 16.5461 49.0765 17.3754C49.6465 18.2047 50.0082 19.1591 50.1311 20.1578C50.2541 21.1566 50.1345 22.1702 49.7826 23.1129C49.4306 24.0556 48.8567 24.8997 48.1094 25.5736L46.6924 26.8503C47.1365 25.6681 47.3024 24.3995 47.1772 23.1429L46.8665 20.0209C46.8562 19.9174 46.8244 19.8172 46.7732 19.7267C46.7221 19.6362 46.6526 19.5573 46.5694 19.495C46.486 19.4331 46.3907 19.389 46.2896 19.3655C46.1884 19.3419 46.0835 19.3395 45.9813 19.3582L43.6339 19.803C42.2649 20.0584 40.8497 19.8425 39.6191 19.1904C38.2884 18.4813 36.7771 18.1833 35.2768 18.3341L29.2789 18.9317C29.2231 18.9378 29.168 18.9501 29.115 18.9686L29.1852 16.1782C29.1919 15.9064 29.2562 15.6392 29.3736 15.394C29.4911 15.1489 29.6591 14.9314 29.8667 14.7559ZM25.3147 23.5021C25.2093 23.2595 25.182 22.99 25.2367 22.7311C25.2913 22.4722 25.4251 22.2367 25.6195 22.0572C25.814 21.8778 26.0594 21.7633 26.3219 21.7296C26.5843 21.6959 26.8508 21.7447 27.0842 21.8692L27.2922 21.9798C26.7798 22.9837 26.3486 24.0269 26.0028 25.0997L25.3147 23.5021ZM28.6179 22.6847L29.9317 23.3833L28.8754 25.3699C28.5953 25.8968 28.5359 26.5134 28.7104 27.0841C28.8848 27.6547 29.2789 28.1327 29.8057 28.4129L31.1302 29.1171C31.657 29.3972 32.2736 29.4566 32.8443 29.2821C33.415 29.1076 33.893 28.7136 34.1731 28.1867L34.5252 27.5245L35.8496 28.2287L35.4975 28.8909C35.2174 29.4178 35.158 30.0344 35.3325 30.6051C35.5069 31.1758 35.901 31.6537 36.4278 31.9339L37.7523 32.6381C38.2792 32.9182 38.8958 32.9776 39.4664 32.8031C40.0371 32.6287 40.5151 32.2347 40.7952 31.7078L41.8515 29.7211L43.1653 30.4197C41.5001 33.4276 39.0743 35.9456 36.1305 37.7218L26.498 32.6001C26.3245 29.1664 27.0555 25.7473 28.6179 22.6847ZM18.6903 30.1475L42.5299 42.8232C43.0567 43.1034 43.4508 43.5814 43.6252 44.152C43.7997 44.7227 43.7403 45.3393 43.4602 45.8662L36.4181 59.1104L8.60526 44.322L15.6473 31.0778C15.9275 30.5509 16.4055 30.1569 16.9761 29.9825C17.5468 29.808 18.1634 29.8674 18.6903 30.1475ZM4.71599 38.8564C5.43124 37.5155 6.50246 36.3979 7.81181 35.6265C9.12116 34.8551 10.6179 34.4597 12.1374 34.484L7.28084 43.6178L3.30758 41.5052L4.71599 38.8564ZM41.7158 61.9272L37.7425 59.8146L42.5991 50.6807C43.4688 51.9269 43.978 53.3889 44.0706 54.9057C44.1633 56.4226 43.8358 57.9356 43.1242 59.2784L41.7158 61.9272Z" fill="#1E1E1E"/>
<path d="M23.5664 49.7295C24.0903 50.0081 24.685 50.125 25.2754 50.0656C25.8657 50.0062 26.4252 49.773 26.883 49.3956C27.3409 49.0182 27.6765 48.5135 27.8475 47.9453C28.0185 47.3771 28.0172 46.771 27.8437 46.2036C27.6702 45.6362 27.3324 45.1329 26.8729 44.7575C26.4134 44.3821 25.853 44.1514 25.2623 44.0945C24.6717 44.0376 24.0775 44.1572 23.5548 44.438C23.0322 44.7189 22.6045 45.1484 22.326 45.6723C21.9524 46.3748 21.8733 47.1969 22.1059 47.9578C22.3385 48.7187 22.8639 49.356 23.5664 49.7295ZM25.679 45.7563C25.941 45.8956 26.1557 46.1094 26.2961 46.3707C26.4366 46.6321 26.4963 46.9292 26.4679 47.2245C26.4395 47.5198 26.3241 47.8 26.1364 48.0298C25.9487 48.2595 25.6971 48.4284 25.4134 48.5152C25.1297 48.6019 24.8266 48.6026 24.5425 48.5171C24.2584 48.4316 24.0061 48.2637 23.8174 48.0348C23.6287 47.8059 23.5121 47.5262 23.4823 47.231C23.4526 46.9358 23.5111 46.6384 23.6504 46.3765C23.8371 46.0252 24.1558 45.7626 24.5362 45.6462C24.9167 45.5299 25.3278 45.5695 25.679 45.7563Z" fill="#1E1E1E"/>
<path d="M22.3952 41.2143L23.8295 40.7758L22.8083 37.4357L26.1484 36.4145L25.7099 34.9803L21.6527 36.2207C21.4625 36.2789 21.3032 36.4102 21.2098 36.5858C21.1165 36.7614 21.0967 36.9669 21.1548 37.1571L22.3952 41.2143Z" fill="#1E1E1E"/>
<path d="M31.2779 45.937L35.3352 44.6966C35.5253 44.6384 35.6846 44.5071 35.778 44.3315C35.8714 44.1559 35.8912 43.9504 35.833 43.7602L34.5926 39.703L33.1584 40.1414L34.1796 43.4816L30.8394 44.5028L31.2779 45.937Z" fill="#1E1E1E"/>
<path d="M31.572 38.1873L24.7812 41.3711L25.418 42.7292L32.2087 39.5455L31.572 38.1873Z" fill="#1E1E1E"/>
</g>
<defs>
<clipPath id="clip0_386_469">
<rect width="48" height="48" fill="white" transform="translate(22.7969 0.0546875) rotate(28)"/>
</clipPath>
</defs>
</svg>
