<svg width="58" height="58" viewBox="0 0 58 58" fill="none" xmlns="http://www.w3.org/2000/svg">
<g clip-path="url(#clip0_386_491)">
<path d="M48.0204 41.7915C49.4208 40.8822 50.3171 39.5504 50.6122 37.9401L53.468 22.3443C53.7342 20.8909 52.5676 19.29 51.0125 18.9595C50.9976 18.9563 50.9825 18.9532 50.9675 18.9503C50.2034 18.8006 47.6313 18.6901 46.6174 23.5504L44.8595 31.9785C44.7886 32.3183 44.6836 32.6331 44.5412 32.9276C44.4646 32.7237 44.3625 32.522 44.2345 32.3248C43.4081 31.052 41.6894 30.6748 40.3217 31.4657C40.2925 31.4826 40.2644 31.5015 40.2378 31.5222C38.5266 32.8484 36.5514 33.9041 34.9642 34.7524C34.411 35.0481 33.8885 35.3273 33.4565 35.5771C31.6914 36.5973 31.0998 38.4107 30.7539 40.0501L29.4525 46.219L28.748 46.0629C28.7427 46.0618 28.7374 46.0606 28.7321 46.0594C28.2571 45.9585 27.7696 46.047 27.3579 46.3094C26.9415 46.5748 26.6536 46.9852 26.5472 47.4653L26.0284 49.807C25.8084 50.8005 26.4376 51.7877 27.4309 52.0078L39.5952 54.7028C39.6005 54.7039 39.6056 54.7051 39.611 54.7063C40.5989 54.9163 41.5771 54.2885 41.796 53.3004L42.3148 50.9587C42.5349 49.9653 41.9058 48.9781 40.9124 48.7579L39.5021 48.4455L39.7787 47.144L48.0204 41.7915ZM40.8501 50.634L40.3313 52.9757C40.291 53.1575 40.1041 53.2775 39.9222 53.2388C39.9213 53.2386 39.9203 53.2384 39.9195 53.2382L27.7552 50.5432C27.5724 50.5027 27.4522 50.314 27.4927 50.1313L28.0115 47.7896C28.038 47.6697 28.1183 47.6032 28.1638 47.5742C28.2089 47.5455 28.3018 47.5014 28.4202 47.5266L28.4232 47.5272L40.5876 50.2222C40.7705 50.2627 40.8907 50.4513 40.8501 50.634ZM30.9169 46.5433L32.2215 40.3596C32.5132 38.9777 32.9554 37.5991 34.2071 36.8756C34.6174 36.6384 35.1057 36.3774 35.6711 36.0752C37.2948 35.2074 39.3122 34.1292 41.1124 32.7418C41.7913 32.3729 42.5861 32.5405 42.9764 33.1416C43.4499 33.8707 43.1241 34.4755 42.7101 34.8842C41.7231 35.627 40.7625 36.2311 39.7556 36.8643C39.3205 37.138 38.8706 37.4209 38.4035 37.7243C38.056 37.9498 37.9574 38.4143 38.1829 38.7617C38.4085 39.109 38.873 39.2078 39.2204 38.9822C39.6784 38.6848 40.1235 38.4048 40.5541 38.134C41.5151 37.5297 42.4351 36.951 43.3874 36.25C43.4506 36.221 43.5107 36.1825 43.5659 36.1347C43.6059 36.0999 43.6451 36.0646 43.6831 36.0289C43.8785 35.8808 44.0755 35.727 44.2748 35.566C45.382 34.6722 46.0535 33.5988 46.3278 32.2844L48.0857 23.8564C48.5804 21.4847 49.5499 20.2008 50.6791 20.422C51.4479 20.574 52.1147 21.407 51.9925 22.0738L49.1366 37.6695C48.9147 38.8809 48.2642 39.8444 47.2035 40.5332L38.701 46.0548C38.5342 46.1631 38.4172 46.3333 38.3759 46.5278L38.0373 48.1206L30.9169 46.5433ZM28.6088 48.8744C28.8371 48.5319 29.2998 48.4393 29.6423 48.6676C29.9848 48.8959 30.0774 49.3585 29.8491 49.7011C29.6209 50.0436 29.1582 50.1362 28.8157 49.9079C28.4731 49.6796 28.3806 49.2169 28.6088 48.8744ZM24.1535 45.6282C23.881 45.2164 23.4646 44.9356 22.9838 44.8376L22.2768 44.6936L23.5969 38.5287C23.9477 36.8904 24.1449 34.9931 22.9473 33.3433C22.6542 32.9394 22.2904 32.4716 21.9053 31.9764C20.8004 30.5559 19.4254 28.7881 18.4016 26.8807C18.3856 26.8509 18.3676 26.8222 18.3478 26.7949C17.4202 25.5161 15.6965 25.1618 14.424 25.9883C14.2268 26.1163 14.0514 26.259 13.8985 26.4143C13.8882 26.0873 13.9203 25.7569 13.9937 25.4177L15.8158 17.0034C16.8664 12.1508 14.4718 11.2056 13.7128 11.0316C12.1475 10.671 10.3992 11.6652 10.0479 13.1151L6.31351 28.5242C5.92807 30.1152 6.2051 31.6964 7.11462 33.0967L12.467 41.3387L12.1904 42.6401L10.7749 42.3519C9.77781 42.1489 8.80156 42.795 8.59856 43.792L8.11997 46.1423C7.91827 47.1341 8.55641 48.1053 9.54449 48.3153C9.54972 48.3164 9.55504 48.3176 9.56029 48.3186L21.7691 50.8042C22.7661 51.0072 23.7424 50.3611 23.9455 49.3641L24.424 47.0138C24.522 46.5321 24.426 46.04 24.1535 45.6282ZM13.9989 41.3466C14.0403 41.152 14.0027 40.9489 13.8944 40.7821L8.37268 32.2796C7.68378 31.2189 7.48152 30.0742 7.77139 28.8773L11.5058 13.4682C11.664 12.8154 12.5928 12.3265 13.3563 12.4888C13.3633 12.4903 13.3705 12.4918 13.3775 12.4934C14.4989 12.7507 14.8625 14.318 14.3498 16.6857L12.5277 25.1001C12.2436 26.4124 12.4205 27.6662 13.0685 28.933C13.1851 29.1608 13.3024 29.3816 13.4206 29.5963C13.4409 29.6444 13.4623 29.6925 13.4848 29.7406C13.5158 29.8069 13.5551 29.8665 13.6011 29.9188C14.1858 30.9464 14.791 31.8493 15.423 32.7922C15.7062 33.2147 15.9991 33.6515 16.2965 34.1096C16.5221 34.457 16.9865 34.5557 17.3339 34.3301C17.6813 34.1045 17.7801 33.64 17.5544 33.2927C17.2511 32.8255 16.9551 32.384 16.6689 31.9571C16.0065 30.969 15.3747 30.0264 14.7751 28.9463C14.5633 28.4046 14.5118 27.7196 15.2409 27.2462C15.8417 26.856 16.636 27.0259 17.1063 27.6391C18.1865 29.6386 19.5909 31.4441 20.7211 32.8973C21.1147 33.4033 21.4547 33.8404 21.7331 34.2242C22.5824 35.3941 22.4258 36.8335 22.13 38.2145L20.8067 44.3942L13.6603 42.9392L13.9989 41.3466ZM22.0683 49.3344L9.85948 46.8488C9.67224 46.8134 9.55272 46.625 9.58997 46.4416L10.0685 44.0913C10.1059 43.9078 10.2924 43.7844 10.4759 43.8218L22.6846 46.3075L22.6877 46.3082C22.8062 46.3333 22.8731 46.4115 22.9026 46.456C22.9323 46.501 22.9786 46.5944 22.9541 46.7147L22.4756 49.0649C22.4383 49.2483 22.2518 49.3718 22.0683 49.3344ZM21.9673 47.4627C22.0365 47.8685 21.7637 48.2535 21.358 48.3227C20.9522 48.3919 20.5672 48.1192 20.498 47.7134C20.4288 47.3077 20.7015 46.9226 21.1073 46.8534C21.513 46.7842 21.898 47.057 21.9673 47.4627ZM18.4191 18.7342L19.9652 19.7403C20.0214 20.6916 20.1956 21.6301 20.4848 22.5395L19.4012 24.0338C19.219 24.285 19.2104 24.6223 19.3793 24.8825L21.2323 27.7358C21.4014 27.996 21.7131 28.1254 22.0166 28.061L23.8231 27.6787C24.5364 28.3129 25.3225 28.8535 26.1682 29.2914L26.4585 31.1137C26.5072 31.4201 26.7397 31.6648 27.0432 31.7293L30.371 32.4366C30.6745 32.5012 30.9863 32.3721 31.1555 32.1121L32.1616 30.566C33.1129 30.5099 34.0512 30.3357 34.9608 30.0464L36.4551 31.13C36.7062 31.3122 37.0436 31.3209 37.3038 31.1519L40.157 29.2989C40.4172 29.1299 40.5466 28.8182 40.4824 28.5146L40.1001 26.7081C40.7342 25.9949 41.2749 25.2087 41.7129 24.363L43.5352 24.0727C43.8416 24.024 44.0863 23.7915 44.1508 23.488L44.8581 20.1603C44.9226 19.8567 44.7936 19.5449 44.5336 19.3757L42.9874 18.3696C42.9313 17.4184 42.7572 16.48 42.4678 15.5705L43.5514 14.0762C43.7336 13.8251 43.7423 13.4876 43.5733 13.2274L41.7203 10.3742C41.5514 10.114 41.2398 9.98469 40.9361 10.0489L39.1295 10.4311C38.4164 9.79699 37.6302 9.25627 36.7845 8.81831L36.4942 6.99604C36.4453 6.68976 36.2129 6.44504 35.9094 6.38053L32.5816 5.67319C32.2781 5.60867 31.9663 5.73773 31.7971 5.99773L30.7906 7.54436C29.8399 7.60048 28.9017 7.77467 27.9923 8.06395L26.4974 6.97992C26.2463 6.79792 25.9089 6.78907 25.6486 6.95814L22.7953 8.81102C22.5351 8.97999 22.4058 9.29169 22.4701 9.59528L22.8523 11.4016C22.2182 12.1149 21.6774 12.9011 21.2394 13.7469L19.4173 14.0373C19.1109 14.086 18.8662 14.3185 18.8017 14.622L18.0943 17.9497C18.0299 18.2532 18.159 18.5651 18.4191 18.7342ZM20.1619 15.4375L21.8572 15.1674C22.1015 15.1285 22.3108 14.9716 22.4168 14.7482C22.8719 13.7893 23.4748 12.9126 24.2091 12.1422C24.3797 11.9631 24.4511 11.7115 24.3999 11.4695L24.0442 9.7885L26.0339 8.49656L27.4249 9.50533C27.6253 9.65046 27.8841 9.68765 28.117 9.60451C29.1195 9.24714 30.1656 9.05286 31.2265 9.02725C31.4737 9.02123 31.7021 8.8938 31.8369 8.68649L32.7735 7.24748L35.0938 7.74068L35.364 9.43618C35.4028 9.68041 35.5596 9.88971 35.783 9.99575C36.7417 10.4507 37.6184 11.0536 38.3889 11.7879C38.5679 11.9585 38.8195 12.03 39.0615 11.9787L40.7427 11.623L42.0347 13.6125L41.0264 15.0031C40.8812 15.2033 40.844 15.4623 40.9272 15.6953C41.2846 16.6977 41.4789 17.7441 41.5045 18.8055C41.5104 19.0526 41.6379 19.2811 41.8452 19.4159L43.2838 20.3521L42.7906 22.6724L41.095 22.9426C40.8508 22.9814 40.6415 23.1382 40.5354 23.3617C40.0805 24.3203 39.4776 25.1971 38.7433 25.9676C38.5727 26.1467 38.5013 26.3982 38.5524 26.6402L38.9082 28.3214L36.9188 29.6135L35.5282 28.6051C35.328 28.4598 35.0689 28.4226 34.836 28.5059C33.8337 28.8634 32.7873 29.0576 31.7258 29.0832C31.4786 29.0891 31.2502 29.2166 31.1153 29.4239L30.1792 30.8625L27.8588 30.3693L27.5886 28.6737C27.5498 28.4295 27.393 28.2202 27.1695 28.1141C26.2108 27.6592 25.3342 27.0563 24.5636 26.322C24.3846 26.1514 24.1329 26.0801 23.891 26.1312L22.2098 26.487L20.9177 24.4975L21.9262 23.107C22.0714 22.9067 22.1085 22.6478 22.0255 22.4148C21.668 21.4124 21.4738 20.366 21.4481 19.3045C21.4421 19.0572 21.3147 18.8288 21.1074 18.694L19.6687 17.7578L20.1619 15.4375ZM29.9058 26.4439C33.98 27.3099 37.9991 24.6998 38.8652 20.6255C39.7312 16.5513 37.1211 12.5321 33.0469 11.6661C28.9727 10.8001 24.9535 13.4102 24.0875 17.4844C23.2215 21.5587 25.8315 25.5779 29.9058 26.4439ZM27.7142 23.7955C27.3531 23.508 27.0268 23.1821 26.7422 22.8241L27.6305 18.6449L28.7581 18.8846L27.7142 23.7955ZM29.0742 24.6121L30.4755 18.0194L32.5193 18.4538L31.1071 25.0976C30.8123 25.0794 30.5152 25.0399 30.2176 24.9767C29.8177 24.8917 29.4358 24.7683 29.0742 24.6121ZM33.7362 19.9429L34.8638 20.1825L33.9277 24.5864C33.5245 24.7657 33.1009 24.9022 32.6634 24.9904L33.7362 19.9429ZM32.735 13.1334C36.0002 13.8275 38.092 17.0485 37.3979 20.3137C37.1417 21.5192 36.5403 22.564 35.7202 23.3684L36.487 19.7608C36.5732 19.3557 36.3145 18.9574 35.9094 18.8713L34.0482 18.4757L34.1425 18.0321C34.2286 17.627 33.9699 17.2287 33.5648 17.1426L32.5428 16.9253L32.6694 16.3298C32.7555 15.9247 32.4968 15.5264 32.0917 15.4403C31.6866 15.3541 31.2883 15.6128 31.2021 16.0179L31.0756 16.6134L30.0537 16.3963C29.6486 16.3101 29.2503 16.5688 29.1642 16.9739L29.0699 17.4175L27.2087 17.0219C26.8036 16.9358 26.4053 17.1944 26.3192 17.5996L25.6568 20.7161C25.3921 19.7947 25.3418 18.7978 25.5547 17.7964C26.2487 14.5312 29.4698 12.4394 32.735 13.1334Z" fill="#1E1E1E"/>
</g>
<defs>
<clipPath id="clip0_386_491">
<rect width="48" height="48" fill="white" transform="translate(10.9297 0.302734) rotate(12)"/>
</clipPath>
</defs>
</svg>
