<svg width="62" height="62" viewBox="0 0 62 62" fill="none" xmlns="http://www.w3.org/2000/svg">
<g clip-path="url(#clip0_386_482)">
<path d="M54.4112 20.6869C50.6857 18.7361 47.3856 15.6928 44.6027 11.6413C44.5253 11.5286 44.4147 11.4429 44.2862 11.3961L33.5212 7.478C33.3928 7.43125 33.2529 7.42574 33.1212 7.46241C28.3852 8.77721 23.9009 8.98727 19.7931 8.08695C18.7718 7.86298 17.7709 8.41357 17.4134 9.39602L12.0028 24.2614C11.0731 26.8156 10.7512 29.6125 11.0458 32.5744C11.3105 35.2355 12.0628 37.9702 13.2816 40.7023C15.4883 45.6486 19.0884 50.2001 22.912 52.8773C22.9591 52.9104 23.0102 52.9368 23.064 52.9564C23.1177 52.976 23.1738 52.9885 23.2312 52.9935C27.8812 53.4003 33.5646 52.2279 38.4345 49.8571C41.1243 48.5477 43.4584 46.9364 45.3718 45.068C47.5013 42.9885 49.0525 40.639 49.9821 38.0847L55.3927 23.2194C55.7502 22.237 55.3375 21.1719 54.4112 20.6869ZM48.7488 37.6358C45.0797 47.7167 31.5798 52.3221 23.5211 51.7006C16.9483 46.9967 9.56704 34.7911 13.2362 24.7103L18.6467 9.84492C18.7767 9.48769 19.1406 9.28742 19.5121 9.36884C23.7718 10.3026 28.3991 10.1053 33.2688 8.78276L43.6407 12.5578C46.5211 16.7011 49.9391 19.8267 53.8023 21.8494C54.1391 22.0258 54.2892 22.4132 54.1592 22.7704L48.7486 37.6357L48.7488 37.6358ZM52.2806 22.5096C50.4359 21.4442 48.6708 20.1123 47.0344 18.551C46.8324 18.3583 46.5307 18.3144 46.2823 18.4417L40.7468 21.2761C40.4262 21.4402 40.2978 21.8322 40.4592 22.1542L42.8682 26.9616L36.871 29.2216L40.3568 26.436C40.5988 26.2426 40.6727 25.9063 40.5339 25.6294L38.0893 20.7511L44.7157 17.3392C44.895 17.2469 45.022 17.0771 45.0599 16.879C45.0978 16.6808 45.0423 16.4761 44.9096 16.3241C44.23 15.5459 43.5613 14.7013 42.9221 13.8139C42.8451 13.7071 42.7378 13.6258 42.614 13.5808L33.398 10.2264C33.2742 10.1814 33.1398 10.1746 33.0122 10.207C28.5456 11.34 24.253 11.5572 20.2536 10.8527C19.94 10.7975 19.632 10.9753 19.5231 11.2746L14.4695 25.1593C13.421 28.0399 13.3031 31.4516 14.1285 35.0257C14.8733 38.2505 16.3453 41.5174 18.3853 44.4733C18.565 44.7333 18.9043 44.8286 19.1928 44.6997L23.6496 42.711C23.8186 42.6356 23.9478 42.4924 24.0056 42.3166C24.0634 42.1407 24.0442 41.9488 23.9529 41.7879L21.4749 37.4207L27.1129 35.6174L23.9544 37.9058C23.6836 38.102 23.6036 38.4704 23.7687 38.7611L26.2898 43.2041L20.4481 45.8291C20.2593 45.914 20.1216 46.0828 20.0765 46.2848C20.0314 46.4868 20.0843 46.6982 20.2191 46.8552C21.3591 48.1829 22.5724 49.34 23.8253 50.2943C23.8783 50.3346 23.9367 50.3663 23.9985 50.3888C24.0603 50.4113 24.1255 50.4246 24.192 50.4277C28.5589 50.6341 33.5416 49.4603 37.8625 47.2076C42.6425 44.7153 46.0707 41.1566 47.5155 37.1871L52.5691 23.3024C52.678 23.0032 52.5563 22.6689 52.2806 22.5096ZM42.128 22.0436C42.9923 22.8373 43.288 23.4646 43.1819 23.7561C43.1434 23.8619 43.0366 23.9625 42.8778 24.0511L41.9241 22.148L42.128 22.0436ZM31.4035 33.4471C31.258 33.1594 30.925 33.02 30.618 33.1182L28.0826 33.9291C23.7744 32.0678 21.9319 29.994 22.1866 29.2943L23.6503 25.2727C24.9864 27.0158 28.1117 28.8019 31.4176 30.0052C31.9722 30.207 32.5334 30.3928 33.0935 30.5604L32.8113 30.7858C32.5591 30.9873 32.4909 31.3424 32.6505 31.6231C32.8101 31.9038 33.1502 32.0263 33.4523 31.9127L35.458 31.1568C37.3734 31.545 39.1375 31.6553 40.4097 31.3726L38.9459 35.3942C38.6726 36.1451 35.532 36.5561 30.4349 34.8311L31.2029 34.2745C31.464 34.0856 31.549 33.7348 31.4035 33.4471ZM38.004 30.1975L41.2879 28.96L41.0639 29.5753C40.9091 30.0006 39.8329 30.3163 38.004 30.1975ZM34.3489 29.5571C33.5779 29.3518 32.7495 29.0934 31.8664 28.772C26.3647 26.7695 24.019 24.2594 24.3044 23.4753L25.7682 19.4536C27.1042 21.1968 30.2295 22.9829 33.5355 24.1861C35.4565 24.8853 37.3516 25.3655 39.0427 25.5833L39.1225 25.7426L34.3489 29.5571ZM38.3219 24.1446C36.9602 23.9029 35.4837 23.4984 33.9844 22.9527C28.4827 20.9502 26.1371 18.4401 26.4225 17.656C26.7078 16.872 30.1182 16.4569 35.6199 18.4594C36.4013 18.7438 37.1543 19.0545 37.8711 19.3872L36.9114 19.8813C36.5917 20.0459 36.464 20.4372 36.6252 20.7587L38.3219 24.1446ZM22.4547 41.807L19.161 43.2768C16.0231 38.5271 13.5464 31.533 15.7028 25.6082L20.57 12.2356C24.5376 12.852 28.7613 12.6147 33.1381 11.5287L41.976 14.7454C42.4318 15.3709 42.9016 15.9755 43.3793 16.5511L39.3278 18.6372C38.314 18.1194 37.22 17.645 36.0688 17.226C31.2917 15.4873 26.0207 14.9224 25.1891 17.2071L18.8351 34.6646C18.6117 35.2785 18.6577 36.2966 20.1134 37.6806L22.4547 41.807ZM20.6201 36.316C20.1147 35.7337 19.9947 35.316 20.0684 35.1136L21.5322 31.0919C22.4425 32.2795 24.183 33.4871 26.2459 34.5166L23.9684 35.2451C23.625 35.0295 23.3028 34.8116 23.0101 34.5951C22.7186 34.3796 22.3077 34.4411 22.0922 34.7325C21.8767 35.0239 21.9382 35.4349 22.2297 35.6503C22.2768 35.6851 22.3264 35.7199 22.3748 35.7548L20.6201 36.316ZM29.1434 35.7669C29.1954 35.7861 29.2474 35.8054 29.2995 35.8244C32.6056 37.0277 36.1477 37.6684 38.2917 37.1919L36.8279 41.2136C36.5426 41.9976 33.1322 42.4128 27.6304 40.4103C27.0028 40.1818 26.3866 39.9323 25.7929 39.6691L25.2 38.6241L29.1434 35.7669ZM46.2822 36.7381C44.9498 40.3987 41.7442 43.7035 37.2557 46.0437C33.2023 48.1571 28.5512 49.2754 24.4584 49.1253C23.5465 48.4151 22.6558 47.5884 21.8012 46.6599L27.4852 44.1058C27.6538 44.03 27.7825 43.8868 27.84 43.7112C27.8975 43.5357 27.8781 43.344 27.787 43.1833L26.841 41.516C26.9543 41.5587 27.0674 41.602 27.1814 41.6435C31.9585 43.3822 37.2297 43.947 38.0612 41.6623L42.9065 28.3499L44.0126 27.9331C44.1865 27.8675 44.3246 27.7312 44.3924 27.5581C44.4601 27.3849 44.4512 27.1911 44.3679 27.025L43.8007 25.8931L44.4152 24.2049C44.6316 23.6105 44.5864 22.672 43.362 21.4116L46.4688 19.8208C47.9424 21.1852 49.5132 22.3748 51.1493 23.3653L46.282 36.7381L46.2822 36.7381ZM29.1867 24.9409C29.0263 25.2235 28.6877 25.3416 28.3922 25.2341C28.3581 25.2217 28.3247 25.2063 28.292 25.1878C27.6171 24.8047 27.0026 24.4092 26.4657 24.0121C26.1742 23.7966 26.1128 23.3857 26.3282 23.0943C26.5436 22.8029 26.9545 22.7414 27.246 22.9569C27.7407 23.3226 28.3105 23.6891 28.9399 24.0463C29.2551 24.2251 29.3656 24.6257 29.1867 24.9409ZM27.0687 30.76C26.9083 31.0426 26.5697 31.1607 26.2742 31.0532C26.2401 31.0408 26.2067 31.0254 26.1741 31.0069C25.4991 30.6238 24.8846 30.2283 24.3477 29.8312C24.0562 29.6157 23.9948 29.2048 24.2102 28.9134C24.4256 28.622 24.8366 28.5604 25.128 28.776C25.6227 29.1417 26.1926 29.5082 26.8219 29.8654C27.1371 30.0443 27.2476 30.4449 27.0687 30.76Z" fill="#1E1E1E"/>
</g>
<defs>
<clipPath id="clip0_386_482">
<rect width="48" height="48" fill="white" transform="translate(16.6406 0.435555) rotate(20)"/>
</clipPath>
</defs>
</svg>
