<svg width="64" height="64" viewBox="0 0 64 64" fill="none" xmlns="http://www.w3.org/2000/svg">
<g filter="url(#filter0_iii_744_1431)">
<path d="M28.7782 1.96116C30.1302 -0.653721 33.8698 -0.653721 35.2218 1.96116L43.8314 18.6126C44.1763 19.2799 44.72 19.8236 45.3875 20.1686L62.0387 28.7782C64.6538 30.1302 64.6538 33.8698 62.0387 35.2218L45.3875 43.8314C44.72 44.1763 44.1763 44.72 43.8314 45.3875L35.2218 62.0387C33.8698 64.6538 30.1302 64.6538 28.7782 62.0387L20.1686 45.3875C19.8236 44.72 19.2799 44.1763 18.6126 43.8314L1.96116 35.2218C-0.653721 33.8698 -0.653721 30.1302 1.96116 28.7782L18.6126 20.1686C19.2799 19.8236 19.8236 19.2799 20.1686 18.6126L28.7782 1.96116Z" fill="#6644FF"/>
</g>
<defs>
<filter id="filter0_iii_744_1431" x="-5" y="-5" width="74" height="74" filterUnits="userSpaceOnUse" color-interpolation-filters="sRGB">
<feFlood flood-opacity="0" result="BackgroundImageFix"/>
<feBlend mode="normal" in="SourceGraphic" in2="BackgroundImageFix" result="shape"/>
<feColorMatrix in="SourceAlpha" type="matrix" values="0 0 0 0 0 0 0 0 0 0 0 0 0 0 0 0 0 0 127 0" result="hardAlpha"/>
<feOffset/>
<feGaussianBlur stdDeviation="5"/>
<feComposite in2="hardAlpha" operator="arithmetic" k2="-1" k3="1"/>
<feColorMatrix type="matrix" values="0 0 0 0 1 0 0 0 0 1 0 0 0 0 1 0 0 0 0.5 0"/>
<feBlend mode="normal" in2="shape" result="effect1_innerShadow_744_1431"/>
<feColorMatrix in="SourceAlpha" type="matrix" values="0 0 0 0 0 0 0 0 0 0 0 0 0 0 0 0 0 0 127 0" result="hardAlpha"/>
<feOffset dx="5" dy="5"/>
<feGaussianBlur stdDeviation="5"/>
<feComposite in2="hardAlpha" operator="arithmetic" k2="-1" k3="1"/>
<feColorMatrix type="matrix" values="0 0 0 0 0.666667 0 0 0 0 0.666667 0 0 0 0 0.8 0 0 0 0.6 0"/>
<feBlend mode="normal" in2="effect1_innerShadow_744_1431" result="effect2_innerShadow_744_1431"/>
<feColorMatrix in="SourceAlpha" type="matrix" values="0 0 0 0 0 0 0 0 0 0 0 0 0 0 0 0 0 0 127 0" result="hardAlpha"/>
<feOffset dx="-5" dy="-5"/>
<feGaussianBlur stdDeviation="5"/>
<feComposite in2="hardAlpha" operator="arithmetic" k2="-1" k3="1"/>
<feColorMatrix type="matrix" values="0 0 0 0 1 0 0 0 0 1 0 0 0 0 1 0 0 0 1 0"/>
<feBlend mode="normal" in2="effect2_innerShadow_744_1431" result="effect3_innerShadow_744_1431"/>
</filter>
</defs>
</svg>
