<svg width="24" height="24" viewBox="0 0 24 24" fill="none" xmlns="http://www.w3.org/2000/svg">
<path d="M21.1375 11.5175L18.4115 10.7385C17.1839 10.3924 16.0657 9.73705 15.1638 8.83518C14.2619 7.9333 13.6066 6.81507 13.2605 5.58748L12.4815 2.86148C12.4423 2.76611 12.3757 2.68453 12.29 2.62712C12.2044 2.56971 12.1036 2.53906 12.0005 2.53906C11.8974 2.53906 11.7966 2.56971 11.7109 2.62712C11.6253 2.68453 11.5587 2.76611 11.5195 2.86148L10.7405 5.58748C10.3944 6.81507 9.73905 7.9333 8.83717 8.83518C7.9353 9.73705 6.81707 10.3924 5.58948 10.7385L2.86348 11.5175C2.75881 11.5472 2.66668 11.6102 2.60109 11.697C2.53549 11.7838 2.5 11.8897 2.5 11.9985C2.5 12.1073 2.53549 12.2131 2.60109 12.2999C2.66668 12.3867 2.75881 12.4498 2.86348 12.4795L5.58948 13.2585C6.81707 13.6046 7.9353 14.2599 8.83717 15.1618C9.73905 16.0637 10.3944 17.1819 10.7405 18.4095L11.5195 21.1355C11.5492 21.2401 11.6122 21.3323 11.699 21.3979C11.7858 21.4635 11.8917 21.499 12.0005 21.499C12.1093 21.499 12.2151 21.4635 12.3019 21.3979C12.3887 21.3323 12.4518 21.2401 12.4815 21.1355L13.2605 18.4095C13.6066 17.1819 14.2619 16.0637 15.1638 15.1618C16.0657 14.2599 17.1839 13.6046 18.4115 13.2585L21.1375 12.4795C21.2421 12.4498 21.3343 12.3867 21.3999 12.2999C21.4655 12.2131 21.5009 12.1073 21.5009 11.9985C21.5009 11.8897 21.4655 11.7838 21.3999 11.697C21.3343 11.6102 21.2421 11.5472 21.1375 11.5175Z" fill="#C7A75A" fill-opacity="0.52"/>
</svg>
