<svg width="24" height="24" viewBox="0 0 24 24" fill="none" xmlns="http://www.w3.org/2000/svg">
<g opacity="0.32">
<path d="M11.9995 21.7495C11.8365 21.7494 11.678 21.6963 11.5479 21.5982C11.4178 21.5 11.3232 21.3622 11.2785 21.2055L10.4995 18.4785C10.1646 17.292 9.53102 16.2113 8.65931 15.3396C7.7876 14.4679 6.70689 13.8343 5.52046 13.4995L2.79346 12.7205C2.63686 12.6756 2.49913 12.581 2.40108 12.4509C2.30303 12.3208 2.25 12.1624 2.25 11.9995C2.25 11.8366 2.30303 11.6781 2.40108 11.548C2.49913 11.4179 2.63686 11.3233 2.79346 11.2785L5.52046 10.4995C6.70689 10.1646 7.7876 9.53102 8.65931 8.65931C9.53102 7.7876 10.1646 6.70689 10.4995 5.52046L11.2785 2.79346C11.3233 2.63686 11.4179 2.49913 11.548 2.40108C11.6781 2.30303 11.8366 2.25 11.9995 2.25C12.1624 2.25 12.3208 2.30303 12.4509 2.40108C12.581 2.49913 12.6756 2.63686 12.7205 2.79346L13.4995 5.52046C13.8343 6.70689 14.4679 7.7876 15.3396 8.65931C16.2113 9.53102 17.292 10.1646 18.4785 10.4995L21.2055 11.2785C21.3621 11.3233 21.4998 11.4179 21.5978 11.548C21.6959 11.6781 21.7489 11.8366 21.7489 11.9995C21.7489 12.1624 21.6959 12.3208 21.5978 12.4509C21.4998 12.581 21.3621 12.6756 21.2055 12.7205L18.4785 13.4995C17.292 13.8343 16.2113 14.4679 15.3396 15.3396C14.4679 16.2113 13.8343 17.292 13.4995 18.4785L12.7205 21.2055C12.6757 21.3622 12.5811 21.5 12.451 21.5982C12.3209 21.6963 12.1624 21.7494 11.9995 21.7495ZM5.72946 11.9995L5.92946 12.0575C7.36128 12.4617 8.66552 13.2263 9.71755 14.2784C10.7696 15.3304 11.5342 16.6346 11.9385 18.0665L11.9965 18.2665L12.0545 18.0665C12.4587 16.6346 13.2233 15.3304 14.2754 14.2784C15.3274 13.2263 16.6316 12.4617 18.0635 12.0575L18.2635 11.9995L18.0635 11.9415C16.6316 11.5372 15.3274 10.7726 14.2754 9.72055C13.2233 8.66852 12.4587 7.36428 12.0545 5.93246L11.9995 5.73046L11.9415 5.93046C11.5372 7.36228 10.7726 8.66652 9.72055 9.71855C8.66852 10.7706 7.36428 11.5352 5.93246 11.9395L5.72946 11.9995Z" fill="#010101"/>
</g>
</svg>
