<svg width="18" height="17" viewBox="0 0 18 17" fill="none" xmlns="http://www.w3.org/2000/svg">
<path d="M8.97611 16.888C8.84031 16.888 8.70821 16.8437 8.5998 16.7619C8.4914 16.6802 8.41258 16.5653 8.37528 16.4347L7.72611 14.1622C7.44705 13.1735 6.91908 12.2729 6.19266 11.5465C5.46623 10.8201 4.56564 10.2921 3.57695 10.013L1.30445 9.36386C1.17395 9.32648 1.05917 9.24763 0.977464 9.13923C0.895757 9.03083 0.851563 8.89878 0.851563 8.76303C0.851563 8.62729 0.895757 8.49523 0.977464 8.38683C1.05917 8.27843 1.17395 8.19958 1.30445 8.1622L3.57695 7.51303C4.56564 7.23397 5.46623 6.706 6.19266 5.97957C6.91908 5.25315 7.44705 4.35255 7.72611 3.36386L8.37528 1.09136C8.41266 0.960868 8.49151 0.84609 8.59991 0.764383C8.70831 0.682676 8.84037 0.638481 8.97611 0.638481C9.11186 0.638481 9.24391 0.682676 9.35231 0.764383C9.46071 0.84609 9.53956 0.960868 9.57695 1.09136L10.2261 3.36386C10.5052 4.35255 11.0331 5.25315 11.7596 5.97957C12.486 6.706 13.3866 7.23397 14.3753 7.51303L16.6478 8.1622C16.7783 8.19958 16.8931 8.27843 16.9748 8.38683C17.0565 8.49523 17.1007 8.62729 17.1007 8.76303C17.1007 8.89878 17.0565 9.03083 16.9748 9.13923C16.8931 9.24763 16.7783 9.32648 16.6478 9.36386L14.3753 10.013C13.3866 10.2921 12.486 10.8201 11.7596 11.5465C11.0331 12.2729 10.5052 13.1735 10.2261 14.1622L9.57695 16.4347C9.53965 16.5653 9.46083 16.6802 9.35242 16.7619C9.24401 16.8437 9.11192 16.888 8.97611 16.888ZM3.75111 8.76303L3.91778 8.81136C5.11097 9.14822 6.19783 9.78543 7.07452 10.6621C7.95121 11.5388 8.58843 12.6257 8.92528 13.8189L8.97361 13.9855L9.02195 13.8189C9.3588 12.6257 9.99601 11.5388 10.8727 10.6621C11.7494 9.78543 12.8363 9.14822 14.0294 8.81136L14.1961 8.76303L14.0294 8.7147C12.8363 8.37784 11.7494 7.74063 10.8727 6.86394C9.99601 5.98725 9.3588 4.90038 9.02195 3.7072L8.97611 3.53886L8.92778 3.70553C8.59093 4.89872 7.95371 5.98558 7.07702 6.86227C6.20033 7.73896 5.11347 8.37618 3.92028 8.71303L3.75111 8.76303Z" fill="#010101"/>
</svg>
