<svg width="14" height="14" viewBox="0 0 14 14" fill="none" xmlns="http://www.w3.org/2000/svg">
<path d="M13.089 6.68092L11.2717 6.16159C10.4533 5.93086 9.70783 5.49397 9.10658 4.89272C8.50533 4.29147 8.06844 3.54598 7.83771 2.72759L7.31838 0.910257C7.29226 0.846675 7.24783 0.792292 7.19073 0.75402C7.13364 0.715747 7.06645 0.695312 6.99771 0.695312C6.92898 0.695312 6.86179 0.715747 6.80469 0.75402C6.74759 0.792292 6.70316 0.846675 6.67705 0.910257L6.15771 2.72759C5.92698 3.54598 5.49009 4.29147 4.88884 4.89272C4.28759 5.49397 3.54211 5.93086 2.72371 6.16159L0.906379 6.68092C0.8366 6.70073 0.775185 6.74276 0.731454 6.80063C0.687723 6.8585 0.664062 6.92906 0.664062 7.00159C0.664062 7.07413 0.687723 7.14468 0.731454 7.20255C0.775185 7.26043 0.8366 7.30245 0.906379 7.32226L2.72371 7.84159C3.54211 8.07232 4.28759 8.50921 4.88884 9.11046C5.49009 9.71171 5.92698 10.4572 6.15771 11.2756L6.67705 13.0929C6.69685 13.1627 6.73888 13.2241 6.79675 13.2678C6.85462 13.3116 6.92518 13.3352 6.99771 13.3352C7.07025 13.3352 7.14081 13.3116 7.19868 13.2678C7.25655 13.2241 7.29857 13.1627 7.31838 13.0929L7.83771 11.2756C8.06844 10.4572 8.50533 9.71171 9.10658 9.11046C9.70783 8.50921 10.4533 8.07232 11.2717 7.84159L13.089 7.32226C13.1588 7.30245 13.2202 7.26043 13.264 7.20255C13.3077 7.14468 13.3314 7.07413 13.3314 7.00159C13.3314 6.92906 13.3077 6.8585 13.264 6.80063C13.2202 6.74276 13.1588 6.70073 13.089 6.68092Z" fill="#596EFF"/>
</svg>
