<svg width="12" height="20" viewBox="0 0 12 20" fill="none" xmlns="http://www.w3.org/2000/svg">
<path d="M11.692 9.69409L9.84382 9.61554C8.95011 9.57834 8.1128 9.21869 7.48807 8.611C6.86334 8.00331 6.50325 7.19719 6.48156 6.3456L6.3167 0.29351C6.31236 0.128152 6.17354 0 6 0C5.82647 0 5.68764 0.128152 5.6833 0.29351L5.51844 6.3456C5.49675 7.19719 5.13666 8.00331 4.51193 8.611C3.8872 9.21869 3.04989 9.5742 2.15618 9.61554L0.308026 9.69409C0.13449 9.70236 0 9.83464 0 10C0 10.1654 0.13449 10.2976 0.308026 10.3059L2.15618 10.3845C3.04989 10.4217 3.8872 10.7813 4.51193 11.389C5.13666 11.9967 5.49675 12.8028 5.51844 13.6544L5.6833 19.7065C5.68764 19.8718 5.82647 20 6 20C6.17354 20 6.31236 19.8718 6.3167 19.7065L6.48156 13.6544C6.50325 12.8028 6.86334 11.9967 7.48807 11.389C8.1128 10.7813 8.95011 10.4258 9.84382 10.3845L11.692 10.3059C11.8655 10.2976 12 10.1654 12 10C12 9.83464 11.8612 9.70236 11.692 9.69409Z" fill="#2CA7FF"/>
</svg>
