<svg width="24" height="24" viewBox="0 0 24 24" fill="none" xmlns="http://www.w3.org/2000/svg">
<path d="M21.1375 11.5194L18.4115 10.7404C17.1839 10.3943 16.0657 9.73901 15.1638 8.83713C14.2619 7.93526 13.6066 6.81702 13.2605 5.58943L12.4815 2.86343C12.4423 2.76806 12.3757 2.68649 12.29 2.62908C12.2044 2.57167 12.1036 2.54102 12.0005 2.54102C11.8974 2.54102 11.7966 2.57167 11.7109 2.62908C11.6253 2.68649 11.5587 2.76806 11.5195 2.86343L10.7405 5.58943C10.3944 6.81702 9.73905 7.93526 8.83717 8.83713C7.9353 9.73901 6.81707 10.3943 5.58948 10.7404L2.86348 11.5194C2.75881 11.5491 2.66668 11.6122 2.60109 11.699C2.53549 11.7858 2.5 11.8916 2.5 12.0004C2.5 12.1092 2.53549 12.2151 2.60109 12.3019C2.66668 12.3887 2.75881 12.4517 2.86348 12.4814L5.58948 13.2604C6.81707 13.6065 7.9353 14.2619 8.83717 15.1637C9.73905 16.0656 10.3944 17.1838 10.7405 18.4114L11.5195 21.1374C11.5492 21.2421 11.6122 21.3342 11.699 21.3998C11.7858 21.4654 11.8917 21.5009 12.0005 21.5009C12.1093 21.5009 12.2151 21.4654 12.3019 21.3998C12.3887 21.3342 12.4518 21.2421 12.4815 21.1374L13.2605 18.4114C13.6066 17.1838 14.2619 16.0656 15.1638 15.1637C16.0657 14.2619 17.1839 13.6065 18.4115 13.2604L21.1375 12.4814C21.2421 12.4517 21.3343 12.3887 21.3999 12.3019C21.4655 12.2151 21.5009 12.1092 21.5009 12.0004C21.5009 11.8916 21.4655 11.7858 21.3999 11.699C21.3343 11.6122 21.2421 11.5491 21.1375 11.5194Z" fill="#BF9156"/>
</svg>
