<svg width="81" height="91" viewBox="0 0 81 91" fill="none" xmlns="http://www.w3.org/2000/svg">
<path d="M49.8612 34.4805C41.6143 32.5609 33.9078 29.5608 26.4714 25.8639C19.6464 22.4798 13.0346 18.7119 7.30448 13.6073C5.86839 12.3277 4.64558 10.8205 3.39433 9.37016C2.93933 8.84406 2.62651 8.16156 2.34214 7.52172C1.26151 5.06187 1.94401 3.11391 4.33276 1.87688C6.79261 0.597188 9.50839 0.199063 12.2242 0.127969C17.3571 0 22.5043 0 27.6515 0C37.0075 0 46.3776 0.056875 55.7335 0.0853125C63.696 0.11375 71.6728 0.11375 79.6353 0.142188C79.9196 0.142188 80.204 0.142188 80.5026 0.142188V66.8708C78.4551 66.8708 76.5356 66.8708 74.6303 66.8708C63.7387 66.8423 52.8329 66.8708 41.9414 66.7428C40.036 66.7144 38.7421 67.2547 37.434 68.6339C30.5095 75.9566 23.4854 83.1655 16.4898 90.417C16.3192 90.6019 16.177 90.8009 16.0064 91C15.9353 90.9431 15.8642 90.8862 15.7789 90.8436C27.1112 72.1033 38.4435 53.3488 49.8612 34.4805ZM21.1251 12.2139V5.82969H14.7693V12.2139H21.1251ZM41.657 5.90078V12.2708H48.0128V5.90078H41.657ZM54.9231 60.9558H61.3215V54.6142H54.9231V60.9558ZM34.576 5.87234H28.2203V12.2423H34.576V5.87234ZM61.4495 5.97187H55.1079V12.2708H61.4495V5.97187ZM74.872 12.3419V5.94344H68.5731V12.3419H74.872ZM41.529 60.9131H47.8564V54.6427H41.529V60.9131ZM68.3882 60.9984H74.744V54.6427H68.3882V60.9984Z" fill="#787878"/>
<path d="M23.6094 39.3857C21.4481 38.2482 19.3864 37.1818 17.2109 36.0443C18.1636 33.9115 19.0878 31.864 20.0547 29.7312C22.415 30.9114 24.7042 32.0346 27.0503 33.2148C25.8986 35.2765 24.7895 37.2671 23.6094 39.3857Z" fill="#787878"/>
<path d="M32.997 35.7742C35.4 36.6557 37.6608 37.4804 40.0637 38.362C38.9547 40.1678 37.8883 41.9593 36.7792 43.7225C36.6655 43.8931 36.2816 44.0353 36.0825 43.9784C33.9497 43.3243 31.8169 42.6418 29.5703 41.9167C30.7647 39.7839 31.8595 37.8075 32.997 35.7742Z" fill="#787878"/>
<path d="M8.36837 22.5936C10.4443 23.9586 12.3923 25.2383 14.4113 26.5607C13.5013 28.5655 12.6198 30.5277 11.6813 32.6321C9.96087 31.4235 8.32572 30.3002 6.73322 29.12C6.56259 28.9921 6.50572 28.5513 6.57681 28.3096C7.13134 26.4327 7.74275 24.57 8.36837 22.6078V22.5936Z" fill="#787878"/>
<path d="M1.16 23.2621C0.861406 20.8023 0.548594 18.3567 0.25 15.8968L0.548594 15.712C1.27375 16.4656 2.01313 17.2192 2.70984 18.0012C2.85203 18.1718 2.89469 18.5273 2.82359 18.7548C2.36859 20.2478 1.88516 21.7407 1.41594 23.2195C1.33062 23.2195 1.25953 23.2337 1.17422 23.2479L1.16 23.2621Z" fill="#787878"/>
</svg>
