<svg width="92" height="64" viewBox="0 0 92 64" fill="none" xmlns="http://www.w3.org/2000/svg">
	<path fill-rule="evenodd" clip-rule="evenodd" d="M3.28205 0C1.46942 0 0 1.46942 0 3.28205V60.7179C0 62.5306 1.46942 64 3.28205 64H88.6154C90.428 64 91.8974 62.5306 91.8974 60.7179V3.28205C91.8974 1.46942 90.428 0 88.6154 0H3.28205ZM4.92483 8.20475C4.92483 7.29843 5.65954 6.56372 6.56585 6.56372H12.3094C13.2158 6.56372 13.9505 7.29843 13.9505 8.20475V13.9483C13.9505 14.8546 13.2158 15.5894 12.3094 15.5894H6.56585C5.65954 15.5894 4.92483 14.8547 4.92483 13.9483V8.20475ZM4.92483 22.1527C4.92483 21.2464 5.65954 20.5117 6.56585 20.5117H12.3094C13.2158 20.5117 13.9505 21.2464 13.9505 22.1527V27.8963C13.9505 28.8026 13.2158 29.5374 12.3094 29.5374H6.56585C5.65954 29.5374 4.92483 28.8026 4.92483 27.8963V22.1527ZM6.56585 34.4619C5.65954 34.4619 4.92483 35.1966 4.92483 36.1029V41.8465C4.92483 42.7528 5.65954 43.4876 6.56585 43.4876H12.3094C13.2158 43.4876 13.9505 42.7528 13.9505 41.8465V36.1029C13.9505 35.1966 13.2158 34.4619 12.3094 34.4619H6.56585ZM4.92483 50.0512C4.92483 49.1449 5.65954 48.4102 6.56585 48.4102H12.3094C13.2158 48.4102 13.9505 49.1449 13.9505 50.0512V55.7948C13.9505 56.7011 13.2158 57.4358 12.3094 57.4358H6.56585C5.65954 57.4358 4.92483 56.7011 4.92483 55.7948V50.0512ZM77.9502 8.20499C77.9502 7.29868 78.6849 6.56396 79.5913 6.56396H85.3348C86.2412 6.56396 86.9759 7.29868 86.9759 8.20499V13.9486C86.9759 14.8549 86.2412 15.5896 85.3348 15.5896H79.5913C78.6849 15.5896 77.9502 14.8549 77.9502 13.9486V8.20499ZM77.9502 22.1535C77.9502 21.2472 78.6849 20.5125 79.5913 20.5125H85.3348C86.2412 20.5125 86.9759 21.2472 86.9759 22.1535V27.8971C86.9759 28.8034 86.2412 29.5381 85.3348 29.5381H79.5913C78.6849 29.5381 77.9502 28.8034 77.9502 27.8971V22.1535ZM79.5913 34.4624C78.6849 34.4624 77.9502 35.1971 77.9502 36.1034V41.847C77.9502 42.7533 78.6849 43.488 79.5913 43.488H85.3348C86.2412 43.488 86.9759 42.7533 86.9759 41.847V36.1034C86.9759 35.1971 86.2412 34.4624 85.3348 34.4624H79.5913ZM77.9502 50.0514C77.9502 49.1451 78.6849 48.4104 79.5913 48.4104H85.3348C86.2412 48.4104 86.9759 49.1451 86.9759 50.0514V55.795C86.9759 56.7013 86.2412 57.436 85.3348 57.436H79.5913C78.6849 57.436 77.9502 56.7013 77.9502 55.795V50.0514ZM56.621 30.5782C57.715 31.2098 57.715 32.7889 56.621 33.4205L36.9287 44.7899C35.8347 45.4215 34.4671 44.632 34.4671 43.3687L34.4672 20.63C34.4672 19.3667 35.8347 18.5772 36.9287 19.2088L56.621 30.5782Z" fill="#BF9156"/>
</svg>
