<svg width="44" height="44" viewBox="0 0 44 44" fill="none" xmlns="http://www.w3.org/2000/svg">
<path fill-rule="evenodd" clip-rule="evenodd" d="M42.4797 32.5362C41.5515 33.4644 40.0328 33.4644 39.1046 32.5362L32.6074 26.039C32.1784 25.61 32.1599 24.9218 32.5519 24.4704L32.2782 24.1968C31.6515 23.57 30.7105 23.4524 29.9487 23.9055C29.0724 24.4267 28.1187 24.8313 27.1088 25.0979V22.3525C30.4168 21.1781 32.786 18.0211 32.786 14.3104C32.786 9.59823 28.966 5.77814 24.2538 5.77814C19.5416 5.77814 15.7216 9.59823 15.7216 14.3104C15.7216 16.6143 16.6351 18.7045 18.1193 20.2397L17.4362 21.0951C17.2724 21.072 17.1051 21.0601 16.935 21.0601C16.4555 21.0601 15.9982 21.155 15.5807 21.3271C14.028 19.4107 13.0977 16.9693 13.0977 14.3105C13.0977 8.14916 18.0925 3.1543 24.2539 3.1543C30.4153 3.1543 35.4101 8.14916 35.4101 14.3105C35.4101 16.391 34.8406 18.3383 33.8489 20.0054C33.3959 20.7671 33.5134 21.7081 34.1402 22.3349L34.4138 22.6085C34.8651 22.2165 35.5534 22.2349 35.9824 22.664L42.4797 29.1612C43.4078 30.0894 43.4078 31.6081 42.4797 32.5362ZM4.83815 33.9697H1.51366C1.27698 33.9697 1.08397 34.1627 1.08397 34.3994V40.4177C1.08397 40.6544 1.27698 40.8474 1.51366 40.8474H4.83815C5.07482 40.8474 5.26784 40.6544 5.26784 40.4177V34.3994C5.26784 34.1627 5.07482 33.9697 4.83815 33.9697ZM11.7175 26.0348H8.39304C8.15637 26.0348 7.96335 26.2278 7.96335 26.4645V40.4178C7.96335 40.6545 8.15637 40.8475 8.39304 40.8475H11.7175C11.9542 40.8475 12.1472 40.6545 12.1472 40.4178V26.4645C12.1472 26.2278 11.9542 26.0348 11.7175 26.0348ZM18.5969 28.9676H15.2725C15.0358 28.9676 14.8428 29.1606 14.8428 29.3973V40.4178C14.8428 40.6545 15.0358 40.8475 15.2725 40.8475H18.5969C18.8336 40.8475 19.0266 40.6545 19.0266 40.4178V29.3973C19.0266 29.1606 18.8336 28.9676 18.5969 28.9676ZM25.4763 21.5985H22.1519C21.9152 21.5985 21.7222 21.7916 21.7222 22.0282V40.4178C21.7222 40.6545 21.9152 40.8475 22.1519 40.8475H25.4763C25.713 40.8475 25.906 40.6545 25.906 40.4178V22.0282C25.906 21.7916 25.713 21.5985 25.4763 21.5985ZM26.1679 16.0012C26.1679 17.3014 25.1136 18.3558 23.8133 18.3558C23.4752 18.3558 23.1539 18.2839 22.8633 18.1555L18.8247 23.213C19.1168 23.6052 19.2898 24.0913 19.2898 24.6179C19.2898 25.9181 18.2355 26.9725 16.9352 26.9725C15.635 26.9725 14.5806 25.9181 14.5806 24.6179C14.5806 24.4286 14.6036 24.2446 14.6459 24.0682L11.773 22.5174C11.3433 22.9759 10.7328 23.2627 10.0551 23.2627C9.72155 23.2627 9.40444 23.1929 9.11689 23.0678L5.05703 28.2225C5.35352 28.6164 5.52951 29.1062 5.52951 29.6371C5.52951 30.9374 4.47515 31.9917 3.17491 31.9917C1.87468 31.9917 0.820312 30.9374 0.820312 29.6371C0.820312 28.3369 1.87468 27.2825 3.17491 27.2825C3.50827 27.2825 3.82529 27.3522 4.11266 27.4773L8.17269 22.3224C7.8763 21.9285 7.70047 21.4389 7.70047 20.908C7.70047 19.6078 8.75484 18.5534 10.0551 18.5534C11.3553 18.5534 12.4097 19.6078 12.4097 20.908C12.4097 21.0974 12.3867 21.2813 12.3444 21.4577L15.2173 23.0085C15.647 22.55 16.2575 22.2632 16.9352 22.2632C17.2728 22.2632 17.5935 22.3348 17.8838 22.4627L21.9232 17.4051C21.6315 17.013 21.4588 16.5272 21.4588 16.0011C21.4588 14.7009 22.5132 13.6465 23.8134 13.6465C25.1136 13.6465 26.168 14.7009 26.168 16.0011L26.1679 16.0012ZM4.32605 29.6371C4.32605 29.0009 3.81059 28.4856 3.17457 28.4856C2.53855 28.4856 2.02309 29.001 2.02309 29.6371C2.02309 30.2731 2.53855 30.7885 3.17457 30.7885C3.81059 30.7885 4.32605 30.2731 4.32605 29.6371ZM11.2063 20.908C11.2063 20.2719 10.6908 19.7565 10.0548 19.7565C9.41879 19.7565 8.90334 20.2719 8.90334 20.908C8.90334 21.544 9.41879 22.0594 10.0548 22.0594C10.6908 22.0594 11.2063 21.544 11.2063 20.908ZM18.0865 24.6177C18.0865 23.9817 17.5711 23.4662 16.9351 23.4662C16.299 23.4662 15.7836 23.9817 15.7836 24.6177C15.7836 25.2537 16.299 25.7692 16.9351 25.7692C17.5711 25.7692 18.0865 25.2537 18.0865 24.6177ZM24.9647 16.0011C24.9647 15.3651 24.4493 14.8496 23.8132 14.8496C23.1772 14.8496 22.6618 15.3651 22.6618 16.0011C22.6618 16.6371 23.1772 17.1526 23.8132 17.1526C24.4493 17.1526 24.9647 16.6371 24.9647 16.0011Z" fill="#010101"/>
</svg>
