<svg width="44" height="44" viewBox="0 0 44 44" fill="none" xmlns="http://www.w3.org/2000/svg">
<path d="M27.5 31.625H16.5C15.7406 31.625 15.125 32.2406 15.125 33V34.375C15.125 35.1344 15.7406 35.75 16.5 35.75H27.5C28.2594 35.75 28.875 35.1344 28.875 34.375V33C28.875 32.2406 28.2594 31.625 27.5 31.625Z" fill="black"/>
<path d="M21.3163 16.5C20.7693 16.5 20.2446 16.2827 19.8579 15.8959C19.4711 15.5091 19.2538 14.9845 19.2538 14.4375C19.2538 13.8905 19.4711 13.3659 19.8579 12.9791C20.2446 12.5923 20.7693 12.375 21.3163 12.375C21.551 12.3772 21.7836 12.42 22.0038 12.5015V8.25C19.4517 8.25094 16.9794 9.1392 15.0104 10.7626C13.0413 12.3861 11.6979 14.6436 11.2104 17.1487C10.7229 19.6537 11.1215 22.2503 12.3381 24.4937C13.5546 26.7371 15.5134 28.4877 17.8788 29.4456V30.5938H18.91V29.4456C18.9098 29.2401 18.8482 29.0393 18.733 28.869C18.6179 28.6987 18.4545 28.5667 18.2638 28.49C16.5839 27.8149 15.1207 26.6932 14.0325 25.2463C12.9443 23.7994 12.2726 22.0825 12.09 20.2812V19.25H15.2525C15.172 19.4703 15.1301 19.7029 15.1288 19.9375C15.1288 20.4845 15.3461 21.0091 15.7329 21.3959C16.1196 21.7827 16.6443 22 17.1913 22C17.7383 22 18.2629 21.7827 18.6497 21.3959C19.0365 21.0091 19.2538 20.4845 19.2538 19.9375C19.2515 19.7028 19.2087 19.4702 19.1273 19.25H22.0038V16.3735C21.7836 16.455 21.551 16.4978 21.3163 16.5Z" fill="black"/>
<path d="M28.875 18.5629C28.8773 18.2611 28.8134 17.9625 28.6878 17.6882C28.5622 17.4138 28.3779 17.1703 28.1479 16.975C27.9179 16.7796 27.6478 16.6371 27.3568 16.5575C27.0657 16.4778 26.7607 16.4631 26.4633 16.5142C26.1659 16.5653 25.8833 16.681 25.6355 16.8532C25.3877 17.0254 25.1807 17.2499 25.0292 17.5108C24.8776 17.7718 24.7851 18.0628 24.7582 18.3633C24.7314 18.6639 24.7708 18.9667 24.8738 19.2504H22V22.1241C22.3115 22.0111 22.6457 21.9747 22.9743 22.0182C23.3028 22.0617 23.616 22.1837 23.8874 22.3739C24.1588 22.5641 24.3804 22.8169 24.5333 23.1109C24.6863 23.4049 24.7662 23.7315 24.7662 24.0629C24.7662 24.3943 24.6863 24.7208 24.5333 25.0148C24.3804 25.3088 24.1588 25.5616 23.8874 25.7518C23.616 25.9421 23.3028 26.0641 22.9743 26.1076C22.6457 26.151 22.3115 26.1147 22 26.0016V30.5941H26.125V29.446C28.1553 28.6234 29.894 27.2138 31.1187 25.3976C32.3435 23.5813 32.9985 21.441 33 19.2504H28.7512C28.8313 19.0299 28.8731 18.7974 28.875 18.5629Z" fill="black"/>
<path d="M26.8125 11C27.0472 10.9978 27.2798 10.955 27.5 10.8735V13.75H30.3765C30.295 13.5298 30.2522 13.2972 30.25 13.0625C30.25 12.5155 30.4673 11.9909 30.8541 11.6041C31.2409 11.2173 31.7655 11 32.3125 11C32.8595 11 33.3841 11.2173 33.7709 11.6041C34.1577 11.9909 34.375 12.5155 34.375 13.0625C34.3728 13.2972 34.33 13.5298 34.2485 13.75H38.5C38.5 10.8326 37.3411 8.03473 35.2782 5.97183C33.2153 3.90893 30.4174 2.75 27.5 2.75V7.0015C27.2798 6.92002 27.0472 6.87722 26.8125 6.875C26.2655 6.875 25.7409 7.0923 25.3541 7.47909C24.9673 7.86589 24.75 8.39049 24.75 8.9375C24.75 9.48451 24.9673 10.0091 25.3541 10.3959C25.7409 10.7827 26.2655 11 26.8125 11Z" fill="black"/>
<path d="M22 6.53125C22.1368 6.53125 22.2679 6.47693 22.3646 6.38023C22.4613 6.28353 22.5156 6.15238 22.5156 6.01562V3.26562C22.5156 3.12887 22.4613 2.99772 22.3646 2.90102C22.2679 2.80432 22.1368 2.75 22 2.75C21.8632 2.75 21.7321 2.80432 21.6354 2.90102C21.5387 2.99772 21.4844 3.12887 21.4844 3.26562V6.01562C21.4844 6.15238 21.5387 6.28353 21.6354 6.38023C21.7321 6.47693 21.8632 6.53125 22 6.53125Z" fill="black"/>
<path d="M15.6409 8.23491C15.7594 8.16646 15.8458 8.05381 15.8812 7.92168C15.9167 7.78956 15.8982 7.64877 15.83 7.53023L14.455 5.14873C14.4211 5.09004 14.376 5.0386 14.3223 4.99734C14.2686 4.95608 14.2072 4.9258 14.1418 4.90825C14.0096 4.87279 13.8688 4.89129 13.7503 4.95966C13.6318 5.02804 13.5453 5.1407 13.5098 5.27285C13.4744 5.405 13.4928 5.54583 13.5612 5.66435L14.9362 8.04585C15.0047 8.16429 15.1173 8.25072 15.2495 8.28617C15.3816 8.32161 15.5224 8.30318 15.6409 8.23491Z" fill="black"/>
<path d="M10.9849 12.8909C11.0532 12.7724 11.0716 12.6316 11.0362 12.4995C11.0007 12.3673 10.9143 12.2547 10.7959 12.1862L8.41435 10.8112C8.29583 10.7428 8.155 10.7244 8.02285 10.7598C7.8907 10.7953 7.77804 10.8818 7.70966 11.0003C7.64129 11.1188 7.62279 11.2596 7.65825 11.3918C7.6937 11.5239 7.78021 11.6366 7.89872 11.705L10.2802 13.08C10.3988 13.1482 10.5396 13.1667 10.6717 13.1312C10.8038 13.0958 10.9165 13.0094 10.9849 12.8909Z" fill="black"/>
<path d="M9.28125 19.25C9.28125 19.1132 9.22693 18.9821 9.13023 18.8854C9.03353 18.7887 8.90238 18.7344 8.76562 18.7344H6.01562C5.87887 18.7344 5.74772 18.7887 5.65102 18.8854C5.55432 18.9821 5.5 19.1132 5.5 19.25C5.5 19.3868 5.55432 19.5179 5.65102 19.6146C5.74772 19.7113 5.87887 19.7656 6.01562 19.7656H8.76562C8.90238 19.7656 9.03353 19.7113 9.13023 19.6146C9.22693 19.5179 9.28125 19.3868 9.28125 19.25Z" fill="black"/>
<path d="M10.9849 25.6093C10.9165 25.4908 10.8038 25.4044 10.6717 25.369C10.5396 25.3335 10.3988 25.3519 10.2802 25.4202L7.89872 26.7952C7.78021 26.8636 7.6937 26.9762 7.65825 27.1084C7.62279 27.2406 7.64129 27.3814 7.70966 27.4999C7.77804 27.6184 7.8907 27.7049 8.02285 27.7404C8.155 27.7758 8.29583 27.7573 8.41435 27.689L10.7959 26.314C10.9143 26.2455 11.0007 26.1329 11.0362 26.0007C11.0716 25.8686 11.0532 25.7278 10.9849 25.6093Z" fill="black"/>
<path d="M33.0142 25.6093C32.9459 25.7278 32.9275 25.8686 32.9629 26.0007C32.9984 26.1329 33.0848 26.2455 33.2033 26.314L35.5848 27.689C35.7033 27.7573 35.8441 27.7758 35.9763 27.7404C36.1084 27.7049 36.2211 27.6184 36.2895 27.4999C36.3578 27.3814 36.3763 27.2406 36.3409 27.1084C36.3054 26.9762 36.2189 26.8636 36.1004 26.7952L33.7189 25.4202C33.6003 25.3519 33.4596 25.3335 33.3274 25.369C33.1953 25.4044 33.0827 25.4908 33.0142 25.6093Z" fill="black"/>
<path d="M34.7188 19.25C34.7188 19.3868 34.7731 19.5179 34.8698 19.6146C34.9665 19.7113 35.0976 19.7656 35.2344 19.7656H37.9844C38.1211 19.7656 38.2523 19.7113 38.349 19.6146C38.4457 19.5179 38.5 19.3868 38.5 19.25C38.5 19.1132 38.4457 18.9821 38.349 18.8854C38.2523 18.7887 38.1211 18.7344 37.9844 18.7344H35.2344C35.0976 18.7344 34.9665 18.7887 34.8698 18.8854C34.7731 18.9821 34.7188 19.1132 34.7188 19.25Z" fill="black"/>
<path d="M23.8906 38.5C23.8906 38.6368 23.8363 38.7679 23.7396 38.8646C23.6429 38.9613 23.5118 39.0156 23.375 39.0156C23.2382 39.0156 23.1071 38.9613 23.0104 38.8646C22.9137 38.7679 22.8594 38.6368 22.8594 38.5V36.7812H21.1406V38.5C21.1406 38.6368 21.0863 38.7679 20.9896 38.8646C20.8929 38.9613 20.7618 39.0156 20.625 39.0156C20.4882 39.0156 20.3571 38.9613 20.2604 38.8646C20.1637 38.7679 20.1094 38.6368 20.1094 38.5V36.7812H17.875V38.5C17.875 39.2293 18.1647 39.9288 18.6805 40.4445C19.1962 40.9603 19.8957 41.25 20.625 41.25H23.375C24.1043 41.25 24.8038 40.9603 25.3195 40.4445C25.8353 39.9288 26.125 39.2293 26.125 38.5V36.7812H23.8906V38.5Z" fill="black"/>
</svg>
