<svg width="44" height="44" viewBox="0 0 44 44" fill="none" xmlns="http://www.w3.org/2000/svg">
<g clip-path="url(#clip0_3_2691)">
<path d="M42.2067 38.6764H40.6499V17.5812C40.6499 16.7191 39.947 16.0203 39.0848 16.0203H24.1663C24.3211 15.7776 24.409 15.5224 24.409 15.2545V11.0447C24.409 10.5634 24.137 10.1283 23.6683 9.73905C24.137 9.34984 24.409 8.91465 24.409 8.42919V4.22358C24.409 1.90524 18.3328 0.658203 12.6164 0.658203C6.90012 0.658203 0.828125 1.90524 0.828125 4.22358V8.42919C0.828125 8.91456 1.09178 9.34984 1.56461 9.73905C1.0917 10.1283 0.828125 10.5634 0.828125 11.0447V15.2545C0.828125 15.7358 1.09591 16.1752 1.56461 16.5644C1.09591 16.9494 0.828125 17.3846 0.828125 17.87V22.0756C0.828125 23.67 3.69466 24.7539 7.34373 25.2811V38.6764H5.78285C5.25141 38.6764 4.81623 39.1116 4.81623 39.6432V42.3758C4.81623 42.9072 5.25141 43.3425 5.78285 43.3425H42.2067C42.7423 43.3425 43.1733 42.9073 43.1733 42.3758V39.6432C43.1733 39.1116 42.7422 38.6764 42.2067 38.6764ZM39.0848 16.8573C39.4866 16.8573 39.813 17.1836 39.813 17.5812V38.6764H8.18068V25.3899C8.60332 25.4401 9.0343 25.4819 9.46948 25.5155V36.1907C9.46948 36.8477 10.0093 37.3875 10.6663 37.3875H37.323C37.9842 37.3875 38.5199 36.8477 38.5199 36.1907V19.343C38.5199 18.6818 37.9842 18.1461 37.323 18.1461H24.409V17.8699C24.409 17.5059 24.25 17.1669 23.9696 16.8573H39.0848ZM26.56 40.5888H21.4295C21.329 40.5888 21.2495 40.5093 21.2495 40.4089V39.5133H26.744C26.6939 40.1536 26.8655 40.5888 26.56 40.5888ZM24.409 22.0755V18.983H37.3231C37.524 18.983 37.683 19.1462 37.683 19.3429V23.5068H31.2552L29.0876 21.4395C29.0122 21.3642 28.9076 21.3224 28.7988 21.3224H26.8153C26.5851 21.3224 26.3968 21.5107 26.3968 21.7409C26.3968 21.971 26.5851 22.1593 26.8153 22.1593H28.6314L30.7991 24.2308C30.8745 24.3061 30.979 24.3438 31.0878 24.3438H37.6829V28.0849H31.2552L29.0875 26.0135C29.0121 25.9382 28.9075 25.8963 28.7987 25.8963H27.1918C26.9951 24.8836 26.1037 24.1136 25.0324 24.1136C23.8188 24.1136 22.8312 25.1012 22.8312 26.3148C22.8312 27.5326 23.8188 28.5202 25.0324 28.5202C26.1037 28.5202 26.9951 27.7502 27.1918 26.7333H28.6313L30.799 28.8047C30.8744 28.88 30.979 28.9218 31.0877 28.9218H37.6829V32.6588H31.4643C31.2676 31.6461 30.3721 30.8761 29.3051 30.8761C28.0872 30.8761 27.0997 31.8637 27.0997 33.0774C27.0997 34.291 28.0872 35.2786 29.3051 35.2786C30.3721 35.2786 31.2677 34.5128 31.4643 33.4959H37.6829V36.1909C37.6829 36.3876 37.5238 36.5508 37.3229 36.5508H10.6664C10.4697 36.5508 10.3065 36.3876 10.3065 36.1909V25.574C11.0724 25.62 11.8465 25.6409 12.6165 25.6409C18.3328 25.641 24.409 24.3939 24.409 22.0755ZM26.3968 26.3147C26.3968 27.0679 25.7857 27.6831 25.0325 27.6831C24.2793 27.6831 23.6683 27.0679 23.6683 26.3147C23.6683 25.5656 24.2793 24.9504 25.0325 24.9504C25.7857 24.9504 26.3968 25.5656 26.3968 26.3147ZM30.6694 33.0772C30.6694 33.8304 30.0542 34.4414 29.3051 34.4414C28.5519 34.4414 27.9368 33.8305 27.9368 33.0772C27.9368 32.3239 28.5519 31.7129 29.3051 31.7129C30.0542 31.713 30.6694 32.3239 30.6694 33.0772ZM12.6164 1.49515C19.404 1.49515 23.5721 3.08534 23.5721 4.22358C23.5721 5.36182 19.404 6.95201 12.6164 6.95201C5.82883 6.95201 1.66507 5.36182 1.66507 4.22358C1.66507 3.08534 5.82883 1.49515 12.6164 1.49515ZM2.29697 10.2203C4.44369 11.3836 8.61587 11.9946 12.6164 11.9946C16.6171 11.9946 20.7892 11.3837 22.936 10.2203C23.3503 10.5048 23.5721 10.7852 23.5721 11.0447C23.5721 12.1871 19.404 13.7731 12.6164 13.7731C5.82883 13.7731 1.66507 12.1871 1.66507 11.0447C1.66507 10.7852 1.88266 10.5048 2.29697 10.2203ZM1.66507 17.8699C1.66507 17.6105 1.88687 17.3301 2.30109 17.0455C4.4479 18.2048 8.62008 18.8199 12.6164 18.8199C16.6171 18.8199 20.7892 18.2048 22.936 17.0455C23.3503 17.326 23.5721 17.6105 23.5721 17.8699C23.5721 19.0082 19.404 20.5984 12.6164 20.5984C5.82883 20.5984 1.66507 19.0082 1.66507 17.8699ZM42.3364 42.3757C42.3364 42.4469 42.2778 42.5055 42.2067 42.5055H5.78285C5.7117 42.5055 5.65317 42.4469 5.65317 42.3757V39.6431C5.65317 39.5719 5.7117 39.5133 5.78285 39.5133H20.4127V40.4089C20.4127 40.9696 20.8687 41.4258 21.4296 41.4258H26.56C27.125 41.4258 27.5811 40.9696 27.5811 40.4089V39.5133H42.2067C42.2778 39.5133 42.3364 39.5719 42.3364 39.6431V42.3757Z" fill="black"/>
</g>
<defs>
<clipPath id="clip0_3_2691">
<rect width="44" height="44" fill="white"/>
</clipPath>
</defs>
</svg>
