<svg width="44" height="44" viewBox="0 0 44 44" fill="none" xmlns="http://www.w3.org/2000/svg">
<g clip-path="url(#clip0_3_2722)">
<path d="M25.4814 10.3281C26.5721 9.23743 28.0254 8.63477 29.5694 8.63477C31.1108 8.63477 32.5627 9.2361 33.6547 10.3281C35.9068 12.5828 35.9068 16.2494 33.6547 18.5028C32.5641 19.5934 31.1108 20.1961 29.5668 20.1961C28.0254 20.1961 26.5721 19.5948 25.4814 18.5028C24.3907 17.4108 23.7881 15.9601 23.7881 14.4174C23.7894 12.8721 24.3907 11.4201 25.4814 10.3281ZM26.3961 17.5881L32.7428 11.2414C31.8948 10.3934 30.7681 9.92677 29.5707 9.92677C28.3707 9.92677 27.2441 10.3948 26.3961 11.2414C25.5481 12.0881 25.0814 13.2174 25.0814 14.4161C25.0814 15.6148 25.5481 16.7414 26.3961 17.5881Z" fill="#010101"/>
<path d="M9.09417 23.791C9.24083 24.5257 9.68217 26.0337 10.8888 27.8764L8.61817 30.1497C7.95417 30.811 7.95417 31.8924 8.61817 32.5537L11.4275 35.363C11.7475 35.683 12.1755 35.8604 12.6302 35.863C13.0862 35.863 13.5142 35.6857 13.8328 35.3657L16.1035 33.095C17.9502 34.2977 19.4555 34.7403 20.1875 34.8897C18.0142 37.6243 12.7022 42.5177 3.62616 40.3563C1.4675 31.2803 6.36083 25.9657 9.09417 23.791Z" fill="#010101"/>
<path d="M1.10398 20.5036C7.16397 13.5036 15.0386 12.6183 17.2173 12.4983C25.768 2.47559 33.2106 0.684927 37.364 0.683594C40.3106 0.683594 42.0573 1.52226 42.1293 1.55693L42.328 1.65559L42.4253 1.85426C42.6826 2.37826 47.6253 13.1583 31.488 26.8049C31.368 29.0263 30.4453 36.8489 23.4786 42.8809C23.3386 43.0009 22.9773 43.3156 22.5573 43.3156C22.4346 43.3156 22.3066 43.2889 22.1773 43.2223C21.52 42.8809 21.6066 42.0116 21.7653 40.4303C21.9653 38.4516 22.2493 35.5009 20.9733 33.7969C20.252 33.6716 18.3093 33.1583 15.9733 31.3783L13.424 33.9249C13.2173 34.1329 12.9413 34.2476 12.6466 34.2476C12.3533 34.2476 12.0773 34.1329 11.8706 33.9249L10.0573 32.1156C9.63064 31.6863 9.63064 30.9876 10.0573 30.5609L12.5986 28.0196C10.8093 25.6756 10.3106 23.7329 10.184 23.0116C8.48397 21.7356 5.53464 22.0183 3.55064 22.2196C1.97331 22.3756 1.10264 22.4689 0.761311 21.8076C0.467976 21.2383 0.946644 20.6863 1.10398 20.5036ZM41.3573 10.8423C39.4586 10.3329 37.6306 9.29826 36.1586 7.82626C34.6773 6.34493 33.6373 4.50359 33.1306 2.58893C28.2346 3.93693 21.396 8.00626 13.9066 18.9809C14.6493 20.7103 15.6373 22.3129 16.824 23.7943L20.6293 19.9889C21.044 19.5756 21.768 19.5769 22.1813 19.9903L23.9946 21.8036C24.4226 22.2316 24.424 22.9263 23.996 23.3569L20.1786 27.1743C21.6626 28.3596 23.2746 29.3383 25.0093 30.0809C35.872 22.6663 39.9893 15.8529 41.3573 10.8423ZM23.052 40.5596C23.0173 40.9063 22.9773 41.2943 22.956 41.6196C28.248 36.8543 29.6773 30.8823 30.0653 27.9743C27.8413 29.7423 25.256 31.5556 22.2586 33.3956C23.5453 35.4969 23.2586 38.5023 23.052 40.5596ZM21.2133 32.5303C22.1013 31.9916 22.94 31.4543 23.7546 30.9183C22.1533 30.1609 20.6493 29.2156 19.256 28.0929L16.8973 30.4503C18.9666 31.9809 20.6586 32.4289 21.2133 32.5303ZM12.6466 32.8743L22.9426 22.5796L21.404 21.0409L11.108 31.3356L12.6466 32.8743ZM13.5266 27.0929L15.9026 24.7156C14.7813 23.3249 13.8253 21.8316 13.0693 20.2343C12.532 21.0529 11.9946 21.8769 11.4533 22.7703C11.5546 23.3249 11.988 25.0209 13.5266 27.0929ZM3.42264 20.9329C5.48397 20.7236 8.48931 20.4383 10.5906 21.7289C12.4346 18.7276 14.2533 16.1476 16.0306 13.9289C13.132 14.3129 7.15064 15.7103 2.36398 21.0276C2.69064 21.0049 3.07864 20.9676 3.42264 20.9329Z" fill="#010101"/>
</g>
<defs>
<clipPath id="clip0_3_2722">
<rect width="44" height="44" fill="white" transform="matrix(-1 0 0 1 44 0)"/>
</clipPath>
</defs>
</svg>
