<svg width="1349" height="599" viewBox="0 0 1349 599" fill="none" xmlns="http://www.w3.org/2000/svg">
<g opacity="0.04">
<path d="M156.303 605.493L0 571.744L16.2447 496.581C18.4041 486.59 21.3662 478.752 25.1309 473.069C28.7442 467.353 33.1827 463.32 38.4461 460.97C43.5582 458.588 49.5014 457.495 56.2758 457.69C63.0502 457.885 70.6782 458.898 79.1597 460.73C86.884 462.398 93.8716 464.54 100.122 467.158C106.255 469.591 111.308 472.979 115.284 477.324C119.292 481.517 121.896 487.07 123.097 493.984C124.297 500.898 123.769 509.578 121.511 520.024L113.953 554.993L164.843 565.982L156.303 605.493ZM83.9649 548.518L88.2347 528.763C89.4125 523.313 90.0257 519.009 90.0743 515.85C90.1555 512.54 89.6025 509.965 88.4151 508.124C87.0762 506.25 85.0171 504.776 82.2375 503.7C79.3066 502.592 75.4178 501.515 70.5711 500.468C65.7245 499.422 61.7376 498.799 58.6103 498.599C55.5157 498.247 53.0476 498.665 51.2058 499.852C49.2126 501.006 47.6616 503.048 46.5529 505.978C45.2927 508.874 44.09 512.972 42.9449 518.271L38.5279 538.707L83.9649 548.518Z" fill="#0C0F14"/>
<path d="M209.503 442.246C204.651 451.594 200.069 459.076 195.757 464.692C191.446 470.308 187.124 474.261 182.793 476.551C178.462 478.842 173.805 479.742 168.823 479.252C163.84 478.762 158.112 477.187 151.637 474.527C145.234 471.73 137.768 468.12 129.241 463.698C120.713 459.275 113.531 455.289 107.693 451.738C101.789 447.978 97.2022 444.204 93.9323 440.414C90.6625 436.625 88.7174 432.301 88.097 427.443C87.4767 422.585 88.2907 416.813 90.5392 410.127C92.6501 403.37 96.1318 395.317 100.984 385.969C105.908 376.483 110.526 368.933 114.837 363.317C119.011 357.63 123.264 353.641 127.595 351.351C131.926 349.06 136.583 348.16 141.566 348.65C146.548 349.14 152.241 350.784 158.644 353.581C164.982 356.17 172.414 359.675 180.941 364.097C189.469 368.52 196.685 372.61 202.588 376.37C208.564 379.992 213.186 383.698 216.456 387.487C219.726 391.277 221.671 395.601 222.291 400.459C222.912 405.317 222.167 411.125 220.056 417.882C217.945 424.639 214.427 432.76 209.503 442.246ZM184.334 429.193C186.474 425.069 187.876 421.696 188.539 419.073C189.202 416.451 188.821 414.159 187.395 412.198C185.969 410.237 183.297 408.154 179.38 405.948C175.534 403.605 170.31 400.721 163.708 397.297C157.106 393.874 151.808 391.301 147.814 389.579C143.892 387.719 140.718 386.771 138.293 386.735C135.868 386.698 133.774 387.706 132.01 389.758C130.247 391.81 128.295 394.898 126.154 399.022C124.013 403.146 122.611 406.52 121.948 409.142C121.357 411.627 121.774 413.85 123.2 415.811C124.626 417.771 127.193 419.888 130.902 422.16C134.682 424.295 139.872 427.074 146.474 430.498C153.076 433.921 158.407 436.599 162.467 438.53C166.599 440.323 169.877 441.238 172.302 441.274C174.727 441.31 176.785 440.371 178.477 438.457C180.241 436.405 182.193 433.317 184.334 429.193Z" fill="#0C0F14"/>
<path d="M239.817 387.373L147.855 312.616L170.146 285.221L186.421 297.253L187.741 295.63C184.662 290.333 182.886 285.396 182.415 280.82C182.042 276.125 182.889 271.524 184.958 267.017C187.028 262.511 190.066 257.794 194.075 252.868L220.582 274.416C214.422 281.985 210.544 288.715 208.948 294.604C207.352 300.493 208.165 306.244 211.386 311.858C214.488 317.374 220.186 323.503 228.48 330.246L263.282 358.536L239.817 387.373Z" fill="#0C0F14"/>
<path d="M297.301 321.234L236.926 254.278L220.869 268.743L201.885 247.689L217.942 233.225L194.912 207.685L222.881 182.488L245.911 208.028L265.075 190.764L284.059 211.818L264.895 229.082L325.271 296.038L297.301 321.234Z" fill="#0C0F14"/>
<path d="M358.306 270.219L308.861 194.837L290.59 206.81L275.043 183.108L293.314 171.134L288.854 164.335C283.926 156.822 280.387 150.438 278.235 145.18C275.999 139.794 275.155 134.976 275.704 130.728C276.252 126.479 278.217 122.413 281.599 118.53C285.026 114.433 289.829 110.174 296.009 105.754C302.233 101.12 309.816 95.873 318.757 90.0137L332.775 111.385C327.462 114.866 323.271 117.798 320.201 120.18C317.261 122.477 315.311 124.589 314.351 126.514C313.305 128.31 313.076 130.22 313.662 132.244C314.293 134.053 315.585 136.447 317.539 139.426L324.803 150.5L348.322 135.087L363.869 158.79L340.35 174.202L389.795 249.584L358.306 270.219Z" fill="#0C0F14"/>
<path d="M465.538 213.067C455.843 217.191 447.544 220.047 440.643 221.636C433.742 223.225 427.891 223.525 423.092 222.537C418.293 221.549 414.128 219.281 410.597 215.733C407.066 212.185 403.65 207.326 400.349 201.156C397.191 194.925 393.731 187.392 389.969 178.556C386.208 169.721 383.206 162.077 380.964 155.624C378.804 148.969 377.669 143.14 377.56 138.137C377.451 133.134 378.703 128.561 381.318 124.419C383.933 120.277 388.236 116.343 394.228 112.616C400.158 108.747 407.971 104.751 417.666 100.627C427.504 96.4424 435.874 93.5557 442.775 91.9667C449.616 90.2353 455.436 89.8637 460.235 90.8521C465.034 91.8406 469.199 94.1085 472.73 97.6561C476.262 101.204 479.606 106.093 482.764 112.324C486.004 118.352 489.505 125.783 493.267 134.619C497.029 143.455 499.989 151.2 502.149 157.856C504.452 164.451 505.658 170.249 505.767 175.252C505.877 180.256 504.624 184.828 502.009 188.97C499.394 193.112 495.121 197.117 489.191 200.986C483.26 204.856 475.376 208.882 465.538 213.067ZM454.435 186.988C458.712 185.168 461.941 183.458 464.122 181.857C466.303 180.256 467.468 178.246 467.617 175.826C467.766 173.406 467.031 170.1 465.414 165.907C463.94 161.652 461.747 156.105 458.834 149.265C455.922 142.424 453.474 137.07 451.49 133.201C449.648 129.271 447.804 126.521 445.956 124.95C444.109 123.38 441.852 122.825 439.185 123.286C436.519 123.747 433.047 124.887 428.77 126.706C424.492 128.525 421.263 130.236 419.082 131.837C417.043 133.377 415.95 135.357 415.801 137.777C415.653 140.196 416.285 143.462 417.699 147.573C419.255 151.624 421.49 157.07 424.402 163.911C427.314 170.751 429.721 176.207 431.624 180.279C433.668 184.291 435.614 187.082 437.462 188.653C439.309 190.223 441.495 190.808 444.019 190.408C446.685 189.947 450.157 188.807 454.435 186.988Z" fill="#0C0F14"/>
<path d="M525.238 189.54L481.365 22.5936L517.783 13.0323L561.656 179.979L525.238 189.54Z" fill="#0C0F14"/>
<path d="M555.216 35.802L550.342 6.23214L588.182 0L593.056 29.5699L555.216 35.802ZM578.877 176.47L559.605 59.5658L596.757 53.4469L616.029 170.351L578.877 176.47Z" fill="#0C0F14"/>
<path d="M680.222 167.697C669.689 167.954 660.921 167.548 653.92 166.479C646.92 165.41 641.371 163.531 637.276 160.842C633.181 158.153 630.147 154.509 628.175 149.909C626.203 145.309 624.822 139.533 624.033 132.581C623.398 125.625 622.964 117.347 622.73 107.748C622.496 98.1483 622.528 89.9366 622.827 83.1128C623.277 76.1303 624.375 70.294 626.12 65.6038C627.866 60.9136 630.719 57.1261 634.678 54.2411C638.638 51.356 644.09 49.2868 651.034 48.0333C657.975 46.6249 666.712 45.7925 677.245 45.5361C687.934 45.2759 696.778 45.6802 703.779 46.7492C710.776 47.6633 716.322 49.4648 720.418 52.1537C724.513 54.8426 727.547 58.4869 729.519 63.0865C731.491 67.6862 732.794 73.4641 733.429 80.4201C734.214 87.2176 734.724 95.4161 734.958 105.016C735.192 114.615 735.084 122.906 734.634 129.889C734.339 136.867 733.319 142.702 731.573 147.392C729.828 152.082 726.975 155.87 723.016 158.755C719.056 161.64 713.606 163.786 706.665 165.195C699.725 166.603 690.91 167.437 680.222 167.697ZM679.532 139.363C684.179 139.25 687.811 138.852 690.43 138.169C693.048 137.485 694.873 136.046 695.904 133.852C696.936 131.658 697.474 128.314 697.52 123.821C697.72 119.323 697.73 113.358 697.549 105.926C697.368 98.4945 697.069 92.6147 696.654 88.287C696.393 83.9555 695.695 80.7191 694.557 78.5779C693.42 76.4366 691.527 75.0884 688.879 74.5332C686.23 73.978 682.583 73.757 677.936 73.8701C673.288 73.9832 669.656 74.3815 667.037 75.0649C664.574 75.7446 662.827 77.1815 661.795 79.3755C660.764 81.5695 660.146 84.8379 659.942 89.1807C659.892 93.5198 659.958 99.4052 660.139 106.837C660.32 114.269 660.543 120.228 660.807 124.714C661.227 129.197 662.005 132.509 663.142 134.65C664.279 136.791 666.095 138.141 668.588 138.7C671.237 139.256 674.884 139.477 679.532 139.363Z" fill="#0C0F14"/>
<path d="M777.012 166.097L868.112 25.3127L921.241 39.8529L928.105 207.447L888.651 196.649L887.746 163.885L832.823 148.854L815.57 176.649L777.012 166.097ZM849.159 121.771L887.268 132.201L885.581 66.2236L884.012 65.7942L849.159 121.771Z" fill="#0C0F14"/>
<path d="M944.647 274.135C940.278 271.791 935.778 269.2 931.147 266.363C926.578 263.736 922.357 261.118 918.481 258.511C914.605 255.904 911.449 253.595 909.012 251.584L921.216 228.864C924.009 230.539 927.044 232.256 930.321 234.014C933.524 235.909 936.764 237.736 940.04 239.494C943.453 241.325 946.661 243.047 949.665 244.659C956.354 248.249 961.688 250.76 965.667 252.192C969.71 253.834 973.058 254.313 975.712 253.628C978.43 253.152 980.836 251.455 982.932 248.537C984.954 245.755 987.358 241.771 990.143 236.586L994.101 229.217L992.463 228.338C988.509 230.787 984.518 232.161 980.488 232.459C976.668 232.695 972.801 232.201 968.885 230.978C964.969 229.756 960.963 228.046 956.867 225.848C950.588 222.478 945.703 218.802 942.214 214.82C938.799 210.701 936.683 205.963 935.869 200.604C935.264 195.181 936.18 188.729 938.616 181.247C941.053 173.765 945.019 164.907 950.517 154.673C956.087 144.303 961.319 136.036 966.213 129.873C971.243 123.783 976.186 119.492 981.042 117C985.898 114.508 990.95 113.615 996.198 114.322C1001.52 114.893 1007.25 116.827 1013.4 120.124C1017.22 122.175 1020.75 124.599 1024 127.396C1027.45 130.129 1030.2 133.362 1032.24 137.094C1034.42 140.899 1035.47 145.33 1035.39 150.386L1037.03 151.265L1044.67 139.014L1076 155.828L1026.3 248.343C1021.39 257.485 1016.62 265.211 1012 271.521C1007.38 277.831 1002.19 282.253 996.435 284.788C990.739 287.533 983.756 288.092 975.484 286.466C967.349 284.912 957.07 280.802 944.647 274.135ZM985.605 206.727C989.564 208.852 992.787 210.054 995.275 210.335C997.972 210.552 1000.42 209.757 1002.62 207.95C1004.75 206.28 1006.8 203.948 1008.75 200.957C1010.79 197.828 1013.01 194.013 1015.43 189.51C1017.78 185.143 1019.69 181.249 1021.18 177.828C1022.8 174.48 1023.62 171.489 1023.62 168.856C1024.06 165.751 1023.41 163.203 1021.66 161.212C1020.13 159.158 1017.38 157.068 1013.42 154.944C1009.74 152.966 1006.65 151.663 1004.18 151.037C1001.77 150.274 999.584 150.418 997.612 151.47C995.777 152.594 993.77 154.857 991.591 158.258C989.413 161.66 986.711 166.362 983.486 172.366C980.26 178.37 977.868 183.151 976.309 186.709C974.749 190.267 973.971 193.189 973.974 195.476C974.186 197.699 975.238 199.67 977.129 201.388C979.094 202.969 981.919 204.749 985.605 206.727Z" fill="#0C0F14"/>
<path d="M1067.16 302.185C1058.64 294.991 1052.04 288.514 1047.38 282.754C1042.71 276.993 1039.67 271.59 1038.26 266.544C1037.06 261.48 1037.18 256.414 1038.62 251.346C1040.18 246.379 1042.87 241.151 1046.7 235.662C1050.64 230.274 1055.46 224.207 1061.16 217.461C1068.05 209.295 1074.36 202.553 1080.06 197.235C1085.89 192.018 1091.76 188.664 1097.69 187.175C1103.61 185.686 1110.16 186.451 1117.34 189.471C1124.74 192.473 1133.36 198.12 1143.18 206.412C1151.12 213.106 1157.07 219.143 1161.04 224.522C1165.12 229.783 1167.58 234.796 1168.42 239.561C1169.48 244.307 1169.05 249.014 1167.14 253.682C1165.34 258.449 1162.42 263.587 1158.38 269.094C1154.44 274.482 1149.62 280.549 1143.92 287.295L1138.07 294.218L1083.55 248.212C1080.15 252.235 1077.58 255.64 1075.83 258.425C1074.19 261.091 1073.64 263.666 1074.18 266.148C1074.72 268.63 1076.39 271.457 1079.18 274.628C1082.08 277.68 1086.37 281.604 1092.05 286.4C1094.3 288.298 1097.02 290.486 1100.2 292.966C1103.37 295.445 1106.72 297.965 1110.24 300.525C1113.87 303.186 1117.27 305.647 1120.43 307.908L1103.63 327.79C1100.53 326.184 1096.88 324.019 1092.69 321.295C1088.62 318.671 1084.36 315.68 1079.9 312.32C1075.43 308.96 1071.19 305.581 1067.16 302.185ZM1121.3 259.696L1123.7 256.856C1127.3 252.595 1129.91 249.023 1131.53 246.138C1133.28 243.353 1134.12 240.919 1134.05 238.836C1134.2 236.735 1133.54 234.758 1132.06 232.904C1130.59 231.051 1128.49 228.975 1125.77 226.677C1122.69 224.08 1120 222.218 1117.71 221.093C1115.63 219.95 1113.57 219.629 1111.52 220.132C1109.48 220.634 1107.23 221.978 1104.77 224.164C1102.32 226.349 1099.39 229.454 1095.99 233.478L1126.72 259.403L1121.3 259.696Z" fill="#0C0F14"/>
<path d="M1108.75 335.749L1203.47 264.507L1224.71 292.722L1213.76 302.125L1215.01 303.796C1219.63 303.231 1223.89 303.611 1227.8 304.936C1231.83 306.169 1235.52 308.238 1238.87 311.144C1242.35 313.958 1245.62 317.406 1248.7 321.49C1253.45 327.801 1256.42 333.418 1257.6 338.341C1258.88 343.388 1258.72 348.066 1257.12 352.374C1255.51 356.682 1252.65 360.869 1248.54 364.933C1244.51 369.121 1239.47 373.497 1233.4 378.06L1174.16 422.621L1151.66 392.736L1201.8 355.019C1206.88 351.201 1210.75 348.097 1213.41 345.708C1216.19 343.225 1217.94 341.039 1218.65 339.148C1219.36 337.257 1219.14 335.291 1217.99 333.248C1217.06 331.236 1215.47 328.746 1213.24 325.776C1210.91 322.682 1208.63 320.424 1206.39 319.003C1204.38 317.612 1202.19 317.027 1199.84 317.248C1197.57 317.592 1194.82 318.697 1191.57 320.56C1188.53 322.455 1184.85 325.032 1180.52 328.291L1131.12 365.449L1108.75 335.749Z" fill="#0C0F14"/>
<path d="M1193.7 473.014C1189.6 463.991 1187.01 456.237 1185.93 449.751C1184.99 443.202 1185.23 437.562 1186.66 432.832C1188.22 428.038 1190.91 423.84 1194.71 420.238C1198.52 416.635 1203.22 413.309 1208.81 410.257C1214.55 407.142 1220.94 403.981 1227.99 400.776C1234.9 397.635 1241.35 394.962 1247.32 392.756C1253.3 390.551 1258.93 389.269 1264.21 388.909C1269.63 388.485 1274.64 389.19 1279.21 391.022C1283.86 392.995 1288.24 396.449 1292.35 401.384C1296.67 406.395 1300.86 413.341 1304.9 422.224C1307.46 427.863 1309.75 433.631 1311.75 439.527C1313.81 445.563 1315.31 451.094 1316.23 456.119L1292.32 466.984C1291.46 463.972 1290.15 460.146 1288.38 455.507C1286.67 451.008 1284.95 446.855 1283.22 443.049C1280.98 438.114 1278.79 434.429 1276.66 431.994C1274.67 429.495 1272.3 428.021 1269.54 427.573C1266.93 427.06 1263.52 427.42 1259.31 428.651C1255.17 430.023 1249.92 432.151 1243.58 435.036C1237.23 437.921 1232.1 440.504 1228.21 442.786C1224.51 445.145 1221.93 447.51 1220.46 449.882C1219.12 452.189 1218.78 454.983 1219.42 458.265C1220.06 461.546 1221.47 465.583 1223.65 470.377C1225.19 473.76 1227.06 477.503 1229.27 481.604C1231.54 485.847 1233.78 489.846 1236 493.601L1212.09 504.467C1208.99 500.263 1205.81 495.329 1202.55 489.664C1199.15 484.063 1196.2 478.513 1193.7 473.014Z" fill="#0C0F14"/>
<path d="M1174.32 564.497C1173.38 559.788 1172.57 554.896 1171.88 549.823C1171.04 544.78 1170.39 539.934 1169.94 535.286C1169.52 530.79 1169.21 526.826 1169 523.393L1194.31 518.374C1195.24 523.083 1196.07 527.261 1196.8 530.906C1197.4 534.734 1198 538.168 1198.6 541.206C1199.24 544.396 1199.83 547.358 1200.37 550.093C1201.79 557.233 1203.21 562.793 1204.63 566.774C1206.05 570.755 1207.78 573.492 1209.81 574.983C1211.85 576.474 1214.66 577.101 1218.24 576.863C1221.68 576.656 1226.13 576.009 1231.6 574.924L1240.95 573.07L1240.59 571.247C1236.52 569.844 1233.03 567.773 1230.11 565.035C1227.35 562.267 1225.02 558.862 1223.11 554.819C1221.38 550.898 1220.02 546.431 1219.02 541.418C1217.49 533.671 1217.16 527.261 1218.05 522.19C1219.09 517.089 1221.27 512.946 1224.59 509.762C1228.06 506.547 1232.45 504.018 1237.77 502.173C1243.24 500.298 1249.7 498.621 1257.15 497.144L1327.83 483.125L1335.06 519.584L1275.56 531.387C1269.33 532.624 1264.42 533.755 1260.83 534.783C1257.43 535.932 1255 537.204 1253.53 538.599C1252.07 539.994 1251.33 541.8 1251.29 544.017C1251.26 546.235 1251.6 549.166 1252.33 552.812C1253.11 556.762 1254.11 559.801 1255.32 561.929C1256.72 564.178 1258.51 565.639 1260.7 566.311C1263.03 566.952 1265.98 567.078 1269.54 566.688C1273.28 566.42 1277.81 565.759 1283.12 564.703L1341.72 553.081L1349 589.768L1245.73 610.255C1235.54 612.275 1226.62 613.491 1218.96 613.905C1211.15 614.349 1204.45 613.231 1198.87 610.55C1193.13 607.899 1188.26 602.865 1184.26 595.448C1180.29 588.182 1176.97 577.866 1174.32 564.497Z" fill="#0C0F14"/>
</g>
</svg>
