<svg width="1182" height="186" viewBox="0 0 1182 186" fill="none" xmlns="http://www.w3.org/2000/svg">
<g opacity="0.16">
<path fill-rule="evenodd" clip-rule="evenodd" d="M982.632 181.248H1009.95V117.662C1009.95 105.078 1012.85 95.3906 1018.65 88.6015C1024.44 81.8124 1031.81 78.4178 1040.75 78.4178C1049.7 78.4178 1056.48 81.3984 1061.12 87.3596C1065.76 93.1552 1068.08 101.849 1068.08 113.44V181.248H1095.4V117.662C1095.4 105.078 1098.21 95.3906 1103.84 88.6015C1109.64 81.8124 1117.09 78.4178 1126.2 78.4178C1135.14 78.4178 1141.85 81.3984 1146.32 87.3596C1150.95 93.1552 1153.27 101.849 1153.27 113.44V181.248H1180.34V110.707C1180.34 92.3272 1175.96 78.5006 1167.18 69.2277C1158.57 59.7892 1146.56 55.0699 1131.16 55.0699C1122.22 55.0699 1113.94 57.1398 1106.33 61.2795C1099.44 64.9519 1093.83 69.9677 1089.49 76.3268C1089.13 76.8492 1088.78 77.3806 1088.44 77.9211C1088.16 77.3482 1087.86 76.7861 1087.56 76.2348C1083.82 69.4555 1078.73 64.3048 1072.3 60.7827C1065.51 56.9742 1057.31 55.0699 1047.71 55.0699C1039.59 55.0699 1032.23 56.8086 1025.6 60.286C1020.01 63.1561 1015.34 67.0213 1011.61 71.8815C1011.04 72.6292 1010.48 73.4005 1009.95 74.1953V58.0505H982.632V181.248ZM1011.61 69.2454V56.3946H980.977V182.904H1011.61V117.662C1011.61 105.312 1014.46 96.0634 1019.91 89.6766C1025.39 83.2568 1032.3 80.0737 1040.75 80.0737C1049.29 80.0737 1055.55 82.8949 1059.81 88.3762L1059.82 88.3852L1059.83 88.394C1064.13 93.7712 1066.42 102.025 1066.42 113.44V182.904H1097.05V117.662C1097.05 105.309 1099.82 96.0572 1105.11 89.6699C1110.58 83.2623 1117.57 80.0737 1126.2 80.0737C1134.73 80.0737 1140.9 82.8945 1144.99 88.3531L1145.01 88.3738L1145.02 88.394C1149.32 93.7712 1151.61 102.025 1151.61 113.44V182.904H1182V110.707C1182 92.0955 1177.56 77.7921 1168.39 68.0994C1159.41 58.2555 1146.92 53.4141 1131.16 53.4141C1121.96 53.4141 1113.41 55.5471 1105.54 59.82C1098.67 63.4846 1093.02 68.451 1088.6 74.7064C1084.75 68.029 1079.59 62.8888 1073.1 59.3335C1066.01 55.3606 1057.53 53.4141 1047.71 53.4141C1039.35 53.4141 1031.72 55.2058 1024.84 58.8148C1019.67 61.4683 1015.26 64.9472 1011.61 69.2454Z" fill="url(#paint0_linear_739_1207)"/>
<path fill-rule="evenodd" clip-rule="evenodd" d="M868.208 179.261C874.998 182.573 883.194 184.229 892.798 184.229C902.568 184.229 910.847 182.159 917.636 178.019C923.768 174.28 928.752 169.731 932.587 164.371C932.999 163.796 933.396 163.213 933.781 162.619C933.982 163.313 934.196 163.985 934.425 164.635C936.657 170.974 940.251 175.27 945.207 177.522C950.837 180.006 957.792 181.248 966.071 181.248H972.032V157.9H970.79C967.81 157.9 965.409 157.569 963.587 156.907C961.931 156.079 960.689 154.257 959.861 151.442C959.199 148.627 958.868 144.073 958.868 137.781V105.491C958.868 89.7606 953.983 77.4243 944.213 68.4826C934.609 59.5408 920.865 55.0699 902.982 55.0699C894.04 55.0699 885.761 56.5602 878.144 59.5408C870.527 62.5214 864.152 66.9923 859.018 72.9534C854.361 78.3873 851.45 85.204 850.286 93.4036C850.208 93.9494 850.139 94.5014 850.077 95.0594H876.405C877.73 88.4359 880.876 83.7995 885.844 81.15C890.811 78.5006 896.524 77.1759 902.982 77.1759C911.593 77.1759 918.464 79.4942 923.598 84.1306C928.896 88.7671 931.546 95.8874 931.546 105.491V111.204C931.017 111.028 930.465 110.854 929.89 110.681C926.685 109.72 922.766 108.818 918.133 107.975C912.669 106.816 906.459 106.237 899.505 106.237C884.105 106.237 871.686 109.797 862.247 116.917C852.809 124.037 848.089 134.138 848.089 147.22C848.089 153.843 849.745 159.97 853.057 165.6C856.535 171.23 861.585 175.784 868.208 179.261ZM929.89 108.954V105.491C929.89 96.1829 927.329 89.5961 922.507 85.3768L922.497 85.3682L922.488 85.3595C917.728 81.0607 911.287 78.8318 902.982 78.8318C896.756 78.8318 891.317 80.1073 886.623 82.6111C882.181 84.9802 879.278 89.1393 878.029 95.3842L877.763 96.7153H848.227L848.431 94.8766C849.454 85.6647 852.541 77.9664 857.761 71.8758L857.763 71.8729C863.08 65.6989 869.682 61.0737 877.54 57.9988C885.367 54.9362 893.853 53.4141 902.982 53.4141C921.129 53.4141 935.332 57.9528 945.339 67.2683C955.511 76.5821 960.524 89.3952 960.524 105.491V137.781C960.524 144.023 960.854 148.398 961.463 151.018C962.215 153.55 963.224 154.835 964.249 155.385C965.811 155.934 967.968 156.244 970.79 156.244H973.688V182.904H966.071C957.637 182.904 950.438 181.64 944.539 179.037L944.53 179.034L944.522 179.03C939.353 176.68 935.631 172.344 933.26 166.254C929.382 171.41 924.454 175.801 918.499 179.433C911.396 183.763 902.803 185.884 892.798 185.884C883.009 185.884 874.551 184.197 867.482 180.749L867.46 180.738L867.439 180.727C860.588 177.13 855.301 172.384 851.648 166.47L851.639 166.455L851.63 166.44C848.166 160.551 846.434 154.134 846.434 147.22C846.434 133.682 851.348 123.065 861.25 115.595C871.052 108.201 883.854 104.581 899.505 104.581C906.538 104.581 912.858 105.166 918.453 106.35C922.887 107.157 926.704 108.024 929.89 108.954ZM914.408 158.397C909.937 161.377 904.555 162.868 898.263 162.868C891.142 162.868 885.595 161.212 881.621 157.9C877.647 154.588 875.66 150.366 875.66 145.233C875.66 139.271 877.895 134.469 882.366 130.826C886.837 127.184 893.461 125.362 902.237 125.362C907.37 125.362 912.42 125.859 917.388 126.852C922.356 127.846 926.661 128.839 930.304 129.833C929.642 135.629 927.903 141.093 925.088 146.226C922.439 151.194 918.878 155.251 914.408 158.397ZM928.474 131.059C925.184 130.201 921.381 129.34 917.063 128.476C912.204 127.504 907.262 127.018 902.237 127.018C893.652 127.018 887.468 128.805 883.412 132.11C879.342 135.427 877.316 139.75 877.316 145.233C877.316 149.87 879.081 153.628 882.681 156.628C886.263 159.613 891.385 161.212 898.263 161.212C904.278 161.212 909.321 159.793 913.473 157.03C917.717 154.039 921.099 150.186 923.627 145.447L923.631 145.438L923.636 145.43C926.118 140.904 927.73 136.116 928.474 131.059Z" fill="url(#paint1_linear_739_1207)"/>
<path fill-rule="evenodd" clip-rule="evenodd" d="M807.124 181.249H834.446V58.0512H807.124V181.249ZM806.379 36.1935H835.439V6.6361H806.379V36.1935ZM805.468 182.905V56.3953H836.102V182.905H805.468ZM804.723 37.8494V4.98022H837.095V37.8494H804.723Z" fill="url(#paint2_linear_739_1207)"/>
<path fill-rule="evenodd" clip-rule="evenodd" d="M687.281 7.38098V181.248H793.34V159.639H714.603V7.38098H687.281ZM716.259 157.983V5.7251H685.625V182.904H794.996V157.983H716.259Z" fill="url(#paint3_linear_739_1207)"/>
<path fill-rule="evenodd" clip-rule="evenodd" d="M528.945 181.248H556.267V125.114C556.267 115.179 557.26 106.982 559.248 100.524C561.4 94.0662 564.464 89.3469 568.438 86.3663C572.412 83.2201 577.214 81.6471 582.844 81.6471H602.714V57.0572H585.576C578.953 57.0572 573.157 58.8787 568.189 62.5217C564.091 65.3905 560.669 69.2174 557.923 74.0024C557.34 75.0172 556.789 76.0752 556.267 77.1762V58.0508H528.945V181.248ZM557.923 70.8489V56.3949H527.289V182.904H557.923V125.114C557.923 115.284 558.907 107.273 560.824 101.03C562.908 94.7859 565.813 90.4046 569.431 87.691L569.448 87.678L569.465 87.6646C573.114 84.7758 577.543 83.3029 582.844 83.3029H604.37V55.4014H585.576C578.635 55.4014 572.495 57.3154 567.225 61.1751C563.607 63.7105 560.509 66.9427 557.923 70.8489Z" fill="url(#paint4_linear_739_1207)"/>
<path fill-rule="evenodd" clip-rule="evenodd" d="M422.48 176.28C431.918 181.579 442.764 184.229 455.018 184.229C464.953 184.229 473.729 182.49 481.346 179.013C489.129 175.37 495.587 170.485 500.72 164.358C505.64 158.515 509.204 152.029 511.412 144.901C511.582 144.353 511.743 143.801 511.897 143.246H484.327C482.008 148.876 478.366 153.346 473.398 156.658C468.43 159.97 462.304 161.626 455.018 161.626C448.56 161.626 442.599 160.136 437.134 157.155C431.835 154.174 427.53 149.786 424.218 143.991C421.612 139.299 420.031 133.89 419.476 127.763C419.427 127.217 419.385 126.665 419.352 126.107H514.878C515.209 123.789 515.374 121.719 515.374 119.898V114.433C515.374 103.339 512.891 93.3208 507.923 84.379C502.955 75.4373 495.918 68.317 486.811 63.0182C477.869 57.7194 467.354 55.0699 455.266 55.0699C442.847 55.0699 431.918 57.8021 422.48 63.2665C413.041 68.7309 405.672 76.4308 400.374 86.3661C395.075 96.1358 392.425 107.396 392.425 120.146C392.425 132.896 395.075 144.073 400.374 153.678C405.838 163.282 413.207 170.816 422.48 176.28ZM487.65 61.5911C478.415 56.1194 467.6 53.4141 455.266 53.4141C442.597 53.4141 431.374 56.2038 421.65 61.8335C411.937 67.4566 404.355 75.3845 398.916 85.5797C393.469 95.6246 390.77 107.162 390.77 120.146C390.77 133.13 393.469 144.591 398.924 154.478L398.929 154.487L398.934 154.496C404.538 164.345 412.11 172.092 421.639 177.707L421.654 177.716L421.669 177.724C431.386 183.18 442.518 185.884 455.018 185.884C465.147 185.884 474.164 184.111 482.034 180.519L482.041 180.516L482.048 180.512C490.033 176.775 496.689 171.747 501.989 165.421C507.437 158.951 511.276 151.702 513.493 143.687L514.073 141.59H483.218L482.796 142.615C480.6 147.947 477.167 152.155 472.479 155.28C467.839 158.374 462.049 159.97 455.018 159.97C448.829 159.97 443.145 158.546 437.935 155.706C432.929 152.887 428.835 148.73 425.66 143.175C423.206 138.755 421.688 133.628 421.139 127.763H516.314L516.517 126.341C516.856 123.966 517.03 121.816 517.03 119.898V114.433C517.03 103.082 514.486 92.7831 509.371 83.5749C504.255 74.3668 497.004 67.0347 487.65 61.5911ZM420.05 106.071C419.952 106.614 419.863 107.166 419.783 107.727H488.052C488.023 107.168 487.982 106.616 487.931 106.071C487.136 97.5727 483.782 90.756 477.869 85.6209C471.742 80.1565 464.208 77.4243 455.266 77.4243C448.808 77.4243 442.847 78.9146 437.383 81.8952C431.918 84.7102 427.53 88.9327 424.218 94.5627C422.235 97.8348 420.846 101.671 420.05 106.071ZM486.268 106.071C485.482 98.0216 482.303 91.665 476.783 86.8712L476.775 86.864L476.767 86.8567C470.971 81.6879 463.841 79.0802 455.266 79.0802C449.074 79.0802 443.387 80.5061 438.175 83.3489L438.158 83.3583L438.141 83.3672C432.972 86.0298 428.809 90.0244 425.646 95.4022L425.64 95.4116L425.634 95.4209C423.816 98.4218 422.507 101.964 421.734 106.071H486.268Z" fill="url(#paint5_linear_739_1207)"/>
<path fill-rule="evenodd" clip-rule="evenodd" d="M317.75 181.248H350.288L396.238 58.0504H367.674L334.143 155.168L300.363 58.0504H271.799L317.75 181.248ZM334.137 150.111L301.54 56.3945H269.414L316.6 182.904H351.437L398.623 56.3945H366.494L334.137 150.111Z" fill="url(#paint6_linear_739_1207)"/>
<path fill-rule="evenodd" clip-rule="evenodd" d="M232.827 181.249H260.149V58.0512H232.827V181.249ZM232.082 36.1935H261.142V6.6361H232.082V36.1935ZM231.171 182.905V56.3953H261.805V182.905H231.171ZM230.426 37.8494V4.98022H262.798V37.8494H230.426Z" fill="url(#paint7_linear_739_1207)"/>
<path fill-rule="evenodd" clip-rule="evenodd" d="M185.973 182.904V0.75708H216.606V182.904H185.973ZM187.629 181.248H214.951V2.41296H187.629V181.248Z" fill="url(#paint8_linear_739_1207)"/>
<path fill-rule="evenodd" clip-rule="evenodd" d="M42.8873 172.803C55.8031 180.42 70.8716 184.228 88.0928 184.228C105.48 184.228 120.631 180.42 133.547 172.803C146.463 165.186 156.481 154.671 163.601 141.258C170.887 127.846 174.53 112.198 174.53 94.3141C174.53 76.5961 170.887 61.0309 163.601 47.6182C156.481 34.04 146.463 23.4424 133.547 15.8253C120.631 8.2083 105.48 4.39978 88.0928 4.39978C70.8716 4.39978 55.7203 8.2083 42.6389 15.8253C29.723 23.4424 19.6222 34.04 12.3363 47.6182C5.21602 61.0309 1.65588 76.5961 1.65588 94.3141C1.65588 112.198 5.29881 127.846 12.5847 141.258C19.8706 154.671 29.9714 165.186 42.8873 172.803ZM165.062 46.8385C157.802 32.9988 147.572 22.1744 134.388 14.399C121.179 6.60912 105.728 2.7439 88.0928 2.7439C70.6199 2.7439 55.1733 6.61067 41.8057 14.3944L41.8057 14.3944L41.7977 14.399C28.6134 22.1744 18.3022 32.9979 10.8772 46.8353L10.8737 46.8418C3.60686 60.5306 0 76.3707 0 94.3141C0 112.426 3.691 128.355 11.1296 142.049C18.556 155.72 28.8669 166.457 42.0461 174.229C55.2527 182.018 70.6204 185.884 88.0928 185.884C105.728 185.884 121.179 182.019 134.388 174.229C147.568 166.456 157.798 155.717 165.059 142.042C172.496 128.35 176.186 112.423 176.186 94.3141C176.186 76.3694 172.495 60.5277 165.062 46.8385ZM118.892 152.187C110.282 157.32 100.015 159.887 88.0928 159.887C76.5016 159.887 66.2352 157.32 57.2934 152.187C48.5173 146.888 41.6454 139.354 36.6777 129.584C31.8757 119.649 29.4747 107.892 29.4747 94.3141C29.4747 80.7359 31.8757 69.0619 36.6777 59.2922C41.6454 49.5225 48.5173 42.071 57.2934 36.9378C66.2352 31.639 76.5016 28.9896 88.0928 28.9896C100.015 28.9896 110.282 31.639 118.892 36.9378C127.668 42.071 134.457 49.5225 139.259 59.2922C144.227 69.0619 146.711 80.7359 146.711 94.3141C146.711 107.892 144.227 119.649 139.259 129.584C134.457 139.354 127.668 146.888 118.892 152.187ZM118.04 150.767C109.732 155.719 99.7716 158.231 88.0928 158.231C76.7613 158.231 66.791 155.726 58.1339 150.76C49.653 145.636 42.9953 138.349 38.1614 128.849C33.4948 119.187 31.1305 107.692 31.1305 94.3141C31.1305 80.9327 33.4959 69.524 38.1588 60.0328C42.9939 50.5279 49.6517 43.3258 58.1295 38.3672L58.1376 38.3624C66.7952 33.2319 76.7636 30.6455 88.0928 30.6455C99.7643 30.6455 109.718 33.2367 118.024 38.3481L118.04 38.3578L118.056 38.3671C126.532 43.3245 133.104 50.523 137.773 60.0226L137.778 60.0327L137.783 60.0427C142.608 69.5309 145.055 80.9356 145.055 94.3141C145.055 107.691 142.608 119.184 137.778 128.844L137.773 128.854C133.103 138.356 126.526 145.643 118.04 150.767Z" fill="url(#paint9_linear_739_1207)"/>
</g>
<defs>
<linearGradient id="paint0_linear_739_1207" x1="1081.49" y1="53.4141" x2="1081.49" y2="182.904" gradientUnits="userSpaceOnUse">
<stop stop-color="#6644FF"/>
<stop offset="1" stop-color="#6644FF" stop-opacity="0"/>
</linearGradient>
<linearGradient id="paint1_linear_739_1207" x1="910.061" y1="53.4141" x2="910.061" y2="185.884" gradientUnits="userSpaceOnUse">
<stop stop-color="#6644FF"/>
<stop offset="1" stop-color="#6644FF" stop-opacity="0"/>
</linearGradient>
<linearGradient id="paint2_linear_739_1207" x1="820.909" y1="4.98022" x2="820.909" y2="182.905" gradientUnits="userSpaceOnUse">
<stop stop-color="#6644FF"/>
<stop offset="1" stop-color="#6644FF" stop-opacity="0"/>
</linearGradient>
<linearGradient id="paint3_linear_739_1207" x1="740.31" y1="5.7251" x2="740.31" y2="182.904" gradientUnits="userSpaceOnUse">
<stop stop-color="#6644FF"/>
<stop offset="1" stop-color="#6644FF" stop-opacity="0"/>
</linearGradient>
<linearGradient id="paint4_linear_739_1207" x1="565.83" y1="55.4014" x2="565.83" y2="182.904" gradientUnits="userSpaceOnUse">
<stop stop-color="#6644FF"/>
<stop offset="1" stop-color="#6644FF" stop-opacity="0"/>
</linearGradient>
<linearGradient id="paint5_linear_739_1207" x1="453.9" y1="53.4141" x2="453.9" y2="185.884" gradientUnits="userSpaceOnUse">
<stop stop-color="#6644FF"/>
<stop offset="1" stop-color="#6644FF" stop-opacity="0"/>
</linearGradient>
<linearGradient id="paint6_linear_739_1207" x1="334.019" y1="56.3945" x2="334.019" y2="182.904" gradientUnits="userSpaceOnUse">
<stop stop-color="#6644FF"/>
<stop offset="1" stop-color="#6644FF" stop-opacity="0"/>
</linearGradient>
<linearGradient id="paint7_linear_739_1207" x1="246.612" y1="4.98022" x2="246.612" y2="182.905" gradientUnits="userSpaceOnUse">
<stop stop-color="#6644FF"/>
<stop offset="1" stop-color="#6644FF" stop-opacity="0"/>
</linearGradient>
<linearGradient id="paint8_linear_739_1207" x1="201.29" y1="0.75708" x2="201.29" y2="182.904" gradientUnits="userSpaceOnUse">
<stop stop-color="#6644FF"/>
<stop offset="1" stop-color="#6644FF" stop-opacity="0"/>
</linearGradient>
<linearGradient id="paint9_linear_739_1207" x1="88.0928" y1="2.7439" x2="88.0928" y2="185.884" gradientUnits="userSpaceOnUse">
<stop stop-color="#6644FF"/>
<stop offset="1" stop-color="#6644FF" stop-opacity="0"/>
</linearGradient>
</defs>
</svg>
