<svg width="140" height="32" viewBox="0 0 140 32" fill="none" xmlns="http://www.w3.org/2000/svg">
<g clip-path="url(#clip0_287_593)">
<path d="M88.9274 20.0281C86.4963 20.0281 84.5181 18.0493 84.5181 15.6188C84.5181 13.1878 86.4963 11.2095 88.9274 11.2095C91.3584 11.2095 93.3362 13.1878 93.3362 15.6188C93.3362 18.0736 91.3341 20.0281 88.9274 20.0281ZM88.9274 8.58742C85.0426 8.58742 81.8965 11.734 81.8965 15.6188C81.8965 19.5036 85.0426 22.6497 88.9274 22.6497C92.8122 22.6497 95.9582 19.5036 95.9582 15.6188C95.9582 11.7577 92.8122 8.58742 88.9274 8.58742ZM80.3235 20.3854H80.8955V23.0306H80.3235C77.2967 23.0306 74.8176 20.5521 74.8176 17.5253V5.44137H77.4635V8.96893H80.8712V11.6147H77.4635V17.5491C77.4635 19.0983 78.7505 20.3854 80.3235 20.3854ZM112.546 20.0281C110.115 20.0281 108.137 18.0493 108.137 15.6188C108.137 13.1878 110.115 11.2095 112.546 11.2095C114.977 11.2095 116.955 13.1878 116.955 15.6188C116.932 18.0736 114.953 20.0281 112.546 20.0281ZM112.546 8.58742C108.661 8.58742 105.515 11.734 105.515 15.6188C105.515 19.5036 108.661 22.6497 112.546 22.6497C116.431 22.6497 119.577 19.5036 119.577 15.6188C119.577 11.7577 116.431 8.58742 112.546 8.58742ZM132.781 20.0281C130.349 20.0281 128.372 18.0493 128.372 15.6188C128.372 13.1878 130.349 11.2095 132.781 11.2095C135.212 11.2095 137.19 13.1878 137.19 15.6188C137.19 18.0736 135.188 20.0281 132.781 20.0281ZM132.781 8.58742C128.896 8.58742 125.75 11.734 125.75 15.6188C125.75 19.5036 128.896 22.6497 132.781 22.6497C134.497 22.6497 136.07 22.0296 137.285 21.0049V22.3874H139.811V15.833V15.6183C139.811 11.7572 136.665 8.58742 132.781 8.58742ZM103.227 8.58794H104.49V11.2332H103.227C101.655 11.2332 100.367 12.5208 100.367 14.0933V22.4829H97.7217V14.0933C97.7217 11.0665 100.2 8.58794 103.227 8.58794ZM121.341 5.08413H123.986V22.4349H121.341V5.08413ZM57.2289 14.4505V22.8164H54.5831V14.4505C54.5831 12.8775 53.2961 11.5905 51.7231 11.5905C50.1506 11.5905 48.863 12.8775 48.863 14.4505V22.8159H46.2177V14.4505C46.2177 12.8775 44.9302 11.5905 43.3577 11.5905C41.7852 11.5905 40.4977 12.8775 40.4977 14.4505V22.8159H37.8524V14.4505C37.8524 11.4232 40.3309 8.94466 43.334 8.94466C45.0262 8.94466 46.5037 9.68342 47.5285 10.8755C48.5533 9.68342 50.0308 8.94466 51.7236 8.94466C54.7499 8.94466 57.2289 11.4232 57.2289 14.4505ZM66.047 20.3854C63.616 20.3854 61.6377 18.4071 61.6377 15.976C61.6377 13.545 63.6165 11.5667 66.047 11.5667C68.4781 11.5667 70.4563 13.5455 70.4563 15.976C70.4563 18.4071 68.4543 20.3854 66.047 20.3854ZM66.047 8.94519C62.1385 8.94519 58.9919 12.0912 58.9919 15.976C58.9919 19.8608 62.1385 23.0069 66.0233 23.0069C69.9081 23.0069 73.0541 19.8608 73.0541 15.976C73.0779 12.115 69.9318 8.94519 66.047 8.94519ZM16.1873 0.0078125C7.34542 0.0078125 0.195312 7.15792 0.195312 15.9998C0.195312 24.8416 7.34542 31.9923 16.1873 31.9923C25.0297 31.9923 32.1798 24.8422 32.1798 15.9998C32.1798 7.20541 25.1247 0.0078125 16.1873 0.0078125Z" fill="white"/>
<path d="M20.9562 3.93945L16.2134 19.6697L16.1891 19.6934L16.1416 19.6697L11.3988 3.93945L5.27344 24.079H6.41746C6.41746 24.079 7.18049 20.5752 8.44376 18.4782C9.13502 17.3342 10.1835 16.4044 11.5893 16.4281C12.5903 16.4524 13.4483 17.0001 14.5211 18.5019C14.7591 18.8354 15.0451 19.3837 15.3311 19.9082C15.7844 20.7894 16.1653 21.6955 16.1653 21.6955C16.1653 21.6955 17.1664 19.4074 17.8101 18.5019C18.8824 17.0001 19.7404 16.4524 20.7414 16.4281C22.1477 16.4044 23.2199 17.3342 23.8875 18.4782C25.1507 20.5752 25.9138 24.079 25.9138 24.079H27.0573L20.9562 3.93945Z" fill="#122C41"/>
</g>
<defs>
<clipPath id="clip0_287_593">
<rect width="139.616" height="32" fill="white" transform="translate(0.195312)"/>
</clipPath>
</defs>
</svg>
