<svg width="148" height="36" viewBox="0 0 148 36" fill="none" xmlns="http://www.w3.org/2000/svg">
<g clip-path="url(#clip0_287_614)">
<path d="M31.9898 0.853937C28.404 0.82185 25.0175 2.63398 25.0175 2.63398C25.0175 2.63398 21.6056 4.70037 20.3593 7.79663C20.2949 8.09736 13.5357 21.2067 13.5357 21.2067C4.96785 18.7292 0.825556 23.7493 0.956116 25.6869C3.02605 30.8797 13.148 27.1857 14.1586 25.9834C14.718 25.6834 15.0785 26.0427 15.0785 26.0427C15.0785 26.0427 17.5574 27.6931 17.8375 27.823C18.1175 27.9529 19.5288 27.7637 19.5288 27.7637C20.6264 27.6803 22.5848 25.5293 22.822 25.5088C23.1881 25.5099 23.6295 27.8916 25.1363 27.8527C26.9442 28.2021 28.9042 26.1616 28.9042 26.1616C29.1622 25.7964 29.2602 26.0724 29.2602 26.0724C29.2186 28.3105 31.0363 27.9157 31.5742 27.8527C33.3605 27.1257 37.7355 22.8152 37.2412 24.0848C37.0692 24.4287 35.728 26.9328 35.728 26.9328C35.5778 27.5999 36.0544 27.5559 36.0544 27.5559L39.1991 27.5263C39.7369 27.2047 42.4884 21.2795 42.1662 22.0969C43.1578 20.3023 45.4001 19.6641 45.4001 19.6641C45.6154 19.5999 45.5187 19.9013 45.5187 19.9013L41.8398 27.1999C41.7756 27.393 42.1363 27.5856 42.1363 27.5856L45.3406 27.5263C45.7712 27.4846 48.4559 21.9781 48.4559 21.9781C49.1865 20.5809 51.7789 19.7827 51.7789 19.7827C52.2521 19.6977 51.9272 20.1684 51.9272 20.1684L49.4054 25.4495C49.0221 27.8471 51.0367 27.9876 51.8976 27.8823C52.7584 27.7557 54.1582 27.2709 56.9115 25.212C57.4714 24.7836 57.594 25.2147 57.594 25.3012C57.6176 28.2496 60.8575 27.912 60.8575 27.912C61.8261 28.1514 65.7577 28.0587 69.0461 21.5035C67.8438 25.9551 70.295 27.1673 70.3813 27.3187C70.4676 27.4692 71.7854 27.9294 72.28 27.823C77.2952 28.2676 79.4006 20.4652 79.4006 20.4652C80.5292 19.6185 80.8157 19.3755 81.2698 19.1299C82.3893 19.2401 82.6898 19.2718 83.228 19.3377C83.6582 19.4897 83.2683 19.8914 83.1388 20.0199C78.0193 24.0093 80.2665 27.0857 80.4391 27.0219C82.6794 30.0627 87.33 24.7621 88.2123 24.6781C89.3347 29.1583 92.7491 27.2078 92.9 27.2295C92.5991 28.1111 91.7235 30.2913 90.9715 31.7095C89.4017 33.9224 86.9365 31.4426 86.9365 31.4426L86.3134 31.413C86.0125 31.7993 86.1948 32.2437 86.1948 32.2437C86.841 33.2786 87.6684 34.7108 90.2298 35.0622C92.8124 35.1771 94.2944 32.3326 94.2944 32.3326C94.2944 32.3326 97.9151 25.6519 98.1514 24.856C99.2484 23.869 101.152 22.4439 102.572 21.4145C103.497 21.2235 100.257 26.5068 100.021 27.2592C99.9563 27.6898 100.11 27.7044 100.11 27.7044C100.11 27.7044 102.573 27.8268 103.047 27.7637C103.52 27.7004 105.82 22.2377 106.637 21.2069C107.346 20.025 109.633 18.9223 109.633 18.9223C110.128 18.8161 109.96 19.397 109.96 19.397L106.933 25.509C106.203 28.0675 108.259 28.0808 108.625 28.0604C109.614 27.998 113.312 25.8648 113.312 25.8648C113.828 25.4787 113.817 26.1023 113.817 26.1023C113.774 26.9201 114.657 28.26 115.389 28.0899C118.015 28.3337 121.986 23.9717 122.094 24.3813C122.116 24.4676 120.611 27.4373 120.611 27.4373C120.675 27.6741 120.937 27.7933 120.937 27.7933C120.937 27.7933 123.48 27.8212 124.082 27.823C124.685 27.8248 127.426 21.2744 128.028 20.91C129.254 19.6437 130.596 19.5236 130.639 19.5453C131.091 19.5254 128.081 24.3333 127.909 25.301C127.244 28.0759 129.215 28.0306 129.215 28.0306C130.786 28.272 134.639 25.5389 134.703 25.7756C135.155 25.3253 135.208 25.8648 135.208 25.8648V26.0724C135.468 28.3118 136.78 28.0602 136.78 28.0602C138.287 28.4519 144.168 23.5209 144.168 23.5209L143.278 22.542L139.599 25.212C139.298 25.3623 139.124 25.0341 139.124 25.0341L143.248 17.0828C143.442 16.8898 143.159 16.6674 143.159 16.6674H139.451C139.192 16.9462 139.035 17.1421 139.035 17.1421L135.683 23.6694L132.004 25.4791C131.617 25.5853 131.707 25.1826 131.707 25.1826C131.707 25.1826 134.772 19.1675 135.03 18.3288C135.202 17.942 135.119 17.3202 135.119 17.3202C134.106 14.971 130.012 18.0122 129.452 18.0323C129.431 18.0538 129.957 16.9642 129.957 16.9642C130.107 16.6415 129.808 16.6378 129.808 16.6378L126.367 16.6081C126.367 16.6081 126.377 16.3636 126.248 16.5785C126.119 16.7933 123.904 20.9398 123.904 20.9398L118.356 25.1231C117.883 25.2083 118 24.8858 118 24.8858L122.065 17.0235L122.094 16.6971L118.178 16.6081L114.944 22.8385C114.772 23.0319 111.384 24.9451 111.384 24.9451C110.867 25.0947 110.85 24.6484 110.85 24.6484L113.847 18.8334C114.525 16.5647 112.047 15.8978 110.82 16.341C109.991 16.6398 109.218 16.9049 109.218 16.9049C109.218 16.9049 108.973 16.9686 109.188 16.6674C109.554 16.1518 113.342 8.65678 113.342 8.65678C113.428 8.44147 113.223 8.30073 113.223 8.30073L109.782 8.27108C109.502 8.39898 109.456 8.59748 109.456 8.59748L104.56 17.8838L100.525 20.9102C100.267 21.0817 100.258 20.7913 100.258 20.7913L102.275 16.9642V16.5782L98.6558 16.5486L98.0623 17.0232C97.6529 16.1611 95.5756 16.1713 95.5108 16.1925C91.1632 16.0509 88.7166 22.2153 88.7166 22.2153C86.2975 24.3125 85.1797 24.9651 84.3851 25.0932C83.7239 25.1304 83.5245 24.5886 83.5245 24.5886C82.6035 21.7668 88.3902 19.1 88.3902 19.1C88.584 18.9927 89.4179 16.4895 89.3101 16.4893C89.2023 16.4891 82.1948 16.4811 82.1302 16.4596C81.7425 16.308 79.8708 18.0695 79.3116 18.4771C77.6725 13.6729 71.3218 17.3065 70.4406 19.4561C70.0622 19.557 69.8925 19.4866 69.6989 19.4857C69.7626 17.8504 69.5455 16.8307 68.5121 16.3111C67.9522 16.0084 65.6641 16.3111 65.6641 16.3111L69.5506 8.5676C69.744 8.33127 69.3725 8.09294 69.3725 8.09294H65.8717C65.721 8.1788 65.5453 8.38947 65.5453 8.38947C65.5453 8.38947 58.9303 21.2016 58.5433 21.8892C58.1565 22.5767 53.3215 25.1527 53.3215 25.1527C53.364 24.6796 56.4782 19.2647 56.5853 18.2102C56.7121 15.4773 53.5886 16.341 53.5886 16.341C53.5886 16.341 51.8199 17.5152 50.2065 18.3288C49.8597 15.3359 47.2394 16.3707 47.2394 16.3707L44.2726 18.2992L44.8066 16.9049L44.9254 16.3707L41.3649 16.2817C40.9566 16.582 40.2377 18.2102 40.2377 18.2102L39.1102 20.287L34.0369 24.1144C33.5421 24.3926 33.7995 23.7287 33.7995 23.7287C33.7995 23.7287 37.2248 17.0104 37.3003 16.9639C37.58 16.7924 37.3598 16.3709 37.3598 16.3709L33.9181 16.341C33.9181 16.341 33.3352 17.3313 33.2062 17.4388C31.5687 15.1308 26.1651 16.0675 23.2671 22.898C22.8966 23.3545 22.6101 23.6741 22.4067 23.7584C19.0088 27.7305 17.0661 23.788 17.0661 23.788L23.1485 12.1874C23.1485 12.1874 25.9157 5.99623 27.6581 4.23611C32.0681 1.2569 33.3248 4.05819 33.3248 4.05819C33.7059 4.94113 34.8679 8.12857 28.8745 9.66564C28.0883 9.74331 28.3403 10.1104 28.3403 10.1104C30.0847 11.6006 32.227 11.4457 32.227 11.4457C34.3366 11.8604 40.0529 8.71476 37.9827 3.67249C36.3673 1.5614 34.1412 0.873189 31.9898 0.853937ZM122.51 8.71631C119.367 8.83647 119.184 13.0536 122.391 13.4928C125.512 13.588 126.105 8.85572 122.51 8.71609V8.71631ZM143.901 8.71631C140.5 8.72826 140.754 13.5269 143.96 13.4928C147.167 13.2439 146.893 8.83204 143.901 8.71609V8.71631ZM31.6337 17.7057C32.6395 17.7287 32.4636 18.9338 32.2865 19.1596C32.3943 19.5256 30.5359 22.6603 30.5359 22.6603C28.3857 25.3448 27.3613 24.8557 27.3613 24.8557C27.3613 24.8557 26.6244 24.7535 27.1834 23.3131C27.7853 22.3032 28.9542 19.6752 30.1799 18.1505C30.8254 17.8188 31.2983 17.698 31.6337 17.7057ZM65.3671 18.0022C66.422 18.1346 65.9013 19.1 65.9013 19.1L62.9936 24.8261C62.0691 25.9646 61.2136 25.5679 61.2136 25.5679C60.74 25.2218 61.54 23.9064 61.54 23.9064L64.2696 18.5661C64.8068 18.0078 65.3671 18.0022 65.3671 18.0022ZM95.6294 18.0321C96.4526 17.886 96.7868 18.5661 96.7868 18.5661C96.7868 18.5661 96.8346 18.6754 96.7272 19.2782C96.4913 20.2032 93.9383 24.6185 93.9383 24.6185C92.8633 25.6918 91.9209 25.4789 91.9209 25.4789C91.3829 25.3266 91.5945 24.5296 91.5945 24.5296C91.5945 24.5296 93.6617 20.2903 94.6504 18.5068C95.0377 18.2226 95.355 18.0806 95.6294 18.0321ZM75.8403 18.0618C76.295 17.985 76.7268 18.1724 76.6413 19.1297C76.1045 20.2689 73.9859 24.4539 73.5559 25.0337C73.4701 25.5289 71.3065 26.3357 71.8646 24.5296C71.8646 24.5296 74.8994 18.8537 74.9206 18.5957C74.9312 18.4665 75.3857 18.1383 75.8403 18.0618ZM7.51289 22.7201C9.28673 22.6776 10.8951 23.2538 10.8951 23.2538C10.8951 23.2538 10.4801 24.6369 6.56334 25.2713C4.71248 25.1591 3.74545 25.1673 3.74479 24.5001C4.64787 23.1563 6.13315 22.7531 7.51289 22.7201Z" fill="white"/>
</g>
<defs>
<clipPath id="clip0_287_614">
<rect width="146.341" height="36" fill="white" transform="translate(0.828125)"/>
</clipPath>
</defs>
</svg>
