<svg width="142" height="52" viewBox="0 0 142 52" fill="none" xmlns="http://www.w3.org/2000/svg">
<path fill-rule="evenodd" clip-rule="evenodd" d="M81.3984 32.0289H82.4543L83.1314 29.6173C83.5844 30.2194 84.413 30.3709 85.2424 30.3709C86.8238 30.3709 88.5568 29.3916 88.934 27.8843C89.3104 26.3013 88.2569 25.3212 86.5989 25.3212C85.6945 25.3212 84.7152 25.6226 84.0365 26.1506C84.1115 25.8491 84.1115 25.6976 84.1873 25.4719H83.1314C83.0564 25.8491 82.9807 26.2256 82.8307 26.5262L81.3984 32.0289ZM83.5844 27.8843C83.885 26.6777 84.9401 25.9241 86.2217 25.9241C87.4267 25.9241 88.1054 26.6777 87.8032 27.8843C87.5025 29.0894 86.4474 29.768 85.1658 29.768C83.9616 29.768 83.2821 29.0894 83.5844 27.8843ZM90.4421 30.2194H91.4964L93.3051 23.4375H92.3265L90.4421 30.2194ZM96.0939 26.7543C96.3196 26.2263 96.9983 25.9249 97.7519 25.9249C98.8078 25.9249 99.3349 26.2271 99.1092 27.1315V27.2822H97.224C95.3403 27.3572 94.2844 27.8843 94.0587 28.8637C93.833 29.768 94.5866 30.3709 95.9424 30.3709C96.9983 30.3709 97.6769 30.296 98.5048 29.5423C98.5048 29.768 98.4298 29.9937 98.4298 30.2194H99.4091C99.4091 29.9937 99.4857 29.6931 99.5599 29.3166L100.239 26.98C100.539 25.7734 99.5599 25.3212 98.0526 25.3212C96.9225 25.3212 95.4153 25.6227 95.0388 26.7535L96.0939 26.7543ZM98.882 28.11C98.5813 29.2401 97.6769 29.768 96.3954 29.768C95.3395 29.768 95.0396 29.3166 95.1888 28.8637C95.3395 28.11 96.0931 27.9593 97.2232 27.9593C98.0526 27.8843 98.5805 27.8843 98.8812 27.8843V28.11H98.882ZM101.747 30.2194H102.802L103.405 27.9585C103.781 26.4513 105.063 25.9241 106.042 25.9241C107.098 25.9241 107.625 26.5262 107.323 27.5821L106.645 30.2194H107.701L108.379 27.5071C108.831 26.0748 107.926 25.3212 106.419 25.3212C105.44 25.3212 104.61 25.6226 103.782 26.3005C103.857 25.9991 103.857 25.6976 103.932 25.4719H102.952C102.877 25.8491 102.802 26.2256 102.726 26.5262L101.747 30.2194ZM110.186 30.2194H111.242L111.844 27.9585C112.221 26.4513 113.502 25.9241 114.483 25.9241C115.538 25.9241 116.065 26.5262 115.765 27.5821L115.086 30.2194H116.142L116.819 27.5071C117.272 26.0748 116.368 25.3212 114.861 25.3212C113.88 25.3212 113.052 25.6226 112.222 26.3005C112.298 25.9991 112.372 25.6976 112.372 25.4719H111.393C111.326 25.825 111.25 26.1765 111.167 26.5262L110.186 30.2194ZM118.702 30.2194H119.758L121.04 25.4719H119.984L118.702 30.2194ZM120.285 24.3419H121.341L121.567 23.4375H120.511L120.285 24.3419ZM122.32 30.2194H123.376L123.978 27.9585C124.355 26.4513 125.636 25.9241 126.616 25.9241C127.597 25.9241 128.199 26.5262 127.897 27.5821L127.219 30.2194H128.274L128.953 27.5071C129.405 26.0748 128.5 25.3212 126.993 25.3212C126.014 25.3212 125.184 25.6226 124.356 26.3005C124.431 25.9991 124.431 25.6976 124.506 25.4719H123.527C123.45 25.8491 123.376 26.2256 123.3 26.5262L122.32 30.2194ZM130.46 30.5217C130.234 31.6517 130.836 32.1797 132.946 32.1797C135.132 32.1797 136.413 31.501 136.941 29.5423L137.77 26.3771C137.846 25.9999 137.92 25.7734 138.072 25.4719H137.092C136.942 25.6976 136.867 25.9241 136.867 26.1506C136.339 25.5477 135.737 25.3212 134.756 25.3212C132.947 25.3212 131.44 26.3005 130.988 27.7328C130.612 29.1651 131.665 30.1445 133.475 30.1445C134.347 30.1342 135.192 29.8437 135.887 29.3158H135.963L135.812 29.6165C135.51 30.7466 134.908 31.5002 133.024 31.5002C131.818 31.5002 131.441 31.0488 131.592 30.5209L130.46 30.5217ZM132.118 27.7336C132.42 26.6777 133.323 25.9249 134.68 25.9249C136.112 25.9249 136.639 26.6785 136.338 27.7336C136.036 28.7895 135.131 29.4666 133.776 29.4666C132.343 29.4658 131.815 28.7887 132.118 27.7336Z" fill="white"/>
<path fill-rule="evenodd" clip-rule="evenodd" d="M7.39036 52L51.0254 0H66.1731C75.1409 0 82.9037 5.87835 82.9037 15.8263C82.9037 25.8501 75.1417 32.1798 66.3238 32.1798H40.3995L46.7293 24.342H66.3238C71.3735 24.342 75.1417 21.101 75.0667 15.8255C74.9902 7.61132 66.3238 7.83702 66.3238 7.83702H54.6428L17.564 52H7.39036ZM25.0254 24.342L18.6199 32.1798H16.359C6.8632 32.1798 0.15625 26.3015 0.15625 16.3535C0.15625 6.33053 7.84332 0 16.7354 0H45.2228L38.8173 7.8378H16.7354C11.6865 7.8378 7.84254 11.0788 7.99327 16.3535C8.06902 24.5685 16.7354 24.342 16.7354 24.342H25.0254Z" fill="#DFE1E5" fill-opacity="0.6"/>
<path fill-rule="evenodd" clip-rule="evenodd" d="M39.9434 39.036H41.2242L41.9021 35.7201H43.4851L43.7116 34.8922H39.2648L39.0391 35.7201H40.6963L39.9434 39.036ZM44.7659 36.9267C44.9166 36.248 45.3688 35.6451 46.2732 35.6451C47.1783 35.6451 47.404 36.2472 47.1783 36.9267C47.0276 37.6803 46.6504 38.2824 45.671 38.2824C44.7659 38.2824 44.616 37.6803 44.7659 36.9267ZM43.4851 36.9267C43.1837 38.2082 43.7866 39.1876 45.5195 39.1876C47.2533 39.1876 48.2326 38.2082 48.4591 36.9267C48.7606 35.7201 48.2326 34.7407 46.4247 34.7407C44.6909 34.7407 43.7866 35.7201 43.4851 36.9267ZM51.0964 37.6803C50.9457 38.4339 51.0215 39.1876 52.7544 39.1876C53.6588 39.1876 54.9396 38.9619 55.1661 37.7553C55.3168 36.9267 54.7896 36.6994 54.0352 36.5502L53.5081 36.3995C53.0559 36.323 52.6795 36.2488 52.7544 35.9465C52.8294 35.7208 53.0559 35.5701 53.5838 35.5701C53.9602 35.5701 54.3374 35.6466 54.2625 36.0231H55.4683C55.5433 35.1937 55.2418 34.7415 53.7345 34.7415C52.7552 34.7415 51.7001 35.1179 51.4736 36.1738C51.3229 36.9274 52.0008 37.2281 52.6795 37.3039L53.2066 37.4546C53.7338 37.5296 53.9602 37.6038 53.8845 37.906C53.8845 38.1317 53.7338 38.3574 52.9801 38.3574C52.4522 38.3574 52.2265 38.2082 52.3015 37.6803H51.0964ZM61.1202 34.8922H59.9143L59.4622 37.0782C59.3114 37.8318 58.9342 38.2832 58.1806 38.2832C57.5027 38.2832 57.2013 37.981 57.3512 37.2273L57.8791 34.8922H56.5976L56.0704 37.3039C55.8439 38.6596 56.5226 39.1876 57.9541 39.1876C59.4614 39.1876 60.3657 38.5854 60.6672 37.1531L61.1202 34.8922ZM66.3198 36.248C66.5463 35.1179 65.5662 34.7407 64.5111 34.7407C63.0039 34.7407 61.8738 35.4194 61.5723 36.9267C61.1959 38.5081 62.0995 39.1876 63.3803 39.1876C64.5861 39.1876 65.7169 38.8853 66.0184 37.6045H64.7368C64.5861 38.1325 64.1339 38.2832 63.6817 38.2832C62.8523 38.2832 62.6266 37.6811 62.7774 36.9274C63.0031 36.1738 63.4552 35.6459 64.2846 35.6459C64.7368 35.6459 65.0383 35.7966 65.0383 36.248H66.3198ZM71.4453 36.248C71.671 35.1179 70.6909 34.7407 69.6366 34.7407C68.1293 34.7407 67.0743 35.4194 66.697 36.9267C66.3956 38.5081 67.225 39.1876 68.5058 39.1876C69.7866 39.1876 70.8416 38.8853 71.1431 37.6045H69.8623C69.7116 38.1325 69.2594 38.2832 68.8072 38.2832C67.9778 38.2832 67.8279 37.6811 67.9778 36.9274C68.1286 36.1738 68.6565 35.6459 69.4093 35.6459C69.8615 35.6459 70.2387 35.7966 70.163 36.248H71.4453ZM71.6703 39.036H75.3634L75.5142 38.2082H73.1026L73.2533 37.3781H75.5142L75.7399 36.4737H73.479L73.6305 35.7201H75.9656L76.1928 34.8922H72.5746L71.6703 39.036ZM76.4185 39.036H80.1117L80.2625 38.2082H77.8508L78.0023 37.3781H80.2625L80.4116 36.4737H78.1515L78.3788 35.7201H80.7139L80.9396 34.8922H77.3229L76.4185 39.036ZM81.1668 39.036H83.4277C84.2563 39.036 84.8585 38.8853 85.3114 38.5847C85.8229 38.1645 86.1697 37.5774 86.2908 36.9267C86.4415 36.173 86.2908 35.5693 85.8394 35.1921C85.4629 34.9664 84.935 34.8915 84.4071 34.8915H82.072L81.1668 39.036ZM83.1255 35.6451H83.8791C84.7085 35.6451 85.2365 35.9458 85.0857 36.9267C84.7835 38.0567 84.1048 38.2082 83.1255 38.2082H82.5234L83.1255 35.6451ZM88.7781 39.036H89.9832L90.8883 34.8922H89.6833L88.7781 39.036ZM90.9641 39.036H92.0184L92.697 36.0223L93.9021 39.036H95.5601L96.4644 34.8922H95.3344L94.7315 37.906L93.4507 34.8922H91.8669L90.9641 39.036ZM98.8011 39.036H101.213C102.568 39.036 103.096 38.4339 103.247 37.906C103.322 37.3781 103.021 36.9267 102.343 36.8501C102.945 36.7751 103.399 36.3987 103.473 35.8708C103.549 35.3428 103.247 34.8915 102.117 34.8915H99.6289L98.8011 39.036ZM100.308 37.3039H101.438C101.741 37.3039 102.041 37.4546 101.966 37.8318C101.892 38.209 101.59 38.2832 101.213 38.2832H100.157L100.308 37.3039ZM100.685 35.6451H101.513C102.041 35.6451 102.269 35.7201 102.192 36.0965C102.117 36.3987 101.741 36.5494 101.213 36.5494H100.459L100.685 35.6451ZM109.275 34.8922H108.07L107.619 37.0782C107.468 37.8318 107.091 38.2832 106.337 38.2832C105.659 38.2832 105.357 37.981 105.508 37.2273L105.959 34.8922H104.754L104.226 37.3039C104.001 38.6596 104.679 39.1876 106.11 39.1876C107.619 39.1876 108.522 38.5854 108.824 37.1531L109.275 34.8922ZM109.578 37.6803C109.427 38.4339 109.503 39.1876 111.236 39.1876C112.14 39.1876 113.345 38.9619 113.647 37.7553C113.798 36.9267 113.196 36.6994 112.517 36.5502L111.989 36.3995C111.538 36.323 111.161 36.2488 111.236 35.9465C111.236 35.7208 111.538 35.5701 112.065 35.5701C112.441 35.5701 112.742 35.6466 112.742 36.0231H113.872C114.023 35.1937 113.721 34.7415 112.139 34.7415C111.235 34.7415 110.179 35.1179 109.953 36.1738C109.803 36.9274 110.481 37.2281 111.16 37.3039L111.688 37.4546C112.139 37.5296 112.441 37.6038 112.365 37.906C112.365 38.1317 112.139 38.3574 111.461 38.3574C110.858 38.3574 110.632 38.2082 110.783 37.6803H109.578ZM114.099 39.036H115.382L116.21 34.8922H115.005L114.099 39.036ZM116.285 39.036H117.415L118.019 36.0223L119.3 39.036H120.882L121.787 34.8922H120.731L120.054 37.906L118.773 34.8922H117.189L116.285 39.036ZM122.012 39.036H125.63L125.856 38.2082H123.37L123.595 37.3781H125.781L126.007 36.4737H123.747L123.897 35.7201H126.308L126.458 34.8922H122.842L122.012 39.036ZM126.761 37.6803C126.61 38.4339 126.684 39.1876 128.419 39.1876C129.323 39.1876 130.604 38.9619 130.83 37.7553C130.981 36.9267 130.454 36.6994 129.7 36.5502L129.172 36.3995C128.721 36.323 128.344 36.2488 128.419 35.9465C128.493 35.7208 128.721 35.5701 129.247 35.5701C129.624 35.5701 130.001 35.6466 129.926 36.0231H131.132C131.207 35.1937 130.905 34.7415 129.398 34.7415C128.419 34.7415 127.363 35.1179 127.137 36.1738C126.986 36.9274 127.665 37.2281 128.344 37.3039L128.87 37.4546C129.323 37.5296 129.624 37.6038 129.549 37.906C129.549 38.1317 129.398 38.3574 128.644 38.3574C128.042 38.3574 127.891 38.2082 127.967 37.6803H126.761ZM131.509 37.6803C131.282 38.4339 131.432 39.1876 133.167 39.1876C134.07 39.1876 135.276 38.9619 135.578 37.7553C135.729 36.9267 135.125 36.6994 134.447 36.5502L133.845 36.3995C133.468 36.323 133.091 36.2488 133.168 35.9465C133.168 35.7208 133.468 35.5701 133.996 35.5701C134.373 35.5701 134.675 35.6466 134.675 36.0231H135.805C135.956 35.1937 135.654 34.7415 134.07 34.7415C133.168 34.7415 132.112 35.1179 131.886 36.1738C131.735 36.9274 132.414 37.2281 133.091 37.3039L133.619 37.4546C134.07 37.5296 134.373 37.6038 134.298 37.906C134.298 38.1317 134.07 38.3574 133.393 38.3574C132.791 38.3574 132.564 38.2082 132.715 37.6803H131.509Z" fill="#DFE1E5" fill-opacity="0.6"/>
<path fill-rule="evenodd" clip-rule="evenodd" d="M26.3801 14.4728C26.6815 13.1162 26.5308 12.5133 25.9279 11.9104C25.0235 11.1568 23.0641 10.7054 20.1253 10.7054C13.5683 10.7054 11.6846 13.4934 11.2324 15.7543C10.5538 18.7689 12.1368 20.8033 18.0151 20.8033C20.5775 20.8033 22.9891 20.3511 24.4964 19.296C25.5515 18.5424 25.8529 17.7138 26.0786 16.8844H21.0297C20.7282 18.0902 19.8239 18.6931 18.3166 18.6931C16.4321 18.6931 16.0557 17.3366 16.3571 15.7535C16.7336 14.1713 17.6387 12.814 19.5974 12.814C20.9539 12.814 21.4061 13.3419 21.3311 14.472L26.3801 14.4728ZM42.1307 15.7535C42.7336 12.8897 41.0756 10.7046 35.273 10.7046C32.2584 10.7046 30.7512 11.081 29.4704 11.7597C27.9631 12.5133 26.7573 13.8699 26.3801 15.7543C25.7772 18.6181 27.4352 20.8033 33.2378 20.8033C36.2523 20.8033 38.4375 20.1246 39.8697 19.1453C41.0756 18.3917 41.8292 17.1851 42.1307 15.7535ZM37.0817 15.7535C36.7053 17.713 35.273 18.6174 33.6899 18.6174C32.0319 18.6174 31.0526 17.713 31.429 15.7535C31.8055 13.7941 33.2378 12.8897 34.82 12.8897C36.4788 12.8897 37.4581 13.7949 37.0817 15.7535ZM41.9799 20.5011H46.9539L47.7075 17.0343H49.2148C50.8728 17.0343 51.0993 17.1851 51.0235 18.3909V20.5011H55.9975V17.3358C55.9975 16.3557 55.1681 15.9792 54.0381 15.9792V15.8285C55.5453 15.602 56.7519 14.8492 57.0526 13.5676C57.5048 11.4574 55.6211 10.9303 52.3801 10.9303H44.0151L41.9799 20.5011ZM48.5369 12.8897H50.3449C51.5507 12.8897 52.3043 13.1912 52.0786 14.0198C51.9279 14.9242 51.0235 15.1506 49.9685 15.1506H48.0848L48.5369 12.8897ZM56.7512 20.5011H61.7252L62.3281 17.4108H66.247C68.7343 17.4108 70.8445 16.5822 71.2967 14.2463C71.8239 11.7589 70.0151 10.9303 67.1513 10.9303H58.7106L56.7512 20.5011ZM63.3074 12.9655H64.8147C66.2462 12.9655 66.6226 13.3427 66.4727 14.1713C66.2462 15.0757 65.5683 15.4521 63.7596 15.4521H62.7802L63.3074 12.9655ZM86.8208 15.7535C87.4229 12.8897 85.7649 10.7046 79.9631 10.7046C76.9493 10.7046 75.3655 11.081 74.1605 11.7597C72.5775 12.5133 71.4474 13.8699 71.0694 15.7543C70.4673 18.6181 72.1253 20.8033 77.8529 20.8033C80.9417 20.8033 83.0526 20.1246 84.5599 19.1453C85.6899 18.3917 86.5201 17.1851 86.8208 15.7535ZM81.7718 15.7535C81.3189 17.713 79.9631 18.6174 78.3051 18.6174C76.7221 18.6174 75.6678 17.713 76.1192 15.7535C76.4956 13.7941 77.8537 12.8897 79.5117 12.8897C81.1697 12.8897 82.1483 13.7949 81.7718 15.7535ZM86.6693 20.5011H91.6433L92.3219 17.0343H93.8292C95.5622 17.0343 95.7129 17.1851 95.7129 18.3909V20.5011H100.612L100.687 17.3358C100.687 16.3557 99.7825 15.9792 98.6525 15.9792L98.729 15.8285C100.236 15.602 101.441 14.8492 101.743 13.5676C102.119 11.4574 100.235 10.9303 97.0694 10.9303H88.6295L86.6693 20.5011ZM93.2271 12.8897H95.0358C96.2408 12.8897 96.9195 13.1912 96.7688 14.0198C96.5431 14.9242 95.7129 15.1506 94.6594 15.1506H92.7741L93.2271 12.8897Z" fill="white"/>
<path fill-rule="evenodd" clip-rule="evenodd" d="M107.473 16.8032L110.11 13.4872L111.24 16.8032H107.473ZM99.7109 20.4956H104.608L105.815 18.9133H111.919L112.447 20.4956H117.947L113.954 10.9248H107.774L99.7109 20.4956ZM119.305 20.4956H124.279L125.786 13.2615H129.628L130.156 10.9256H117.419L116.968 13.2615H120.812L119.305 20.4956ZM128.498 20.4956H139.878L140.33 18.5369H133.774L134.151 16.7282H140.181L140.632 14.693H134.528L134.904 12.96H141.386L141.837 10.9256H130.533L128.498 20.4956Z" fill="white"/>
</svg>
