<svg width="138" height="32" viewBox="0 0 138 32" fill="none" xmlns="http://www.w3.org/2000/svg">
<path d="M137.611 14.6543V15.3334C137.611 15.3334 136.871 15.626 136.871 16.4983L136.876 31.0684C136.876 31.5818 136.462 32.0014 135.949 32.0014H133.083L126.784 22.058C126.784 22.058 126.916 22.8807 126.916 23.9186V32.0014H123.427V14.6543H125.691C126.845 14.6543 127.684 15.1291 128.291 16.0842C128.805 16.8903 133.564 24.3879 133.564 24.3879C133.564 24.3879 133.393 23.88 133.393 22.5107V14.6543H137.611ZM70.5962 14.6543V31.0684C70.5962 31.5818 70.1766 32.0014 69.6631 32.0014H66.8032L60.5037 22.058C60.5037 22.058 60.6362 22.8807 60.6362 23.9186V32.0014H57.1414V14.6543H59.3995C60.5534 14.6543 61.3926 15.1291 61.9999 16.0842C62.5134 16.8903 67.278 24.3879 67.278 24.3879C67.278 24.3879 67.1069 23.88 67.1069 22.5107V14.6543H70.5962ZM27.4271 14.6543H22.7618V21.3016H18.6818V14.6543H13.2656V15.3334C13.2656 15.3334 14.0054 15.615 14.0054 16.4983V32.0014H18.6818V24.4762H22.7618V32.0014H27.4271V14.6543ZM42.5327 14.6543H32.1421V30.45C32.1421 31.3499 32.9979 32.0014 33.8923 32.0014H42.5327C43.0462 32.0014 43.4658 31.5818 43.4658 31.0684V28.8324H37.503C37.1166 28.8324 36.8019 28.5121 36.8019 28.1257V24.4762H42.1131V21.3072H36.8019V17.8289H43.4602V15.5929C43.4658 15.0739 43.0462 14.6543 42.5327 14.6543ZM52.3823 14.6543H47.717V31.0684C47.717 31.5818 48.1366 32.0014 48.65 32.0014H52.3823V14.6543ZM118.535 14.6543H108.139V30.45C108.139 31.3168 108.995 32.0014 109.895 32.0014H118.535C119.049 32.0014 119.469 31.5818 119.469 31.0684V28.8324H113.506C113.119 28.8324 112.805 28.5121 112.805 28.1257V24.4762H118.121V21.3072H112.805V17.8289H119.474V15.5929C119.474 15.0739 119.049 14.6543 118.535 14.6543ZM85.7018 14.6543H75.3056V30.45C75.3056 31.3168 76.1614 32.0014 77.0613 32.0014H85.7018C86.2152 32.0014 86.6348 31.5818 86.6348 31.0684V28.8324H80.6721C80.2856 28.8324 79.9709 28.5121 79.9709 28.1257V24.4762H85.2877V21.3072H79.9709V17.8289H86.6348V15.5929C86.6348 15.0739 86.2152 14.6543 85.7018 14.6543ZM105.445 14.6543H102.077C101.266 14.6543 100.647 14.8586 100.001 15.5984C99.3609 16.3382 95.2477 21.0753 95.2477 21.0753V14.6543H90.5824V31.0684C90.5824 31.5818 91.002 32.0014 91.5154 32.0014H95.2477V24.1395C95.2477 24.1395 98.748 29.6108 99.3609 30.5715C99.9737 31.5321 100.587 32.007 101.983 32.007H105.815L99.267 21.7709L105.445 14.6543Z" fill="#5E5E5E"/>
<path d="M4.57205 20.9696C4.34017 21.1408 4.03099 20.92 4.11933 20.6494C4.24631 20.2629 6.59276 13.0414 6.59276 13.0414L0.122086 8.33748C-0.109798 8.16633 0.0116649 7.80746 0.293238 7.81298H8.28772C8.28772 7.81298 10.6397 0.591448 10.7611 0.204974C10.8495 -0.0655572 11.2304 -0.0710783 11.3188 0.204974C11.4402 0.591448 13.7922 7.80746 13.7922 7.80746H21.7867C22.0683 7.80746 22.1952 8.1608 21.9578 8.33196L18.0986 11.1367H13.5327L12.1193 6.79711L10.7115 11.1422H6.14555L9.83913 13.8254L8.42574 18.1649C8.42574 18.1705 4.80394 20.7985 4.57205 20.9696Z" fill="#3D3D3D" fill-opacity="0.8"/>
</svg>
