<svg width="115" height="32" viewBox="0 0 115 32" fill="none" xmlns="http://www.w3.org/2000/svg">
<path d="M23.6698 5.31183C24.1831 4.71144 24.5131 4.08355 24.5131 3.419C24.5131 2.30531 23.5919 1.59951 22.4644 1.59951C21.4149 1.59951 20.5441 2.27781 20.3791 3.419L18.8438 3.04777C19.1371 1.17786 20.6632 0 22.4552 0C24.4672 0 26.0667 1.37035 26.0667 3.40525C26.0667 4.51895 25.5534 5.53182 24.811 6.38886C23.326 8.11669 23.2894 8.18086 21.6853 10.0737H26.1034V11.6594H18.9812V10.9811L23.6698 5.31183Z" fill="#646464"/>
<path d="M19.0108 19.4334L19.0245 13.6449H31.5822C31.7106 14.4515 31.7747 15.2856 31.7747 16.1152C31.7747 24.8735 24.6434 32.0003 15.8897 32.0003C7.13132 32.014 0 24.8873 0 16.1289C0 7.37061 7.13132 0.243871 15.8851 0.243871V5.84902C10.2158 5.84902 5.60515 10.4596 5.60515 16.1289C5.60515 21.7983 10.2158 26.4089 15.8851 26.4089C20.3903 26.4089 24.2447 23.4894 25.6288 19.4334M43.5258 15.4369C43.5258 11.2525 43.7825 9.54759 44.4745 8.52556C45.3453 7.24687 47.0227 6.54107 49.2135 6.54107C51.1475 6.54107 52.7608 7.10479 53.6178 8.11766C54.2686 8.83262 54.539 9.83174 54.539 11.4083V12.357H50.9917C50.9413 10.565 50.8909 10.2442 50.6342 9.85924C50.3547 9.42385 49.8139 9.15344 49.1631 9.15344C48.4572 9.15344 47.8844 9.46051 47.6415 9.9234C47.284 10.6384 47.1786 11.9583 47.1786 15.414C47.1786 18.2693 47.3069 19.9329 47.536 20.6387C47.7423 21.2254 48.3289 21.5599 49.1126 21.5599C50.4967 21.5599 50.8771 20.8541 50.9963 18.2188H54.5299C54.5024 20.4462 54.3741 21.3537 53.902 22.2245C53.2512 23.4803 51.5325 24.1815 49.0622 24.1815C46.184 24.1815 44.4424 23.1182 43.865 21.0695C43.6404 20.24 43.5258 18.228 43.5258 15.4369ZM56.5739 6.81147H62.0645C64.6998 6.81147 65.1764 6.9123 66.0976 7.65476C66.918 8.33307 67.3259 9.44676 67.3259 11.0967C67.3259 12.4808 67.0464 13.5441 66.5055 14.259C66.0427 14.8869 65.4835 15.1573 64.2782 15.4231C66.5697 15.7027 67.3626 16.7797 67.3901 19.6625C67.3901 20.1254 67.4405 21.0695 67.4909 22.2474C67.5413 23.0678 67.5688 23.219 67.7705 23.9386H63.994C63.8382 22.8249 63.8382 22.7974 63.8382 20.6983C63.8382 18.6359 63.6824 17.6139 63.2745 17.151C62.9949 16.8439 62.6878 16.766 61.7758 16.766H60.0617V23.9477H56.5648L56.5739 6.81147ZM61.5008 14.2361C63.1003 14.2361 63.6778 13.5578 63.6778 11.7658C63.6778 10.8171 63.4211 10.0517 62.9995 9.6805C62.6924 9.42385 62.4632 9.37343 61.5925 9.37343H60.0434V14.2361H61.5008ZM69.5533 15.3498C69.5533 11.3533 69.7321 9.97382 70.4241 8.76846C71.2445 7.29728 72.9448 6.54107 75.3647 6.54107C78.0412 6.54107 79.8562 7.54019 80.562 9.41926C80.9194 10.3405 81.0753 12.1462 81.0753 15.4369C81.0753 19.0346 80.8965 20.735 80.397 21.7112C79.5766 23.3382 77.8258 24.209 75.3922 24.209C72.9586 24.209 71.2812 23.4665 70.4379 21.9816C69.7458 20.79 69.5533 19.3692 69.5533 15.3498ZM75.3143 21.5691C76.3776 21.5691 77.0055 21.0558 77.2209 20.0475C77.3492 19.3967 77.45 17.1693 77.45 14.7723C77.45 12.2012 77.3217 10.6888 77.065 10.0746C76.8359 9.51093 76.1668 9.15344 75.3235 9.15344C74.3518 9.15344 73.6735 9.58884 73.481 10.3313C73.3023 11.0463 73.2015 12.8291 73.2015 15.5561C73.2015 17.8201 73.2794 19.305 73.4077 20.0246C73.6002 21.0558 74.2235 21.5691 75.3143 21.5691ZM82.2256 6.81147H85.7959L86.96 13.0583C87.3679 15.3223 87.4733 17.3847 87.6658 21.3262C88.3808 16.0785 88.6145 14.6165 88.9445 13.0583L90.3011 6.81147H94.3067L95.5854 13.0583C96.172 15.9135 96.3004 17.8476 96.4837 21.3262C96.7128 18.4205 96.9466 16.2939 97.5057 13.0583L98.6194 6.81147H101.754L98.2986 23.9523H94.4213L92.8035 15.9869C92.5239 14.6028 92.1756 11.3671 92.0977 9.61175C91.5843 13.4662 91.5614 14.0161 91.1489 15.9869L89.4853 23.9477H85.5163L82.2256 6.81147ZM103.285 6.81147H108.074C110.852 6.81147 111.7 6.9673 112.566 7.58143C113.652 8.37431 114.193 9.75841 114.422 12.4716C114.5 13.5349 114.55 14.8915 114.55 16.0969C114.55 19.1813 114.335 20.6937 113.835 21.702C113.12 23.1503 111.466 23.9661 109.344 23.9661H103.303L103.285 6.81147ZM108.395 21.2483C109.623 21.2483 110.302 20.9687 110.545 20.3271C110.801 19.6488 110.879 18.6634 110.879 15.8585C110.879 12.797 110.778 11.4542 110.494 10.6109C110.238 9.89591 109.546 9.49718 108.482 9.49718H106.883V21.2483H108.395ZM38.3286 0.0605469H37.1874V31.6932H38.3286V0.0605469Z" fill="#646464"/>
</svg>
