<svg width="142" height="44" viewBox="0 0 142 44" fill="none" xmlns="http://www.w3.org/2000/svg">
<path fill-rule="evenodd" clip-rule="evenodd" d="M43.7736 21.9982C43.7736 34.0868 33.9742 43.8862 21.8856 43.8862C9.79937 43.8862 0 34.0868 0 21.9982C0 9.90874 9.79937 0.109375 21.8856 0.109375C33.975 0.109375 43.7736 9.90874 43.7736 21.9982Z" fill="white"/>
<path fill-rule="evenodd" clip-rule="evenodd" d="M8.56778 10.4714L30.6083 10.2378C31.4932 10.2306 32.2142 10.7445 32.2223 11.3884C32.2279 11.9746 31.6377 12.466 30.8637 12.5543L13.0138 12.7422C12.1289 12.7527 11.4183 13.281 11.4255 13.9282C11.4311 14.5449 12.096 15.0411 12.9303 15.0724H12.9487C12.9785 15.0756 13.0082 15.0781 13.0379 15.0756L30.7464 14.8902C31.5903 14.9143 32.2632 15.4161 32.2713 16.0344C32.2769 16.5708 31.7887 17.0236 31.1182 17.169L34.8054 17.1312V17.1104C38.271 17.0734 42.3195 19.2045 44.0009 22.2469C44.0628 16.6896 42.0353 11.1018 37.8848 6.76979C33.6797 2.38401 28.095 0.118036 22.4639 0H21.697C16.3204 0.0738727 10.9566 2.10136 6.76834 6.11538C4.57725 8.21237 2.84515 10.7412 1.68157 13.542C3.42239 11.9706 5.75741 10.8826 7.85635 10.6007C8.07155 10.5204 8.31324 10.4747 8.56778 10.4714ZM35.2655 33.4025L13.225 33.6353C12.3393 33.6466 11.619 33.1295 11.6134 32.4855C11.6054 31.8985 12.1956 31.4079 12.9696 31.3188L30.8195 31.1317C31.7052 31.1237 32.415 30.5929 32.4078 29.9465C32.4021 29.3299 31.7381 28.8336 30.9038 28.8023H30.8845C30.8548 28.8023 30.8283 28.7983 30.797 28.7983L13.0853 28.9838C12.2429 28.9597 11.5709 28.4611 11.5628 27.8379C11.5572 27.3048 12.0454 26.8511 12.7135 26.7042L9.03029 26.7451V26.766C5.6731 26.8005 1.76989 24.8044 0.000159893 21.9153C-0.0207172 27.4204 2.00275 32.9408 6.11553 37.2278C10.3206 41.6136 15.9069 43.8804 21.5372 44H22.4502C27.9709 43.8952 33.2489 41.7113 37.2296 37.8846C39.5386 35.6738 41.3366 32.9851 42.4978 30.0068C40.7305 31.7532 38.2212 32.9721 35.9769 33.2724C35.7498 33.359 35.5086 33.4031 35.2655 33.4025Z" fill="#D9D9D9"/>
<path fill-rule="evenodd" clip-rule="evenodd" d="M66.0412 4.42675C67.827 4.42675 68.2935 4.86678 68.2935 6.9336V10.714C68.2935 12.8233 67.599 13.0779 66.0412 13.0915H64.6095C63.0542 13.0779 62.3604 12.8233 62.3604 10.714V6.9336C62.3604 4.86678 62.8262 4.42675 64.6095 4.42675H66.0412ZM64.6087 3.36523C61.963 3.39173 61.156 4.27178 61.156 6.9336V10.714C61.156 13.22 62.0617 14.1539 64.6087 14.1539H66.0404C68.5874 14.1539 69.4964 13.22 69.4964 10.714V6.9336C69.4964 4.27178 68.6862 3.39093 66.0404 3.36523H64.6087ZM76.2927 4.42675C78.076 4.42675 78.5466 4.86678 78.5466 6.9336V10.714C78.5466 12.8233 77.852 13.0779 76.2927 13.0915H74.8642C73.304 13.0779 72.6119 12.8233 72.6119 10.714V6.9336C72.6119 4.86678 73.0792 4.42675 74.8642 4.42675H76.2927ZM74.8634 3.36523C72.216 3.39173 71.4082 4.27178 71.4082 6.9336V10.714C71.4082 13.22 72.3148 14.1539 74.8634 14.1539H76.2919C78.8405 14.1539 79.7486 13.22 79.7486 10.714V6.9336C79.7486 4.27178 78.9424 3.39093 76.2919 3.36523H74.8634ZM82.9187 13.0096V4.51267H87.0829C89.1072 4.51267 89.3175 6.48074 89.3175 7.07332V9.86442C89.291 11.7618 89.0068 13.0096 86.8838 13.0096H82.9187ZM81.7143 14.0711H87.1672C90.3525 14.0711 90.522 11.1243 90.522 10.0756V7.54225C90.522 3.61978 88.1725 3.44875 86.8838 3.44875H81.7143V14.0711ZM66.2685 27.2911H65.0648V17.7335H61.6257V16.6711H69.7116V17.7335H66.2685V27.2911ZM75.9771 24.0464H71.2773L73.6124 17.6604L75.9771 24.0464ZM76.3176 25.0388L77.1534 27.2911H78.3988L74.4354 16.6711H72.7355L68.8693 27.2911H70.1291L70.9497 25.0388H76.3176ZM89.2782 27.2911H87.3125L81.3497 17.6604H81.3232V27.2911H80.1156V16.6711H82.1013L88.0464 26.3685H88.0761V16.6711H89.2782V27.2911ZM92.6322 26.2296V17.7335H96.7931C98.819 17.7335 99.031 19.7007 99.031 20.2957V23.0844C99.0013 24.9826 98.7202 26.2296 96.5972 26.2296H92.6322ZM91.4277 27.2911H96.8774C100.066 27.2911 100.235 24.3443 100.235 23.2964V20.7622C100.235 16.8398 97.8843 16.6711 96.5972 16.6711H91.4277V27.2911ZM108.179 24.0464H103.479L105.814 17.6604L108.179 24.0464ZM108.538 25.0388L109.376 27.2911H110.621L106.656 16.6711H104.956L101.091 27.2911H102.353L103.17 25.0388H108.538ZM113.367 21.9803V17.7335H117.078C118.972 17.7335 119.159 18.2425 119.159 19.6012C119.159 21.3556 118.933 21.9233 117.078 21.9795L113.367 21.9803ZM113.367 23.0419H117.233C118.691 23.0419 119.019 23.6939 119.019 25.0388V27.2911H120.22V24.4727C120.22 23.3245 119.697 22.6444 118.506 22.5609V22.532C120.192 22.32 120.362 21.2151 120.362 19.7304C120.362 17.3071 119.356 16.6711 117.062 16.6711H112.164V27.2911H113.367V23.0419ZM123.704 26.2296V17.7335H127.869C129.894 17.7335 130.105 19.7007 130.105 20.2957V23.0844C130.077 24.9826 129.793 26.2296 127.669 26.2296H123.704ZM122.502 27.2911H127.953C131.138 27.2911 131.311 24.3443 131.311 23.2964V20.7622C131.311 16.8398 128.96 16.6711 127.669 16.6711H122.502V27.2911ZM59.0354 37.3691H54.3324L56.6706 30.9856L59.0354 37.3691ZM59.3758 38.3608L60.2093 40.6139H61.4571L57.4913 29.9931H55.7922L51.9283 40.6139H53.1882L54.0088 38.3608H59.3758ZM74.266 34.6664H79.6466V35.658H74.266V39.5516H79.8883V40.6139H73.0631V29.9931H79.8883V31.0546H74.266V34.6664ZM91.0013 40.6139H89.0317L83.0689 30.9848H83.0424V40.6139H81.8379V29.9931H83.822L89.7688 39.6937H89.7953V29.9931H91.0013V40.6139ZM107.23 36.1808V40.6139H106.027V36.1808L102.133 29.9931H103.533L106.678 34.9619L109.82 29.9931H111.251L107.23 36.1808ZM59.2738 4.51267V3.44875H52.7594L52.7562 13.5348C52.7562 13.6958 52.8202 13.8502 52.934 13.964C53.0478 14.0779 53.2022 14.1418 53.3632 14.1418C53.5242 14.1418 53.6786 14.0779 53.7925 13.964C53.9063 13.8502 53.9703 13.6958 53.9703 13.5348L53.9655 9.21241H59.1317V8.22076H53.9655V4.51267H59.2738ZM66.9446 35.3015L66.9341 35.3071C66.7961 35.3107 66.6648 35.3678 66.5682 35.4664C66.4715 35.565 66.417 35.6974 66.4162 35.8355C66.4174 35.9735 66.472 36.1057 66.5686 36.2044C66.6651 36.3031 66.7961 36.3605 66.9341 36.3646C66.9397 36.3646 66.9446 36.3703 66.9502 36.3703V36.3646H69.9669V37.6839C69.9669 39.3838 69.514 39.6383 67.403 39.6383H66.2693C64.2859 39.6383 63.6074 39.1854 63.6074 37.1588V33.7454C63.6074 31.4232 63.9479 30.9711 66.2396 30.9711H67.7282C69.4578 30.9711 69.9372 31.2682 69.9372 32.4855L69.9428 32.6734C69.9428 32.6999 69.9613 32.7537 69.9613 32.7537C69.9773 32.8854 70.0279 33.0058 70.1139 33.095C70.2247 33.2074 70.374 33.2772 70.5426 33.2772C70.7121 33.2772 70.8405 33.2684 71.0043 33.0789C71.116 32.948 71.1408 32.6742 71.1408 32.6742V32.2751C71.1408 30.5608 69.9067 29.9104 68.3096 29.9104H65.5177C63.7062 29.9104 62.403 30.7302 62.403 33.6073V36.8922C62.403 40.1755 63.6492 40.7006 66.4812 40.7006H67.6447C70.0496 40.7006 71.1706 40.1056 71.1706 37.6116V35.3039H66.9446V35.3015ZM101.425 37.4013C101.419 37.2538 101.359 37.1138 101.256 37.0078C101.256 37.0046 101.253 37.0046 101.253 37.0022C101.147 36.8939 101.003 36.8311 100.851 36.8271C100.843 36.8271 100.835 36.8247 100.825 36.8247L100.8 36.8271C100.648 36.8321 100.503 36.8946 100.395 37.0022L100.394 37.0078C100.288 37.1157 100.226 37.2592 100.221 37.4101V37.8525C100.221 39.3669 99.6268 39.6375 97.7005 39.6375H96.2688C94.2614 39.6375 94.1626 38.5479 94.1626 36.1262V33.209C94.1626 31.2674 95.0395 30.9703 97.5327 30.9703H98.2104C99.7585 30.9703 100.076 31.5139 100.08 32.9753C100.08 32.9753 100.125 33.2202 100.251 33.3077C100.357 33.4179 100.502 33.4832 100.655 33.49C100.667 33.49 100.674 33.4932 100.682 33.4932C100.69 33.4932 100.699 33.49 100.705 33.49C100.86 33.4838 101.006 33.4186 101.115 33.3077C101.259 33.2034 101.282 32.8878 101.282 32.8878C101.264 30.8499 100.575 29.9088 98.383 29.9088H97.3905C94.8106 29.9088 92.9582 30.2493 92.9582 33.2491V37.3563C92.9582 39.4817 94.1064 40.699 96.0448 40.699H97.743C99.8669 40.699 101.425 40.4284 101.425 37.9946V37.4261H101.427L101.425 37.4013ZM56.7991 21.3283C54.815 21.2721 53.853 21.444 53.853 19.4173C53.853 17.9455 54.1798 17.6484 56.5293 17.6484C58.5793 17.6484 59.057 17.7062 59.1703 19.1138L59.1727 19.1226C59.1727 19.2864 59.2393 19.4631 59.3437 19.5739C59.4561 19.6887 59.6095 19.7634 59.7829 19.7634C59.8647 19.7628 59.9456 19.7457 60.0207 19.7132C60.0957 19.6806 60.1634 19.6332 60.2197 19.5739C60.3281 19.4539 60.3892 19.2987 60.3916 19.137H60.3996C60.3434 16.6752 58.7455 16.5876 56.5711 16.5876C53.9518 16.5876 52.6486 16.8422 52.6486 19.6734C52.6486 22.4774 54.4472 22.2228 56.5446 22.3915C58.4821 22.5472 59.3887 22.2092 59.3887 24.2343C59.3887 26.3139 58.7664 26.3139 56.5004 26.3139C54.3958 26.3139 53.8627 26.3605 53.8249 24.4487C53.8249 24.4487 53.7976 24.097 53.6587 23.9797C53.5519 23.8679 53.4061 23.8018 53.2516 23.795C53.2412 23.795 53.2323 23.7926 53.2219 23.7926C53.2139 23.7926 53.2026 23.795 53.1922 23.795C53.0382 23.8035 52.8929 23.8694 52.7851 23.9797C52.6269 24.1114 52.602 24.4029 52.602 24.4029C52.5354 27.0784 53.9269 27.3755 56.4996 27.3755C59.1759 27.3755 60.5915 27.2767 60.5915 24.2768C60.5931 21.4006 59.3188 21.4705 56.7991 21.3283ZM137.327 21.3283C135.343 21.2721 134.38 21.444 134.38 19.4173C134.38 17.9455 134.704 17.6484 137.055 17.6484C139.104 17.6484 139.581 17.7062 139.696 19.1138L139.699 19.1226C139.699 19.2864 139.767 19.4631 139.871 19.5739C139.982 19.6887 140.135 19.7634 140.308 19.7634C140.486 19.7634 140.637 19.6879 140.749 19.5739C140.856 19.4534 140.917 19.2984 140.92 19.137H140.928C140.872 16.6752 139.272 16.5876 137.099 16.5876C134.48 16.5876 133.177 16.8422 133.177 19.6734C133.177 22.4774 134.976 22.2228 137.07 22.3915C139.011 22.5472 139.916 22.2092 139.916 24.2343C139.916 26.3139 139.292 26.3139 137.03 26.3139C134.923 26.3139 134.391 26.3605 134.353 24.4487C134.353 24.4487 134.327 24.097 134.187 23.9797C134.08 23.868 133.934 23.8018 133.779 23.795C133.77 23.795 133.761 23.7926 133.75 23.7926C133.74 23.7926 133.733 23.795 133.721 23.795C133.567 23.8035 133.422 23.8694 133.314 23.9797C133.154 24.1114 133.131 24.4029 133.131 24.4029C133.064 27.0784 134.455 27.3755 137.03 27.3755C139.703 27.3755 141.12 27.2767 141.12 24.2768C141.121 21.4006 139.847 21.4705 137.327 21.3283ZM44.0031 22.2477C42.3217 19.2053 38.2731 17.0742 34.8076 17.1112V17.132L31.1203 17.1698V17.1722L13.0633 17.3601C12.1784 17.3705 11.4678 17.8989 11.4766 18.5421C11.4782 19.0005 11.8484 19.3924 12.38 19.5779C12.4616 19.6048 12.5447 19.627 12.6289 19.6445L12.6939 19.6606C12.763 19.6718 12.8361 19.6766 12.9051 19.6823C12.9645 19.6847 13.0207 19.6959 13.0794 19.6927L30.8064 19.508V19.5273C31.4182 19.549 31.9329 19.822 32.1714 20.2082C32.177 20.2186 32.1843 20.2259 32.1931 20.2347C32.1979 20.2451 32.2011 20.2532 32.2035 20.2644C32.2758 20.3929 32.3192 20.535 32.3208 20.6852C32.3264 21.2344 31.8061 21.7033 31.1043 21.8326H30.9991C30.9108 21.8462 30.82 21.8535 30.7253 21.8559L12.8328 22.0438C12.0845 22.1482 11.5184 22.6283 11.524 23.2049C11.5272 23.3526 11.5674 23.4939 11.6372 23.6224L11.6453 23.6417C11.6533 23.6521 11.6637 23.6625 11.6718 23.6762C11.9271 24.0729 12.4844 24.3467 13.1275 24.3411L30.8578 24.154V24.1853C30.8851 24.1853 30.9084 24.1917 30.9357 24.1933C31.0047 24.1997 31.0746 24.2054 31.1452 24.2182C31.1649 24.2209 31.1843 24.2254 31.203 24.2318C31.2866 24.2479 31.3677 24.2664 31.4423 24.2905L31.4504 24.2961C31.9891 24.4784 32.3649 24.8694 32.3706 25.3335C32.3786 25.9767 31.668 26.505 30.7831 26.5163L12.7164 26.7058C12.0484 26.8535 11.561 27.3064 11.5658 27.8396C11.5738 28.4619 12.2467 28.9605 13.0882 28.9854L30.8 28.7999C30.8321 28.7999 30.8586 28.8039 30.8875 28.8039H30.9068C31.741 28.8352 32.4051 29.3315 32.4107 29.9482C32.4179 30.5945 31.7081 31.1253 30.8224 31.1333L12.9726 31.3204C12.1977 31.4095 11.6083 31.9002 11.6164 32.4871C11.6212 33.1311 12.3422 33.6474 13.2279 33.637L35.2685 33.4041C35.5238 33.4041 35.7647 33.3559 35.9791 33.2756C38.2234 32.9753 40.7326 31.7556 42.4999 30.01C43.4637 27.534 43.9729 24.9045 44.0031 22.2477Z" fill="#3D3D3D"/>
</svg>
