<svg width="124" height="40" viewBox="0 0 124 40" fill="none" xmlns="http://www.w3.org/2000/svg">
<path d="M58.7982 24.7386L57.4234 31.6071C56.8178 34.3916 55.1402 36.2507 51.7134 36.2507C47.7807 36.2507 46.7426 33.8114 47.6058 30.379C48.8264 25.5097 52.7986 24.0596 58.7982 24.7386ZM64.9925 14.9191L60.8106 15.1853L59.4885 21.9109C57.8898 21.8544 57.3867 21.8037 55.5069 21.8037C49.6229 21.8037 44.4875 24.2769 43.1306 30.079C41.9081 35.3103 44.8797 39.37 51.3598 39.37C57.998 39.37 60.8859 35.9066 61.9241 31.0373L64.9925 14.9191ZM19.6304 25.032C13.4992 24.4734 8.22457 24.9822 8.13899 27.0642C8.0064 30.19 18.2443 27.4629 18.0468 33.2133C17.7591 41.6617 3.52267 39.7179 0 38.6431L0.639459 36.1351C6.71338 37.099 13.1211 37.1789 13.2612 33.8293C13.4117 30.269 3.13147 33.4691 3.3722 27.7036C3.55182 23.4089 9.97744 21.0927 20.4947 22.6378L19.6304 25.032ZM36.1623 30.7787C35.2774 34.3051 32.4807 36.5197 29.1509 36.5197C25.6686 36.5197 24.102 34.5016 25.0358 30.7787C25.9216 27.2522 28.7503 24.8853 32.0792 24.8853C35.4063 24.8853 37.0472 27.2522 36.1623 30.7787ZM32.6162 21.9983C26.5187 21.9983 21.6175 25.5247 20.4119 30.7787C19.2035 36.0354 22.4873 39.5618 28.5819 39.5618C34.6765 39.5618 39.5797 36.0354 40.7852 30.7787C41.9936 25.5257 38.7117 21.9983 32.6162 21.9983ZM103.065 39.4725H97.7648C94.5506 36.451 88.4024 29.5073 83.8754 22.1591H87.7648C92.0633 28.091 103.065 39.4725 103.065 39.4725ZM108.619 5.0837L111.058 0L111.754 5.16833L116.726 3.42863L113.251 7.88415L117.02 10.804L111.99 11.1924L111.713 16.5676L108.916 12.5955L104.806 16.3852L106.347 11.0448L101.499 10.3874L106.217 7.69984L104.282 3.09949L108.619 5.0837ZM118.954 30.8323C118.055 34.4142 115.215 36.6636 111.834 36.6636C108.298 36.6636 106.704 34.6135 107.654 30.8323C108.553 27.2503 111.426 24.8458 114.806 24.8458C118.19 24.8458 119.855 27.2503 118.954 30.8323ZM115.353 21.9099C109.16 21.9099 104.183 25.4947 102.956 30.8323C101.729 36.1708 105.064 39.7536 111.255 39.7536C117.448 39.7536 122.427 36.1708 123.652 30.8323C124.879 25.4947 121.546 21.9099 115.353 21.9099Z" fill="#3D3D3D" fill-opacity="0.8"/>
<path d="M79.8594 37.9934C89.8697 32.4329 98.5654 23.8886 104.732 16.502C100.299 30.3801 89.6252 37.8486 79.8594 37.9934Z" fill="#D9D9D9"/>
<path d="M75.8951 24.5696C77.8125 24.5696 78.8563 25.2655 78.8563 26.5952C78.8563 30.1245 71.9765 29.8912 68.9419 29.2734C70.0092 26.6309 72.4194 24.5696 75.8951 24.5696ZM82.9799 26.4034C82.9799 23.8437 80.9402 21.9629 76.3126 21.9629C68.8065 21.9629 63.9297 26.835 63.9297 32.8666C63.9297 36.7617 67.1637 39.9994 73.0702 39.9994C77.1402 39.9994 79.8578 37.9936 79.8578 37.9936C74.6782 38.5484 68.3175 37.9936 68.3175 32.4528C68.3175 32.2328 68.3297 32.0127 68.3476 31.7936C75.4146 33.2606 82.9799 31.4861 82.9799 26.4034Z" fill="#3D3D3D" fill-opacity="0.8"/>
</svg>
