<svg width="130" height="30" viewBox="0 0 130 30" fill="none" xmlns="http://www.w3.org/2000/svg">
<path fill-rule="evenodd" clip-rule="evenodd" d="M10.5397 0L12.0517 3.365H4.99043V7.86088H14.1683L15.9825 11.2259H4.99043V16.2903H12.657L9.57139 19.6539H0V0H10.5397Z" fill="#3D3D3D" fill-opacity="0.8"/>
<path fill-rule="evenodd" clip-rule="evenodd" d="M20.3855 5.21875L22.6901 9.2277L27.2137 5.21875H32.7353L25.3365 12.5457L29.7777 19.7245H24.2236L22.0766 15.6693L8.69546 29.704H3.14062L19.6101 12.3852L15.4829 5.21875H20.3855Z" fill="#D9D9D9"/>
<path fill-rule="evenodd" clip-rule="evenodd" d="M42.5782 10.4823C41.881 8.16937 40.5882 8.14101 39.1641 8.08844C37.5718 8.00752 36.4451 8.84168 35.9478 10.2402C35.7825 10.6698 35.2506 12.7406 35.815 14.4892C36.544 16.7766 37.771 17.0982 39.2291 17.1252C40.3897 17.1791 41.8492 17.0173 42.5782 14.5445H47.0367C47.0699 16.5338 44.8407 18.4767 44.1746 18.9346C42.8106 19.8504 41.8153 20.1761 38.8985 20.2585C33.2883 20.4175 31.2928 16.6963 30.9594 14.5708C30.7602 13.2808 30.5935 10.7784 31.5916 8.9226C33.7199 5.01672 36.1463 4.96277 39.1295 4.80161C40.9196 4.71999 42.8445 5.07067 43.8744 5.60879C45.9038 6.63316 47.0353 9.29887 47.0353 10.4823H42.5782ZM53.6263 10.9997C53.5924 9.61704 54.6576 7.83045 57.5163 7.93766C60.3079 8.04556 60.7741 9.88818 60.7741 10.9997H53.6263ZM65.5964 13.5319C65.6967 11.7806 65.6967 9.80725 64.0671 7.66859C62.9362 6.22092 60.7402 4.80091 57.2168 4.80091C55.1563 4.80091 50.2696 5.06721 49.1062 10.7818C48.8731 11.9148 48.8731 13.045 48.9395 13.9075C49.0398 14.7949 49.2051 15.4402 49.2715 15.681C49.737 16.9453 50.834 18.2664 52.4968 19.1539C53.7598 19.8013 55.4226 20.2591 57.1829 20.2591C60.3411 20.2591 64.5983 18.3474 65.3965 15.5212H60.808C60.5742 16.2751 59.4433 16.9453 58.1146 17.1611C56.7852 17.3479 55.2545 17.0532 54.1914 15.8698C53.5267 15.1172 53.5267 14.3114 53.6263 13.5319H65.5964ZM67.5767 0H72.2268V19.6539H67.5767V0ZM74.8289 0H79.4783V19.6539H74.8289V0ZM86.6233 10.9997C86.5894 9.61704 87.6539 7.83045 90.5126 7.93766C93.3049 8.04556 93.7697 9.88818 93.7697 10.9997H86.6233ZM98.5928 13.5319C98.6931 11.7806 98.6931 9.80725 97.0635 7.66859C95.9326 6.22092 93.7372 4.80091 90.2131 4.80091C88.1526 4.80091 83.2666 5.06721 82.1019 10.7818C81.8695 11.9148 81.8695 13.045 81.9359 13.9075C82.0362 14.7949 82.2022 15.4402 82.2679 15.681C82.7341 16.9453 83.8297 18.2664 85.4924 19.1539C86.7554 19.8013 88.4175 20.2591 90.1786 20.2591C93.3381 20.2591 97.5954 18.3474 98.3936 15.5212H93.8029C93.5691 16.2751 92.4396 16.9453 91.1088 17.1611C89.7794 17.3479 88.2515 17.0532 87.187 15.8698C86.5223 15.1172 86.5224 14.3114 86.6226 13.5319H98.5928ZM101.126 5.06582H105.774V7.26051H105.842C106.741 5.72499 108.47 4.80991 110.273 4.80161C114.4 4.80161 117.19 6.19671 117.19 9.85498V19.6546H112.541V10.9617C112.541 9.66546 112.34 8.12648 109.176 8.12648C106.34 8.12648 105.774 9.3957 105.774 10.5833V19.6539H101.126V5.06582ZM120.762 5.3674V1.36467H125.41V5.3674H128.006V7.86088H125.41V16.0593C125.41 16.7863 125.542 17.3209 126.176 17.3209L127.939 17.3507V19.9078C127.239 20.0966 126.475 20.2322 125.71 20.2591C124.945 20.2861 124.214 20.2322 123.516 20.0703C122.121 19.7189 121.026 18.8855 120.762 17.3507V7.86088H118.467V5.3674H120.762ZM20.0289 29.8347H19.2266L20.2074 21.832H21.0104L20.6528 24.7433C21.0713 24.3532 21.6191 23.9921 22.1648 23.9921C23.1428 23.9921 24.1651 24.8768 23.8919 27.1088C23.6242 29.2903 22.2305 30 21.4593 30C20.8319 30 20.4315 29.6597 20.1084 29.188L20.0289 29.8347ZM20.224 28.2397C20.392 28.7245 20.8665 29.3 21.4316 29.3C21.987 29.3 22.8461 28.7557 23.0501 27.0887C23.1546 26.2366 23.1075 24.6921 21.9863 24.6921C21.3694 24.6921 20.8548 25.1119 20.5477 25.6079L20.224 28.2397ZM30.4227 24.1567H31.2237L30.5285 29.8347H29.7255L29.7981 29.2481C29.2787 29.6279 28.7903 29.9993 28.1422 29.9993C27.3399 29.9993 26.7458 29.5559 26.927 28.0758L27.4077 24.1567H28.2107L27.7556 27.8703C27.683 28.4672 27.6781 29.3401 28.3255 29.3401C28.8194 29.3401 29.527 28.858 29.8929 28.4755L30.4227 24.1567ZM37.529 25.4211C37.2668 24.948 36.9203 24.6713 36.3255 24.6713C35.8005 24.6713 35.2734 24.939 35.2029 25.5159C35.0327 26.9034 38.1003 26.2968 37.8658 28.2086C37.7295 29.3201 36.8546 30 35.7846 30C34.8688 30 34.1785 29.5988 33.8112 28.8069L34.498 28.4043C34.736 28.9922 35.1876 29.3201 35.8669 29.3201C36.4534 29.3201 37.0171 29.0026 37.0967 28.3531C37.271 26.9241 34.1958 27.6033 34.4455 25.565C34.5651 24.5897 35.4401 23.9928 36.3766 23.9928C37.1686 23.9928 37.7863 24.3214 38.1487 24.9805L37.529 25.4211ZM41.6361 29.8347H40.8338L41.5303 24.1567H42.3326L41.6361 29.8347ZM42.5097 22.7167H41.7074L41.8153 21.832H42.619L42.5097 22.7167ZM45.7502 29.8347H44.9472L45.6437 24.1567H46.4467L46.3734 24.7433C46.8942 24.3635 47.3819 23.9921 48.0307 23.9921C48.8316 23.9921 49.4272 24.4355 49.2445 25.9157L48.7645 29.8347H47.9615L48.4166 26.1225C48.4899 25.5242 48.6988 24.6513 47.8467 24.6513C47.3528 24.6513 46.6466 25.132 46.2793 25.5159L45.7502 29.8347ZM53.0861 27.1302C52.8869 28.7557 53.5066 29.3201 54.329 29.3201C54.9253 29.3201 55.489 28.8366 55.8376 28.3434L56.3667 28.7246C55.9697 29.4557 55.1418 30 54.1637 30C52.898 30 51.9974 29.1243 52.2589 26.9954C52.5203 24.8678 53.6346 23.9921 54.9004 23.9921C56.5362 23.9921 56.7942 25.74 56.5106 27.1302H53.0861ZM55.7497 26.451C55.8611 25.7199 55.5983 24.672 54.7551 24.672C53.849 24.672 53.2971 25.6487 53.1892 26.451H55.7497ZM63.087 25.4211C62.8263 24.948 62.4797 24.6713 61.8835 24.6713C61.3578 24.6713 60.8315 24.939 60.7616 25.5159C60.5908 26.9034 63.6584 26.2968 63.4232 28.2086C63.2869 29.3201 62.412 30 61.3433 30C60.4275 30 59.7359 29.5988 59.37 28.8069L60.0561 28.4043C60.2934 28.9922 60.7471 29.3201 61.4256 29.3201C62.0122 29.3201 62.5773 29.0026 62.654 28.3531C62.829 26.9241 59.7539 27.6033 60.0035 25.565C60.1232 24.5897 60.9989 23.9928 61.934 23.9928C62.7274 23.9928 63.345 24.3214 63.7061 24.9805L63.087 25.4211ZM70.0812 25.4211C69.8205 24.948 69.4733 24.6713 68.8764 24.6713C68.3521 24.6713 67.825 24.939 67.7551 25.5159C67.585 26.9034 70.6526 26.2968 70.4181 28.2086C70.2818 29.3201 69.4062 30 68.3375 30C67.4231 30 66.7301 29.5988 66.3649 28.8069L67.051 28.4043C67.2876 28.9922 67.7399 29.3201 68.4198 29.3201C69.0078 29.3201 69.5694 29.0026 69.6489 28.3531C69.8246 26.9241 66.7474 27.6033 66.9985 25.565C67.1174 24.5897 67.9938 23.9928 68.9289 23.9928C69.7216 23.9928 70.3392 24.3214 70.7003 24.9805L70.0812 25.4211ZM82.0929 25.4211C81.8321 24.948 81.4863 24.6713 80.8894 24.6713C80.3637 24.6713 79.8373 24.939 79.7681 25.5159C79.5966 26.9034 82.6649 26.2968 82.4311 28.2086C82.2935 29.3201 81.4192 30 80.3492 30C79.4334 30 78.7417 29.5988 78.3765 28.8069L79.0626 28.4043C79.2992 28.9922 79.7543 29.3201 80.4322 29.3201C81.0187 29.3201 81.5831 29.0026 81.6599 28.3531C81.8369 26.9241 78.7611 27.6033 79.0094 25.565C79.1297 24.5897 80.0047 23.9928 80.9398 23.9928C81.7325 23.9928 82.3516 24.3214 82.7119 24.9805L82.0929 25.4211ZM85.5817 26.9954C85.8424 24.8678 86.9581 23.9921 88.2225 23.9921C89.4869 23.9921 90.3881 24.8678 90.1287 26.9954C89.8666 29.1243 88.7523 30 87.4865 30C86.2208 30 85.3202 29.1243 85.5817 26.9954ZM89.3257 26.9954C89.4447 26.0284 89.3741 24.672 88.1409 24.672C86.9062 24.672 86.5023 26.0284 86.3847 26.9954C86.2657 27.9637 86.3363 29.3201 87.5695 29.3201C88.8042 29.3201 89.2067 27.9637 89.3257 26.9954ZM95.7195 24.8366H94.671L94.0588 29.8354H93.2565L93.87 24.8366H93.0054L93.0877 24.1574H93.9509L94.0796 23.1296C94.1972 22.1613 94.8038 21.6695 95.7604 21.6695L96.174 21.7303L96.0903 22.4206C95.9675 22.3741 95.8377 22.349 95.7064 22.3466C95.0998 22.3466 94.9407 22.6572 94.8826 23.1178L94.7553 24.1581H95.8039L95.7195 24.8366ZM99.761 24.1567H101.047L100.965 24.836H99.6787L99.2422 28.4036C99.1731 28.959 99.1178 29.3194 99.7769 29.3194C100.002 29.3194 100.222 29.2993 100.423 29.2475L100.352 29.834C100.083 29.926 99.8066 29.9986 99.53 29.9986C98.1708 29.9986 98.3562 29.0828 98.4828 28.0439L98.8757 24.8353H98.0124L98.0948 24.156H98.9594L99.1848 22.3148H99.9872L99.761 24.1567ZM107.748 29.8347H106.955L106.479 25.3284H106.459L104.846 29.8347H104.033L103.27 24.1567H104.052L104.576 28.7757H104.596L106.252 24.1567H107.035L107.508 28.7757H107.528L109.153 24.1567H109.945L107.748 29.8347ZM115.17 29.8347L115.178 29.1147C114.66 29.567 114.092 29.9993 113.424 29.9993C112.549 29.9993 111.939 29.2682 112.049 28.3753C112.25 26.7471 113.999 26.3991 115.296 26.0595L115.561 25.9869L115.599 25.668C115.68 25.0193 115.281 24.6713 114.642 24.6713C114.016 24.6713 113.532 25.0836 113.144 25.5643L112.63 25.1444C113.186 24.4652 113.861 23.9921 114.726 23.9921C115.497 23.9921 116.55 24.4652 116.392 25.7607L116.046 28.58C116.004 29.0026 115.93 29.4349 116.047 29.8347H115.17ZM115.149 26.7401C114.36 26.9642 112.935 27.2748 112.808 28.2923C112.751 28.764 113.063 29.2392 113.548 29.2392C114.184 29.2392 114.825 28.7958 115.276 28.3123L115.479 26.6468L115.149 26.7401ZM120.572 25.381H120.592C120.995 24.7018 121.482 24.0758 122.325 24.0758H122.635L122.544 24.8041C121.515 24.661 120.829 25.7932 120.421 26.6156L120.026 29.8347H119.224L119.92 24.1567H120.722L120.572 25.381ZM125.88 27.1302C125.68 28.7557 126.3 29.3201 127.123 29.3201C127.72 29.3201 128.284 28.8366 128.632 28.3434L129.162 28.7246C128.765 29.4557 127.936 30 126.957 30C125.694 30 124.791 29.1243 125.053 26.9954C125.314 24.8678 126.43 23.9921 127.694 23.9921C129.329 23.9921 129.588 25.74 129.304 27.1302H125.88ZM128.544 26.451C128.655 25.7199 128.393 24.672 127.549 24.672C126.644 24.672 126.093 25.6487 125.984 26.451H128.544Z" fill="#3D3D3D" fill-opacity="0.8"/>
</svg>
