<svg width="119" height="52" viewBox="0 0 119 52" fill="none" xmlns="http://www.w3.org/2000/svg">
<path fill-rule="evenodd" clip-rule="evenodd" d="M59.0868 49.3363C33.0265 53.0748 10.3651 45.7103 8.5145 32.8319C6.66389 19.9901 26.3037 6.54451 52.3641 2.7674C75.0254 -0.480497 95.0806 4.61802 101.161 14.4376C95.3069 3.3339 73.023 -2.5581 47.7562 1.0679C19.4677 5.14658 -1.87223 19.612 0.130152 33.3977C2.09394 47.1455 26.6438 55.0013 54.9323 50.922C66.452 49.2984 76.8001 45.8993 84.8823 41.5557C77.7441 45.1444 68.8685 47.8998 59.0868 49.3363ZM98.7439 35.3615C97.7999 35.3615 97.1955 34.6818 97.1955 33.8131C97.1955 32.5676 98.2533 31.585 99.4236 31.585C100.368 31.585 101.011 32.2647 101.011 33.1334C101.01 34.3417 99.9155 35.3615 98.7439 35.3615Z" fill="#D9D9D9"/>
<path fill-rule="evenodd" clip-rule="evenodd" d="M38.8448 35.7029H35.6342L35.8985 34.0793C35.4452 34.7217 34.01 36.0058 32.1973 36.0058C30.0444 36.0058 28.9867 34.948 28.9867 33.2106C28.9867 32.909 29.0246 32.5695 29.0998 32.2294L30.4219 24.7124H33.6325L32.4616 31.2095C32.3863 31.5497 32.3863 31.8506 32.3863 32.1155C32.3863 33.3244 32.877 34.0793 33.8968 34.0793C35.2188 34.0793 36.0496 33.2106 36.465 31.0205L37.5601 24.7124H40.7707L38.8448 35.7029ZM48.7403 27.5083H48.0986C48.1365 26.4505 47.2298 25.5811 46.2473 25.5811C45.1149 25.5811 44.2456 26.2615 44.2456 27.1302C44.2456 27.961 45.2654 28.3005 46.3232 28.7172C47.5693 29.1692 48.8535 29.8489 48.8535 31.6249C48.8535 34.042 46.8511 36.0058 43.6791 36.0058C42.6592 36.0058 41.1488 35.7029 40.5064 35.0985L41.262 32.9084H41.8285C42.0555 34.0414 42.9242 34.8336 44.2083 34.8336C45.5303 34.8336 46.2852 33.8896 46.2852 33.2479C46.2852 32.5682 45.6435 32.1901 44.8127 31.8499C43.4907 31.2455 41.7912 30.6796 41.7912 28.7159C41.7912 26.374 43.7929 24.4095 46.437 24.4095C47.7963 24.4095 49.0052 24.7876 49.6476 25.4673L48.7403 27.5083ZM53.6884 22.975C52.7817 22.975 52.14 22.2946 52.14 21.4266C52.14 20.2556 53.235 19.2737 54.3307 19.2737C55.2367 19.2737 55.8791 19.9155 55.8791 20.7848C55.8785 21.9551 54.8214 22.975 53.6884 22.975ZM53.046 35.7029H49.8354L51.7612 24.7124H54.9718L53.046 35.7029ZM66.4163 29.0181L65.2074 35.7029H61.9968L63.1298 29.4721C63.1684 29.0187 63.205 28.5648 63.205 28.188C63.205 27.0916 62.7897 26.3753 61.7332 26.3753C60.3353 26.3753 59.4665 27.8099 59.2016 29.4721L58.0686 35.7029H54.858L56.8218 24.7124H60.0317L59.7302 26.4119C60.1076 25.8075 61.6187 24.4102 63.6211 24.4102C65.7726 24.4102 66.5661 25.468 66.5661 27.3186C66.5668 27.8099 66.4915 28.3757 66.4163 29.0181ZM75.1415 27.4311C75.1415 27.923 75.0276 28.4889 74.9524 29.0181H71.4775C71.8177 27.2054 72.6105 25.468 73.9705 25.468C74.8386 25.468 75.1415 26.3367 75.1415 27.4311ZM78.163 28.2632C78.163 25.8461 77.1419 24.4102 74.1589 24.4102C70.2686 24.4102 67.7004 27.4311 67.7004 31.3973C67.7004 34.1545 69.2122 36.0431 72.5353 36.0431C73.8947 36.0431 74.8386 35.7029 76.1227 35.0233L76.8776 33.7012L76.6513 33.4749C75.8964 34.042 74.6875 34.5326 73.6677 34.5326C72.0807 34.5326 71.0994 33.7012 71.0994 31.7754C71.0994 31.322 71.1747 30.8314 71.2499 30.3022H77.9727C78.0865 29.5473 78.163 28.8676 78.163 28.2632ZM86.6978 27.5083H86.0568C86.0568 26.4505 85.188 25.5811 84.2055 25.5811C83.0725 25.5811 82.2031 26.2615 82.2031 27.1302C82.2031 27.961 83.2243 28.3005 84.2807 28.7172C85.4896 29.1692 86.8117 29.8489 86.8117 31.6249C86.8117 34.042 84.8093 36.0058 81.6373 36.0058C80.5795 36.0058 79.1076 35.7029 78.4646 35.0985L79.1829 32.9084H79.7873C80.0136 34.0414 80.8824 34.8336 82.1279 34.8336C83.4885 34.8336 84.2434 33.8896 84.2434 33.2479C84.2434 32.5682 83.5638 32.1901 82.7703 31.8499C81.4482 31.2455 79.7114 30.6796 79.7114 28.7159C79.7114 26.374 81.7125 24.4095 84.3939 24.4095C85.7532 24.4095 86.9621 24.7876 87.6045 25.4673L86.6978 27.5083ZM95.8378 27.5083H95.1967C95.234 26.4505 94.3652 25.5811 93.3454 25.5811C92.2503 25.5811 91.343 26.2615 91.343 27.1302C91.343 27.961 92.3629 28.3005 93.4206 28.7172C94.6675 29.1692 95.9516 29.8489 95.9516 31.6249C95.9516 34.042 93.9492 36.0058 90.7772 36.0058C89.7573 36.0058 88.2462 35.7029 87.6045 35.0985L88.3594 32.9084H88.9253C89.1529 34.0414 90.0216 34.8336 91.3057 34.8336C92.6651 34.8336 93.3833 33.8896 93.3833 33.2479C93.3833 32.5682 92.741 32.1901 91.9102 31.8499C90.5881 31.2455 88.8886 30.6796 88.8886 28.7159C88.8886 26.374 90.891 24.4095 93.5344 24.4095C94.8938 24.4095 96.1027 24.7876 96.7824 25.4673L95.8378 27.5083ZM106.413 22.975C105.469 22.975 104.864 22.2946 104.864 21.4266C104.864 20.2556 105.922 19.2737 107.017 19.2737C107.961 19.2737 108.566 19.9155 108.566 20.7848C108.566 21.9551 107.508 22.975 106.413 22.975ZM105.733 35.7029H102.561L104.486 24.7124H107.696L105.733 35.7029ZM115.629 27.4311C115.629 27.923 115.553 28.4889 115.478 29.0181H112.003C112.343 27.2054 113.098 25.468 114.496 25.468C115.364 25.468 115.629 26.3367 115.629 27.4311ZM118.688 28.2632C118.688 25.8461 117.668 24.4102 114.685 24.4102C110.794 24.4102 108.226 27.4311 108.226 31.3973C108.226 34.1545 109.699 36.0431 113.061 36.0431C114.382 36.0431 115.364 35.7029 116.648 35.0233L117.403 33.7012L117.177 33.4749C116.422 34.042 115.213 34.5326 114.193 34.5326C112.606 34.5326 111.625 33.7012 111.625 31.7754C111.625 31.322 111.662 30.8314 111.776 30.3022H118.461C118.612 29.5473 118.688 28.8676 118.688 28.2632ZM24.4174 24.4102C22.869 24.4102 21.6228 25.203 20.9425 26.2994L22.3404 18.2539H19.1298L16.0703 35.7029H19.2803L19.3934 35.2123C19.9599 35.7029 20.7534 36.0058 21.7353 36.0058C25.8519 36.0058 28.1179 32.0017 28.1179 28.5275C28.1565 25.9965 26.7593 24.4102 24.4174 24.4102ZM21.4717 34.948C20.3387 34.948 19.9985 33.9282 19.9985 32.6447C19.9985 29.8495 20.9425 25.922 23.2091 25.922C24.3421 25.922 24.7203 26.8659 24.7575 28.1134C24.7575 30.8314 23.5107 34.948 21.4717 34.948Z" fill="#3D3D3D" fill-opacity="0.8"/>
</svg>
