<svg width="131" height="48" viewBox="0 0 131 48" fill="none" xmlns="http://www.w3.org/2000/svg">
<path fill-rule="evenodd" clip-rule="evenodd" d="M74.9922 29.5653H75.9668L76.5919 27.3392C77.01 27.895 77.7748 28.0349 78.5404 28.0349C80.0002 28.0349 81.5999 27.1309 81.9481 25.7395C82.2956 24.2783 81.3231 23.3736 79.7926 23.3736C78.9578 23.3736 78.0538 23.6518 77.4274 24.1392C77.4966 23.8609 77.4966 23.721 77.5665 23.5127H76.5919C76.5226 23.8609 76.4527 24.2084 76.3143 24.4859L74.9922 29.5653ZM77.01 25.7395C77.2875 24.6258 78.2614 23.9301 79.4444 23.9301C80.5568 23.9301 81.1832 24.6258 80.9042 25.7395C80.6267 26.8519 79.6528 27.4783 78.4698 27.4783C77.3582 27.4783 76.731 26.8519 77.01 25.7395ZM83.3401 27.895H84.3133L85.9829 21.6348H85.0797L83.3401 27.895ZM88.5572 24.6964C88.7656 24.2091 89.392 23.9308 90.0877 23.9308C91.0623 23.9308 91.549 24.2098 91.3406 25.0446V25.1837H89.6004C87.8616 25.2529 86.8869 25.7395 86.6786 26.6435C86.4703 27.4783 87.1659 28.0349 88.4174 28.0349C89.392 28.0349 90.0185 27.9657 90.7826 27.27C90.7826 27.4783 90.7134 27.6867 90.7134 27.895H91.6174C91.6174 27.6867 91.6881 27.4091 91.7566 27.0617L92.383 24.9047C92.6606 23.791 91.7566 23.3736 90.3653 23.3736C89.3221 23.3736 87.9308 23.6518 87.5833 24.6957L88.5572 24.6964ZM91.1308 25.9479C90.8533 26.991 90.0185 27.4783 88.8355 27.4783C87.8609 27.4783 87.584 27.0617 87.7217 26.6435C87.8609 25.9479 88.5565 25.8087 89.5997 25.8087C90.3652 25.7395 90.8526 25.7395 91.1301 25.7395V25.9479H91.1308ZM93.7751 27.895H94.7497L95.3055 25.808C95.653 24.4167 96.836 23.9301 97.74 23.9301C98.7146 23.9301 99.2012 24.4859 98.923 25.4605L98.2965 27.895H99.2712L99.8976 25.3913C100.314 24.0692 99.4795 23.3736 98.0882 23.3736C97.1842 23.3736 96.4186 23.6518 95.6537 24.2776C95.7229 23.9993 95.7229 23.721 95.7929 23.5127H94.8874C94.8182 23.8609 94.7497 24.2084 94.6791 24.4859L93.7751 27.895ZM101.566 27.895H102.54L103.096 25.808C103.444 24.4167 104.627 23.9301 105.532 23.9301C106.505 23.9301 106.992 24.4859 106.715 25.4605L106.089 27.895H107.063L107.688 25.3913C108.106 24.0692 107.272 23.3736 105.88 23.3736C104.975 23.3736 104.211 23.6518 103.444 24.2776C103.515 23.9993 103.584 23.721 103.584 23.5127H102.68C102.617 23.8386 102.548 24.1631 102.471 24.4859L101.566 27.895ZM109.426 27.895H110.401L111.584 23.5127H110.609L109.426 27.895ZM110.888 22.4696H111.862L112.071 21.6348H111.096L110.888 22.4696ZM112.766 27.895H113.741L114.297 25.808C114.644 24.4167 115.827 23.9301 116.731 23.9301C117.637 23.9301 118.192 24.4859 117.914 25.4605L117.288 27.895H118.262L118.889 25.3913C119.306 24.0692 118.471 23.3736 117.079 23.3736C116.175 23.3736 115.41 23.6518 114.645 24.2776C114.714 23.9993 114.714 23.721 114.784 23.5127H113.88C113.809 23.8609 113.741 24.2084 113.67 24.4859L112.766 27.895ZM120.279 28.174C120.071 29.2171 120.627 29.7045 122.575 29.7045C124.593 29.7045 125.775 29.078 126.262 27.27L127.027 24.3482C127.098 24 127.166 23.791 127.306 23.5127H126.402C126.263 23.721 126.194 23.9301 126.194 24.1392C125.706 23.5826 125.151 23.3736 124.245 23.3736C122.576 23.3736 121.184 24.2776 120.767 25.5997C120.42 26.9218 121.393 27.8258 123.063 27.8258C123.868 27.8164 124.648 27.5482 125.289 27.0609H125.36L125.22 27.3385C124.941 28.3816 124.386 29.0773 122.647 29.0773C121.533 29.0773 121.186 28.6606 121.325 28.1733L120.279 28.174ZM121.81 25.6004C122.089 24.6258 122.922 23.9308 124.175 23.9308C125.497 23.9308 125.983 24.6265 125.706 25.6004C125.427 26.5751 124.592 27.2001 123.34 27.2001C122.018 27.1993 121.531 26.5743 121.81 25.6004Z" fill="#3D3D3D" fill-opacity="0.8"/>
<path fill-rule="evenodd" clip-rule="evenodd" d="M6.67764 48L46.9561 0H60.9386C69.2166 0 76.3823 5.42617 76.3823 14.6089C76.3823 23.8616 69.2173 29.7044 61.0777 29.7044H37.1477L42.9905 22.4695H61.0777C65.739 22.4695 69.2173 19.4778 69.1481 14.6082C69.0775 7.02583 61.0777 7.23417 61.0777 7.23417H50.2953L16.0687 48H6.67764ZM22.9561 22.4695L17.0434 29.7044H14.9564C6.19104 29.7044 0 24.2783 0 15.0955C0 5.84357 7.09576 0 15.3039 0H41.5999L35.6871 7.23489H15.3039C10.6433 7.23489 7.09504 10.2266 7.23417 15.0955C7.3041 22.6786 15.3039 22.4695 15.3039 22.4695H22.9561Z" fill="#DFE0DF"/>
<path fill-rule="evenodd" clip-rule="evenodd" d="M36.7332 36.0333H37.9155L38.5412 32.9724H40.0025L40.2115 32.2082H36.1068L35.8984 32.9724H37.4282L36.7332 36.0333ZM41.1848 34.0861C41.3239 33.4597 41.7413 32.9032 42.5761 32.9032C43.4116 32.9032 43.6199 33.459 43.4116 34.0861C43.2725 34.7818 42.9243 35.3376 42.0203 35.3376C41.1848 35.3376 41.0463 34.7818 41.1848 34.0861ZM40.0025 34.0861C39.7242 35.2691 40.2807 36.1731 41.8804 36.1731C43.4808 36.1731 44.3848 35.2691 44.5939 34.0861C44.8721 32.9724 44.3848 32.0684 42.7159 32.0684C41.1155 32.0684 40.2807 32.9724 40.0025 34.0861ZM47.0283 34.7818C46.8892 35.4775 46.9591 36.1731 48.5588 36.1731C49.3936 36.1731 50.5758 35.9648 50.7849 34.851C50.924 34.0861 50.4374 33.8764 49.741 33.7387L49.2544 33.5995C48.837 33.5289 48.4896 33.4604 48.5588 33.1814C48.628 32.9731 48.837 32.834 49.3244 32.834C49.6718 32.834 50.02 32.9046 49.9508 33.2521H51.0639C51.1331 32.4865 50.8548 32.0691 49.4635 32.0691C48.5595 32.0691 47.5856 32.4166 47.3765 33.3912C47.2374 34.0869 47.8631 34.3644 48.4896 34.4343L48.9762 34.5735C49.4628 34.6427 49.6718 34.7112 49.6019 34.9901C49.6019 35.1985 49.4628 35.4068 48.7671 35.4068C48.2798 35.4068 48.0714 35.2691 48.1407 34.7818H47.0283ZM56.281 32.2082H55.1679L54.7505 34.226C54.6114 34.9217 54.2632 35.3383 53.5675 35.3383C52.9418 35.3383 52.6635 35.0593 52.802 34.3637L53.2893 32.2082H52.1063L51.6197 34.4343C51.4106 35.6858 52.0371 36.1731 53.3585 36.1731C54.7498 36.1731 55.5846 35.6173 55.8629 34.2952L56.281 32.2082ZM61.0807 33.4597C61.2897 32.4166 60.385 32.0684 59.4111 32.0684C58.0198 32.0684 56.9766 32.6948 56.6984 34.0861C56.3509 35.546 57.185 36.1731 58.3672 36.1731C59.4803 36.1731 60.5242 35.8941 60.8024 34.7119H59.6194C59.4803 35.1992 59.0629 35.3383 58.6455 35.3383C57.8799 35.3383 57.6716 34.7825 57.8107 34.0869C58.0191 33.3912 58.4365 32.9039 59.202 32.9039C59.6194 32.9039 59.8977 33.043 59.8977 33.4597H61.0807ZM65.8119 33.4597C66.0203 32.4166 65.1155 32.0684 64.1423 32.0684C62.751 32.0684 61.7771 32.6948 61.4289 34.0861C61.1506 35.546 61.9162 36.1731 63.0985 36.1731C64.2807 36.1731 65.2547 35.8941 65.5329 34.7119H64.3507C64.2115 35.1992 63.7941 35.3383 63.3767 35.3383C62.6112 35.3383 62.4727 34.7825 62.6111 34.0869C62.7503 33.3912 63.2376 32.9039 63.9325 32.9039C64.3499 32.9039 64.6981 33.043 64.6282 33.4597H65.8119ZM66.0195 36.0333H69.4286L69.5678 35.2691H67.3417L67.4808 34.5028H69.5678L69.7761 33.668H67.6891L67.829 32.9724H69.9845L70.1942 32.2082H66.8543L66.0195 36.0333ZM70.4026 36.0333H73.8117L73.9508 35.2691H71.7247L71.8645 34.5028H73.9508L74.0885 33.668H72.0022L72.212 32.9724H74.3675L74.5758 32.2082H71.2374L70.4026 36.0333ZM74.7856 36.0333H76.8726C77.6375 36.0333 78.1933 35.8941 78.6114 35.6166C79.0835 35.2288 79.4036 34.6868 79.5154 34.0861C79.6545 33.3905 79.5154 32.8332 79.0987 32.485C78.7512 32.2767 78.2639 32.2075 77.7766 32.2075H75.6211L74.7856 36.0333ZM76.5936 32.9032H77.2893C78.0549 32.9032 78.5422 33.1807 78.403 34.0861C78.1241 35.1293 77.4976 35.2691 76.5936 35.2691H76.0378L76.5936 32.9032ZM81.8114 36.0333H82.9238L83.7593 32.2082H82.6469L81.8114 36.0333ZM83.8292 36.0333H84.8024L85.4289 33.2513L86.5412 36.0333H88.0717L88.9065 32.2082H87.8633L87.3068 34.9901L86.1245 32.2082H84.6626L83.8292 36.0333ZM91.0634 36.0333H93.2895C94.541 36.0333 95.0283 35.4775 95.1674 34.9901C95.2366 34.5028 94.9591 34.0861 94.3326 34.0155C94.8884 33.9463 95.3073 33.5988 95.3758 33.1115C95.4464 32.6242 95.1674 32.2075 94.1243 32.2075H91.8275L91.0634 36.0333ZM92.4547 34.4343H93.4978C93.7768 34.4343 94.0536 34.5735 93.9852 34.9217C93.9167 35.2698 93.6377 35.3383 93.2895 35.3383H92.3149L92.4547 34.4343ZM92.8022 32.9032H93.567C94.0544 32.9032 94.2642 32.9724 94.1935 33.3198C94.1243 33.5988 93.7768 33.738 93.2895 33.738H92.5938L92.8022 32.9032ZM100.732 32.2082H99.6197L99.203 34.226C99.0639 34.9217 98.7157 35.3383 98.02 35.3383C97.3936 35.3383 97.1146 35.0593 97.2544 34.3637L97.6711 32.2082H96.5588L96.0714 34.4343C95.8631 35.6858 96.4895 36.1731 97.8102 36.1731C99.203 36.1731 100.036 35.6173 100.315 34.2952L100.732 32.2082ZM101.011 34.7818C100.872 35.4775 100.942 36.1731 102.541 36.1731C103.376 36.1731 104.489 35.9648 104.768 34.851C104.907 34.0861 104.351 33.8764 103.724 33.7387L103.237 33.5995C102.82 33.5289 102.472 33.4604 102.541 33.1814C102.541 32.9731 102.82 32.834 103.307 32.834C103.655 32.834 103.932 32.9046 103.932 33.2521H104.975C105.114 32.4865 104.836 32.0691 103.376 32.0691C102.541 32.0691 101.566 32.4166 101.358 33.3912C101.219 34.0869 101.845 34.3644 102.472 34.4343L102.959 34.5735C103.376 34.6427 103.655 34.7112 103.584 34.9901C103.584 35.1985 103.376 35.4068 102.749 35.4068C102.193 35.4068 101.984 35.2691 102.124 34.7818H101.011ZM105.184 36.0333H106.369L107.133 32.2082H106.02L105.184 36.0333ZM107.202 36.0333H108.245L108.803 33.2513L109.985 36.0333H111.446L112.281 32.2082H111.306L110.681 34.9901L109.499 32.2082H108.037L107.202 36.0333ZM112.489 36.0333H115.829L116.037 35.2691H113.742L113.95 34.5028H115.968L116.176 33.668H114.09L114.229 32.9724H116.454L116.593 32.2082H113.255L112.489 36.0333ZM116.872 34.7818C116.733 35.4775 116.801 36.1731 118.403 36.1731C119.237 36.1731 120.42 35.9648 120.629 34.851C120.768 34.0861 120.281 33.8764 119.586 33.7387L119.098 33.5995C118.682 33.5289 118.333 33.4604 118.403 33.1814C118.472 32.9731 118.682 32.834 119.167 32.834C119.515 32.834 119.863 32.9046 119.794 33.2521H120.908C120.977 32.4865 120.698 32.0691 119.307 32.0691C118.403 32.0691 117.429 32.4166 117.22 33.3912C117.08 34.0869 117.707 34.3644 118.333 34.4343L118.819 34.5735C119.237 34.6427 119.515 34.7112 119.446 34.9901C119.446 35.1985 119.307 35.4068 118.611 35.4068C118.055 35.4068 117.915 35.2691 117.986 34.7818H116.872ZM121.255 34.7818C121.045 35.4775 121.184 36.1731 122.786 36.1731C123.619 36.1731 124.733 35.9648 125.012 34.851C125.151 34.0861 124.594 33.8764 123.967 33.7387L123.411 33.5995C123.064 33.5289 122.716 33.4604 122.786 33.1814C122.786 32.9731 123.064 32.834 123.551 32.834C123.899 32.834 124.178 32.9046 124.178 33.2521H125.221C125.36 32.4865 125.082 32.0691 123.62 32.0691C122.786 32.0691 121.812 32.4166 121.603 33.3912C121.464 34.0869 122.091 34.3644 122.716 34.4343L123.203 34.5735C123.62 34.6427 123.899 34.7112 123.829 34.9901C123.829 35.1985 123.62 35.4068 122.995 35.4068C122.439 35.4068 122.229 35.2691 122.368 34.7818H121.255Z" fill="#DFE0DF"/>
<path fill-rule="evenodd" clip-rule="evenodd" d="M24.2114 13.3592C24.4897 12.107 24.3506 11.5504 23.794 10.9939C22.9592 10.2983 21.1505 9.88158 18.4378 9.88158C12.3852 9.88158 10.6464 12.4552 10.229 14.5422C9.6025 17.3248 11.0638 19.2027 16.4899 19.2027C18.8552 19.2027 21.0813 18.7853 22.4726 17.8114C23.4466 17.1157 23.7248 16.3509 23.9332 15.5853H19.2726C18.9943 16.6984 18.1595 17.2549 16.7682 17.2549C15.0287 17.2549 14.6812 16.0027 14.9595 14.5414C15.3069 13.0809 16.1425 11.828 17.9505 11.828C19.2026 11.828 19.62 12.3153 19.5508 13.3584L24.2114 13.3592ZM38.7504 14.5414C39.3069 11.8979 37.7765 9.88086 32.4202 9.88086C29.6376 9.88086 28.2463 10.2283 27.064 10.8548C25.6727 11.5504 24.5596 12.8026 24.2114 14.5422C23.6549 17.1857 25.1853 19.2027 30.5416 19.2027C33.3242 19.2027 35.3413 18.5763 36.6634 17.6723C37.7765 16.9766 38.4721 15.8628 38.7504 14.5414ZM34.0898 14.5414C33.7424 16.3502 32.4202 17.185 30.959 17.185C29.4285 17.185 28.5245 16.3502 28.872 14.5414C29.2195 12.7327 30.5416 11.8979 32.0021 11.8979C33.5333 11.8979 34.4373 12.7334 34.0898 14.5414ZM38.6113 18.9238H43.2027L43.8983 15.7237H45.2896C46.8201 15.7237 47.0292 15.8628 46.9592 16.9759V18.9238H51.5506V16.002C51.5506 15.0972 50.785 14.7498 49.7419 14.7498V14.6106C51.1332 14.4016 52.247 13.7066 52.5245 12.5237C52.9419 10.5758 51.2031 10.0892 48.2114 10.0892H40.4899L38.6113 18.9238ZM44.6639 11.8979H46.3328C47.4458 11.8979 48.1415 12.1762 47.9332 12.9411C47.794 13.7758 46.9592 13.9849 45.9853 13.9849H44.2465L44.6639 11.8979ZM52.2463 18.9238H56.8376L57.3942 16.0712H61.0116C63.3077 16.0712 65.2555 15.3063 65.6729 13.1501C66.1595 10.8541 64.4899 10.0892 61.8464 10.0892H54.055L52.2463 18.9238ZM58.2982 11.9678H59.6895C61.0109 11.9678 61.3584 12.316 61.22 13.0809C61.0109 13.9157 60.3852 14.2632 58.7156 14.2632H57.8116L58.2982 11.9678ZM80.0028 14.5414C80.5587 11.8979 79.0282 9.88086 73.6727 9.88086C70.8907 9.88086 69.4288 10.2283 68.3164 10.8548C66.8552 11.5504 65.812 12.8026 65.4631 14.5422C64.9073 17.1857 66.4378 19.2027 71.7248 19.2027C74.576 19.2027 76.5245 18.5763 77.9159 17.6723C78.959 16.9766 79.7253 15.8628 80.0028 14.5414ZM75.3423 14.5414C74.9241 16.3502 73.6727 17.185 72.1422 17.185C70.681 17.185 69.7078 16.3502 70.1244 14.5414C70.4719 12.7327 71.7255 11.8979 73.256 11.8979C74.7865 11.8979 75.6897 12.7334 75.3423 14.5414ZM79.863 18.9238H84.4544L85.0808 15.7237H86.4721C88.0718 15.7237 88.2109 15.8628 88.2109 16.9759V18.9238H92.7331L92.8023 16.002C92.8023 15.0972 91.9675 14.7498 90.9244 14.7498L90.995 14.6106C92.3864 14.4016 93.4987 13.7066 93.777 12.5237C94.1244 10.5758 92.3856 10.0892 89.4631 10.0892H81.6724L79.863 18.9238ZM85.9163 11.8979H87.5859C88.6983 11.8979 89.3247 12.1762 89.1856 12.9411C88.9772 13.7758 88.2109 13.9849 87.2385 13.9849H85.4982L85.9163 11.8979Z" fill="#3D3D3D" fill-opacity="0.8"/>
<path fill-rule="evenodd" clip-rule="evenodd" d="M99.0634 15.5121L101.498 12.4512L102.541 15.5121H99.0634ZM91.8984 18.9205H96.4192L97.5329 17.46H103.167L103.655 18.9205H108.732L105.046 10.0859H99.3409L91.8984 18.9205ZM109.985 18.9205H114.577L115.968 12.2429H119.514L120.002 10.0867H108.245L107.828 12.2429H111.376L109.985 18.9205ZM118.471 18.9205H128.976L129.393 17.1125H123.342L123.689 15.4429H129.255L129.672 13.5642H124.037L124.385 11.9646H130.367L130.784 10.0867H120.349L118.471 18.9205Z" fill="#3D3D3D" fill-opacity="0.8"/>
</svg>
