<svg width="151" height="22" viewBox="0 0 151 22" fill="none" xmlns="http://www.w3.org/2000/svg">
<g opacity="0.8" clip-path="url(#clip0_3_8773)">
<path d="M24.4024 0.353992H19.8299C19.8299 0.353992 19.1318 0.353992 18.7827 1.36624L13.1979 15.2933L11.2083 10.0925L11.1385 10.0227L9.70742 6.32275V6.28784C9.00932 4.6124 8.34612 3.35582 7.64802 2.58791C6.94992 1.71529 6.0773 1.087 5.09996 0.668137C3.983 0.179467 2.86604 -0.099773 1.71417 0.039847C1.26041 0.039847 0.771737 0.109657 0.213257 0.214372C-0.100888 0.353992 0.0387318 0.737947 0.0387318 0.737947L0.841547 3.84449C1.01607 4.33316 1.29531 4.47278 1.33022 4.47278C1.64436 4.54259 2.02832 4.64731 2.27265 4.78693C2.72642 4.96145 3.07547 5.34541 3.38961 5.79917C3.70376 6.28784 4.12262 7.16047 4.716 8.41705L4.78581 8.55667H4.716L5.97258 11.5585L9.98666 20.7385C10.0565 20.913 10.3008 21.2272 10.7197 21.2272H15.3969C15.9554 21.2272 16.1648 20.7385 16.1998 20.6687L24.6817 0.982282C24.9609 0.353992 24.4024 0.353992 24.4024 0.353992ZM34.6296 0.214372C31.3834 0.214372 28.7656 1.15681 26.776 3.07658C24.8562 4.99636 23.844 7.54442 23.844 10.7208C23.844 13.8622 24.8562 16.4103 26.776 18.3301C28.7656 20.2498 31.3834 21.1923 34.6296 21.1923C37.9456 21.1923 40.5634 20.2498 42.4832 18.3301C44.4728 16.4103 45.4153 13.932 45.4153 10.7208C45.4153 7.54442 44.4728 4.96145 42.4832 3.07658C40.5285 1.15681 37.9456 0.214372 34.6296 0.214372ZM38.3993 15.2235C37.4918 16.3056 36.2352 16.899 34.6296 16.899C32.9542 16.899 31.7674 16.3405 30.8599 15.2235C29.9174 14.1415 29.4637 12.6755 29.4637 10.7557C29.4637 8.83591 29.9872 7.30009 30.8599 6.21803C31.7674 5.13598 33.024 4.6124 34.6296 4.6124C36.2352 4.6124 37.4918 5.13598 38.3993 6.21803C39.3418 7.30009 39.7955 8.7661 39.7955 10.7557C39.8304 12.6755 39.3069 14.1415 38.3993 15.2235ZM73.6883 3.07658C71.6987 1.15681 69.1507 0.214372 65.8347 0.214372C62.5885 0.214372 59.9706 1.15681 57.9811 3.07658C56.0613 4.99636 55.049 7.54442 55.049 10.7208C55.049 13.8622 56.0613 16.4103 57.9811 18.3301C59.9706 20.2498 62.5885 21.1923 65.8347 21.1923C69.1507 21.1923 71.7685 20.2498 73.6883 18.3301C75.6779 16.4103 76.6203 13.932 76.6203 10.7208C76.6203 7.57933 75.6779 4.99636 73.6883 3.07658ZM69.6044 15.2235C68.6969 16.3056 67.4403 16.899 65.8347 16.899C64.1592 16.899 62.9725 16.3405 62.0649 15.2235C61.1225 14.1415 60.6687 12.6755 60.6687 10.7557C60.6687 8.83591 61.1923 7.30009 62.0649 6.21803C62.9725 5.13598 64.2291 4.6124 65.8347 4.6124C67.4403 4.6124 68.6969 5.13598 69.6044 6.21803C70.5469 7.30009 71.0006 8.7661 71.0006 10.7557C71.0006 12.6755 70.4771 14.1415 69.6044 15.2235ZM54.1764 17.4924V17.4225C53.9321 17.2829 53.6877 17.0386 53.4783 16.8641C53.1642 16.4801 52.9896 16.0612 52.85 15.5028C52.7104 15.0141 52.6755 14.0717 52.6755 12.8151V0.772852C52.6755 0.528517 52.4661 0.319087 52.2217 0.319087H48.068C47.8237 0.319087 47.6143 0.528517 47.6143 0.772852L47.7888 8.69629V10.0227L47.719 12.7802C47.719 14.665 47.8935 16.0962 48.2077 17.0735C48.5218 18.0857 49.0803 18.9933 49.8482 19.831C50.7208 20.7036 51.6632 21.4017 52.7104 21.7159C53.0944 21.8555 53.4434 21.9602 53.967 22.03C54.1415 22.0998 54.5255 22.0998 54.5255 21.5762V18.0857C54.5604 18.0508 54.4906 17.7367 54.1764 17.4924Z" fill="#3D3D3D"/>
<path d="M100.179 0.284151C103.111 0.284151 105.206 2.20393 105.206 4.92652C105.206 7.68401 103.076 9.63869 100.179 9.63869H96.4095V0.284151H100.179ZM100.179 7.54439C101.68 7.54439 102.867 6.42743 102.867 4.92652C102.867 3.49541 101.715 2.37845 100.179 2.37845H98.7482V7.54439H100.179ZM108.836 9.63869H106.532V0.284151H108.836V9.63869ZM120.005 9.63869H118.26L118.155 8.52173C117.492 9.35945 116.515 9.84812 115.188 9.84812C112.256 9.84812 110.232 7.75382 110.232 5.10104C110.232 2.20393 112.361 0.144531 115.223 0.144531C117.492 0.144531 119.482 1.43602 119.866 3.66994H117.422C117.003 2.58788 116.061 2.27374 115.223 2.27374C113.618 2.27374 112.536 3.3907 112.536 5.03123C112.536 6.49724 113.583 7.68401 115.258 7.68401C116.34 7.68401 117.178 7.16044 117.632 6.25291L114.944 6.218V4.40294H119.936V9.63869H120.005ZM124.194 9.63869H121.89V0.284151H124.194V9.63869ZM130.512 2.37845V9.63869H128.208V2.37845H125.241V0.284151H133.514V2.34355H130.512V2.37845ZM135.538 8.03306L134.91 9.63869H132.432L136.411 0.249246H138.61L142.554 9.63869H140.111L139.482 8.03306H135.538ZM137.528 2.93693L136.306 6.04348H138.714L137.528 2.93693ZM150.512 9.63869H143.566V0.284151H145.905V7.5793H150.512V9.63869ZM98.6435 19.6564L98.085 21.1573H95.7812L99.4812 12.4311H101.541L105.206 21.1224H102.937L102.343 19.6215H98.6435V19.6564ZM100.493 14.9443L99.3765 17.8065H101.61L100.493 14.9443ZM114.246 21.1573H112.64L112.536 20.1102C111.907 20.8781 111 21.3319 109.813 21.3319C107.09 21.3319 105.206 19.4121 105.206 16.9338C105.206 14.2462 107.195 12.3264 109.848 12.3264C111.942 12.3264 113.792 13.5131 114.176 15.5725H111.907C111.523 14.5603 110.651 14.2811 109.883 14.2811C108.417 14.2811 107.405 15.3282 107.405 16.864C107.405 18.2253 108.382 19.3423 109.918 19.3423C110.93 19.3423 111.698 18.8536 112.117 18.0159L109.639 17.981V16.2706H114.281V21.1573H114.246ZM118.086 15.9565H121.925V17.7716H118.086V19.2725H122.484V21.1573H115.956V12.5009H122.484V14.3858H118.086V15.9565ZM131.664 21.1573H129.988L125.869 16.4103V21.1573H123.705V12.5009H125.346L129.534 17.3876V12.5009H131.699V21.1573H131.664ZM139.692 17.5621H141.891C141.612 19.7961 139.901 21.3319 137.563 21.3319C134.945 21.3319 132.99 19.447 132.99 16.8291C132.99 14.2113 134.98 12.3264 137.563 12.3264C139.936 12.3264 141.646 13.8622 141.891 16.0961H139.692C139.447 15.0141 138.68 14.3509 137.528 14.3509C136.131 14.3509 135.119 15.398 135.119 16.8291C135.119 18.2602 136.097 19.3074 137.528 19.3074C138.714 19.3074 139.447 18.6442 139.692 17.5621ZM147.266 18.5395V21.1573H145.102V18.5395L141.681 12.5009H144.055L146.184 16.2706L148.313 12.5009H150.687L147.266 18.5395Z" fill="#3D3D3D"/>
<path d="M86.4219 0.00585938H86.8058V20.9489H86.4219V0.00585938Z" fill="#3D3D3D"/>
<path d="M75.6758 0.807532V2.27354H75.1871V0.807532H74.5938V0.388672H76.2692V0.807532H75.6758ZM78.5729 2.27354H78.0843V1.33111L77.6654 1.9943H77.3862L76.9673 1.33111V2.27354H76.4786V0.388672H76.8277L77.4909 1.40092L78.1541 0.388672H78.5031V2.27354H78.5729Z" fill="#3D3D3D"/>
</g>
<defs>
<clipPath id="clip0_3_8773">
<rect width="150.685" height="22" fill="white"/>
</clipPath>
</defs>
</svg>
