<svg width="129" height="34" viewBox="0 0 129 34" fill="none" xmlns="http://www.w3.org/2000/svg">
<path d="M0 19.0116C2.4119 17.3389 4.62929 15.4457 6.74294 13.4098C9.50496 10.7515 12.0725 7.93766 14.251 4.78663C14.2769 4.74773 14.3028 4.72179 14.3547 4.66992C14.7826 5.26641 15.1976 5.83697 15.6384 6.40753C17.4539 8.80646 19.5027 11.0109 21.6552 13.1116C23.7948 15.1993 26.0511 17.1573 28.5278 18.856C28.7613 19.0116 28.6575 19.0635 28.5019 19.1802C23.6651 22.6036 19.5027 26.7531 15.82 31.3824C15.3143 32.0177 14.8604 32.6791 14.3677 33.3534C13.9916 32.8347 13.6415 32.329 13.2654 31.8362C9.55683 27.0513 5.30359 22.7981 0.376049 19.271C0.272311 19.1932 0.18154 19.0765 0.025934 19.0765C-3.96114e-07 19.0635 0 19.0376 0 19.0116Z" fill="#5B5A5C"/>
<path d="M79.4235 0C79.4624 0.103738 79.5791 0.0778034 79.6569 0.116705C80.5646 0.466819 81.0444 1.33562 80.8628 2.28223C80.6813 3.21587 79.8903 3.83829 78.9177 3.81236C77.9971 3.78642 77.245 3.11213 77.1023 2.16552C76.9597 1.28375 77.5303 0.389017 78.425 0.090771C78.4898 0.0648366 78.5676 0.0907712 78.5936 0.012968C78.8659 7.91262e-07 79.1382 0 79.4235 0ZM95.0749 33.9741C94.4006 33.7536 93.8171 33.4165 93.4799 32.7422C92.8834 31.5492 93.4151 30.0969 94.634 29.5912C95.9177 29.0595 97.396 29.7079 97.798 30.9527C98.2259 32.2754 97.4868 33.585 96.1382 33.9222C96.0993 33.9352 96.0604 33.9611 96.0215 33.9741H95.0749ZM95.5676 33.0793C96.3197 33.0923 96.8773 32.5217 96.8903 31.7307C96.9032 30.9527 96.3197 30.3173 95.5806 30.3173C94.8285 30.3043 94.2709 30.8749 94.2579 31.6659C94.245 32.4569 94.8155 33.0793 95.5676 33.0793ZM104.204 33.9741C104.191 33.8963 104.113 33.9092 104.074 33.8963C103.361 33.624 103.05 33.1701 103.115 32.431C103.166 31.8085 103.633 31.3547 104.333 31.238C104.826 31.1472 105.319 31.1602 105.786 31.2899C106.071 31.3677 106.097 31.251 106.058 31.0305C105.993 30.6545 105.669 30.3951 105.215 30.3562C104.8 30.3173 104.385 30.3692 104.009 30.5248C103.789 30.6156 103.724 30.5507 103.659 30.3562C103.465 29.7597 103.452 29.7597 104.074 29.5912C104.684 29.4226 105.293 29.3837 105.902 29.5393C106.642 29.7338 107.044 30.2784 107.082 31.1602C107.108 32.0031 107.082 32.8459 107.095 33.7018C107.095 33.8574 107.044 33.9352 106.875 33.9222C106.771 33.9092 106.668 33.9222 106.564 33.9222C106.266 33.9222 105.89 34.013 106.097 33.4035C105.773 33.7407 105.423 33.8444 105.099 34C104.787 33.9741 104.489 33.9741 104.204 33.9741ZM105.163 31.8345C104.891 31.8345 104.632 31.8734 104.398 32.016C104.009 32.2494 103.983 32.807 104.333 33.0664C104.813 33.4165 105.721 33.209 105.993 32.6773C106.214 32.2494 106.097 31.9901 105.643 31.8993C105.488 31.8734 105.319 31.8604 105.163 31.8345ZM115.524 33.9741C115.161 33.8055 114.772 33.6758 114.461 33.3905C113.722 32.6903 113.514 31.5622 113.968 30.6545C114.448 29.7079 115.55 29.2151 116.639 29.4615C117.599 29.6819 118.338 30.5248 118.403 31.4844C118.468 32.5995 117.858 33.5072 116.834 33.8703C116.743 33.8963 116.626 33.8833 116.562 33.9741H115.524ZM114.759 31.6918C114.759 32.4958 115.33 33.0923 116.082 33.0793C116.834 33.0793 117.378 32.4958 117.378 31.7048C117.378 30.9138 116.808 30.3173 116.043 30.3173C115.291 30.3173 114.759 30.8879 114.759 31.6918ZM66.3785 33.9741L65.9116 33.7796C64.8094 33.2738 64.3296 31.8993 64.8483 30.7063C65.3281 29.6041 66.547 29.1114 67.6492 29.5652C68.4662 29.9024 69.0756 31.0694 68.9071 31.9123C68.8682 32.1198 68.7255 32.042 68.6088 32.042C67.727 32.042 66.8453 32.0549 65.9635 32.042C65.7042 32.042 65.6523 32.0938 65.7431 32.3402C66.0543 33.1442 67.0398 33.3905 67.8178 32.8459C67.9216 32.7681 68.0123 32.5736 68.142 32.6644C68.3365 32.7811 68.5051 32.9497 68.6477 33.1182C68.7255 33.209 68.5829 33.2738 68.531 33.3387C68.2457 33.6628 67.8308 33.7925 67.4547 33.9741H66.3785ZM66.7934 31.3806C67.0787 31.3806 67.364 31.3677 67.6492 31.3806C67.8437 31.3936 67.9086 31.3547 67.8437 31.1342C67.6881 30.5637 67.3121 30.2525 66.7675 30.2654C66.2488 30.2784 65.8468 30.6415 65.7042 31.1732C65.6523 31.3677 65.7301 31.3806 65.8857 31.3806C66.1969 31.3677 66.4952 31.3806 66.7934 31.3806ZM49.2228 33.9741C48.3151 33.6629 48.0558 32.9497 48.0558 32.0679C48.0688 31.3158 48.0688 30.5637 48.0558 29.8116C48.0558 29.5782 48.0947 29.4874 48.354 29.5004C49.0932 29.5004 49.1061 29.4874 49.1061 30.2525V32.0031C49.1191 32.6644 49.4303 33.0275 49.9879 33.0404C50.5974 33.0534 50.9734 32.7033 50.9994 32.042C51.0253 31.2899 51.0123 30.5378 50.9994 29.7857C50.9994 29.5782 51.0512 29.5133 51.2587 29.5133C52.0367 29.5133 52.0367 29.5004 52.0367 30.2654C52.0367 31.3806 52.0238 32.5088 52.0367 33.624C52.0367 33.8703 51.9719 33.9611 51.7255 33.9222H51.6218C51.0253 33.9222 51.0253 33.9222 50.9605 33.3127C50.7141 33.6499 50.3769 33.8314 50.0398 34C49.7675 33.9741 49.4952 33.9741 49.2228 33.9741ZM70.904 33.9741C70.528 33.7925 70.113 33.7147 69.7629 33.4813C69.5943 33.3646 69.5165 33.2609 69.6721 33.0923L69.7499 32.9756C69.8926 32.6903 70.0352 32.5995 70.3335 32.82C70.6836 33.0664 71.0985 33.1831 71.5394 33.1442C71.7858 33.1182 72.0192 33.0534 72.084 32.7551C72.1359 32.4569 71.9155 32.3402 71.708 32.2624C71.3708 32.1327 71.0077 32.042 70.6706 31.9123C69.9833 31.6529 69.6721 31.1991 69.7629 30.5896C69.8537 29.9413 70.3594 29.4874 71.0596 29.4226C71.6431 29.3707 72.1878 29.5004 72.7194 29.7597C72.9139 29.8635 72.9788 29.9672 72.8361 30.1487C72.8102 30.1747 72.7972 30.2006 72.7843 30.2395C72.6805 30.5896 72.486 30.6545 72.1618 30.46C71.8506 30.2654 71.4875 30.1876 71.1115 30.2654C70.917 30.3043 70.7743 30.3951 70.7354 30.6026C70.6965 30.8101 70.8262 30.9397 70.9948 31.0046C71.2412 31.1213 71.5005 31.1991 71.7598 31.2899C71.9414 31.3547 72.1229 31.4195 72.3045 31.4973C72.901 31.7826 73.1214 32.1457 73.0695 32.7422C73.0177 33.2868 72.6675 33.6888 72.11 33.8703C72.0192 33.8963 71.9025 33.8574 71.8247 33.9611C71.5005 33.9741 71.2023 33.9741 70.904 33.9741ZM75.0276 33.9741C74.6515 33.8314 74.2495 33.7407 73.8994 33.5202C73.666 33.3776 73.5623 33.2609 73.7827 33.0275C73.8346 32.9756 73.8735 32.8978 73.9124 32.833C74.0032 32.6384 74.0939 32.6255 74.2755 32.7422C74.6515 32.9886 75.0665 33.1571 75.5203 33.1442C75.65 33.1442 75.7667 33.1182 75.8834 33.0664C76.039 33.0015 76.1428 32.8848 76.1428 32.7033C76.1428 32.5347 76.065 32.418 75.9223 32.3402C75.5981 32.1587 75.2351 32.0938 74.8849 31.9771C74.4181 31.8085 73.9643 31.6011 73.8346 31.0435C73.666 30.2525 74.1717 29.5393 75.0146 29.4355C75.637 29.3577 76.2206 29.4874 76.7652 29.7727C76.9597 29.8764 76.9856 29.9802 76.8559 30.1358C76.843 30.1487 76.843 30.1617 76.843 30.1617C76.5966 30.6156 76.5966 30.6156 76.1428 30.4081C75.8186 30.2654 75.4944 30.1747 75.1443 30.2395C74.9498 30.2784 74.7942 30.3692 74.7553 30.5637C74.7034 30.7841 74.846 30.9008 75.0276 30.9916C75.2091 31.0824 75.4036 31.1472 75.5981 31.2121C75.8445 31.3028 76.0909 31.3806 76.3373 31.4844C76.817 31.7048 77.1153 32.0679 77.0894 32.6384C77.0634 33.222 76.7652 33.598 76.2465 33.8185C76.1298 33.8703 76.0001 33.8444 75.9093 33.9481C75.6241 33.9741 75.3258 33.9741 75.0276 33.9741ZM54.293 33.9741C53.917 33.8185 53.515 33.7277 53.1649 33.5072C52.9574 33.3776 52.8407 33.2609 53.0482 33.0404C53.0611 33.0275 53.0611 33.0275 53.0611 33.0145C53.3075 32.6255 53.3075 32.6255 53.7225 32.8459C54.0856 33.0404 54.4486 33.1701 54.8636 33.1442C55.1359 33.1182 55.3823 33.0404 55.4212 32.7422C55.4601 32.4569 55.2396 32.3402 55.0192 32.2624C54.682 32.1457 54.3449 32.042 54.0207 31.9252C53.3075 31.6659 53.0352 31.2639 53.113 30.5896C53.1649 30.0061 53.6447 29.5393 54.306 29.4485C54.9414 29.3577 55.5249 29.5004 56.0955 29.7986C56.264 29.8894 56.277 29.9672 56.1862 30.1358C55.9139 30.6156 55.9269 30.6156 55.4082 30.4211C55.097 30.2914 54.7858 30.2136 54.4357 30.2654C54.2412 30.3043 54.0855 30.3951 54.0596 30.6026C54.0337 30.8101 54.1504 30.9397 54.306 31.0046C54.5524 31.1083 54.8117 31.1991 55.0711 31.2899C55.2526 31.3547 55.4341 31.4195 55.6157 31.4973C56.1862 31.7696 56.4326 32.1587 56.3807 32.7033C56.3289 33.2868 55.9658 33.7147 55.3952 33.8833C55.3045 33.9092 55.1878 33.8703 55.11 33.9611C54.8506 33.9741 54.5653 33.9741 54.293 33.9741ZM100.015 33.9741C99.9635 33.5202 99.7171 33.1442 99.5615 32.7292C99.1725 31.7437 98.7705 30.7582 98.3556 29.7857C98.2648 29.5652 98.2778 29.5004 98.5371 29.5004C99.3411 29.5004 99.3411 29.4874 99.6134 30.2525C99.8987 31.0305 100.184 31.8085 100.495 32.6773C100.729 32.042 100.949 31.4714 101.156 30.9008C101.299 30.4989 101.455 30.1098 101.584 29.7079C101.636 29.5522 101.714 29.4874 101.883 29.5004C102.155 29.5134 102.427 29.5004 102.751 29.5004C102.362 30.46 101.999 31.3806 101.623 32.2883C101.39 32.8589 101.208 33.4424 100.897 33.9741H100.015ZM109.352 33.9741C108.574 33.6499 108.405 33.3905 108.405 32.5217V30.6415C108.405 30.46 108.366 30.3562 108.159 30.3822C107.886 30.4211 107.809 30.3043 107.848 30.058C107.861 29.9672 107.861 29.8764 107.848 29.7857C107.822 29.5912 107.873 29.4744 108.107 29.5133C108.353 29.5522 108.431 29.4355 108.405 29.2021C108.392 29.1114 108.392 29.0206 108.405 28.9298C108.418 28.7223 108.301 28.4241 108.457 28.3463C108.703 28.2037 109.041 28.2944 109.326 28.3074C109.468 28.3074 109.43 28.4371 109.43 28.5149C109.43 28.7613 109.443 28.9947 109.43 29.241C109.417 29.4485 109.468 29.5393 109.689 29.5133C109.819 29.5004 109.961 29.5004 110.104 29.5133C110.259 29.5263 110.519 29.4096 110.571 29.5782C110.648 29.7986 110.597 30.058 110.584 30.2914C110.584 30.3951 110.467 30.3822 110.389 30.3822C110.156 30.3822 109.935 30.3951 109.702 30.3822C109.468 30.3562 109.417 30.46 109.417 30.6804C109.43 31.238 109.417 31.7956 109.417 32.3661C109.417 32.9626 109.65 33.1701 110.234 33.0145C110.532 32.9367 110.597 32.9886 110.584 33.2868C110.558 33.7796 110.584 33.7796 109.961 33.987C109.754 33.9741 109.546 33.9741 109.352 33.9741ZM128.699 8.23417C128.491 8.24714 128.401 8.16934 128.414 7.93593C128.427 7.45614 128.414 6.97635 128.414 6.43173C128.18 6.78185 128.115 7.13196 127.986 7.44317C127.921 7.61175 127.869 7.79329 127.791 7.94889C127.739 8.05263 127.752 8.20824 127.571 8.20824C127.389 8.20824 127.376 8.0656 127.337 7.96186C127.156 7.46911 126.974 6.98932 126.715 6.49657C126.715 6.95042 126.728 7.40427 126.715 7.85812C126.715 7.97483 126.832 8.20824 126.572 8.19527C126.326 8.1823 126.443 7.96186 126.443 7.84516C126.43 7.3135 126.43 6.76888 126.443 6.23722C126.443 6.12052 126.339 5.95195 126.572 5.91304C126.793 5.87414 126.896 5.96491 126.974 6.17239C127.13 6.63921 127.311 7.09306 127.48 7.54691C127.506 7.61175 127.532 7.66362 127.584 7.76735C127.778 7.26163 127.973 6.80778 128.115 6.32799C128.219 6.01678 128.362 5.83524 128.712 5.88711C128.699 6.67811 128.699 7.45614 128.699 8.23417ZM50.1306 25.4157C44.5417 25.4287 40.1199 21.0976 40.1328 15.3532C40.1328 9.63463 44.5547 5.22578 50.2213 5.22578C56.0695 5.22578 60.2968 9.82914 60.2839 15.2883C60.2709 20.9809 55.8232 25.4157 50.1306 25.4157ZM50.2084 22.8093C52.1405 22.7963 53.8262 22.148 55.2007 20.7475C56.4715 19.4508 57.1328 17.8818 57.2755 16.0923C57.47 13.7193 56.8216 11.6056 55.1489 9.88101C53.6836 8.36384 51.8552 7.65065 49.7415 7.79329C47.6668 7.92296 45.9421 8.73989 44.6843 10.4386C43.3487 12.241 42.8689 14.2769 43.2061 16.4554C43.6081 19.0618 44.9177 21.0717 47.3945 22.1998C48.2762 22.6278 49.2229 22.8093 50.2084 22.8093ZM94.1153 25.4157C88.293 25.4546 84.0917 20.8513 84.0917 15.4569C84.0917 9.67353 88.4875 5.21281 94.1931 5.22578C99.8598 5.23875 104.243 9.6476 104.243 15.3532C104.23 21.0069 99.6134 25.4546 94.1153 25.4157ZM94.3357 22.8093C95.1138 22.8482 96.0474 22.6667 96.9421 22.2647C99.6393 21.0458 100.988 18.8673 101.234 15.9886C101.429 13.7712 100.806 11.7613 99.3022 10.1144C97.5257 8.16934 95.2953 7.46911 92.7148 7.92296C91.0161 8.22121 89.6027 9.10297 88.5913 10.4775C87.2167 12.3318 86.8018 14.4584 87.1649 16.7407C87.7095 19.9695 90.4845 22.8482 94.3357 22.8093ZM107.095 18.0114C107.095 16.1442 107.057 14.2769 107.108 12.4226C107.147 10.7887 107.588 9.27155 108.574 7.93593C109.546 6.61327 110.856 5.79634 112.438 5.45919C114.189 5.08314 115.965 5.05721 117.716 5.45919C120.594 6.13349 122.241 8.03966 122.864 10.8924C123.019 11.5927 123.071 12.2929 123.071 13.0061V23.6392C123.071 24.7285 122.099 25.4287 121.113 25.0526C120.555 24.8452 120.257 24.4302 120.192 23.8467C120.179 23.704 120.179 23.5484 120.179 23.4058C120.179 20.0862 120.192 16.7666 120.179 13.46C120.166 12.1114 119.868 10.8276 119.025 9.7254C117.716 8.01373 115.2 7.3913 113.073 8.26011C111.323 8.9733 110.441 10.3738 110.104 12.1632C110 12.7079 109.974 13.2525 109.974 13.7971V23.5744C109.974 24.3913 109.546 24.9748 108.846 25.1175C107.899 25.312 107.082 24.6507 107.082 23.6651C107.07 21.7719 107.082 19.8917 107.082 17.9985C107.082 18.0114 107.082 18.0114 107.095 18.0114Z" fill="#5B5A5C"/>
<path d="M26.5987 9.03906C27.2082 9.9338 27.8565 10.7767 28.5438 11.5936C30.852 14.2908 33.3806 16.7675 36.2982 18.8163C36.4927 18.959 36.5835 19.0108 36.3111 19.2053C34.5865 20.3983 33.0175 21.7858 31.5133 23.2381C31.0983 23.6401 30.6574 24.0291 30.2684 24.47C29.0495 25.8057 27.8695 27.1542 26.8321 28.6455C26.7543 28.7492 26.6765 28.8659 26.5857 28.9956C25.8337 27.8934 25.0297 26.869 24.1609 25.8964C23.9664 25.676 24.1739 25.5852 24.2646 25.4815C25.1594 24.5478 26.08 23.6531 27.0396 22.7843C28.5049 21.4487 30.035 20.1779 31.7208 19.0238C31.4484 18.8293 31.2021 18.6607 30.9557 18.4792C28.5179 16.7156 26.3134 14.6668 24.2128 12.5143C24.109 12.3976 24.0053 12.3198 24.1479 12.1512C25.0427 11.1657 25.8596 10.1413 26.5987 9.03906Z" fill="#5B5A5C"/>
<path d="M66.3554 10.334C66.8741 9.1929 67.5613 8.2463 68.4301 7.4164C69.6101 6.28825 70.9717 5.52319 72.6315 5.36758C73.3447 5.30275 73.9023 5.54912 74.1876 6.08078C74.4729 6.61243 74.408 7.3386 74.019 7.79245C73.7597 8.09069 73.4225 8.2463 73.0335 8.29817C71.646 8.49268 70.3493 8.90763 69.2471 9.80236C68.106 10.736 67.3409 11.929 66.8611 13.3165C66.4202 14.5743 66.2776 15.871 66.2776 17.1937V23.6513C66.2776 24.3256 65.9145 24.8573 65.331 25.0648C64.7474 25.2722 64.125 25.1037 63.7101 24.6368C63.4378 24.3256 63.3729 23.9496 63.3729 23.5476C63.3729 18.4774 63.3859 13.4072 63.3859 8.35004V6.93661C63.3989 6.09374 64.0083 5.44539 64.8123 5.43242C65.6292 5.41945 66.2646 6.06781 66.2646 6.93661V9.91907C66.2776 10.0487 66.2387 10.1654 66.3554 10.334ZM80.3989 15.3394V23.5995C80.3989 24.4683 79.932 25.0259 79.154 25.1296C78.3111 25.2333 77.585 24.6498 77.5201 23.8069C77.5072 23.7162 77.5072 23.6254 77.5072 23.5346V7.04035C77.5072 6.22342 77.961 5.61396 78.6613 5.48429C79.569 5.31571 80.3729 5.93814 80.3859 6.87178C80.3989 7.76651 80.3859 8.66125 80.3859 9.54302C80.3859 11.4751 80.3859 13.4072 80.3989 15.3394ZM46.0358 30.8481C46.1525 30.913 46.2562 30.9648 46.347 31.0167C46.8397 31.276 47.0991 31.678 47.0991 32.2616C47.0991 32.858 46.8657 33.2989 46.347 33.5842C45.9191 33.8176 45.4652 33.8825 44.9984 33.8954C44.1815 33.9084 43.3516 33.8954 42.5346 33.9084C42.3142 33.9084 42.2623 33.8306 42.2753 33.6361C42.2883 31.8596 42.2883 30.096 42.2753 28.3195C42.2753 28.125 42.3272 28.0732 42.5217 28.0732C43.3645 28.0861 44.2074 28.0731 45.0632 28.0861C45.3745 28.0861 45.6727 28.1639 45.958 28.2936C46.9694 28.7734 47.1121 30.0571 46.2173 30.7314C46.1654 30.7574 46.1136 30.7963 46.0358 30.8481ZM44.376 32.9488C44.7261 32.9229 45.141 33.0137 45.543 32.871C45.8931 32.7543 46.0747 32.495 46.0747 32.1578C46.0747 31.7947 45.8672 31.5873 45.543 31.4835C45.4004 31.4446 45.2577 31.4057 45.1021 31.4057C44.5835 31.3928 44.0518 31.4057 43.5331 31.3928C43.3645 31.3928 43.2867 31.4446 43.2867 31.6262C43.2997 31.9892 43.2997 32.3523 43.2867 32.7154C43.2738 32.9099 43.3645 32.9488 43.5331 32.9359C43.7925 32.9488 44.0518 32.9488 44.376 32.9488ZM44.2204 29.0198V29.0068H43.5331C43.3645 29.0068 43.2738 29.0457 43.2867 29.2272C43.2997 29.5773 43.2867 29.9275 43.2867 30.2905C43.2867 30.3943 43.2867 30.498 43.4423 30.498C43.9999 30.485 44.5575 30.5629 45.1151 30.4591C45.543 30.3813 45.7635 30.0701 45.7375 29.6941C45.7116 29.331 45.4652 29.0846 45.0373 29.0327C44.765 29.0068 44.4927 29.0198 44.2204 29.0198ZM120.442 30.0701C120.792 29.707 121.103 29.4866 121.518 29.4217C122.503 29.2791 123.294 29.8626 123.333 30.8481C123.372 31.7947 123.346 32.7413 123.346 33.7009C123.346 33.7398 123.359 33.7917 123.333 33.8047C123.074 34.0251 122.776 33.8565 122.49 33.8954C122.296 33.9214 122.309 33.7787 122.309 33.649V31.5873C122.309 31.4446 122.309 31.315 122.296 31.1723C122.231 30.6536 121.92 30.3424 121.427 30.3294C120.908 30.3165 120.532 30.6277 120.455 31.1464C120.442 31.276 120.429 31.3928 120.429 31.5224V33.1304C120.429 33.9603 120.429 33.9603 119.586 33.8954C119.443 33.8825 119.378 33.8436 119.378 33.7009V29.6811C119.378 29.4217 119.56 29.4606 119.689 29.4995C119.936 29.5644 120.26 29.2921 120.429 29.6681C120.468 29.7589 120.442 29.8756 120.442 30.0701ZM84.2761 30.0701C84.5613 29.7589 84.8336 29.5255 85.2097 29.4477C86.286 29.2013 87.1159 29.8367 87.1677 30.9648C87.2066 31.8725 87.1807 32.7673 87.1807 33.675C87.1807 33.8306 87.1418 33.8954 86.9732 33.9084C86.1563 33.9603 86.1563 33.9732 86.1563 33.1693C86.1563 32.5468 86.1822 31.9114 86.1433 31.289C86.0915 30.485 85.3912 30.109 84.7429 30.485C84.3798 30.6925 84.2631 31.0426 84.2631 31.4446C84.2631 32.1578 84.2501 32.858 84.2631 33.5712C84.2631 33.8306 84.2242 33.9343 83.9389 33.9214C83.2257 33.9084 83.2257 33.9214 83.2257 33.1952V29.7978C83.2257 29.5773 83.2646 29.4736 83.511 29.5125C83.5758 29.5255 83.6536 29.5125 83.7185 29.5125C84.2112 29.4995 84.2112 29.4995 84.2761 30.0701ZM89.4111 30.0571C89.6574 29.7719 89.9427 29.5384 90.3058 29.4477C91.3821 29.1883 92.2249 29.8108 92.2898 30.9648C92.3416 31.8596 92.3028 32.7673 92.3028 33.675C92.3028 33.8306 92.2638 33.8954 92.0953 33.9084C91.2913 33.9603 91.2913 33.9732 91.2913 33.1433C91.2913 32.495 91.3432 31.8466 91.2654 31.1982C91.1876 30.6018 90.8634 30.3294 90.3188 30.3424C89.8001 30.3683 89.4111 30.7444 89.3981 31.302C89.3851 32.067 89.3851 32.8321 89.3981 33.5972C89.3981 33.8306 89.3333 33.9084 89.0998 33.9084C88.3607 33.8954 88.3607 33.9084 88.3607 33.1822C88.3607 32.067 88.3737 30.9389 88.3478 29.8237C88.3478 29.5384 88.4385 29.4606 88.6979 29.4995H88.7627C89.3333 29.4995 89.3333 29.4995 89.4111 30.0571ZM60.8184 30.0831C61.1944 29.6162 61.6353 29.3828 62.1799 29.3958C63.0358 29.4088 63.6582 29.9534 63.6841 30.8092C63.723 31.7688 63.6971 32.7284 63.7101 33.6879C63.7101 33.7658 63.723 33.8825 63.6193 33.8825C63.334 33.8954 63.0487 33.8954 62.7635 33.8825C62.6208 33.8695 62.6727 33.7139 62.6727 33.6231C62.6727 32.8321 62.6857 32.0411 62.6597 31.2631C62.6468 30.5369 61.9854 30.122 61.3371 30.4202C60.974 30.5888 60.8054 30.887 60.7925 31.2631C60.7795 32.0152 60.7665 32.7673 60.7795 33.5194C60.7795 33.7917 60.7276 33.8954 60.4294 33.8954C59.7551 33.8695 59.7551 33.8954 59.7551 33.2082V29.7848C59.7551 29.5773 59.794 29.4606 60.0404 29.4995C60.1052 29.5125 60.183 29.4995 60.2478 29.4995C60.7665 29.4995 60.7665 29.4995 60.8184 30.0831ZM81.8123 31.0037C81.8123 31.8596 81.7993 32.7154 81.8123 33.5712C81.8123 33.8176 81.7734 33.9084 81.5011 33.9084C80.7749 33.8954 80.7749 33.9084 80.7749 33.1693V28.4103C80.7749 28.1639 80.8138 28.0602 81.0991 28.0602C81.8123 28.0861 81.8123 28.0602 81.8123 28.7734V31.0037ZM58.4843 31.7169C58.4843 32.3523 58.4713 33.0007 58.4843 33.6361C58.4843 33.8306 58.4454 33.9084 58.2249 33.9084C57.4469 33.9214 57.4469 33.9214 57.4469 33.1563C57.4469 32.0411 57.4599 30.9259 57.4469 29.7978C57.4469 29.5644 57.4988 29.4866 57.7452 29.4866C58.4843 29.4995 58.4843 29.4866 58.4843 30.2387V31.7169ZM111.663 31.678C111.663 31.0426 111.676 30.3943 111.663 29.7589C111.663 29.5514 111.715 29.4866 111.935 29.4866C112.687 29.4866 112.687 29.4736 112.687 30.2257V33.5842C112.687 33.8176 112.622 33.8954 112.376 33.8954C111.663 33.8954 111.663 33.8954 111.663 33.1822V31.678ZM125.097 7.19596V6.78101C125.097 6.22342 125.097 6.22342 124.539 6.18451C124.448 6.17155 124.345 6.19748 124.345 6.05484C124.345 5.89924 124.461 5.9122 124.565 5.9122H125.966C126.069 5.9122 126.173 5.89924 126.173 6.05484C126.173 6.19748 126.069 6.17155 125.979 6.17155C125.421 6.21045 125.421 6.21045 125.421 6.76804V7.96102C125.421 8.07773 125.447 8.19443 125.265 8.19443C125.084 8.19443 125.11 8.07773 125.11 7.96102C125.097 7.72761 125.097 7.4553 125.097 7.19596ZM58.0045 27.8657C58.5362 27.8657 58.5362 27.8657 58.5362 28.3714C58.5362 28.8382 58.5362 28.8382 58.0045 28.8382C57.421 28.8382 57.4469 28.8382 57.421 28.2806C57.408 27.9435 57.4988 27.7879 57.8489 27.8657C57.8878 27.8786 57.9397 27.8657 58.0045 27.8657ZM112.181 28.8382C111.611 28.8382 111.611 28.8382 111.611 28.2936C111.611 27.8657 111.611 27.8657 112.117 27.8657C112.713 27.8657 112.713 27.8657 112.713 28.4103C112.713 28.8382 112.713 28.8382 112.181 28.8382Z" fill="#5B5A5C"/>
</svg>
