<svg width="174" height="40" viewBox="0 0 174 40" fill="none" xmlns="http://www.w3.org/2000/svg">
<g opacity="0.84">
<path d="M33.3253 19.5148C33.0685 10.5345 25.708 3.3335 16.6656 3.3335C13.802 3.3335 11.107 4.05571 8.75292 5.32793L33.3253 19.5148Z" fill="#212527"/>
<path d="M6.40962 6.86177C5.71981 7.40101 5.07356 7.99338 4.47702 8.63274L32.6082 24.8743C32.8611 24.0463 33.0512 23.1909 33.173 22.3136L6.40962 6.86177Z" fill="#212527"/>
<path d="M28.8544 31.3673C28.2579 32.0067 27.6117 32.5991 26.9219 33.1383L0.158265 17.6863C0.280104 16.8091 0.470221 15.9537 0.723077 15.1257L28.8544 31.3673Z" fill="#212527"/>
<path d="M30.4352 29.3932L1.64425 12.7707C2.00812 12.0161 2.42719 11.293 2.89621 10.6068L31.6871 27.2292C31.3233 27.9839 30.9042 28.707 30.4352 29.3932Z" fill="#212527"/>
<path d="M16.6656 36.6668C19.5294 36.6668 22.2245 35.9445 24.5787 34.6722L0.00585938 20.4851C0.262439 29.4655 7.62305 36.6668 16.6656 36.6668Z" fill="#212527"/>
</g>
<g opacity="0.84">
<path d="M62.2969 20.3752C62.2969 19.1668 61.6302 18.3752 60.6302 18.3752C59.5677 18.3752 58.7344 18.9585 57.8177 20.4585V27.5002H49.1035C44.5827 27.5002 41.666 24.7293 41.666 20.2293C41.666 15.7293 44.5827 12.9585 49.1035 12.9585H52.6035V15.771H49.1035C46.666 15.771 45.2077 17.396 45.2077 20.2293C45.2077 23.0627 46.666 24.6877 49.1035 24.6877H54.5677V12.0835H57.8177V17.1877C58.7969 16.1043 60.0469 15.6668 61.2969 15.6668C63.9427 15.6668 65.5469 17.4585 65.5469 20.1668V27.5002H62.2969V20.3752Z" fill="#212527"/>
<path d="M73.0391 18.3752C73.9141 18.3752 74.2891 19.0835 74.2891 20.1668V21.7293H77.5599V20.1668C77.5599 17.2085 75.9766 15.6668 73.7474 15.6668C72.5599 15.6668 71.5599 16.1877 70.7057 17.2085L70.6432 15.9168H67.4974V27.5002H70.7474V20.271C71.6016 19.021 72.3099 18.3752 73.0391 18.3752Z" fill="#212527"/>
<path fill-rule="evenodd" clip-rule="evenodd" d="M84.3179 27.7502C80.6095 27.7502 78.3595 25.4793 78.3595 21.7085C78.3595 17.9377 80.6095 15.6668 84.3179 15.6668C88.0262 15.6668 90.2554 17.9377 90.2554 21.7085C90.2554 25.4793 88.0262 27.7502 84.3179 27.7502ZM81.6095 21.7085C81.6095 23.8543 82.6304 25.1252 84.3179 25.1252C85.9845 25.1252 87.0054 23.8543 87.0054 21.7085C87.0054 19.5627 85.9845 18.2918 84.3179 18.2918C82.6304 18.2918 81.6095 19.5627 81.6095 21.7085Z" fill="#212527"/>
<path d="M104.895 18.3543C106 18.3543 106.708 19.0627 106.708 20.2293V27.5002H109.958V20.2293C109.958 17.3752 108.104 15.6668 105.812 15.6668C104.02 15.6668 102.666 16.4585 101.958 17.6877C101.25 16.396 99.8953 15.6668 98.312 15.6668C96.9995 15.6668 95.7495 16.3127 94.9578 17.3127L94.8953 15.9168H91.7495V27.5002H94.9995V20.146C95.6453 19.0835 96.4787 18.3543 97.4162 18.3543C98.4995 18.3543 99.2287 19.0627 99.2287 20.2293V27.5002H102.479V20.1877C103.125 19.1043 103.958 18.3543 104.895 18.3543Z" fill="#212527"/>
<path fill-rule="evenodd" clip-rule="evenodd" d="M118.818 27.5002L118.755 26.3543C117.964 27.3543 116.735 27.7502 115.297 27.7502C113.047 27.7502 111.568 26.3127 111.568 24.271C111.568 21.8752 113.464 20.521 116.589 20.521H118.714V19.7293C118.714 18.6252 117.943 17.9585 116.63 17.9585C115.339 17.9585 114.505 18.5835 114.401 19.6043H111.235C111.443 17.1668 113.526 15.6668 116.776 15.6668C119.943 15.6668 121.964 17.2085 121.964 19.9377V27.5002H118.818ZM114.755 24.0627C114.755 24.6877 115.193 25.1877 116.11 25.1877C117.235 25.1877 118.089 24.6252 118.714 23.6668V22.771L116.526 22.7918C115.443 22.7918 114.755 23.1668 114.755 24.0627Z" fill="#212527"/>
<path d="M124.733 23.3335C124.733 25.7918 126.275 27.5002 128.629 27.5002H131.546V24.8752H129.921C128.504 24.8752 127.983 24.5418 127.983 23.3335V18.5418H130.358V15.9168H127.983V12.0835H124.733V15.9168H122.754V18.5418H124.733V23.3335Z" fill="#212527"/>
<path fill-rule="evenodd" clip-rule="evenodd" d="M137.929 27.7502C134.22 27.7502 131.97 25.4793 131.97 21.7085C131.97 17.9377 134.22 15.6668 137.929 15.6668C141.637 15.6668 143.866 17.9377 143.866 21.7085C143.866 25.4793 141.637 27.7502 137.929 27.7502ZM135.22 21.7085C135.22 23.8543 136.241 25.1252 137.929 25.1252C139.595 25.1252 140.616 23.8543 140.616 21.7085C140.616 19.5627 139.595 18.2918 137.929 18.2918C136.241 18.2918 135.22 19.5627 135.22 21.7085Z" fill="#212527"/>
<path fill-rule="evenodd" clip-rule="evenodd" d="M144.819 21.7085C144.819 25.4793 147.069 27.7502 150.777 27.7502C154.485 27.7502 156.714 25.4793 156.714 21.7085C156.714 17.9377 154.485 15.6668 150.777 15.6668C147.069 15.6668 144.819 17.9377 144.819 21.7085ZM150.777 25.1252C149.09 25.1252 148.069 23.8543 148.069 21.7085C148.069 19.5627 149.09 18.2918 150.777 18.2918C152.444 18.2918 153.465 19.5627 153.465 21.7085C153.465 23.8543 152.444 25.1252 150.777 25.1252Z" fill="#212527"/>
<path d="M162.862 23.3543C162.904 26.0835 164.862 27.7502 168.05 27.7502C171.05 27.7502 172.862 26.3335 172.862 23.9793C172.862 21.1161 170.493 20.6676 168.61 20.3114C167.37 20.0766 166.341 19.8819 166.341 19.0627C166.341 18.396 166.883 18.021 167.8 18.021C168.883 18.021 169.591 18.5835 169.654 19.6043H172.654C172.445 17.1252 170.8 15.6668 167.904 15.6668C165.05 15.6668 163.112 17.0002 163.112 19.271C163.112 21.9898 165.449 22.536 167.325 22.9745C168.582 23.2685 169.633 23.514 169.633 24.3335C169.633 25.0002 169.029 25.396 168.05 25.396C166.633 25.396 165.8 24.6252 165.862 23.3543H162.862Z" fill="#212527"/>
<path d="M158.229 27.5002V12.0835H161.479V27.5002H158.229Z" fill="#212527"/>
</g>
</svg>
