<svg width="127" height="40" viewBox="0 0 127 40" fill="none" xmlns="http://www.w3.org/2000/svg">
<g opacity="0.84">
<path opacity="0.5" fill-rule="evenodd" clip-rule="evenodd" d="M28.9874 6.99994L20.9151 4.83697C20.3578 4.68765 19.906 5.0343 19.906 5.61123V13.9683C19.906 14.5452 20.3578 15.134 20.9151 15.2833L28.9874 17.4463C29.5447 17.5956 29.9964 17.249 29.9964 16.672V8.31494C29.9964 7.73801 29.5447 7.14926 28.9874 6.99994ZM20.9151 1.70307C18.686 1.10578 16.8789 2.49238 16.8789 4.80012V13.1572C16.8789 15.4649 18.686 17.8199 20.9151 18.4172L28.9874 20.5802C31.2165 21.1775 33.0235 19.7909 33.0235 17.4831V9.12606C33.0235 6.81832 31.2165 4.46332 28.9874 3.86604L20.9151 1.70307Z" fill="#212527"/>
<path opacity="0.7" fill-rule="evenodd" clip-rule="evenodd" d="M22.65 13.8087L12.5596 11.105C12.0023 10.9557 11.5506 11.3024 11.5506 11.8793V22.3256C11.5506 22.9026 12.0023 23.4913 12.5596 23.6406L22.65 26.3444C23.2073 26.4937 23.659 26.147 23.659 25.5701V15.1238C23.659 14.5468 23.2073 13.9581 22.65 13.8087ZM12.5596 7.97113C10.3305 7.37385 8.52344 8.76044 8.52344 11.0682V21.5145C8.52344 23.8223 10.3305 26.1773 12.5596 26.7745L22.65 29.4783C24.8791 30.0755 26.6861 28.689 26.6861 26.3812V15.9349C26.6861 13.6271 24.8791 11.2721 22.65 10.6748L12.5596 7.97113Z" fill="#212527"/>
<path fill-rule="evenodd" clip-rule="evenodd" d="M16.3106 20.6176L4.20217 17.3731C3.64489 17.2238 3.19313 17.5704 3.19313 18.1474V30.683C3.19313 31.2599 3.64489 31.8487 4.20217 31.998L16.3106 35.2424C16.8679 35.3918 17.3197 35.0451 17.3197 34.4682V21.9326C17.3197 21.3556 16.8679 20.7669 16.3106 20.6176ZM4.20217 14.2392C1.97306 13.6419 0.166016 15.0285 0.166016 17.3363V29.8719C0.166016 32.1796 1.97306 34.5346 4.20217 35.1319L16.3106 38.3763C18.5397 38.9736 20.3468 37.587 20.3468 35.2793V22.7437C20.3468 20.4359 18.5397 18.0809 16.3106 17.4837L4.20217 14.2392Z" fill="#212527"/>
</g>
<g opacity="0.84">
<path d="M44.8654 27.1737C45.8143 27.6092 46.9031 27.827 48.132 27.827C49.3609 27.827 50.4343 27.617 51.352 27.197C52.2854 26.7614 53.0087 26.1548 53.522 25.377C54.0354 24.5837 54.292 23.6581 54.292 22.6003V22.3203C54.292 21.3403 54.0665 20.547 53.6154 19.9403C53.1643 19.3181 52.5887 18.8592 51.8887 18.5637C51.2043 18.2681 50.4965 18.1203 49.7654 18.1203H48.902V17.747L53.8254 15.1337V11.167H42.252V13.827H50.512V14.2003L45.2387 17.0003V20.267H48.5054C49.0343 20.267 49.5087 20.3448 49.9287 20.5003C50.3487 20.6403 50.6831 20.8659 50.932 21.177C51.1809 21.4881 51.3054 21.8925 51.3054 22.3903V22.6237C51.3054 23.3548 51.0254 23.9614 50.4654 24.4437C49.9209 24.9259 49.1431 25.167 48.132 25.167C47.1365 25.167 46.3354 24.9103 45.7287 24.397C45.122 23.8681 44.8187 23.1681 44.8187 22.297V21.9703H41.832V22.3903C41.832 23.5103 42.0965 24.4825 42.6254 25.307C43.1698 26.1159 43.9165 26.7381 44.8654 27.1737Z" fill="#212527"/>
<path fill-rule="evenodd" clip-rule="evenodd" d="M65.0347 11.797C64.2569 11.377 63.3547 11.167 62.328 11.167H55.608V27.5003H58.688V21.527H62.328C63.3235 21.527 64.2102 21.3248 64.988 20.9203C65.7813 20.5003 66.4035 19.917 66.8547 19.1703C67.3213 18.4081 67.5547 17.5214 67.5547 16.5103V16.1837C67.5547 15.157 67.3291 14.2703 66.878 13.5237C66.4424 12.777 65.828 12.2014 65.0347 11.797ZM63.798 18.1203C63.3469 18.5248 62.7558 18.727 62.0247 18.727H58.688V13.967H62.0247C62.7558 13.967 63.3469 14.1692 63.798 14.5737C64.2491 14.9781 64.4747 15.5303 64.4747 16.2303V16.4637C64.4747 17.1637 64.2491 17.7159 63.798 18.1203Z" fill="#212527"/>
<path fill-rule="evenodd" clip-rule="evenodd" d="M73.8499 27.827C72.6988 27.827 71.6644 27.5937 70.7466 27.127C69.8288 26.6603 69.1055 25.9837 68.5766 25.097C68.0477 24.2103 67.7833 23.1448 67.7833 21.9003V21.527C67.7833 20.2825 68.0477 19.217 68.5766 18.3303C69.1055 17.4437 69.8288 16.767 70.7466 16.3003C71.6644 15.8337 72.6988 15.6003 73.8499 15.6003C75.001 15.6003 76.0355 15.8337 76.9533 16.3003C77.871 16.767 78.5944 17.4437 79.1232 18.3303C79.6521 19.217 79.9166 20.2825 79.9166 21.527V21.9003C79.9166 23.1448 79.6521 24.2103 79.1232 25.097C78.5944 25.9837 77.871 26.6603 76.9533 27.127C76.0355 27.5937 75.001 27.827 73.8499 27.827ZM73.8499 25.2137C74.7521 25.2137 75.4988 24.9259 76.0899 24.3503C76.681 23.7592 76.9766 22.9192 76.9766 21.8303V21.597C76.9766 20.5081 76.681 19.6759 76.0899 19.1003C75.5144 18.5092 74.7677 18.2137 73.8499 18.2137C72.9477 18.2137 72.201 18.5092 71.6099 19.1003C71.0188 19.6759 70.7232 20.5081 70.7232 21.597V21.8303C70.7232 22.9192 71.0188 23.7592 71.6099 24.3503C72.201 24.9259 72.9477 25.2137 73.8499 25.2137Z" fill="#212527"/>
<path d="M85.617 16.207C85.2281 16.4248 84.9481 16.767 84.777 17.2337H84.357V15.927H81.4637V27.5003H84.4037V20.9203C84.4037 20.0959 84.6448 19.4892 85.127 19.1003C85.6092 18.6959 86.2237 18.4937 86.9704 18.4937H88.417V18.492H91.415V24.887C91.415 25.6803 91.6483 26.3181 92.115 26.8003C92.5972 27.267 93.2194 27.5003 93.9817 27.5003H97.2483V25.0737H95.0083C94.5728 25.0737 94.355 24.8403 94.355 24.3737V18.492H97.5283V15.8836H94.355V12.3337H91.415V15.8836H88.417V15.8803H87.017C86.4881 15.8803 86.0215 15.9892 85.617 16.207Z" fill="#212527"/>
<path fill-rule="evenodd" clip-rule="evenodd" d="M100.4 27.407C101.053 27.687 101.792 27.827 102.616 27.827C103.425 27.827 104.063 27.7103 104.53 27.477C104.996 27.2437 105.338 26.9792 105.556 26.6837C105.774 26.3725 105.914 26.1237 105.976 25.937H106.42V25.9603C106.42 26.427 106.606 26.8003 106.98 27.0803C107.353 27.3603 107.827 27.5003 108.403 27.5003H110.363V25.0737H109.43C108.994 25.0737 108.776 24.8403 108.776 24.3737V20.057C108.776 18.6103 108.333 17.5059 107.446 16.7437C106.56 15.9814 105.354 15.6003 103.83 15.6003C102.834 15.6003 101.986 15.7559 101.286 16.067C100.602 16.3625 100.05 16.7592 99.6296 17.257C99.2252 17.7392 98.9296 18.2759 98.7429 18.867L101.45 19.777C101.558 19.2481 101.792 18.8203 102.15 18.4937C102.507 18.1514 103.052 17.9803 103.783 17.9803C104.53 17.9803 105.074 18.1592 105.416 18.517C105.758 18.8592 105.93 19.3025 105.93 19.847V20.5003H102.756C101.885 20.5003 101.107 20.6403 100.423 20.9203C99.754 21.1848 99.2252 21.5892 98.8363 22.1337C98.4629 22.6625 98.2763 23.3237 98.2763 24.117C98.2763 24.9103 98.4629 25.587 98.8363 26.147C99.2252 26.6914 99.7463 27.1114 100.4 27.407ZM105.136 24.7703C104.623 25.2214 103.954 25.447 103.13 25.447C102.507 25.447 102.033 25.3148 101.706 25.0503C101.38 24.7859 101.216 24.4437 101.216 24.0237C101.216 23.6037 101.372 23.277 101.683 23.0437C101.994 22.8103 102.422 22.6937 102.966 22.6937H105.93V22.927C105.93 23.6892 105.665 24.3037 105.136 24.7703Z" fill="#212527"/>
<path d="M117.474 26.847C118.438 27.5003 119.675 27.827 121.184 27.827C122.662 27.827 123.836 27.5003 124.707 26.847C125.594 26.1781 126.037 25.237 126.037 24.0237C126.037 23.2148 125.827 22.577 125.407 22.1103C125.003 21.6281 124.443 21.2625 123.727 21.0137C123.027 20.7492 122.242 20.5392 121.37 20.3837L120.717 20.267C120.188 20.1737 119.768 20.0414 119.457 19.8703C119.146 19.6837 118.99 19.4037 118.99 19.0303C118.99 18.6881 119.138 18.4237 119.434 18.237C119.729 18.0348 120.157 17.9337 120.717 17.9337C121.277 17.9337 121.744 18.0581 122.117 18.307C122.506 18.5559 122.763 18.9759 122.887 19.567L125.617 18.727C125.353 17.7937 124.793 17.0392 123.937 16.4637C123.082 15.8881 122.008 15.6003 120.717 15.6003C119.348 15.6003 118.244 15.9114 117.404 16.5337C116.564 17.1403 116.144 18.0192 116.144 19.1703C116.144 19.9325 116.346 20.5548 116.75 21.037C117.155 21.5192 117.692 21.9003 118.36 22.1803C119.029 22.4448 119.768 22.6548 120.577 22.8103L121.23 22.927C121.915 23.0514 122.413 23.2148 122.724 23.417C123.035 23.6037 123.19 23.8759 123.19 24.2337C123.19 24.5914 123.027 24.8948 122.7 25.1437C122.374 25.377 121.868 25.4937 121.184 25.4937C120.733 25.4937 120.313 25.4314 119.924 25.307C119.55 25.167 119.232 24.9414 118.967 24.6303C118.718 24.3192 118.539 23.8914 118.43 23.347L115.724 24.047C115.926 25.2603 116.509 26.1937 117.474 26.847Z" fill="#212527"/>
<path d="M111.346 27.5003V11.167H114.286V27.5003H111.346Z" fill="#212527"/>
</g>
</svg>
