<svg width="170" height="40" viewBox="0 0 170 40" fill="none" xmlns="http://www.w3.org/2000/svg">
<g opacity="0.84">
<path d="M11.875 4.1665C11.875 10.7249 6.55838 16.0415 0 16.0415V23.9582H11.875V35.8332H19.7917C19.7917 29.2748 25.1083 23.9582 31.6667 23.9582V16.0415H19.7917V4.1665H11.875Z" fill="#212527"/>
</g>
<g opacity="0.84">
<path d="M46.834 27.8005C45.0673 27.8005 43.5507 27.4255 42.284 26.6755C41.0173 25.9088 40.0423 24.8505 39.359 23.5005C38.6757 22.1338 38.334 20.5588 38.334 18.7755C38.334 16.9922 38.6757 15.4172 39.359 14.0505C40.0423 12.6838 41.0173 11.6172 42.284 10.8505C43.5507 10.0838 45.0673 9.70049 46.834 9.70049C48.934 9.70049 50.6507 10.2255 51.984 11.2755C53.334 12.3088 54.1757 13.7672 54.509 15.6505H50.984C50.7673 14.7005 50.3006 13.9588 49.584 13.4255C48.884 12.8755 47.9506 12.6005 46.784 12.6005C45.1673 12.6005 43.9007 13.1505 42.984 14.2505C42.0673 15.3505 41.609 16.8588 41.609 18.7755C41.609 20.6922 42.0673 22.2005 42.984 23.3005C43.9007 24.3838 45.1673 24.9255 46.784 24.9255C47.9506 24.9255 48.884 24.6755 49.584 24.1755C50.3006 23.6588 50.7673 22.9505 50.984 22.0505H54.509C54.1757 23.8505 53.334 25.2588 51.984 26.2755C50.6507 27.2922 48.934 27.8005 46.834 27.8005Z" fill="#212527"/>
<path d="M55.7666 27.5005V9.50049H58.9666V27.5005H55.7666Z" fill="#212527"/>
<path d="M66.4363 27.8005C65.2697 27.8005 64.228 27.5172 63.3113 26.9505C62.3947 26.3838 61.6697 25.6088 61.1363 24.6255C60.603 23.6422 60.3363 22.5255 60.3363 21.2755C60.3363 20.0255 60.603 18.9172 61.1363 17.9505C61.6697 16.9672 62.3947 16.2005 63.3113 15.6505C64.228 15.0838 65.2697 14.8005 66.4363 14.8005C67.3697 14.8005 68.1863 14.9755 68.8863 15.3255C69.5863 15.6755 70.153 16.1672 70.5863 16.8005L70.7613 15.1005H73.7863V27.5005H70.7863L70.5863 25.7255C70.1863 26.2755 69.653 26.7588 68.9863 27.1755C68.3363 27.5922 67.4863 27.8005 66.4363 27.8005ZM67.1113 25.0005C68.1447 25.0005 68.9863 24.6588 69.6363 23.9755C70.303 23.2755 70.6363 22.3838 70.6363 21.3005C70.6363 20.2172 70.303 19.3338 69.6363 18.6505C68.9863 17.9505 68.1447 17.6005 67.1113 17.6005C66.0947 17.6005 65.253 17.9422 64.5863 18.6255C63.9197 19.3088 63.5863 20.1922 63.5863 21.2755C63.5863 22.3588 63.9197 23.2505 64.5863 23.9505C65.253 24.6505 66.0947 25.0005 67.1113 25.0005Z" fill="#212527"/>
<path d="M75.5449 27.5005V15.1005H78.3699L78.6199 17.2005C79.0032 16.4672 79.5532 15.8838 80.2699 15.4505C81.0032 15.0172 81.8616 14.8005 82.8449 14.8005C84.3782 14.8005 85.5699 15.2838 86.4199 16.2505C87.2699 17.2172 87.6949 18.6338 87.6949 20.5005V27.5005H84.4949V20.8005C84.4949 19.7338 84.2782 18.9172 83.8449 18.3505C83.4116 17.7838 82.7366 17.5005 81.8199 17.5005C80.9199 17.5005 80.1782 17.8172 79.5949 18.4505C79.0282 19.0838 78.7449 19.9672 78.7449 21.1005V27.5005H75.5449Z" fill="#212527"/>
<path d="M94.9549 27.8005C93.7882 27.8005 92.7465 27.5172 91.8299 26.9505C90.9132 26.3838 90.1882 25.6088 89.6549 24.6255C89.1215 23.6422 88.8549 22.5255 88.8549 21.2755C88.8549 20.0255 89.1215 18.9172 89.6549 17.9505C90.1882 16.9672 90.9132 16.2005 91.8299 15.6505C92.7465 15.0838 93.7882 14.8005 94.9549 14.8005C95.8882 14.8005 96.7049 14.9755 97.4049 15.3255C98.1049 15.6755 98.6715 16.1672 99.1049 16.8005V9.50049H102.305V27.5005H99.4549L99.1049 25.7255C98.7049 26.2755 98.1715 26.7588 97.5049 27.1755C96.8549 27.5922 96.0049 27.8005 94.9549 27.8005ZM95.6299 25.0005C96.6632 25.0005 97.5049 24.6588 98.1549 23.9755C98.8215 23.2755 99.1549 22.3838 99.1549 21.3005C99.1549 20.2172 98.8215 19.3338 98.1549 18.6505C97.5049 17.9505 96.6632 17.6005 95.6299 17.6005C94.6132 17.6005 93.7715 17.9422 93.1049 18.6255C92.4382 19.3088 92.1049 20.1922 92.1049 21.2755C92.1049 22.3588 92.4382 23.2505 93.1049 23.9505C93.7715 24.6505 94.6132 25.0005 95.6299 25.0005Z" fill="#212527"/>
<path d="M110.088 27.8005C108.838 27.8005 107.73 27.5338 106.763 27.0005C105.797 26.4672 105.038 25.7172 104.488 24.7505C103.938 23.7838 103.663 22.6672 103.663 21.4005C103.663 20.1172 103.93 18.9755 104.463 17.9755C105.013 16.9755 105.763 16.2005 106.713 15.6505C107.68 15.0838 108.813 14.8005 110.113 14.8005C111.33 14.8005 112.405 15.0672 113.338 15.6005C114.272 16.1338 114.997 16.8672 115.513 17.8005C116.047 18.7172 116.313 19.7422 116.313 20.8755C116.313 21.0588 116.305 21.2505 116.288 21.4505C116.288 21.6505 116.28 21.8588 116.263 22.0755H106.838C106.905 23.0422 107.238 23.8005 107.838 24.3505C108.455 24.9005 109.197 25.1755 110.063 25.1755C110.713 25.1755 111.255 25.0338 111.688 24.7505C112.138 24.4505 112.472 24.0672 112.688 23.6005H115.938C115.705 24.3838 115.313 25.1005 114.763 25.7505C114.23 26.3838 113.563 26.8838 112.763 27.2505C111.98 27.6172 111.088 27.8005 110.088 27.8005ZM110.113 17.4005C109.33 17.4005 108.638 17.6255 108.038 18.0755C107.438 18.5088 107.055 19.1755 106.888 20.0755H113.063C113.013 19.2588 112.713 18.6088 112.163 18.1255C111.613 17.6422 110.93 17.4005 110.113 17.4005Z" fill="#212527"/>
<path d="M122.63 27.8005C121.53 27.8005 120.563 27.6255 119.73 27.2755C118.897 26.9088 118.23 26.4088 117.73 25.7755C117.23 25.1422 116.93 24.4088 116.83 23.5755H120.055C120.155 24.0588 120.422 24.4755 120.855 24.8255C121.305 25.1588 121.88 25.3255 122.58 25.3255C123.28 25.3255 123.788 25.1838 124.105 24.9005C124.438 24.6172 124.605 24.2922 124.605 23.9255C124.605 23.3922 124.372 23.0338 123.905 22.8505C123.438 22.6505 122.788 22.4588 121.955 22.2755C121.422 22.1588 120.88 22.0172 120.33 21.8505C119.78 21.6838 119.272 21.4755 118.805 21.2255C118.355 20.9588 117.988 20.6255 117.705 20.2255C117.422 19.8088 117.28 19.3005 117.28 18.7005C117.28 17.6005 117.713 16.6755 118.58 15.9255C119.463 15.1755 120.697 14.8005 122.28 14.8005C123.747 14.8005 124.913 15.1422 125.78 15.8255C126.663 16.5088 127.188 17.4505 127.355 18.6505H124.33C124.147 17.7338 123.455 17.2755 122.255 17.2755C121.655 17.2755 121.188 17.3922 120.855 17.6255C120.538 17.8588 120.38 18.1505 120.38 18.5005C120.38 18.8672 120.622 19.1588 121.105 19.3755C121.588 19.5922 122.23 19.7922 123.03 19.9755C123.897 20.1755 124.688 20.4005 125.405 20.6505C126.138 20.8838 126.722 21.2422 127.155 21.7255C127.588 22.1922 127.805 22.8672 127.805 23.7505C127.822 24.5172 127.622 25.2088 127.205 25.8255C126.788 26.4422 126.188 26.9255 125.405 27.2755C124.622 27.6255 123.697 27.8005 122.63 27.8005Z" fill="#212527"/>
<path d="M134.274 27.5005C132.974 27.5005 131.932 27.1838 131.149 26.5505C130.366 25.9172 129.974 24.7922 129.974 23.1755V17.7755H127.849V15.1005H129.974L130.349 11.7755H133.174V15.1005H136.524V17.7755H134.007C133.547 17.7755 133.174 18.1486 133.174 18.6088V23.2005C133.174 23.8005 133.299 24.2172 133.549 24.4505C133.816 24.6672 134.266 24.7755 134.899 24.7755H136.449V27.5005H134.274Z" fill="#212527"/>
<path d="M139.496 13.1755C138.913 13.1755 138.43 13.0005 138.046 12.6505C137.68 12.3005 137.496 11.8588 137.496 11.3255C137.496 10.7922 137.68 10.3588 138.046 10.0255C138.43 9.67549 138.913 9.50049 139.496 9.50049C140.08 9.50049 140.555 9.67549 140.921 10.0255C141.305 10.3588 141.496 10.7922 141.496 11.3255C141.496 11.8588 141.305 12.3005 140.921 12.6505C140.555 13.0005 140.08 13.1755 139.496 13.1755ZM137.896 27.5005V15.1005H141.096V27.5005H137.896Z" fill="#212527"/>
<path d="M142.937 27.5005V15.1005H145.762L146.012 17.2005C146.395 16.4672 146.945 15.8838 147.662 15.4505C148.395 15.0172 149.253 14.8005 150.237 14.8005C151.77 14.8005 152.962 15.2838 153.812 16.2505C154.661 17.2172 155.087 18.6338 155.087 20.5005V27.5005H151.887V20.8005C151.887 19.7338 151.67 18.9172 151.237 18.3505C150.803 17.7838 150.128 17.5005 149.212 17.5005C148.312 17.5005 147.57 17.8172 146.987 18.4505C146.42 19.0838 146.137 19.9672 146.137 21.1005V27.5005H142.937Z" fill="#212527"/>
<path d="M162.671 27.8005C161.421 27.8005 160.313 27.5338 159.346 27.0005C158.38 26.4672 157.621 25.7172 157.071 24.7505C156.521 23.7838 156.246 22.6672 156.246 21.4005C156.246 20.1172 156.513 18.9755 157.046 17.9755C157.596 16.9755 158.346 16.2005 159.296 15.6505C160.263 15.0838 161.396 14.8005 162.696 14.8005C163.913 14.8005 164.988 15.0672 165.921 15.6005C166.855 16.1338 167.58 16.8672 168.096 17.8005C168.63 18.7172 168.896 19.7422 168.896 20.8755C168.896 21.0588 168.888 21.2505 168.871 21.4505C168.871 21.6505 168.863 21.8588 168.846 22.0755H159.421C159.488 23.0422 159.821 23.8005 160.421 24.3505C161.038 24.9005 161.78 25.1755 162.646 25.1755C163.296 25.1755 163.838 25.0338 164.271 24.7505C164.721 24.4505 165.055 24.0672 165.271 23.6005H168.521C168.288 24.3838 167.896 25.1005 167.346 25.7505C166.813 26.3838 166.146 26.8838 165.346 27.2505C164.563 27.6172 163.671 27.8005 162.671 27.8005ZM162.696 17.4005C161.913 17.4005 161.221 17.6255 160.621 18.0755C160.021 18.5088 159.638 19.1755 159.471 20.0755H165.646C165.596 19.2588 165.296 18.6088 164.746 18.1255C164.196 17.6422 163.513 17.4005 162.696 17.4005Z" fill="#212527"/>
</g>
</svg>
