<svg width="130" height="40" viewBox="0 0 130 40" fill="none" xmlns="http://www.w3.org/2000/svg">
<g opacity="0.84">
<path fill-rule="evenodd" clip-rule="evenodd" d="M17.5007 36.6668C26.7054 36.6668 34.1673 29.2049 34.1673 20.0001C34.1673 10.7954 26.7054 3.3335 17.5007 3.3335C8.29589 3.3335 0.833984 10.7954 0.833984 20.0001C0.833984 29.2049 8.29589 36.6668 17.5007 36.6668ZM22.7001 11.0975C22.9532 10.1985 22.0807 9.66694 21.284 10.2346L10.1616 18.1581C9.29749 18.7737 9.43341 20.0001 10.3657 20.0001H13.2946V19.9775H19.0027L14.3517 21.6186L12.3012 28.9028C12.0482 29.8018 12.9205 30.3334 13.7173 29.7657L24.8397 21.8422C25.7038 21.2266 25.5678 20.0001 24.6356 20.0001H20.1941L22.7001 11.0975Z" fill="#212527"/>
</g>
<g opacity="0.84">
<path d="M108.33 14.0598C108.704 14.4021 109.155 14.5732 109.684 14.5732C110.228 14.5732 110.679 14.4021 111.037 14.0598C111.395 13.7176 111.574 13.2665 111.574 12.7065C111.574 12.1465 111.395 11.6954 111.037 11.3532C110.679 11.011 110.228 10.8398 109.684 10.8398C109.155 10.8398 108.704 11.011 108.33 11.3532C107.973 11.6954 107.794 12.1465 107.794 12.7065C107.794 13.2665 107.973 13.7176 108.33 14.0598Z" fill="#212527"/>
<path fill-rule="evenodd" clip-rule="evenodd" d="M52.4867 26.9865C51.7556 27.3287 50.9 27.4998 49.92 27.4998H42.5V11.1665H49.8267C50.8222 11.1665 51.6856 11.3376 52.4167 11.6798C53.1633 12.0065 53.7389 12.481 54.1433 13.1032C54.5633 13.7098 54.7733 14.441 54.7733 15.2965V15.5298C54.7733 16.2765 54.6333 16.891 54.3533 17.3732C54.0733 17.8398 53.7389 18.2054 53.35 18.4698C52.9767 18.7187 52.6189 18.8976 52.2767 19.0065V19.4265C52.6189 19.5198 52.9922 19.6987 53.3967 19.9632C53.8011 20.2121 54.1433 20.5776 54.4233 21.0598C54.7189 21.5421 54.8667 22.1721 54.8667 22.9498V23.1832C54.8667 24.0854 54.6567 24.8632 54.2367 25.5165C53.8167 26.1543 53.2333 26.6443 52.4867 26.9865ZM51.18 21.1765C50.7756 20.8498 50.2311 20.6865 49.5467 20.6865H45.58V24.6998H49.5467C50.2156 24.6998 50.7522 24.5365 51.1567 24.2098C51.5767 23.8832 51.7867 23.4165 51.7867 22.8098V22.5765C51.7867 21.9698 51.5844 21.5032 51.18 21.1765ZM51.0867 14.4565C50.6822 14.1298 50.1533 13.9665 49.5 13.9665H45.58V17.8865H49.5C50.1378 17.8865 50.6589 17.7232 51.0633 17.3965C51.4833 17.0698 51.6933 16.6187 51.6933 16.0432V15.8098C51.6933 15.2187 51.4911 14.7676 51.0867 14.4565Z" fill="#212527"/>
<path fill-rule="evenodd" clip-rule="evenodd" d="M61.8129 27.8265C60.6618 27.8265 59.6273 27.5932 58.7096 27.1265C57.7918 26.6598 57.0684 25.9832 56.5396 25.0965C56.0107 24.2098 55.7462 23.1443 55.7462 21.8998V21.5265C55.7462 20.2821 56.0107 19.2165 56.5396 18.3298C57.0684 17.4432 57.7918 16.7665 58.7096 16.2998C59.6273 15.8332 60.6618 15.5998 61.8129 15.5998C62.964 15.5998 63.9984 15.8332 64.9162 16.2998C65.834 16.7665 66.5573 17.4432 67.0862 18.3298C67.6151 19.2165 67.8796 20.2821 67.8796 21.5265V21.8998C67.8796 23.1443 67.6151 24.2098 67.0862 25.0965C66.5573 25.9832 65.834 26.6598 64.9162 27.1265C63.9984 27.5932 62.964 27.8265 61.8129 27.8265ZM61.8129 25.2132C62.7151 25.2132 63.4618 24.9254 64.0529 24.3498C64.644 23.7587 64.9396 22.9187 64.9396 21.8298V21.5965C64.9396 20.5076 64.644 19.6754 64.0529 19.0998C63.4773 18.5087 62.7307 18.2132 61.8129 18.2132C60.9107 18.2132 60.164 18.5087 59.5729 19.0998C58.9818 19.6754 58.6862 20.5076 58.6862 21.5965V21.8298C58.6862 22.9187 58.9818 23.7587 59.5729 24.3498C60.164 24.9254 60.9107 25.2132 61.8129 25.2132Z" fill="#212527"/>
<path d="M78.8912 27.4998C78.129 27.4998 77.5068 27.2665 77.0246 26.7998C76.5579 26.3176 76.3246 25.6798 76.3246 24.8865V18.3532H73.4312V15.9265H76.3246V12.3332H79.2646V15.9265H82.4379V18.3532H79.2646V24.3732C79.2646 24.8398 79.4824 25.0732 79.9179 25.0732H82.1579V27.4998H78.8912Z" fill="#212527"/>
<path d="M85.0292 26.8465C85.9936 27.4998 87.2303 27.8265 88.7392 27.8265C90.217 27.8265 91.3914 27.4998 92.2625 26.8465C93.1492 26.1776 93.5925 25.2365 93.5925 24.0232C93.5925 23.2143 93.3825 22.5765 92.9625 22.1098C92.5581 21.6276 91.9981 21.2621 91.2825 21.0132C90.5825 20.7487 89.797 20.5387 88.9259 20.3832L88.2725 20.2665C87.7436 20.1732 87.3236 20.041 87.0125 19.8698C86.7014 19.6832 86.5459 19.4032 86.5459 19.0298C86.5459 18.6876 86.6936 18.4232 86.9892 18.2365C87.2847 18.0343 87.7125 17.9332 88.2725 17.9332C88.8325 17.9332 89.2992 18.0576 89.6725 18.3065C90.0614 18.5554 90.3181 18.9754 90.4425 19.5665L93.1725 18.7265C92.9081 17.7932 92.3481 17.0387 91.4925 16.4632C90.637 15.8876 89.5636 15.5998 88.2725 15.5998C86.9036 15.5998 85.7992 15.911 84.9592 16.5332C84.1192 17.1398 83.6992 18.0187 83.6992 19.1698C83.6992 19.9321 83.9014 20.5543 84.3059 21.0365C84.7103 21.5187 85.247 21.8998 85.9159 22.1798C86.5847 22.4443 87.3236 22.6543 88.1325 22.8098L88.7859 22.9265C89.4703 23.051 89.9681 23.2143 90.2792 23.4165C90.5903 23.6032 90.7459 23.8754 90.7459 24.2332C90.7459 24.591 90.5825 24.8943 90.2559 25.1432C89.9292 25.3765 89.4236 25.4932 88.7392 25.4932C88.2881 25.4932 87.8681 25.431 87.4792 25.3065C87.1059 25.1665 86.787 24.941 86.5225 24.6298C86.2736 24.3187 86.0947 23.891 85.9859 23.3465L83.2792 24.0465C83.4814 25.2598 84.0647 26.1932 85.0292 26.8465Z" fill="#212527"/>
<path d="M98.6888 19.1232C98.1911 19.7143 97.9422 20.5465 97.9422 21.6198V27.4998H95.0022V11.1665H97.9422V17.3498H98.3622C98.4866 17.101 98.6811 16.8521 98.9455 16.6032C99.21 16.3543 99.56 16.1521 99.9955 15.9965C100.447 15.8254 101.014 15.7398 101.699 15.7398C102.601 15.7398 103.387 15.9498 104.056 16.3698C104.74 16.7743 105.269 17.3421 105.642 18.0732C106.016 18.7887 106.202 19.6287 106.202 20.5932V27.4998H103.262V20.8265C103.262 19.9554 103.044 19.3021 102.609 18.8665C102.189 18.431 101.582 18.2132 100.789 18.2132C99.8866 18.2132 99.1866 18.5165 98.6888 19.1232Z" fill="#212527"/>
<path d="M124.58 26.7998C124.113 26.3176 123.88 25.6798 123.88 24.8865V18.3532H118.098V27.4998H115.158V18.3532H112.218V15.9265H115.158V13.7798C115.158 12.9865 115.392 12.3565 115.858 11.8898C116.341 11.4076 116.963 11.1665 117.725 11.1665H120.758V13.5932H118.752C118.316 13.5932 118.098 13.8265 118.098 14.2932V15.9265H123.88V12.3332H126.82V15.9265H129.993V18.3532H126.82V24.3732C126.82 24.8398 127.038 25.0732 127.473 25.0732H129.713V27.4998H126.447C125.684 27.4998 125.062 27.2665 124.58 26.7998Z" fill="#212527"/>
<path d="M108.214 15.9265V27.4998H111.154V15.9265H108.214Z" fill="#212527"/>
<path d="M69.4267 11.1665V27.4998H72.3667V11.1665H69.4267Z" fill="#212527"/>
</g>
</svg>
