<svg width="119" height="40" viewBox="0 0 119 40" fill="none" xmlns="http://www.w3.org/2000/svg">
<g opacity="0.84">
<path d="M24.5368 32.6407C24.0342 33.7577 23.4094 34.8516 22.6603 35.798C28.8753 33.7032 33.4505 28.0435 33.9542 21.2507H31.7418C29.0419 21.2507 26.8731 23.4057 26.4342 26.0697C26.0297 28.5254 25.3825 30.7615 24.5368 32.6407Z" fill="#212527"/>
<path d="M19.6433 21.2507C22.4701 21.2507 24.7825 23.6089 24.2633 26.3876C23.1355 32.4229 20.4577 36.6673 17.3337 36.6673C13.3808 36.6673 10.1421 29.8716 9.85447 21.2507H19.6433Z" fill="#212527"/>
<path d="M26.4917 14.2924C26.9051 16.9814 29.0839 19.1673 31.8044 19.1673H33.9799C33.6363 12.1899 29.002 6.34079 22.6603 4.20329C23.4094 5.14975 24.0342 6.24365 24.5368 7.36061C25.4237 9.33148 26.0923 11.6949 26.4917 14.2924Z" fill="#212527"/>
<path d="M24.3468 14.0804C24.8196 16.8451 22.5172 19.1673 19.7125 19.1673H9.84291C10.0383 10.3497 13.3173 3.33398 17.3337 3.33398C20.5376 3.33398 23.2723 7.79833 24.3468 14.0804Z" fill="#212527"/>
<path d="M7.7591 19.1673C7.85376 14.6604 8.71357 10.5095 10.1306 7.36061C10.6332 6.24365 11.258 5.14975 12.0071 4.20329C5.66542 6.34079 1.03108 12.1899 0.6875 19.1673H7.7591Z" fill="#212527"/>
<path d="M0.713198 21.2507C1.21686 28.0435 5.79207 33.7032 12.0071 35.798C11.258 34.8516 10.6332 33.7577 10.1306 32.6407C8.75734 29.5891 7.90742 25.5964 7.77006 21.2507H0.713198Z" fill="#212527"/>
</g>
<g opacity="0.84">
<path d="M42.332 27.4997V11.0972H54.8195V14.2247H46.022V17.7122H53.672V20.6372H46.022V24.3722H54.8195V27.4997H42.332Z" fill="#212527"/>
<path d="M60.9942 27.7247C59.6592 27.7247 58.6617 27.2897 58.0017 26.4197C57.3417 25.5347 57.0117 24.3722 57.0117 22.9322V15.4172H60.4542V22.4372C60.4542 23.3972 60.6417 24.0572 61.0167 24.4172C61.4067 24.7622 61.9242 24.9347 62.5692 24.9347C63.3342 24.9347 63.9117 24.6797 64.3017 24.1697C64.6917 23.6597 64.8867 22.9922 64.8867 22.1672V15.4172H68.3292V27.4997H65.1117L64.8642 25.5197H64.6842C64.4142 26.1797 63.9492 26.7122 63.2892 27.1172C62.6442 27.5222 61.8792 27.7247 60.9942 27.7247Z" fill="#212527"/>
<path d="M70.9125 27.4997V15.4172H74.13L74.3775 17.4197H74.58C74.85 16.6697 75.21 16.1222 75.66 15.7772C76.11 15.4172 76.755 15.2372 77.595 15.2372H78.675V18.7472H77.1225C76.1325 18.7472 75.4275 19.0022 75.0075 19.5122C74.5875 20.0072 74.3775 20.6747 74.3775 21.5147V27.4997H70.9125Z" fill="#212527"/>
<path d="M85.3023 27.7247C83.3373 27.7247 81.8748 27.1622 80.9148 26.0372C79.9548 24.9122 79.4748 23.4122 79.4748 21.5372V21.4697C79.4748 19.3397 80.0073 17.7647 81.0723 16.7447C82.1373 15.7097 83.5473 15.1922 85.3023 15.1922C87.0723 15.1922 88.4898 15.7097 89.5548 16.7447C90.6348 17.7647 91.1748 19.3397 91.1748 21.4697V21.5372C91.1598 23.4122 90.6723 24.9122 89.7123 26.0372C88.7523 27.1622 87.2823 27.7247 85.3023 27.7247ZM85.3023 24.9347C86.0673 24.9347 86.6448 24.7247 87.0348 24.3047C87.4398 23.8847 87.6423 23.3072 87.6423 22.5722V20.4122C87.6423 19.6622 87.4323 19.0772 87.0123 18.6572C86.6073 18.2222 86.0373 18.0047 85.3023 18.0047C84.5823 18.0047 84.0123 18.2222 83.5923 18.6572C83.1873 19.0772 82.9848 19.6622 82.9848 20.4122V22.5722C82.9848 23.3072 83.1798 23.8847 83.5698 24.3047C83.9748 24.7247 84.5523 24.9347 85.3023 24.9347Z" fill="#212527"/>
<path d="M93.0618 31.2572V15.4172H96.3468L96.5268 17.1947H96.6843C96.9843 16.5647 97.4493 16.0772 98.0793 15.7322C98.7243 15.3722 99.4443 15.1922 100.239 15.1922C101.859 15.1922 103.037 15.7397 103.772 16.8347C104.507 17.9297 104.874 19.3922 104.874 21.2222V21.7397C104.874 23.8247 104.454 25.3472 103.614 26.3072C102.789 27.2522 101.664 27.7247 100.239 27.7247C99.4593 27.7247 98.7468 27.5522 98.1018 27.2072C97.4568 26.8472 96.9843 26.3522 96.6843 25.7222H96.5268V31.2572H93.0618ZM98.8443 24.9122C99.5943 24.9122 100.172 24.7022 100.577 24.2822C100.982 23.8622 101.184 23.2697 101.184 22.5047V20.4347C101.184 19.6697 100.982 19.0772 100.577 18.6572C100.172 18.2222 99.5943 18.0047 98.8443 18.0047C98.1393 18.0047 97.5768 18.2222 97.1568 18.6572C96.7518 19.0922 96.5493 19.6997 96.5493 20.4797V22.4597C96.5493 23.2397 96.7518 23.8472 97.1568 24.2822C97.5768 24.7022 98.1393 24.9122 98.8443 24.9122Z" fill="#212527"/>
<path d="M109.71 27.7247C108.6 27.7247 107.7 27.4322 107.01 26.8472C106.32 26.2472 105.975 25.4522 105.975 24.4622V24.4172C105.975 23.2622 106.342 22.3697 107.077 21.7397C107.812 21.1097 108.802 20.7197 110.047 20.5697L113.422 20.1197V19.6472C113.422 18.5072 112.732 17.9372 111.352 17.9372C110.692 17.9372 110.167 18.0647 109.777 18.3197C109.402 18.5747 109.215 18.9422 109.215 19.4222H106.087C106.087 18.0872 106.575 17.0522 107.55 16.3172C108.525 15.5672 109.897 15.1922 111.667 15.1922C113.287 15.1922 114.555 15.5372 115.47 16.2272C116.4 16.9172 116.865 18.0122 116.865 19.5122V25.0697H118.44V27.4997H114.3L114.03 25.6322H113.782C113.482 26.2922 112.98 26.8097 112.275 27.1847C111.585 27.5447 110.73 27.7247 109.71 27.7247ZM111.195 25.2497C111.795 25.2497 112.297 25.1072 112.702 24.8222C113.122 24.5222 113.362 24.1397 113.422 23.6747V22.0547L111.15 22.3922C110.64 22.4522 110.227 22.5872 109.912 22.7972C109.597 22.9922 109.44 23.2922 109.44 23.6972V23.9897C109.44 24.3647 109.59 24.6722 109.89 24.9122C110.205 25.1372 110.64 25.2497 111.195 25.2497Z" fill="#212527"/>
</g>
</svg>
