<svg width="152" height="40" viewBox="0 0 152 40" fill="none" xmlns="http://www.w3.org/2000/svg">
<g opacity="0.84">
<path fill-rule="evenodd" clip-rule="evenodd" d="M17.0007 3.3335C26.2054 3.3335 33.6673 10.7954 33.6673 20.0002C33.6673 29.2049 26.2054 36.6668 17.0007 36.6668C7.7959 36.6668 0.333984 29.2049 0.333984 20.0002C0.333984 10.7954 7.7959 3.3335 17.0007 3.3335ZM29.5007 20.0002C29.5007 26.9037 23.9042 32.5002 17.0007 32.5002V7.50016C23.9042 7.50016 29.5007 13.0966 29.5007 20.0002Z" fill="#212527"/>
</g>
<g opacity="0.84">
<path d="M49.8525 10.7603C54.4425 10.7603 56.625 13.0553 57.0525 16.3853H53.745C53.3625 14.6978 52.035 13.6853 49.875 13.6853C47.0625 13.6853 45.3975 15.4853 45.3975 19.1978C45.3975 23.4728 47.3775 24.8903 49.9425 24.8903C52.08 24.8903 53.3625 23.9003 53.7675 22.1903H57.0525C56.58 25.8578 54.0375 27.8153 49.8525 27.8153C44.835 27.8153 42 24.9803 42 19.3553C42 14.3828 44.4525 10.7603 49.8525 10.7603Z" fill="#212527"/>
<path d="M61.3521 21.5378C61.3521 24.2603 62.3871 25.2053 64.1421 25.2053C65.8746 25.2053 66.8871 24.2603 66.8871 21.5378C66.8871 18.8603 65.8746 17.8928 64.1421 17.8928C62.3871 17.8928 61.3521 18.8603 61.3521 21.5378ZM57.9996 21.5378C57.9996 17.4878 60.1371 15.3053 64.1421 15.3053C68.1471 15.3053 70.2621 17.4878 70.2621 21.5378C70.2621 25.6103 68.1246 27.8153 64.1421 27.8153C60.1371 27.8153 57.9996 25.6103 57.9996 21.5378Z" fill="#212527"/>
<path d="M78.5694 15.3053C81.0669 15.3053 82.5069 16.2953 82.7994 18.4778C82.8669 19.0853 82.8894 19.6478 82.8894 20.6153V27.5003H79.6719V20.5703C79.6719 18.9953 79.2444 17.9828 77.4669 17.9828C76.0044 17.9378 74.9694 18.9503 74.9694 21.2003V27.5003H71.7519V15.6203H74.6994L74.8344 17.5553C75.2169 15.8003 76.6119 15.3053 78.5694 15.3053Z" fill="#212527"/>
<path d="M88.9508 23.3828C88.9508 25.1378 89.3333 25.2953 91.4708 25.1828V27.6128C90.7283 27.7028 90.0983 27.7703 89.0408 27.7703C86.6558 27.7703 85.8908 26.8028 85.7558 25.2728C85.7108 24.6203 85.7108 24.1478 85.7108 23.4728V18.1853H84.0008V15.6428H85.7108V12.1778H88.9508V15.6428H91.6058V18.1853H88.9508V23.3828Z" fill="#212527"/>
<path d="M99.2265 15.3053C99.654 15.3053 99.924 15.3053 100.194 15.3728V17.9828C97.3365 17.6903 96.0315 18.9953 96.0315 22.3478V27.5003H92.814V15.6203H95.7615L95.8965 17.8928C96.1215 16.0478 97.4265 15.3053 99.2265 15.3053Z" fill="#212527"/>
<path d="M105.88 15.3053C109.39 15.3053 110.695 16.8128 110.852 18.9053C110.897 19.5128 110.92 20.0753 110.92 20.7503V27.5003H108.017L107.837 25.9253C107.297 27.5228 105.88 27.8153 104.125 27.8153C101.942 27.8153 100.232 26.5778 100.232 24.2603C100.232 21.2903 102.505 20.2103 107.095 20.2103H107.747V19.7828C107.747 18.6128 107.365 17.8703 105.745 17.8703C104.327 17.8703 103.697 18.3653 103.562 19.4678H100.615C100.705 16.9028 102.28 15.3053 105.88 15.3053ZM103.36 23.8778C103.36 24.7553 104.057 25.2503 105.16 25.2503C106.42 25.2503 107.747 24.5303 107.747 23.3603V22.4153C104.912 22.2803 103.36 22.5728 103.36 23.8778Z" fill="#212527"/>
<path d="M117.343 15.3053C120.718 15.3053 122.158 16.6103 122.316 19.1078H119.211C119.053 18.0053 118.311 17.7353 117.276 17.7353C116.331 17.7353 115.611 18.0953 115.611 18.7703C115.611 19.4903 116.196 19.8953 118.041 20.1878C121.168 20.6603 122.676 21.7403 122.676 24.0803C122.676 26.6003 120.381 27.8153 117.523 27.8153C114.148 27.8153 112.416 26.6228 112.101 23.9228H115.251C115.453 25.0028 116.128 25.3628 117.613 25.3628C118.783 25.3628 119.481 24.9803 119.481 24.3503C119.481 23.5628 118.671 23.1128 116.916 22.8428C113.766 22.3253 112.416 21.3803 112.416 18.9728C112.416 16.7903 114.351 15.3053 117.343 15.3053Z" fill="#212527"/>
<path d="M128.109 23.3828C128.109 25.1378 128.491 25.2953 130.629 25.1828V27.6128C129.886 27.7028 129.256 27.7703 128.199 27.7703C125.814 27.7703 125.049 26.8028 124.914 25.2728C124.869 24.6203 124.869 24.1478 124.869 23.4728V18.1853H123.159V15.6428H124.869V12.1778H128.109V15.6428H130.764V18.1853H128.109V23.3828Z" fill="#212527"/>
<path d="M141.059 11.0753L146.864 27.5003H143.376L142.004 23.5403H135.951L134.556 27.5003H131.114L137.031 11.0753H141.059ZM136.739 20.7503H141.261L139.034 14.1578L136.739 20.7503Z" fill="#212527"/>
<path d="M151.462 11.0753V27.5003H148.177V11.0753H151.462Z" fill="#212527"/>
</g>
</svg>
