<svg width="132" height="40" viewBox="0 0 132 40" fill="none" xmlns="http://www.w3.org/2000/svg">
<g opacity="0.84">
<path d="M26.6673 21.6665C26.6673 26.2689 22.9364 29.9998 18.334 29.9998C13.7316 29.9998 10.0007 26.2689 10.0007 21.6665H3.33398C3.33398 29.9508 10.0497 36.6665 18.334 36.6665C26.6183 36.6665 33.334 29.9508 33.334 21.6665C33.334 13.3822 26.6183 6.6665 18.334 6.6665V13.3332C22.9364 13.3332 26.6673 17.0641 26.6673 21.6665Z" fill="#212527"/>
<path opacity="0.5" d="M8.33333 3.3335C8.33333 7.93587 4.60237 11.6668 0 11.6668V18.3335C8.28427 18.3335 15 11.6178 15 3.3335H8.33333Z" fill="#212527"/>
</g>
<g opacity="0.84">
<path d="M41.666 11.5249H53.141V14.7424H45.6035V17.8924H52.871V21.0874H45.6035V24.2824H53.321V27.4999H41.666V11.5249Z" fill="#212527"/>
<path d="M54.3769 19.3324C54.8269 16.6999 56.8069 15.3049 60.1369 15.3049C63.9619 15.3049 65.8519 17.0599 65.8519 20.5474V23.9449C65.8519 24.8224 66.2119 24.9574 66.6169 24.9574H67.0219V27.4999L66.4819 27.5449C65.8519 27.5674 63.1069 27.9949 62.7019 25.6999C62.0719 26.9824 60.7219 27.7699 58.4494 27.7699C56.0194 27.7699 54.1744 26.4649 54.1744 24.3499C54.1744 22.2124 55.7719 21.3124 58.7194 20.7274L61.9144 20.0749C61.9144 18.4324 61.3519 17.6674 60.1144 17.6674C59.0794 17.6674 58.4494 18.2749 58.2469 19.4899L54.3769 19.3324ZM58.1569 24.1924C58.1569 24.8899 58.7194 25.3849 59.7769 25.3849C61.0819 25.3849 61.9819 24.3949 61.9819 22.4374V22.3249L60.2944 22.6399C59.0119 22.8649 58.1569 23.1349 58.1569 24.1924Z" fill="#212527"/>
<path d="M75.1214 19.5124C74.9414 18.4549 74.1089 17.8249 73.2089 17.8249C72.2639 17.8249 71.5889 18.3199 71.6339 19.1074C71.6789 19.8724 72.5339 20.2324 73.5914 20.4124C77.3939 20.9749 79.0139 21.9424 79.0139 24.1699C79.0139 26.5549 76.8089 27.7699 73.5239 27.7699C69.8114 27.7699 67.5614 26.2624 67.3589 23.6974L71.2514 23.5399C71.4539 24.5974 72.1964 25.1824 73.3889 25.1824C74.1989 25.1824 75.0764 24.8674 75.0314 24.1249C75.0089 23.2474 74.0639 23.0224 72.9614 22.8199C69.2939 22.1449 67.6514 21.2449 67.6514 19.1074C67.6514 16.6999 69.6764 15.2824 73.3214 15.2824C76.5164 15.2824 78.5864 16.7899 78.9689 19.3774L75.1214 19.5124Z" fill="#212527"/>
<path d="M78.7557 15.5749H82.3557L85.1457 23.4724L87.8007 15.5749H91.4007L86.7657 28.5124C86.1807 30.1549 85.0782 30.8749 83.2332 30.8749H80.8932V28.1299H82.4457C83.2107 28.1299 83.5932 27.9274 83.8182 27.3649L84.0657 26.7574H83.0307L78.7557 15.5749Z" fill="#212527"/>
<path d="M104.738 11.5249V14.7424H100.013V27.4999H96.0976V14.7424H91.3726V11.5249H104.738Z" fill="#212527"/>
<path d="M104.83 19.3324C105.28 16.6999 107.26 15.3049 110.59 15.3049C114.415 15.3049 116.305 17.0599 116.305 20.5474V23.9449C116.305 24.8224 116.665 24.9574 117.07 24.9574H117.475V27.4999L116.935 27.5449C116.305 27.5674 113.56 27.9949 113.155 25.6999C112.525 26.9824 111.175 27.7699 108.902 27.7699C106.472 27.7699 104.627 26.4649 104.627 24.3499C104.627 22.2124 106.225 21.3124 109.172 20.7274L112.367 20.0749C112.367 18.4324 111.805 17.6674 110.567 17.6674C109.532 17.6674 108.902 18.2749 108.7 19.4899L104.83 19.3324ZM108.61 24.1924C108.61 24.8899 109.172 25.3849 110.23 25.3849C111.535 25.3849 112.435 24.3949 112.435 22.4374V22.3249L110.747 22.6399C109.465 22.8649 108.61 23.1349 108.61 24.1924Z" fill="#212527"/>
<path d="M126.965 15.5524H131.15L126.943 21.4474L131.263 27.4999H127.078L124.738 23.8549L122.375 27.4999H118.19L122.51 21.4474L118.303 15.5524H122.465L124.738 19.0174L126.965 15.5524Z" fill="#212527"/>
</g>
</svg>
