<?xml version="1.0" encoding="UTF-8"?>
<svg version="1.1" xmlns="http://www.w3.org/2000/svg" width="1920" height="119">
<path d="M0 0 C2.97834442 0.00461533 5.95627875 -0.00225717 8.93457031 -0.02050781 C25.39453699 -0.1202151 41.709633 0.21462099 58.11108398 1.69067383 C58.79443377 1.75197165 59.47778355 1.81326946 60.1818409 1.87642479 C96.62039583 5.22265446 132.06419256 13.21932353 166.94311523 24.12426758 C252.03313072 50.64010162 339.95048634 67.57239597 428.92358398 73.31567383 C429.72656921 73.36788086 430.52955444 73.42008789 431.35687256 73.47387695 C524.18271899 79.42280992 612.84423089 70.65323105 893.68983841 7.20843792 C896.50147212 6.48814586 899.31349436 5.76937706 902.12552643 5.05064201 C904.07160715 4.55234445 906.01698223 4.05129363 907.96234131 3.55018616 C909.11873108 3.25446213 910.27512085 2.9587381 911.46655273 2.65405273 C912.47741943 2.39427643 913.48828613 2.13450012 914.52978516 1.86685181 C916.92358398 1.31567383 916.92358398 1.31567383 918.92358398 1.31567383 C918.92358398 40.25567383 918.92358398 79.19567383 918.92358398 119.31567383 C285.32358398 119.31567383 -348.27641602 119.31567383 -1001.07641602 119.31567383 C-1001.07641602 80.37567383 -1001.07641602 41.43567383 -1001.07641602 1.31567383 C-994.12082587 3.21265296 -987.31274102 5.14810612 -980.49829102 7.44067383 C-978.63038677 8.06157221 -976.76229439 8.68190485 -974.89404297 9.30175781 C-973.91069977 9.62860565 -972.92735657 9.95545349 -971.91421509 10.29220581 C-881.42355189 40.28583477 -788.88556862 66.35148114 -553.07641602 101.31567383 C-552.31605042 101.35770935 -551.55568481 101.39974487 -550.77227783 101.4430542 C-535.83203735 102.24956693 -520.91254851 102.55743424 -505.95141602 102.56567383 C-504.27580597 102.56668594 -504.27580597 102.56668594 -502.56634521 102.56771851 C-485.53752224 102.55145077 -468.92552817 101.98006261 -452.07641602 99.31567383 C-450.97023926 99.14938477 -449.8640625 98.9830957 -448.72436523 98.81176758 C-378.59541317 88.13674739 -309.98889697 66.87654175 -243.16447449 43.55828857 C-219.02408497 35.13915688 -194.92113684 27.38480117 -170.07641602 21.31567383 C-169.34714905 21.13689697 -168.61788208 20.95812012 -167.86651611 20.77392578 C-136.84810231 13.20322512 -105.35866437 7.64888252 -73.63891602 4.00317383 C-72.35815186 3.85589844 -71.0773877 3.70862305 -69.7578125 3.55688477 C-65.53366936 3.10114372 -61.30773501 2.69774789 -57.07641602 2.31567383 C-55.69218948 2.18647049 -55.69218948 2.18647049 -54.27999878 2.05465698 C-36.17076764 0.40202515 -18.16821503 -0.0304599 0 0 Z " fill="#FFFFFF" transform="translate(1001.076416015625,-0.315673828125)"/>
</svg>
