<svg width="52" height="52" viewBox="0 0 52 52" fill="none" xmlns="http://www.w3.org/2000/svg">
<g clip-path="url(#clip0_3_1076)">
<path d="M51.9571 26.9918C51.9243 26.9647 51.8766 26.9561 51.8394 26.9686C51.7941 26.9826 51.7525 26.9947 51.7133 27.0062L51.6941 27.0118C51.5974 27.0401 51.5139 27.0643 51.4311 27.0975C50.1235 27.6171 49.0941 28.5072 48.284 29.8185C48.0839 30.1425 47.9289 30.4793 47.8055 30.8152C48.0079 29.6854 48.0548 29.2453 48.0907 27.9811C48.0924 27.9281 48.0924 27.8741 48.0924 27.8205C48.0924 27.6743 48.0924 27.5361 48.1243 27.4101C48.1626 27.2607 48.2396 27.1118 48.3142 26.9676C48.3352 26.9268 48.3562 26.886 48.3735 26.8502C48.3795 26.8431 48.3989 26.8313 48.4065 26.8301C48.7804 26.773 49.1111 26.6143 49.4176 26.3448C49.7265 26.0721 49.9806 25.7381 50.1728 25.3521C50.8628 23.9684 51.2081 22.439 51.1994 20.8069C51.1986 20.6495 51.1801 20.4962 51.1597 20.3295C51.1505 20.2548 51.1411 20.1784 51.1333 20.0993C51.1288 20.0559 51.1021 20.0173 51.0634 19.9986C51.0252 19.9801 50.9791 19.9814 50.9405 20.0047C50.9172 20.0193 50.8972 20.0312 50.8791 20.0417C50.8441 20.0626 50.8173 20.0789 50.792 20.0971C50.2034 20.519 49.6843 21.0443 49.2488 21.6579C48.5382 22.6608 48.1249 23.7949 48.0136 25.0425C48.0026 24.9034 47.9913 24.7644 47.9801 24.6253L47.9762 24.5749C47.9326 24.0297 47.8875 23.4658 47.8507 22.9114C47.8415 22.771 47.8145 22.6344 47.7884 22.5022C47.7381 22.2482 47.6905 22.0082 47.7666 21.7568C47.784 21.7 47.7986 21.6428 47.8132 21.5857C47.8491 21.4443 48.0229 21.2265 48.2897 20.9884L48.2997 20.9794C48.3981 20.8959 48.9036 20.4335 49.1903 19.5188C49.4814 18.5895 49.4593 17.6185 49.4433 16.9094L49.4429 16.8905C49.4215 15.9159 49.3162 15.1814 49.1014 14.5087C49.0737 14.4227 49.0407 14.3379 49.0058 14.2487C48.9877 14.2023 48.9691 14.1543 48.9501 14.1042C48.9345 14.0617 48.8969 14.0308 48.853 14.0235L48.8315 14.0215C48.7934 14.0215 48.7579 14.0386 48.7338 14.0681L48.5251 14.3224C47.5246 15.5426 47.0331 16.9737 47.0639 18.5761C47.0692 18.8582 47.0903 19.1477 47.1277 19.4466C46.8734 18.569 46.5752 17.7148 46.2361 16.893C46.2291 16.875 46.2245 16.8527 46.224 16.8338L46.2216 16.7215C46.2181 16.5593 46.2145 16.3916 46.2214 16.2266C46.2224 16.1992 46.2401 16.1501 46.277 16.1017C46.3294 16.0325 46.3875 15.9649 46.4478 15.8945C46.5503 15.7751 46.6563 15.6518 46.7402 15.511C47.0106 15.0582 47.1375 14.5233 47.1396 13.8275C47.1432 13.0083 47.0169 12.1462 46.7417 11.1143C46.5913 10.5514 46.3642 9.82009 45.9414 9.15706C45.9127 9.11248 45.8807 9.07052 45.8465 9.02607C45.8311 9.00639 45.815 8.98541 45.7985 8.96286C45.7746 8.93066 45.7415 8.9119 45.688 8.9119C45.6454 8.91502 45.6073 8.93927 45.5861 8.97693C45.0554 9.93479 44.791 10.9581 44.7785 12.1053C44.7678 13.0619 44.9172 13.8849 45.1045 14.5355C44.6279 13.6647 44.0982 12.8233 43.524 12.0253L43.5109 12.0072C43.4978 11.9898 43.4923 11.9814 43.4933 11.9873C43.4572 11.7291 43.4321 11.5226 43.4148 11.3427C43.4152 11.34 43.4186 11.3248 43.4454 11.28C43.4834 11.2154 43.5249 11.152 43.5691 11.085C43.6577 10.9502 43.7492 10.8108 43.8079 10.6546C43.9849 10.1833 44.0246 9.64883 43.9291 9.02112C43.7194 7.63185 43.1069 6.38086 42.0572 5.19648C41.9491 5.07488 41.8298 4.96735 41.7035 4.85369L41.6685 4.82202C41.6191 4.77732 41.5684 4.73157 41.5172 4.68321C41.4846 4.65219 41.438 4.64059 41.3927 4.65389C41.35 4.66744 41.317 4.70289 41.3068 4.74695L41.2839 4.84757C41.2683 4.9143 41.2561 4.96696 41.2471 5.01987C41.1059 5.86316 41.1162 6.7664 41.2788 7.78147C41.4402 8.7882 41.7617 9.65652 42.255 10.4108C41.5153 9.53908 40.7957 8.8071 40.0436 8.15841C40.0402 8.15398 40.0353 8.14056 40.0349 8.13717C40.0937 7.6308 39.9688 7.15377 39.6529 6.67882C39.238 6.05463 38.6615 5.57889 37.9394 5.26504C37.5074 5.07761 37.0597 4.91169 36.6213 4.74916C36.4114 4.67122 36.2014 4.59354 35.9851 4.51025C35.7679 4.42384 35.6749 4.40846 35.6245 4.45512C35.5596 4.5156 35.5752 4.56721 35.6035 4.66105L35.6126 4.69168C35.8776 5.58424 36.2293 6.29015 36.6879 6.84969C37.5299 7.87792 38.5146 8.40032 39.6968 8.44646C39.7382 8.44893 39.7711 8.4604 39.7845 8.47083C39.9509 8.59543 40.0735 8.69514 40.1818 8.79394C40.5243 9.10701 40.8616 9.44055 41.1916 9.79181C40.7008 9.48682 40.1008 9.34918 39.4252 9.38333C39.0554 9.40197 38.6884 9.45619 38.3334 9.50858L38.3199 9.51067C38.215 9.52605 38.1106 9.5413 38.0064 9.55603C37.7783 9.58692 37.5484 9.62732 37.3454 9.66277C37.2631 9.6775 37.0667 9.72221 37.0215 9.81748C37.0058 9.85007 37.0071 9.88578 37.0249 9.91823C37.0405 9.94652 37.0577 9.97311 37.0765 9.99735C37.6626 10.7579 38.3312 11.2588 39.1206 11.5284C40.083 11.859 40.9669 11.8317 41.7612 11.4429C41.8827 11.3761 42.0292 11.3422 42.1965 11.3422C42.3228 11.3422 42.4176 11.3621 42.449 11.3693C42.496 11.3771 42.5599 11.4034 42.5729 11.4204C43.0669 12.0699 43.5357 12.7635 43.9736 13.4922C43.6037 13.1325 43.1213 12.8899 42.4641 12.732C41.8881 12.5947 41.2993 12.5653 40.73 12.5366L40.5393 12.5269C40.3607 12.5178 40.1822 12.5065 39.9982 12.4949L39.6899 12.4759C39.65 12.4759 39.6121 12.4951 39.5889 12.5272C39.5632 12.5617 39.5571 12.6066 39.5722 12.6469C39.5846 12.6805 39.6071 12.7398 39.6187 12.7596C40.2192 13.764 40.9243 14.4587 41.7741 14.8836C42.6049 15.2986 43.3555 15.4083 44.1126 15.2273C44.2002 15.2062 44.3017 15.195 44.4067 15.195C44.7287 15.195 44.9533 15.2932 45.0005 15.3842C45.417 16.2435 45.7888 17.1365 46.1094 18.0473C45.7731 17.5837 45.3029 17.2071 44.7075 16.9255C44.116 16.6463 43.5002 16.3911 42.8942 16.1399C42.6338 16.0323 42.3724 15.9242 42.1121 15.8137C42.0734 15.7967 42.0276 15.8003 41.9915 15.8241C41.9561 15.8477 41.9349 15.8871 41.9349 15.9294C41.9349 16.0107 42.7991 18.4091 44.0541 19.3542C44.5661 19.7397 45.1966 20.1363 45.9918 20.155C46.2298 20.1598 46.4759 20.1934 46.6618 20.4047C46.6902 20.4383 46.7279 20.4645 46.7689 20.4785C46.8324 20.4993 46.8498 20.5382 46.8811 20.6706C47.1387 21.7519 47.3262 22.8664 47.4417 23.9981C47.4068 23.8833 47.3663 23.7673 47.3197 23.6499C47.0388 22.9376 46.5661 22.3143 45.832 21.6883C45.4537 21.3642 45.0574 21.0505 44.6743 20.747L44.656 20.7326C44.4815 20.5943 44.3074 20.4566 44.1337 20.3171C44.0979 20.2883 44.063 20.2586 44.0224 20.2239L43.9141 20.1311C43.8762 20.0991 43.8198 20.0924 43.7754 20.1146C43.73 20.1376 43.7027 20.1853 43.7062 20.2363C43.7116 20.3128 43.7159 20.3851 43.7199 20.4546L43.722 20.4871C43.7306 20.6301 43.7387 20.765 43.7532 20.8982C43.889 22.1952 44.2746 23.278 44.9322 24.2085C45.3392 24.7837 45.9231 25.4867 46.8337 25.8192C47.0553 25.9005 47.216 26.0237 47.3881 26.2447C47.5505 26.4517 47.5808 26.6408 47.5771 26.8788C47.5616 27.8758 47.4906 28.8648 47.3653 29.8333C47.336 29.5638 47.274 29.2863 47.1787 28.998C46.9815 28.4011 46.6742 27.8207 46.239 27.2237C45.8633 26.7068 45.4724 26.1881 45.0945 25.6861L45.0693 25.6526C44.9194 25.4539 44.7697 25.2548 44.6238 25.0601C44.5964 25.0201 44.5569 25.0058 44.5341 24.9978C44.5018 24.982 44.4632 24.9805 44.429 24.9951C44.3953 25.0094 44.3695 25.0377 44.3582 25.0724L44.3537 25.0859C44.3475 25.1042 44.3425 25.1203 44.3399 25.1365C44.0793 26.6909 44.2392 28.0836 44.8287 29.3945C45.1166 30.0355 45.5028 30.7612 46.1837 31.2834C46.4945 31.5217 46.74 31.8562 46.8747 32.2249C46.9033 32.3043 46.9022 32.3387 46.899 32.352C46.6108 33.5456 46.2344 34.6969 45.7768 35.7865C45.8946 35.2123 45.8865 34.6091 45.752 33.9841C45.5611 33.0983 45.2329 32.2399 44.9401 31.5048L44.8524 31.2847C44.7152 30.9402 44.577 30.593 44.4343 30.2331C44.4162 30.1871 44.3725 30.1557 44.3143 30.1528C44.2684 30.1528 44.2261 30.179 44.2043 30.2215L44.1582 30.308C44.138 30.346 44.1191 30.3813 44.103 30.4178C43.5141 31.7464 43.3152 33.1085 43.5122 34.4661C43.6529 35.4368 43.8914 36.1319 44.2856 36.72C44.4896 37.024 44.6834 37.3626 44.7186 37.779C44.7269 37.8775 44.723 37.9454 44.6791 38.0227C44.182 38.8933 43.6246 39.7148 43.0143 40.478C43.0166 40.4739 43.0188 40.4697 43.0212 40.4655C43.4603 39.663 43.4736 38.7954 43.4287 38.0523C43.39 37.4154 43.317 36.7793 43.2468 36.1644L43.2428 36.1288C43.2145 35.8825 43.1863 35.6362 43.1606 35.3895C43.1458 35.2497 43.1292 35.1098 43.1122 34.9679L43.0896 34.7758C43.0846 34.7333 43.0587 34.6965 43.0214 34.678C42.9521 34.6418 42.8399 34.6977 42.7187 34.8411C41.8857 35.8263 41.3688 36.9396 41.1821 38.1503C40.9886 39.4056 41.0935 40.4799 41.5033 41.4345C41.5142 41.4599 41.5139 41.5117 41.5138 41.5291L41.4918 42.0783C41.4885 42.1178 41.4677 42.1624 41.4505 42.179C40.6187 42.98 39.7029 43.6764 38.7202 44.256C39.1853 43.8355 39.5198 43.2869 39.7365 42.5917C39.9767 41.8212 40.1 41.0192 40.2196 40.2416L40.23 40.1724C40.2723 39.8992 40.3165 39.6265 40.3616 39.3479L40.4126 39.0329C40.4199 38.987 40.4018 38.9411 40.3662 38.9136C40.3309 38.8854 40.2798 38.8787 40.2391 38.8961L40.1947 38.9145C40.1472 38.9339 40.1059 38.9513 40.0669 38.9712C38.2091 39.8991 36.9861 42.0632 37.159 44.1168C37.1861 44.4385 37.1566 44.7406 37.0688 45.0399C37.0606 45.0671 37.0342 45.0967 37.0235 45.1016C36.1412 45.4738 35.3022 45.7453 34.458 45.9316C34.4146 45.9417 34.3802 45.9727 34.3661 46.0145C34.3519 46.0566 34.3605 46.1024 34.3894 46.1368C34.4812 46.2455 34.5611 46.3624 34.6268 46.4848C34.6537 46.5348 34.718 46.5605 34.7661 46.548C35.4539 46.3911 36.1237 46.1879 36.7575 45.9436C36.8087 45.923 36.8479 45.9133 36.8845 45.9193C37.0255 45.938 37.1745 45.967 37.3399 46.008C37.374 46.0164 37.4023 46.0321 37.4028 46.0307C37.7641 46.7509 38.3851 47.2097 39.3017 47.433C39.5011 47.4808 39.7068 47.5162 39.913 47.5378C40.1288 47.5606 40.3696 47.5722 40.6283 47.5722C40.9867 47.5722 41.2423 47.55 41.2455 47.5498C42.04 47.4609 42.7185 47.2821 43.3195 47.003C43.5661 46.8887 43.8471 46.7348 44.0631 46.4599C44.1044 46.4072 44.0975 46.3313 44.0473 46.2871C43.4368 45.7484 42.8152 45.357 42.1467 45.0906C41.1563 44.6969 40.2541 44.5903 39.3698 44.7604C39.2376 44.7861 39.1086 44.8184 38.9832 44.8556C39.8104 44.3611 40.6025 43.7799 41.3505 43.1178C41.3648 43.1047 41.3884 43.0933 41.4068 43.09C41.5292 43.0697 41.6917 43.0447 41.858 43.0327C41.8734 43.0327 41.893 43.0401 41.8952 43.0409C42.3459 43.5453 42.9266 43.7904 43.6704 43.7904C43.7083 43.7904 43.7464 43.7897 43.7843 43.7884C44.5931 43.7623 45.4061 43.5401 46.2013 43.1276C46.7792 42.8261 47.3816 42.4751 47.8701 41.9516C47.9784 41.8353 48.0752 41.7036 48.1605 41.5875L48.1689 41.5761C48.2067 41.5249 48.2449 41.4733 48.2841 41.4223C48.3055 41.3948 48.3145 41.3594 48.3089 41.3237C48.3029 41.2893 48.2829 41.2586 48.2489 41.2365C48.2403 41.2318 48.0335 41.1209 47.8446 41.0477C46.5801 40.5591 45.3034 40.5091 44.0855 40.9015C43.6868 41.0296 43.3116 41.222 42.9462 41.4879C43.6219 40.7025 44.2475 39.8415 44.8155 38.915C44.8217 38.9053 44.8378 38.8788 44.843 38.874C44.8927 38.8423 44.9435 38.8123 44.9942 38.7827C45.0851 38.7294 45.1792 38.6743 45.2676 38.6086C45.3421 38.5529 45.3631 38.5515 45.4384 38.6C45.545 38.6692 45.669 38.7052 45.777 38.7335C46.4092 38.8953 47.0464 38.8147 47.7513 38.4837C48.3951 38.1819 48.8902 37.7047 49.3294 37.2342C49.9683 36.5478 50.3858 35.9286 50.6433 35.2852C50.6974 35.1502 50.736 35.0106 50.7761 34.8646C50.7927 34.8034 50.8096 34.7421 50.8276 34.6819C50.8473 34.6173 50.8129 34.5488 50.749 34.5263L50.6961 34.5222C50.4356 34.5222 48.1114 34.5604 46.752 35.8795C46.4562 36.1665 46.1911 36.4715 45.9491 36.8054C46.4869 35.6665 46.9429 34.4662 47.3105 33.2203L47.3158 33.2021C47.3202 33.1868 47.3269 33.1637 47.3313 33.1575L47.6869 32.6692C47.7002 32.6497 47.7017 32.6497 47.7226 32.6497C47.7318 32.6497 47.742 32.6503 47.7536 32.651L47.8296 32.6555C48.0942 32.672 48.2499 32.6696 48.3781 32.6496C48.8843 32.5697 49.3413 32.3147 49.7749 31.87C50.7891 30.8299 51.4871 29.5323 51.9089 27.9033C51.9541 27.7288 51.9668 27.5526 51.9803 27.3657C51.9863 27.2809 51.993 27.1936 52.0026 27.1034C52.0067 27.0601 51.9897 27.0188 51.9571 26.9918Z" fill="#596EFF"/>
<path d="M17.545 45.9306C16.7016 45.7443 15.8628 45.4728 14.9801 45.1007C14.9696 45.0958 14.9434 45.0662 14.9352 45.0396C14.8472 44.7397 14.8177 44.4376 14.8448 44.1159C15.0177 42.0621 13.7947 39.8981 11.9373 38.9704C11.8978 38.9503 11.8566 38.933 11.8091 38.9136L11.7651 38.8953C11.7232 38.8775 11.6723 38.8849 11.6385 38.912C11.602 38.9402 11.5839 38.986 11.5913 39.032L11.6422 39.3469C11.6873 39.6256 11.7315 39.8983 11.7738 40.1712L11.7845 40.2426C11.9038 41.0183 12.0271 41.8204 12.2673 42.5909C12.484 43.2861 12.8185 43.8347 13.2837 44.2551C12.3009 43.6756 11.3851 42.9792 10.5535 42.1783C10.536 42.1615 10.5153 42.1169 10.5123 42.0801L10.49 41.5305C10.4899 41.5109 10.4896 41.4591 10.5007 41.4334C10.9103 40.4791 11.0153 39.4048 10.8217 38.1495C10.6351 36.9388 10.1181 35.8255 9.28514 34.8403C9.18765 34.7249 9.10163 34.6665 9.02942 34.6665C9.01183 34.6665 8.99592 34.67 8.98341 34.6765C8.94509 34.6956 8.91916 34.7325 8.91407 34.7751L8.89179 34.9668C8.87458 35.1091 8.85803 35.2489 8.84317 35.3888C8.81749 35.6354 8.78934 35.8817 8.76106 36.128L8.75702 36.1636C8.68663 36.7786 8.61364 37.4147 8.57506 38.0515C8.53023 38.7944 8.54352 39.6621 8.98263 40.4647C8.98498 40.4688 8.98706 40.4731 8.98941 40.4771C8.37904 39.7138 7.82184 38.8925 7.32473 38.0221C7.28081 37.9446 7.27703 37.8767 7.28524 37.7782C7.32056 37.3615 7.51424 37.0229 7.71822 36.7192C8.11223 36.1311 8.35075 35.436 8.49165 34.4653C8.68859 33.1077 8.48969 31.7458 7.90083 30.4171C7.88466 30.3805 7.86577 30.3452 7.84556 30.3072L7.79955 30.2204C7.77753 30.1781 7.73047 30.1502 7.68082 30.1524C7.63129 30.155 7.58762 30.1864 7.56964 30.232C7.42679 30.5923 7.28863 30.9394 7.15138 31.2839L7.06367 31.504C6.77093 32.2392 6.44261 33.0976 6.25179 33.9833C6.11728 34.6082 6.10907 35.2115 6.22703 35.7857C5.76928 34.6962 5.39299 33.545 5.10482 32.3512C5.10156 32.3379 5.10052 32.3035 5.12906 32.2241C5.26383 31.8553 5.50926 31.5208 5.82024 31.2824C6.501 30.7603 6.88719 30.0346 7.17511 29.3936C7.76462 28.0826 7.92455 26.69 7.66387 25.1357C7.66113 25.1194 7.65618 25.1032 7.65032 25.0856L7.64562 25.0716C7.63428 25.0368 7.60848 25.0086 7.57433 24.9939C7.54096 24.9799 7.49899 24.9825 7.47306 24.9953C7.44699 25.0048 7.4075 25.0193 7.38182 25.057C7.23428 25.254 7.08452 25.4529 6.93463 25.6517L6.90948 25.6852C6.5315 26.1871 6.14061 26.7059 5.76498 27.2227C5.32978 27.8197 5.02244 28.4001 4.82524 28.9971C4.7301 29.2854 4.66792 29.5629 4.6386 29.8324C4.51334 28.8639 4.44231 27.875 4.4268 26.8779C4.42315 26.6399 4.45339 26.4508 4.61592 26.2437C4.78797 26.0229 4.94867 25.8996 5.17025 25.8183C6.08066 25.4856 6.6647 24.7827 7.07175 24.2075C7.7293 23.2771 8.11497 22.1943 8.25078 20.8975C8.26525 20.764 8.27346 20.629 8.28193 20.4861L8.28402 20.4537C8.28806 20.3842 8.29236 20.3119 8.29784 20.2352C8.30122 20.1844 8.27398 20.1367 8.2285 20.1136C8.18444 20.0915 8.12801 20.098 8.08969 20.1304L7.98164 20.223C7.94097 20.2577 7.90617 20.2874 7.87007 20.3163C7.69659 20.4556 7.52246 20.5935 7.34793 20.7318L7.32969 20.7462C6.94662 21.0496 6.5504 21.3633 6.17202 21.6873C5.43783 22.3135 4.9651 22.9368 4.68422 23.649C4.63782 23.7665 4.59715 23.8826 4.56222 23.9976C4.6777 22.8657 4.86526 21.7511 5.1228 20.6697C5.15409 20.5374 5.17155 20.4985 5.23581 20.4774C5.27621 20.4637 5.31388 20.4374 5.34138 20.4048C5.52816 20.1925 5.7741 20.1589 6.01236 20.154C6.80742 20.1354 7.438 19.7388 7.94983 19.3532C9.20486 18.408 10.069 16.0098 10.069 15.9285C10.069 15.8861 10.0479 15.8466 10.012 15.8228C9.97672 15.7995 9.92901 15.7962 9.89304 15.8122C9.63158 15.9231 9.37012 16.0312 9.09941 16.1432C8.50377 16.3901 7.88792 16.6453 7.29645 16.9244C6.7012 17.2061 6.23081 17.5827 5.89454 18.0462C6.21504 17.1355 6.58663 16.2427 7.00267 15.3847C7.0505 15.2922 7.2752 15.1939 7.5974 15.1939C7.70219 15.1939 7.80372 15.2051 7.89144 15.2262C8.64844 15.4077 9.39906 15.2976 10.2298 14.8825C11.0798 14.4576 11.7849 13.7629 12.3855 12.7581C12.397 12.7387 12.4195 12.6794 12.4316 12.6462C12.4469 12.6055 12.4408 12.5607 12.4155 12.5267C12.392 12.4943 12.3545 12.4751 12.3066 12.4751C12.3062 12.4751 12.306 12.4751 12.3056 12.4751L12.0056 12.494C11.8217 12.5056 11.6431 12.5169 11.4645 12.526L11.2738 12.5357C10.7045 12.5643 10.1157 12.5938 9.53956 12.731C8.88253 12.889 8.40015 13.1316 8.03025 13.4913C8.46806 12.7626 8.93688 12.0692 9.43073 11.4197C9.44403 11.4025 9.50776 11.3762 9.56003 11.3674C9.5861 11.3613 9.68098 11.3414 9.80715 11.3414C9.9745 11.3414 10.121 11.3754 10.2452 11.4437C11.0344 11.8296 11.9207 11.8583 12.883 11.5278C13.6723 11.2581 14.3408 10.7572 14.9268 9.99694C14.9458 9.97243 14.9631 9.94572 14.9787 9.91756C14.9966 9.88511 14.9977 9.8494 14.9821 9.81681C14.9367 9.72166 14.7404 9.67696 14.6578 9.6621C14.455 9.62665 14.2252 9.58624 13.9974 9.55535C13.893 9.54075 13.7885 9.52551 13.6837 9.50999L13.6702 9.50791C13.3152 9.45551 12.9482 9.40129 12.5784 9.38266C11.9027 9.34812 11.3028 9.48601 10.8118 9.79126C11.1419 9.43987 11.4793 9.10647 11.8218 8.79327C11.9301 8.69447 12.0526 8.59489 12.2196 8.4699C12.2325 8.45999 12.2653 8.44839 12.3056 8.44605C13.4889 8.39978 14.4736 7.87738 15.3156 6.84928C15.7743 6.28961 16.1259 5.5837 16.3909 4.69114L16.4 4.66051C16.4283 4.56667 16.444 4.51506 16.3789 4.45458C16.3287 4.40792 16.2404 4.42173 16.0107 4.51271C15.8022 4.59287 15.5923 4.67068 15.3769 4.75058C14.944 4.91102 14.4963 5.07694 14.0642 5.26437C13.3422 5.57822 12.7656 6.05396 12.3507 6.67814C12.0348 7.1531 11.9099 7.63026 11.9687 8.13441C11.9683 8.14001 11.9633 8.15344 11.9625 8.155C11.2088 8.80578 10.4883 9.53841 9.7485 10.4104C10.2418 9.6561 10.5634 8.78766 10.7247 7.78093C10.8874 6.76599 10.8977 5.86262 10.7564 5.01933C10.7474 4.96655 10.7353 4.91376 10.7198 4.84768L10.6967 4.74588C10.6863 4.70222 10.6534 4.6669 10.6103 4.65334C10.5671 4.64057 10.5188 4.65191 10.4866 4.68254C10.435 4.73116 10.3844 4.77704 10.335 4.82161L10.3002 4.85302C10.1738 4.96694 10.0544 5.07447 9.94635 5.19607C8.89648 6.38045 8.28415 7.63144 8.07444 9.02058C7.9789 9.64841 8.01852 10.1829 8.19565 10.6542C8.2543 10.8104 8.3458 10.9498 8.43691 11.0883C8.47861 11.1515 8.52032 11.2149 8.55851 11.2801C8.58666 11.3269 8.58901 11.339 8.58888 11.3368C8.57154 11.5225 8.54665 11.7295 8.51302 11.9779C8.51159 11.9811 8.5069 11.9884 8.49191 12.0082L8.47979 12.025C7.90565 12.8231 7.37596 13.6644 6.89931 14.5352C7.08674 13.8848 7.23597 13.0616 7.22542 12.105C7.21264 10.9577 6.94845 9.93438 6.41745 8.97626C6.39647 8.93899 6.35841 8.91474 6.3051 8.91109C6.26639 8.91109 6.22911 8.93025 6.20474 8.96297C6.18884 8.98512 6.17268 9.00598 6.1573 9.02579C6.12302 9.07011 6.09095 9.11207 6.06228 9.15691C5.63946 9.81994 5.41268 10.551 5.26214 11.1139C4.98699 12.1463 4.86056 13.0084 4.86421 13.827C4.8663 14.5229 4.99312 15.0578 5.26344 15.5105C5.34751 15.6514 5.45334 15.7747 5.5597 15.8988C5.61613 15.9646 5.67413 16.0322 5.72666 16.1016C5.76341 16.1498 5.78114 16.1989 5.78218 16.2263C5.78909 16.3913 5.78544 16.5591 5.78192 16.7212L5.77945 16.8333C5.77906 16.8526 5.77462 16.8747 5.76798 16.8917C5.42858 17.714 5.13023 18.5686 4.87581 19.4463C4.91322 19.1474 4.93434 18.8581 4.93968 18.5758C4.97044 16.9734 4.47893 15.5424 3.47846 14.3221L3.26992 14.068C3.24581 14.0382 3.2101 14.0212 3.17204 14.0212L3.15118 14.0231C3.10661 14.0305 3.06907 14.0614 3.05356 14.1035C3.03453 14.1542 3.01589 14.202 2.99778 14.2483C2.96284 14.3377 2.92987 14.4224 2.90198 14.5086C2.68731 15.181 2.582 15.9156 2.56062 16.89L2.56023 16.909C2.5442 17.6179 2.52217 18.5891 2.81335 19.5184C3.09996 20.4332 3.60541 20.8955 3.70342 20.9786L3.71385 20.9879C3.98065 21.2261 4.15439 21.4439 4.19037 21.5853C4.20483 21.6424 4.21956 21.6996 4.23677 21.7562C4.31288 22.0078 4.26531 22.2477 4.21396 22.5066C4.18841 22.6374 4.16182 22.7724 4.15257 22.9109C4.11581 23.4654 4.07072 24.0292 4.02705 24.5744L4.02314 24.6249C4.01193 24.764 4.00073 24.903 3.98965 25.0421C3.87834 23.7945 3.46517 22.6604 2.7543 21.6575C2.31898 21.0439 1.79997 20.5189 1.21136 20.0967C1.18595 20.0784 1.15923 20.0622 1.12352 20.0409C1.10618 20.0309 1.08611 20.0189 1.06174 20.0036C1.02498 19.9816 0.977798 19.9796 0.93987 19.9982C0.901029 20.0171 0.87431 20.0555 0.869879 20.099C0.861928 20.1779 0.852674 20.2543 0.842899 20.3335C0.823218 20.4958 0.804579 20.6491 0.803797 20.8065C0.795065 22.4386 1.14033 23.968 1.83034 25.3517C2.02259 25.7377 2.27662 26.0716 2.58565 26.3446C2.89207 26.6137 3.22274 26.7725 3.5959 26.8296C3.60411 26.831 3.62366 26.8428 3.62666 26.8452C3.64686 26.8857 3.66784 26.9264 3.68883 26.9672C3.76338 27.1112 3.84041 27.2602 3.87873 27.4096C3.91066 27.5359 3.91066 27.6739 3.91066 27.8201C3.91066 27.8737 3.91066 27.9277 3.91236 27.9806C3.9482 29.2448 3.99525 29.6851 4.19754 30.8148C4.07411 30.4789 3.91913 30.1421 3.71906 29.8181C2.90888 28.5067 1.87961 27.6167 0.572448 27.0973C0.489292 27.0638 0.405876 27.0397 0.309165 27.0115L0.289875 27.0058C0.250643 26.9943 0.209065 26.9821 0.16462 26.9685C0.124476 26.9553 0.0787276 26.9643 0.0460128 26.9914C0.0134283 27.0184 -0.00364594 27.0597 0.000655207 27.1027C0.0103002 27.1924 0.0169474 27.2796 0.0230733 27.3647C0.0364981 27.5514 0.0491409 27.7276 0.0943682 27.902C0.516142 29.5311 1.21423 30.8286 2.22839 31.8688C2.66202 32.3135 3.11899 32.5685 3.62535 32.6484C3.75308 32.6683 3.90923 32.6708 4.17355 32.6544L4.24967 32.6498C4.26127 32.6491 4.27144 32.6485 4.28069 32.6485C4.30155 32.6485 4.30324 32.6485 4.31771 32.6699L4.67183 33.1562C4.6764 33.1625 4.68304 33.1856 4.68761 33.2015L4.69282 33.219C5.06037 34.465 5.51642 35.6652 6.0542 36.8042C5.81216 36.4701 5.54692 36.1651 5.25132 35.8783C3.89189 34.5592 1.56771 34.5211 1.30716 34.5211L1.27471 34.5213L1.25425 34.5251C1.19038 34.5478 1.15584 34.6161 1.17552 34.6803C1.19364 34.7409 1.21058 34.8022 1.23 34.8741C1.26715 35.0093 1.30573 35.1489 1.35982 35.2839C1.61737 35.9275 2.03484 36.5466 2.67389 37.233C3.11299 37.7035 3.60802 38.1807 4.25176 38.4824C4.95675 38.8135 5.59332 38.8943 6.22638 38.7321C6.33403 38.7039 6.45786 38.668 6.56434 38.5989C6.6402 38.5503 6.66092 38.5519 6.73548 38.6074C6.82384 38.6731 6.91782 38.7282 7.00905 38.7817C7.05949 38.8113 7.11033 38.8411 7.15777 38.8711C7.16533 38.8775 7.18149 38.9039 7.18749 38.9137C7.7555 39.8401 8.38125 40.7012 9.05692 41.4866C8.69146 41.2207 8.31621 41.0283 7.91764 40.9002C6.69963 40.5077 5.42297 40.5577 4.15856 41.0466C3.96984 41.1197 3.76299 41.2305 3.74917 41.2383C3.72024 41.2573 3.7003 41.2881 3.69404 41.3234C3.68857 41.3581 3.69756 41.3935 3.71867 41.4206C3.75817 41.472 3.79636 41.5236 3.83415 41.5748L3.84249 41.586C3.92787 41.7023 4.02458 41.8338 4.13302 41.9503C4.62139 42.4739 5.22369 42.8249 5.80186 43.1262C6.59693 43.5387 7.40997 43.761 8.21859 43.787C8.25665 43.7883 8.29471 43.7891 8.33263 43.7891C9.07647 43.7891 9.65713 43.544 10.1047 43.0425C10.1102 43.0386 10.1296 43.0312 10.1403 43.0311C10.3113 43.0433 10.4738 43.0682 10.5953 43.0884C10.6145 43.0918 10.6381 43.1033 10.6528 43.1166C11.4005 43.7786 12.1925 44.3596 13.0197 44.8541C12.8943 44.817 12.7652 44.7846 12.633 44.7587C11.7489 44.5887 10.8467 44.6954 9.85602 45.089C9.18765 45.3554 8.56607 45.7468 7.9557 46.2855C7.90539 46.3297 7.89835 46.4057 7.9398 46.4583C8.15577 46.7332 8.43678 46.8871 8.68324 47.0013C9.28436 47.2806 9.9629 47.4594 10.7584 47.5483C10.7607 47.5485 11.0163 47.5706 11.3747 47.5706C11.6334 47.5706 11.8742 47.559 12.0899 47.5362C12.2961 47.5146 12.5018 47.4792 12.7013 47.4313C13.6178 47.2081 14.2389 46.7494 14.5947 46.0371C14.6011 46.0309 14.6285 46.015 14.6631 46.0066C14.8285 45.9655 14.9774 45.9366 15.1189 45.9177C15.1523 45.9123 15.1939 45.9213 15.2463 45.9424C15.8792 46.1863 16.549 46.3895 17.2358 46.5462C17.2454 46.5485 17.2554 46.5497 17.2655 46.5497C17.3116 46.5497 17.3541 46.5243 17.3765 46.4828C17.4421 46.3608 17.522 46.2438 17.6139 46.1349C17.6427 46.1007 17.6513 46.055 17.6371 46.0128C17.6235 45.9719 17.5891 45.9409 17.545 45.9306Z" fill="#596EFF"/>
<path d="M32.181 29.11L37.418 24.0051C37.5955 23.832 37.6596 23.5729 37.5829 23.3372C37.5062 23.1011 37.3024 22.9291 37.0568 22.8935L29.8201 21.8426L26.5831 15.2849C26.4734 15.0624 26.2469 14.9216 25.9988 14.9216C25.7508 14.9216 25.5241 15.0627 25.4145 15.2849L22.1788 21.8426L14.9408 22.8935C14.6954 22.9291 14.4914 23.1012 14.4148 23.3372C14.338 23.5729 14.402 23.832 14.5797 24.0051L19.8166 29.11L18.581 36.3175C18.5391 36.5619 18.6396 36.809 18.8403 36.9547C19.0407 37.1006 19.3066 37.1199 19.5265 37.0044L25.9991 33.6019L32.4717 37.0044C32.5669 37.0546 32.6711 37.0792 32.7747 37.0792C32.9099 37.0792 33.0442 37.0372 33.1578 36.9547C33.3585 36.8091 33.4591 36.5619 33.417 36.3175L32.181 29.11Z" fill="#596EFF"/>
</g>
<defs>
<clipPath id="clip0_3_1076">
<rect width="52" height="52" fill="white"/>
</clipPath>
</defs>
</svg>
