<svg width="72" height="72" viewBox="0 0 72 72" fill="none" xmlns="http://www.w3.org/2000/svg">
<path d="M36.6255 69.4664H2.52C1.926 69.4664 1.44 68.9849 1.44 68.3909C1.431 64.5659 1.5885 55.0034 3.312 48.8609C3.7665 47.2364 4.32 45.9089 5.049 44.6849C5.6655 43.6499 7.4475 41.0579 10.629 39.2669C11.295 38.8934 11.988 38.5739 12.69 38.3129C12.6945 38.3084 12.7035 38.3084 12.708 38.3084C14.481 37.6559 16.335 37.3679 18.2205 37.4534C18.432 37.4624 18.6345 37.5344 18.81 37.6604L26.6445 43.3754L34.92 37.6379C35.091 37.5209 35.289 37.4534 35.4915 37.4444C37.3365 37.3634 40.1445 37.6109 43.0785 39.2579C43.7445 39.6314 44.3925 40.0679 45 40.5449L45.0135 40.5584C45.045 40.5809 45.738 41.1524 46.341 41.8679C46.728 42.3224 46.6695 43.0064 46.2105 43.3889C45.756 43.7714 45.072 43.7174 44.6895 43.2584C44.2485 42.7364 43.713 42.2819 43.65 42.2324C43.1325 41.8229 42.5835 41.4584 42.0165 41.1389C39.681 39.8249 37.44 39.5594 35.8875 39.5909L27.2475 45.5849C27.0675 45.7109 26.8515 45.7784 26.631 45.7784C26.4015 45.7784 26.181 45.7064 25.992 45.5714L17.802 39.5999C16.326 39.5729 14.823 39.8249 13.437 40.3379C13.4325 40.3379 13.428 40.3424 13.419 40.3424C12.8295 40.5629 12.2445 40.8329 11.682 41.1479C8.9505 42.6869 7.425 44.9099 6.894 45.7919C6.255 46.8629 5.787 47.9879 5.382 49.4414C3.8565 54.8819 3.6225 63.5084 3.5955 67.3064H36.621C37.2195 67.3064 37.701 67.7879 37.701 68.3864C37.701 68.9849 37.224 69.4664 36.6255 69.4664Z" fill="#F7F5EF"/>
<path d="M11.943 69.4665C11.3445 69.4665 10.863 68.985 10.863 68.3865V55.71C10.863 55.1115 11.3445 54.63 11.943 54.63C12.5415 54.63 13.023 55.1115 13.023 55.71V68.382C13.0185 68.9805 12.537 69.4665 11.943 69.4665Z" fill="#F7F5EF"/>
<path d="M21.3975 49.455C21.105 49.455 20.8125 49.338 20.601 49.104L12.2715 40.0545C11.8665 39.6135 11.898 38.934 12.3345 38.529C12.7755 38.124 13.455 38.1555 13.86 38.592L21.546 46.9485L26.01 43.812C26.496 43.47 27.171 43.587 27.513 44.073C27.855 44.559 27.738 45.234 27.252 45.576L22.014 49.257C21.8295 49.392 21.6135 49.455 21.3975 49.455Z" fill="#F7F5EF"/>
<path d="M31.869 49.455C31.653 49.455 31.437 49.392 31.248 49.257L26.01 45.5805C25.524 45.2385 25.4025 44.5635 25.749 44.0775C26.091 43.5915 26.766 43.47 27.252 43.8165L31.716 46.953L39.402 38.5965C39.807 38.1555 40.491 38.1285 40.9275 38.5335C41.3685 38.9385 41.3955 39.6225 40.9905 40.059L32.661 49.113C32.454 49.338 32.1615 49.455 31.869 49.455Z" fill="#F7F5EF"/>
<path d="M27.9765 51.5475H25.29C24.894 51.5475 24.534 51.3315 24.345 50.985L22.4325 47.4975C22.1445 46.9755 22.338 46.3185 22.86 46.0305C23.382 45.7425 24.039 45.936 24.327 46.458L25.929 49.383H27.36L29.0205 46.62C29.3265 46.107 29.9925 45.945 30.501 46.251C31.014 46.557 31.176 47.223 30.87 47.7315L28.899 51.0165C28.7055 51.3495 28.3545 51.5475 27.9765 51.5475Z" fill="#F7F5EF"/>
<path d="M22.8375 69.4665C22.788 69.4665 22.7385 69.462 22.689 69.4575C22.0995 69.3765 21.6855 68.832 21.7665 68.2425L24.219 50.328C24.3 49.7385 24.8445 49.3245 25.434 49.4055C26.0235 49.4865 26.4375 50.031 26.3565 50.6205L23.904 68.535C23.832 69.075 23.3685 69.4665 22.8375 69.4665Z" fill="#F7F5EF"/>
<path d="M30.429 69.4665C29.898 69.4665 29.4345 69.075 29.3625 68.535L26.91 50.6205C26.829 50.031 27.243 49.4865 27.8325 49.4055C28.422 49.3245 28.9665 49.7385 29.0475 50.328L31.5 68.2425C31.581 68.832 31.167 69.3765 30.5775 69.4575C30.5235 69.462 30.474 69.4665 30.429 69.4665Z" fill="#F7F5EF"/>
<path d="M26.9235 37.881C25.254 37.881 23.6295 37.521 22.1085 36.8055C20.646 36.1215 19.332 35.1405 18.207 33.894C15.912 31.3515 14.6475 27.981 14.6475 24.4035V19.1655C14.6475 18.801 14.8275 18.4635 15.1335 18.2655C15.1425 18.2565 16.416 17.406 17.793 15.8805C18.1485 15.4845 18.7425 15.408 19.1835 15.7005C19.197 15.7095 20.9115 16.7985 23.6925 17.352C27.396 18.09 31.158 17.577 34.866 15.831C35.298 15.6285 35.802 15.732 36.117 16.074C36.225 16.1865 37.512 17.5185 38.691 18.2475C39.0105 18.4455 39.204 18.792 39.204 19.1655V24.4035C39.204 27.981 37.9395 31.3515 35.6445 33.894C34.5195 35.1405 33.2055 36.1215 31.743 36.8055C30.2175 37.521 28.593 37.881 26.9235 37.881ZM16.803 19.719V24.4035C16.803 30.645 21.3435 35.721 26.9235 35.721C32.5035 35.721 37.044 30.645 37.044 24.4035V19.7415C36.558 19.3995 36.036 18.972 35.4825 18.4635C35.3385 18.3285 35.2035 18.207 35.091 18.0945C33.021 18.99 30.906 19.5435 28.7865 19.746C26.8965 19.926 25.002 19.827 23.1615 19.449C21.159 19.0395 19.6515 18.387 18.7965 17.955C17.9865 18.7785 17.2575 19.3725 16.803 19.719Z" fill="#F7F5EF"/>
<path d="M38.124 20.2455C37.8315 20.2455 37.539 20.1285 37.3275 19.8945C36.945 19.476 36.954 18.8415 37.3275 18.4365C37.422 18.3015 37.683 17.8605 38.349 16.569C38.4255 16.4205 38.4615 16.353 38.484 16.3125C38.9025 15.543 39.375 14.535 39.285 13.5405C39.1815 12.42 38.43 11.124 37.7325 10.332C37.4895 10.0575 37.179 9.81 36.8505 9.5535C36.4545 9.2385 36.0045 8.883 35.613 8.424C35.1765 7.9065 34.956 7.3305 34.758 6.822C34.6365 6.5025 34.5195 6.2055 34.371 5.9715C34.0695 5.5035 33.5025 5.265 33.0795 5.148C32.364 4.9455 31.5225 4.8105 30.51 4.734C29.088 4.626 27.5355 4.761 25.8975 5.1345C23.58 5.6655 20.187 7.029 18.2385 9.1125C18.09 9.2745 17.9415 9.441 17.802 9.6075C16.9425 10.656 16.416 11.574 16.236 12.3345C16.011 13.284 16.0785 14.3775 16.137 15.3405C16.209 16.5195 16.2855 17.7345 16.7175 18.738C16.956 19.287 16.704 19.9215 16.155 20.16C15.606 20.3985 14.9715 20.1465 14.733 19.5975C14.148 18.2475 14.058 16.776 13.977 15.48C13.9095 14.418 13.8285 13.0995 14.13 11.8395C14.391 10.7415 15.0435 9.567 16.128 8.244C16.2945 8.037 16.4745 7.8345 16.6545 7.641C19.5975 4.4955 24.462 3.249 25.407 3.033C27.261 2.6055 29.0295 2.457 30.6675 2.583C31.824 2.673 32.8005 2.8305 33.6555 3.069C34.776 3.384 35.6445 3.9825 36.1755 4.8015C36.4455 5.22 36.6165 5.6565 36.765 6.0435C36.918 6.444 37.053 6.7905 37.2555 7.029C37.5075 7.326 37.836 7.5825 38.1825 7.857C38.5695 8.163 38.9745 8.4825 39.3435 8.901C40.2525 9.927 41.274 11.6325 41.4315 13.347C41.5755 14.922 40.941 16.317 40.374 17.352C40.356 17.3835 40.32 17.4555 40.266 17.5635C39.249 19.5255 39.051 19.7775 38.8485 19.9665C38.646 20.151 38.385 20.2455 38.124 20.2455Z" fill="#F7F5EF"/>
<path d="M35.5365 39.609C35.091 39.609 34.6725 39.33 34.515 38.8845L32.9445 34.398C32.7465 33.8355 33.0435 33.219 33.606 33.021C34.1685 32.823 34.785 33.12 34.983 33.6825L36.5535 38.169C36.7515 38.7315 36.4545 39.348 35.892 39.546C35.775 39.5865 35.6535 39.609 35.5365 39.609Z" fill="#F7F5EF"/>
<path d="M18.1755 39.609C18.0495 39.609 17.9235 39.5865 17.7975 39.5415C17.2395 39.3345 16.956 38.7135 17.163 38.151L18.8415 33.642C19.0485 33.084 19.6695 32.8005 20.232 33.0075C20.79 33.2145 21.0735 33.8355 20.8665 34.398L19.188 38.907C19.026 39.339 18.612 39.609 18.1755 39.609Z" fill="#F7F5EF"/>
<path d="M65.2275 19.125H50.769C50.1705 19.125 49.689 18.6435 49.689 18.045C49.689 17.4465 50.1705 16.965 50.769 16.965H65.2275C65.826 16.965 66.3075 17.4465 66.3075 18.045C66.3075 18.6435 65.826 19.125 65.2275 19.125Z" fill="#F7F5EF"/>
<path d="M65.2275 23.2245H50.769C50.1705 23.2245 49.689 22.743 49.689 22.1445C49.689 21.546 50.1705 21.0645 50.769 21.0645H65.2275C65.826 21.0645 66.3075 21.546 66.3075 22.1445C66.3075 22.743 65.826 23.2245 65.2275 23.2245Z" fill="#F7F5EF"/>
<path d="M65.2275 15.0255H50.769C50.1705 15.0255 49.689 14.544 49.689 13.9455C49.689 13.347 50.1705 12.8655 50.769 12.8655H65.2275C65.826 12.8655 66.3075 13.347 66.3075 13.9455C66.3075 14.544 65.826 15.0255 65.2275 15.0255Z" fill="#F7F5EF"/>
<path d="M50.2605 32.7465C50.0985 32.7465 49.932 32.7105 49.779 32.634C49.41 32.4495 49.1805 32.076 49.1805 31.6665V27.7605H46.5165C45.918 27.7605 45.4365 27.279 45.4365 26.6805V9.41398C45.4365 8.81548 45.918 8.33398 46.5165 8.33398H69.48C70.0785 8.33398 70.56 8.81548 70.56 9.41398V26.676C70.56 27.2745 70.0785 27.756 69.48 27.756H57.204L50.913 32.526C50.7195 32.67 50.49 32.7465 50.2605 32.7465ZM47.5965 25.596H50.2605C50.859 25.596 51.3405 26.0775 51.3405 26.676V29.4885L56.187 25.812C56.376 25.668 56.6055 25.5915 56.8395 25.5915H68.4V10.494H47.5965V25.596Z" fill="#F7F5EF"/>
<path d="M58.0005 65.5695H34.7535C34.155 65.5695 33.6735 65.088 33.6735 64.4895C33.6735 61.254 36.306 58.6215 39.5415 58.6215H53.217C56.4525 58.6215 59.085 61.254 59.085 64.4895C59.0805 65.0835 58.599 65.5695 58.0005 65.5695ZM35.991 63.4095H56.7585C56.295 61.893 54.882 60.7815 53.2125 60.7815H39.537C37.872 60.7815 36.4545 61.8885 35.991 63.4095Z" fill="#F7F5EF"/>
<path d="M56.448 69.4664H36.306C35.7075 69.4664 35.226 68.9849 35.226 68.3864V64.4894C35.226 63.8909 35.7075 63.4094 36.306 63.4094H56.448C57.0465 63.4094 57.528 63.8909 57.528 64.4894V68.3864C57.528 68.9849 57.042 69.4664 56.448 69.4664ZM37.386 67.3064H55.3635V65.5694H37.386V67.3064Z" fill="#F7F5EF"/>
<path d="M50.463 60.7815H42.291C41.6925 60.7815 41.211 60.3 41.211 59.7015V56.1735C41.211 55.575 41.6925 55.0935 42.291 55.0935H50.463C51.0615 55.0935 51.543 55.575 51.543 56.1735V59.7015C51.543 60.3 51.057 60.7815 50.463 60.7815ZM43.371 58.6215H49.383V57.2535H43.371V58.6215Z" fill="#F7F5EF"/>
<path d="M48.654 57.2535C48.0555 57.2535 47.574 56.772 47.574 56.1735V51.5025C47.574 50.094 47.9475 48.7305 48.6495 47.5605C48.897 47.151 49.0275 46.6785 49.0275 46.197C49.0275 44.757 47.8575 43.569 46.4175 43.5465C46.404 43.5465 46.3905 43.5465 46.377 43.5465C44.946 43.5465 43.7625 44.6985 43.7265 46.1295C43.713 46.6245 43.839 47.1105 44.0865 47.5335C44.7975 48.7485 45.1755 50.121 45.1755 51.498V56.169C45.1755 56.7675 44.694 57.249 44.0955 57.249C43.497 57.249 43.0155 56.7675 43.0155 56.169V51.498C43.0155 50.5035 42.741 49.509 42.2235 48.627C41.7735 47.8575 41.544 46.9755 41.5665 46.08C41.6295 43.479 43.7805 41.3865 46.3725 41.3865H46.4445C47.7135 41.4045 48.906 41.913 49.797 42.8175C50.688 43.722 51.183 44.9235 51.183 46.1925C51.183 47.0655 50.9445 47.9205 50.499 48.6675C49.995 49.5045 49.7295 50.481 49.7295 51.498V56.169C49.734 56.7675 49.2525 57.2535 48.654 57.2535Z" fill="#F7F5EF"/>
<path d="M48.654 60.7815H44.1C43.5015 60.7815 43.02 60.3 43.02 59.7015C43.02 59.103 43.5015 58.6215 44.1 58.6215H48.6585C49.257 58.6215 49.7385 59.103 49.7385 59.7015C49.7385 60.3 49.2525 60.7815 48.654 60.7815Z" fill="#F7F5EF"/>
</svg>
