<svg width="72" height="72" viewBox="0 0 72 72" fill="none" xmlns="http://www.w3.org/2000/svg">
<path d="M55.0447 48.9531C47.681 48.9531 41.69 42.9625 41.69 35.5986C41.69 34.9957 42.1788 34.5068 42.7818 34.5068H67.308C67.911 34.5068 68.3999 34.9957 68.3999 35.5986C68.4 42.9624 62.409 48.9531 55.0447 48.9531ZM43.9266 36.6905C44.4771 42.3397 49.2535 46.7693 55.0447 46.7693C60.8361 46.7693 65.6129 42.3397 66.1634 36.6905H43.9266Z" fill="#F7F5EF"/>
<path d="M64.3884 36.6905H45.7017C45.3243 36.6905 44.9736 36.4959 44.7744 36.1752C44.5752 35.8545 44.5556 35.4535 44.7224 35.1158L54.0655 16.1787C54.2493 15.8059 54.6288 15.5697 55.0446 15.5697C55.4604 15.5697 55.84 15.8059 56.0238 16.1787L65.3675 35.1158C65.5343 35.4535 65.5147 35.8545 65.3154 36.1752C65.1164 36.4961 64.7659 36.6905 64.3884 36.6905ZM47.4579 34.5067H62.6321L55.0447 19.1292L47.4579 34.5067Z" fill="#F7F5EF"/>
<path d="M16.9548 48.9531C9.59097 48.9531 3.6 42.9624 3.6 35.5986C3.6 34.9957 4.08873 34.5068 4.69181 34.5068H29.2176C29.8207 34.5068 30.3094 34.9957 30.3094 35.5986C30.3094 42.9624 24.3184 48.9531 16.9548 48.9531ZM5.83661 36.6905C6.38712 42.3397 11.1635 46.7693 16.9548 46.7693C22.7461 46.7693 27.5224 42.3397 28.0731 36.6905H5.83661Z" fill="#F7F5EF"/>
<path d="M26.298 36.6905H7.61155C7.23412 36.6905 6.88348 36.4959 6.68433 36.1752C6.48504 35.8545 6.46545 35.4535 6.6322 35.1158L15.9754 16.1787C16.1591 15.8059 16.5387 15.5697 16.9546 15.5697C17.3703 15.5697 17.7499 15.8059 17.9336 16.1787L27.2768 35.1158C27.4435 35.4535 27.4239 35.8545 27.2248 36.1752C27.0259 36.4961 26.6753 36.6905 26.298 36.6905ZM9.36792 34.5067H24.5416L16.9548 19.1292L9.36792 34.5067Z" fill="#F7F5EF"/>
<path d="M35.9998 48.9531C35.3968 48.9531 34.9079 48.4643 34.9079 47.8613V13.1703C34.9079 12.5672 35.3968 12.0785 35.9998 12.0785C36.6028 12.0785 37.0917 12.5672 37.0917 13.1703V47.8613C37.0917 48.4643 36.6028 48.9531 35.9998 48.9531Z" fill="#F7F5EF"/>
<path d="M59.5093 17.7533H12.4903C11.8872 17.7533 11.3985 17.2646 11.3985 16.6615C11.3985 16.0584 11.8872 15.5697 12.4903 15.5697H59.5093C60.1124 15.5697 60.6011 16.0584 60.6011 16.6615C60.6011 17.2646 60.1124 17.7533 59.5093 17.7533Z" fill="#F7F5EF"/>
<path d="M46.4075 65.8882H25.5921C24.989 65.8882 24.5003 65.3993 24.5003 64.7964V59.8328C24.5003 59.2298 24.989 58.741 25.5921 58.741H28.4253L30.7382 54.3591C30.927 54.0017 31.299 53.7773 31.7038 53.7773H40.2964C40.701 53.7773 41.073 54.0017 41.262 54.3591L43.5748 58.741H46.4076C47.0107 58.741 47.4994 59.2298 47.4994 59.8328V64.7964C47.4993 65.3993 47.0105 65.8882 46.4075 65.8882ZM26.6839 63.7046H45.3156V60.9246H42.9166C42.5118 60.9246 42.14 60.7003 41.9509 60.3429L39.6382 55.961H32.3618L30.0489 60.3429C29.8601 60.7003 29.4882 60.9246 29.0834 60.9246H26.6839V63.7046Z" fill="#F7F5EF"/>
<path d="M38.6525 55.9611H33.3474C32.7444 55.9611 32.2556 55.4723 32.2556 54.8692V47.8613C32.2556 47.2583 32.7444 46.7695 33.3474 46.7695H38.6525C39.2556 46.7695 39.7443 47.2583 39.7443 47.8613V54.8694C39.7443 55.4725 39.2556 55.9611 38.6525 55.9611ZM34.4392 53.7774H37.5607V48.953H34.4392V53.7774Z" fill="#F7F5EF"/>
<path d="M55.7659 65.8882H16.2335C15.6305 65.8882 15.1417 65.3993 15.1417 64.7964C15.1417 64.1933 15.6305 63.7046 16.2335 63.7046H55.7659C56.3689 63.7046 56.8577 64.1933 56.8577 64.7964C56.8578 65.3993 56.3691 65.8882 55.7659 65.8882Z" fill="#F7F5EF"/>
<path d="M35.9999 14.2621C33.7526 14.2621 31.9247 12.4341 31.9247 10.1866C31.9247 7.93975 33.7526 6.11182 35.9999 6.11182C38.247 6.11182 40.0749 7.93975 40.0749 10.1866C40.0749 12.4341 38.247 14.2621 35.9999 14.2621ZM35.9999 8.29543C34.957 8.29543 34.1083 9.14417 34.1083 10.1866C34.1083 11.2297 34.957 12.0785 35.9999 12.0785C37.0427 12.0785 37.8913 11.2297 37.8913 10.1866C37.8913 9.14417 37.0426 8.29543 35.9999 8.29543Z" fill="#F7F5EF"/>
<path d="M34.6316 60.9247H29.0834C28.4803 60.9247 27.9916 60.4358 27.9916 59.8329C27.9916 59.2298 28.4803 58.7411 29.0834 58.7411H34.6316C35.2346 58.7411 35.7234 59.2298 35.7234 59.8329C35.7234 60.4358 35.2346 60.9247 34.6316 60.9247Z" fill="#F7F5EF"/>
</svg>
