<svg width="72" height="72" viewBox="0 0 72 72" fill="none" xmlns="http://www.w3.org/2000/svg">
<path fill-rule="evenodd" clip-rule="evenodd" d="M19.592 60.3712L20.6739 62.2827C20.6744 62.2837 20.6749 62.2846 20.6754 62.2856C21.4858 63.7268 20.972 65.5661 19.5388 66.3756L15.9692 68.3988C15.968 68.3995 15.9669 68.4001 15.9656 68.4008C14.5244 69.2111 12.6851 68.6974 11.8753 67.2636L1.37788 48.7148C0.560329 47.2723 1.07407 45.4315 2.50885 44.6211L6.08273 42.5978L6.08372 42.5972C7.51807 41.7872 9.35788 42.2965 10.1746 43.7307L10.1761 43.7334L11.0685 45.3102L20.5351 39.8293C23.3109 38.224 26.1453 37.1673 29.194 38.1572C29.8868 38.3818 30.6803 38.6662 31.5528 38.9819C31.0652 37.4203 30.8023 35.7615 30.8023 34.0432C30.8023 30.5891 31.8644 27.3745 33.6792 24.7096C33.3565 24.6499 33.0253 24.5889 32.6856 24.5268C32.1491 24.4287 31.7593 23.9611 31.7593 23.4157V12.6567L25.8635 11.0893C25.3687 10.9578 25.0242 10.5098 25.0242 9.99775C25.0244 9.48571 25.3688 9.03775 25.8638 8.90632L47.1505 3.25277C47.3406 3.20237 47.5405 3.20237 47.7304 3.25277L69.0172 8.90632C69.5122 9.03775 69.8567 9.48571 69.8568 9.99775C69.8568 10.5098 69.5123 10.9578 69.0175 11.0893L68.5662 11.2093V17.8833L70.448 18.9729C70.7968 19.1749 71.0115 19.5474 71.0115 19.9504V27.4117C71.0115 27.8398 70.7695 28.2311 70.3865 28.4223C70.0035 28.6134 69.5452 28.5716 69.2032 28.3143L67.4368 26.9857L65.6704 28.3143C65.3281 28.5716 64.87 28.6134 64.487 28.4223C64.104 28.2311 63.862 27.8398 63.862 27.4117V19.9504C63.862 19.5474 64.0768 19.1749 64.4255 18.9729L66.3073 17.8833V11.8098L63.1217 12.6567V23.4157C63.1217 23.9611 62.7319 24.4287 62.1954 24.5268C61.8556 24.5889 61.5246 24.6499 61.2018 24.7096C63.0165 27.3745 64.0787 30.5891 64.0787 34.0432C64.0787 35.9614 63.7511 37.8056 63.1489 39.523C65.8008 38.6872 67.7023 39.0543 68.9298 39.8779C70.3825 40.8524 71.0528 42.5179 71.0095 44.1516C70.9656 45.8004 70.1845 47.3779 68.8913 48.1743L45.7947 62.3946C43.3979 63.8738 40.7726 64.2205 38.0528 63.4949L38.0516 63.4946L21.7494 59.1256L19.592 60.3712ZM12.181 47.2761L18.4794 58.4053L21.025 56.9354C21.2845 56.7856 21.5928 56.7451 21.8822 56.8226L38.6353 61.3126C40.7332 61.8721 42.7595 61.6134 44.6084 60.4724L44.6094 60.4717L67.7068 46.2509C68.3393 45.8614 68.675 45.0818 68.7412 44.2799C68.8427 43.0483 68.2601 41.6917 66.7365 41.3725C65.367 41.0855 63.4362 41.5309 60.8118 43.0599L48.0836 50.4729C46.0707 51.6459 43.9607 51.9694 41.6615 51.6033C41.6602 51.6032 41.6589 51.6029 41.6576 51.6027L40.0794 51.3459C40.079 51.3458 40.0784 51.3458 40.078 51.3457C40.0628 51.3431 40.0475 51.3404 40.0324 51.3373C40.0319 51.3372 40.0313 51.337 40.0309 51.3369C37.1609 50.7478 34.4993 49.8807 31.5457 49.087C30.9438 48.9252 30.5863 48.305 30.7481 47.703C30.9099 47.1011 31.5299 46.7437 32.1319 46.9055C35.0242 47.6828 37.6313 48.535 40.4394 49.1149C41.9417 49.2836 43.0358 48.6531 43.381 47.3676L43.3811 47.367C43.732 46.0627 42.9175 44.7945 41.6479 44.3497C36.5493 43.4155 31.5577 41.2983 28.497 40.3058L28.4966 40.3057C26.0805 39.5211 23.8659 40.5125 21.6661 41.7846L12.181 47.2761ZM34.3496 39.9824C36.7221 40.807 39.4118 41.6504 42.1311 42.1417C42.1808 42.1507 42.23 42.1631 42.2781 42.1787C44.7361 42.9745 46.2337 45.4576 45.5624 47.9535C45.4289 48.4511 45.239 48.903 44.9969 49.3037C45.6628 49.1487 46.3111 48.8914 46.9464 48.5213L59.6749 41.1081C59.8134 41.0274 59.9504 40.9494 60.0861 40.874C61.1914 38.8401 61.8199 36.5125 61.8199 34.0432C61.8199 30.7009 60.668 27.6181 58.7416 25.1715C55.3842 25.8102 53.0977 26.2761 51.3027 26.5693C52.0249 27.1391 52.6333 27.908 53.0472 28.8922C53.2888 29.467 53.0183 30.1295 52.4437 30.3711C51.8691 30.6126 51.2064 30.3423 50.9648 29.7677C50.0592 27.6135 47.6528 27.1583 45.9199 27.8405C44.8732 28.2526 44.0521 29.1098 44.1114 30.339C44.1594 31.3191 44.7768 31.8911 45.5327 32.2606C46.1814 32.5779 46.931 32.7581 47.6376 32.8744C50.2403 33.3002 53.1335 34.4416 53.5112 37.5361L53.5114 37.5376C53.8868 40.647 51.2228 42.3526 48.5699 42.7184V43.8588C48.5699 44.4821 48.0638 44.9882 47.4405 44.9882C46.8172 44.9882 46.3111 44.4821 46.3111 43.8588V42.7023C44.0074 42.3404 41.9728 40.9074 41.3704 38.4876C41.2197 37.8826 41.5885 37.2694 42.1934 37.1187C42.7982 36.9681 43.4116 37.337 43.5623 37.9418C44.0156 39.763 45.8366 40.575 47.6159 40.5331C48.5517 40.5109 49.5919 40.2716 50.3596 39.7424C50.9681 39.3229 51.3752 38.6923 51.2689 37.809C51.1615 36.931 50.6658 36.363 50.0246 35.9762C49.2164 35.4887 48.204 35.2559 47.2729 35.1036L47.2718 35.1035C44.7401 34.6866 42.0024 33.4586 41.8553 30.4489V30.4483C41.7758 28.8025 42.4889 27.4746 43.6224 26.5765C41.8208 26.2837 39.5243 25.8155 36.1395 25.1715C34.213 27.6181 33.0611 30.7009 33.0611 34.0432C33.0611 36.1587 33.5224 38.1704 34.3496 39.9824ZM34.0182 13.2571V22.4752C49.7188 25.3805 45.1622 25.3805 60.8629 22.4752V13.2571L47.7306 16.7481C47.5405 16.7986 47.3404 16.7986 47.1504 16.7481L34.0182 13.2571ZM47.4405 5.513L30.5517 9.99832L47.4405 14.488L64.3293 9.99832L47.4405 5.513ZM67.4368 19.8395L66.1208 20.6014V25.149L66.7578 24.6699C67.1599 24.3675 67.7136 24.3675 68.1157 24.6699L68.7527 25.149V20.6014L67.4368 19.8395ZM8.21139 44.8479L8.21026 44.846C8.0064 44.4911 7.55068 44.3631 7.19478 44.564L3.62174 46.5867L3.62075 46.5873C3.26555 46.7879 3.14075 47.2441 3.34306 47.601L3.34348 47.6017L13.8412 66.151L13.8416 66.1518C14.0428 66.508 14.5 66.6328 14.8578 66.4322L18.4251 64.4104L18.4265 64.4096C18.7827 64.2084 18.9076 63.7511 18.7069 63.3932L8.21139 44.8479ZM6.75416 46.866C7.56438 46.7454 8.31671 47.3048 8.43727 48.115C8.55303 48.9252 7.99355 49.6823 7.18348 49.7981C6.37327 49.9186 5.62094 49.3544 5.50038 48.5443C5.38461 47.7341 5.94395 46.9818 6.75416 46.866Z" fill="#F7F5EF"/>
</svg>
