<svg width="99" height="99" viewBox="0 0 99 99" fill="none" xmlns="http://www.w3.org/2000/svg">
<mask id="path-1-inside-1_2020_884" fill="white">
<path d="M0 0H87C93.6274 0 99 5.37258 99 12V99C44.3238 99 0 54.6762 0 0Z"/>
</mask>
<path d="M0 0H99H0ZM99 99H0H99ZM97 99C42.3238 99 -2 54.6762 -2 0H2C2 54.6762 45.4284 99 99 99H97ZM99 0V99V0Z" fill="url(#paint0_linear_2020_884)" mask="url(#path-1-inside-1_2020_884)"/>
<mask id="path-3-inside-2_2020_884" fill="white">
<path d="M99 75C57.5786 75 24 41.4214 24 0L87 -2.75382e-06C93.6274 -3.04351e-06 99 5.37258 99 12L99 75Z"/>
</mask>
<path d="M24 75L24 0L24 75ZM99 -3.27835e-06L99 75L99 -3.27835e-06ZM99 77C57.5786 77 24 43.4214 24 2L24 0C24 40.3168 57.5786 73 99 73L99 77ZM24 0L99 -3.27835e-06L24 0Z" fill="url(#paint1_linear_2020_884)" mask="url(#path-3-inside-2_2020_884)"/>
<defs>
<linearGradient id="paint0_linear_2020_884" x1="49.5" y1="0" x2="49.5" y2="99" gradientUnits="userSpaceOnUse">
<stop stop-color="#FB995A"/>
<stop offset="1" stop-color="#596EFF"/>
</linearGradient>
<linearGradient id="paint1_linear_2020_884" x1="24" y1="37.5" x2="99" y2="37.5" gradientUnits="userSpaceOnUse">
<stop stop-color="#FB995A"/>
<stop offset="1" stop-color="#596EFF"/>
</linearGradient>
</defs>
</svg>
