<svg width="98" height="32" viewBox="0 0 98 32" fill="none" xmlns="http://www.w3.org/2000/svg">
<path fill-rule="evenodd" clip-rule="evenodd" d="M9.77991 9.65698C4.84052 9.65698 0.859375 13.6381 0.859375 18.4298C0.859375 23.2215 4.84052 27.2027 9.77991 27.2027C14.7193 27.2027 18.6999 23.2215 18.6999 18.4298C18.6999 13.6381 14.7193 9.65698 9.77991 9.65698ZM9.77991 26.2439C6.09364 26.2439 3.07124 22.7058 3.07124 18.3567C3.07124 13.933 6.09415 10.3944 9.77991 10.3944C13.4657 10.3944 16.4886 13.933 16.4886 18.3567C16.4886 22.7058 13.4662 26.2439 9.77991 26.2439Z" fill="#5E5E5E"/>
<path fill-rule="evenodd" clip-rule="evenodd" d="M6.82812 25.3588C8.59741 20.862 13.7581 24.2534 14.4214 26.7601C15.8222 31.0362 18.4026 31.8472 21.2037 29.1928C18.6234 34.1321 13.9053 31.5518 12.7993 29.0461C11.3249 24.7701 9.77693 22.5577 6.82812 25.3588Z" fill="#5E5E5E"/>
<path fill-rule="evenodd" clip-rule="evenodd" d="M33.2961 6.56097V14.9653C33.2961 15.5551 33.3702 15.8505 33.5174 15.9977C33.6651 16.1449 34.0336 16.2184 34.4762 16.2184V16.5138C34.0336 16.6615 33.5915 16.8082 33.149 17.0295C32.6328 17.1772 32.1171 17.3985 31.5269 17.6193H31.3797V15.7759C30.7899 16.5133 30.2001 17.029 29.684 17.3244C29.0942 17.6187 28.5045 17.7664 27.767 17.7664C27.0295 17.7664 26.3662 17.5451 25.85 17.2498C25.3338 16.9554 24.8918 16.4387 24.5969 15.923C24.4492 15.5546 24.3756 15.2592 24.302 14.8171C24.2284 14.4486 24.2284 13.8589 24.2284 13.0478V8.03486C24.2284 7.59279 24.1543 7.37099 23.9335 7.22381C23.7864 7.15021 23.4174 7.07663 22.8281 7.00252V6.56046H26.1454V12.753C26.1454 14.3009 26.2926 15.3333 26.6611 15.8495C27.0295 16.3651 27.6929 16.5864 28.6516 16.5864C29.1673 16.5864 29.6835 16.4387 30.1996 16.1443C30.6417 15.7759 31.0843 15.3333 31.3792 14.6699V8.47744C31.3792 7.88768 31.305 7.4451 31.1579 7.29791C31.0102 7.07662 30.6417 7.00303 30.1255 7.00303H30.0519V6.56097H33.2961ZM36.9088 16.8823V13.8594H37.4245C37.6458 15.0389 38.0142 15.85 38.4568 16.3656C38.8989 16.8823 39.415 17.1767 40.1525 17.1767C40.8159 17.1767 41.332 16.9554 41.7741 16.5133C42.1426 16.1443 42.3638 15.6287 42.3638 14.9648C42.3638 14.4492 42.2162 14.0066 41.9213 13.7117C41.6264 13.3432 41.0366 12.9007 40.152 12.4581C38.8248 11.7947 37.9401 11.2785 37.5716 10.8365C37.2032 10.3944 37.056 9.80466 37.056 9.2149C37.056 8.33025 37.4245 7.59331 38.0878 7.07714C38.6776 6.56097 39.5622 6.26609 40.6682 6.26609C41.1843 6.26609 41.7 6.33968 42.2162 6.48738C42.7323 6.63456 43.2485 6.78226 43.7641 7.07714V9.73106H43.2485C43.1008 8.84642 42.8064 8.10948 42.2903 7.51972C41.7741 7.00355 41.1843 6.70866 40.4469 6.70866C39.9312 6.70866 39.4886 6.85636 39.1196 7.15073C38.7512 7.44561 38.6035 7.88767 38.6035 8.33025C38.6035 8.99361 39.1196 9.65696 40.152 10.1731C40.2256 10.2467 40.2997 10.2467 40.3733 10.3203C40.4469 10.3944 40.6682 10.468 40.963 10.6152C43.1744 11.7947 44.2067 12.9742 44.2067 14.2274C44.2067 15.2592 43.8383 16.1443 43.0272 16.7341C42.2897 17.3975 41.2579 17.6918 40.0043 17.6918C39.4145 17.6918 38.9725 17.6182 38.3822 17.5452C37.867 17.398 37.4245 17.1767 36.9088 16.8823ZM47.5245 1.25311C47.5245 0.884641 47.6717 0.589245 47.893 0.36847C48.1879 0.0735894 48.4828 0 48.8512 0C49.2197 0 49.5151 0.0735894 49.8095 0.36847C50.0308 0.589759 50.1784 0.884641 50.1784 1.25311C50.1784 1.62159 50.0308 1.91647 49.8095 2.21135C49.5151 2.43264 49.2197 2.57982 48.8512 2.57982C48.4828 2.57982 48.1879 2.43212 47.9666 2.21135C47.6717 1.91647 47.5245 1.62159 47.5245 1.25311ZM50.0308 6.26609V15.5546C50.0308 16.1443 50.1054 16.5864 50.252 16.7341C50.4733 16.8818 50.8418 16.9554 51.4321 16.9554V17.471H46.6399V16.9554C47.156 16.9554 47.5245 16.8077 47.7458 16.661C47.8935 16.4387 47.9671 15.923 47.9671 15.1125V9.50978C47.9671 8.99412 47.8935 8.62514 47.7458 8.40385C47.5981 8.18256 47.3037 7.96178 46.7876 7.74049V7.44561C47.3037 7.29843 47.8194 7.15073 48.262 6.92995C48.7781 6.78226 49.2202 6.48789 49.7364 6.2666H50.0308V6.26609ZM53.5698 16.9554C54.2332 16.8818 54.6022 16.8077 54.7488 16.661C54.8965 16.5133 54.9701 16.1443 54.9701 15.4074V9.50978C54.9701 8.99412 54.8965 8.62514 54.6758 8.40385C54.5281 8.18256 54.2337 7.96178 53.7911 7.74049V7.44561C54.3068 7.29843 54.8235 7.15073 55.2655 6.92995C55.7389 6.72304 56.2059 6.50182 56.6658 6.2666H56.8881V8.25718C57.5515 7.51972 58.1407 7.00355 58.6574 6.70918C59.1731 6.4143 59.8364 6.26712 60.4998 6.26712C61.7534 6.26712 62.6375 6.63559 63.2278 7.44664C63.7445 8.25769 64.0389 9.51081 64.0389 11.2801V16.0723C64.0389 16.3667 64.1125 16.6621 64.2602 16.7356C64.4079 16.8833 64.7758 16.9569 65.4392 16.9569L65.5138 17.4726H60.8693V16.9569C61.459 16.9569 61.828 16.8833 61.9747 16.7356C62.0493 16.6621 62.1224 16.4402 62.1224 16.0723V10.6893C62.1224 9.58388 61.9747 8.69873 61.5326 8.18256C61.1637 7.5928 60.5749 7.3715 59.7634 7.3715C59.1 7.3715 58.5833 7.5192 58.1413 7.81408C57.6256 8.10896 57.2566 8.55154 56.8887 9.14079V15.5546C56.8887 16.2179 56.9622 16.5864 57.183 16.7341C57.3307 16.8818 57.6987 16.9554 58.2884 16.9554V17.471H53.5703L53.5698 16.9554ZM73.9897 9.36208C74.2851 9.36208 74.5064 9.36208 74.6541 9.21438C74.8007 9.06668 74.8754 8.9195 74.8754 8.62462C74.8754 8.10845 74.6541 7.66587 74.212 7.37099C73.7689 7.00252 73.1797 6.78123 72.4422 6.78123C72.3686 6.78123 72.2209 6.78123 72.1478 6.85534V6.26557H72.8112C74.0648 6.26557 75.1702 6.63405 76.0549 7.2974C77.0136 8.03486 77.4562 8.7718 77.4562 9.58286C77.4562 9.73004 77.4562 9.87773 77.3816 9.95133C77.308 10.0249 77.2349 10.0249 77.0136 10.0249H72.1478V9.36157L73.9897 9.36208ZM72.1473 17.7664V15.9972C72.5163 16.1443 72.9584 16.1443 73.474 16.1443C74.3587 16.1443 75.0961 15.923 75.8331 15.481C76.4964 15.0384 77.0131 14.3751 77.3075 13.564L77.8231 13.7117C77.3811 14.9648 76.7177 15.9972 75.8331 16.661C74.8754 17.398 73.7684 17.7664 72.5163 17.7664H72.1473ZM72.1473 6.85585C71.5576 6.92944 70.9673 7.15073 70.5252 7.5192C70.0096 7.96127 69.6406 8.62514 69.4198 9.36259H72.1478V10.0259H69.2721C69.1985 10.5416 69.1985 10.9106 69.1254 11.2055V11.8693C69.1254 13.1225 69.4934 14.1543 70.3791 14.9653C70.8947 15.4815 71.4845 15.7764 72.1483 15.9977V17.767C70.747 17.6923 69.6416 17.1772 68.757 16.2179C67.7246 15.1866 67.209 13.8594 67.209 12.3114C67.209 10.468 67.7246 8.99412 68.757 7.88767C69.568 6.92944 70.747 6.41327 72.1483 6.26609V6.85585H72.1473ZM79.8878 16.8823V13.8594H80.4035C80.6989 15.0389 80.9932 15.85 81.4358 16.3656C81.8779 16.8823 82.4682 17.1767 83.1315 17.1767C83.7949 17.1767 84.3851 16.9554 84.7536 16.5133C85.1957 16.1443 85.417 15.6287 85.417 14.9648C85.417 14.4492 85.2693 14.0066 84.9749 13.7117C84.6059 13.3432 84.0161 12.9007 83.2056 12.4581C81.8043 11.7947 80.9932 11.2785 80.6242 10.8365C80.2474 10.3797 80.0394 9.80705 80.035 9.2149C80.035 8.33025 80.403 7.59331 81.0673 7.07714C81.7307 6.56097 82.6153 6.26609 83.6477 6.26609C84.2369 6.26609 84.7531 6.33968 85.2687 6.48738C85.7854 6.63456 86.3011 6.78226 86.7431 7.07714V9.73106H86.2275C86.1529 8.84642 85.8585 8.10948 85.3428 7.51972C84.8262 7.00355 84.2364 6.70866 83.4995 6.70866C82.9097 6.70866 82.4671 6.85636 82.0981 7.15073C81.8038 7.44561 81.5825 7.88767 81.5825 8.33025C81.5825 8.99361 82.0981 9.65696 83.2046 10.1731C83.2782 10.2467 83.3512 10.2467 83.3512 10.3203C83.4989 10.3944 83.7202 10.468 84.0146 10.6152C86.1524 11.7947 87.2593 12.9742 87.2593 14.2274C87.2593 15.2592 86.8903 16.1443 86.0793 16.7341C85.2682 17.3975 84.2359 17.6918 82.9833 17.6918C82.4666 17.6918 81.9509 17.6182 81.4343 17.5452C80.8941 17.3869 80.3749 17.1644 79.8878 16.8823ZM89.7666 16.8823V13.8594H90.2833C90.5046 15.0389 90.8725 15.85 91.3156 16.3656C91.7577 16.8823 92.2733 17.1767 93.0103 17.1767C93.6746 17.1767 94.1903 16.9554 94.6324 16.5133C95.0014 16.1443 95.2221 15.6287 95.2221 14.9648C95.2221 14.4492 95.0744 14.0066 94.7801 13.7117C94.4847 13.3432 93.8954 12.9007 93.0103 12.4581C91.6836 11.7947 90.7989 11.2785 90.4299 10.8365C90.062 10.3944 89.9143 9.80466 89.9143 9.2149C89.9143 8.33025 90.2833 7.59331 90.9466 7.07714C91.61 6.56097 92.421 6.26609 93.5269 6.26609C94.0426 6.26609 94.5593 6.33968 95.0749 6.48738C95.5906 6.63456 96.1073 6.78226 96.6229 7.07714V9.73106H96.1073C96.0337 8.84642 95.6652 8.10948 95.1485 7.51972C94.6329 7.00355 94.0431 6.70866 93.3062 6.70866C92.7895 6.70866 92.3474 6.85636 91.9795 7.15073C91.6105 7.44561 91.4628 7.88767 91.4628 8.33025C91.4628 8.99361 91.9795 9.65696 93.0108 10.1731C93.0854 10.2467 93.1585 10.2467 93.2321 10.3203L93.8218 10.6152C96.0342 11.7947 97.1396 12.9742 97.1396 14.2274C97.1396 15.2592 96.6976 16.1443 95.886 16.7341C95.148 17.3975 94.1167 17.6918 92.8636 17.6918C92.3469 17.6918 91.8313 17.6182 91.2415 17.5452C90.7253 17.398 90.2833 17.1767 89.7666 16.8823Z" fill="#202020"/>
<path fill-rule="evenodd" clip-rule="evenodd" d="M27.6205 21.747V26.8341C27.6205 27.2031 27.6941 27.4238 27.7677 27.4974C27.9154 27.572 28.1362 27.6451 28.5052 27.6451V27.7928C28.1367 27.8664 27.8418 28.0141 27.4728 28.0872C27.1044 28.2349 26.7354 28.3085 26.3674 28.4562H26.2197V27.3508C25.7777 27.7928 25.3351 28.0877 24.9666 28.3085C24.5152 28.4595 24.0418 28.5343 23.5658 28.5298C23.0496 28.5298 22.6071 28.4562 22.165 28.2354C21.7965 28.0141 21.4275 27.7933 21.2803 27.4244C21.1326 27.2031 21.0591 26.9823 21.0591 26.761C20.9855 26.5397 20.9855 26.1712 20.9855 25.7287V22.6316C20.9855 22.4103 20.9119 22.2637 20.7642 22.1896C20.6906 22.116 20.3957 22.0429 19.9531 22.0429V21.7475H22.3858V25.5079C22.3858 26.4656 22.5335 27.0559 22.7542 27.3513C23.0491 27.7192 23.4917 27.8669 24.155 27.8669C24.5976 27.8669 24.9661 27.7192 25.3346 27.5726C25.6987 27.3558 26.0028 27.0513 26.2192 26.6869V22.9275C26.2192 22.5586 26.1456 22.3378 25.9979 22.1896C25.9238 22.116 25.6295 22.0429 25.2605 22.0429H25.1869V21.7475L27.6205 21.747ZM34.919 23.5168C35.1403 23.5168 35.2874 23.4422 35.4351 23.3691C35.5087 23.2955 35.5823 23.1478 35.5823 23.0001C35.5823 22.7057 35.4351 22.4103 35.0662 22.2632C34.7713 22.0419 34.3287 21.8942 33.813 21.8942C33.7394 21.8942 33.6653 21.8942 33.5918 21.9678V21.5998H34.1074C34.992 21.5998 35.8031 21.8211 36.4665 22.1891C37.1298 22.6311 37.4983 23.0747 37.4983 23.5904C37.4983 23.664 37.4983 23.7381 37.4242 23.8117C37.3506 23.8853 37.277 23.8853 37.1293 23.8853H33.5907V23.5173L34.919 23.5168ZM33.5918 28.5298V27.4974C33.8866 27.572 34.1815 27.572 34.55 27.572C35.2139 27.572 35.8036 27.4244 36.3193 27.2031C36.7613 26.9077 37.1303 26.4651 37.4247 26.023L37.7201 26.0971C37.4252 26.8341 36.9826 27.4974 36.2457 27.9395C35.5818 28.3816 34.7713 28.5293 33.8866 28.5293L33.5918 28.5298ZM33.5918 21.9678C33.1497 21.9678 32.7807 22.116 32.4122 22.3373C32.0438 22.6316 31.7484 23.0006 31.6012 23.5173H33.5918V23.8853H31.5276C31.454 24.1807 31.454 24.4019 31.3804 24.5486V24.9917C31.3804 25.7287 31.6753 26.392 32.265 26.8341C32.6335 27.1284 33.0756 27.3508 33.5918 27.4974V28.5298C32.6335 28.5298 31.7489 28.1608 31.0855 27.6451C30.3481 26.9818 29.9796 26.1707 29.9796 25.2861C29.9796 24.106 30.3481 23.2214 31.0855 22.558C31.8041 21.991 32.6786 21.6568 33.5923 21.6003V21.9683L33.5918 21.9678ZM43.9867 23.5168C44.208 23.5168 44.3552 23.4422 44.4287 23.3691C44.5759 23.2955 44.5759 23.1478 44.5759 23.0001C44.5759 22.7057 44.4287 22.4103 44.1339 22.2632C43.7654 22.0419 43.3964 21.8942 42.8802 21.8942C42.8066 21.8942 42.6589 21.8942 42.5859 21.9678V21.5998H43.1015C44.0598 21.5998 44.7967 21.8211 45.5342 22.1891C46.1975 22.6311 46.5665 23.0747 46.5665 23.5904C46.5665 23.664 46.4924 23.7381 46.4924 23.8117C46.4188 23.8853 46.3452 23.8853 46.1975 23.8853H42.5854V23.5173L43.9867 23.5168ZM42.5864 28.5298V27.4974C42.8808 27.572 43.2497 27.572 43.5446 27.572C44.1534 27.5713 44.7556 27.4457 45.3139 27.2031C45.7899 26.9262 46.1744 26.516 46.4198 26.023L46.7883 26.0971C46.4934 26.8341 45.9773 27.4974 45.3139 27.9395C44.5764 28.3816 43.7659 28.5293 42.8808 28.5293L42.5864 28.5298ZM42.5864 21.9683C42.2174 21.9683 41.7753 22.116 41.4805 22.3373C41.0384 22.6316 40.8171 23.0006 40.5958 23.5173H42.5864V23.8853H40.5222C40.5222 24.1807 40.4481 24.4019 40.4481 24.5486V24.9917C40.4481 25.7287 40.743 26.392 41.3328 26.8341C41.7012 27.1284 42.1438 27.3508 42.5864 27.4974V28.5298C41.6276 28.5298 40.8171 28.1608 40.1532 27.6451C39.4158 26.9818 39.0473 26.1707 39.0473 25.2861C39.0473 24.106 39.4158 23.2214 40.1532 22.558C40.8166 22.0424 41.6276 21.6734 42.5864 21.6003V21.9683ZM48.1886 28.0872C48.6307 28.0136 48.9997 27.9395 49.0732 27.8659C49.1474 27.7923 49.2209 27.5715 49.2209 27.1279V23.5168C49.2209 23.2214 49.1474 23.0001 48.9997 22.8534C48.9261 22.7057 48.7048 22.6311 48.3363 22.4845V22.3368C48.7048 22.1891 49.0732 22.1155 49.4422 21.9678C49.8102 21.8942 50.1056 21.7465 50.4735 21.5998H50.6212V22.7788C51.0078 22.3888 51.456 22.0652 51.948 21.8211C52.3169 21.6734 52.759 21.5998 53.2757 21.5998C54.1603 21.5998 54.8237 21.8211 55.2657 22.3368C55.6347 22.7788 55.8555 23.5904 55.8555 24.6222V27.4969C55.8555 27.7182 55.9291 27.8659 56.0022 27.939C56.0768 28.0136 56.3712 28.0136 56.8879 28.0867V28.381H53.4965V28.0867C53.9385 28.0131 54.2334 28.0131 54.3065 27.939C54.3811 27.8654 54.4542 27.7177 54.4542 27.4969V24.3268C54.4542 23.5899 54.3065 23.0742 54.0121 22.7788C53.7177 22.4098 53.2752 22.2632 52.6854 22.2632C52.2433 22.2632 51.8744 22.3368 51.5054 22.4845C51.211 22.7057 50.842 22.9265 50.6207 23.2955V27.2025C50.6207 27.5715 50.6943 27.8659 50.842 27.9395C50.9166 28.0141 51.211 28.0872 51.58 28.0872V28.3816H48.1886V28.0872ZM58.4364 28.0141V26.1707H58.8043C58.952 26.9077 59.1733 27.4243 59.5423 27.7187C59.8367 28.0141 60.2792 28.1608 60.7959 28.1608C61.238 28.1608 61.607 28.0872 61.9749 27.7928C62.2703 27.5715 62.417 27.2031 62.417 26.8341C62.417 26.5397 62.2703 26.3184 62.049 26.0971C61.8277 25.8758 61.4593 25.6551 60.7954 25.3592C59.7631 24.9171 59.1733 24.6222 58.8784 24.3268C58.6571 24.0324 58.5094 23.7376 58.5094 23.3691C58.5094 22.8534 58.7307 22.4103 59.2474 22.0424C59.7631 21.747 60.3528 21.6003 61.1634 21.6003C61.5324 21.6003 61.9013 21.6003 62.3434 21.6739C62.7124 21.8216 63.0803 21.8952 63.4488 22.116V23.664H63.0798C62.9332 23.1483 62.7119 22.7063 62.3429 22.3373C61.9739 22.0429 61.5318 21.8952 61.0162 21.8952C60.5741 21.8952 60.2782 21.9688 60.0574 22.1165C59.7631 22.3378 59.6154 22.5586 59.6154 22.8545C59.6154 23.2224 60.0574 23.5914 60.7954 23.9599C60.869 23.9599 60.869 24.0335 60.9421 24.0335C61.0167 24.0335 61.1634 24.1071 61.3841 24.2548C63.0062 24.9181 63.7442 25.6561 63.7442 26.4661C63.7442 27.0559 63.4488 27.5726 62.8585 27.9405C62.3429 28.3095 61.6059 28.5303 60.6472 28.5303C60.2782 28.5303 59.9102 28.4567 59.4682 28.3826C59.0997 28.3085 58.7307 28.1608 58.4364 28.0141ZM67.9456 27.2025C67.9456 27.5715 68.0202 27.8659 68.0933 27.9395C68.241 28.0141 68.5354 28.0872 68.9044 28.0872V28.3816H65.513V28.0872C65.955 28.0872 66.1763 28.0136 66.324 27.8659C66.4707 27.7182 66.5453 27.4238 66.5453 26.9813V19.7569C66.5453 19.4626 66.4707 19.1672 66.324 19.0936C66.2494 18.9459 66.0286 18.7992 65.6597 18.7246V18.5033C66.0286 18.4297 66.3976 18.282 66.7661 18.2089C67.1341 18.0612 67.4294 17.9135 67.7984 17.7669H67.9451L67.9456 27.2025ZM74.7284 27.0548V24.8435C74.1386 24.9912 73.623 25.1379 73.254 25.3592V24.9171C73.696 24.7704 74.2127 24.6227 74.802 24.4014V22.927C74.802 22.6316 74.6553 22.4103 74.5076 22.2637C74.3599 22.116 74.0656 22.0424 73.6966 22.0424H73.2545V21.6734C73.5489 21.5998 73.9914 21.5998 74.3599 21.5998C75.0233 21.5998 75.4653 21.6734 75.7612 21.9678C76.0556 22.2632 76.2033 22.8534 76.2033 23.7376V27.4233C76.2033 27.571 76.2769 27.6446 76.2769 27.7177C76.3515 27.7923 76.4982 27.7923 76.5723 27.7923C76.719 27.7923 76.8667 27.7923 76.9403 27.6446C77.0149 27.571 77.0149 27.4969 77.0879 27.2756H77.3823C77.3823 27.6446 77.2357 27.939 76.9403 28.1603C76.719 28.3816 76.351 28.4557 75.9825 28.4557C75.6141 28.4557 75.3192 28.381 75.0979 28.2344C74.8025 28.0131 74.7289 27.7923 74.6558 27.4964C74.2138 27.7918 73.7702 28.0862 73.3281 28.2344C73.3281 28.308 73.2545 28.308 73.2545 28.308V27.7182C73.4022 27.6446 73.6235 27.6446 73.8443 27.5715C74.065 27.4974 74.3594 27.3508 74.7284 27.0548ZM73.254 25.3592C72.885 25.5069 72.5906 25.6545 72.3693 25.7281C71.9273 26.0225 71.706 26.3179 71.706 26.6128C71.706 26.9077 71.8537 27.2025 72.075 27.4238C72.3693 27.5715 72.7383 27.7182 73.1063 27.7182H73.254V28.308C72.9031 28.452 72.5278 28.5271 72.1486 28.5293C71.6319 28.5293 71.2639 28.3816 70.8949 28.1603C70.6006 27.939 70.4529 27.571 70.4529 27.2025C70.4529 26.6128 70.7472 26.1702 71.3375 25.8012C71.7065 25.5069 72.3699 25.212 73.2545 24.9166V25.3592H73.254ZM73.254 21.6734V22.0424C72.9596 22.116 72.7383 22.1891 72.517 22.2637C72.2216 22.4103 72.075 22.6316 72.075 22.8534C72.075 23.2955 72.0004 23.6635 71.8537 23.8112C71.706 24.0324 71.4847 24.1055 71.1157 24.1055C70.8944 24.1055 70.7467 24.0319 70.6001 23.9589C70.5254 23.8842 70.4524 23.7376 70.4524 23.5168C70.4524 23.1478 70.8944 22.7057 71.706 22.2632C72.2216 21.9683 72.7383 21.8211 73.254 21.6734ZM78.4888 28.0872C79.0044 28.0136 79.2988 27.9395 79.3734 27.8659C79.5201 27.7923 79.5201 27.5715 79.5201 27.1279V23.5168C79.5234 23.2873 79.4732 23.0602 79.3734 22.8534C79.2257 22.7057 79.0044 22.6311 78.6354 22.4845V22.3368C79.0775 22.1891 79.4465 22.1155 79.7409 21.9678C80.1098 21.8942 80.4788 21.7465 80.7732 21.5998H80.9945L80.9209 22.7788C81.3074 22.3888 81.7557 22.0652 82.2476 21.8211C82.6166 21.6734 83.0586 21.5998 83.5743 21.5998C84.4589 21.5998 85.1223 21.8211 85.5654 22.3368C85.9333 22.7788 86.1546 23.5904 86.1546 24.6222V27.4969C86.1546 27.7182 86.2293 27.8659 86.3023 27.939C86.45 28.0136 86.7444 28.0136 87.187 28.0867L87.2616 28.381H83.7961V28.0867C84.2382 28.0131 84.5341 28.0131 84.6072 27.939C84.7549 27.8654 84.7549 27.7177 84.7549 27.4969V24.3268C84.7549 23.5899 84.6072 23.0742 84.3859 22.7788C84.0915 22.4098 83.6489 22.2632 82.9856 22.2632C82.5435 22.2632 82.1745 22.3368 81.8055 22.4845C81.5112 22.7057 81.2158 22.9265 80.9209 23.2955V27.2025C80.9209 27.5715 80.9945 27.8659 81.1422 27.9395C81.2899 28.0141 81.5112 28.0872 81.9532 28.0872V28.3816H78.4888V28.0872ZM94.7808 27.0548V24.6222C94.7808 23.7376 94.6331 23.0742 94.2641 22.6311C93.8962 22.1891 93.3064 21.9678 92.5684 21.9678H92.4948V21.5998H92.6425C92.9369 21.5998 93.2318 21.6734 93.6003 21.6734C93.9692 21.747 94.3382 21.8211 94.7803 21.9678V19.7564C94.7803 19.3874 94.7057 19.1667 94.559 19.0195C94.4113 18.8718 94.19 18.7982 93.821 18.7241V18.5028C94.19 18.4292 94.6321 18.3561 95.0011 18.2084C95.369 18.0607 95.738 17.913 96.1065 17.7664H96.2542V27.1279C96.2542 27.2756 96.3278 27.4233 96.4008 27.4969C96.4755 27.5715 96.6962 27.6446 97.0642 27.7182V27.8659C96.6221 28.0136 96.2542 28.0872 95.8852 28.2349C95.5898 28.3085 95.2218 28.3816 95.0005 28.4562H94.7793V27.4974C94.4103 27.7928 94.0413 28.0872 93.5992 28.3085C93.2302 28.3821 92.8623 28.5298 92.4938 28.5298V27.7187C92.6415 27.7187 92.7882 27.7933 92.9359 27.7933C93.3049 27.7933 93.5992 27.7187 93.9682 27.572C94.2641 27.4974 94.5595 27.2761 94.7808 27.0548ZM92.4948 21.9678C91.8315 21.9678 91.2412 22.2637 90.7991 22.7793C90.3571 23.296 90.1358 24.033 90.1358 24.9171C90.1358 25.7281 90.4302 26.3915 90.9468 26.9071C91.3889 27.4238 91.9046 27.6451 92.4948 27.7182V28.5293H92.2005C91.1681 28.5293 90.3571 28.2349 89.6201 27.5715C88.9557 26.9071 88.6614 26.0971 88.6614 25.0648C88.6614 24.0324 88.9557 23.1478 89.6937 22.558C90.4307 21.9683 91.3158 21.6729 92.4948 21.5998V21.9678Z" fill="#5E5E5E"/>
<path fill-rule="evenodd" clip-rule="evenodd" d="M18.5492 16.5869C18.9177 16.4392 19.2867 16.2925 19.581 16.0713C21.0554 15.2597 21.7193 14.0807 21.7193 12.385C21.7193 11.3532 21.3508 10.468 20.5398 9.73106C19.7287 9.06771 18.6228 8.62564 17.2961 8.40384C18.3279 8.10896 19.0654 7.5933 19.581 7.07713C20.0972 6.41326 20.3921 5.74991 20.3921 4.93938C20.3921 3.46497 19.8023 2.43263 18.5487 1.76928C17.7377 1.3267 16.4845 1.03182 14.9365 0.884638V1.54799C15.5263 1.69569 16.1161 1.99057 16.5581 2.28545C17.3692 2.9488 17.8118 3.83344 17.8118 5.01297C17.8118 6.19249 17.3697 7.07713 16.4845 7.66689C16.1161 7.96177 15.5263 8.18306 14.9365 8.33076V9.1413C16.1161 9.2154 17.0007 9.50977 17.5905 9.95235C18.4015 10.5421 18.8436 11.5003 18.8436 12.9012C18.8436 13.8594 18.5487 14.5963 18.1061 15.1866L18.5492 16.5869ZM14.9371 17.2503V16.661C15.4532 16.661 15.8953 16.5133 16.3379 16.4387L16.412 17.1031C15.9694 17.1767 15.4532 17.1767 14.9371 17.2503ZM14.9371 0.884123C14.2732 0.810017 13.5362 0.736938 12.7252 0.736938C12.4303 0.736938 11.6198 0.810529 10.4403 0.810529H7.34375V1.40029H7.49093C8.22839 1.40029 8.74456 1.47388 8.96534 1.62158C9.18663 1.84287 9.33381 2.28493 9.33381 3.02239V14.8912C9.33381 15.7023 9.18611 16.2179 8.96534 16.3656C8.74456 16.5133 8.22788 16.661 7.49093 16.661H7.34375V17.1767C7.93351 17.1767 8.74456 17.2503 9.7769 17.2503H14.9371V16.661C14.7158 16.7346 14.495 16.7346 14.1996 16.7346C13.3885 16.7346 12.7988 16.5869 12.5039 16.3656C12.209 16.1443 12.0618 15.7023 12.0618 15.1861V9.06719H13.5362C14.0519 9.06719 14.4945 9.06719 14.9371 9.14078V8.33025C14.2732 8.47743 13.5362 8.55154 12.6521 8.55154H12.0624V1.3267H12.8734C13.6104 1.3267 14.3478 1.4008 14.9376 1.54799V0.884123H14.9371Z" fill="#202020"/>
</svg>
