<svg width="106" height="26" viewBox="0 0 106 26" fill="none" xmlns="http://www.w3.org/2000/svg">
<g clip-path="url(#clip0_3_1402)">
<path d="M22.6654 0.617003C20.0757 0.59383 17.6298 1.90259 17.6298 1.90259C17.6298 1.90259 15.1657 3.39498 14.2656 5.63117C14.2191 5.84837 9.33741 15.3162 9.33741 15.3162C3.14952 13.5269 0.157867 17.1525 0.252161 18.5519C1.74711 22.3022 9.0574 19.6344 9.7873 18.7661C10.1913 18.5494 10.4517 18.8089 10.4517 18.8089C10.4517 18.8089 12.242 20.0008 12.4443 20.0947C12.6465 20.1885 13.6658 20.0518 13.6658 20.0518C14.4585 19.9916 15.8729 18.4381 16.0442 18.4233C16.3086 18.4241 16.6274 20.1442 17.7156 20.1161C19.0213 20.3684 20.4369 18.8947 20.4369 18.8947C20.6232 18.631 20.694 18.8303 20.694 18.8303C20.664 20.4467 21.9767 20.1616 22.3652 20.1161C23.6553 19.5911 26.8151 16.4779 26.458 17.3948C26.3339 17.6432 25.3652 19.4517 25.3652 19.4517C25.2567 19.9336 25.6009 19.9018 25.6009 19.9018L27.8721 19.8803C28.2605 19.6481 30.2477 15.3688 30.015 15.9592C30.7311 14.663 32.3506 14.2021 32.3506 14.2021C32.5061 14.1558 32.4362 14.3734 32.4362 14.3734L29.7792 19.6446C29.7329 19.7841 29.9934 19.9232 29.9934 19.9232L32.3076 19.8803C32.6186 19.8503 34.5575 15.8734 34.5575 15.8734C35.0852 14.8643 36.9575 14.2878 36.9575 14.2878C37.2992 14.2264 37.0646 14.5663 37.0646 14.5663L35.2433 18.3804C34.9665 20.1121 36.4215 20.2136 37.0432 20.1375C37.6649 20.0461 38.6759 19.6959 40.6644 18.209C41.0687 17.8995 41.1573 18.2109 41.1573 18.2734C41.1744 20.4028 43.5143 20.1589 43.5143 20.1589C44.2138 20.3318 47.0533 20.2649 49.4282 15.5305C48.5599 18.7456 50.3302 19.6211 50.3926 19.7304C50.4549 19.8391 51.4066 20.1715 51.7638 20.0947C55.386 20.4157 56.9065 14.7807 56.9065 14.7807C57.7216 14.1692 57.9285 13.9937 58.2565 13.8163C59.065 13.8959 59.282 13.9188 59.6707 13.9664C59.9814 14.0762 59.6998 14.3663 59.6063 14.4591C55.9089 17.3403 57.5319 19.5621 57.6565 19.5161C59.2745 21.7122 62.6333 17.884 63.2705 17.8233C64.0811 21.059 66.5471 19.6504 66.6561 19.666C66.4388 20.3027 65.8064 21.8773 65.2633 22.9016C64.1295 24.4998 62.3491 22.7088 62.3491 22.7088L61.8991 22.6874C61.6817 22.9665 61.8134 23.2874 61.8134 23.2874C62.2801 24.0348 62.8777 25.0692 64.7276 25.323C66.5928 25.4059 67.6631 23.3516 67.6631 23.3516C67.6631 23.3516 70.2781 18.5267 70.4488 17.9518C71.241 17.239 72.6159 16.2098 73.6415 15.4663C74.3095 15.3284 71.9693 19.1441 71.7988 19.6874C71.7523 19.9984 71.863 20.009 71.863 20.009C71.863 20.009 73.6424 20.0974 73.9843 20.0518C74.3262 20.0061 75.9868 16.0608 76.577 15.3164C77.0894 14.4628 78.7412 13.6664 78.7412 13.6664C79.0987 13.5897 78.9769 14.0092 78.9769 14.0092L76.7914 18.4234C76.2641 20.2713 77.7484 20.2808 78.0127 20.2661C78.7276 20.2211 81.3982 18.6804 81.3982 18.6804C81.771 18.4015 81.7626 18.8519 81.7626 18.8519C81.7317 19.4426 82.3697 20.4103 82.8981 20.2874C84.7946 20.4635 87.6629 17.3132 87.7407 17.609C87.7566 17.6713 86.6693 19.8161 86.6693 19.8161C86.7161 19.9871 86.905 20.0732 86.905 20.0732C86.905 20.0732 88.7414 20.0934 89.1764 20.0947C89.6116 20.0959 91.5913 15.3651 92.0263 15.1019C92.9117 14.1874 93.8807 14.1006 93.9118 14.1163C94.2384 14.1019 92.0643 17.5743 91.9406 18.2732C91.4602 20.2773 92.8834 20.2446 92.8834 20.2446C94.0181 20.4189 96.8006 18.445 96.8474 18.616C97.1734 18.2908 97.2118 18.6804 97.2118 18.6804V18.8303C97.3997 20.4477 98.3475 20.266 98.3475 20.266C99.4357 20.5489 103.683 16.9876 103.683 16.9876L103.04 16.2806L100.383 18.209C100.166 18.3175 100.04 18.0805 100.04 18.0805L103.019 12.3378C103.158 12.1985 102.954 12.0378 102.954 12.0378H100.276C100.09 12.2392 99.976 12.3807 99.976 12.3807L97.5548 17.0949L94.8978 18.4019C94.6181 18.4786 94.6835 18.1877 94.6835 18.1877C94.6835 18.1877 96.8971 13.8435 97.0833 13.2378C97.2075 12.9584 97.1475 12.5093 97.1475 12.5093C96.4157 10.8127 93.4592 13.0091 93.0549 13.0236C93.0392 13.0391 93.4193 12.2522 93.4193 12.2522C93.528 12.0192 93.3122 12.0164 93.3122 12.0164L90.8265 11.995C90.8265 11.995 90.8339 11.8184 90.7407 11.9736C90.6475 12.1288 89.0481 15.1235 89.0481 15.1235L85.0411 18.1447C84.6991 18.2062 84.7839 17.9734 84.7839 17.9734L87.7195 12.295L87.7409 12.0593L84.9124 11.995L82.5768 16.4947C82.4526 16.6344 80.0057 18.0162 80.0057 18.0162C79.6325 18.1242 79.6199 17.8019 79.6199 17.8019L81.7841 13.6022C82.2743 11.9637 80.4843 11.482 79.5984 11.8021C78.9996 12.0179 78.4413 12.2093 78.4413 12.2093C78.4413 12.2093 78.2644 12.2554 78.4199 12.0378C78.6836 11.6655 81.4197 6.25239 81.4197 6.25239C81.4821 6.09689 81.3341 5.99524 81.3341 5.99524L78.8486 5.97383C78.6464 6.0662 78.6128 6.20956 78.6128 6.20956L75.0771 12.9164L72.163 15.1021C71.9765 15.2259 71.9701 15.0162 71.9701 15.0162L73.4272 12.2522V11.9734L70.813 11.952L70.3844 12.2948C70.0887 11.6722 68.5885 11.6795 68.5417 11.6949C65.4017 11.5926 63.6347 16.0447 63.6347 16.0447C61.8876 17.5593 61.0803 18.0306 60.5064 18.1231C60.0289 18.15 59.8849 17.7587 59.8849 17.7587C59.2197 15.7207 63.399 13.7947 63.399 13.7947C63.539 13.7172 64.1412 11.9094 64.0634 11.9092C63.9855 11.909 58.9245 11.9033 58.8779 11.8878C58.5979 11.7783 57.2461 13.0505 56.8422 13.3449C55.6585 9.87517 51.0718 12.4994 50.4354 14.0519C50.1621 14.1248 50.0395 14.0739 49.8997 14.0733C49.9457 12.8922 49.7889 12.1558 49.0426 11.7805C48.6382 11.5619 46.9857 11.7805 46.9857 11.7805L49.7926 6.18798C49.9323 6.0173 49.664 5.84517 49.664 5.84517H47.1356C47.0268 5.90718 46.8999 6.05933 46.8999 6.05933C46.8999 6.05933 42.1224 15.3125 41.8429 15.8091C41.5635 16.3057 38.0716 18.1661 38.0716 18.1661C38.1023 17.8244 40.3515 13.9136 40.4288 13.1521C40.5204 11.1783 38.2645 11.8021 38.2645 11.8021C38.2645 11.8021 36.9871 12.6501 35.8219 13.2378C35.5714 11.0762 33.679 11.8235 33.679 11.8235L31.5363 13.2164L31.9219 12.2093L32.0078 11.8235L29.4363 11.7593C29.1414 11.9762 28.6222 13.1521 28.6222 13.1521L27.8079 14.652L24.1439 17.4162C23.7865 17.6171 23.9724 17.1377 23.9724 17.1377C23.9724 17.1377 26.4462 12.2856 26.5007 12.252C26.7027 12.1281 26.5437 11.8237 26.5437 11.8237L24.058 11.8021C24.058 11.8021 23.6371 12.5173 23.5439 12.595C22.3612 10.9281 18.4586 11.6046 16.3656 16.5377C16.0981 16.8674 15.8911 17.0982 15.7442 17.1591C13.2902 20.0279 11.8872 17.1805 11.8872 17.1805L16.28 8.80231C16.28 8.80231 18.2785 4.33088 19.5369 3.05968C22.722 0.908034 23.6296 2.93119 23.6296 2.93119C23.9048 3.56887 24.744 5.8709 20.4154 6.98101C19.8476 7.0371 20.0296 7.30224 20.0296 7.30224C21.2895 8.37847 22.8367 8.26659 22.8367 8.26659C24.3603 8.5661 28.4887 6.29426 26.9936 2.65262C25.8269 1.12795 24.2191 0.630908 22.6654 0.617003ZM88.0407 6.29538C85.7715 6.38216 85.6386 9.42784 87.9551 9.74508C90.2088 9.8138 90.6371 6.39607 88.0407 6.29522V6.29538ZM103.49 6.29538C101.034 6.30401 101.217 9.76969 103.533 9.74508C105.849 9.56529 105.651 6.37897 103.49 6.29522V6.29538ZM22.4082 12.7877C23.1346 12.8043 23.0075 13.6747 22.8797 13.8377C22.9575 14.1021 21.6154 16.3661 21.6154 16.3661C20.0624 18.3048 19.3226 17.9516 19.3226 17.9516C19.3226 17.9516 18.7904 17.8778 19.1941 16.8375C19.6288 16.1081 20.473 14.2101 21.3582 13.109C21.8244 12.8694 22.1659 12.7821 22.4082 12.7877ZM46.7712 13.0019C47.5331 13.0975 47.157 13.7947 47.157 13.7947L45.057 17.9302C44.3893 18.7525 43.7714 18.4659 43.7714 18.4659C43.4294 18.216 44.0072 17.266 44.0072 17.266L45.9785 13.4091C46.3666 13.0059 46.7712 13.0019 46.7712 13.0019ZM68.6273 13.0235C69.2218 12.918 69.4632 13.4091 69.4632 13.4091C69.4632 13.4091 69.4977 13.488 69.4202 13.9234C69.2498 14.5914 67.406 17.7803 67.406 17.7803C66.6296 18.5554 65.9489 18.4017 65.9489 18.4017C65.5604 18.2917 65.7132 17.7161 65.7132 17.7161C65.7132 17.7161 67.2062 14.6544 67.9203 13.3663C68.2 13.1611 68.4291 13.0585 68.6273 13.0235ZM54.3352 13.0449C54.6636 12.9894 54.9754 13.1248 54.9137 13.8162C54.526 14.6389 52.9959 17.6614 52.6853 18.0801C52.6233 18.4378 51.0608 19.0205 51.4638 17.7161C51.4638 17.7161 53.6556 13.6169 53.671 13.4305C53.6786 13.3372 54.0069 13.1002 54.3352 13.0449ZM4.98761 16.4092C6.26872 16.3785 7.43028 16.7947 7.43028 16.7947C7.43028 16.7947 7.13062 17.7936 4.30182 18.2518C2.96509 18.1708 2.26668 18.1767 2.2662 17.6948C2.91843 16.7242 3.99113 16.433 4.98761 16.4092Z" fill="#202020"/>
</g>
<defs>
<clipPath id="clip0_3_1402">
<rect width="105.691" height="26" fill="white" transform="translate(0.15625)"/>
</clipPath>
</defs>
</svg>
