<svg width="128" height="16" viewBox="0 0 128 16" fill="none" xmlns="http://www.w3.org/2000/svg">
<path d="M99.5366 0.00673176C96.5211 -0.0942117 93.2613 1.64105 91.7151 4.9081C90.7553 6.75232 90.0231 8.80484 89.536 10.8205C89.4927 10.9975 89.4521 11.1751 89.4142 11.3533C89.3662 11.6401 89.3622 12.0078 89.3878 12.3827C89.5072 13.969 90.9156 15.8869 93.2373 15.9959H95.99C99.0047 16.096 102.263 14.3599 103.811 11.0929C104.77 9.24867 105.502 7.19455 105.989 5.18049C106.032 5.00103 106.074 4.82318 106.111 4.64693C106.161 4.35932 106.164 3.9932 106.137 3.61746C106.019 2.03041 104.609 0.114084 102.289 0.00593062H99.5358L99.5366 0.00673176ZM47.8367 0.152539L49.0697 15.8404H51.542H51.5276H51.6734C51.9106 15.8328 52.1425 15.7686 52.3498 15.6532C52.5572 15.5378 52.734 15.3746 52.8655 15.1771H52.8671L62.947 0.15334H60.3401L53.1194 10.9367L52.2718 0.154141H47.8359L47.8367 0.152539ZM64.7488 0.152539L58.9638 15.8404H63.4045L69.1871 0.15334H64.7488V0.152539ZM75.1676 0.152539C71.1787 0.200607 69.4162 4.63892 71.5953 7.48136C72.7009 8.83127 74.2791 10.2309 75.1708 11.709C75.7356 12.5085 75.1315 13.8416 74.0524 13.8544H67.0096L66.2806 15.8404H75.1972C78.6926 15.83 81.0576 11.7146 78.7118 8.55809C77.6295 6.95901 75.9126 5.86706 74.8968 4.30484C74.2935 3.49008 74.9 2.15218 75.9912 2.13776H82.5461L83.2759 0.152539H75.1676ZM86.3491 0.152539L80.5681 15.8412H85.0072L90.7906 0.15334H86.3491V0.152539ZM110.318 0.152539L104.509 15.8404H106.797L110.8 5.02827L110.82 5.22214L114.415 14.9319C114.524 15.1891 114.703 15.4107 114.931 15.5713C115.159 15.7319 115.428 15.8252 115.707 15.8404H117.799L123.608 0.15334H121.321L117.396 10.7556L113.214 0.15334H110.317L110.318 0.152539ZM100.551 1.62824C101.388 1.69233 102.053 2.39653 102.053 3.25054C102.059 3.46044 102.023 3.66794 101.945 3.85781L99.0111 11.8468C98.419 13.3801 97.0435 14.3199 95.4092 14.3679H94.9757C94.5673 14.3354 94.1861 14.1503 93.9078 13.8496C93.6295 13.5489 93.4745 13.1546 93.4736 12.7448C93.4664 12.5364 93.5038 12.3288 93.5834 12.136L96.5155 4.14702C97.1084 2.61364 98.4839 1.6763 100.121 1.62904H100.551V1.62824Z" fill="#5E5E5E"/>
<path d="M6.69047 0.155655L0.90625 15.8436H5.62095L8.38728 8.34089H14.0001L11.2337 15.8436H14.9166C15.5399 15.8436 16.075 15.4502 16.2921 14.9014C16.2945 14.8934 16.2969 14.891 16.3001 14.887L21.7319 0.154854H17.0171L14.79 6.19544H9.17721L11.4044 0.154854H6.69047V0.155655ZM24.7273 0.155655L18.9447 15.8436H23.657L29.4412 0.155655H24.7273ZM32.6482 0.155655L26.8647 15.8436H31.5778L33.7954 9.827L34.9731 8.92252L38.0999 14.9839L38.1015 14.9759L38.1095 14.9903C38.2386 15.2582 38.4447 15.4814 38.7015 15.6313C38.9583 15.7812 39.2541 15.8509 39.5508 15.8315C39.5396 15.8315 39.5267 15.8395 39.5147 15.8395H43.5172L38.5381 6.18342L46.3917 0.154053H42.8691L35.1862 6.05284L37.3613 0.154053H32.6482V0.155655Z" fill="#202020"/>
<path d="M127.086 1.54139C127.086 2.41543 126.401 3.10041 125.508 3.10041C124.625 3.10041 123.922 2.41543 123.922 1.54139C123.922 0.685775 124.625 0 125.508 0C126.401 0 127.086 0.685775 127.086 1.54139ZM124.316 1.54139C124.316 2.22717 124.822 2.77194 125.518 2.77194C126.195 2.77194 126.692 2.22717 126.692 1.5502C126.692 0.86523 126.195 0.310041 125.508 0.310041C124.822 0.310041 124.316 0.86523 124.316 1.54139ZM125.264 2.34894H124.907V0.80915C125.103 0.774263 125.301 0.758167 125.5 0.761082C125.79 0.761082 125.922 0.80915 126.034 0.874843C126.083 0.916327 126.122 0.968261 126.148 1.02679C126.174 1.08532 126.186 1.14894 126.184 1.21292C126.184 1.38277 126.053 1.51335 125.865 1.56943V1.58866C126.015 1.64474 126.1 1.7585 126.147 1.96519C126.195 2.19993 126.223 2.29366 126.26 2.34974H125.875C125.828 2.29366 125.8 2.15266 125.752 1.97481C125.724 1.80497 125.631 1.73046 125.434 1.73046H125.264V2.34974V2.34894ZM125.273 1.4757H125.442C125.64 1.4757 125.8 1.41 125.8 1.24978C125.8 1.10958 125.696 1.01584 125.47 1.01584C125.378 1.01584 125.311 1.02386 125.273 1.03427V1.4749V1.4757Z" fill="#5E5E5E"/>
</svg>
