<svg width="106" height="24" viewBox="0 0 106 24" fill="none" xmlns="http://www.w3.org/2000/svg">
<g clip-path="url(#clip0_3_1381)">
<path d="M67.1897 15.0211C65.3664 15.0211 63.8827 13.537 63.8827 11.7141C63.8827 9.89082 65.3664 8.40711 67.1897 8.40711C69.013 8.40711 70.4963 9.89082 70.4963 11.7141C70.4963 13.5552 68.9948 15.0211 67.1897 15.0211ZM67.1897 6.44056C64.2761 6.44056 61.9165 8.8005 61.9165 11.7141C61.9165 14.6277 64.2761 16.9872 67.1897 16.9872C70.1033 16.9872 72.4628 14.6277 72.4628 11.7141C72.4628 8.8183 70.1033 6.44056 67.1897 6.44056ZM60.7368 15.289H61.1658V17.273H60.7368C58.4667 17.273 56.6074 15.4141 56.6074 13.144V4.08103H58.5917V6.7267H61.1476V8.71105H58.5917V13.1618C58.5917 14.3238 59.557 15.289 60.7368 15.289ZM84.9036 15.0211C83.0803 15.0211 81.597 13.537 81.597 11.7141C81.597 9.89082 83.0803 8.40711 84.9036 8.40711C86.7269 8.40711 88.2106 9.89082 88.2106 11.7141C88.1928 13.5552 86.7091 15.0211 84.9036 15.0211ZM84.9036 6.44056C81.99 6.44056 79.6305 8.8005 79.6305 11.7141C79.6305 14.6277 81.99 16.9872 84.9036 16.9872C87.8172 16.9872 90.1767 14.6277 90.1767 11.7141C90.1767 8.8183 87.8172 6.44056 84.9036 6.44056ZM100.08 15.0211C98.2562 15.0211 96.7729 13.537 96.7729 11.7141C96.7729 9.89082 98.2562 8.40711 100.08 8.40711C101.903 8.40711 103.387 9.89082 103.387 11.7141C103.387 13.5552 101.885 15.0207 100.08 15.0207M100.08 6.44056C97.1659 6.44056 94.8064 8.8005 94.8064 11.7141C94.8064 14.6277 97.1659 16.9872 100.08 16.9872C101.367 16.9872 102.546 16.5222 103.458 15.7536V16.7905H105.353V11.8748V11.7137C105.353 8.81791 102.993 6.44056 100.08 6.44056ZM77.9144 6.44096H78.8619V8.42492H77.9144C76.7351 8.42492 75.7694 9.39058 75.7694 10.57V16.8622H73.7855V10.57C73.7855 8.29986 75.6443 6.44096 77.9144 6.44096ZM91.4998 3.8131H93.4837V16.8262H91.4998V3.8131ZM43.4158 10.8379V17.1123H41.4315V10.8379C41.4315 9.65811 40.4662 8.69285 39.2864 8.69285C38.1071 8.69285 37.1414 9.65811 37.1414 10.8379V17.1119H35.1574V10.8379C35.1574 9.65811 34.1918 8.69285 33.0124 8.69285C31.833 8.69285 30.8674 9.65811 30.8674 10.8379V17.1119H28.8834V10.8379C28.8834 8.56739 30.7423 6.70849 32.9946 6.70849C34.2638 6.70849 35.3719 7.26256 36.1405 8.15659C36.9091 7.26256 38.0172 6.70849 39.2868 6.70849C41.5565 6.70849 43.4158 8.56739 43.4158 10.8379ZM50.0294 15.289C48.2061 15.289 46.7224 13.8053 46.7224 11.982C46.7224 10.1588 48.2065 8.67504 50.0294 8.67504C51.8527 8.67504 53.3364 10.1591 53.3364 11.982C53.3364 13.8053 51.8349 15.289 50.0294 15.289ZM50.0294 6.70889C47.098 6.70889 44.7381 9.06843 44.7381 11.982C44.7381 14.8956 47.098 17.2552 50.0116 17.2552C52.9252 17.2552 55.2847 14.8956 55.2847 11.982C55.3026 9.08624 52.943 6.70889 50.0294 6.70889ZM12.6346 0.00585938C6.00321 0.00585938 0.640625 5.36844 0.640625 11.9998C0.640625 18.6312 6.00321 23.9942 12.6346 23.9942C19.2664 23.9942 24.629 18.6316 24.629 11.9998C24.629 5.40406 19.3376 0.00585938 12.6346 0.00585938Z" fill="#202020"/>
<path d="M16.2074 2.95508L12.6503 14.7528L12.6321 14.7706L12.5964 14.7528L9.03932 2.95508L4.44531 18.0598H5.30333C5.30333 18.0598 5.8756 15.4319 6.82305 13.8591C7.3415 13.0011 8.12788 12.3038 9.18219 12.3216C9.93296 12.3398 10.5765 12.7506 11.3811 13.8769C11.5595 14.1271 11.774 14.5383 11.9885 14.9316C12.3285 15.5926 12.6142 16.2721 12.6142 16.2721C12.6142 16.2721 13.365 14.5561 13.8478 13.8769C14.652 12.7506 15.2955 12.3398 16.0463 12.3216C17.101 12.3038 17.9052 13.0011 18.4058 13.8591C19.3533 15.4319 19.9256 18.0598 19.9256 18.0598H20.7832L16.2074 2.95508Z" fill="white"/>
</g>
<defs>
<clipPath id="clip0_3_1381">
<rect width="104.712" height="24" fill="white" transform="translate(0.640625)"/>
</clipPath>
</defs>
</svg>
