<svg width="102" height="24" viewBox="0 0 102 24" fill="none" xmlns="http://www.w3.org/2000/svg">
<g clip-path="url(#clip0_3_1386)">
<path d="M10.7842 0.0956078C8.20641 0.344069 5.76321 1.44144 3.94116 3.17031C1.62219 5.3547 0.328125 8.38799 0.328125 11.6594C0.328125 16.8771 3.04049 21.132 7.5749 22.9954C9.53153 23.8029 11.0326 24.0514 13.569 23.9686C15.5153 23.9064 16.7887 23.6994 18.2794 23.2128C19.1697 22.923 21.2403 21.9498 21.2403 21.8256C21.2403 21.7842 21.0332 21.308 20.7744 20.7593L20.3085 19.7551L19.6667 20.1174C18.0103 21.0181 16.4574 21.4011 14.097 21.484C10.5047 21.5978 8.10288 20.8214 6.06343 18.8958C4.35526 17.2912 3.36142 15.1896 3.13366 12.705C2.74027 8.49152 4.85218 4.78531 8.51698 3.23243C9.72823 2.72515 10.8152 2.52845 12.3888 2.53881C14.1177 2.54916 15.0287 2.74586 16.3746 3.41877C17.6065 4.02957 19.149 5.5514 19.7702 6.77299C20.4431 8.08777 20.6709 9.0195 20.6709 10.4896C20.6709 11.8147 20.4638 12.7257 19.9462 13.7506C19.3561 14.9204 18.1759 15.9764 16.8922 16.5044C14.9666 17.2808 12.4613 17.2394 10.8049 16.4009C9.50047 15.7383 8.47557 14.1129 8.25817 12.3737L8.19605 11.8871H18.1345V10.8001C18.1345 7.36309 16.5298 4.99236 13.7347 4.27803C12.9168 4.07098 11.0534 4.07098 10.2252 4.28839C6.3326 5.29258 4.17927 10.1479 5.70109 14.5374C6.12555 15.7797 6.57071 16.4733 7.5749 17.4775C8.84826 18.7509 10.0181 19.372 11.7987 19.7137C12.8236 19.9104 14.9977 19.9 16.0743 19.693C19.3664 19.0718 21.9235 16.7943 22.9277 13.5953C23.0623 13.1398 23.2176 12.5704 23.259 12.322L23.3315 11.8871H24.5531V15.7383C24.5531 17.9641 24.6048 19.7965 24.6669 20.0553C24.9672 21.3804 26.0335 22.6641 27.3586 23.3164C28.3939 23.8133 29.1807 23.9996 30.2987 23.9996C32.1311 23.9996 33.477 23.4716 34.6571 22.2914C35.4646 21.484 35.858 20.7903 36.034 19.8172C36.1065 19.4238 36.1479 17.4154 36.1479 14.3511V9.50606H33.3527V19.2996L33.0836 19.8379C32.5763 20.8628 31.6135 21.4115 30.2884 21.4115C29.5637 21.4115 29.367 21.3701 28.808 21.0906C28.1765 20.78 27.8659 20.459 27.4932 19.7551C27.3068 19.4134 27.2965 19.0408 27.2654 14.4442L27.2344 9.50606H23.3211L23.259 9.00914C22.9588 6.64876 21.9442 4.61967 20.2775 3.01502C18.4865 1.2965 16.3124 0.344069 13.5897 0.0852552C12.3681 -0.0286227 12.0576 -0.0286227 10.7842 0.0956078ZM13.3827 6.65912C14.3248 6.9904 15.1323 7.96354 15.329 9.02985L15.4118 9.50606H8.30993L8.46522 8.95738C8.75509 7.99459 9.33483 7.25956 10.163 6.8144C10.9498 6.38995 12.4199 6.31748 13.3827 6.65912ZM41.8418 11.9389V23.1714H42.7735V0.706407H41.8418V11.9389ZM71.1395 1.58637V2.46634H73.21V0.706407H71.1395V1.58637ZM48.0533 5.46858V9.81664H50.4034C53.1054 9.81664 53.83 9.72347 54.5858 9.26796C55.3001 8.83315 55.6107 8.27411 55.6107 7.4045C55.6107 6.53489 55.3105 5.94479 54.6686 5.54104L54.1717 5.23047L54.4616 4.9613C54.9688 4.48508 55.1138 4.07098 55.0723 3.23243C55.0413 2.58022 54.9999 2.42493 54.7204 2.08329C54.5547 1.86589 54.182 1.57602 53.8922 1.43109C53.3952 1.18262 53.3228 1.17227 50.7243 1.14121L48.0533 1.11016V5.46858ZM52.6395 3.00467C53.1778 3.28419 53.2607 3.7397 52.8776 4.19521C52.6292 4.48508 52.6084 4.48508 51.3247 4.51614L50.0203 4.55755V2.88044H51.2212C51.9252 2.88044 52.5049 2.9322 52.6395 3.00467ZM53.1261 6.43136C53.5091 6.62806 53.6955 7.06287 53.5402 7.43556C53.3435 7.91177 52.8155 8.05671 51.3144 8.05671H50.0203V6.29678H51.449C52.3807 6.29678 52.9604 6.34854 53.1261 6.43136ZM66.0357 3.13925C64.3689 3.67759 64.0169 5.91373 65.4766 6.75229C65.7148 6.88687 66.3049 7.12498 66.7914 7.28027C67.7749 7.59084 67.9302 7.68402 67.9302 7.96354C67.9302 8.48116 66.8018 8.48116 65.7769 7.96354C65.4249 7.78754 65.104 7.64261 65.0625 7.64261C65.0211 7.64261 64.8037 7.92213 64.576 8.26376C64.1101 8.98844 64.1101 8.96773 65.104 9.4543C65.8493 9.81664 66.5947 9.95122 67.4643 9.89946C68.9033 9.80629 69.6901 9.14373 69.7729 7.95318C69.8558 6.8144 69.3485 6.26572 67.6507 5.67563C67.1227 5.48928 66.6154 5.25117 66.5119 5.13729C66.3359 4.9406 66.3359 4.91989 66.574 4.73354C66.9364 4.43332 67.4436 4.50579 68.5099 5.01306C68.7066 5.10624 68.8826 5.16835 68.9033 5.14765C68.924 5.12694 69.1 4.81636 69.3071 4.46438L69.6798 3.81217L69.4313 3.64653C68.5928 3.09784 66.9467 2.84938 66.0357 3.13925ZM77.8686 3.13925C77.6719 3.23243 77.351 3.44983 77.175 3.62582L76.8334 3.9571V3.08749H74.8664V9.81664H76.8334V7.84966C76.8334 5.69633 76.9059 5.31329 77.3924 5.00271C77.703 4.79566 78.262 4.77495 78.5933 4.95095C79.0281 5.18906 79.1109 5.62386 79.1109 7.7979V9.81664H81.0883L81.0572 7.09392L81.0262 4.36085L80.7466 3.94675C80.3325 3.31525 79.846 3.06679 78.966 3.01502C78.4484 2.99432 78.1274 3.02538 77.8686 3.13925ZM84.5978 3.15996C83.5315 3.53265 82.7654 4.40226 82.4652 5.5721C81.9993 7.39415 82.9414 9.20584 84.6185 9.75453C85.3639 9.99263 86.6269 9.97193 87.3205 9.71311C87.8278 9.52677 88.7388 8.86421 88.7388 8.69857C88.7388 8.65716 88.48 8.4087 88.1798 8.12918L87.6104 7.64261L87.072 7.97389C86.6372 8.25341 86.4302 8.31552 85.9436 8.31552C85.2707 8.31552 84.9084 8.11882 84.5978 7.61155C84.4839 7.4252 84.3907 7.24921 84.3907 7.19745C84.3907 7.15604 85.4467 7.12498 86.7304 7.12498H89.0804L89.0287 6.31748C88.9148 4.61967 88.1694 3.543 86.8132 3.1289C86.1817 2.94256 85.1879 2.95291 84.5978 3.15996ZM86.4302 4.80601C86.689 4.97165 86.9168 5.29258 87.0306 5.64457L87.0928 5.88268H85.7469C84.867 5.88268 84.3907 5.84127 84.3907 5.77915C84.3907 5.71704 84.4529 5.54104 84.5357 5.38575C84.9291 4.63002 85.7469 4.38156 86.4302 4.80601ZM91.8963 3.07714C90.8507 3.35666 90.1882 4.1538 90.1882 5.158C90.1882 6.1829 90.7575 6.74194 92.269 7.22851C93.2111 7.52873 93.6045 7.73578 93.6045 7.94283C93.6045 7.98424 93.5113 8.10847 93.3974 8.212C93.0972 8.49152 92.2173 8.37764 91.4201 7.97389C91.0681 7.78754 90.7472 7.64261 90.7058 7.64261C90.5816 7.64261 89.8569 8.79174 89.9086 8.92632C89.9811 9.12302 90.9232 9.58888 91.5858 9.76488C93.1904 10.179 94.8054 9.71312 95.2195 8.70892C95.3023 8.52257 95.3644 8.06706 95.3644 7.70472C95.3644 7.09392 95.3334 6.9904 95.0331 6.65912C94.6708 6.24501 94.2464 6.00691 93.3974 5.72739C92.4968 5.43752 92.0516 5.1787 92.0516 4.95095C92.0516 4.45403 92.9005 4.43332 93.9151 4.90954C94.5569 5.20976 94.5466 5.22011 95.0124 4.29874C95.2609 3.82252 95.2609 3.78111 95.0953 3.65688C94.4741 3.21172 92.6521 2.87009 91.8963 3.07714ZM98.2114 3.07714C97.4971 3.25313 96.8241 3.79146 96.6171 4.36085C96.4514 4.77495 96.4722 5.63422 96.6481 5.97585C96.938 6.52453 97.466 6.86617 98.5323 7.2078C99.0913 7.39415 99.609 7.58049 99.6711 7.6219C99.8885 7.76684 99.9092 8.036 99.7125 8.212C99.4123 8.48116 98.5427 8.37764 97.7145 7.97389C97.3521 7.78754 97.0208 7.64261 97.0001 7.64261C96.8863 7.64261 96.1823 8.81244 96.2237 8.92632C96.2962 9.12302 97.2382 9.58888 97.9008 9.76488C99.5054 10.179 101.12 9.71312 101.535 8.70892C101.617 8.52257 101.679 8.09812 101.679 7.76684C101.679 6.76264 101.172 6.21396 99.8367 5.7688C98.8118 5.43752 98.3667 5.18906 98.3667 4.95095C98.3667 4.46438 99.2156 4.43332 100.22 4.89919C100.52 5.04412 100.789 5.158 100.81 5.158C100.862 5.158 101.607 3.80182 101.566 3.77076C101.545 3.75005 101.327 3.63618 101.089 3.51195C100.189 3.05643 99.0189 2.88044 98.2114 3.07714ZM56.8737 5.69633C56.9048 8.13953 56.9151 8.34658 57.1325 8.72962C57.5673 9.53712 58.2195 9.92017 59.1823 9.92017C59.8449 9.92017 60.2797 9.76488 60.7662 9.36113L61.0975 9.07126V9.81664H63.168V3.08749H61.1079L61.0768 5.30293C61.0458 7.31133 61.0251 7.53908 60.8491 7.73578C60.4246 8.212 59.5861 8.18094 59.1616 7.69437C58.9338 7.43556 58.9235 7.35274 58.9235 5.25117V3.08749H56.8323L56.8737 5.69633ZM71.1395 6.45207V9.81664H73.1065V3.08749H71.1395V6.45207ZM63.0645 18.4092V22.9644H65.0315V21.1216C65.0418 19.0718 65.1143 18.5956 65.4766 18.2229C65.9632 17.7467 66.9674 17.9434 67.2055 18.5749C67.2676 18.7198 67.3091 19.7654 67.3091 20.9042V22.9644H69.4003L69.3588 20.3969C69.3278 18.2333 69.2967 17.7777 69.1414 17.4258C68.7584 16.5665 68.0751 16.142 67.0709 16.1317C66.367 16.1317 65.8286 16.3284 65.3731 16.7735L65.0315 17.1048V13.8541H63.0645V18.4092ZM87.7036 18.4092V22.9644H89.6705V13.8541H87.7036V18.4092ZM50.0514 14.1647C48.6641 14.4442 47.8566 15.407 47.8463 16.7839C47.8463 17.6639 48.0119 18.0573 48.571 18.5438C49.0058 18.9062 49.4923 19.1029 51.3454 19.6516C51.7595 19.7654 52.1943 19.9621 52.3082 20.076C52.743 20.5108 52.3496 21.1423 51.5628 21.2665C50.9727 21.3597 50.1031 21.1216 49.337 20.6661L48.6331 20.2416L48.0326 20.9042C47.7117 21.2665 47.4425 21.5978 47.4322 21.6392C47.4322 21.8049 48.7677 22.571 49.4406 22.7884C50.01 22.9644 50.4241 23.0161 51.273 23.0161C52.3186 23.0161 52.4014 22.9954 53.0847 22.6538C53.6851 22.3432 53.8507 22.1983 54.1303 21.7221C54.4305 21.2251 54.4719 21.0699 54.4719 20.4176C54.4719 19.548 54.3684 19.196 53.975 18.7923C53.5195 18.3057 52.9397 18.0366 51.5732 17.6328C50.8278 17.4154 50.1756 17.1669 50.0514 17.0427C49.3888 16.4216 50.2067 15.7383 51.3661 15.9453C51.625 15.9868 52.1426 16.1835 52.5256 16.3802L53.2296 16.7321L53.7472 15.9971L54.2752 15.2517L54.0371 15.055C53.1468 14.32 51.3351 13.9162 50.0514 14.1647ZM57.9711 16.2663C56.884 16.6804 56.1076 17.4258 55.766 18.3989C55.6831 18.6577 55.6107 19.196 55.6107 19.6205C55.6107 20.9974 56.2111 22.0223 57.3913 22.6641C58.0228 23.0058 58.0849 23.0161 59.1823 23.0161C60.2383 23.0161 60.3625 22.9954 60.8594 22.7159C61.1493 22.5606 61.522 22.2915 61.6773 22.1258L61.9671 21.8256L61.4081 21.2562C60.8077 20.6454 60.6834 20.5936 60.466 20.8524C60.0312 21.3701 58.996 21.4943 58.3645 21.1009C57.6294 20.6557 57.3706 19.5377 57.7847 18.7198C58.2609 17.7777 59.4308 17.5603 60.2486 18.254C60.4246 18.3989 60.6006 18.5128 60.6524 18.5128C60.7041 18.5128 61.0147 18.2333 61.3563 17.8813L61.9775 17.2601L61.6152 16.9495C60.9319 16.3698 60.4143 16.1938 59.3376 16.1627C58.6957 16.142 58.2195 16.1731 57.9711 16.2663ZM72.9305 16.3284C71.4811 16.8667 70.6012 18.0883 70.5908 19.5894C70.5908 20.4073 70.7564 20.9663 71.1705 21.5771C71.8849 22.6124 73.0547 23.13 74.4937 23.0472C75.9638 22.9644 76.9887 22.3225 77.5788 21.1216C77.8893 20.5005 77.9204 20.3452 77.91 19.548C77.91 18.8544 77.8583 18.5645 77.6719 18.1918C77.2992 17.4258 76.7816 16.8978 76.0362 16.5251C75.4461 16.2352 75.2287 16.1835 74.4109 16.1627C73.6759 16.1317 73.3549 16.1731 72.9305 16.3284ZM75.1459 18.1194C76.0777 18.6784 76.2329 20.0657 75.4461 20.8524C74.3798 21.9188 72.5888 21.132 72.5888 19.5998C72.5888 18.7612 72.9615 18.2022 73.6966 17.9434C74.1624 17.7777 74.6801 17.8399 75.1459 18.1194ZM81.316 16.318C79.7114 16.8874 78.8107 18.2333 78.9246 19.869C79.0178 21.1734 79.7217 22.1672 80.9641 22.747C81.4713 22.9851 81.668 23.0161 82.6308 23.0161C83.6143 23.0161 83.7696 22.9851 84.2872 22.7263C85.0637 22.3225 85.6641 21.7117 85.9954 20.9767C86.2438 20.428 86.2749 20.252 86.2335 19.4652C86.1921 18.4092 85.9747 17.8606 85.3121 17.1876C84.6081 16.4837 83.9042 16.1938 82.7964 16.1627C82.0821 16.1317 81.7301 16.1731 81.316 16.318ZM83.3555 18.0469C84.9291 18.8544 84.3804 21.3494 82.6308 21.3494C81.3885 21.3494 80.5499 20.0449 81.0572 18.9165C81.492 17.9434 82.4445 17.581 83.3555 18.0469Z" fill="#202020"/>
</g>
<defs>
<clipPath id="clip0_3_1386">
<rect width="101.351" height="24" fill="white" transform="translate(0.328125)"/>
</clipPath>
</defs>
</svg>
