<svg width="112" height="26" viewBox="0 0 112 26" fill="none" xmlns="http://www.w3.org/2000/svg">
<g clip-path="url(#clip0_3_1392)">
<path d="M111.905 11.9055V12.4573C111.905 12.4573 111.304 12.695 111.304 13.4038L111.309 25.242C111.309 25.6591 110.972 26.0001 110.555 26.0001H108.227L103.109 17.921C103.109 17.921 103.216 18.5894 103.216 19.4328V26.0001H100.381V11.9055H102.22C103.158 11.9055 103.84 12.2913 104.333 13.0674C104.75 13.7223 108.617 19.8141 108.617 19.8141C108.617 19.8141 108.478 19.4014 108.478 18.2889V11.9055H111.905ZM57.4561 11.9055V25.242C57.4561 25.6591 57.1152 26.0001 56.698 26.0001H54.3743L49.256 17.921C49.256 17.921 49.3636 18.5894 49.3636 19.4328V26.0001H46.5241V11.9055H48.3588C49.2963 11.9055 49.9782 12.2913 50.4716 13.0674C50.8888 13.7223 54.7601 19.8141 54.7601 19.8141C54.7601 19.8141 54.621 19.4014 54.621 18.2889V11.9055H57.4561ZM22.3812 11.9055H18.5907V17.3065H15.2756V11.9055H10.875V12.4573C10.875 12.4573 11.4761 12.6861 11.4761 13.4038V26.0001H15.2756V19.8858H18.5907V26.0001H22.3812V11.9055ZM34.6545 11.9055H26.2121V24.7395C26.2121 25.4707 26.9074 26.0001 27.6341 26.0001H34.6545C35.0717 26.0001 35.4126 25.6591 35.4126 25.242V23.4252H30.5679C30.2539 23.4252 29.9982 23.165 29.9982 22.851V19.8858H34.3136V17.311H29.9982V14.4849H35.4081V12.6681C35.4126 12.2464 35.0717 11.9055 34.6545 11.9055ZM42.6573 11.9055H38.8667V25.242C38.8667 25.6591 39.2076 26.0001 39.6248 26.0001H42.6573V11.9055ZM96.4067 11.9055H87.9599V24.7395C87.9599 25.4438 88.6552 26.0001 89.3864 26.0001H96.4067C96.8239 26.0001 97.1648 25.6591 97.1648 25.242V23.4252H92.3201C92.0061 23.4252 91.7504 23.165 91.7504 22.851V19.8858H96.0703V17.311H91.7504V14.4849H97.1693V12.6681C97.1693 12.2464 96.8239 11.9055 96.4067 11.9055ZM69.7294 11.9055H61.2825V24.7395C61.2825 25.4438 61.9778 26.0001 62.709 26.0001H69.7294C70.1466 26.0001 70.4875 25.6591 70.4875 25.242V23.4252H65.6428C65.3288 23.4252 65.0731 23.165 65.0731 22.851V19.8858H69.3929V17.311H65.0731V14.4849H70.4875V12.6681C70.4875 12.2464 70.1466 11.9055 69.7294 11.9055ZM85.7708 11.9055H83.0344C82.375 11.9055 81.8726 12.0715 81.3477 12.6726C80.8274 13.2737 77.4854 17.1226 77.4854 17.1226V11.9055H73.6949V25.242C73.6949 25.6591 74.0358 26.0001 74.453 26.0001H77.4854V19.6122C77.4854 19.6122 80.3294 24.0577 80.8274 24.8382C81.3253 25.6188 81.8232 26.0046 82.9582 26.0046H86.0713L80.7511 17.6878L85.7708 11.9055Z" fill="#5E5E5E"/>
<path d="M3.80854 17.0373C3.62014 17.1764 3.36893 16.997 3.4407 16.7772C3.54388 16.4632 5.45036 10.5957 5.45036 10.5957L0.192945 6.77371C0.00453895 6.63465 0.103228 6.34307 0.332006 6.34756H6.82752C6.82752 6.34756 8.73849 0.480063 8.83718 0.166053C8.90896 -0.0537535 9.21848 -0.0582394 9.29025 0.166053C9.38894 0.480063 11.2999 6.34307 11.2999 6.34307H17.7954C18.0242 6.34307 18.1274 6.63017 17.9345 6.76923L14.7989 9.04804H11.0891L9.9407 5.52216L8.79681 9.05253H5.08701L8.08804 11.2326L6.93967 14.7585C6.93967 14.763 3.99695 16.8983 3.80854 17.0373Z" fill="#202020"/>
</g>
<defs>
<clipPath id="clip0_3_1392">
<rect width="111.876" height="26" fill="white" transform="translate(0.0625)"/>
</clipPath>
</defs>
</svg>
