<svg width="90" height="26" viewBox="0 0 90 26" fill="none" xmlns="http://www.w3.org/2000/svg">
<g clip-path="url(#clip0_3_1389)">
<path d="M10.0175 17.9174C8.71791 17.9174 7.3196 18.7179 7.3196 20.4801C7.3196 22.9441 9.37808 23.1364 10.0071 23.1364C10.6412 23.1364 12.6997 22.9441 12.6997 20.4801C12.7049 18.7179 11.3118 17.9174 10.0175 17.9174ZM10.0175 22.2059C9.29491 22.2059 8.44761 21.7589 8.44761 20.4853C8.44761 19.5133 9.07658 18.8635 10.0071 18.8635C10.9427 18.8635 11.5769 19.5133 11.5769 20.4853C11.5769 21.7589 10.7348 22.2059 10.0175 22.2059ZM14.779 23.0428H15.8498V18.9051H17.5392V18.0162H13.0896V18.9051H14.779V23.0428ZM20.6893 17.9174C19.3898 17.9174 17.9966 18.7179 17.9966 20.4801C17.9966 22.9441 20.0551 23.1364 20.6841 23.1364C21.3183 23.1364 23.3819 22.9441 23.3819 20.4801C23.3767 18.7179 21.9836 17.9174 20.6893 17.9174ZM20.6893 22.2059C19.9667 22.2059 19.1194 21.7589 19.1194 20.4853C19.1194 19.3625 19.9044 18.8635 20.6789 18.8635C21.6198 18.8635 22.2487 19.5133 22.2487 20.4853C22.2487 21.7589 21.4118 22.2059 20.6893 22.2059ZM27.4677 21.1455C28.1799 20.974 28.6581 20.3814 28.6581 19.664C28.6581 18.2969 27.5353 18.011 26.5944 18.011H24.2552V23.0376H25.3261V21.3846H26.2617L27.4625 23.0376H28.7984L27.3533 21.1715L27.4677 21.1455ZM26.3761 20.5009H25.3417V18.9051H26.3501C27.1402 18.9051 27.5249 19.1546 27.5249 19.6692C27.5301 20.2254 27.1506 20.5009 26.3761 20.5009ZM34.9895 22.2059C33.8407 22.2059 33.1285 21.5613 33.1285 20.5217C33.1285 19.4405 33.8043 18.8479 35.0362 18.8479C35.6132 18.8479 36.0343 18.9467 36.3982 19.0558V18.1202C35.9199 17.9798 35.3221 17.9174 34.9375 17.9174C33.586 17.9174 32.0057 18.5984 32.0057 20.5269C32.0057 22.1851 33.0713 23.1364 34.9219 23.1364C35.3637 23.1364 35.9147 23.0792 36.4086 22.9752V21.9772C36.0967 22.0708 35.5872 22.2007 35.0155 22.2059H34.9895ZM39.8861 17.9174C38.5866 17.9174 37.1883 18.7179 37.1883 20.4801C37.1883 22.9441 39.2468 23.1364 39.8757 23.1364C40.5099 23.1364 42.5736 22.9441 42.5736 20.4801C42.5736 18.7179 41.1805 17.9174 39.8861 17.9174ZM39.8861 22.2059C39.1636 22.2059 38.3163 21.7589 38.3163 20.4853C38.3163 19.3625 39.1012 18.8635 39.8757 18.8635C40.8166 18.8635 41.4456 19.5133 41.4456 20.4853C41.4456 21.7589 40.6035 22.2059 39.8861 22.2059ZM46.8049 21.1455C47.5171 20.974 47.9953 20.3814 47.9953 19.664C47.9953 18.2969 46.8725 18.011 45.9316 18.011H43.5924V23.0376H44.6633V21.3846H45.5989L46.7997 23.0376H48.1356L46.6905 21.1715L46.8049 21.1455ZM45.7185 20.5009H44.684V18.9051H45.6925C46.4826 18.9051 46.8673 19.1546 46.8673 19.6692C46.8673 20.2254 46.493 20.5009 45.7185 20.5009ZM51.4729 18.0162H49.1649V23.0428H50.2357V21.6133H51.4781C52.5281 21.6133 53.6457 21.1403 53.6457 19.8096C53.6457 18.5984 52.9387 18.0162 51.4729 18.0162ZM51.3689 20.7244H50.2357V18.9051H51.3481C51.8939 18.9051 52.5229 19.0038 52.5229 19.7784C52.5177 20.6101 51.9407 20.7244 51.3689 20.7244ZM57.0609 17.9174C55.7613 17.9174 54.363 18.7179 54.363 20.4801C54.363 22.9441 56.4215 23.1364 57.0505 23.1364C57.6847 23.1364 59.7483 22.9441 59.7483 20.4801C59.7483 18.7179 58.3552 17.9174 57.0609 17.9174ZM57.0609 22.2059C56.3383 22.2059 55.491 21.7589 55.491 20.4853C55.491 19.5133 56.12 18.8635 57.0505 18.8635C57.9862 18.8635 58.6203 19.5133 58.6203 20.4853C58.6255 21.7589 57.7834 22.2059 57.0609 22.2059ZM63.9849 21.1455C64.697 20.974 65.1752 20.3814 65.1752 19.664C65.1752 18.2969 64.0524 18.011 63.1116 18.011H60.7724V23.0376H61.8432V21.3846H62.7789L63.9797 23.0376H65.3156L63.8705 21.1715L63.9849 21.1455ZM62.8984 20.5009H61.864V18.9051H62.8724C63.6626 18.9051 64.0472 19.1546 64.0472 19.6692C64.0472 20.2254 63.673 20.5009 62.8984 20.5009ZM67.7639 18.0162L65.877 23.0428H66.9426L67.2805 22.102H69.8068L70.1083 23.0428H71.2935L69.3702 18.0162H67.7639ZM67.5872 21.2079L68.5229 18.7387L69.4949 21.2079H67.5872ZM72.697 23.0428H73.7678V18.9051H75.4572V18.0162H71.0076V18.9051H72.697V23.0428ZM76.5072 18.0162H77.5781V23.0428H76.5072V18.0162ZM81.3519 17.9174C80.0524 17.9174 78.6593 18.7179 78.6593 20.4801C78.6593 22.9441 80.7178 23.1364 81.3467 23.1364C81.9809 23.1364 84.0446 22.9441 84.0446 20.4801C84.0394 18.7179 82.6463 17.9174 81.3519 17.9174ZM81.3519 22.2059C80.6294 22.2059 79.7821 21.7589 79.7821 20.4853C79.7821 19.3625 80.567 18.8635 81.3415 18.8635C82.2772 18.8635 82.9114 19.5133 82.9114 20.4853C82.9114 21.7589 82.0693 22.2059 81.3519 22.2059ZM88.6554 21.4366L86.3474 18.0214H85.0478V23.0428H86.0979V19.3781L88.6034 23.0428H89.7054V18.0214H88.6554V21.4366ZM1.39889 18.0162H0.296875V23.0428H1.3677V19.9603L2.97913 23.0428H3.72767L5.3443 19.9603V23.0428H6.41512V18.0162H5.31311L3.3534 21.6601L1.39889 18.0162ZM52.2006 6.95968H46.1187C45.8432 6.95968 45.5365 6.93889 45.391 6.89731C44.8504 6.75176 44.5957 6.27872 44.5957 5.79529C44.5957 5.37944 44.8244 4.87522 45.4014 4.69848C45.5729 4.6465 45.7393 4.6413 46.0928 4.6413H54.7217V2.86353H45.9524C45.6093 2.86353 45.3286 2.87392 45.0843 2.91031C43.6652 3.10784 42.636 4.29302 42.636 5.80049C42.636 7.14682 43.5041 8.47755 45.0479 8.70627C45.3858 8.75825 45.9004 8.74785 46.0408 8.74785H51.9355C52.0187 8.74785 52.315 8.75305 52.3929 8.76345C53.0947 8.86221 53.4586 9.40282 53.4586 10.0058C53.4586 10.5152 53.1467 11.0974 52.4553 11.2222C52.3669 11.2378 52.0551 11.2482 51.9511 11.2482H42.9323V13.0467H52.0914C52.2006 13.0467 52.71 13.0415 52.814 13.0311C54.5242 12.8752 55.4183 11.4769 55.4183 9.99542C55.4183 8.69067 54.6074 7.16241 52.9543 6.99607C52.6061 6.95449 52.3202 6.95968 52.2006 6.95968ZM34.7919 6.95968H28.7101C28.4346 6.95968 28.1279 6.93889 27.9823 6.89731C27.4417 6.75176 27.187 6.27872 27.187 5.79529C27.187 5.37944 27.4157 4.87522 27.9927 4.69848C28.1643 4.6465 28.3306 4.6413 28.6841 4.6413H37.313V2.86353H28.5437C28.2007 2.86353 27.9199 2.87392 27.6756 2.91031C26.2565 3.10784 25.2273 4.29302 25.2273 5.80049C25.2273 7.14682 26.0954 8.47755 27.6392 8.70627C27.9771 8.75825 28.4917 8.74785 28.6321 8.74785H34.5268C34.61 8.74785 34.9063 8.75305 34.9843 8.76345C35.686 8.86221 36.0499 9.40282 36.0499 10.0058C36.0499 10.5152 35.738 11.0974 35.0466 11.2222C34.9583 11.2378 34.6464 11.2482 34.5424 11.2482H25.5236V13.0467H34.6828C34.7919 13.0467 35.3014 13.0415 35.4053 13.0311C37.1155 12.8752 38.0096 11.4769 38.0096 9.99542C38.0096 8.69067 37.1935 7.16241 35.5457 6.99607C35.1974 6.95449 34.9115 6.95968 34.7919 6.95968ZM18.4021 2.86353H20.341V13.0415H18.4021V2.86353ZM10.9791 10.9987L3.01032 2.86353H0.296875V13.0415H2.23579V4.85442L10.2618 13.0415H12.918V2.86353H10.9791V10.9987ZM87.7613 10.9987L79.7925 2.86353H77.079V13.0415H79.018V4.85442L87.0439 13.0415H89.7002V2.86353H87.7613V10.9987ZM64.9465 2.86353L58.6567 13.0415H61.0219L62.1811 11.1598H69.9939L71.1531 13.0415H73.5183L67.2337 2.86353H64.9465ZM63.1427 9.53798L66.0901 4.75566L69.0323 9.53798H63.1427Z" fill="#202020"/>
</g>
<defs>
<clipPath id="clip0_3_1389">
<rect width="89.4085" height="26" fill="white" transform="translate(0.296875)"/>
</clipPath>
</defs>
</svg>
