<svg width="94" height="26" viewBox="0 0 94 26" fill="none" xmlns="http://www.w3.org/2000/svg">
<path fill-rule="evenodd" clip-rule="evenodd" d="M63.5876 7.17267H56.4485V8.667C57.0434 8.667 57.6388 8.81649 57.7868 9.11545C58.0848 9.26493 58.2338 9.71288 58.2338 10.3108V12.4031H53.3254V10.3108C53.3254 9.71338 53.4744 9.26493 53.6234 9.11545C53.9203 8.81649 54.5157 8.667 55.1107 8.667V7.17267H47.8226V8.667C48.4175 8.667 48.566 8.667 48.863 8.81649C49.1609 8.81649 49.1609 9.11545 49.3089 9.11545C49.6069 9.5639 49.7559 9.86236 49.7559 10.3108V18.2304C49.7559 18.2304 49.6069 18.6783 49.3089 18.8278L48.863 19.2758H47.8226V20.7706H55.1097V19.2758H54.0683C53.9193 18.9768 53.6224 18.8278 53.6224 18.8278C53.4734 18.6778 53.4734 18.3789 53.4734 18.2304C53.3244 18.0804 53.3244 17.633 53.3244 17.633V14.4948H58.2328V18.2304C58.2328 18.2304 58.0838 18.6783 58.0838 18.8278C57.7858 18.8278 57.6378 18.9768 57.4888 19.2758H56.4475V20.7706H63.5866V19.2758H62.5452C62.3962 18.9768 62.2482 18.8278 61.9503 18.8278C61.9503 18.6778 61.8013 18.3789 61.8013 18.2304V10.3103C61.8013 9.86186 61.9503 9.5634 62.2482 9.11495C62.3962 8.81598 62.9916 8.6665 63.5866 8.6665V7.17267H63.5876ZM64.4799 7.17267V8.667C65.0749 8.667 65.5203 8.667 65.6693 8.81649C65.9672 8.81649 66.1152 9.11545 66.1152 9.26493C66.4132 9.5639 66.4132 9.71338 66.4132 9.71338L66.5622 10.3108V18.2304C66.5622 18.2304 66.4132 18.6783 66.1152 18.8278L65.6693 19.2758H64.4799V20.7706H77.1213L79.501 15.9887L78.0137 15.3912C77.1213 16.8856 76.2284 17.633 75.0391 18.2304C73.8487 18.8278 72.6594 18.9768 71.321 18.9768C70.8741 18.9768 70.7251 18.9768 70.4287 18.8278C70.2797 18.6778 70.1307 18.0804 70.1307 17.3335V14.4943H70.7256C71.618 14.4943 72.0649 14.6433 72.3619 14.7933C72.8088 15.2422 73.1053 15.8397 73.1053 16.5861H74.5926V10.3103H73.1053C73.1053 11.0572 72.8083 11.6552 72.3619 12.1036C72.0649 12.2531 71.6185 12.4026 70.7256 12.4026H70.1307V10.6093C70.1307 9.86236 70.2797 9.71288 70.2797 9.26443C70.4287 9.11495 71.0231 8.81598 71.767 8.81598H72.2129C73.7002 8.81598 74.7416 9.26443 75.634 9.86186C76.5264 10.4598 77.1213 11.2067 77.5672 11.9536L78.9065 11.2067L76.9728 7.17217L64.4799 7.17267ZM92.2913 15.9887C91.9933 16.5861 91.5479 17.334 90.804 18.0804C90.357 18.3794 90.0606 18.6778 89.4657 18.8278C89.0187 19.2758 88.4243 19.2758 87.8294 19.2758C87.3824 19.2758 87.2345 19.2758 86.639 18.9768C86.1931 18.8278 85.8956 18.6778 85.4497 18.2304C85.1517 17.7814 84.7063 17.334 84.5573 16.5866C84.2603 15.9892 84.1114 14.9428 84.1114 14.0464C84.1114 12.1041 84.2603 10.6098 85.1517 9.86287C85.8951 8.81699 86.639 8.51802 87.3824 8.51802C88.5728 8.51802 89.4652 8.81698 90.2091 9.71338C90.804 10.4608 91.5474 11.2077 91.9933 12.4031L93.6296 11.9546L91.8453 7.17318H90.655L90.357 7.47214C90.0601 7.32266 89.4657 7.17318 88.8697 6.87421C88.4238 6.87421 87.6804 6.72523 87.0855 6.72523C84.8548 6.72523 83.0695 7.47214 81.8801 8.668C80.6898 10.0128 79.9464 11.9551 79.9464 14.0469C79.9464 15.9897 80.6898 17.7824 82.1771 19.2768C83.2185 20.6221 85.1517 21.2196 87.2345 21.2196C89.0187 21.2196 90.6545 20.6221 91.5474 19.7252C92.7367 18.9778 93.3327 17.7825 93.9271 16.8861L92.2913 15.9887ZM35.3288 2.39072C33.693 0.747414 31.6107 0 28.6361 0C24.4717 0 20.6047 1.34485 17.1841 3.88505C14.061 6.72423 12.2763 9.86237 11.5324 13.4479C11.2349 14.4943 11.0859 15.2417 11.0859 15.9882C11.0859 19.2753 12.2758 21.5165 14.0605 23.4598C15.9938 25.1036 18.3735 26 21.3481 26C23.1329 26 24.6202 25.701 26.2559 25.4026C27.5943 24.9536 29.3795 23.9082 30.4204 23.1608C32.0562 21.8155 31.1638 21.368 29.974 22.1144C29.379 22.5634 27.5943 23.6088 26.4044 23.7583C25.3631 23.9082 23.8758 24.2062 22.24 24.2062C19.7113 24.2062 17.7781 23.6088 16.1423 22.1144C14.655 20.6201 14.06 18.8273 14.06 16.2871C14.06 15.3907 14.06 14.6433 14.2085 13.8964C14.8034 10.4593 16.4392 7.7696 18.8189 5.37888C21.4961 2.98815 24.4707 1.79279 28.0397 1.79279C30.4194 1.79279 32.2042 2.39022 33.5425 3.73557C34.7323 4.93093 35.4757 6.72422 35.4757 8.667C35.3268 11.6557 34.5833 14.0459 33.5425 15.3912C32.2042 17.334 31.1628 17.7819 31.0138 17.7819C30.5679 17.7819 30.5679 17.633 30.5679 17.633C30.5679 16.8856 31.1628 14.7938 31.3113 14.0464L33.542 6.87421C33.542 6.72523 33.542 6.57524 33.0955 6.57524H30.2699C29.9725 6.57524 29.3775 6.72473 29.2285 7.32266L28.9311 7.92059C27.8902 12.4036 25.0646 15.2427 24.3207 15.9892C23.1309 17.1845 22.239 17.633 21.941 17.633C21.4951 17.633 21.4951 17.334 21.4951 17.0355C21.4951 16.8856 21.4951 16.5866 21.6435 15.6902L24.0232 9.86236C24.4697 9.11545 24.4697 8.21855 24.4697 7.92009C24.4697 6.87371 23.8748 6.1268 22.6849 6.1268C21.4951 6.1268 19.5613 6.57524 17.3306 8.51802C16.4382 9.71338 16.1408 10.3108 16.1408 10.3108C16.1408 10.6098 16.5867 10.6098 16.5867 10.6098C16.8842 10.6098 17.3306 10.0123 17.7766 9.71338C18.3715 9.11595 19.1149 8.21905 19.7098 8.21905C20.1557 8.21905 20.1557 8.51802 20.1557 8.6675C20.1557 8.81699 19.8583 9.26493 19.7098 9.86287L17.925 13.8974C17.6276 14.7938 16.7352 16.5866 16.7352 18.2309C16.7352 20.1737 18.2225 20.6216 18.9664 20.6216C20.8996 20.6216 24.3202 18.8288 27.2953 13.5989L26.8494 14.9433C26.7004 15.8407 26.2539 17.6335 26.2539 18.9778C26.2539 19.4268 26.2539 20.6216 27.5923 20.6216C30.5669 20.6216 32.7976 18.3799 33.9879 17.036C35.4752 14.9433 36.8136 13.001 36.9625 11.2082C37.26 9.86337 37.26 8.81749 37.26 8.07008C37.2625 5.52886 36.8161 3.73557 35.3288 2.39072Z" fill="#5E5E5E"/>
<path fill-rule="evenodd" clip-rule="evenodd" d="M35.3288 2.39072C33.693 0.747414 31.6107 0 28.6361 0C24.4717 0 20.6047 1.34485 17.1841 3.88505C14.061 6.72423 12.2763 9.86237 11.5324 13.4479C11.2349 14.4943 11.0859 15.2417 11.0859 15.9882C11.0859 19.2753 12.2758 21.5165 14.0605 23.4598C15.9938 25.1036 18.3735 26 21.3481 26C23.1329 26 24.6202 25.701 26.2559 25.4026C27.5943 24.9536 29.3795 23.9082 30.4204 23.1608C32.0562 21.8155 31.1638 21.368 29.974 22.1144C29.379 22.5634 27.5943 23.6088 26.4044 23.7583C25.3631 23.9082 23.8758 24.2062 22.24 24.2062C19.7113 24.2062 17.7781 23.6088 16.1423 22.1144C14.655 20.6201 14.06 18.8273 14.06 16.2871C14.06 15.3907 14.06 14.6433 14.2085 13.8964C14.8034 10.4593 16.4392 7.7696 18.8189 5.37888C21.4961 2.98815 24.4707 1.79279 28.0397 1.79279C30.4194 1.79279 32.2042 2.39022 33.5425 3.73557C34.7323 4.93093 35.4757 6.72422 35.4757 8.667C35.3267 11.6557 34.5833 14.0459 33.5425 15.3912C32.2042 17.334 31.0138 17.7819 31.0138 17.7819L30.5679 17.633C30.5679 16.8856 31.1628 14.7938 31.3113 14.0464L33.542 6.87421C33.542 6.72523 33.0955 6.57524 33.0955 6.57524H30.2699C29.9725 6.57524 29.3775 6.72473 29.2285 7.32266L28.9311 7.92059C27.8902 12.4036 25.0646 15.2427 24.3207 15.9892C23.1308 17.1845 22.239 17.633 21.941 17.633C21.4951 17.633 21.4951 17.0355 21.4951 17.0355C21.4951 17.0355 21.4951 16.5866 21.6435 15.6902L24.0232 9.86236C24.4697 9.11545 24.4697 8.21855 24.4697 7.92009C24.4697 6.87371 23.8748 6.1268 22.6849 6.1268C21.4951 6.1268 19.5613 6.57524 17.3306 8.51802C16.4382 9.71338 16.1408 10.3108 16.1408 10.3108C16.1408 10.6098 16.5867 10.6098 16.5867 10.6098C16.8842 10.6098 17.3306 10.0123 17.7766 9.71338C18.3715 9.11595 19.1149 8.21905 19.7098 8.21905C20.1557 8.21905 20.1557 8.6675 20.1557 8.6675C20.1557 8.6675 19.8583 9.26493 19.7098 9.86287L17.925 13.8974C17.6276 14.7938 16.7352 16.5866 16.7352 18.2309C16.7352 20.1737 18.2225 20.6216 18.9664 20.6216C20.8996 20.6216 24.3202 18.8288 27.2953 13.5989L26.8494 14.9433C26.7004 15.8407 26.2539 17.6335 26.2539 18.9778C26.2539 19.4268 26.2539 20.6216 27.5923 20.6216C30.5669 20.6216 32.7976 18.3799 33.9879 17.036C35.4752 14.9433 36.8136 13.001 36.9625 11.2082C37.26 9.86337 37.26 8.81749 37.26 8.07008C37.2625 5.52886 36.8161 3.73557 35.3288 2.39072Z" fill="#202020"/>
<path fill-rule="evenodd" clip-rule="evenodd" d="M0.078125 7.17233V8.66665C0.375586 8.66665 0.524567 8.66666 0.970508 8.81614C1.11899 8.81614 1.41695 9.1151 1.56543 9.26459C1.56543 9.56355 1.71391 9.56355 1.71391 9.71303V18.2301C1.71391 18.379 1.56543 18.678 1.56543 18.8275C1.41695 18.8275 1.11899 18.9765 0.970508 19.2754H0.078125V20.7703H9.74586C10.4893 20.7703 11.0842 20.6203 11.6791 20.3213C12.274 20.1723 12.8689 19.5739 13.1659 19.2749C13.6124 18.6775 13.9098 17.7806 13.9098 16.8842C13.9098 16.2868 13.9098 15.8388 13.6124 15.3899C13.4639 14.7924 13.0174 14.4935 12.5715 14.0445C12.274 13.4471 11.5301 12.9987 10.6382 12.9987C9.74586 12.7002 8.40754 12.4012 7.06871 12.4012H5.28394V9.86102C5.28394 9.71153 5.28394 9.56205 5.58141 9.26358L5.72989 9.1141C5.87887 8.81514 6.17633 8.81514 6.47379 8.81514H6.91973C8.10957 8.81514 9.29942 9.1141 9.74586 9.71153C10.4893 10.0105 11.0842 10.9069 11.6791 11.9528L13.0174 11.2059L11.5301 7.17133H0.078125V7.17233ZM5.28394 14.494H6.91973C7.81211 14.494 8.7045 14.643 9.15044 14.7929C9.74586 15.2419 9.89384 15.8393 9.89384 16.5857C9.89384 17.1832 9.74536 17.6321 9.4479 18.2296C9.29942 18.3785 8.85297 18.6775 8.40703 18.827C8.10957 18.976 7.66313 18.976 7.06871 18.976C6.47379 18.976 6.32531 18.976 5.87887 18.827C5.5814 18.827 5.28394 18.378 5.28394 18.0796V14.494ZM38.7471 14.643H41.4242C41.8701 14.7929 42.1676 14.9419 42.4651 15.2414C42.6135 15.6893 42.7625 15.9878 42.7625 16.5857C42.7625 17.3332 42.6135 18.0801 42.0186 18.3785C41.7212 18.976 40.8288 19.2749 39.7879 19.4249C39.342 19.4249 38.8955 19.2749 38.4496 19.2749C38.3011 18.976 38.1521 18.976 37.8547 18.827C37.7057 18.677 37.5572 18.378 37.5572 18.2296C37.2598 18.0796 37.2598 17.7806 37.2598 17.6321C37.2598 17.6321 37.2598 17.3332 37.5572 17.1832V16.5857C37.5572 16.2873 37.2598 15.9883 37.1113 15.6893C36.9623 15.2414 36.3674 14.9419 35.7724 14.9419C35.1775 14.9419 34.7316 15.3909 34.4341 15.8393C34.1367 15.9883 33.9882 16.5857 33.9882 17.1837C33.9882 18.2301 34.5831 19.2754 35.4755 20.0228C36.5163 20.7703 38.3011 21.2182 40.3833 21.2182C42.763 21.2182 44.3988 20.7703 45.4402 19.7239C46.3326 18.9765 46.7785 18.0801 46.7785 16.8847C46.7785 15.9883 46.63 15.2419 46.0351 14.643C45.4402 13.8966 44.5478 13.5976 43.5069 13.4476H43.6554C44.3988 13.2986 44.9937 12.8502 45.5887 12.4022C46.1841 11.9538 46.3321 11.2069 46.3321 10.4594C46.3321 9.56255 46.0346 8.51667 44.9937 7.91924C44.2503 7.17183 42.763 6.72388 41.1267 6.72388C40.2344 6.72388 39.491 6.87286 38.896 6.87286C38.3011 7.17183 37.7062 7.32131 37.1113 7.47079L36.9623 7.17183H35.1775L34.7311 11.2064L36.8133 11.5053C36.9618 11.0569 37.1108 10.4594 37.7057 9.71203C38.1521 9.56255 38.4491 9.1146 38.8955 8.81564C39.342 8.66615 39.7879 8.51667 40.2339 8.51667C41.2752 8.66615 41.8696 8.81564 42.1671 9.26358C42.4646 9.56255 42.6135 9.71203 42.6135 9.86102C42.6135 10.01 42.7625 10.3095 42.7625 10.4589C42.6136 11.0564 42.6135 11.5048 42.4651 11.6543C42.0186 12.1028 41.8701 12.2517 41.4242 12.2517C41.1267 12.4012 40.6803 12.7002 40.2344 12.7002H38.7466L38.7471 14.643Z" fill="#5E5E5E"/>
<path fill-rule="evenodd" clip-rule="evenodd" d="M42.3493 2.28467H42.7767V5.50006H42.3493V2.89564L40.6724 5.50006H40.25V2.28467H40.6724V4.87052L42.3493 2.28467ZM48.2804 5.50006H47.8581V2.28467H48.2804V3.626H49.8656V2.28467H50.2879V5.50006H49.8656V3.98867H48.2804V5.50006ZM56.7794 5.13738H56.6003C56.5241 5.13738 56.4298 5.13086 56.3199 5.11882C56.204 5.10545 56.09 5.07937 55.9798 5.04107C55.7782 4.97034 55.5931 4.84644 55.426 4.66887C55.259 4.49129 55.1752 4.22192 55.1752 3.86026C55.1752 3.49558 55.2605 3.2242 55.431 3.04512C55.6006 2.86604 55.7887 2.74415 55.9934 2.67994C56.1072 2.64333 56.2156 2.61874 56.3214 2.60671C56.4273 2.59467 56.5201 2.58815 56.5998 2.58815H56.7789V2.10107H57.2013V2.58815H57.3758C57.4551 2.58815 57.5484 2.59366 57.6542 2.6042C57.7601 2.61473 57.8679 2.63831 57.9778 2.67543C58.1834 2.73964 58.3726 2.86103 58.5451 3.0386C58.7187 3.21617 58.8049 3.49006 58.8049 3.86076C58.8049 4.20688 58.7277 4.46772 58.5707 4.64429C58.4147 4.82036 58.2436 4.94526 58.0565 5.0185C57.9296 5.0678 57.797 5.101 57.6618 5.11732C57.5363 5.13086 57.4415 5.13789 57.3768 5.13789H57.2023V5.61994H56.7799L56.7794 5.13738ZM56.7794 2.92775H56.66C56.332 2.92775 56.0967 2.98694 55.9547 3.10482C55.8128 3.2227 55.7195 3.35212 55.6763 3.49257C55.6566 3.5562 55.6429 3.62153 55.6352 3.6877C55.6239 3.80059 55.6233 3.91428 55.6332 4.0273C55.6382 4.08699 55.6488 4.14919 55.6673 4.2134C55.7105 4.36037 55.8033 4.49431 55.9457 4.6152C56.0882 4.73609 56.3259 4.79678 56.66 4.79678H56.7794V2.92775ZM57.3212 4.79729C57.3788 4.79729 57.4436 4.79428 57.5143 4.78776C57.5885 4.78123 57.6621 4.76898 57.7345 4.75113C57.8905 4.7085 58.0335 4.62272 58.1619 4.4938C58.2903 4.36489 58.355 4.1537 58.355 3.85975C58.355 3.56881 58.2893 3.35914 58.1589 3.23072C58.0408 3.10905 57.8929 3.02034 57.73 2.97339C57.6567 2.95483 57.585 2.94279 57.5143 2.93677C57.4436 2.93075 57.3788 2.92724 57.3212 2.92724H57.2018V4.79678L57.3212 4.79729ZM65.016 5.59637C64.532 5.59336 64.1607 5.43886 63.9019 5.13287C63.6431 4.82638 63.5142 4.41304 63.5142 3.89286C63.5142 3.28339 63.6662 2.84698 63.9686 2.58363C64.2564 2.32612 64.6299 2.18518 65.016 2.18835C65.4178 2.18835 65.7674 2.32028 66.0684 2.58363C66.3684 2.84698 66.5179 3.28339 66.5179 3.89286C66.5179 4.41605 66.3884 4.83039 66.1301 5.13538C65.8718 5.44036 65.5001 5.59235 65.016 5.59235V5.59637ZM65.016 5.2337C65.3807 5.2337 65.6471 5.10829 65.8156 4.85748C65.9841 4.60667 66.0684 4.28463 66.0684 3.89286C66.0684 3.52216 66.0097 3.24427 65.8928 3.05917C65.7775 2.87407 65.6481 2.74465 65.5076 2.67092C65.4202 2.62269 65.3255 2.58929 65.2272 2.57209C65.1572 2.56023 65.0865 2.55337 65.0155 2.55153C64.9664 2.55153 64.9147 2.55454 64.8595 2.56056C64.8031 2.56682 64.7476 2.57926 64.694 2.59768C64.5099 2.64985 64.3423 2.77124 64.1914 2.96286C64.0394 3.15448 63.9631 3.46448 63.9631 3.89286C63.9631 3.9661 63.9681 4.05188 63.9777 4.15019C63.9867 4.24801 64.0053 4.34883 64.0323 4.45317C64.0845 4.6493 64.1843 4.82839 64.3313 4.99041C64.4793 5.15243 64.7065 5.2337 65.016 5.2337Z" fill="#202020"/>
</svg>
