<svg width="110" height="40" viewBox="0 0 110 40" fill="none" xmlns="http://www.w3.org/2000/svg">
<path fill-rule="evenodd" clip-rule="evenodd" d="M63 24.6376H63.8122L64.3331 22.7825C64.6815 23.2457 65.3189 23.3622 65.9569 23.3622C67.1734 23.3622 68.5064 22.6089 68.7966 21.4495C69.0861 20.2317 68.2757 19.4778 67.0004 19.4778C66.3047 19.4778 65.5514 19.7097 65.0293 20.1158C65.087 19.8839 65.087 19.7674 65.1453 19.5938H64.3331C64.2754 19.8839 64.2171 20.1735 64.1018 20.4048L63 24.6376ZM64.6815 21.4495C64.9128 20.5213 65.7244 19.9416 66.7102 19.9416C67.6372 19.9416 68.1592 20.5213 67.9267 21.4495C67.6954 22.3764 66.8838 22.8984 65.898 22.8984C64.9716 22.8984 64.449 22.3764 64.6815 21.4495ZM69.9566 23.2457H70.7676L72.159 18.0288H71.4062L69.9566 23.2457ZM74.3042 20.5802C74.4778 20.1741 74.9999 19.9422 75.5796 19.9422C76.3918 19.9422 76.7973 20.1747 76.6237 20.8703V20.9863H75.1735C73.7245 21.0439 72.9123 21.4494 72.7387 22.2028C72.5651 22.8984 73.1448 23.3622 74.1877 23.3622C74.9999 23.3622 75.5219 23.3046 76.1587 22.7248C76.1587 22.8984 76.101 23.0721 76.101 23.2457H76.8544C76.8544 23.0721 76.9132 22.8408 76.9703 22.5512L77.4924 20.7538C77.7237 19.8256 76.9703 19.4778 75.8109 19.4778C74.9416 19.4778 73.7822 19.7097 73.4926 20.5796L74.3042 20.5802ZM76.4489 21.6231C76.2176 22.4923 75.5219 22.8984 74.5361 22.8984C73.7239 22.8984 73.4932 22.5512 73.6079 22.2028C73.7239 21.6231 74.3036 21.5071 75.1729 21.5071C75.8109 21.4495 76.217 21.4495 76.4483 21.4495V21.6231H76.4489ZM78.6524 23.2457H79.4646L79.9278 21.5065C80.2173 20.3471 81.2032 19.9416 81.9565 19.9416C82.7687 19.9416 83.1742 20.4048 82.9423 21.217L82.4203 23.2457H83.2325L83.7545 21.1593C84.1018 20.0575 83.4061 19.4778 82.2467 19.4778C81.4933 19.4778 80.8553 19.7097 80.2179 20.2311C80.2756 19.9993 80.2756 19.7674 80.3339 19.5938H79.5794C79.5217 19.8839 79.4646 20.1735 79.4057 20.4048L78.6524 23.2457ZM85.1447 23.2457H85.9569L86.42 21.5065C86.7096 20.3471 87.6954 19.9416 88.45 19.9416C89.261 19.9416 89.6665 20.4048 89.4358 21.217L88.9137 23.2457H89.7259L90.2468 21.1593C90.5952 20.0575 89.8996 19.4778 88.7401 19.4778C87.9856 19.4778 87.3488 19.7097 86.7102 20.2311C86.7691 19.9993 86.8261 19.7674 86.8261 19.5938H86.0728C86.021 19.8653 85.9631 20.1357 85.8992 20.4048L85.1447 23.2457ZM91.6952 23.2457H92.5074L93.4932 19.5938H92.681L91.6952 23.2457ZM92.9129 18.7245H93.7251L93.8987 18.0288H93.0865L92.9129 18.7245ZM94.4784 23.2457H95.2906L95.7538 21.5065C96.0434 20.3471 97.0292 19.9416 97.7825 19.9416C98.5371 19.9416 99.0002 20.4048 98.7683 21.217L98.2463 23.2457H99.0585L99.5806 21.1593C99.9278 20.0575 99.2321 19.4778 98.0727 19.4778C97.3193 19.4778 96.6814 19.7097 96.044 20.2311C96.1016 19.9993 96.1016 19.7674 96.1599 19.5938H95.4066C95.3477 19.8839 95.2906 20.1735 95.2318 20.4048L94.4784 23.2457ZM100.739 23.4782C100.566 24.3474 101.029 24.7535 102.652 24.7535C104.334 24.7535 105.319 24.2315 105.725 22.7248L106.362 20.29C106.421 19.9999 106.478 19.8256 106.595 19.5938H105.842C105.726 19.7674 105.668 19.9416 105.668 20.1158C105.262 19.652 104.799 19.4778 104.044 19.4778C102.653 19.4778 101.493 20.2311 101.146 21.3329C100.857 22.4347 101.667 23.188 103.059 23.188C103.73 23.1801 104.38 22.9567 104.914 22.5506H104.973L104.857 22.7819C104.624 23.6512 104.161 24.2309 102.712 24.2309C101.784 24.2309 101.495 23.8837 101.61 23.4776L100.739 23.4782ZM102.015 21.3335C102.247 20.5213 102.942 19.9422 103.986 19.9422C105.088 19.9422 105.492 20.5219 105.261 21.3335C105.029 22.1457 104.333 22.6666 103.29 22.6666C102.188 22.666 101.782 22.1451 102.015 21.3335Z" fill="#0C0E0F"/>
<path fill-rule="evenodd" clip-rule="evenodd" d="M6.07251 40L39.6379 0H51.29C58.1883 0 64.1597 4.52181 64.1597 12.1741C64.1597 19.8847 58.1889 24.7537 51.4059 24.7537H31.4642L36.3332 18.7246H51.4059C55.2903 18.7246 58.1889 16.2315 58.1313 12.1735C58.0724 5.85486 51.4059 6.02848 51.4059 6.02848H42.4206L13.8984 40H6.07251ZM19.6379 18.7246L14.7106 24.7537H12.9715C5.66701 24.7537 0.507812 20.2319 0.507812 12.5796C0.507812 4.86964 6.42094 0 13.261 0H35.1744L30.2471 6.02908H13.261C9.37721 6.02908 6.42034 8.52217 6.53629 12.5796C6.59456 18.8988 13.261 18.7246 13.261 18.7246H19.6379Z" fill="#202020" fill-opacity="0.1"/>
<path fill-rule="evenodd" clip-rule="evenodd" d="M31.1175 30.0277H32.1028L32.6242 27.477H33.8419L34.0161 26.8402H30.5955L30.4219 27.477H31.6967L31.1175 30.0277ZM34.8271 28.4051C34.9431 27.8831 35.2909 27.4193 35.9866 27.4193C36.6828 27.4193 36.8565 27.8825 36.6828 28.4051C36.5669 28.9848 36.2767 29.448 35.5234 29.448C34.8271 29.448 34.7118 28.9848 34.8271 28.4051ZM33.8419 28.4051C33.61 29.3909 34.0738 30.1443 35.4069 30.1443C36.7405 30.1443 37.4938 29.3909 37.6681 28.4051C37.8999 27.477 37.4938 26.7236 36.1031 26.7236C34.7695 26.7236 34.0738 27.477 33.8419 28.4051ZM39.6968 28.9848C39.5808 29.5646 39.6391 30.1443 40.9722 30.1443C41.6678 30.1443 42.653 29.9707 42.8273 29.0425C42.9432 28.4051 42.5377 28.2303 41.9574 28.1156L41.5519 27.9996C41.204 27.9407 40.9145 27.8837 40.9722 27.6512C41.0298 27.4776 41.204 27.3616 41.6101 27.3616C41.8997 27.3616 42.1899 27.4205 42.1322 27.7101H43.0597C43.1174 27.0721 42.8855 26.7242 41.7261 26.7242C40.9728 26.7242 40.1611 27.0138 39.9869 27.826C39.871 28.4057 40.3924 28.637 40.9145 28.6953L41.32 28.8112C41.7255 28.8689 41.8997 28.926 41.8414 29.1585C41.8414 29.3321 41.7255 29.5057 41.1458 29.5057C40.7397 29.5057 40.566 29.3909 40.6237 28.9848H39.6968ZM47.4073 26.8402H46.4798L46.1319 28.5217C46.016 29.1014 45.7258 29.4486 45.1461 29.4486C44.6247 29.4486 44.3928 29.2161 44.5081 28.6364L44.9142 26.8402H43.9284L43.5229 28.6953C43.3487 29.7382 43.8707 30.1443 44.9719 30.1443C46.1313 30.1443 46.827 29.6811 47.0589 28.5793L47.4073 26.8402ZM51.4071 27.8831C51.5813 27.0138 50.8274 26.7236 50.0158 26.7236C48.8563 26.7236 47.9871 27.2457 47.7552 28.4051C47.4656 29.6216 48.1607 30.1443 49.1459 30.1443C50.0734 30.1443 50.9433 29.9118 51.1752 28.9266H50.1894C50.0734 29.3327 49.7256 29.4486 49.3778 29.4486C48.7398 29.4486 48.5662 28.9854 48.6821 28.4057C48.8557 27.826 49.2036 27.4199 49.8415 27.4199C50.1894 27.4199 50.4213 27.5358 50.4213 27.8831H51.4071ZM55.3498 27.8831C55.5234 27.0138 54.7695 26.7236 53.9585 26.7236C52.799 26.7236 51.9874 27.2457 51.6972 28.4051C51.4654 29.6216 52.1034 30.1443 53.0886 30.1443C54.0738 30.1443 54.8854 29.9118 55.1173 28.9266H54.1321C54.0161 29.3327 53.6683 29.4486 53.3205 29.4486C52.6825 29.4486 52.5671 28.9854 52.6825 28.4057C52.7984 27.826 53.2045 27.4199 53.7836 27.4199C54.1315 27.4199 54.4216 27.5358 54.3634 27.8831H55.3498ZM55.5228 30.0277H58.3637L58.4797 29.3909H56.6246L56.7405 28.7523H58.4797L58.6533 28.0567H56.9141L57.0307 27.477H58.8269L59.0017 26.8402H56.2185L55.5228 30.0277ZM59.1753 30.0277H62.0162L62.1322 29.3909H60.2771L60.3936 28.7523H62.1322L62.2469 28.0567H60.5084L60.6832 27.477H62.4794L62.653 26.8402H59.871L59.1753 30.0277ZM62.8278 30.0277H64.567C65.2044 30.0277 65.6676 29.9118 66.016 29.6805C66.4094 29.3573 66.6762 28.9057 66.7693 28.4051C66.8853 27.8254 66.7693 27.361 66.4221 27.0709C66.1325 26.8972 65.7264 26.8396 65.3203 26.8396H63.5241L62.8278 30.0277ZM64.3345 27.4193H64.9142C65.5522 27.4193 65.9583 27.6506 65.8424 28.4051C65.6099 29.2744 65.0878 29.3909 64.3345 29.3909H63.8713L64.3345 27.4193ZM68.6827 30.0277H69.6097L70.3059 26.8402H69.379L68.6827 30.0277ZM70.3642 30.0277H71.1752L71.6972 27.7095L72.6242 30.0277H73.8996L74.5952 26.8402H73.726L73.2622 29.1585L72.277 26.8402H71.0587L70.3642 30.0277ZM76.3927 30.0277H78.2478C79.2907 30.0277 79.6968 29.5646 79.8127 29.1585C79.8704 28.7523 79.6391 28.4051 79.117 28.3462C79.5802 28.2886 79.9292 27.999 79.9863 27.5929C80.0452 27.1868 79.8127 26.8396 78.9434 26.8396H77.0295L76.3927 30.0277ZM77.5521 28.6953H78.4214C78.6539 28.6953 78.8846 28.8112 78.8275 29.1014C78.7704 29.3915 78.5379 29.4486 78.2478 29.4486H77.4356L77.5521 28.6953ZM77.8417 27.4193H78.479C78.8852 27.4193 79.06 27.477 79.0011 27.7665C78.9434 27.999 78.6539 28.115 78.2478 28.115H77.668L77.8417 27.4193ZM84.4499 26.8402H83.5229L83.1757 28.5217C83.0597 29.1014 82.7696 29.4486 82.1899 29.4486C81.6678 29.4486 81.4353 29.2161 81.5519 28.6364L81.8991 26.8402H80.9721L80.566 28.6953C80.3924 29.7382 80.9145 30.1443 82.015 30.1443C83.1757 30.1443 83.8701 29.6811 84.1026 28.5793L84.4499 26.8402ZM84.6823 28.9848C84.5664 29.5646 84.6247 30.1443 85.9577 30.1443C86.6534 30.1443 87.5803 29.9707 87.8128 29.0425C87.9288 28.4051 87.4656 28.2303 86.9435 28.1156L86.5374 27.9996C86.1902 27.9407 85.9001 27.8837 85.9577 27.6512C85.9577 27.4776 86.1902 27.3616 86.5957 27.3616C86.8853 27.3616 87.1166 27.4205 87.1166 27.7101H87.9858C88.1018 27.0721 87.8699 26.7242 86.6528 26.7242C85.9571 26.7242 85.1449 27.0138 84.9713 27.826C84.8554 28.4057 85.3774 28.637 85.8995 28.6953L86.3056 28.8112C86.6528 28.8689 86.8853 28.926 86.8264 29.1585C86.8264 29.3321 86.6528 29.5057 86.1307 29.5057C85.6676 29.5057 85.4933 29.3909 85.6099 28.9848H84.6823ZM88.1601 30.0277H89.1471L89.7839 26.8402H88.8569L88.1601 30.0277ZM89.8415 30.0277H90.7108L91.1758 27.7095L92.161 30.0277H93.3781L94.0738 26.8402H93.2616L92.7407 29.1585L91.7555 26.8402H90.5372L89.8415 30.0277ZM94.2474 30.0277H97.0306L97.2043 29.3909H95.2915L95.4651 28.7523H97.1466L97.3202 28.0567H95.5816L95.6976 27.477H97.5515L97.6674 26.8402H94.886L94.2474 30.0277ZM97.8999 28.9848C97.784 29.5646 97.8411 30.1443 99.1753 30.1443C99.871 30.1443 100.857 29.9707 101.03 29.0425C101.146 28.4051 100.741 28.2303 100.161 28.1156L99.755 27.9996C99.4078 27.9407 99.1176 27.8837 99.1753 27.6512C99.233 27.4776 99.4078 27.3616 99.8127 27.3616C100.102 27.3616 100.392 27.4205 100.335 27.7101H101.263C101.321 27.0721 101.088 26.7242 99.9286 26.7242C99.1753 26.7242 98.3637 27.0138 98.1895 27.826C98.0735 28.4057 98.5956 28.637 99.1176 28.6953L99.5225 28.8112C99.871 28.8689 100.102 28.926 100.045 29.1585C100.045 29.3321 99.9286 29.5057 99.3489 29.5057C98.8857 29.5057 98.7692 29.3909 98.8281 28.9848H97.8999ZM101.552 28.9848C101.378 29.5646 101.494 30.1443 102.828 30.1443C103.522 30.1443 104.45 29.9707 104.683 29.0425C104.799 28.4051 104.335 28.2303 103.812 28.1156L103.349 27.9996C103.06 27.9407 102.77 27.8837 102.828 27.6512C102.828 27.4776 103.06 27.3616 103.466 27.3616C103.755 27.3616 103.988 27.4205 103.988 27.7101H104.857C104.973 27.0721 104.741 26.7242 103.523 26.7242C102.828 26.7242 102.016 27.0138 101.843 27.826C101.727 28.4057 102.249 28.637 102.77 28.6953L103.176 28.8112C103.523 28.8689 103.755 28.926 103.698 29.1585C103.698 29.3321 103.523 29.5057 103.002 29.5057C102.539 29.5057 102.364 29.3909 102.48 28.9848H101.552Z" fill="#E7E9EE"/>
<path fill-rule="evenodd" clip-rule="evenodd" d="M20.6788 11.1328C20.9107 10.0894 20.7947 9.62558 20.331 9.1618C19.6353 8.58208 18.128 8.23485 15.8674 8.23485C10.8236 8.23485 9.37457 10.3795 9.02674 12.1187C8.50469 14.4375 9.7224 16.0025 14.2442 16.0025C16.2153 16.0025 18.0704 15.6547 19.2298 14.843C20.0414 14.2633 20.2733 13.6259 20.4469 12.9879H16.5631C16.3312 13.9155 15.6355 14.3793 14.4761 14.3793C13.0265 14.3793 12.7369 13.3358 12.9688 12.1181C13.2584 10.901 13.9546 9.85686 15.4613 9.85686C16.5048 9.85686 16.8526 10.263 16.795 11.1322L20.6788 11.1328ZM32.7946 12.1181C33.2584 9.91513 31.983 8.23425 27.5195 8.23425C25.2006 8.23425 24.0412 8.52381 23.0559 9.04586C21.8965 9.62558 20.9689 10.6691 20.6788 12.1187C20.215 14.3216 21.4904 16.0025 25.9539 16.0025C28.2728 16.0025 29.9537 15.4804 31.0555 14.7271C31.983 14.1474 32.5627 13.2192 32.7946 12.1181ZM28.9108 12.1181C28.6212 13.6253 27.5195 14.321 26.3018 14.321C25.0264 14.321 24.273 13.6253 24.5626 12.1181C24.8522 10.6108 25.9539 9.91514 27.171 9.91514C28.447 9.91514 29.2004 10.6114 28.9108 12.1181ZM32.6787 15.77H36.5048L37.0845 13.1033H38.244C39.5193 13.1033 39.6936 13.2192 39.6353 14.1468V15.77H43.4614V13.3352C43.4614 12.5812 42.8234 12.2917 41.9542 12.2917V12.1757C43.1136 12.0015 44.0418 11.4224 44.273 10.4366C44.6209 8.81337 43.1719 8.40787 40.6788 8.40787H34.2442L32.6787 15.77ZM37.7225 9.91514H39.1132C40.0408 9.91514 40.6205 10.147 40.4469 10.7844C40.331 11.4801 39.6353 11.6543 38.8237 11.6543H37.3747L37.7225 9.91514ZM44.0412 15.77H47.8673L48.3311 13.3928H51.3456C53.259 13.3928 54.8822 12.7555 55.23 10.9586C55.6355 9.04526 54.2442 8.40787 52.0413 8.40787H45.5484L44.0412 15.77ZM49.0844 9.97341H50.2438C51.345 9.97341 51.6346 10.2636 51.5192 10.901C51.345 11.5966 50.8236 11.8862 49.4322 11.8862H48.6789L49.0844 9.97341ZM67.1716 12.1181C67.6348 9.91513 66.3594 8.23425 61.8965 8.23425C59.5782 8.23425 58.3599 8.52381 57.433 9.04586C56.2153 9.62558 55.346 10.6691 55.0552 12.1187C54.592 14.3216 55.8674 16.0025 60.2733 16.0025C62.6492 16.0025 64.273 15.4804 65.4325 14.7271C66.3018 14.1474 66.9403 13.2192 67.1716 12.1181ZM63.2878 12.1181C62.9394 13.6253 61.8965 14.321 60.6211 14.321C59.4034 14.321 58.5924 13.6253 58.9396 12.1181C59.2292 10.6108 60.2739 9.91514 61.5493 9.91514C62.8246 9.91514 63.5774 10.6114 63.2878 12.1181ZM67.0551 15.77H70.8812L71.4033 13.1033H72.5627C73.8958 13.1033 74.0117 13.2192 74.0117 14.1468V15.77H77.7802L77.8379 13.3352C77.8379 12.5812 77.1422 12.2917 76.2729 12.2917L76.3318 12.1757C77.4912 12.0015 78.4182 11.4224 78.6501 10.4366C78.9396 8.81337 77.4906 8.40787 75.0552 8.40787H68.563L67.0551 15.77ZM72.0995 9.91514H73.4909C74.4178 9.91514 74.9399 10.147 74.8239 10.7844C74.6503 11.4801 74.0117 11.6543 73.2013 11.6543H71.7511L72.0995 9.91514Z" fill="#202020"/>
<path fill-rule="evenodd" clip-rule="evenodd" d="M83.0567 12.9257L85.0855 10.375L85.9547 12.9257H83.0567ZM77.0859 15.7661H80.8532L81.7814 14.5489H86.4768L86.8829 15.7661H91.1139L88.0423 8.40393H83.288L77.0859 15.7661ZM92.158 15.7661H95.9848L97.1436 10.2014H100.099L100.505 8.40453H90.7078L90.3606 10.2014H93.3175L92.158 15.7661ZM99.23 15.7661H107.984L108.331 14.2594H103.289L103.578 12.8681H108.217L108.564 11.3025H103.868L104.158 9.96947H109.143L109.491 8.40453H100.795L99.23 15.7661Z" fill="#202020"/>
</svg>
