<svg width="139" height="32" viewBox="0 0 139 32" fill="none" xmlns="http://www.w3.org/2000/svg">
<path d="M138.564 14.6504V15.3295C138.564 15.3295 137.824 15.6221 137.824 16.4944L137.829 31.0645C137.829 31.5779 137.415 31.9975 136.902 31.9975H134.037L127.737 22.0541C127.737 22.0541 127.87 22.8768 127.87 23.9147V31.9975H124.38V14.6504H126.644C127.798 14.6504 128.637 15.1252 129.244 16.0803C129.758 16.8864 134.517 24.384 134.517 24.384C134.517 24.384 134.346 23.8761 134.346 22.5068V14.6504H138.564ZM71.5493 14.6504V31.0645C71.5493 31.5779 71.1297 31.9975 70.6163 31.9975H67.7564L61.4568 22.0541C61.4568 22.0541 61.5894 22.8768 61.5894 23.9147V31.9975H58.0945V14.6504H60.3526C61.5065 14.6504 62.3457 15.1252 62.953 16.0803C63.4665 16.8864 68.2312 24.384 68.2312 24.384C68.2312 24.384 68.06 23.8761 68.06 22.5068V14.6504H71.5493ZM28.3802 14.6504H23.715V21.2977H19.6349V14.6504H14.2188V15.3295C14.2188 15.3295 14.9586 15.6111 14.9586 16.4944V31.9975H19.6349V24.4723H23.715V31.9975H28.3802V14.6504ZM43.4858 14.6504H33.0952V30.4461C33.0952 31.346 33.951 31.9975 34.8454 31.9975H43.4858C43.9993 31.9975 44.4189 31.5779 44.4189 31.0645V28.8284H38.4562C38.0697 28.8284 37.755 28.5082 37.755 28.1217V24.4723H43.0662V21.3033H37.755V17.825H44.4134V15.589C44.4189 15.07 43.9993 14.6504 43.4858 14.6504ZM53.3354 14.6504H48.6701V31.0645C48.6701 31.5779 49.0897 31.9975 49.6032 31.9975H53.3354V14.6504ZM119.489 14.6504H109.092V30.4461C109.092 31.3129 109.948 31.9975 110.848 31.9975H119.489C120.002 31.9975 120.422 31.5779 120.422 31.0645V28.8284H114.459C114.072 28.8284 113.758 28.5082 113.758 28.1217V24.4723H119.075V21.3033H113.758V17.825H120.427V15.589C120.427 15.07 120.002 14.6504 119.489 14.6504ZM86.6549 14.6504H76.2588V30.4461C76.2588 31.3129 77.1145 31.9975 78.0145 31.9975H86.6549C87.1684 31.9975 87.588 31.5779 87.588 31.0645V28.8284H81.6252C81.2388 28.8284 80.9241 28.5082 80.9241 28.1217V24.4723H86.2408V21.3033H80.9241V17.825H87.588V15.589C87.588 15.07 87.1684 14.6504 86.6549 14.6504ZM106.398 14.6504H103.03C102.219 14.6504 101.6 14.8547 100.954 15.5945C100.314 16.3343 96.2008 21.0714 96.2008 21.0714V14.6504H91.5355V31.0645C91.5355 31.5779 91.9551 31.9975 92.4686 31.9975H96.2008V24.1356C96.2008 24.1356 99.7011 29.6069 100.314 30.5676C100.927 31.5282 101.54 32.003 102.936 32.003H106.768L100.22 21.767L106.398 14.6504Z" fill="#5E5E5E"/>
<path d="M5.52518 20.9657C5.29329 21.1369 4.98411 20.916 5.07245 20.6455C5.19943 20.259 7.54588 13.0375 7.54588 13.0375L1.07521 8.33357C0.843327 8.16242 0.96479 7.80355 1.24636 7.80907H9.24084C9.24084 7.80907 11.5928 0.587541 11.7143 0.201068C11.8026 -0.0694635 12.1836 -0.0749845 12.2719 0.201068C12.3934 0.587541 14.7453 7.80355 14.7453 7.80355H22.7398C23.0214 7.80355 23.1484 8.1569 22.911 8.32805L19.0517 11.1327H14.4858L13.0724 6.7932L11.6646 11.1383H7.09868L10.7923 13.8215L9.37887 18.161C9.37887 18.1666 5.75706 20.7946 5.52518 20.9657Z" fill="#3D3D3D"/>
</svg>
