<svg width="146" height="36" viewBox="0 0 146 36" fill="none" xmlns="http://www.w3.org/2000/svg">
<path d="M31.5445 0.893976C27.9587 0.861889 24.5721 2.67402 24.5721 2.67402C24.5721 2.67402 21.1603 4.74041 19.914 7.83667C19.8496 8.1374 13.0904 21.2467 13.0904 21.2467C4.52254 18.7692 0.380244 23.7893 0.510804 25.7269C2.58073 30.9197 12.7027 27.2257 13.7133 26.0235C14.2727 25.7234 14.6332 26.0828 14.6332 26.0828C14.6332 26.0828 17.1121 27.7331 17.3922 27.863C17.6721 27.9929 19.0835 27.8037 19.0835 27.8037C20.1811 27.7203 22.1395 25.5694 22.3767 25.5488C22.7427 25.5499 23.1842 27.9316 24.691 27.8927C26.4989 28.2421 28.4588 26.2016 28.4588 26.2016C28.7169 25.8365 28.8149 26.1124 28.8149 26.1124C28.7733 28.3505 30.591 27.9558 31.1289 27.8927C32.9151 27.1658 37.2902 22.8553 36.7959 24.1248C36.6239 24.4687 35.2827 26.9728 35.2827 26.9728C35.1325 27.64 35.6091 27.5959 35.6091 27.5959L38.7538 27.5663C39.2916 27.2448 42.0431 21.3195 41.7209 22.137C42.7125 20.3423 44.9548 19.7041 44.9548 19.7041C45.1701 19.64 45.0734 19.9414 45.0734 19.9414L41.3945 27.2399C41.3303 27.4331 41.691 27.6256 41.691 27.6256L44.8952 27.5663C45.3259 27.5247 48.0105 22.0182 48.0105 22.0182C48.7412 20.6209 51.3336 19.8228 51.3336 19.8228C51.8067 19.7378 51.4819 20.2085 51.4819 20.2085L48.9601 25.4895C48.5768 27.8872 50.5914 28.0277 51.4522 27.9223C52.313 27.7958 53.7129 27.3109 56.4662 25.2521C57.0261 24.8236 57.1486 25.2547 57.1486 25.3412C57.1723 28.2897 60.4122 27.952 60.4122 27.952C61.3808 28.1914 65.3124 28.0987 68.6008 21.5435C67.3985 25.9951 69.8497 27.2074 69.936 27.3587C70.0223 27.5092 71.3401 27.9695 71.8347 27.863C76.8499 28.3076 78.9553 20.5052 78.9553 20.5052C80.0838 19.6586 80.3704 19.4156 80.8245 19.17C81.944 19.2802 82.2445 19.3118 82.7827 19.3777C83.2129 19.5298 82.8229 19.9314 82.6935 20.06C77.574 24.0494 79.8212 27.1257 79.9938 27.062C82.2341 30.1027 86.8847 24.8022 87.767 24.7181C88.8893 29.1983 92.3038 27.2479 92.4547 27.2695C92.1538 28.1512 91.2781 30.3313 90.5262 31.7495C88.9564 33.9624 86.4912 31.4827 86.4912 31.4827L85.8681 31.453C85.5671 31.8394 85.7495 32.2837 85.7495 32.2837C86.3956 33.3187 87.223 34.7509 89.7845 35.1023C92.3671 35.2171 93.8491 32.3727 93.8491 32.3727C93.8491 32.3727 97.4698 25.692 97.7061 24.896C98.8031 23.9091 100.707 22.484 102.127 21.4545C103.052 21.2636 99.8115 26.5468 99.5753 27.2992C99.511 27.7298 99.6643 27.7444 99.6643 27.7444C99.6643 27.7444 102.128 27.8668 102.601 27.8037C103.075 27.7404 105.374 22.2777 106.191 21.247C106.901 20.0651 109.188 18.9624 109.188 18.9624C109.683 18.8562 109.514 19.437 109.514 19.437L106.488 25.549C105.758 28.1076 107.813 28.1208 108.179 28.1005C109.169 28.0381 112.867 25.9049 112.867 25.9049C113.383 25.5187 113.371 26.1423 113.371 26.1423C113.329 26.9602 114.212 28.3001 114.944 28.1299C117.57 28.3738 121.541 24.0117 121.649 24.4213C121.671 24.5076 120.165 27.4773 120.165 27.4773C120.23 27.7141 120.492 27.8334 120.492 27.8334C120.492 27.8334 123.034 27.8613 123.637 27.863C124.239 27.8648 126.98 21.3145 127.583 20.95C128.809 19.6838 130.15 19.5636 130.193 19.5853C130.646 19.5654 127.635 24.3733 127.464 25.341C126.799 28.116 128.769 28.0706 128.769 28.0706C130.341 28.312 134.193 25.5789 134.258 25.8157C134.71 25.3654 134.763 25.9049 134.763 25.9049V26.1124C135.023 28.3519 136.335 28.1003 136.335 28.1003C137.842 28.4919 143.723 23.561 143.723 23.561L142.833 22.582L139.154 25.2521C138.852 25.4023 138.679 25.0741 138.679 25.0741L142.803 17.1228C142.996 16.9298 142.714 16.7075 142.714 16.7075H139.005C138.747 16.9863 138.59 17.1821 138.59 17.1821L135.238 23.7095L131.559 25.5192C131.171 25.6254 131.262 25.2226 131.262 25.2226C131.262 25.2226 134.327 19.2076 134.585 18.3689C134.757 17.9821 134.674 17.3603 134.674 17.3603C133.66 15.0111 129.567 18.0522 129.007 18.0724C128.985 18.0938 129.511 17.0042 129.511 17.0042C129.662 16.6816 129.363 16.6778 129.363 16.6778L125.921 16.6481C125.921 16.6481 125.932 16.4036 125.803 16.6185C125.674 16.8334 123.459 20.9799 123.459 20.9799L117.911 25.1631C117.437 25.2483 117.555 24.9259 117.555 24.9259L121.619 17.0635L121.649 16.7371L117.733 16.6481L114.499 22.8785C114.327 23.0719 110.939 24.9852 110.939 24.9852C110.422 25.1348 110.405 24.6884 110.405 24.6884L113.401 18.8734C114.08 16.6048 111.601 15.9378 110.375 16.3811C109.546 16.6798 108.773 16.9449 108.773 16.9449C108.773 16.9449 108.528 17.0086 108.743 16.7075C109.108 16.1919 112.897 8.69682 112.897 8.69682C112.983 8.48151 112.778 8.34077 112.778 8.34077L109.337 8.31112C109.057 8.43902 109.01 8.63752 109.01 8.63752L104.115 17.9239L100.08 20.9502C99.8214 21.1217 99.8126 20.8314 99.8126 20.8314L101.83 17.0042V16.6183L98.2104 16.5886L97.617 17.0633C97.2076 16.2011 95.1303 16.2113 95.0655 16.2326C90.7178 16.0909 88.2713 22.2554 88.2713 22.2554C85.8522 24.3525 84.7344 25.0051 83.9398 25.1332C83.2786 25.1704 83.0792 24.6287 83.0792 24.6287C82.1582 21.8068 87.9449 19.1401 87.9449 19.1401C88.1387 19.0328 88.9725 16.5295 88.8648 16.5293C88.757 16.5291 81.7495 16.5211 81.6849 16.4997C81.2972 16.3481 79.4255 18.1095 78.8663 18.5171C77.2272 13.713 70.8765 17.3465 69.9953 19.4961C69.6169 19.597 69.4472 19.5267 69.2535 19.5258C69.3173 17.8905 69.1002 16.8708 68.0668 16.3512C67.5069 16.0485 65.2188 16.3512 65.2188 16.3512L69.1053 8.60764C69.2987 8.37131 68.9272 8.13298 68.9272 8.13298H65.4264C65.2757 8.21884 65.1 8.4295 65.1 8.4295C65.1 8.4295 58.485 21.2416 58.098 21.9292C57.7112 22.6167 52.8762 25.1928 52.8762 25.1928C52.9187 24.7196 56.0329 19.3047 56.14 18.2503C56.2668 15.5174 53.1433 16.3811 53.1433 16.3811C53.1433 16.3811 51.3746 17.5552 49.7612 18.3689C49.4144 15.376 46.7941 16.4107 46.7941 16.4107L43.8273 18.3392L44.3613 16.9449L44.4801 16.4107L40.9196 16.3217C40.5113 16.622 39.7923 18.2503 39.7923 18.2503L38.6649 20.3271L33.5916 24.1545C33.0968 24.4326 33.3542 23.7688 33.3542 23.7688C33.3542 23.7688 36.7795 17.0505 36.855 17.004C37.1347 16.8325 36.9145 16.4109 36.9145 16.4109L33.4728 16.3811C33.4728 16.3811 32.8899 17.3713 32.7609 17.4789C31.1234 15.1708 25.7197 16.1075 22.8217 22.938C22.4513 23.3946 22.1647 23.7141 21.9614 23.7984C18.5635 27.7705 16.6208 23.8281 16.6208 23.8281L22.7031 12.2275C22.7031 12.2275 25.4703 6.03627 27.2128 4.27615C31.6228 1.29694 32.8795 4.09823 32.8795 4.09823C33.2606 4.98117 34.4226 8.16861 28.4292 9.70567C27.643 9.78335 27.895 10.1505 27.895 10.1505C29.6394 11.6406 31.7817 11.4857 31.7817 11.4857C33.8912 11.9004 39.6076 8.7548 37.5374 3.71252C35.922 1.60143 33.6959 0.913228 31.5445 0.893976ZM122.064 8.75635C118.922 8.87651 118.738 13.0936 121.946 13.5329C125.066 13.628 125.659 8.89576 122.064 8.75613V8.75635ZM143.455 8.75635C140.055 8.7683 140.308 13.5669 143.515 13.5329C146.722 13.2839 146.448 8.87208 143.455 8.75613V8.75635ZM31.1884 17.7457C32.1942 17.7688 32.0183 18.9739 31.8412 19.1996C31.949 19.5656 30.0906 22.7004 30.0906 22.7004C27.9404 25.3848 26.916 24.8958 26.916 24.8958C26.916 24.8958 26.1791 24.7935 26.7381 23.3532C27.34 22.3432 28.5089 19.7152 29.7346 18.1905C30.3801 17.8588 30.853 17.738 31.1884 17.7457ZM64.9218 18.0423C65.9767 18.1746 65.456 19.1401 65.456 19.1401L62.5483 24.8661C61.6238 26.0047 60.7682 25.6079 60.7682 25.6079C60.2947 25.2618 61.0947 23.9465 61.0947 23.9465L63.8242 18.6061C64.3615 18.0478 64.9218 18.0423 64.9218 18.0423ZM95.1841 18.0721C96.0073 17.9261 96.3414 18.6061 96.3414 18.6061C96.3414 18.6061 96.3892 18.7154 96.2819 19.3182C96.046 20.2432 93.493 24.6586 93.493 24.6586C92.418 25.7318 91.4755 25.5189 91.4755 25.5189C90.9376 25.3667 91.1491 24.5696 91.1491 24.5696C91.1491 24.5696 93.2164 20.3304 94.2051 18.5468C94.5924 18.2627 94.9097 18.1206 95.1841 18.0721ZM75.395 18.1018C75.8497 18.025 76.2814 18.2124 76.196 19.1697C75.6592 20.3089 73.5406 24.4939 73.1106 25.0737C73.0247 25.5689 70.8612 26.3758 71.4193 24.5696C71.4193 24.5696 74.454 18.8938 74.4753 18.6358C74.4859 18.5065 74.9404 18.1784 75.395 18.1018ZM7.06757 22.7601C8.84142 22.7176 10.4497 23.2939 10.4497 23.2939C10.4497 23.2939 10.0348 24.6769 6.11803 25.3114C4.26717 25.1992 3.30014 25.2074 3.29948 24.5402C4.20256 23.1963 5.68784 22.7931 7.06757 22.7601Z" fill="#3D3D3D"/>
</svg>
