<svg width="158" height="20" viewBox="0 0 158 20" fill="none" xmlns="http://www.w3.org/2000/svg">
<path d="M123.29 0.00814004C119.521 -0.118039 115.446 2.05104 113.513 6.13485C112.313 8.44012 111.398 11.0058 110.789 13.5254C110.735 13.7465 110.684 13.9685 110.637 14.1913C110.577 14.5498 110.572 15.0095 110.604 15.4781C110.753 17.4609 112.514 19.8584 115.416 19.9945H118.857C122.625 20.1197 126.698 17.9496 128.633 13.8658C129.832 11.5606 130.747 8.99291 131.355 6.47533C131.409 6.25101 131.462 6.0287 131.508 5.80838C131.571 5.44887 131.575 4.99122 131.541 4.52156C131.392 2.53774 129.631 0.142331 126.73 0.00713862H123.289L123.29 0.00814004ZM58.6651 0.190399L60.2063 19.8003H63.2966H63.2786H63.4609C63.7573 19.7907 64.0472 19.7104 64.3064 19.5662C64.5656 19.422 64.7866 19.218 64.951 18.9711H64.953L77.5529 0.191401H74.2943L65.2685 13.6706L64.2089 0.192402H58.6641L58.6651 0.190399ZM79.8051 0.190399L72.5738 19.8003H78.1247L85.353 0.191401H79.8051V0.190399ZM92.8286 0.190399C87.8425 0.250484 85.6394 5.79837 88.3633 9.35142C89.7452 11.0388 91.718 12.7883 92.8326 14.6359C93.5386 15.6354 92.7836 17.3017 91.4346 17.3177H82.6311L81.7198 19.8003H92.8657C97.2349 19.7873 100.191 14.6429 97.2589 10.6973C95.906 8.69849 93.7599 7.33355 92.4901 5.38078C91.7361 4.36233 92.4941 2.68995 93.8581 2.67193H102.052L102.964 0.190399H92.8286ZM106.805 0.190399L99.5792 19.8013H105.128L112.357 0.191401H106.805V0.190399ZM136.766 0.190399L129.506 19.8003H132.366L137.369 6.28506L137.394 6.52741L141.888 18.6647C142.024 18.9862 142.247 19.2631 142.533 19.4639C142.818 19.6646 143.154 19.7812 143.503 19.8003H146.117L153.38 0.191401H150.521L145.614 13.4442L140.387 0.191401H136.765L136.766 0.190399ZM124.558 2.03502C125.604 2.11513 126.435 2.99539 126.435 4.0629C126.443 4.32528 126.398 4.58464 126.3 4.82198L122.633 14.8082C121.893 16.7249 120.173 17.8996 118.131 17.9597H117.589C117.078 17.9189 116.602 17.6877 116.254 17.3118C115.906 16.9359 115.712 16.4429 115.711 15.9308C115.702 15.6702 115.749 15.4107 115.848 15.1697L119.514 5.1835C120.255 3.26677 121.974 2.09511 124.02 2.03602H124.558V2.03502Z" fill="#5E5E5E"/>
<path d="M7.23028 0.194386L0 19.8043H5.89338L9.35129 10.4259H16.3673L12.9093 19.8043H17.5129C18.292 19.8043 18.9609 19.3126 19.2323 18.6266C19.2353 18.6166 19.2383 18.6136 19.2423 18.6086L26.032 0.193384H20.1386L17.3547 7.74412H10.3387L13.1227 0.193384H7.23028V0.194386ZM29.7763 0.194386L22.548 19.8043H28.4384L35.6687 0.194386H29.7763ZM39.6774 0.194386L32.4481 19.8043H38.3395L41.1114 12.2836L42.5835 11.153L46.4921 18.7297L46.4941 18.7197L46.5041 18.7377C46.6654 19.0726 46.9231 19.3516 47.2441 19.539C47.5651 19.7263 47.9348 19.8135 48.3057 19.7892C48.2916 19.7892 48.2756 19.7993 48.2606 19.7993H53.2637L47.0399 7.72909L56.8568 0.192383H52.4536L42.8499 7.56586L45.5688 0.192383H39.6774V0.194386Z" fill="#3D3D3D"/>
<path d="M157.721 1.92674C157.721 3.01929 156.864 3.87551 155.748 3.87551C154.645 3.87551 153.766 3.01929 153.766 1.92674C153.766 0.857218 154.645 0 155.748 0C156.864 0 157.721 0.857218 157.721 1.92674ZM154.258 1.92674C154.258 2.78396 154.891 3.46492 155.76 3.46492C156.607 3.46492 157.229 2.78396 157.229 1.93775C157.229 1.08154 156.607 0.387551 155.748 0.387551C154.89 0.387551 154.258 1.08154 154.258 1.92674ZM155.443 2.93617H154.997V1.01144C155.242 0.967829 155.49 0.947709 155.738 0.951352C156.101 0.951352 156.266 1.01144 156.406 1.09355C156.467 1.14541 156.516 1.21033 156.548 1.28349C156.581 1.35665 156.596 1.43617 156.594 1.51616C156.594 1.72846 156.429 1.89169 156.194 1.96179V1.98582C156.382 2.05592 156.488 2.19812 156.548 2.45649C156.607 2.74991 156.642 2.86708 156.688 2.93717H156.207C156.148 2.86708 156.113 2.69082 156.054 2.46851C156.019 2.25621 155.902 2.16307 155.655 2.16307H155.443V2.93717V2.93617ZM155.455 1.84462H155.665C155.913 1.84462 156.113 1.76251 156.113 1.56222C156.113 1.38697 155.984 1.2698 155.701 1.2698C155.585 1.2698 155.502 1.27982 155.455 1.29284V1.84362V1.84462Z" fill="#5E5E5E"/>
</svg>
