<svg width="136" height="32" viewBox="0 0 136 32" fill="none" xmlns="http://www.w3.org/2000/svg">
<path d="M13.9649 0.126989C10.5278 0.45827 7.27021 1.92143 4.84082 4.22659C1.74886 7.13911 0.0234375 11.1835 0.0234375 15.5454C0.0234375 22.5023 3.63992 28.1755 9.68581 30.6601C12.2946 31.7367 14.2961 32.068 17.678 31.9576C20.273 31.8748 21.9708 31.5987 23.9585 30.9499C25.1456 30.5635 27.9063 29.2659 27.9063 29.1003C27.9063 29.0451 27.6302 28.4101 27.2851 27.6785L26.664 26.3396L25.8082 26.8227C23.5996 28.0236 21.5291 28.5344 18.3819 28.6448C13.5922 28.7966 10.3898 27.7614 7.67051 25.1939C5.39295 23.0544 4.06783 20.2523 3.76415 16.9395C3.23963 11.3215 6.05552 6.37992 10.9419 4.30941C12.5569 3.63305 14.0063 3.37078 16.1044 3.38459C18.4095 3.39839 19.6242 3.66066 21.4187 4.55788C23.0613 5.37227 25.118 7.40137 25.9462 9.03017C26.8434 10.7832 27.1471 12.0255 27.1471 13.9856C27.1471 15.7524 26.871 16.9671 26.1808 18.3337C25.3941 19.8934 23.8205 21.3014 22.1089 22.0054C19.5414 23.0406 16.201 22.9854 13.9925 21.8673C12.2532 20.9839 10.8867 18.8168 10.5968 16.4978L10.514 15.849H23.7653V14.3997C23.7653 9.81696 21.6257 6.65599 17.8988 5.70356C16.8084 5.42749 14.3237 5.42749 13.2195 5.71736C8.0294 7.05629 5.1583 13.5301 7.18739 19.3827C7.75333 21.0391 8.34688 21.9639 9.68581 23.3029C11.3836 25.0007 12.9434 25.8289 15.3176 26.2844C16.6841 26.5467 19.5828 26.5329 21.0184 26.2568C25.4079 25.4286 28.8173 22.3918 30.1562 18.1266C30.3357 17.5193 30.5427 16.7601 30.5979 16.4288L30.6946 15.849H32.3234V20.9839C32.3234 23.9516 32.3924 26.3948 32.4752 26.7399C32.8755 28.5068 34.2972 30.2184 36.0641 31.088C37.4444 31.7505 38.4935 31.999 39.9842 31.999C42.4274 31.999 44.2219 31.295 45.7955 29.7214C46.8721 28.6448 47.3966 27.72 47.6313 26.4224C47.7279 25.8979 47.7831 23.2201 47.7831 19.1343V12.6743H44.0562V25.7323L43.6973 26.45C43.021 27.8166 41.7373 28.5482 39.9704 28.5482C39.0042 28.5482 38.7419 28.4929 37.9965 28.1203C37.1545 27.7062 36.7404 27.2782 36.2435 26.3396C35.9951 25.8841 35.9813 25.3872 35.9398 19.2585L35.8984 12.6743H30.6808L30.5979 12.0117C30.1976 8.86453 28.8449 6.15907 26.6226 4.01954C24.2346 1.72818 21.3359 0.45827 17.7056 0.113185C16.0768 -0.0386519 15.6627 -0.0386519 13.9649 0.126989ZM17.4295 8.87833C18.6856 9.32004 19.7623 10.6176 20.0245 12.0393L20.135 12.6743H10.6658L10.8729 11.9427C11.2594 10.659 12.0324 9.67893 13.1367 9.08539C14.1857 8.51945 16.1458 8.42282 17.4295 8.87833ZM55.375 15.9181V30.8947H56.6173V0.941388H55.375V15.9181ZM94.4386 2.11468V3.28796H97.1993V0.941388H94.4386V2.11468ZM63.657 7.29095V13.0884H66.7904C70.3931 13.0884 71.3593 12.9641 72.367 12.3568C73.3194 11.777 73.7335 11.0317 73.7335 9.87218C73.7335 8.71269 73.3332 7.9259 72.4774 7.38757L71.8148 6.97347L72.2013 6.61458C72.8777 5.97962 73.0709 5.42749 73.0157 4.30941C72.9743 3.4398 72.9191 3.23275 72.5464 2.77724C72.3256 2.48737 71.8286 2.10087 71.4421 1.90763C70.7796 1.57634 70.683 1.56254 67.2183 1.52113L63.657 1.47972V7.29095ZM69.7719 4.00574C70.4897 4.37843 70.6001 4.98578 70.0894 5.59313C69.7581 5.97962 69.7305 5.97962 68.0189 6.02103L66.2797 6.07625V3.8401H67.8809C68.8195 3.8401 69.5925 3.90912 69.7719 4.00574ZM70.4207 8.57466C70.9314 8.83692 71.1799 9.41667 70.9728 9.91359C70.7106 10.5485 70.0066 10.7418 68.0051 10.7418H66.2797V8.39522H68.1845C69.4268 8.39522 70.1998 8.46423 70.4207 8.57466ZM87.6335 4.18518C85.4112 4.90296 84.9418 7.88449 86.8881 9.00257C87.2056 9.18201 87.9924 9.49949 88.6412 9.70654C89.9525 10.1206 90.1595 10.2449 90.1595 10.6176C90.1595 11.3077 88.655 11.3077 87.2884 10.6176C86.8191 10.3829 86.3912 10.1897 86.336 10.1897C86.2808 10.1897 85.9909 10.5623 85.6872 11.0179C85.0661 11.9841 85.0661 11.9565 86.3912 12.6052C87.3851 13.0884 88.3789 13.2678 89.5384 13.1988C91.4571 13.0746 92.5061 12.1911 92.6165 10.6038C92.727 9.08539 92.0506 8.35381 89.7868 7.56701C89.0829 7.31855 88.4065 7.00107 88.2685 6.84924C88.0338 6.58697 88.0338 6.55937 88.3513 6.3109C88.8344 5.91061 89.5108 6.00723 90.9325 6.6836C91.1948 6.80783 91.4295 6.89065 91.4571 6.86304C91.4847 6.83543 91.7193 6.42133 91.9954 5.95202L92.4923 5.0824L92.161 4.86155C91.0429 4.12997 88.8482 3.79869 87.6335 4.18518ZM103.411 4.18518C103.149 4.30941 102.721 4.59929 102.486 4.83394L102.03 5.27565V4.11617H99.4078V13.0884H102.03V10.4657C102.03 7.59462 102.127 7.08389 102.776 6.66979C103.19 6.39373 103.935 6.36612 104.377 6.60078C104.957 6.91825 105.067 7.498 105.067 10.3967V13.0884H107.704L107.662 9.45808L107.621 5.81398L107.248 5.26185C106.696 4.41984 106.047 4.08856 104.874 4.01954C104.184 3.99194 103.756 4.03335 103.411 4.18518ZM112.383 4.21279C110.961 4.70971 109.94 5.8692 109.539 7.42898C108.918 9.85838 110.174 12.274 112.411 13.0055C113.404 13.323 115.088 13.2954 116.013 12.9503C116.69 12.7019 117.904 11.8185 117.904 11.5976C117.904 11.5424 117.559 11.2111 117.159 10.8384L116.4 10.1897L115.682 10.6314C115.102 11.0041 114.826 11.0869 114.177 11.0869C113.28 11.0869 112.797 10.8246 112.383 10.1482C112.231 9.89979 112.107 9.66513 112.107 9.59611C112.107 9.5409 113.515 9.49949 115.226 9.49949H118.36L118.291 8.42282C118.139 6.15907 117.145 4.72352 115.337 4.17138C114.495 3.92292 113.17 3.93672 112.383 4.21279ZM114.826 6.40753C115.171 6.62838 115.475 7.05629 115.627 7.5256L115.71 7.84308H113.915C112.742 7.84308 112.107 7.78787 112.107 7.70505C112.107 7.62223 112.19 7.38757 112.3 7.18052C112.825 6.17287 113.915 5.84159 114.826 6.40753ZM122.114 4.10236C120.72 4.47505 119.837 5.53792 119.837 6.87684C119.837 8.24338 120.596 8.98876 122.611 9.63752C123.867 10.0378 124.392 10.3139 124.392 10.59C124.392 10.6452 124.268 10.8108 124.116 10.9488C123.716 11.3215 122.542 11.1697 121.479 10.6314C121.01 10.3829 120.582 10.1897 120.527 10.1897C120.361 10.1897 119.395 11.7218 119.464 11.9013C119.561 12.1635 120.817 12.7847 121.7 13.0194C123.84 13.5715 125.993 12.9503 126.545 11.6114C126.656 11.3629 126.739 10.7556 126.739 10.2725C126.739 9.45808 126.697 9.32004 126.297 8.87833C125.814 8.3262 125.248 8.00872 124.116 7.63603C122.915 7.24954 122.321 6.90445 122.321 6.60078C122.321 5.93821 123.453 5.91061 124.806 6.54556C125.662 6.94586 125.648 6.95966 126.269 5.73116C126.6 5.09621 126.6 5.04099 126.38 4.87535C125.551 4.28181 123.122 3.8263 122.114 4.10236ZM130.534 4.10236C129.582 4.33702 128.685 5.0548 128.409 5.81398C128.188 6.36612 128.215 7.5118 128.45 7.96731C128.837 8.69889 129.541 9.1544 130.962 9.60991C131.708 9.85838 132.398 10.1068 132.481 10.162C132.771 10.3553 132.798 10.7142 132.536 10.9488C132.136 11.3077 130.976 11.1697 129.872 10.6314C129.389 10.3829 128.947 10.1897 128.919 10.1897C128.768 10.1897 127.829 11.7494 127.884 11.9013C127.981 12.1635 129.237 12.7847 130.12 13.0194C132.26 13.5715 134.413 12.9503 134.965 11.6114C135.076 11.3629 135.159 10.797 135.159 10.3553C135.159 9.01637 134.482 8.28479 132.702 7.69124C131.335 7.24954 130.741 6.91825 130.741 6.60078C130.741 5.95202 131.873 5.91061 133.212 6.53176C133.613 6.72501 133.971 6.87684 133.999 6.87684C134.068 6.87684 135.062 5.0686 135.007 5.02719C134.979 4.99958 134.689 4.84775 134.372 4.68211C133.171 4.07476 131.611 3.8401 130.534 4.10236ZM75.4175 7.59462C75.4589 10.8522 75.4727 11.1283 75.7626 11.639C76.3423 12.7157 77.212 13.2264 78.4957 13.2264C79.3791 13.2264 79.9588 13.0194 80.6076 12.481L81.0493 12.0945V13.0884H83.81V4.11617H81.0631L81.0217 7.07009C80.9803 9.74795 80.9527 10.0516 80.718 10.3139C80.1521 10.9488 79.034 10.9074 78.4681 10.2587C78.1644 9.91359 78.1506 9.80316 78.1506 7.00107V4.11617H75.3623L75.4175 7.59462ZM94.4386 8.60227V13.0884H97.0612V4.11617H94.4386V8.60227ZM83.6719 24.5452V30.6187H86.2946V28.1617C86.3084 25.4286 86.405 24.7936 86.8881 24.2967C87.5369 23.6618 88.8758 23.924 89.1933 24.766C89.2761 24.9593 89.3313 26.3534 89.3313 27.8718V30.6187H92.1196L92.0644 27.1954C92.023 24.3105 91.9816 23.7032 91.7745 23.2339C91.2638 22.0882 90.3528 21.5222 89.0139 21.5084C88.0752 21.5084 87.3574 21.7707 86.7501 22.3642L86.2946 22.806V18.4717H83.6719V24.5452ZM116.524 24.5452V30.6187H119.147V18.4717H116.524V24.5452ZM66.3211 18.8858C64.4714 19.2585 63.3948 20.5422 63.381 22.378C63.381 23.5513 63.6018 24.0759 64.3472 24.7246C64.9269 25.2077 65.5757 25.47 68.0465 26.2016C68.5986 26.3534 69.1784 26.6157 69.3302 26.7675C69.91 27.3473 69.3854 28.1893 68.3364 28.3549C67.5496 28.4791 66.3901 28.1617 65.3687 27.5543L64.43 26.9884L63.6294 27.8718C63.2015 28.3549 62.8426 28.7966 62.8288 28.8518C62.8288 29.0727 64.6095 30.0941 65.5067 30.384C66.2659 30.6187 66.818 30.6877 67.9499 30.6877C69.344 30.6877 69.4545 30.6601 70.3655 30.2046C71.1661 29.7905 71.3869 29.5972 71.7596 28.9623C72.1599 28.2997 72.2151 28.0926 72.2151 27.223C72.2151 26.0636 72.0771 25.5942 71.5526 25.0559C70.9452 24.4071 70.1722 24.0483 68.3502 23.5099C67.3563 23.2201 66.4867 22.8888 66.3211 22.7231C65.4377 21.8949 66.5281 20.9839 68.0741 21.26C68.4192 21.3152 69.1094 21.5775 69.6201 21.8397L70.5587 22.309L71.2489 21.329L71.9529 20.3351L71.6354 20.0729C70.4483 19.0928 68.0327 18.5545 66.3211 18.8858ZM76.8807 21.6879C75.4313 22.24 74.3961 23.2339 73.9406 24.5314C73.8301 24.8765 73.7335 25.5942 73.7335 26.1602C73.7335 27.996 74.5341 29.3626 76.1077 30.2184C76.9497 30.6739 77.0325 30.6877 78.4957 30.6877C79.9036 30.6877 80.0693 30.6601 80.7318 30.2874C81.1183 30.0803 81.6152 29.7214 81.8223 29.5006L82.2088 29.1003L81.4634 28.3411C80.6628 27.5267 80.4972 27.4577 80.2073 27.8028C79.6276 28.4929 78.2472 28.6586 77.4052 28.1341C76.4252 27.5405 76.0801 26.0497 76.6322 24.9593C77.2672 23.7032 78.827 23.4133 79.9174 24.3381C80.1521 24.5314 80.3867 24.6832 80.4558 24.6832C80.5248 24.6832 80.9389 24.3105 81.3944 23.8412L82.2226 23.013L81.7395 22.5989C80.8284 21.8259 80.1383 21.5913 78.7027 21.5498C77.8469 21.5222 77.212 21.5636 76.8807 21.6879ZM96.8266 21.7707C94.8941 22.4885 93.7208 24.1173 93.707 26.1188C93.707 27.2092 93.9279 27.9546 94.48 28.769C95.4324 30.1494 96.9922 30.8395 98.9109 30.7291C100.871 30.6187 102.237 29.7629 103.024 28.1617C103.438 27.3335 103.48 27.1264 103.466 26.0636C103.466 25.1387 103.397 24.7522 103.149 24.2553C102.652 23.2339 101.961 22.5299 100.968 22.033C100.181 21.6465 99.8909 21.5774 98.8004 21.5498C97.8204 21.5084 97.3925 21.5636 96.8266 21.7707ZM99.7805 24.1587C101.023 24.9041 101.23 26.7537 100.181 27.8028C98.759 29.2245 96.3711 28.1755 96.3711 26.1326C96.3711 25.0145 96.868 24.2691 97.848 23.924C98.4692 23.7032 99.1593 23.786 99.7805 24.1587ZM108.007 21.7569C105.868 22.5161 104.667 24.3105 104.819 26.4915C104.943 28.2307 105.882 29.5558 107.538 30.3288C108.214 30.6463 108.477 30.6877 109.76 30.6877C111.072 30.6877 111.279 30.6463 111.969 30.3012C113.004 29.7629 113.805 28.9485 114.246 27.9684C114.578 27.2368 114.619 27.0022 114.564 25.9531C114.509 24.5452 114.219 23.8136 113.335 22.9164C112.397 21.9777 111.458 21.5913 109.981 21.5498C109.029 21.5084 108.559 21.5636 108.007 21.7569ZM110.727 24.0621C112.825 25.1387 112.093 28.4653 109.76 28.4653C108.104 28.4653 106.986 26.7261 107.662 25.2215C108.242 23.924 109.512 23.4409 110.727 24.0621Z" fill="#3D3D3D"/>
</svg>
