<svg width="141" height="32" viewBox="0 0 141 32" fill="none" xmlns="http://www.w3.org/2000/svg">
<path d="M89.1383 20.0281C86.7073 20.0281 84.729 18.0493 84.729 15.6188C84.729 13.1878 86.7073 11.2095 89.1383 11.2095C91.5694 11.2095 93.5471 13.1878 93.5471 15.6188C93.5471 18.0736 91.5451 20.0281 89.1383 20.0281ZM89.1383 8.58742C85.2535 8.58742 82.1075 11.734 82.1075 15.6188C82.1075 19.5036 85.2535 22.6497 89.1383 22.6497C93.0231 22.6497 96.1692 19.5036 96.1692 15.6188C96.1692 11.7577 93.0231 8.58742 89.1383 8.58742ZM80.5344 20.3854H81.1064V23.0306H80.5344C77.5076 23.0306 75.0286 20.5521 75.0286 17.5253V5.44137H77.6744V8.96893H81.0822V11.6147H77.6744V17.5491C77.6744 19.0983 78.9614 20.3854 80.5344 20.3854ZM112.757 20.0281C110.326 20.0281 108.348 18.0493 108.348 15.6188C108.348 13.1878 110.326 11.2095 112.757 11.2095C115.188 11.2095 117.166 13.1878 117.166 15.6188C117.142 18.0736 115.164 20.0281 112.757 20.0281ZM112.757 8.58742C108.872 8.58742 105.726 11.734 105.726 15.6188C105.726 19.5036 108.872 22.6497 112.757 22.6497C116.642 22.6497 119.788 19.5036 119.788 15.6188C119.788 11.7577 116.642 8.58742 112.757 8.58742ZM132.992 20.0281C130.56 20.0281 128.583 18.0493 128.583 15.6188C128.583 13.1878 130.56 11.2095 132.991 11.2095C135.422 11.2095 137.401 13.1878 137.401 15.6188C137.401 18.0736 135.399 20.0276 132.991 20.0276M132.991 8.58742C129.107 8.58742 125.961 11.734 125.961 15.6188C125.961 19.5036 129.107 22.6497 132.991 22.6497C134.707 22.6497 136.28 22.0296 137.496 21.0049V22.3874H140.022V15.833V15.6183C140.022 11.7572 136.876 8.58742 132.991 8.58742ZM103.438 8.58794H104.701V11.2332H103.438C101.866 11.2332 100.578 12.5208 100.578 14.0933V22.4829H97.9327V14.0933C97.9327 11.0665 100.411 8.58794 103.438 8.58794ZM121.552 5.08413H124.197V22.4349H121.552V5.08413ZM57.4398 14.4505V22.8164H54.794V14.4505C54.794 12.8775 53.507 11.5905 51.934 11.5905C50.3615 11.5905 49.074 12.8775 49.074 14.4505V22.8159H46.4287V14.4505C46.4287 12.8775 45.1411 11.5905 43.5686 11.5905C41.9961 11.5905 40.7086 12.8775 40.7086 14.4505V22.8159H38.0633V14.4505C38.0633 11.4232 40.5418 8.94466 43.5449 8.94466C45.2372 8.94466 46.7147 9.68342 47.7394 10.8755C48.7642 9.68342 50.2417 8.94466 51.9345 8.94466C54.9608 8.94466 57.4398 11.4232 57.4398 14.4505ZM66.258 20.3854C63.8269 20.3854 61.8486 18.4071 61.8486 15.976C61.8486 13.545 63.8275 11.5667 66.258 11.5667C68.689 11.5667 70.6673 13.5455 70.6673 15.976C70.6673 18.4071 68.6653 20.3854 66.258 20.3854ZM66.258 8.94519C62.3494 8.94519 59.2028 12.0912 59.2028 15.976C59.2028 19.8608 62.3494 23.0069 66.2342 23.0069C70.119 23.0069 73.2651 19.8608 73.2651 15.976C73.2888 12.115 70.1428 8.94519 66.258 8.94519ZM16.3982 0.0078125C7.55636 0.0078125 0.40625 7.15792 0.40625 15.9998C0.40625 24.8417 7.55636 31.9923 16.3982 31.9923C25.2406 31.9923 32.3907 24.8422 32.3907 15.9998C32.3907 7.20541 25.3356 0.0078125 16.3982 0.0078125Z" fill="#3D3D3D"/>
<path d="M21.1671 3.94043L16.4243 19.6707L16.4 19.6944L16.3525 19.6707L11.6097 3.94043L5.48438 24.08H6.62839C6.62839 24.08 7.39142 20.5762 8.6547 18.4792C9.34596 17.3351 10.3945 16.4054 11.8002 16.4291C12.8012 16.4534 13.6592 17.0011 14.732 18.5029C14.97 18.8364 15.256 19.3847 15.542 19.9092C15.9953 20.7904 16.3763 21.6964 16.3763 21.6964C16.3763 21.6964 17.3773 19.4084 18.0211 18.5029C19.0933 17.0011 19.9513 16.4534 20.9524 16.4291C22.3586 16.4054 23.4309 17.3351 24.0984 18.4792C25.3617 20.5762 26.1247 24.08 26.1247 24.08H27.2682L21.1671 3.94043Z" fill="white"/>
</svg>
