<svg width="131" height="36" viewBox="0 0 131 36" fill="none" xmlns="http://www.w3.org/2000/svg">
<path fill-rule="evenodd" clip-rule="evenodd" d="M88.4914 9.9314H78.6066V12.0005C79.4303 12.0005 80.2547 12.2074 80.4596 12.6214C80.8722 12.8284 81.0785 13.4486 81.0785 14.2765V17.1735H74.2823V14.2765C74.2823 13.4493 74.4886 12.8284 74.6948 12.6214C75.106 12.2074 75.9305 12.0005 76.7542 12.0005V9.9314H66.6631V12.0005C67.4868 12.0005 67.6924 12.0005 68.1036 12.2074C68.5161 12.2074 68.5161 12.6214 68.721 12.6214C69.1336 13.2423 69.3399 13.6556 69.3399 14.2765V25.2421C69.3399 25.2421 69.1336 25.8623 68.721 26.0693L68.1036 26.6895H66.6631V28.7593H76.7528V26.6895H75.3109C75.1046 26.2756 74.6935 26.0693 74.6935 26.0693C74.4872 25.8616 74.4872 25.4477 74.4872 25.2421C74.2809 25.0344 74.2809 24.4149 74.2809 24.4149V20.0698H81.0771V25.2421C81.0771 25.2421 80.8708 25.8623 80.8708 26.0693C80.4582 26.0693 80.2533 26.2756 80.0471 26.6895H78.6052V28.7593H88.49V26.6895H87.0481C86.8419 26.2756 86.637 26.0693 86.2244 26.0693C86.2244 25.8616 86.0181 25.4477 86.0181 25.2421V14.2758C86.0181 13.6549 86.2244 13.2416 86.637 12.6207C86.8419 12.2067 87.6663 11.9998 88.49 11.9998V9.9314H88.4914ZM89.727 9.9314V12.0005C90.5508 12.0005 91.1675 12.0005 91.3738 12.2074C91.7864 12.2074 91.9913 12.6214 91.9913 12.8284C92.4038 13.2423 92.4038 13.4493 92.4038 13.4493L92.6101 14.2765V25.2421C92.6101 25.2421 92.4038 25.8623 91.9913 26.0693L91.3738 26.6895H89.727V28.7593H107.23L110.525 22.1381L108.466 21.3109C107.23 23.38 105.994 24.4149 104.347 25.2421C102.699 26.0693 101.052 26.2756 99.1993 26.2756C98.5805 26.2756 98.3742 26.2756 97.9637 26.0693C97.7574 25.8616 97.5511 25.0344 97.5511 24.0002V20.0691H98.3749C99.6105 20.0691 100.229 20.2754 100.641 20.483C101.259 21.1047 101.67 21.9319 101.67 22.9654H103.729V14.2758H101.67C101.67 15.31 101.259 16.1379 100.641 16.7588C100.229 16.9658 99.6112 17.1728 98.3749 17.1728H97.5511V14.6898C97.5511 13.6556 97.7574 13.4486 97.7574 12.8277C97.9637 12.6207 98.7868 12.2067 99.8168 12.2067H100.434C102.494 12.2067 103.935 12.8277 105.171 13.6549C106.407 14.4828 107.23 15.517 107.848 16.5512L109.702 15.517L107.025 9.9307L89.727 9.9314ZM128.235 22.1381C127.822 22.9654 127.206 24.0009 126.176 25.0344C125.557 25.4484 125.146 25.8616 124.323 26.0693C123.704 26.6895 122.881 26.6895 122.057 26.6895C121.438 26.6895 121.233 26.6895 120.409 26.2756C119.791 26.0693 119.38 25.8616 118.762 25.2421C118.349 24.6205 117.733 24.0009 117.526 22.966C117.115 22.1388 116.909 20.69 116.909 19.4488C116.909 16.7595 117.115 14.6905 118.35 13.6563C119.379 12.2081 120.409 11.7942 121.438 11.7942C123.086 11.7942 124.322 12.2081 125.352 13.4493C126.176 14.4842 127.205 15.5184 127.822 17.1735L130.088 16.5526L127.618 9.93209H125.969L125.557 10.346C125.146 10.1391 124.323 9.93209 123.498 9.51814C122.88 9.51814 121.851 9.31186 121.027 9.31186C117.938 9.31186 115.466 10.346 113.82 12.0019C112.171 13.8639 111.142 16.5532 111.142 19.4495C111.142 22.1395 112.171 24.6219 114.231 26.6909C115.673 28.5537 118.349 29.3809 121.233 29.3809C123.704 29.3809 125.969 28.5537 127.205 27.3119C128.852 26.277 129.677 24.6219 130.5 23.3807L128.235 22.1381ZM49.3639 3.31023C47.0989 1.03488 44.2158 0 40.0972 0C34.331 0 28.9767 1.86209 24.2405 5.3793C19.9163 9.31047 17.445 13.6556 16.415 18.6202C16.0032 20.0691 15.7969 21.104 15.7969 22.1374C15.7969 26.6888 17.4444 29.7921 19.9156 32.4828C22.5924 34.7588 25.8873 36 30.006 36C32.4772 36 34.5366 35.586 36.8015 35.1728C38.6546 34.5512 41.1265 33.1037 42.5677 32.0688C44.8326 30.2061 43.597 29.5865 41.9495 30.62C41.1258 31.2416 38.6546 32.6891 37.0071 32.896C35.5652 33.1037 33.5059 33.5163 31.2409 33.5163C27.7397 33.5163 25.0629 32.6891 22.798 30.62C20.7386 28.5509 19.9149 26.0686 19.9149 22.5514C19.9149 21.3102 19.9149 20.2754 20.1205 19.2412C20.9442 14.4821 23.2091 10.7579 26.5041 7.44768C30.2109 4.13744 34.3296 2.48233 39.2713 2.48233C42.5663 2.48233 45.0375 3.30954 46.8906 5.17233C48.538 6.82744 49.5674 9.31046 49.5674 12.0005C49.3611 16.1386 48.3318 19.4481 46.8906 21.3109C45.0375 24.0009 43.5956 24.6212 43.3893 24.6212C42.7719 24.6212 42.7719 24.4149 42.7719 24.4149C42.7719 23.38 43.5956 20.4837 43.8012 19.4488L46.8899 9.51814C46.8899 9.31186 46.8899 9.10418 46.2717 9.10418H42.3593C41.9474 9.10418 41.1237 9.31116 40.9174 10.1391L40.5055 10.967C39.0644 17.1742 35.1519 21.1053 34.1219 22.1388C32.4744 23.794 31.2395 24.4149 30.827 24.4149C30.2095 24.4149 30.2095 24.0009 30.2095 23.5877C30.2095 23.38 30.2095 22.966 30.4151 21.7249L33.7101 13.6556C34.3282 12.6214 34.3282 11.3795 34.3282 10.9663C34.3282 9.51744 33.5045 8.48326 31.857 8.48326C30.2095 8.48326 27.532 9.10419 24.4433 11.7942C23.2077 13.4493 22.7959 14.2765 22.7959 14.2765C22.7959 14.6905 23.4133 14.6905 23.4133 14.6905C23.8252 14.6905 24.4433 13.8632 25.0608 13.4493C25.8845 12.6221 26.9139 11.3802 27.7376 11.3802C28.3551 11.3802 28.3551 11.7942 28.3551 12.0012C28.3551 12.2081 27.9432 12.8284 27.7376 13.6563L25.2664 19.2426C24.8545 20.4837 23.6189 22.966 23.6189 25.2428C23.6189 27.9328 25.6783 28.553 26.7083 28.553C29.3851 28.553 34.1212 26.0707 38.2406 18.8293L37.6232 20.6907C37.4169 21.9332 36.7987 24.4156 36.7987 26.277C36.7987 26.8986 36.7987 28.553 38.6518 28.553C42.7705 28.553 45.8591 25.4491 47.5073 23.5884C49.5667 20.6907 51.4197 18.0014 51.626 15.5191C52.0379 13.657 52.0379 12.2088 52.0379 11.174C52.0414 7.65535 51.4232 5.17233 49.3639 3.31023Z" fill="#5E5E5E"/>
<path fill-rule="evenodd" clip-rule="evenodd" d="M49.3639 3.31023C47.0989 1.03488 44.2158 0 40.0971 0C34.331 0 28.9767 1.86209 24.2405 5.3793C19.9163 9.31047 17.445 13.6556 16.415 18.6202C16.0032 20.0691 15.7969 21.104 15.7969 22.1374C15.7969 26.6888 17.4444 29.7921 19.9156 32.4828C22.5924 34.7588 25.8873 36 30.006 36C32.4772 36 34.5366 35.586 36.8015 35.1728C38.6546 34.5512 41.1265 33.1037 42.5677 32.0688C44.8326 30.2061 43.597 29.5865 41.9495 30.62C41.1258 31.2416 38.6546 32.6891 37.0071 32.896C35.5652 33.1037 33.5059 33.5163 31.2409 33.5163C27.7397 33.5163 25.0629 32.6891 22.798 30.62C20.7386 28.5509 19.9149 26.0686 19.9149 22.5514C19.9149 21.3102 19.9149 20.2754 20.1205 19.2412C20.9442 14.4821 23.2091 10.7579 26.5041 7.44768C30.2109 4.13744 34.3296 2.48233 39.2713 2.48233C42.5663 2.48233 45.0375 3.30954 46.8906 5.17233C48.538 6.82744 49.5674 9.31046 49.5674 12.0005C49.3611 16.1386 48.3317 19.4481 46.8906 21.3109C45.0375 24.0009 43.3893 24.6212 43.3893 24.6212L42.7719 24.4149C42.7719 23.38 43.5956 20.4837 43.8012 19.4488L46.8899 9.51814C46.8899 9.31186 46.2717 9.10418 46.2717 9.10418H42.3593C41.9474 9.10418 41.1237 9.31116 40.9174 10.1391L40.5055 10.967C39.0643 17.1742 35.1519 21.1053 34.1219 22.1388C32.4744 23.794 31.2395 24.4149 30.827 24.4149C30.2095 24.4149 30.2095 23.5877 30.2095 23.5877C30.2095 23.5877 30.2095 22.966 30.4151 21.7249L33.7101 13.6556C34.3282 12.6214 34.3282 11.3795 34.3282 10.9663C34.3282 9.51744 33.5045 8.48326 31.857 8.48326C30.2095 8.48326 27.532 9.10419 24.4433 11.7942C23.2077 13.4493 22.7959 14.2765 22.7959 14.2765C22.7959 14.6905 23.4133 14.6905 23.4133 14.6905C23.8252 14.6905 24.4433 13.8632 25.0608 13.4493C25.8845 12.6221 26.9139 11.3802 27.7376 11.3802C28.3551 11.3802 28.3551 12.0012 28.3551 12.0012C28.3551 12.0012 27.9432 12.8284 27.7376 13.6563L25.2664 19.2426C24.8545 20.4837 23.6189 22.966 23.6189 25.2428C23.6189 27.9328 25.6783 28.553 26.7083 28.553C29.3851 28.553 34.1212 26.0707 38.2406 18.8293L37.6232 20.6907C37.4169 21.9332 36.7987 24.4156 36.7987 26.277C36.7987 26.8986 36.7987 28.553 38.6518 28.553C42.7705 28.553 45.8591 25.4491 47.5073 23.5884C49.5667 20.6907 51.4197 18.0014 51.626 15.5191C52.0379 13.657 52.0379 12.2088 52.0379 11.174C52.0414 7.65535 51.4232 5.17233 49.3639 3.31023Z" fill="#3D3D3D"/>
<path fill-rule="evenodd" clip-rule="evenodd" d="M0.5625 9.93148V12.0005C0.974369 12.0005 1.18065 12.0005 1.79811 12.2075C2.00369 12.2075 2.41626 12.6215 2.62185 12.8285C2.62185 13.2424 2.82743 13.2424 2.82743 13.4494V25.2422C2.82743 25.4485 2.62185 25.8624 2.62185 26.0694C2.41626 26.0694 2.00369 26.2757 1.79811 26.6896H0.5625V28.7594H13.9486C14.9779 28.7594 15.8017 28.5517 16.6254 28.1378C17.4491 27.9315 18.2729 27.1029 18.684 26.6889C19.3022 25.8617 19.7141 24.6199 19.7141 23.3787C19.7141 22.5515 19.7141 21.9312 19.3022 21.3096C19.0966 20.4824 18.4785 20.0685 17.861 19.4468C17.4491 18.6196 16.4191 17.9987 15.1842 17.9987C13.9486 17.5854 12.0955 17.1715 10.2418 17.1715H7.77056V13.6543C7.77056 13.4473 7.77056 13.2403 8.18243 12.8271L8.38801 12.6201C8.5943 12.2061 9.00616 12.2061 9.41803 12.2061H10.0355C11.683 12.2061 13.3304 12.6201 13.9486 13.4473C14.9779 13.8613 15.8017 15.1024 16.6254 16.5506L18.4785 15.5164L16.4191 9.93009H0.5625V9.93148ZM7.77056 20.0692H10.0355C11.2711 20.0692 12.5067 20.2754 13.1242 20.4831C13.9486 21.1047 14.1535 21.9319 14.1535 22.9654C14.1535 23.7926 13.9479 24.4143 13.536 25.2415C13.3304 25.4478 12.7123 25.8617 12.0948 26.0687C11.683 26.275 11.0648 26.275 10.2418 26.275C9.41803 26.275 9.21245 26.275 8.59429 26.0687C8.18243 26.0687 7.77056 25.4471 7.77056 25.0338V20.0692ZM54.1041 20.2754H57.8109C58.4284 20.4831 58.8402 20.6894 59.2521 21.104C59.4577 21.7243 59.664 22.1375 59.664 22.9654C59.664 24.0003 59.4577 25.0345 58.634 25.4478C58.2221 26.275 56.9865 26.6889 55.5453 26.8966C54.9278 26.8966 54.3097 26.6889 53.6922 26.6889C53.4866 26.275 53.2804 26.275 52.8685 26.0687C52.6622 25.861 52.4566 25.4471 52.4566 25.2415C52.0448 25.0338 52.0448 24.6199 52.0448 24.4143C52.0448 24.4143 52.0448 24.0003 52.4566 23.7926V22.9654C52.4566 22.5522 52.0448 22.1382 51.8392 21.7243C51.6329 21.104 50.8091 20.6894 49.9854 20.6894C49.1617 20.6894 48.5442 21.311 48.1323 21.9319C47.7205 22.1382 47.5149 22.9654 47.5149 23.7933C47.5149 25.2422 48.3386 26.6896 49.5742 27.7245C51.0154 28.7594 53.4866 29.3796 56.3697 29.3796C59.6647 29.3796 61.9296 28.7594 63.3715 27.3105C64.6071 26.2757 65.2246 25.0345 65.2246 23.3794C65.2246 22.1382 65.019 21.1047 64.1952 20.2754C63.3715 19.2419 62.1359 18.828 60.6947 18.6203H60.9003C61.9296 18.414 62.7533 17.7931 63.5771 17.1729C64.4015 16.5519 64.6064 15.5178 64.6064 14.4829C64.6064 13.241 64.1945 11.7929 62.7533 10.9657C61.724 9.93078 59.6647 9.31055 57.3991 9.31055C56.1634 9.31055 55.1341 9.51683 54.3104 9.51683C53.4866 9.93078 52.6629 10.1378 51.8392 10.3447L51.6329 9.93079H49.1617L48.5435 15.5171L51.4266 15.931C51.6322 15.3101 51.8385 14.4829 52.6622 13.448C53.2804 13.241 53.6915 12.6208 54.3097 12.2068C54.9278 11.9999 55.5453 11.7929 56.1628 11.7929C57.6046 11.9999 58.4277 12.2068 58.8396 12.8271C59.2514 13.241 59.4577 13.448 59.4577 13.6543C59.4577 13.8606 59.664 14.2752 59.664 14.4822C59.4577 15.3094 59.4577 15.9303 59.2521 16.1373C58.634 16.7582 58.4284 16.9645 57.8109 16.9645C57.3991 17.1715 56.7809 17.5854 56.1634 17.5854H54.1034L54.1041 20.2754Z" fill="#5E5E5E"/>
<path fill-rule="evenodd" clip-rule="evenodd" d="M59.0942 3.16338H59.686V7.61546H59.0942V4.00935L56.7723 7.61546H56.1875V3.16338H56.7723V6.7438L59.0942 3.16338ZM67.3066 7.61546H66.7218V3.16338H67.3066V5.02062H69.5014V3.16338H70.0862V7.61546H69.5014V5.52278H67.3066V7.61546ZM79.0744 7.1133H78.8264C78.7208 7.1133 78.5903 7.10427 78.4382 7.0876C78.2777 7.06908 78.1198 7.03298 77.9672 6.97995C77.688 6.88202 77.4317 6.71046 77.2005 6.46459C76.9692 6.21872 76.8532 5.84574 76.8532 5.34497C76.8532 4.84003 76.9713 4.46428 77.2074 4.21632C77.4422 3.96837 77.7026 3.79959 77.986 3.71069C78.1437 3.65999 78.2937 3.62595 78.4402 3.60928C78.5868 3.59262 78.7153 3.58359 78.8257 3.58359H79.0737V2.90918H79.6585V3.58359H79.9002C80.0099 3.58359 80.1391 3.59123 80.2857 3.60581C80.4322 3.6204 80.5815 3.65304 80.7336 3.70444C81.0184 3.79334 81.2803 3.96142 81.5192 4.20729C81.7595 4.45317 81.879 4.83239 81.879 5.34566C81.879 5.8249 81.772 6.18607 81.5546 6.43056C81.3386 6.67434 81.1018 6.84729 80.8427 6.94869C80.6669 7.01695 80.4833 7.06292 80.2961 7.08552C80.1224 7.10427 79.9912 7.114 79.9016 7.114H79.6599V7.78146H79.0751L79.0744 7.1133ZM79.0744 4.0538H78.9091C78.4548 4.0538 78.1291 4.13576 77.9325 4.29898C77.736 4.4622 77.6068 4.64139 77.547 4.83587C77.5197 4.92397 77.5007 5.01442 77.4901 5.10605C77.4745 5.26236 77.4736 5.41978 77.4873 5.57626C77.4943 5.65891 77.5088 5.74503 77.5345 5.83394C77.5943 6.03744 77.7228 6.22289 77.92 6.39027C78.1173 6.55766 78.4465 6.6417 78.9091 6.6417H79.0744V4.0538ZM79.8245 6.6424C79.9044 6.6424 79.9939 6.63823 80.0919 6.6292C80.1947 6.62016 80.2966 6.60321 80.3968 6.57849C80.6128 6.51946 80.8107 6.40069 80.9885 6.22219C81.1664 6.04369 81.256 5.75128 81.256 5.34428C81.256 4.94144 81.165 4.65111 80.9844 4.47331C80.8209 4.30483 80.6161 4.18201 80.3905 4.117C80.2891 4.09131 80.1898 4.07464 80.0919 4.0663C79.9939 4.05797 79.9044 4.0531 79.8245 4.0531H79.6592V6.6417L79.8245 6.6424ZM90.4789 7.74882C89.8087 7.74465 89.2947 7.53073 88.9363 7.10705C88.5779 6.68268 88.3994 6.11037 88.3994 5.39012C88.3994 4.54624 88.6099 3.94198 89.0287 3.57734C89.4271 3.22078 89.9442 3.02563 90.4789 3.03003C91.0352 3.03003 91.5193 3.2127 91.9361 3.57734C92.3514 3.94198 92.5584 4.54624 92.5584 5.39012C92.5584 6.11453 92.3792 6.68823 92.0215 7.11052C91.6638 7.53281 91.1491 7.74326 90.4789 7.74326V7.74882ZM90.4789 7.24666C90.9838 7.24666 91.3526 7.07302 91.586 6.72574C91.8194 6.37847 91.9361 5.93256 91.9361 5.39012C91.9361 4.87684 91.8548 4.49206 91.693 4.23577C91.5332 3.97948 91.354 3.80029 91.1596 3.69819C91.0386 3.63142 90.9074 3.58518 90.7713 3.56136C90.6744 3.54494 90.5765 3.53543 90.4782 3.53289C90.4101 3.53289 90.3386 3.53705 90.2622 3.54539C90.1841 3.55406 90.1073 3.57129 90.033 3.59678C89.7781 3.66902 89.5461 3.8371 89.3371 4.10242C89.1266 4.36774 89.021 4.79697 89.021 5.39012C89.021 5.49152 89.028 5.61029 89.0412 5.74642C89.0537 5.88186 89.0794 6.02146 89.1169 6.16593C89.1891 6.4375 89.3273 6.68546 89.5308 6.9098C89.7357 7.13414 90.0504 7.24666 90.4789 7.24666Z" fill="#3D3D3D"/>
</svg>
