<svg width="124" height="30" viewBox="0 0 124 30" fill="none" xmlns="http://www.w3.org/2000/svg">
<path d="M13.6155 21.8087C11.8161 21.8087 9.88003 22.9171 9.88003 25.3571C9.88003 28.7687 12.7302 29.035 13.6011 29.035C14.4792 29.035 17.3294 28.7687 17.3294 25.3571C17.3366 22.9171 15.4077 21.8087 13.6155 21.8087ZM13.6155 27.7466C12.6151 27.7466 11.4419 27.1276 11.4419 25.3643C11.4419 24.0183 12.3128 23.1186 13.6011 23.1186C14.8967 23.1186 15.7748 24.0183 15.7748 25.3643C15.7748 27.1276 14.6088 27.7466 13.6155 27.7466ZM20.2084 28.9054H21.6911V23.1762H24.0302V21.9455H17.8692V23.1762H20.2084V28.9054ZM28.3919 21.8087C26.5925 21.8087 24.6636 22.9171 24.6636 25.3571C24.6636 28.7687 27.5138 29.035 28.3847 29.035C29.2628 29.035 32.1202 28.7687 32.1202 25.3571C32.113 22.9171 30.1841 21.8087 28.3919 21.8087ZM28.3919 27.7466C27.3915 27.7466 26.2183 27.1276 26.2183 25.3643C26.2183 23.8096 27.3051 23.1186 28.3775 23.1186C29.6803 23.1186 30.5511 24.0183 30.5511 25.3643C30.5511 27.1276 29.3924 27.7466 28.3919 27.7466ZM37.7774 26.2783C38.7635 26.0408 39.4256 25.2203 39.4256 24.2271C39.4256 22.3341 37.871 21.9383 36.5682 21.9383H33.3294V28.8982H34.812V26.6094H36.1076L37.7702 28.8982H39.62L37.6191 26.3143L37.7774 26.2783ZM36.2659 25.3858H34.8336V23.1762H36.2299C37.324 23.1762 37.8566 23.5217 37.8566 24.2343C37.8638 25.0044 37.3384 25.3858 36.2659 25.3858ZM48.1921 27.7466C46.6015 27.7466 45.6154 26.8541 45.6154 25.4146C45.6154 23.9176 46.5511 23.0971 48.2569 23.0971C49.0558 23.0971 49.6388 23.2338 50.1426 23.385V22.0894C49.4805 21.8951 48.6528 21.8087 48.1202 21.8087C46.2488 21.8087 44.0608 22.7516 44.0608 25.4218C44.0608 27.7178 45.5363 29.035 48.0986 29.035C48.7104 29.035 49.4733 28.9558 50.157 28.8118V27.4299C49.7252 27.5595 49.0198 27.7394 48.2281 27.7466H48.1921ZM54.9722 21.8087C53.1728 21.8087 51.2367 22.9171 51.2367 25.3571C51.2367 28.7687 54.0869 29.035 54.9578 29.035C55.8358 29.035 58.6932 28.7687 58.6932 25.3571C58.6932 22.9171 56.7643 21.8087 54.9722 21.8087ZM54.9722 27.7466C53.9717 27.7466 52.7985 27.1276 52.7985 25.3643C52.7985 23.8096 53.8853 23.1186 54.9578 23.1186C56.2605 23.1186 57.1314 24.0183 57.1314 25.3643C57.1314 27.1276 55.9654 27.7466 54.9722 27.7466ZM64.552 26.2783C65.538 26.0408 66.2002 25.2203 66.2002 24.2271C66.2002 22.3341 64.6455 21.9383 63.3428 21.9383H60.1039V28.8982H61.5866V26.6094H62.8822L64.5448 28.8982H66.3945L64.3936 26.3143L64.552 26.2783ZM63.0477 25.3858H61.6154V23.1762H63.0117C64.1057 23.1762 64.6383 23.5217 64.6383 24.2343C64.6383 25.0044 64.1201 25.3858 63.0477 25.3858ZM71.0153 21.9455H67.8196V28.9054H69.3023V26.9261H71.0225C72.4764 26.9261 74.0238 26.2711 74.0238 24.4286C74.0238 22.7516 73.045 21.9455 71.0153 21.9455ZM70.8714 25.6953H69.3023V23.1762H70.8426C71.5983 23.1762 72.4692 23.313 72.4692 24.3854C72.462 25.537 71.6631 25.6953 70.8714 25.6953ZM78.7526 21.8087C76.9532 21.8087 75.0171 22.9171 75.0171 25.3571C75.0171 28.7687 77.8673 29.035 78.7382 29.035C79.6163 29.035 82.4737 28.7687 82.4737 25.3571C82.4737 22.9171 80.5447 21.8087 78.7526 21.8087ZM78.7526 27.7466C77.7521 27.7466 76.5789 27.1276 76.5789 25.3643C76.5789 24.0183 77.4498 23.1186 78.7382 23.1186C80.0337 23.1186 80.9118 24.0183 80.9118 25.3643C80.919 27.1276 79.753 27.7466 78.7526 27.7466ZM88.3396 26.2783C89.3257 26.0408 89.9878 25.2203 89.9878 24.2271C89.9878 22.3341 88.4332 21.9383 87.1304 21.9383H83.8916V28.8982H85.3742V26.6094H86.6698L88.3324 28.8982H90.1822L88.1813 26.3143L88.3396 26.2783ZM86.8353 25.3858H85.403V23.1762H86.7993C87.8934 23.1762 88.426 23.5217 88.426 24.2343C88.426 25.0044 87.9078 25.3858 86.8353 25.3858ZM93.5722 21.9455L90.9595 28.9054H92.435L92.9028 27.6027H96.4008L96.8182 28.9054H98.4592L95.7962 21.9455H93.5722ZM93.3274 26.3647L94.623 22.9459L95.9689 26.3647H93.3274ZM100.403 28.9054H101.885V23.1762H104.224V21.9455H98.0634V23.1762H100.403V28.9054ZM105.678 21.9455H107.161V28.9054H105.678V21.9455ZM112.386 21.8087C110.587 21.8087 108.658 22.9171 108.658 25.3571C108.658 28.7687 111.508 29.035 112.379 29.035C113.257 29.035 116.115 28.7687 116.115 25.3571C116.107 22.9171 114.178 21.8087 112.386 21.8087ZM112.386 27.7466C111.386 27.7466 110.213 27.1276 110.213 25.3643C110.213 23.8096 111.3 23.1186 112.372 23.1186C113.667 23.1186 114.546 24.0183 114.546 25.3643C114.546 27.1276 113.38 27.7466 112.386 27.7466ZM122.499 26.6814L119.303 21.9527H117.504V28.9054H118.958V23.8312L122.427 28.9054H123.953V21.9527H122.499V26.6814ZM1.68211 21.9455H0.15625V28.9054H1.63893V24.6373L3.87014 28.9054H4.90658L7.14499 24.6373V28.9054H8.62767V21.9455H7.1018L4.38836 26.9909L1.68211 21.9455ZM72.0229 6.63645H63.6019C63.2204 6.63645 62.7958 6.60766 62.5943 6.55008C61.8457 6.34855 61.4931 5.69358 61.4931 5.02422C61.4931 4.44842 61.8097 3.75026 62.6087 3.50555C62.8462 3.43357 63.0765 3.42638 63.5659 3.42638H75.5137V0.964844H63.3716C62.8966 0.964844 62.5079 0.979239 62.1696 1.02962C60.2047 1.30312 58.7796 2.94415 58.7796 5.03141C58.7796 6.89556 59.9816 8.73811 62.1192 9.0548C62.5871 9.12677 63.2996 9.11238 63.4939 9.11238H71.6559C71.771 9.11238 72.1813 9.11957 72.2893 9.13397C73.2609 9.27072 73.7647 10.0193 73.7647 10.8542C73.7647 11.5595 73.3329 12.3656 72.3756 12.5384C72.2533 12.56 71.8214 12.5744 71.6775 12.5744H59.1899V15.0647H71.8718C72.0229 15.0647 72.7283 15.0575 72.8722 15.0431C75.2402 14.8272 76.4782 12.891 76.4782 10.8398C76.4782 9.0332 75.3554 6.91715 73.0666 6.68683C72.5844 6.62925 72.1885 6.63645 72.0229 6.63645ZM47.9186 6.63645H39.4976C39.1161 6.63645 38.6915 6.60766 38.49 6.55008C37.7414 6.34855 37.3887 5.69358 37.3887 5.02422C37.3887 4.44842 37.7054 3.75026 38.5043 3.50555C38.7419 3.43357 38.9722 3.42638 39.4616 3.42638H51.4094V0.964844H39.2673C38.7922 0.964844 38.4036 0.979239 38.0653 1.02962C36.1004 1.30312 34.6753 2.94415 34.6753 5.03141C34.6753 6.89556 35.8773 8.73811 38.0149 9.0548C38.4828 9.12677 39.1953 9.11238 39.3896 9.11238H47.5516C47.6667 9.11238 48.077 9.11957 48.1849 9.13397C49.1566 9.27072 49.6604 10.0193 49.6604 10.8542C49.6604 11.5595 49.2286 12.3656 48.2713 12.5384C48.149 12.56 47.7171 12.5744 47.5732 12.5744H35.0856V15.0647H47.7675C47.9186 15.0647 48.624 15.0575 48.7679 15.0431C51.1359 14.8272 52.3739 12.891 52.3739 10.8398C52.3739 9.0332 51.2439 6.91715 48.9623 6.68683C48.48 6.62925 48.0842 6.63645 47.9186 6.63645ZM25.225 0.964844H27.9097V15.0575H25.225V0.964844ZM14.947 12.2289L3.91333 0.964844H0.15625V15.0575H2.8409V3.72147L13.9538 15.0575H17.6317V0.964844H14.947V12.2289ZM121.261 12.2289L110.227 0.964844H106.47V15.0575H109.155V3.72147L120.268 15.0575H123.945V0.964844H121.261V12.2289ZM89.6711 0.964844L80.9622 15.0575H84.237L85.8421 12.452H96.6599L98.2649 15.0575H101.54L92.838 0.964844H89.6711ZM87.1736 10.2064L91.2546 3.58472L95.3283 10.2064H87.1736Z" fill="#3D3D3D"/>
</svg>
