<svg width="143" height="52" viewBox="0 0 143 52" fill="none" xmlns="http://www.w3.org/2000/svg">
<path fill-rule="evenodd" clip-rule="evenodd" d="M81.9688 32.0289H83.0246L83.7017 29.6173C84.1547 30.2194 84.9833 30.3709 85.8127 30.3709C87.3941 30.3709 89.1271 29.3916 89.5043 27.8843C89.8807 26.3013 88.8272 25.3212 87.1692 25.3212C86.2649 25.3212 85.2855 25.6226 84.6069 26.1506C84.6818 25.8491 84.6818 25.6976 84.7576 25.4719H83.7017C83.6267 25.8491 83.551 26.2256 83.401 26.5262L81.9688 32.0289ZM84.1547 27.8843C84.4554 26.6777 85.5104 25.9241 86.792 25.9241C87.997 25.9241 88.6757 26.6777 88.3735 27.8843C88.0728 29.0894 87.0177 29.768 85.7361 29.768C84.5319 29.768 83.8524 29.0894 84.1547 27.8843ZM91.0124 30.2194H92.0667L93.8754 23.4375H92.8968L91.0124 30.2194ZM96.6642 26.7543C96.8899 26.2263 97.5686 25.9249 98.3222 25.9249C99.3781 25.9249 99.9052 26.2271 99.6795 27.1315V27.2822H97.7943C95.9106 27.3572 94.8547 27.8843 94.629 28.8637C94.4033 29.768 95.157 30.3709 96.5127 30.3709C97.5686 30.3709 98.2473 30.296 99.0751 29.5423C99.0751 29.768 99.0001 29.9937 99.0001 30.2194H99.9794C99.9794 29.9937 100.056 29.6931 100.13 29.3166L100.809 26.98C101.11 25.7734 100.13 25.3212 98.6229 25.3212C97.4928 25.3212 95.9856 25.6227 95.6091 26.7535L96.6642 26.7543ZM99.4523 28.11C99.1516 29.2401 98.2472 29.768 96.9657 29.768C95.9098 29.768 95.6099 29.3166 95.7591 28.8637C95.9098 28.11 96.6634 27.9593 97.7935 27.9593C98.6229 27.8843 99.1508 27.8843 99.4515 27.8843V28.11H99.4523ZM102.317 30.2194H103.373L103.975 27.9585C104.351 26.4513 105.633 25.9241 106.612 25.9241C107.668 25.9241 108.195 26.5262 107.894 27.5821L107.215 30.2194H108.271L108.95 27.5071C109.401 26.0748 108.497 25.3212 106.989 25.3212C106.01 25.3212 105.181 25.6226 104.352 26.3005C104.427 25.9991 104.427 25.6976 104.503 25.4719H103.522C103.447 25.8491 103.373 26.2256 103.296 26.5262L102.317 30.2194ZM110.757 30.2194H111.813L112.415 27.9585C112.791 26.4513 114.073 25.9241 115.054 25.9241C116.108 25.9241 116.635 26.5262 116.335 27.5821L115.657 30.2194H116.712L117.39 27.5071C117.843 26.0748 116.938 25.3212 115.431 25.3212C114.45 25.3212 113.622 25.6226 112.792 26.3005C112.869 25.9991 112.943 25.6976 112.943 25.4719H111.963C111.896 25.825 111.821 26.1765 111.738 26.5262L110.757 30.2194ZM119.272 30.2194H120.328L121.61 25.4719H120.554L119.272 30.2194ZM120.856 24.3419H121.911L122.137 23.4375H121.081L120.856 24.3419ZM122.891 30.2194H123.947L124.549 27.9585C124.925 26.4513 126.207 25.9241 127.186 25.9241C128.167 25.9241 128.769 26.5262 128.468 27.5821L127.789 30.2194H128.845L129.523 27.5071C129.975 26.0748 129.071 25.3212 127.563 25.3212C126.584 25.3212 125.755 25.6226 124.926 26.3005C125.001 25.9991 125.001 25.6976 125.077 25.4719H124.097C124.021 25.8491 123.947 26.2256 123.87 26.5262L122.891 30.2194ZM131.03 30.5217C130.804 31.6517 131.406 32.1797 133.517 32.1797C135.702 32.1797 136.983 31.501 137.511 29.5423L138.34 26.3771C138.416 25.9999 138.491 25.7734 138.642 25.4719H137.663C137.512 25.6976 137.437 25.9241 137.437 26.1506C136.909 25.5477 136.307 25.3212 135.326 25.3212C133.517 25.3212 132.01 26.3005 131.559 27.7328C131.182 29.1651 132.236 30.1445 134.045 30.1445C134.917 30.1342 135.763 29.8437 136.457 29.3158H136.533L136.383 29.6165C136.08 30.7466 135.478 31.5002 133.595 31.5002C132.388 31.5002 132.012 31.0488 132.162 30.5209L131.03 30.5217ZM132.688 27.7336C132.99 26.6777 133.893 25.9249 135.25 25.9249C136.683 25.9249 137.209 26.6785 136.908 27.7336C136.606 28.7895 135.702 29.4666 134.346 29.4666C132.914 29.4658 132.386 28.7887 132.688 27.7336Z" fill="#0C0E0F"/>
<path fill-rule="evenodd" clip-rule="evenodd" d="M7.96067 52L51.5957 0H66.7434C75.7112 0 83.4741 5.87835 83.4741 15.8263C83.4741 25.8501 75.712 32.1798 66.8941 32.1798H40.9699L47.2996 24.342H66.8941C71.9438 24.342 75.712 21.101 75.637 15.8255C75.5605 7.61132 66.8941 7.83702 66.8941 7.83702H55.2132L18.1343 52H7.96067ZM25.5957 24.342L19.1902 32.1798H16.9293C7.43352 32.1798 0.726562 26.3015 0.726562 16.3535C0.726562 6.33053 8.41363 0 17.3057 0H45.7931L39.3876 7.8378H17.3057C12.2568 7.8378 8.41285 11.0788 8.56358 16.3535C8.63933 24.5685 17.3057 24.342 17.3057 24.342H25.5957Z" fill="#E7E9EE"/>
<path fill-rule="evenodd" clip-rule="evenodd" d="M40.5137 39.0356H41.7945L42.4724 35.7196H44.0554L44.2819 34.8917H39.8351L39.6094 35.7196H41.2666L40.5137 39.0356ZM45.3362 36.9262C45.4869 36.2475 45.9391 35.6446 46.8435 35.6446C47.7486 35.6446 47.9743 36.2467 47.7486 36.9262C47.5979 37.6798 47.2207 38.2819 46.2414 38.2819C45.3362 38.2819 45.1863 37.6798 45.3362 36.9262ZM44.0554 36.9262C43.754 38.2077 44.3569 39.1871 46.0898 39.1871C47.8236 39.1871 48.8029 38.2077 49.0294 36.9262C49.3309 35.7196 48.8029 34.7402 46.995 34.7402C45.2612 34.7402 44.3569 35.7196 44.0554 36.9262ZM51.6667 37.6798C51.516 38.4334 51.5918 39.1871 53.3247 39.1871C54.2291 39.1871 55.5099 38.9614 55.7364 37.7548C55.8871 36.9262 55.3599 36.6989 54.6055 36.5497L54.0784 36.399C53.6262 36.3225 53.2498 36.2483 53.3247 35.946C53.3997 35.7203 53.6262 35.5696 54.1541 35.5696C54.5306 35.5696 54.9078 35.6462 54.8328 36.0226H56.0386C56.1136 35.1932 55.8121 34.741 54.3049 34.741C53.3255 34.741 52.2704 35.1174 52.044 36.1733C51.8932 36.9269 52.5711 37.2276 53.2498 37.3034L53.7769 37.4541C54.3041 37.5291 54.5306 37.6033 54.4548 37.9055C54.4548 38.1312 54.3041 38.3569 53.5504 38.3569C53.0225 38.3569 52.7968 38.2077 52.8718 37.6798H51.6667ZM61.6905 34.8917H60.4847L60.0325 37.0777C59.8817 37.8313 59.5045 38.2827 58.7509 38.2827C58.073 38.2827 57.7716 37.9805 57.9215 37.2268L58.4494 34.8917H57.1679L56.6407 37.3034C56.4142 38.6591 57.0929 39.1871 58.5244 39.1871C60.0317 39.1871 60.9361 38.5849 61.2375 37.1526L61.6905 34.8917ZM66.8902 36.2475C67.1166 35.1174 66.1365 34.7402 65.0814 34.7402C63.5742 34.7402 62.4441 35.4189 62.1426 36.9262C61.7662 38.5076 62.6698 39.1871 63.9506 39.1871C65.1564 39.1871 66.2872 38.8848 66.5887 37.604H65.3071C65.1564 38.132 64.7042 38.2827 64.252 38.2827C63.4227 38.2827 63.197 37.6806 63.3477 36.9269C63.5734 36.1733 64.0256 35.6454 64.855 35.6454C65.3071 35.6454 65.6086 35.7961 65.6086 36.2475H66.8902ZM72.0156 36.2475C72.2413 35.1174 71.2612 34.7402 70.2069 34.7402C68.6997 34.7402 67.6446 35.4189 67.2674 36.9262C66.9659 38.5076 67.7953 39.1871 69.0761 39.1871C70.3569 39.1871 71.412 38.8848 71.7134 37.604H70.4326C70.2819 38.132 69.8297 38.2827 69.3775 38.2827C68.5481 38.2827 68.3982 37.6806 68.5481 36.9269C68.6989 36.1733 69.2268 35.6454 69.9797 35.6454C70.4318 35.6454 70.8091 35.7961 70.7333 36.2475H72.0156ZM72.2406 39.0356H75.9338L76.0845 38.2077H73.6729L73.8236 37.3776H76.0845L76.3102 36.4732H74.0493L74.2008 35.7196H76.5359L76.7632 34.8917H73.1449L72.2406 39.0356ZM76.9888 39.0356H80.682L80.8328 38.2077H78.4212L78.5727 37.3776H80.8328L80.9819 36.4732H78.7218L78.9491 35.7196H81.2842L81.5099 34.8917H77.8932L76.9888 39.0356ZM81.7371 39.0356H83.998C84.8266 39.0356 85.4288 38.8848 85.8817 38.5842C86.3932 38.164 86.74 37.5769 86.8611 36.9262C87.0118 36.1725 86.8611 35.5688 86.4097 35.1916C86.0332 34.9659 85.5053 34.891 84.9774 34.891H82.6423L81.7371 39.0356ZM83.6958 35.6446H84.4494C85.2788 35.6446 85.8068 35.9453 85.656 36.9262C85.3538 38.0562 84.6751 38.2077 83.6958 38.2077H83.0937L83.6958 35.6446ZM89.3485 39.0356H90.5535L91.4586 34.8917H90.2536L89.3485 39.0356ZM91.5344 39.0356H92.5887L93.2674 36.0218L94.4724 39.0356H96.1304L97.0347 34.8917H95.9047L95.3018 37.9055L94.021 34.8917H92.4372L91.5344 39.0356ZM99.3714 39.0356H101.783C103.139 39.0356 103.667 38.4334 103.817 37.9055C103.892 37.3776 103.592 36.9262 102.913 36.8496C103.515 36.7747 103.969 36.3982 104.043 35.8703C104.12 35.3424 103.817 34.891 102.687 34.891H100.199L99.3714 39.0356ZM100.879 37.3034H102.009C102.311 37.3034 102.611 37.4541 102.537 37.8313C102.462 38.2085 102.16 38.2827 101.783 38.2827H100.727L100.879 37.3034ZM101.255 35.6446H102.084C102.612 35.6446 102.839 35.7196 102.762 36.096C102.687 36.3982 102.311 36.549 101.783 36.549H101.029L101.255 35.6446ZM109.846 34.8917H108.641L108.189 37.0777C108.039 37.8313 107.661 38.2827 106.908 38.2827C106.229 38.2827 105.927 37.9805 106.078 37.2268L106.53 34.8917H105.325L104.797 37.3034C104.571 38.6591 105.25 39.1871 106.68 39.1871C108.189 39.1871 109.092 38.5849 109.394 37.1526L109.846 34.8917ZM110.148 37.6798C109.997 38.4334 110.073 39.1871 111.806 39.1871C112.71 39.1871 113.915 38.9614 114.218 37.7548C114.368 36.9262 113.766 36.6989 113.088 36.5497L112.56 36.399C112.108 36.3225 111.731 36.2483 111.806 35.946C111.806 35.7203 112.108 35.5696 112.635 35.5696C113.012 35.5696 113.312 35.6462 113.312 36.0226H114.443C114.593 35.1932 114.292 34.741 112.71 34.741C111.805 34.741 110.749 35.1174 110.524 36.1733C110.373 36.9269 111.052 37.2276 111.73 37.3034L112.258 37.4541C112.71 37.5291 113.012 37.6033 112.935 37.9055C112.935 38.1312 112.71 38.3569 112.031 38.3569C111.429 38.3569 111.202 38.2077 111.354 37.6798H110.148ZM114.669 39.0356H115.952L116.78 34.8917H115.575L114.669 39.0356ZM116.855 39.0356H117.985L118.589 36.0218L119.87 39.0356H121.452L122.357 34.8917H121.301L120.624 37.9055L119.343 34.8917H117.759L116.855 39.0356ZM122.583 39.0356H126.201L126.426 38.2077H123.94L124.166 37.3776H126.352L126.577 36.4732H124.317L124.468 35.7196H126.878L127.029 34.8917H123.413L122.583 39.0356ZM127.331 37.6798C127.18 38.4334 127.254 39.1871 128.989 39.1871C129.893 39.1871 131.175 38.9614 131.4 37.7548C131.551 36.9262 131.024 36.6989 130.27 36.5497L129.742 36.399C129.291 36.3225 128.914 36.2483 128.989 35.946C129.064 35.7203 129.291 35.5696 129.817 35.5696C130.194 35.5696 130.571 35.6462 130.496 36.0226H131.703C131.778 35.1932 131.475 34.741 129.968 34.741C128.989 34.741 127.934 35.1174 127.707 36.1733C127.557 36.9269 128.235 37.2276 128.914 37.3034L129.44 37.4541C129.893 37.5291 130.194 37.6033 130.119 37.9055C130.119 38.1312 129.968 38.3569 129.215 38.3569C128.612 38.3569 128.461 38.2077 128.537 37.6798H127.331ZM132.079 37.6798C131.852 38.4334 132.003 39.1871 133.737 39.1871C134.64 39.1871 135.847 38.9614 136.149 37.7548C136.299 36.9262 135.696 36.6989 135.017 36.5497L134.415 36.399C134.039 36.3225 133.661 36.2483 133.738 35.946C133.738 35.7203 134.039 35.5696 134.567 35.5696C134.943 35.5696 135.245 35.6462 135.245 36.0226H136.375C136.526 35.1932 136.225 34.741 134.641 34.741C133.738 34.741 132.682 35.1174 132.456 36.1733C132.306 36.9269 132.984 37.2276 133.661 37.3034L134.189 37.4541C134.641 37.5291 134.943 37.6033 134.868 37.9055C134.868 38.1312 134.641 38.3569 133.964 38.3569C133.361 38.3569 133.134 38.2077 133.285 37.6798H132.079Z" fill="#E7E9EE"/>
<path fill-rule="evenodd" clip-rule="evenodd" d="M26.9504 14.4732C27.2518 13.1167 27.1011 12.5138 26.4982 11.9109C25.5939 11.1573 23.6344 10.7059 20.6956 10.7059C14.1386 10.7059 12.2549 13.4939 11.8027 15.7548C11.1241 18.7694 12.7071 20.8038 18.5854 20.8038C21.1478 20.8038 23.5594 20.3516 25.0667 19.2965C26.1218 18.5429 26.4232 17.7143 26.6489 16.8849H21.6C21.2985 18.0907 20.3942 18.6936 18.8869 18.6936C17.0024 18.6936 16.626 17.3371 16.9274 15.754C17.3039 14.1718 18.209 12.8145 20.1677 12.8145C21.5242 12.8145 21.9764 13.3424 21.9014 14.4725L26.9504 14.4732ZM42.701 15.754C43.3039 12.8902 41.6459 10.7051 35.8433 10.7051C32.8287 10.7051 31.3215 11.0815 30.0407 11.7602C28.5334 12.5138 27.3276 13.8703 26.9504 15.7548C26.3475 18.6186 28.0055 20.8038 33.8081 20.8038C36.8226 20.8038 39.0078 20.1251 40.4401 19.1458C41.6459 18.3921 42.3995 17.1856 42.701 15.754ZM37.652 15.754C37.2756 17.7135 35.8433 18.6178 34.2603 18.6178C32.6023 18.6178 31.6229 17.7135 31.9994 15.754C32.3758 13.7946 33.8081 12.8902 35.3903 12.8902C37.0491 12.8902 38.0284 13.7954 37.652 15.754ZM42.5502 20.5015H47.5242L48.2779 17.0348H49.7851C51.4431 17.0348 51.6696 17.1855 51.5939 18.3914V20.5015H56.5678V17.3363C56.5678 16.3562 55.7385 15.9797 54.6084 15.9797V15.829C56.1157 15.6025 57.3223 14.8497 57.6229 13.5681C58.0751 11.4579 56.1914 10.9308 52.9504 10.9308H44.5854L42.5502 20.5015ZM49.1073 12.8902H50.9152C52.121 12.8902 52.8746 13.1917 52.6489 14.0203C52.4982 14.9246 51.5939 15.1511 50.5388 15.1511H48.6551L49.1073 12.8902ZM57.3215 20.5015H62.2955L62.8984 17.4113H66.8173C69.3047 17.4113 71.4148 16.5826 71.867 14.2468C72.3942 11.7594 70.5854 10.9308 67.7216 10.9308H59.2809L57.3215 20.5015ZM63.8777 12.966H65.385C66.8165 12.966 67.1929 13.3432 67.043 14.1718C66.8165 15.0762 66.1386 15.4526 64.3299 15.4526H63.3506L63.8777 12.966ZM87.3911 15.754C87.9932 12.8902 86.3352 10.7051 80.5334 10.7051C77.5197 10.7051 75.9359 11.0815 74.7308 11.7602C73.1478 12.5138 72.0177 13.8703 71.6398 15.7548C71.0376 18.6186 72.6956 20.8038 78.4232 20.8038C81.512 20.8038 83.6229 20.1251 85.1302 19.1458C86.2603 18.3921 87.0904 17.1856 87.3911 15.754ZM82.3421 15.754C81.8892 17.7135 80.5334 18.6178 78.8754 18.6178C77.2924 18.6178 76.2381 17.7135 76.6895 15.754C77.0659 13.7946 78.424 12.8902 80.082 12.8902C81.74 12.8902 82.7186 13.7954 82.3421 15.754ZM87.2396 20.5015H92.2136L92.8922 17.0348H94.3995C96.1325 17.0348 96.2832 17.1855 96.2832 18.3914V20.5015H101.182L101.257 17.3363C101.257 16.3562 100.353 15.9797 99.2228 15.9797L99.2993 15.829C100.807 15.6025 102.012 14.8497 102.313 13.5681C102.689 11.4579 100.806 10.9308 97.6398 10.9308H89.1998L87.2396 20.5015ZM93.7974 12.8902H95.6061C96.8111 12.8902 97.4898 13.1917 97.3391 14.0203C97.1134 14.9246 96.2832 15.1511 95.2297 15.1511H93.3444L93.7974 12.8902Z" fill="#3D3D3D"/>
<path fill-rule="evenodd" clip-rule="evenodd" d="M108.043 16.8032L110.681 13.4872L111.811 16.8032H108.043ZM100.281 20.4956H105.179L106.385 18.9133H112.489L113.017 20.4956H118.518L114.525 10.9248H108.344L100.281 20.4956ZM119.875 20.4956H124.85L126.356 13.2615H130.199L130.727 10.9256H117.99L117.538 13.2615H121.382L119.875 20.4956ZM129.069 20.4956H140.449L140.9 18.5369H134.345L134.721 16.7282H140.751L141.202 14.693H135.098L135.475 12.96H141.956L142.407 10.9256H131.103L129.069 20.4956Z" fill="#3D3D3D"/>
</svg>
