<svg width="207" height="40" viewBox="0 0 207 40" fill="none" xmlns="http://www.w3.org/2000/svg">
<path d="M124.225 25.0065C124.625 24.8934 125.021 24.7567 125.403 24.6059C129.851 22.8295 133.008 18.5086 133.069 13.4433C133.144 6.67215 127.4 1.13086 120.629 1.13086H107.389V7.30355H120.823C123.146 7.30355 125.351 8.56165 126.345 10.6632C126.529 11.0543 126.675 11.4642 126.774 11.8977C126.986 12.8071 127 13.7919 126.736 14.8144C126.109 17.2458 123.998 19.0882 121.501 19.3568C120.201 19.4982 118.971 19.2296 117.929 18.6688C117.406 18.3861 116.949 18.0092 116.53 17.5898L116.092 17.1516C115.861 16.8736 115.658 16.572 115.484 16.2563L119.842 11.8977H107.398V24.3421L111.05 20.6903L114.805 24.4457L123.998 34.11H133.06L124.234 25.0017L124.225 25.0065Z" fill="white"/>
<path d="M10.9648 1.19678H18.6736L29.5535 31.1791H22.6599L20.3463 24.6247H8.95276L6.63918 31.1791H0L10.9648 1.19678ZM18.5888 19.4463L14.6071 8.05271L10.6679 19.4463H18.5935H18.5888Z" fill="white"/>
<path d="M52.8095 30.5385C52.8095 33.4222 51.8529 35.7216 49.9399 37.4321C48.0268 39.1473 45.0582 40.0001 41.0295 40.0001C37.9196 40.0001 35.4034 39.3169 33.4903 37.9457C31.5773 36.5745 30.5501 34.6332 30.4087 32.1217H36.4919C36.7793 33.1772 37.34 33.9923 38.1835 34.5625C39.0269 35.1326 40.1342 35.4201 41.5007 35.4201C43.2159 35.4201 44.5399 34.9913 45.4823 34.1337C46.4247 33.2761 46.8959 32.0086 46.8959 30.3217V28.0081C45.2986 30.0343 43.0274 31.0474 40.0871 31.0474C38.1458 31.0474 36.4023 30.5903 34.8615 29.6762C33.3207 28.762 32.1144 27.471 31.2427 25.7982C30.371 24.1255 29.9375 22.1794 29.9375 19.9506C29.9375 17.7219 30.371 15.8088 31.2427 14.1266C32.1144 12.4445 33.3254 11.144 34.8851 10.2298C36.44 9.3157 38.1882 8.85864 40.1295 8.85864C43.0132 8.85864 45.2986 9.97067 46.9807 12.1994L47.4943 9.16021H52.8047V30.5338L52.8095 30.5385ZM46.8535 20.0449C46.8535 18.1884 46.3682 16.6758 45.3975 15.5072C44.4268 14.3387 43.1263 13.7497 41.5007 13.7497C39.8751 13.7497 38.5651 14.3293 37.5803 15.4837C36.5955 16.6381 36.1008 18.146 36.1008 20.0025C36.1008 21.859 36.5955 23.3574 37.5803 24.4977C38.5651 25.638 39.8704 26.2129 41.5007 26.2129C43.131 26.2129 44.4268 25.6427 45.3975 24.4977C46.3682 23.3574 46.8535 21.8684 46.8535 20.0449Z" fill="white"/>
<path d="M61.4434 10.3004C63.1115 9.37217 65.0481 8.9104 67.2486 8.9104C69.4491 8.9104 71.4376 9.3439 73.1386 10.2156C74.8396 11.0873 76.1637 12.3125 77.1202 13.9004C78.0767 15.4883 78.5715 17.3496 78.5998 19.4888C78.5998 20.2616 78.5432 20.9448 78.4301 21.5432H62.4565V21.7129C62.5979 23.3102 63.1115 24.5683 63.9973 25.4824C64.8832 26.3966 66.0942 26.8536 67.6397 26.8536C68.8695 26.8536 69.8873 26.5898 70.7025 26.062C71.5177 25.5343 72.0501 24.7568 72.3093 23.7296H78.2605C78.0343 25.1856 77.4736 26.5002 76.5925 27.6688C75.7113 28.8374 74.538 29.7609 73.082 30.43C71.626 31.0991 69.9533 31.4384 68.0732 31.4384C65.6183 31.4384 63.4979 30.9813 61.712 30.0672C59.9262 29.1531 58.555 27.8479 57.5985 26.1468C56.6419 24.4458 56.166 22.4715 56.166 20.2144C56.166 17.9574 56.6278 15.936 57.5561 14.2397C58.4843 12.5386 59.7848 11.2287 61.4529 10.3004H61.4434ZM70.9098 14.4988C70.0098 13.7685 68.8742 13.4056 67.503 13.4056C66.1319 13.4056 65.0811 13.7826 64.1858 14.5412C63.2905 15.2998 62.7534 16.3176 62.579 17.604H72.559C72.3611 16.2611 71.8098 15.2292 70.9098 14.4988Z" fill="white"/>
<path d="M103.352 19.2296V31.1792H97.311V19.5736C97.311 15.7758 95.8267 13.8768 92.8582 13.8768C91.2891 13.8768 90.0734 14.4046 89.2158 15.4601C88.3582 16.5155 87.9294 17.9998 87.9294 19.9129V31.1792H81.8887V9.16485H87.1567L87.7127 11.9072C88.4854 10.9648 89.4137 10.2298 90.4975 9.70201C91.5812 9.17427 92.9241 8.9104 94.5215 8.9104C97.0895 8.9104 99.2052 9.71144 100.859 11.3088C102.513 12.9062 103.342 15.5496 103.342 19.2343L103.352 19.2296Z" fill="white"/>
<path d="M142.12 3.3832C142.12 4.35387 141.79 5.16904 141.135 5.82401C140.48 6.47897 139.651 6.80881 138.652 6.80881C137.653 6.80881 136.819 6.47897 136.145 5.82401C135.476 5.16904 135.137 4.35387 135.137 3.3832C135.137 2.41253 135.471 1.60679 136.145 0.961244C136.814 0.320415 137.653 0 138.652 0C139.651 0 140.48 0.320415 141.135 0.961244C141.79 1.60207 142.12 2.41253 142.12 3.3832ZM141.649 9.1648V31.1792H135.608V9.1648H141.649Z" fill="white"/>
<path d="M150.17 9.16479L155.48 25.0112L160.706 9.16479H167.043L159.118 31.1792H151.621L143.695 9.16479H150.165H150.17Z" fill="white"/>
<path d="M172.635 10.3004C174.303 9.37217 176.24 8.9104 178.44 8.9104C180.641 8.9104 182.629 9.3439 184.33 10.2156C186.031 11.0873 187.355 12.3125 188.312 13.9004C189.268 15.4883 189.763 17.3496 189.791 19.4888C189.791 20.2616 189.735 20.9448 189.622 21.5432H173.648V21.7129C173.789 23.3102 174.303 24.5683 175.189 25.4824C176.075 26.3966 177.286 26.8536 178.831 26.8536C180.061 26.8536 181.079 26.5898 181.894 26.062C182.709 25.5343 183.242 24.7568 183.501 23.7296H189.452C189.221 25.1856 188.665 26.5002 187.784 27.6688C186.898 28.8374 185.729 29.7609 184.273 30.43C182.817 31.0991 181.145 31.4384 179.265 31.4384C176.81 31.4384 174.689 30.9813 172.903 30.0672C171.118 29.1531 169.746 27.8479 168.79 26.1468C167.833 24.4458 167.357 22.4715 167.357 20.2144C167.357 17.9574 167.824 15.936 168.747 14.2397C169.676 12.5386 170.976 11.2287 172.644 10.3004H172.635ZM182.101 14.4988C181.201 13.7685 180.066 13.4056 178.694 13.4056C177.323 13.4056 176.272 13.7826 175.377 14.5412C174.477 15.2998 173.945 16.3176 173.77 17.604H183.75C183.553 16.2611 183.001 15.2292 182.101 14.4988Z" fill="white"/>
<path d="M206.499 14.6495H204.101C202.386 14.6495 201.132 15.1631 200.331 16.1904C199.53 17.2176 199.134 18.617 199.134 20.3887V31.1839H193.094V9.16479H198.574L199.13 12.4632C199.785 11.3794 200.6 10.5595 201.571 9.99881C202.541 9.4428 203.842 9.16479 205.467 9.16479H206.495V14.6448L206.499 14.6495Z" fill="white"/>
</svg>
