<svg width="228" height="44" viewBox="0 0 228 44" fill="none" xmlns="http://www.w3.org/2000/svg">
<path d="M136.648 27.5071C137.089 27.3827 137.524 27.2324 137.944 27.0665C142.837 25.1124 146.31 20.3595 146.377 14.7875C146.46 7.33931 140.142 1.2439 132.694 1.2439H118.129V8.03386H132.906C135.461 8.03386 137.887 9.41777 138.981 11.7295C139.183 12.1597 139.344 12.6106 139.453 13.0875C139.686 14.0878 139.701 15.1711 139.411 16.2958C138.722 18.9704 136.4 20.997 133.653 21.2924C132.222 21.4479 130.869 21.1525 129.724 20.5357C129.148 20.2247 128.646 19.81 128.184 19.3487L127.702 18.8667C127.448 18.5609 127.225 18.2292 127.034 17.8819L131.828 13.0875H118.139V26.7762L122.156 22.7593L126.287 26.8903L136.4 37.521H146.367L136.659 27.5019L136.648 27.5071Z" fill="white"/>
<path d="M12.0613 1.31641H20.5409L32.5089 34.297H24.9259L22.381 27.0872H9.84804L7.3031 34.297H0L12.0613 1.31641ZM20.4476 21.3909L16.0679 8.85793L11.7347 21.3909H20.4528H20.4476Z" fill="white"/>
<path d="M58.0908 33.5922C58.0908 36.7643 57.0386 39.2937 54.9342 41.1752C52.8299 43.0619 49.5645 44 45.1328 44C41.7119 44 38.9441 43.2484 36.8398 41.7401C34.7354 40.2318 33.6055 38.0964 33.45 35.3337H40.1414C40.4576 36.4948 41.0744 37.3915 42.0022 38.0186C42.93 38.6458 44.148 38.962 45.6512 38.962C47.5378 38.962 48.9943 38.4903 50.0309 37.547C51.0676 36.6036 51.5859 35.2093 51.5859 33.3538V30.8088C49.8288 33.0376 47.3305 34.152 44.0962 34.152C41.9607 34.152 40.043 33.6492 38.3481 32.6437C36.6532 31.6381 35.3263 30.2179 34.3674 28.3779C33.4085 26.5379 32.9316 24.3972 32.9316 21.9456C32.9316 19.4939 33.4085 17.3896 34.3674 15.5392C35.3263 13.6888 36.6583 12.2582 38.374 11.2527C40.0844 10.2472 42.0074 9.74438 44.1429 9.74438C47.315 9.74438 49.8288 10.9676 51.6792 13.4193L52.2442 10.0761H58.0856V33.587L58.0908 33.5922ZM51.5393 22.0493C51.5393 20.0071 51.0054 18.3433 49.9377 17.0578C48.8699 15.7724 47.4394 15.1245 45.6512 15.1245C43.863 15.1245 42.422 15.7621 41.3388 17.0319C40.2555 18.3018 39.7112 19.9604 39.7112 22.0026C39.7112 24.0448 40.2555 25.693 41.3388 26.9474C42.422 28.2017 43.8578 28.834 45.6512 28.834C47.4445 28.834 48.8699 28.2069 49.9377 26.9474C51.0054 25.693 51.5393 24.0551 51.5393 22.0493Z" fill="white"/>
<path d="M67.5884 11.3306C69.4232 10.3095 71.5535 9.80151 73.974 9.80151C76.3946 9.80151 78.5819 10.2784 80.453 11.2373C82.3241 12.1961 83.7806 13.5438 84.8328 15.2905C85.885 17.0372 86.4292 19.0846 86.4603 21.4378C86.4603 22.2878 86.3981 23.0394 86.2737 23.6976H68.7028V23.8842C68.8582 25.6413 69.4232 27.0252 70.3977 28.0308C71.3721 29.0363 72.7042 29.5391 74.4042 29.5391C75.7571 29.5391 76.8766 29.2488 77.7733 28.6683C78.67 28.0878 79.2557 27.2325 79.5408 26.1026H86.0871C85.8383 27.7042 85.2215 29.1503 84.2523 30.4357C83.283 31.7212 81.9924 32.7371 80.3908 33.4731C78.7892 34.2091 76.9492 34.5823 74.8811 34.5823C72.1807 34.5823 69.8482 34.0795 67.8838 33.074C65.9194 32.0685 64.4111 30.6327 63.3589 28.7616C62.3067 26.8905 61.7832 24.7187 61.7832 22.236C61.7832 19.7532 62.2912 17.5296 63.3122 15.6637C64.3333 13.7926 65.7639 12.3516 67.5987 11.3306H67.5884ZM78.0014 15.9488C77.0114 15.1454 75.7622 14.7463 74.2539 14.7463C72.7456 14.7463 71.5898 15.1609 70.605 15.9954C69.6202 16.8299 69.0293 17.9495 68.8375 19.3645H79.8155C79.5978 17.8873 78.9914 16.7522 78.0014 15.9488Z" fill="white"/>
<path d="M113.686 21.1527V34.2972H107.041V21.531C107.041 17.3534 105.408 15.2646 102.143 15.2646C100.417 15.2646 99.0794 15.8451 98.136 17.0061C97.1927 18.1672 96.721 19.7999 96.721 21.9042V34.2972H90.0762V10.0814H95.871L96.4826 13.098C97.3326 12.0614 98.3537 11.2528 99.5458 10.6723C100.738 10.0918 102.215 9.80151 103.972 9.80151C106.797 9.80151 109.124 10.6827 110.944 12.4398C112.763 14.1968 113.675 17.1046 113.675 21.1579L113.686 21.1527Z" fill="white"/>
<path d="M156.332 3.72152C156.332 4.78926 155.969 5.68595 155.249 6.40641C154.528 7.12687 153.616 7.48969 152.517 7.48969C151.418 7.48969 150.501 7.12687 149.76 6.40641C149.024 5.68595 148.65 4.78926 148.65 3.72152C148.65 2.65379 149.018 1.76746 149.76 1.05737C150.496 0.352456 151.418 0 152.517 0C153.616 0 154.528 0.352456 155.249 1.05737C155.969 1.76228 156.332 2.65379 156.332 3.72152ZM155.814 10.0813V34.2971H149.169V10.0813H155.814Z" fill="white"/>
<path d="M165.186 10.0813L171.028 27.5123L176.776 10.0813H183.747L175.029 34.2971H166.783L158.064 10.0813H165.181H165.186Z" fill="white"/>
<path d="M189.899 11.3306C191.734 10.3095 193.864 9.80151 196.285 9.80151C198.705 9.80151 200.892 10.2784 202.764 11.2373C204.635 12.1961 206.091 13.5438 207.143 15.2905C208.196 17.0372 208.74 19.0846 208.771 21.4378C208.771 22.2878 208.709 23.0394 208.584 23.6976H191.013V23.8842C191.169 25.6413 191.734 27.0252 192.708 28.0308C193.683 29.0363 195.015 29.5391 196.715 29.5391C198.068 29.5391 199.187 29.2488 200.084 28.6683C200.981 28.0878 201.566 27.2325 201.851 26.1026H208.398C208.144 27.7042 207.532 29.1503 206.563 30.4357C205.588 31.7212 204.303 32.7371 202.701 33.4731C201.1 34.2091 199.26 34.5823 197.192 34.5823C194.491 34.5823 192.159 34.0795 190.194 33.074C188.23 32.0685 186.722 30.6327 185.669 28.7616C184.617 26.8905 184.094 24.7187 184.094 22.236C184.094 19.7532 184.607 17.5296 185.623 15.6637C186.644 13.7926 188.074 12.3516 189.909 11.3306H189.899ZM200.312 15.9488C199.322 15.1454 198.073 14.7463 196.564 14.7463C195.056 14.7463 193.9 15.1609 192.916 15.9954C191.926 16.8299 191.34 17.9495 191.148 19.3645H202.126C201.908 17.8873 201.302 16.7522 200.312 15.9488Z" fill="white"/>
<path d="M227.15 16.1145H224.512C222.626 16.1145 221.247 16.6795 220.366 17.8094C219.485 18.9394 219.049 20.4788 219.049 22.4276V34.3023H212.404V10.0813H218.432L219.044 13.7095C219.764 12.5174 220.661 11.6155 221.729 10.9987C222.797 10.3871 224.227 10.0813 226.015 10.0813H227.145V16.1093L227.15 16.1145Z" fill="white"/>
</svg>
