<svg width="190" height="48" viewBox="0 0 190 48" fill="none" xmlns="http://www.w3.org/2000/svg">
<path d="M181.301 25.5078V12.5539H184.435V14.5388C184.766 13.8946 185.192 13.3897 185.715 13.024C186.237 12.641 186.838 12.4495 187.517 12.4495H189.266V15.244H187.203C186.594 15.244 186.08 15.4094 185.662 15.7402C185.262 16.0536 184.957 16.5498 184.748 17.2288C184.539 17.8905 184.435 18.7262 184.435 19.736V25.5078H181.301Z" fill="#F04C23"/>
<path d="M172.636 25.8212C171.33 25.8212 170.173 25.5426 169.163 24.9855C168.17 24.4109 167.387 23.6187 166.812 22.6088C166.255 21.599 165.977 20.4324 165.977 19.1092C165.977 17.7685 166.255 16.5846 166.812 15.5573C167.369 14.5126 168.153 13.703 169.163 13.1284C170.173 12.5365 171.339 12.2405 172.662 12.2405C173.933 12.2405 175.048 12.5191 176.005 13.0762C176.98 13.6334 177.729 14.3908 178.251 15.3484C178.791 16.2886 179.061 17.3507 179.061 18.5346C179.061 18.7087 179.061 18.9002 179.061 19.1092C179.061 19.3181 179.044 19.5445 179.009 19.7882H168.249V17.7511H175.901C175.849 16.8457 175.518 16.1319 174.908 15.6095C174.299 15.0698 173.55 14.7999 172.662 14.7999C172.018 14.7999 171.418 14.9479 170.86 15.2439C170.321 15.5225 169.885 15.9491 169.555 16.5236C169.224 17.0808 169.058 17.7946 169.058 18.6652V19.4226C169.058 20.2235 169.215 20.9112 169.528 21.4858C169.859 22.0604 170.295 22.4957 170.834 22.7916C171.374 23.0876 171.975 23.2356 172.636 23.2356C173.35 23.2356 173.951 23.0789 174.438 22.7655C174.926 22.4347 175.283 21.9994 175.509 21.4597H178.695C178.469 22.2954 178.069 23.0441 177.494 23.7057C176.937 24.3499 176.249 24.8636 175.431 25.2466C174.613 25.6297 173.681 25.8212 172.636 25.8212Z" fill="#F04C23"/>
<path d="M156.951 25.5076L152.172 12.5537H155.436L158.858 22.5303L162.253 12.5537H165.518L160.712 25.5076H156.951Z" fill="#F04C23"/>
<path d="M147.027 25.5078V12.5539H150.161V25.5078H147.027ZM147.027 10.3339V7.12158H150.187V10.3339H147.027Z" fill="#F04C23"/>
<path d="M130.004 25.4033V7.12158H137.552C138.997 7.12158 140.189 7.36534 141.13 7.85285C142.087 8.34036 142.792 9.01069 143.245 9.86384C143.715 10.6996 143.95 11.6485 143.95 12.7106C143.95 13.5811 143.759 14.382 143.376 15.1133C142.993 15.8446 142.462 16.454 141.783 16.9415C142.514 17.3768 143.062 17.9687 143.428 18.7174C143.794 19.4487 143.994 20.3018 144.029 21.2769L144.238 25.4033H141.182L140.921 21.3552C140.886 20.6414 140.755 20.0581 140.529 19.6054C140.303 19.1527 139.946 18.8219 139.458 18.613C138.988 18.3866 138.344 18.2734 137.526 18.2734H133.138V25.4033H130.004ZM133.138 15.7401H137.343C138.544 15.7401 139.415 15.4615 139.954 14.9044C140.494 14.3472 140.764 13.6159 140.764 12.7106C140.764 11.7704 140.494 11.0304 139.954 10.4906C139.415 9.9509 138.535 9.68102 137.317 9.68102H133.138V15.7401Z" fill="#F04C23"/>
<path d="M114.902 25.5078V12.5539H118.036V14.5649C118.472 13.851 119.055 13.2851 119.786 12.8673C120.535 12.4494 121.388 12.2405 122.346 12.2405C123.947 12.2405 125.192 12.7454 126.08 13.7552C126.968 14.7477 127.412 16.2102 127.412 18.1429V25.5078H124.278V18.4563C124.278 17.2897 124.035 16.4105 123.547 15.8185C123.077 15.2091 122.354 14.9044 121.379 14.9044C120.422 14.9044 119.621 15.2439 118.977 15.9229C118.35 16.602 118.036 17.5683 118.036 18.8219V25.5078H114.902Z" fill="white"/>
<path d="M106.242 25.8212C104.936 25.8212 103.778 25.5426 102.768 24.9855C101.776 24.4109 100.992 23.6187 100.418 22.6088C99.8606 21.599 99.582 20.4324 99.582 19.1092C99.582 17.7685 99.8606 16.5846 100.418 15.5573C100.975 14.5126 101.758 13.703 102.768 13.1284C103.778 12.5365 104.945 12.2405 106.268 12.2405C107.539 12.2405 108.653 12.5191 109.611 13.0762C110.586 13.6334 111.335 14.3908 111.857 15.3484C112.397 16.2886 112.667 17.3507 112.667 18.5346C112.667 18.7087 112.667 18.9002 112.667 19.1092C112.667 19.3181 112.649 19.5445 112.614 19.7882H101.854V17.7511H109.506C109.454 16.8457 109.123 16.1319 108.514 15.6095C107.905 15.0698 107.156 14.7999 106.268 14.7999C105.624 14.7999 105.023 14.9479 104.466 15.2439C103.926 15.5225 103.491 15.9491 103.16 16.5236C102.829 17.0808 102.664 17.7946 102.664 18.6652V19.4226C102.664 20.2235 102.821 20.9112 103.134 21.4858C103.465 22.0604 103.9 22.4957 104.44 22.7916C104.979 23.0876 105.58 23.2356 106.242 23.2356C106.956 23.2356 107.556 23.0789 108.044 22.7655C108.531 22.4347 108.888 21.9994 109.115 21.4597H112.301C112.075 22.2954 111.674 23.0441 111.1 23.7057C110.542 24.3499 109.855 24.8636 109.036 25.2466C108.218 25.6297 107.286 25.8212 106.242 25.8212Z" fill="white"/>
<path d="M90.5966 31.5669C89.4823 31.5669 88.4289 31.3841 87.4365 31.0184C86.4441 30.6528 85.6083 30.0869 84.9293 29.3208C84.2503 28.5547 83.8324 27.5797 83.6757 26.3958H86.7836C86.9751 27.1444 87.4104 27.7364 88.0894 28.1717C88.7684 28.6244 89.5868 28.8507 90.5444 28.8507C91.2234 28.8507 91.8502 28.7027 92.4248 28.4067C93.0168 28.1282 93.4782 27.6929 93.809 27.1009C94.1572 26.5089 94.3313 25.7602 94.3313 24.8549V23.1834C94.0701 23.6187 93.7306 24.0191 93.3128 24.3848C92.8949 24.7504 92.39 25.0464 91.798 25.2727C91.206 25.4991 90.527 25.6123 89.7609 25.6123C88.5421 25.6123 87.4365 25.325 86.4441 24.7504C85.469 24.1584 84.6942 23.3575 84.1197 22.3477C83.5451 21.3204 83.2578 20.1713 83.2578 18.9002C83.2578 17.6466 83.5451 16.5149 84.1197 15.5051C84.6942 14.4952 85.469 13.703 86.4441 13.1284C87.4365 12.5365 88.5508 12.2405 89.787 12.2405C90.8143 12.2405 91.7196 12.4581 92.5031 12.8934C93.2866 13.3113 93.896 13.8423 94.3313 14.4865V12.5539H97.4653V24.7243C97.4653 26.2042 97.1519 27.4491 96.5251 28.459C95.9157 29.4862 95.0887 30.261 94.044 30.7834C93.0168 31.3057 91.8676 31.5669 90.5966 31.5669ZM90.3877 22.8961C91.1538 22.8961 91.8241 22.722 92.3987 22.3738C92.9907 22.0256 93.452 21.5555 93.7829 20.9635C94.1311 20.3541 94.3052 19.675 94.3052 18.9264C94.3052 18.1603 94.1311 17.4812 93.7829 16.8893C93.452 16.2973 92.9907 15.8359 92.3987 15.5051C91.8241 15.1568 91.1538 14.9827 90.3877 14.9827C89.6216 14.9827 88.9426 15.1568 88.3506 15.5051C87.7586 15.8359 87.2972 16.2973 86.9664 16.8893C86.6356 17.4638 86.4702 18.1342 86.4702 18.9002C86.4702 19.6663 86.6356 20.3541 86.9664 20.9635C87.2972 21.5555 87.7586 22.0256 88.3506 22.3738C88.9426 22.722 89.6216 22.8961 90.3877 22.8961Z" fill="white"/>
<path d="M65.5664 25.5078L72.2523 7.22607H75.7519L82.4378 25.5078H79.121L73.3231 8.9759H74.655L68.8571 25.5078H65.5664ZM68.6482 21.1985L69.51 18.7174H78.4942L79.356 21.1985H68.6482Z" fill="white"/>
<g opacity="0.64">
<path d="M184.699 41.3175V36.4925H185.769V37.261C185.931 36.9886 186.152 36.7746 186.431 36.6189C186.71 36.4568 187.027 36.3757 187.384 36.3757C187.974 36.3757 188.435 36.5606 188.765 36.9302C189.096 37.2934 189.262 37.8349 189.262 38.5548V41.3175H188.192V38.6618C188.192 38.2078 188.097 37.8673 187.909 37.6404C187.728 37.4069 187.449 37.2902 187.073 37.2902C186.697 37.2902 186.385 37.4231 186.139 37.689C185.893 37.9549 185.769 38.3343 185.769 38.8272V41.3175H184.699Z" fill="white"/>
<path d="M180.051 41.4342C179.571 41.4342 179.14 41.3305 178.757 41.1229C178.374 40.9089 178.069 40.6106 177.842 40.228C177.622 39.8453 177.512 39.4043 177.512 38.905C177.512 38.3991 177.622 37.9581 177.842 37.582C178.069 37.1994 178.374 36.9043 178.757 36.6968C179.146 36.4827 179.577 36.3757 180.051 36.3757C180.537 36.3757 180.968 36.4827 181.345 36.6968C181.727 36.9043 182.029 37.1994 182.249 37.582C182.476 37.9581 182.59 38.3991 182.59 38.905C182.59 39.4043 182.476 39.8453 182.249 40.228C182.029 40.6106 181.727 40.9089 181.345 41.1229C180.962 41.3305 180.531 41.4342 180.051 41.4342ZM180.041 40.5101C180.307 40.5101 180.547 40.4517 180.761 40.335C180.981 40.2118 181.156 40.0334 181.286 39.7999C181.416 39.56 181.481 39.2617 181.481 38.905C181.481 38.5483 181.416 38.2532 181.286 38.0197C181.156 37.7798 180.981 37.6014 180.761 37.4847C180.547 37.3615 180.313 37.2999 180.06 37.2999C179.801 37.2999 179.561 37.3615 179.341 37.4847C179.12 37.6014 178.945 37.7798 178.815 38.0197C178.686 38.2532 178.621 38.5483 178.621 38.905C178.621 39.2617 178.686 39.56 178.815 39.7999C178.945 40.0334 179.117 40.2118 179.331 40.335C179.551 40.4517 179.788 40.5101 180.041 40.5101Z" fill="white"/>
<path d="M174.322 41.3175V36.4924H175.392V41.3175H174.322ZM174.293 35.6364V34.4788H175.431V35.6364H174.293Z" fill="white"/>
<path d="M171.29 41.3173C170.992 41.3173 170.739 41.2816 170.531 41.2103C170.324 41.139 170.168 41.0028 170.065 40.8017C169.961 40.6007 169.909 40.3088 169.909 39.9262V37.397H169.082V36.4923H169.909V35.2568H170.979V36.4923H172.273V37.397H170.979V39.7803C170.979 39.9684 170.995 40.1078 171.028 40.1986C171.067 40.2829 171.131 40.338 171.222 40.364C171.319 40.3899 171.459 40.4029 171.64 40.4029H172.224V41.3173H171.29Z" fill="white"/>
<path d="M164.489 41.4342C164.113 41.4342 163.792 41.3694 163.526 41.2397C163.267 41.1035 163.069 40.9251 162.933 40.7046C162.803 40.4841 162.738 40.2442 162.738 39.9848C162.738 39.4724 162.923 39.0768 163.293 38.798C163.662 38.5191 164.149 38.3797 164.752 38.3797C165.024 38.3797 165.268 38.4024 165.482 38.4478C165.696 38.4867 165.871 38.5288 166.007 38.5742V38.3505C166.007 37.9743 165.903 37.6955 165.696 37.5139C165.495 37.3323 165.225 37.2415 164.888 37.2415C164.635 37.2415 164.411 37.2934 164.217 37.3972C164.022 37.5009 163.899 37.6825 163.847 37.9419H162.816C162.855 37.5917 162.972 37.3031 163.166 37.0761C163.367 36.8427 163.617 36.6676 163.915 36.5508C164.214 36.4341 164.538 36.3757 164.888 36.3757C165.589 36.3757 166.127 36.5508 166.503 36.901C166.886 37.2512 167.077 37.7344 167.077 38.3505V39.6151C167.077 39.8616 167.09 40.0399 167.116 40.1502C167.148 40.2604 167.197 40.3317 167.262 40.3642C167.333 40.3901 167.427 40.4031 167.544 40.4031H167.592V41.3175H167.359C167.035 41.3175 166.762 41.2689 166.542 41.1716C166.328 41.0743 166.179 40.8797 166.094 40.5879C165.939 40.8279 165.728 41.0289 165.462 41.191C165.196 41.3532 164.872 41.4342 164.489 41.4342ZM164.703 40.5976C164.95 40.5976 165.161 40.5393 165.336 40.4225C165.511 40.2993 165.65 40.1404 165.754 39.9459C165.864 39.7448 165.932 39.5308 165.958 39.3038C165.816 39.2649 165.647 39.226 165.452 39.1871C165.258 39.1482 165.06 39.1287 164.859 39.1287C164.515 39.1287 164.256 39.2001 164.081 39.3427C163.906 39.4854 163.818 39.6735 163.818 39.907C163.818 40.108 163.896 40.2734 164.052 40.4031C164.207 40.5328 164.424 40.5976 164.703 40.5976Z" fill="white"/>
<path d="M157.926 41.4343C157.466 41.4343 157.054 41.324 156.691 41.1035C156.334 40.883 156.052 40.5815 155.845 40.1988C155.643 39.8097 155.543 39.3752 155.543 38.8953C155.543 38.4089 155.643 37.9776 155.845 37.6015C156.052 37.2189 156.334 36.9205 156.691 36.7065C157.054 36.486 157.469 36.3758 157.936 36.3758C158.312 36.3758 158.643 36.4504 158.928 36.5995C159.214 36.7487 159.437 36.953 159.599 37.2124V34.3135H160.67V41.3176H159.599V40.5782C159.45 40.7987 159.24 40.9965 158.967 41.1716C158.695 41.3467 158.348 41.4343 157.926 41.4343ZM158.121 40.5004C158.413 40.5004 158.669 40.4323 158.889 40.2961C159.116 40.1599 159.291 39.9719 159.415 39.7319C159.544 39.492 159.609 39.2163 159.609 38.905C159.609 38.5873 159.544 38.3084 159.415 38.0684C159.291 37.8285 159.116 37.6437 158.889 37.5139C158.669 37.3778 158.413 37.3097 158.121 37.3097C157.836 37.3097 157.579 37.3778 157.352 37.5139C157.132 37.6437 156.957 37.8285 156.827 38.0684C156.697 38.3084 156.632 38.584 156.632 38.8953C156.632 39.2131 156.697 39.492 156.827 39.7319C156.957 39.9719 157.132 40.1599 157.352 40.2961C157.579 40.4323 157.836 40.5004 158.121 40.5004Z" fill="white"/>
<path d="M148.875 41.3175V36.4925H149.945V37.261C150.107 36.9886 150.328 36.7746 150.607 36.6189C150.885 36.4568 151.203 36.3757 151.56 36.3757C152.15 36.3757 152.611 36.5606 152.941 36.9302C153.272 37.2934 153.437 37.8349 153.437 38.5548V41.3175H152.367V38.6618C152.367 38.2078 152.273 37.8673 152.085 37.6404C151.904 37.4069 151.625 37.2902 151.249 37.2902C150.872 37.2902 150.561 37.4231 150.315 37.689C150.068 37.9549 149.945 38.3343 149.945 38.8272V41.3175H148.875Z" fill="white"/>
<path d="M143.983 41.4342C143.445 41.4342 143.014 41.2526 142.69 40.8894C142.365 40.5198 142.203 39.975 142.203 39.2552V36.4924H143.273V39.1481C143.273 39.6021 143.361 39.9458 143.536 40.1793C143.717 40.4063 143.97 40.5198 144.295 40.5198C144.671 40.5198 144.966 40.3868 145.18 40.1209C145.394 39.855 145.501 39.4756 145.501 38.9828V36.4924H146.571V41.3175H145.501V40.5684C145.358 40.8408 145.157 41.0548 144.898 41.2105C144.645 41.3596 144.34 41.4342 143.983 41.4342Z" fill="white"/>
<path d="M137.625 41.4342C137.145 41.4342 136.714 41.3305 136.331 41.1229C135.948 40.9089 135.644 40.6106 135.417 40.228C135.196 39.8453 135.086 39.4043 135.086 38.905C135.086 38.3991 135.196 37.9581 135.417 37.582C135.644 37.1994 135.948 36.9043 136.331 36.6968C136.72 36.4827 137.151 36.3757 137.625 36.3757C138.111 36.3757 138.543 36.4827 138.919 36.6968C139.301 36.9043 139.603 37.1994 139.823 37.582C140.05 37.9581 140.164 38.3991 140.164 38.905C140.164 39.4043 140.05 39.8453 139.823 40.228C139.603 40.6106 139.301 40.9089 138.919 41.1229C138.536 41.3305 138.105 41.4342 137.625 41.4342ZM137.615 40.5101C137.881 40.5101 138.121 40.4517 138.335 40.335C138.556 40.2118 138.731 40.0334 138.86 39.7999C138.99 39.56 139.055 39.2617 139.055 38.905C139.055 38.5483 138.99 38.2532 138.86 38.0197C138.731 37.7798 138.556 37.6014 138.335 37.4847C138.121 37.3615 137.888 37.2999 137.635 37.2999C137.375 37.2999 137.135 37.3615 136.915 37.4847C136.694 37.6014 136.519 37.7798 136.389 38.0197C136.26 38.2532 136.195 38.5483 136.195 38.905C136.195 39.2617 136.26 39.56 136.389 39.7999C136.519 40.0334 136.691 40.2118 136.905 40.335C137.126 40.4517 137.362 40.5101 137.615 40.5101Z" fill="white"/>
<path d="M129.5 41.3173V34.5078H133.8V35.3736H130.57V37.4748H133.245V38.3309H130.57V41.3173H129.5Z" fill="white"/>
<path d="M120.506 41.4342C120.026 41.4342 119.601 41.3305 119.232 41.1229C118.869 40.9089 118.58 40.6138 118.366 40.2377C118.158 39.8616 118.055 39.4238 118.055 38.9244C118.055 38.4251 118.158 37.9841 118.366 37.6014C118.574 37.2123 118.862 36.9108 119.232 36.6968C119.601 36.4827 120.029 36.3757 120.516 36.3757C120.989 36.3757 121.401 36.4795 121.751 36.687C122.108 36.8946 122.384 37.1734 122.578 37.5236C122.773 37.8738 122.87 38.2662 122.87 38.7007C122.87 38.7655 122.87 38.8369 122.87 38.9147C122.87 38.986 122.864 39.0671 122.851 39.1579H118.843V38.438H121.8C121.78 38.0749 121.648 37.7863 121.401 37.5723C121.161 37.3582 120.866 37.2512 120.516 37.2512C120.263 37.2512 120.029 37.3096 119.815 37.4263C119.601 37.5366 119.43 37.702 119.3 37.9225C119.17 38.1365 119.105 38.4121 119.105 38.7493V39.0217C119.105 39.346 119.17 39.6248 119.3 39.8583C119.43 40.0853 119.598 40.2572 119.806 40.3739C120.02 40.4906 120.253 40.549 120.506 40.549C120.791 40.549 121.031 40.4841 121.226 40.3544C121.421 40.2247 121.563 40.0496 121.654 39.8291H122.734C122.649 40.1339 122.504 40.4096 122.296 40.656C122.095 40.896 121.842 41.0873 121.537 41.2299C121.239 41.3661 120.895 41.4342 120.506 41.4342Z" fill="white"/>
<path d="M114.867 41.3176V34.3135H115.937V41.3176H114.867Z" fill="white"/>
<path d="M110.372 41.4343C109.996 41.4343 109.665 41.3597 109.38 41.2105C109.095 41.0614 108.868 40.8571 108.699 40.5977V41.3176H107.629V34.3135H108.699V37.2318C108.855 37.0049 109.069 36.8071 109.341 36.6384C109.613 36.4633 109.957 36.3758 110.372 36.3758C110.839 36.3758 111.251 36.486 111.608 36.7065C111.964 36.927 112.243 37.2286 112.444 37.6112C112.652 37.9939 112.755 38.4284 112.755 38.9148C112.755 39.3947 112.652 39.8259 112.444 40.2086C112.243 40.5912 111.964 40.8928 111.608 41.1133C111.251 41.3273 110.839 41.4343 110.372 41.4343ZM110.178 40.5004C110.469 40.5004 110.726 40.4323 110.946 40.2961C111.173 40.1599 111.348 39.9751 111.471 39.7416C111.601 39.5017 111.666 39.2261 111.666 38.9148C111.666 38.597 111.601 38.3181 111.471 38.0782C111.348 37.8317 111.173 37.6437 110.946 37.5139C110.726 37.3778 110.469 37.3097 110.178 37.3097C109.886 37.3097 109.626 37.3778 109.399 37.5139C109.179 37.6437 109.004 37.8285 108.874 38.0684C108.751 38.3084 108.689 38.5873 108.689 38.905C108.689 39.2228 108.751 39.5017 108.874 39.7416C109.004 39.9751 109.179 40.1599 109.399 40.2961C109.626 40.4323 109.886 40.5004 110.178 40.5004Z" fill="white"/>
<path d="M102.478 41.4342C102.101 41.4342 101.78 41.3694 101.515 41.2397C101.255 41.1035 101.057 40.9251 100.921 40.7046C100.791 40.4841 100.727 40.2442 100.727 39.9848C100.727 39.4724 100.911 39.0768 101.281 38.798C101.651 38.5191 102.137 38.3797 102.74 38.3797C103.013 38.3797 103.256 38.4024 103.47 38.4478C103.684 38.4867 103.859 38.5288 103.995 38.5742V38.3505C103.995 37.9743 103.891 37.6955 103.684 37.5139C103.483 37.3323 103.214 37.2415 102.876 37.2415C102.624 37.2415 102.4 37.2934 102.205 37.3972C102.011 37.5009 101.887 37.6825 101.836 37.9419H100.804C100.843 37.5917 100.96 37.3031 101.155 37.0761C101.356 36.8427 101.605 36.6676 101.904 36.5508C102.202 36.4341 102.526 36.3757 102.876 36.3757C103.577 36.3757 104.115 36.5508 104.491 36.901C104.874 37.2512 105.065 37.7344 105.065 38.3505V39.6151C105.065 39.8616 105.078 40.0399 105.104 40.1502C105.137 40.2604 105.185 40.3317 105.25 40.3642C105.321 40.3901 105.415 40.4031 105.532 40.4031H105.581V41.3175H105.347C105.023 41.3175 104.751 41.2689 104.53 41.1716C104.316 41.0743 104.167 40.8797 104.083 40.5879C103.927 40.8279 103.716 41.0289 103.45 41.191C103.184 41.3532 102.86 41.4342 102.478 41.4342ZM102.692 40.5976C102.938 40.5976 103.149 40.5393 103.324 40.4225C103.499 40.2993 103.638 40.1404 103.742 39.9459C103.852 39.7448 103.921 39.5308 103.946 39.3038C103.804 39.2649 103.635 39.226 103.441 39.1871C103.246 39.1482 103.048 39.1287 102.847 39.1287C102.504 39.1287 102.244 39.2001 102.069 39.3427C101.894 39.4854 101.806 39.6735 101.806 39.907C101.806 40.108 101.884 40.2734 102.04 40.4031C102.195 40.5328 102.413 40.5976 102.692 40.5976Z" fill="white"/>
<path d="M98.0051 41.3173C97.7068 41.3173 97.4539 41.2816 97.2463 41.2103C97.0388 41.139 96.8832 41.0028 96.7794 40.8017C96.6756 40.6007 96.6237 40.3088 96.6237 39.9262V37.397H95.7969V36.4923H96.6237V35.2568H97.6938V36.4923H98.9876V37.397H97.6938V39.7803C97.6938 39.9684 97.71 40.1078 97.7425 40.1986C97.7814 40.2829 97.8462 40.338 97.937 40.364C98.0343 40.3899 98.1737 40.4029 98.3553 40.4029H98.939V41.3173H98.0051Z" fill="white"/>
<path d="M92.7909 41.3175V36.4924H93.861V41.3175H92.7909ZM92.7617 35.6364V34.4788H93.8999V35.6364H92.7617Z" fill="white"/>
<path d="M87.7148 41.3176V36.4925H88.7849V37.2416C88.9016 36.9951 89.0573 36.8038 89.2518 36.6676C89.4464 36.525 89.6734 36.4536 89.9328 36.4536H90.604V37.4167H89.8258C89.6053 37.4167 89.4172 37.4783 89.2616 37.6015C89.1059 37.7182 88.986 37.9031 88.9016 38.156C88.8238 38.4089 88.7849 38.7299 88.7849 39.1191V41.3176H87.7148Z" fill="white"/>
<path d="M82.4581 41.4342C82.0819 41.4342 81.7609 41.3694 81.495 41.2397C81.2356 41.1035 81.0378 40.9251 80.9016 40.7046C80.7719 40.4841 80.707 40.2442 80.707 39.9848C80.707 39.4724 80.8919 39.0768 81.2615 38.798C81.6312 38.5191 82.1176 38.3797 82.7207 38.3797C82.9931 38.3797 83.2363 38.4024 83.4503 38.4478C83.6643 38.4867 83.8394 38.5288 83.9756 38.5742V38.3505C83.9756 37.9743 83.8718 37.6955 83.6643 37.5139C83.4633 37.3323 83.1941 37.2415 82.8569 37.2415C82.604 37.2415 82.3802 37.2934 82.1857 37.3972C81.9911 37.5009 81.8679 37.6825 81.816 37.9419H80.7849C80.8238 37.5917 80.9405 37.3031 81.1351 37.0761C81.3361 36.8427 81.5858 36.6676 81.8841 36.5508C82.1824 36.4341 82.5067 36.3757 82.8569 36.3757C83.5573 36.3757 84.0956 36.5508 84.4717 36.901C84.8544 37.2512 85.0457 37.7344 85.0457 38.3505V39.6151C85.0457 39.8616 85.0586 40.0399 85.0846 40.1502C85.117 40.2604 85.1656 40.3317 85.2305 40.3642C85.3018 40.3901 85.3959 40.4031 85.5126 40.4031H85.5612V41.3175H85.3278C85.0035 41.3175 84.7311 41.2689 84.5106 41.1716C84.2966 41.0743 84.1475 40.8797 84.0631 40.5879C83.9075 40.8279 83.6967 41.0289 83.4308 41.191C83.1649 41.3532 82.8407 41.4342 82.4581 41.4342ZM82.6721 40.5976C82.9185 40.5976 83.1293 40.5393 83.3044 40.4225C83.4795 40.2993 83.6189 40.1404 83.7227 39.9459C83.8329 39.7448 83.901 39.5308 83.927 39.3038C83.7843 39.2649 83.6157 39.226 83.4211 39.1871C83.2266 39.1482 83.0288 39.1287 82.8277 39.1287C82.484 39.1287 82.2246 39.2001 82.0495 39.3427C81.8744 39.4854 81.7868 39.6735 81.7868 39.907C81.7868 40.108 81.8646 40.2734 82.0203 40.4031C82.1759 40.5328 82.3932 40.5976 82.6721 40.5976Z" fill="white"/>
<path d="M73.9414 41.3176V34.3135H75.0115V37.261C75.1736 36.9886 75.3973 36.7746 75.6827 36.619C75.9745 36.4569 76.2956 36.3758 76.6458 36.3758C77.2229 36.3758 77.6769 36.5606 78.0077 36.9303C78.3449 37.2935 78.5135 37.835 78.5135 38.5548V41.3176H77.4532V38.6618C77.4532 38.2079 77.3624 37.8674 77.1808 37.6404C76.9992 37.4069 76.7203 37.2902 76.3442 37.2902C75.9616 37.2902 75.6438 37.4232 75.3909 37.6891C75.1379 37.9549 75.0115 38.3343 75.0115 38.8272V41.3176H73.9414Z" fill="white"/>
<path d="M68.8447 41.4343C68.1702 41.4343 67.5866 41.2884 67.0937 40.9966C66.6008 40.6983 66.2214 40.2865 65.9555 39.7611C65.6961 39.2294 65.5664 38.6165 65.5664 37.9226C65.5664 37.2222 65.6961 36.6093 65.9555 36.084C66.2214 35.5522 66.6008 35.1372 67.0937 34.8388C67.5866 34.5405 68.1702 34.3914 68.8447 34.3914C69.6489 34.3914 70.3039 34.5892 70.8097 34.9848C71.3156 35.3739 71.6366 35.9219 71.7728 36.6288H70.586C70.5017 36.2332 70.3104 35.9219 70.012 35.6949C69.7202 35.4679 69.3279 35.3544 68.835 35.3544C68.3875 35.3544 68.0016 35.4582 67.6774 35.6657C67.3531 35.8668 67.1002 36.1618 66.9186 36.5509C66.7435 36.9336 66.6559 37.3908 66.6559 37.9226C66.6559 38.4544 66.7435 38.9116 66.9186 39.2942C67.1002 39.6704 67.3531 39.9622 67.6774 40.1697C68.0016 40.3772 68.3875 40.481 68.835 40.481C69.3279 40.481 69.7202 40.3708 70.012 40.1503C70.3039 39.9298 70.4984 39.6152 70.5957 39.2067H71.7825C71.6463 39.9136 71.3221 40.4616 70.8097 40.8507C70.3039 41.2398 69.6489 41.4343 68.8447 41.4343Z" fill="white"/>
</g>
<path d="M32.6933 22.8286L28.0538 27.4681L31.1686 30.583L35.9538 25.7978C36.6166 25.135 37.6946 25.135 38.3573 25.7978L45.0556 32.4961C45.7184 33.1589 45.7184 34.2368 45.0556 34.8996L37.1556 42.7997L17.1821 22.8262C14.7179 20.362 10.7193 20.362 8.25511 22.8262L1.84816 29.2331C-0.616053 31.6974 -0.616053 35.6959 1.84816 38.1601L11.6856 47.9976H29.6197L25.2133 43.5911H13.5089L4.81735 34.8996C4.15456 34.2368 4.15456 33.1589 4.81735 32.4961L11.5156 25.7978C12.1784 25.135 13.2564 25.135 13.9192 25.7978L36.1213 48H38.1898L48.0273 38.1626C50.4915 35.6984 50.4915 31.6998 48.0273 29.2356L41.6203 22.8286C39.1561 20.3644 35.1575 20.3644 32.6933 22.8286Z" fill="white"/>
<path d="M13.8089 0H11.8909C7.78554 0 4.45703 3.32851 4.45703 7.43391V9.35187C4.45703 13.4573 7.78554 16.7858 11.8909 16.7858H13.8089C17.9143 16.7858 21.2428 13.4573 21.2428 9.35187V7.43391C21.2428 3.32851 17.9143 0 13.8089 0ZM16.9335 9.23048C16.9335 11.0222 15.4792 12.4764 13.6875 12.4764H12.0123C10.2206 12.4764 8.76637 11.0222 8.76637 9.23048V7.5553C8.76637 5.76359 10.2206 4.30934 12.0123 4.30934H13.6875C15.4792 4.30934 16.9335 5.76359 16.9335 7.5553V9.23048Z" fill="#F04C23"/>
<path d="M38.2191 0H36.3011C32.1957 0 28.8672 3.32851 28.8672 7.43391V9.35187C28.8672 13.4573 32.1957 16.7858 36.3011 16.7858H38.2191C42.3245 16.7858 45.653 13.4573 45.653 9.35187V7.43391C45.653 3.32851 42.3245 0 38.2191 0ZM41.3436 9.23048C41.3436 11.0222 39.8894 12.4764 38.0977 12.4764H36.4225C34.6308 12.4764 33.1765 11.0222 33.1765 9.23048V7.5553C33.1765 5.76359 34.6308 4.30934 36.4225 4.30934H38.0977C39.8894 4.30934 41.3436 5.76359 41.3436 7.5553V9.23048Z" fill="#FDCD0B"/>
</svg>
