<svg width="206" height="52" viewBox="0 0 206 52" fill="none" xmlns="http://www.w3.org/2000/svg">
<path d="M196.402 27.6339V13.6005H199.798V15.7508C200.156 15.0529 200.618 14.5059 201.184 14.1098C201.75 13.6948 202.4 13.4873 203.136 13.4873H205.032V16.5147H202.797C202.136 16.5147 201.58 16.6939 201.127 17.0522C200.693 17.3918 200.363 17.9293 200.137 18.6649C199.911 19.3817 199.798 20.2871 199.798 21.3811V27.6339H196.402Z" fill="#F04C23"/>
<path d="M187.019 27.9732C185.605 27.9732 184.35 27.6714 183.256 27.0678C182.181 26.4453 181.333 25.5871 180.71 24.4931C180.106 23.3991 179.805 22.1354 179.805 20.7018C179.805 19.2495 180.106 17.9668 180.71 16.854C181.314 15.7222 182.162 14.8452 183.256 14.2227C184.35 13.5814 185.614 13.2607 187.048 13.2607C188.425 13.2607 189.632 13.5625 190.669 14.1661C191.726 14.7697 192.537 15.5902 193.102 16.6276C193.687 17.6462 193.98 18.7968 193.98 20.0794C193.98 20.268 193.98 20.4755 193.98 20.7018C193.98 20.9282 193.961 21.1734 193.923 21.4375H182.266V19.2306H190.556C190.499 18.2498 190.141 17.4764 189.481 16.9106C188.821 16.3258 188.01 16.0335 187.048 16.0335C186.35 16.0335 185.699 16.1938 185.096 16.5145C184.511 16.8162 184.039 17.2784 183.681 17.9008C183.322 18.5044 183.143 19.2778 183.143 20.2209V21.0414C183.143 21.909 183.313 22.6541 183.653 23.2765C184.011 23.899 184.482 24.3705 185.067 24.6912C185.652 25.0118 186.303 25.1722 187.019 25.1722C187.793 25.1722 188.444 25.0024 188.972 24.6629C189.5 24.3045 189.886 23.8329 190.132 23.2482H193.583C193.338 24.1536 192.904 24.9647 192.282 25.6814C191.678 26.3793 190.933 26.9358 190.047 27.3507C189.16 27.7657 188.151 27.9732 187.019 27.9732Z" fill="#F04C23"/>
<path d="M170.025 27.6335L164.848 13.6001H168.384L172.091 24.4081L175.769 13.6001H179.305L174.1 27.6335H170.025Z" fill="#F04C23"/>
<path d="M159.277 27.6337V13.6003H162.673V27.6337H159.277ZM159.277 11.1954V7.71533H162.701V11.1954H159.277Z" fill="#F04C23"/>
<path d="M140.836 27.5205V7.71533H149.013C150.578 7.71533 151.87 7.9794 152.889 8.50754C153.926 9.03568 154.69 9.76187 155.181 10.6861C155.69 11.5915 155.944 12.6195 155.944 13.7701C155.944 14.7132 155.737 15.5808 155.322 16.373C154.907 17.1652 154.332 17.8254 153.596 18.3536C154.388 18.8251 154.983 19.4664 155.379 20.2775C155.775 21.0697 155.992 21.9939 156.029 23.0502L156.256 27.5205H152.945L152.662 23.1351C152.625 22.3617 152.483 21.7299 152.238 21.2395C151.993 20.749 151.606 20.3907 151.078 20.1643C150.569 19.9191 149.871 19.7965 148.984 19.7965H144.231V27.5205H140.836ZM144.231 17.0521H148.786C150.088 17.0521 151.031 16.7503 151.616 16.1467C152.2 15.5431 152.493 14.7509 152.493 13.7701C152.493 12.7515 152.2 11.9499 151.616 11.3651C151.031 10.7804 150.078 10.4881 148.758 10.4881H144.231V17.0521Z" fill="#F04C23"/>
<path d="M124.477 27.6337V13.6003H127.872V15.7788C128.343 15.0055 128.975 14.3925 129.767 13.9398C130.578 13.4871 131.503 13.2607 132.54 13.2607C134.275 13.2607 135.624 13.8077 136.586 14.9017C137.548 15.9769 138.029 17.5613 138.029 19.655V27.6337H134.634V19.9945C134.634 18.7307 134.37 17.7782 133.842 17.1369C133.332 16.4767 132.55 16.1466 131.493 16.1466C130.456 16.1466 129.588 16.5145 128.89 17.2501C128.211 17.9857 127.872 19.0325 127.872 20.3906V27.6337H124.477Z" fill="#201D1E"/>
<path d="M115.094 27.9732C113.679 27.9732 112.425 27.6714 111.331 27.0678C110.256 26.4453 109.407 25.5871 108.784 24.4931C108.181 23.3991 107.879 22.1354 107.879 20.7018C107.879 19.2495 108.181 17.9668 108.784 16.854C109.388 15.7222 110.237 14.8452 111.331 14.2227C112.425 13.5814 113.688 13.2607 115.122 13.2607C116.499 13.2607 117.706 13.5625 118.743 14.1661C119.8 14.7697 120.611 15.5902 121.177 16.6276C121.761 17.6462 122.054 18.7968 122.054 20.0794C122.054 20.268 122.054 20.4755 122.054 20.7018C122.054 20.9282 122.035 21.1734 121.997 21.4375H110.34V19.2306H118.63C118.574 18.2498 118.215 17.4764 117.555 16.9106C116.895 16.3258 116.084 16.0335 115.122 16.0335C114.424 16.0335 113.773 16.1938 113.17 16.5145C112.585 16.8162 112.113 17.2784 111.755 17.9008C111.397 18.5044 111.217 19.2778 111.217 20.2209V21.0414C111.217 21.909 111.387 22.6541 111.727 23.2765C112.085 23.899 112.557 24.3705 113.141 24.6912C113.726 25.0118 114.377 25.1722 115.094 25.1722C115.867 25.1722 116.518 25.0024 117.046 24.6629C117.574 24.3045 117.961 23.8329 118.206 23.2482H121.658C121.412 24.1536 120.979 24.9647 120.356 25.6814C119.753 26.3793 119.008 26.9358 118.121 27.3507C117.235 27.7657 116.225 27.9732 115.094 27.9732Z" fill="#201D1E"/>
<path d="M98.1418 34.1977C96.9346 34.1977 95.7934 33.9996 94.7183 33.6035C93.6432 33.2074 92.7378 32.5944 92.0022 31.7645C91.2665 30.9345 90.8139 29.8782 90.6441 28.5956H94.011C94.2185 29.4067 94.69 30.048 95.4256 30.5196C96.1613 31.01 97.0478 31.2552 98.0852 31.2552C98.8208 31.2552 99.4999 31.0949 100.122 30.7742C100.764 30.4724 101.263 30.0009 101.622 29.3595C101.999 28.7182 102.188 27.9072 102.188 26.9263V25.1156C101.905 25.5871 101.537 26.021 101.084 26.4171C100.632 26.8132 100.085 27.1338 99.4433 27.379C98.802 27.6242 98.0663 27.7468 97.2364 27.7468C95.9161 27.7468 94.7183 27.4356 93.6432 26.8132C92.5869 26.1718 91.7475 25.3042 91.1251 24.2102C90.5026 23.0973 90.1914 21.8524 90.1914 20.4755C90.1914 19.1174 90.5026 17.8914 91.1251 16.7974C91.7475 15.7034 92.5869 14.8452 93.6432 14.2227C94.7183 13.5814 95.9255 13.2607 97.2647 13.2607C98.3776 13.2607 99.3584 13.4965 100.207 13.9681C101.056 14.4208 101.716 14.9961 102.188 15.694V13.6003H105.583V26.7849C105.583 28.3881 105.243 29.7368 104.564 30.8308C103.904 31.9436 103.008 32.783 101.876 33.3489C100.764 33.9147 99.5187 34.1977 98.1418 34.1977ZM97.9154 24.8043C98.7454 24.8043 99.4716 24.6157 100.094 24.2385C100.735 23.8612 101.235 23.352 101.594 22.7107C101.971 22.0505 102.159 21.3149 102.159 20.5038C102.159 19.6739 101.971 18.9382 101.594 18.2969C101.235 17.6556 100.735 17.1558 100.094 16.7974C99.4716 16.4201 98.7454 16.2315 97.9154 16.2315C97.0855 16.2315 96.3499 16.4201 95.7086 16.7974C95.0673 17.1558 94.5674 17.6556 94.209 18.2969C93.8507 18.9194 93.6715 19.6456 93.6715 20.4755C93.6715 21.3054 93.8507 22.0505 94.209 22.7107C94.5674 23.352 95.0673 23.8612 95.7086 24.2385C96.3499 24.6157 97.0855 24.8043 97.9154 24.8043Z" fill="#201D1E"/>
<path d="M71.0273 27.6333L78.2704 7.82812H82.0617L89.3047 27.6333H85.7115L79.4304 9.72377H80.8734L74.5923 27.6333H71.0273ZM74.3659 22.965L75.2996 20.2771H85.0324L85.9661 22.965H74.3659Z" fill="#201D1E"/>
<g opacity="0.64">
<path d="M200.09 44.7608V39.5337H201.249V40.3662C201.425 40.0712 201.664 39.8393 201.966 39.6707C202.268 39.495 202.612 39.4072 202.998 39.4072C203.638 39.4072 204.137 39.6075 204.495 40.0079C204.853 40.4014 205.032 40.988 205.032 41.7679V44.7608H203.873V41.8838C203.873 41.392 203.771 41.0231 203.568 40.7772C203.371 40.5243 203.069 40.3978 202.661 40.3978C202.254 40.3978 201.917 40.5419 201.65 40.8299C201.383 41.118 201.249 41.529 201.249 42.0629V44.7608H200.09Z" fill="#201D1E"/>
<path d="M195.051 44.8873C194.531 44.8873 194.064 44.7749 193.65 44.55C193.235 44.3182 192.905 43.995 192.659 43.5805C192.42 43.166 192.301 42.6882 192.301 42.1472C192.301 41.5992 192.42 41.1215 192.659 40.714C192.905 40.2995 193.235 39.9798 193.65 39.755C194.071 39.5232 194.538 39.4072 195.051 39.4072C195.578 39.4072 196.045 39.5232 196.453 39.755C196.867 39.9798 197.194 40.2995 197.433 40.714C197.679 41.1215 197.802 41.5992 197.802 42.1472C197.802 42.6882 197.679 43.166 197.433 43.5805C197.194 43.995 196.867 44.3182 196.453 44.55C196.038 44.7749 195.571 44.8873 195.051 44.8873ZM195.041 43.8861C195.329 43.8861 195.589 43.8229 195.821 43.6964C196.06 43.5629 196.249 43.3697 196.39 43.1168C196.53 42.8568 196.601 42.5337 196.601 42.1472C196.601 41.7608 196.53 41.4412 196.39 41.1882C196.249 40.9283 196.06 40.7351 195.821 40.6086C195.589 40.4751 195.336 40.4084 195.062 40.4084C194.781 40.4084 194.521 40.4751 194.282 40.6086C194.043 40.7351 193.853 40.9283 193.713 41.1882C193.572 41.4412 193.502 41.7608 193.502 42.1472C193.502 42.5337 193.572 42.8568 193.713 43.1168C193.853 43.3697 194.04 43.5629 194.271 43.6964C194.51 43.8229 194.767 43.8861 195.041 43.8861Z" fill="#201D1E"/>
<path d="M188.844 44.7606V39.5335H190.003V44.7606H188.844ZM188.812 38.6061V37.3521H190.046V38.6061H188.812Z" fill="#201D1E"/>
<path d="M185.56 44.7608C185.237 44.7608 184.963 44.7222 184.738 44.6449C184.513 44.5676 184.345 44.4201 184.232 44.2023C184.12 43.9845 184.064 43.6683 184.064 43.2538V40.5138H183.168V39.5337H184.064V38.1953H185.223V39.5337H186.625V40.5138H185.223V43.0957C185.223 43.2995 185.241 43.4505 185.276 43.5489C185.318 43.6402 185.388 43.6999 185.486 43.728C185.592 43.7561 185.743 43.7702 185.94 43.7702H186.572V44.7608H185.56Z" fill="#201D1E"/>
<path d="M178.194 44.8873C177.786 44.8873 177.439 44.817 177.151 44.6765C176.869 44.529 176.655 44.3358 176.508 44.0969C176.367 43.858 176.297 43.5981 176.297 43.317C176.297 42.762 176.497 42.3334 176.898 42.0313C177.298 41.7292 177.825 41.5782 178.478 41.5782C178.773 41.5782 179.037 41.6028 179.269 41.6519C179.501 41.6941 179.69 41.7398 179.838 41.7889V41.5466C179.838 41.1391 179.725 40.837 179.501 40.6402C179.283 40.4435 178.991 40.3452 178.626 40.3452C178.352 40.3452 178.11 40.4014 177.899 40.5138C177.688 40.6262 177.554 40.8229 177.498 41.1039H176.381C176.423 40.7245 176.55 40.4119 176.761 40.166C176.978 39.9131 177.249 39.7234 177.572 39.5969C177.895 39.4705 178.247 39.4072 178.626 39.4072C179.385 39.4072 179.968 39.5969 180.375 39.9763C180.79 40.3557 180.997 40.8791 180.997 41.5466V42.9166C180.997 43.1835 181.011 43.3767 181.039 43.4962C181.074 43.6156 181.127 43.6929 181.197 43.728C181.275 43.7561 181.376 43.7702 181.503 43.7702H181.556V44.7608H181.303C180.951 44.7608 180.656 44.7081 180.417 44.6027C180.186 44.4973 180.024 44.2866 179.933 43.9704C179.764 44.2304 179.536 44.4482 179.248 44.6238C178.96 44.7994 178.608 44.8873 178.194 44.8873ZM178.426 43.981C178.693 43.981 178.921 43.9177 179.111 43.7913C179.3 43.6578 179.451 43.4856 179.564 43.2749C179.683 43.0571 179.757 42.8252 179.785 42.5793C179.631 42.5372 179.448 42.495 179.237 42.4529C179.026 42.4107 178.812 42.3896 178.594 42.3896C178.222 42.3896 177.941 42.4669 177.751 42.6215C177.561 42.776 177.467 42.9798 177.467 43.2327C177.467 43.4505 177.551 43.6297 177.72 43.7702C177.888 43.9107 178.124 43.981 178.426 43.981Z" fill="#201D1E"/>
<path d="M171.082 44.8871C170.583 44.8871 170.137 44.7676 169.744 44.5288C169.357 44.2899 169.052 43.9632 168.827 43.5487C168.609 43.1271 168.5 42.6564 168.5 42.1365C168.5 41.6096 168.609 41.1424 168.827 40.7349C169.052 40.3204 169.357 39.9972 169.744 39.7653C170.137 39.5265 170.587 39.407 171.092 39.407C171.5 39.407 171.858 39.4878 172.167 39.6494C172.477 39.811 172.719 40.0323 172.895 40.3133V37.1729H174.054V44.7606H172.895V43.9597C172.733 44.1985 172.505 44.4128 172.21 44.6025C171.914 44.7922 171.539 44.8871 171.082 44.8871ZM171.293 43.8754C171.609 43.8754 171.886 43.8016 172.125 43.6541C172.371 43.5065 172.561 43.3028 172.694 43.0428C172.835 42.7829 172.905 42.4843 172.905 42.147C172.905 41.8028 172.835 41.5007 172.694 41.2407C172.561 40.9808 172.371 40.7805 172.125 40.64C171.886 40.4925 171.609 40.4187 171.293 40.4187C170.984 40.4187 170.706 40.4925 170.46 40.64C170.221 40.7805 170.032 40.9808 169.891 41.2407C169.751 41.5007 169.68 41.7993 169.68 42.1365C169.68 42.4808 169.751 42.7829 169.891 43.0428C170.032 43.3028 170.221 43.5065 170.46 43.6541C170.706 43.8016 170.984 43.8754 171.293 43.8754Z" fill="#201D1E"/>
<path d="M161.277 44.7608V39.5337H162.437V40.3662C162.612 40.0712 162.851 39.8393 163.153 39.6707C163.455 39.495 163.8 39.4072 164.186 39.4072C164.825 39.4072 165.324 39.6075 165.682 40.0079C166.041 40.4014 166.22 40.988 166.22 41.7679V44.7608H165.061V41.8838C165.061 41.392 164.959 41.0231 164.755 40.7772C164.558 40.5243 164.256 40.3978 163.849 40.3978C163.441 40.3978 163.104 40.5419 162.837 40.8299C162.57 41.118 162.437 41.529 162.437 42.0629V44.7608H161.277Z" fill="#201D1E"/>
<path d="M155.975 44.8868C155.392 44.8868 154.925 44.6901 154.574 44.2966C154.223 43.8962 154.047 43.306 154.047 42.5261V39.5332H155.206V42.4102C155.206 42.902 155.301 43.2744 155.491 43.5273C155.687 43.7732 155.961 43.8962 156.313 43.8962C156.72 43.8962 157.04 43.7521 157.272 43.4641C157.504 43.176 157.619 42.765 157.619 42.2311V39.5332H158.779V44.7603H157.619V43.9489C157.465 44.2439 157.247 44.4758 156.966 44.6444C156.692 44.806 156.362 44.8868 155.975 44.8868Z" fill="#201D1E"/>
<path d="M149.09 44.8873C148.571 44.8873 148.103 44.7749 147.689 44.55C147.274 44.3182 146.944 43.995 146.698 43.5805C146.459 43.166 146.34 42.6882 146.34 42.1472C146.34 41.5992 146.459 41.1215 146.698 40.714C146.944 40.2995 147.274 39.9798 147.689 39.755C148.11 39.5232 148.578 39.4072 149.09 39.4072C149.617 39.4072 150.085 39.5232 150.492 39.755C150.907 39.9798 151.233 40.2995 151.472 40.714C151.718 41.1215 151.841 41.5992 151.841 42.1472C151.841 42.6882 151.718 43.166 151.472 43.5805C151.233 43.995 150.907 44.3182 150.492 44.55C150.078 44.7749 149.61 44.8873 149.09 44.8873ZM149.08 43.8861C149.368 43.8861 149.628 43.8229 149.86 43.6964C150.099 43.5629 150.288 43.3697 150.429 43.1168C150.569 42.8568 150.64 42.5337 150.64 42.1472C150.64 41.7608 150.569 41.4412 150.429 41.1882C150.288 40.9283 150.099 40.7351 149.86 40.6086C149.628 40.4751 149.375 40.4084 149.101 40.4084C148.82 40.4084 148.56 40.4751 148.321 40.6086C148.082 40.7351 147.893 40.9283 147.752 41.1882C147.611 41.4412 147.541 41.7608 147.541 42.1472C147.541 42.5337 147.611 42.8568 147.752 43.1168C147.893 43.3697 148.079 43.5629 148.311 43.6964C148.549 43.8229 148.806 43.8861 149.08 43.8861Z" fill="#201D1E"/>
<path d="M140.285 44.7603V37.3833H144.943V38.3212H141.444V40.5976H144.342V41.5249H141.444V44.7603H140.285Z" fill="#201D1E"/>
<path d="M130.546 44.8873C130.026 44.8873 129.566 44.7749 129.166 44.55C128.772 44.3182 128.46 43.9985 128.228 43.591C128.003 43.1835 127.891 42.7093 127.891 42.1683C127.891 41.6273 128.003 41.1496 128.228 40.7351C128.453 40.3135 128.765 39.9868 129.166 39.755C129.566 39.5232 130.03 39.4072 130.557 39.4072C131.07 39.4072 131.516 39.5196 131.895 39.7445C132.282 39.9693 132.58 40.2714 132.791 40.6508C133.002 41.0302 133.107 41.4552 133.107 41.9259C133.107 41.9962 133.107 42.0735 133.107 42.1578C133.107 42.2351 133.1 42.3229 133.086 42.4212H128.744V41.6414H131.948C131.927 41.248 131.783 40.9353 131.516 40.7035C131.256 40.4716 130.936 40.3557 130.557 40.3557C130.283 40.3557 130.03 40.4189 129.798 40.5454C129.566 40.6648 129.38 40.844 129.24 41.0829C129.099 41.3147 129.029 41.6133 129.029 41.9786V42.2737C129.029 42.625 129.099 42.9271 129.24 43.18C129.38 43.4259 129.563 43.6121 129.788 43.7386C130.019 43.865 130.272 43.9283 130.546 43.9283C130.855 43.9283 131.115 43.858 131.326 43.7175C131.537 43.577 131.692 43.3873 131.79 43.1484H132.96C132.868 43.4786 132.71 43.7772 132.485 44.0442C132.268 44.3041 131.994 44.5114 131.663 44.666C131.34 44.8135 130.968 44.8873 130.546 44.8873Z" fill="#201D1E"/>
<path d="M124.434 44.7606V37.1729H125.593V44.7606H124.434Z" fill="#201D1E"/>
<path d="M119.57 44.8871C119.162 44.8871 118.804 44.8063 118.495 44.6447C118.185 44.4831 117.94 44.2618 117.757 43.9807V44.7606H116.598V37.1729H117.757V40.3344C117.926 40.0885 118.157 39.8742 118.452 39.6916C118.748 39.5019 119.12 39.407 119.57 39.407C120.075 39.407 120.522 39.5265 120.908 39.7653C121.294 40.0042 121.596 40.3309 121.814 40.7454C122.039 41.1599 122.151 41.6307 122.151 42.1576C122.151 42.6775 122.039 43.1447 121.814 43.5592C121.596 43.9737 121.294 44.3004 120.908 44.5393C120.522 44.7711 120.075 44.8871 119.57 44.8871ZM119.359 43.8754C119.675 43.8754 119.952 43.8016 120.191 43.6541C120.437 43.5065 120.627 43.3063 120.76 43.0534C120.901 42.7934 120.971 42.4948 120.971 42.1576C120.971 41.8133 120.901 41.5112 120.76 41.2513C120.627 40.9843 120.437 40.7805 120.191 40.64C119.952 40.4925 119.675 40.4187 119.359 40.4187C119.043 40.4187 118.762 40.4925 118.516 40.64C118.277 40.7805 118.087 40.9808 117.947 41.2407C117.813 41.5007 117.746 41.8028 117.746 42.147C117.746 42.4913 117.813 42.7934 117.947 43.0534C118.087 43.3063 118.277 43.5065 118.516 43.6541C118.762 43.8016 119.043 43.8754 119.359 43.8754Z" fill="#201D1E"/>
<path d="M111.014 44.8873C110.607 44.8873 110.259 44.817 109.971 44.6765C109.69 44.529 109.475 44.3358 109.328 44.0969C109.187 43.858 109.117 43.5981 109.117 43.317C109.117 42.762 109.317 42.3334 109.718 42.0313C110.118 41.7292 110.645 41.5782 111.299 41.5782C111.594 41.5782 111.857 41.6028 112.089 41.6519C112.321 41.6941 112.511 41.7398 112.658 41.7889V41.5466C112.658 41.1391 112.546 40.837 112.321 40.6402C112.103 40.4435 111.812 40.3452 111.446 40.3452C111.172 40.3452 110.93 40.4014 110.719 40.5138C110.508 40.6262 110.375 40.8229 110.319 41.1039H109.201C109.244 40.7245 109.37 40.4119 109.581 40.166C109.799 39.9131 110.069 39.7234 110.392 39.5969C110.716 39.4705 111.067 39.4072 111.446 39.4072C112.205 39.4072 112.788 39.5969 113.196 39.9763C113.61 40.3557 113.817 40.8791 113.817 41.5466V42.9166C113.817 43.1835 113.831 43.3767 113.86 43.4962C113.895 43.6156 113.947 43.6929 114.018 43.728C114.095 43.7561 114.197 43.7702 114.323 43.7702H114.376V44.7608H114.123C113.772 44.7608 113.477 44.7081 113.238 44.6027C113.006 44.4973 112.844 44.2866 112.753 43.9704C112.584 44.2304 112.356 44.4482 112.068 44.6238C111.78 44.7994 111.429 44.8873 111.014 44.8873ZM111.246 43.981C111.513 43.981 111.741 43.9177 111.931 43.7913C112.121 43.6578 112.272 43.4856 112.384 43.2749C112.504 43.0571 112.577 42.8252 112.605 42.5793C112.451 42.5372 112.268 42.495 112.057 42.4529C111.847 42.4107 111.632 42.3896 111.415 42.3896C111.042 42.3896 110.761 42.4669 110.572 42.6215C110.382 42.776 110.287 42.9798 110.287 43.2327C110.287 43.4505 110.371 43.6297 110.54 43.7702C110.709 43.9107 110.944 43.981 111.246 43.981Z" fill="#201D1E"/>
<path d="M106.17 44.7608C105.846 44.7608 105.572 44.7222 105.348 44.6449C105.123 44.5676 104.954 44.4201 104.842 44.2023C104.729 43.9845 104.673 43.6683 104.673 43.2538V40.5138H103.777V39.5337H104.673V38.1953H105.832V39.5337H107.234V40.5138H105.832V43.0957C105.832 43.2995 105.85 43.4505 105.885 43.5489C105.927 43.6402 105.997 43.6999 106.096 43.728C106.201 43.7561 106.352 43.7702 106.549 43.7702H107.181V44.7608H106.17Z" fill="#201D1E"/>
<path d="M100.52 44.7606V39.5335H101.679V44.7606H100.52ZM100.488 38.6061V37.3521H101.721V38.6061H100.488Z" fill="#201D1E"/>
<path d="M95.0234 44.7605V39.5334H96.1827V40.3448C96.3091 40.0779 96.4778 39.8706 96.6885 39.7231C96.8993 39.5685 97.1452 39.4912 97.4262 39.4912H98.1534V40.5345H97.3103C97.0714 40.5345 96.8677 40.6013 96.6991 40.7348C96.5304 40.8612 96.4005 41.0615 96.3091 41.3355C96.2248 41.6095 96.1827 41.9572 96.1827 42.3788V44.7605H95.0234Z" fill="#201D1E"/>
<path d="M89.3266 44.8873C88.9191 44.8873 88.5714 44.817 88.2833 44.6765C88.0023 44.529 87.788 44.3358 87.6405 44.0969C87.4999 43.858 87.4297 43.5981 87.4297 43.317C87.4297 42.762 87.6299 42.3334 88.0304 42.0313C88.4308 41.7292 88.9578 41.5782 89.6112 41.5782C89.9062 41.5782 90.1697 41.6028 90.4016 41.6519C90.6334 41.6941 90.8231 41.7398 90.9706 41.7889V41.5466C90.9706 41.1391 90.8582 40.837 90.6334 40.6402C90.4156 40.4435 90.124 40.3452 89.7587 40.3452C89.4847 40.3452 89.2423 40.4014 89.0315 40.5138C88.8208 40.6262 88.6873 40.8229 88.6311 41.1039H87.514C87.5562 40.7245 87.6826 40.4119 87.8934 40.166C88.1112 39.9131 88.3817 39.7234 88.7049 39.5969C89.028 39.4705 89.3793 39.4072 89.7587 39.4072C90.5175 39.4072 91.1006 39.5969 91.5081 39.9763C91.9226 40.3557 92.1299 40.8791 92.1299 41.5466V42.9166C92.1299 43.1835 92.1439 43.3767 92.172 43.4962C92.2072 43.6156 92.2599 43.6929 92.3301 43.728C92.4074 43.7561 92.5093 43.7702 92.6357 43.7702H92.6884V44.7608H92.4355C92.0842 44.7608 91.7891 44.7081 91.5503 44.6027C91.3184 44.4973 91.1568 44.2866 91.0655 43.9704C90.8969 44.2304 90.6685 44.4482 90.3805 44.6238C90.0924 44.7994 89.7411 44.8873 89.3266 44.8873ZM89.5585 43.981C89.8254 43.981 90.0538 43.9177 90.2435 43.7913C90.4332 43.6578 90.5842 43.4856 90.6966 43.2749C90.8161 43.0571 90.8898 42.8252 90.9179 42.5793C90.7634 42.5372 90.5807 42.495 90.3699 42.4529C90.1592 42.4107 89.9449 42.3896 89.7271 42.3896C89.3547 42.3896 89.0737 42.4669 88.884 42.6215C88.6943 42.776 88.5995 42.9798 88.5995 43.2327C88.5995 43.4505 88.6838 43.6297 88.8524 43.7702C89.021 43.9107 89.2564 43.981 89.5585 43.981Z" fill="#201D1E"/>
<path d="M80.1016 44.7606V37.1729H81.2608V40.366C81.4364 40.0709 81.6788 39.8391 81.988 39.6705C82.3041 39.4948 82.6519 39.407 83.0313 39.407C83.6566 39.407 84.1484 39.6073 84.5067 40.0077C84.872 40.4012 85.0547 40.9878 85.0547 41.7677V44.7606H83.906V41.8836C83.906 41.3918 83.8076 41.0229 83.6109 40.777C83.4142 40.5241 83.1121 40.3976 82.7046 40.3976C82.2901 40.3976 81.9458 40.5417 81.6718 40.8297C81.3978 41.1178 81.2608 41.5288 81.2608 42.0627V44.7606H80.1016Z" fill="#201D1E"/>
<path d="M74.5788 44.8872C73.8482 44.8872 73.2158 44.7291 72.6819 44.413C72.1479 44.0898 71.7369 43.6437 71.4489 43.0746C71.1679 42.4985 71.0273 41.8346 71.0273 41.0828C71.0273 40.324 71.1679 39.6601 71.4489 39.091C71.7369 38.5149 72.1479 38.0653 72.6819 37.7421C73.2158 37.4189 73.8482 37.2573 74.5788 37.2573C75.45 37.2573 76.1596 37.4716 76.7076 37.9002C77.2556 38.3217 77.6034 38.9154 77.7509 39.6812H76.4652C76.3739 39.2526 76.1666 38.9154 75.8435 38.6695C75.5273 38.4236 75.1022 38.3006 74.5683 38.3006C74.0835 38.3006 73.6655 38.4131 73.3142 38.6379C72.9629 38.8557 72.6889 39.1753 72.4922 39.5969C72.3025 40.0114 72.2077 40.5067 72.2077 41.0828C72.2077 41.6589 72.3025 42.1542 72.4922 42.5687C72.6889 42.9762 72.9629 43.2924 73.3142 43.5172C73.6655 43.742 74.0835 43.8544 74.5683 43.8544C75.1022 43.8544 75.5273 43.735 75.8435 43.4961C76.1596 43.2573 76.3704 42.9165 76.4758 42.4739H77.7615C77.6139 43.2397 77.2626 43.8334 76.7076 44.2549C76.1596 44.6765 75.45 44.8872 74.5788 44.8872Z" fill="#201D1E"/>
</g>
<path d="M35.4177 24.7309L30.3916 29.757L33.766 33.1315L38.95 27.9475C39.668 27.2295 40.8358 27.2295 41.5538 27.9475L48.8103 35.204C49.5283 35.922 49.5283 37.0898 48.8103 37.8078L40.2519 46.3662L18.614 24.7282C15.9444 22.0587 11.6126 22.0587 8.94304 24.7282L2.00217 31.6691C-0.667391 34.3387 -0.667391 38.6705 2.00217 41.34L12.6594 51.9972H32.088L27.3144 47.2236H14.6346L5.2188 37.8078C4.50078 37.0898 4.50078 35.922 5.2188 35.204L12.4753 27.9475C13.1933 27.2295 14.3611 27.2295 15.0791 27.9475L39.1315 51.9999H41.3723L52.0295 41.3427C54.6991 38.6731 54.6991 34.3413 52.0295 31.6717L45.0887 24.7309C42.4191 22.0613 38.0873 22.0613 35.4177 24.7309Z" fill="#201D1E"/>
<path d="M14.9632 0H12.8854C8.43791 0 4.83203 3.60588 4.83203 8.0534V10.1312C4.83203 14.5787 8.43791 18.1846 12.8854 18.1846H14.9632C19.4107 18.1846 23.0166 14.5787 23.0166 10.1312V8.0534C23.0166 3.60588 19.4107 0 14.9632 0ZM18.3482 9.99968C18.3482 11.9407 16.7727 13.5161 14.8317 13.5161H13.0169C11.0759 13.5161 9.50048 11.9407 9.50048 9.99968V8.18491C9.50048 6.24389 11.0759 4.66845 13.0169 4.66845H14.8317C16.7727 4.66845 18.3482 6.24389 18.3482 8.18491V9.99968Z" fill="#F04C23"/>
<path d="M41.4046 0H39.3268C34.8793 0 31.2734 3.60588 31.2734 8.0534V10.1312C31.2734 14.5787 34.8793 18.1846 39.3268 18.1846H41.4046C45.8521 18.1846 49.458 14.5787 49.458 10.1312V8.0534C49.458 3.60588 45.8521 0 41.4046 0ZM44.7896 9.99968C44.7896 11.9407 43.2141 13.5161 41.2731 13.5161H39.4583C37.5173 13.5161 35.9419 11.9407 35.9419 9.99968V8.18491C35.9419 6.24389 37.5173 4.66845 39.4583 4.66845H41.2731C43.2141 4.66845 44.7896 6.24389 44.7896 8.18491V9.99968Z" fill="#FDCD0B"/>
</svg>
