<svg width="248" height="48" viewBox="0 0 248 48" fill="none" xmlns="http://www.w3.org/2000/svg">
<path d="M149.07 30.0074C149.55 29.8717 150.025 29.7078 150.483 29.5268C155.821 27.3952 159.609 22.2102 159.683 16.1319C159.773 8.00681 152.881 1.35742 144.756 1.35742H128.867V8.76447H144.987C147.775 8.76447 150.421 10.2742 151.614 12.7959C151.835 13.2652 152.01 13.7572 152.129 14.2774C152.383 15.3686 152.4 16.5504 152.083 17.7773C151.331 20.6949 148.798 22.9057 145.802 23.228C144.241 23.3976 142.765 23.0753 141.516 22.4025C140.888 22.0632 140.34 21.6109 139.836 21.1077L139.311 20.5818C139.034 20.2482 138.79 19.8864 138.581 19.5075L143.811 14.2774H128.878V29.2102L133.261 24.8282L137.767 29.3346L148.798 40.9314H159.671L149.081 30.0018L149.07 30.0074Z" fill="#C4EF17"/>
<path d="M13.1574 1.43945H22.4077L35.4634 37.4174H27.1912L24.415 29.5523H10.7431L7.96682 37.4174H0L13.1574 1.43945ZM22.306 23.3383L17.5281 9.66637L12.8012 23.3383H22.3116H22.306Z" fill="white"/>
<path d="M63.3832 36.646C63.3832 40.1064 62.2354 42.8657 59.9397 44.9182C57.6441 46.9763 54.0819 47.9997 49.2476 47.9997C45.5158 47.9997 42.4964 47.1798 40.2008 45.5345C37.9052 43.8891 36.6726 41.5595 36.5029 38.5458H43.8025C44.1475 39.8124 44.8203 40.7906 45.8324 41.4747C46.8445 42.1589 48.1733 42.5038 49.813 42.5038C51.8711 42.5038 53.46 41.9893 54.5908 40.9602C55.7217 39.9311 56.2871 38.4101 56.2871 36.3859V33.6097C54.3703 36.041 51.645 37.2567 48.1167 37.2567C45.7872 37.2567 43.6951 36.7082 41.8462 35.6113C39.9972 34.5144 38.5498 32.9651 37.5037 30.9578C36.4577 28.9506 35.9375 26.6154 35.9375 23.9409C35.9375 21.2665 36.4577 18.9709 37.5037 16.9523C38.5498 14.9337 40.0029 13.3732 41.8744 12.2762C43.7403 11.1793 45.8381 10.6309 48.1676 10.6309C51.628 10.6309 54.3703 11.9653 56.3889 14.6397L57.0052 10.9927H63.3775V36.6404L63.3832 36.646ZM56.2362 24.054C56.2362 21.8262 55.6538 20.0112 54.4891 18.609C53.3243 17.2067 51.7637 16.5 49.813 16.5C47.8623 16.5 46.2904 17.1954 45.1087 18.5807C43.9269 19.966 43.3332 21.7754 43.3332 24.0031C43.3332 26.2309 43.9269 28.0289 45.1087 29.3973C46.2904 30.7656 47.8566 31.4554 49.813 31.4554C51.7694 31.4554 53.3243 30.7713 54.4891 29.3973C55.6538 28.0289 56.2362 26.2422 56.2362 24.054Z" fill="white"/>
<path d="M73.7312 12.3594C75.7328 11.2455 78.0567 10.6914 80.6972 10.6914C83.3377 10.6914 85.7238 11.2116 87.765 12.2576C89.8062 13.3037 91.395 14.7738 92.5428 16.6792C93.6906 18.5847 94.2843 20.8181 94.3183 23.3852C94.3183 24.3125 94.2504 25.1323 94.1147 25.8504H74.9468V26.054C75.1165 27.9708 75.7328 29.4804 76.7958 30.5774C77.8588 31.6743 79.3119 32.2227 81.1665 32.2227C82.6423 32.2227 83.8636 31.9061 84.8418 31.2728C85.8199 30.6396 86.4589 29.7066 86.7699 28.474H93.9112C93.6398 30.2211 92.9669 31.7987 91.9096 33.2009C90.8522 34.6032 89.4443 35.7114 87.6972 36.5143C85.95 37.3172 83.9427 37.7243 81.6867 37.7243C78.7408 37.7243 76.1964 37.1759 74.0535 36.0789C71.9105 34.982 70.2651 33.4158 69.1173 31.3746C67.9695 29.3334 67.3984 26.9643 67.3984 24.2559C67.3984 21.5475 67.9526 19.1219 69.0664 17.0863C70.1803 15.0452 71.7409 13.4733 73.7425 12.3594H73.7312ZM85.0906 17.3973C84.0106 16.5209 82.6479 16.0855 81.0025 16.0855C79.3571 16.0855 78.0963 16.5379 77.022 17.4482C75.9476 18.3586 75.3031 19.5799 75.0939 21.1235H87.0695C86.8321 19.512 86.1705 18.2737 85.0906 17.3973Z" fill="white"/>
<path d="M124.021 23.0742V37.4133H116.772V23.4869C116.772 18.9296 114.991 16.651 111.429 16.651C109.546 16.651 108.087 17.2842 107.058 18.5508C106.029 19.8173 105.514 21.5984 105.514 23.894V37.4133H98.2656V10.9967H104.587L105.254 14.2875C106.182 13.1567 107.295 12.2746 108.596 11.6413C109.896 11.008 111.508 10.6914 113.425 10.6914C116.506 10.6914 119.045 11.6526 121.03 13.5694C123.014 15.4862 124.009 18.6582 124.009 23.0798L124.021 23.0742Z" fill="white"/>
<path d="M170.536 4.05974C170.536 5.22451 170.14 6.2027 169.354 6.98864C168.568 7.77458 167.573 8.17037 166.374 8.17037C165.176 8.17037 164.175 7.77458 163.366 6.98864C162.563 6.2027 162.156 5.22451 162.156 4.05974C162.156 2.89497 162.558 1.92809 163.366 1.15346C164.169 0.384488 165.176 0 166.374 0C167.573 0 168.568 0.384488 169.354 1.15346C170.14 1.92244 170.536 2.89497 170.536 4.05974ZM169.97 10.9975V37.4141H162.722V10.9975H169.97Z" fill="white"/>
<path d="M180.206 10.9961L186.579 30.0113L192.849 10.9961H200.454L190.944 37.4127H181.948L172.438 10.9961H180.201H180.206Z" fill="white"/>
<path d="M207.153 12.3594C209.155 11.2455 211.479 10.6914 214.119 10.6914C216.76 10.6914 219.146 11.2116 221.187 12.2576C223.228 13.3037 224.817 14.7738 225.965 16.6792C227.113 18.5847 227.706 20.8181 227.74 23.3852C227.74 24.3125 227.672 25.1323 227.537 25.8504H208.369V26.054C208.538 27.9708 209.155 29.4804 210.218 30.5774C211.281 31.6743 212.734 32.2227 214.588 32.2227C216.064 32.2227 217.285 31.9061 218.264 31.2728C219.242 30.6396 219.881 29.7066 220.192 28.474H227.333C227.056 30.2211 226.389 31.7987 225.331 33.2009C224.268 34.6032 222.866 35.7114 221.119 36.5143C219.372 37.3172 217.365 37.7243 215.109 37.7243C212.163 37.7243 209.618 37.1759 207.475 36.0789C205.332 34.982 203.687 33.4158 202.539 31.3746C201.391 29.3334 200.82 26.9643 200.82 24.2559C200.82 21.5475 201.38 19.1219 202.488 17.0863C203.602 15.0452 205.163 13.4733 207.164 12.3594H207.153ZM218.512 17.3973C217.432 16.5209 216.07 16.0855 214.424 16.0855C212.779 16.0855 211.518 16.5379 210.444 17.4482C209.364 18.3586 208.725 19.5799 208.516 21.1235H220.491C220.254 19.512 219.592 18.2737 218.512 17.3973Z" fill="white"/>
<path d="M247.789 17.5776H244.911C242.853 17.5776 241.349 18.1939 240.388 19.4266C239.427 20.6592 238.952 22.3385 238.952 24.4645V37.4183H231.703V10.9961H238.279L238.946 14.9541C239.732 13.6536 240.71 12.6697 241.875 11.9969C243.04 11.3297 244.6 10.9961 246.551 10.9961H247.784V17.572L247.789 17.5776Z" fill="white"/>
</svg>
