<svg width="357" height="80" viewBox="0 0 357 80" fill="none" xmlns="http://www.w3.org/2000/svg">
<path d="M335.6 44.1291V57.7007H328.102V22.334H338.394C343.178 22.334 346.726 23.2119 349.037 24.9677C351.366 26.7056 352.53 29.3572 352.53 32.9225C352.53 35.0008 351.957 36.8551 350.81 38.4855C349.682 40.098 348.06 41.37 345.946 42.3017C351.267 50.2386 354.734 55.3716 356.347 57.7007H348.015L339.577 44.1291H335.6ZM335.6 28.4882V38.0287H338.018C340.383 38.0287 342.13 37.6345 343.259 36.8462C344.387 36.0579 344.952 34.8306 344.952 33.1644C344.952 31.4982 344.379 30.3067 343.232 29.5901C342.103 28.8555 340.311 28.4882 337.857 28.4882H335.6Z" fill="white"/>
<path d="M322.852 51.5196V57.7007H302.508V22.334H322.852V28.4882H310.006V36.2549H321.965V42.3823H310.006V51.5196H322.852Z" fill="white"/>
<path d="M285.917 43.3767L292.609 22.334H300.188L288.175 57.7007H279.978L267.992 22.334H275.571L282.209 43.3767C282.531 44.4696 282.899 45.876 283.311 47.5959C283.741 49.3159 284 50.5073 284.09 51.1702C284.287 49.5578 284.896 46.9599 285.917 43.3767Z" fill="white"/>
<path d="M265.67 57.7007H258.172V22.334H265.67V57.7007Z" fill="white"/>
<path d="M235.092 57.7007V44.1291H239.069L247.508 57.7007H255.839C254.226 55.3716 250.76 50.2386 245.438 42.3017C247.552 41.37 249.174 40.098 250.303 38.4855C251.449 36.8551 252.023 35.0008 252.023 32.9225C252.023 29.3572 248.529 24.9677 248.529 24.9677L242.724 29.5901C243.871 30.3067 244.444 31.4982 244.444 33.1644C244.444 34.8306 243.88 36.0579 242.751 36.8462C241.622 37.6345 239.875 38.0287 237.51 38.0287H235.092V22.334H227.594V57.7007H235.092Z" fill="url(#paint0_linear_3_9042)"/>
<path d="M220.8 22.334V57.7007H211.26L195.887 30.9607H195.672C195.977 35.7981 196.129 39.1663 196.129 41.0655V57.7007H189.438V22.334H198.87L214.243 48.8322H214.404C214.171 44.4069 214.054 41.155 214.054 39.0768V22.334H220.8Z" fill="white"/>
<path d="M184.188 51.5196V57.7007H163.844V22.334H184.188V28.4882H171.342V36.2549H183.301V42.3823H171.342V51.5196H184.188Z" fill="white"/>
<path d="M143.504 44.0723V37.8375H157.532V56.1658C153.483 57.5096 149.291 58.1814 144.955 58.1814C139.634 58.1814 135.558 56.6138 132.727 53.4784C129.914 50.3431 128.508 45.8909 128.508 40.1218C128.508 34.3348 130.138 29.8379 133.399 26.6308C136.696 23.4238 141.228 21.8203 146.997 21.8203C150.634 21.8203 154.128 22.5459 157.478 23.9971L155.006 30.017C152.426 28.727 149.739 28.0821 146.944 28.0821C143.719 28.0821 141.121 29.175 139.15 31.3607C137.197 33.5286 136.221 36.4938 136.221 40.2562C136.221 44.0007 137.009 46.8852 138.586 48.9097C140.162 50.9343 142.447 51.9466 145.439 51.9466C146.997 51.9466 148.583 51.7853 150.195 51.4628V44.0723H143.504Z" fill="white"/>
<path d="M128.723 57.6906H120.634L118.081 49.2789H105.181L102.628 57.6906H94.5391L107.009 22.1895H116.173L128.723 57.6906ZM107.063 42.9903H116.28L112.276 30.0637C111.99 29.0962 111.775 28.2989 111.631 27.6718C111.147 29.6068 109.625 34.7129 107.063 42.9903Z" fill="white"/>
<path d="M1.23798 37.0039C1.22926 37.0126 1.21184 37.0126 1.20312 37.0126V37.0213C1.20312 37.03 1.21184 37.03 1.21184 37.03C1.49937 37.091 1.7869 37.152 2.07443 37.2043C1.7869 37.1346 1.5168 37.0649 1.23798 37.0039ZM1.23798 37.0039C1.22926 37.0126 1.21184 37.0126 1.20312 37.0126V37.0213C1.20312 37.03 1.21184 37.03 1.21184 37.03C1.49937 37.091 1.7869 37.152 2.07443 37.2043C1.7869 37.1346 1.5168 37.0649 1.23798 37.0039ZM1.23798 37.0039C1.22926 37.0126 1.21184 37.0126 1.20312 37.0126V37.0213C1.20312 37.03 1.21184 37.03 1.21184 37.03C1.49937 37.091 1.7869 37.152 2.07443 37.2043C1.7869 37.1346 1.5168 37.0649 1.23798 37.0039ZM1.23798 37.0039C1.22926 37.0126 1.21184 37.0126 1.20312 37.0126V37.0213C1.20312 37.03 1.21184 37.03 1.21184 37.03C1.49937 37.091 1.7869 37.152 2.07443 37.2043C1.7869 37.1346 1.5168 37.0649 1.23798 37.0039ZM1.23798 37.0039C1.22926 37.0126 1.21184 37.0126 1.20312 37.0126V37.0213C1.20312 37.03 1.21184 37.03 1.21184 37.03C1.49937 37.091 1.7869 37.152 2.07443 37.2043C1.7869 37.1346 1.5168 37.0649 1.23798 37.0039Z" fill="url(#paint1_linear_3_9042)"/>
<path d="M38.2074 12.433C38.2074 16.2929 37.7979 20.0395 37.0224 23.6032C36.2557 27.1581 35.123 30.5387 33.6941 33.6929C30.5661 35.1131 27.2116 36.2371 23.6915 37.0038C20.093 37.788 16.3203 38.2062 12.4255 38.2062C8.8706 38.2062 5.40281 37.8577 2.08314 37.1955C2.07443 37.1955 2.06572 37.1868 2.06572 37.1868C1.7869 37.1258 1.5168 37.0561 1.23798 36.9951C1.5168 36.9341 1.7869 36.8731 2.06572 36.8034C1.77819 36.8557 1.49066 36.9167 1.20312 36.9777C3.23326 27.646 7.7292 19.508 13.8109 13.6441C19.6661 7.63215 27.7518 3.18849 37.0137 1.17578V1.18449C37.0224 1.20192 37.0224 1.21935 37.0224 1.23677C37.7979 4.82655 38.2074 8.57316 38.2074 12.433Z" fill="url(#paint2_linear_3_9042)"/>
<path d="M2.06662 37.2043C1.77909 37.152 1.49155 37.091 1.20402 37.03C1.20402 37.03 1.19531 37.03 1.19531 37.0213V37.0126C1.20403 37.0126 1.22145 37.0126 1.23017 37.0039C1.5177 37.0736 1.7878 37.1433 2.06662 37.2043Z" fill="url(#paint3_linear_3_9042)"/>
<path d="M37.0121 1.19369C33.4223 0.418226 29.667 0 25.7897 0C18.0874 0 10.8381 1.63805 4.52117 4.51336C1.64586 10.8303 0.0078125 18.0796 0.0078125 25.7819C0.0078125 29.6592 0.426038 33.4232 1.2015 37.0043C1.2015 36.9956 1.21021 36.9956 1.21021 36.9956C3.24035 27.6639 7.73628 19.5259 13.818 13.6621C19.6732 7.65005 27.7589 3.2064 37.0208 1.19369H37.0121Z" fill="#1D2022"/>
<path d="M42.9582 1.22431C42.9495 1.21559 42.9495 1.19817 42.9495 1.18945H42.9408C42.9321 1.18945 42.9321 1.19817 42.9321 1.19817C42.8711 1.4857 42.8101 1.77323 42.7578 2.06076C42.8362 1.78194 42.8972 1.50312 42.9582 1.22431ZM42.9582 1.22431C42.9495 1.21559 42.9495 1.19817 42.9495 1.18945H42.9408C42.9321 1.18945 42.9321 1.19817 42.9321 1.19817C42.8711 1.4857 42.8101 1.77323 42.7578 2.06076C42.8362 1.78194 42.8972 1.50312 42.9582 1.22431ZM42.9582 1.22431C42.9495 1.21559 42.9495 1.19817 42.9495 1.18945H42.9408C42.9321 1.18945 42.9321 1.19817 42.9321 1.19817C42.8711 1.4857 42.8101 1.77323 42.7578 2.06076C42.8362 1.78194 42.8972 1.50312 42.9582 1.22431ZM42.9582 1.22431C42.9495 1.21559 42.9495 1.19817 42.9495 1.18945H42.9408C42.9321 1.18945 42.9321 1.19817 42.9321 1.19817C42.8711 1.4857 42.8101 1.77323 42.7578 2.06076C42.8362 1.78194 42.8972 1.50312 42.9582 1.22431ZM42.9582 1.22431C42.9495 1.21559 42.9495 1.19817 42.9495 1.18945H42.9408C42.9321 1.18945 42.9321 1.19817 42.9321 1.19817C42.8711 1.4857 42.8101 1.77323 42.7578 2.06076C42.8362 1.78194 42.8972 1.50312 42.9582 1.22431Z" fill="url(#paint4_linear_3_9042)"/>
<path d="M67.5562 38.2112C63.6964 38.2112 59.9498 37.8017 56.3774 37.0262C52.8138 36.2595 49.4331 35.1268 46.279 33.6891C44.8588 30.5611 43.7348 27.2066 42.968 23.6778C42.1839 20.0793 41.7656 16.2979 41.7656 12.4119C41.7656 8.84822 42.1141 5.38914 42.7763 2.06947C42.7763 2.06076 42.7851 2.05204 42.7851 2.05204C42.846 1.77323 42.9157 1.50312 42.9767 1.22431C43.0377 1.50312 43.0987 1.77323 43.1684 2.05204C43.1161 1.76451 43.0552 1.47698 42.9942 1.18945C52.3346 3.21959 60.4725 7.72424 66.3364 13.7972C72.3484 19.6611 76.7921 27.7381 78.8048 37.0088H78.7961C78.7786 37.0175 78.7612 37.0175 78.7438 37.0175C75.1627 37.8017 71.4161 38.2112 67.5562 38.2112Z" fill="url(#paint5_linear_3_9042)"/>
<path d="M42.7734 2.05099C42.8257 1.76346 42.8867 1.47593 42.9477 1.1884C42.9477 1.1884 42.9477 1.17969 42.9564 1.17969H42.9651C42.9651 1.1884 42.9651 1.20583 42.9738 1.21454C42.8954 1.50207 42.8344 1.78089 42.7734 2.05099Z" fill="url(#paint6_linear_3_9042)"/>
<path d="M78.8055 37.0217C79.581 33.4407 79.9992 29.6766 79.9992 25.7993C79.9992 18.0883 78.3611 10.839 75.4771 4.52207C69.1514 1.63805 61.9109 0 54.1999 0C50.3226 0 46.5585 0.418226 42.9688 1.19369C42.9775 1.19369 42.9775 1.2024 42.9775 1.2024C52.3178 3.23254 60.4558 7.73718 66.3197 13.8102C72.3317 19.6741 76.7754 27.751 78.7881 37.0217H78.8055Z" fill="#1D2022"/>
<path d="M78.7505 42.9797C78.7592 42.971 78.7767 42.971 78.7854 42.971V42.9623C78.7854 42.9536 78.7767 42.9536 78.7767 42.9536C78.4891 42.8926 78.2016 42.8316 77.9141 42.7793C78.2016 42.8577 78.4804 42.9187 78.7505 42.9797ZM78.7505 42.9797C78.7592 42.971 78.7767 42.971 78.7854 42.971V42.9623C78.7854 42.9536 78.7767 42.9536 78.7767 42.9536C78.4891 42.8926 78.2016 42.8316 77.9141 42.7793C78.2016 42.8577 78.4804 42.9187 78.7505 42.9797ZM78.7505 42.9797C78.7592 42.971 78.7767 42.971 78.7854 42.971V42.9623C78.7854 42.9536 78.7767 42.9536 78.7767 42.9536C78.4891 42.8926 78.2016 42.8316 77.9141 42.7793C78.2016 42.8577 78.4804 42.9187 78.7505 42.9797ZM78.7505 42.9797C78.7592 42.971 78.7767 42.971 78.7854 42.971V42.9623C78.7854 42.9536 78.7767 42.9536 78.7767 42.9536C78.4891 42.8926 78.2016 42.8316 77.9141 42.7793C78.2016 42.8577 78.4804 42.9187 78.7505 42.9797ZM78.7505 42.9797C78.7592 42.971 78.7767 42.971 78.7854 42.971V42.9623C78.7854 42.9536 78.7767 42.9536 78.7767 42.9536C78.4891 42.8926 78.2016 42.8316 77.9141 42.7793C78.2016 42.8577 78.4804 42.9187 78.7505 42.9797Z" fill="white"/>
<path d="M41.7812 67.5544C41.7812 63.6946 42.1908 59.9479 42.9662 56.3843C43.733 52.8294 44.8657 49.4487 46.2946 46.2946C49.4226 44.8744 52.7771 43.7504 56.2972 42.9837C59.8957 42.1995 63.6684 41.7812 67.5631 41.7812C71.1181 41.7812 74.5859 42.1298 77.9055 42.792C77.9142 42.792 77.9229 42.8007 77.9229 42.8007C78.2018 42.8617 78.4719 42.9314 78.7507 42.9924C78.4719 43.0534 78.2018 43.1143 77.9229 43.1841C78.2105 43.1318 78.498 43.0708 78.7855 43.0098C76.7554 52.3415 72.2595 60.4794 66.1778 66.3433C60.3226 72.3553 52.2369 76.799 42.9749 78.8117V78.803C42.9662 78.7855 42.9662 78.7681 42.9662 78.7507C42.1908 75.1696 41.7812 71.4143 41.7812 67.5544Z" fill="url(#paint7_linear_3_9042)"/>
<path d="M77.9219 42.791C78.2094 42.8433 78.4969 42.9043 78.7845 42.9653C78.7845 42.9653 78.7932 42.9653 78.7932 42.974V42.9827C78.7845 42.9827 78.767 42.9827 78.7583 42.9914C78.4795 42.913 78.2007 42.852 77.9219 42.791Z" fill="white"/>
<path d="M42.9775 78.8028C46.5585 79.5783 50.3226 79.9965 54.1999 79.9965C61.9022 79.9965 69.1514 78.3584 75.4684 75.4831C78.3437 69.1662 79.9818 61.9169 79.9818 54.2146C79.9818 50.3373 79.5635 46.5732 78.7881 42.9922C78.7881 43.0009 78.7794 43.0009 78.7794 43.0009C76.7492 52.3326 72.2533 60.4706 66.1716 66.3344C60.3164 72.3464 52.2307 76.7901 42.9688 78.8028H42.9775Z" fill="#1D2022"/>
<path d="M37.0312 78.7564C37.04 78.7651 37.04 78.7825 37.04 78.7912H37.0487C37.0574 78.7912 37.0574 78.7825 37.0574 78.7825C37.1184 78.495 37.1794 78.2075 37.2317 77.9199C37.1619 78.2075 37.0922 78.4863 37.0312 78.7564ZM37.0312 78.7564C37.04 78.7651 37.04 78.7825 37.04 78.7912H37.0487C37.0574 78.7912 37.0574 78.7825 37.0574 78.7825C37.1184 78.495 37.1794 78.2075 37.2317 77.9199C37.1619 78.2075 37.0922 78.4863 37.0312 78.7564ZM37.0312 78.7564C37.04 78.7651 37.04 78.7825 37.04 78.7912H37.0487C37.0574 78.7912 37.0574 78.7825 37.0574 78.7825C37.1184 78.495 37.1794 78.2075 37.2317 77.9199C37.1619 78.2075 37.0922 78.4863 37.0312 78.7564ZM37.0312 78.7564C37.04 78.7651 37.04 78.7825 37.04 78.7912H37.0487C37.0574 78.7912 37.0574 78.7825 37.0574 78.7825C37.1184 78.495 37.1794 78.2075 37.2317 77.9199C37.1619 78.2075 37.0922 78.4863 37.0312 78.7564ZM37.0312 78.7564C37.04 78.7651 37.04 78.7825 37.04 78.7912H37.0487C37.0574 78.7912 37.0574 78.7825 37.0574 78.7825C37.1184 78.495 37.1794 78.2075 37.2317 77.9199C37.1619 78.2075 37.0922 78.4863 37.0312 78.7564Z" fill="url(#paint8_linear_3_9042)"/>
<path d="M12.4439 41.7734C16.3037 41.7734 20.0503 42.183 23.6227 42.9584C27.1863 43.7252 30.567 44.8579 33.7211 46.2955C35.1413 49.4235 36.2653 52.778 37.0321 56.3068C37.8162 59.9053 38.2345 63.6868 38.2345 67.5728C38.2345 71.1364 37.8859 74.5955 37.2237 77.9151C37.2237 77.9239 37.215 77.9326 37.215 77.9326C37.154 78.2114 37.0843 78.4815 37.0233 78.7603C36.9624 78.4815 36.9014 78.2114 36.8317 77.9326C36.8839 78.2201 36.9449 78.5076 37.0059 78.7952C27.6655 76.765 19.5276 72.2604 13.6637 66.1874C7.65168 60.3235 3.20803 52.2465 1.19531 42.9758H1.20402C1.22145 42.9671 1.23888 42.9671 1.2563 42.9671C4.82865 42.183 8.58397 41.7734 12.4439 41.7734Z" fill="url(#paint9_linear_3_9042)"/>
<path d="M37.2238 77.9297C37.1716 78.2172 37.1106 78.5047 37.0496 78.7923C37.0496 78.7923 37.0496 78.801 37.0409 78.801H37.0321C37.0321 78.7923 37.0322 78.7749 37.0234 78.7661C37.0931 78.4873 37.1628 78.2085 37.2238 77.9297Z" fill="url(#paint10_linear_3_9042)"/>
<path d="M1.19369 42.9785C0.418225 46.5596 0 50.3236 0 54.2009C0 61.912 1.63805 69.1612 4.52207 75.4782C10.839 78.3535 18.0883 80.0002 25.7993 80.0002C29.6766 80.0002 33.4407 79.582 37.0304 78.8065C37.0217 78.8065 37.0217 78.7978 37.0217 78.7978C27.6813 76.7677 19.5434 72.2631 13.6795 66.1901C7.66748 60.3262 3.22382 52.2492 1.21111 42.9785H1.19369Z" fill="#1D2022"/>
<defs>
<linearGradient id="paint0_linear_3_9042" x1="227.594" y1="40.0174" x2="255.839" y2="40.0174" gradientUnits="userSpaceOnUse">
<stop stop-color="#4951FE"/>
<stop offset="1" stop-color="#DE3AA8"/>
</linearGradient>
<linearGradient id="paint1_linear_3_9042" x1="1.20313" y1="37.1041" x2="2.07443" y2="37.1041" gradientUnits="userSpaceOnUse">
<stop stop-color="#4951FE"/>
<stop offset="1" stop-color="#DE3AA8"/>
</linearGradient>
<linearGradient id="paint2_linear_3_9042" x1="1.20313" y1="19.691" x2="38.2074" y2="19.691" gradientUnits="userSpaceOnUse">
<stop stop-color="#4951FE"/>
<stop offset="1" stop-color="#DE3AA8"/>
</linearGradient>
<linearGradient id="paint3_linear_3_9042" x1="1.19531" y1="37.1041" x2="2.06662" y2="37.1041" gradientUnits="userSpaceOnUse">
<stop stop-color="#4951FE"/>
<stop offset="1" stop-color="#DE3AA8"/>
</linearGradient>
<linearGradient id="paint4_linear_3_9042" x1="42.7578" y1="1.62511" x2="42.9582" y2="1.62511" gradientUnits="userSpaceOnUse">
<stop stop-color="#4951FE"/>
<stop offset="1" stop-color="#DE3AA8"/>
</linearGradient>
<linearGradient id="paint5_linear_3_9042" x1="41.7656" y1="19.7003" x2="78.8048" y2="19.7003" gradientUnits="userSpaceOnUse">
<stop stop-color="#4951FE"/>
<stop offset="1" stop-color="#DE3AA8"/>
</linearGradient>
<linearGradient id="paint6_linear_3_9042" x1="42.7734" y1="1.61534" x2="42.9738" y2="1.61534" gradientUnits="userSpaceOnUse">
<stop stop-color="#4951FE"/>
<stop offset="1" stop-color="#DE3AA8"/>
</linearGradient>
<linearGradient id="paint7_linear_3_9042" x1="41.7813" y1="60.2965" x2="78.7855" y2="60.2965" gradientUnits="userSpaceOnUse">
<stop stop-color="#4951FE"/>
<stop offset="1" stop-color="#DE3AA8"/>
</linearGradient>
<linearGradient id="paint8_linear_3_9042" x1="37.0313" y1="78.3556" x2="37.2317" y2="78.3556" gradientUnits="userSpaceOnUse">
<stop stop-color="#4951FE"/>
<stop offset="1" stop-color="#DE3AA8"/>
</linearGradient>
<linearGradient id="paint9_linear_3_9042" x1="1.19531" y1="60.2843" x2="38.2345" y2="60.2843" gradientUnits="userSpaceOnUse">
<stop stop-color="#4951FE"/>
<stop offset="1" stop-color="#DE3AA8"/>
</linearGradient>
<linearGradient id="paint10_linear_3_9042" x1="37.0234" y1="78.3653" x2="37.2238" y2="78.3653" gradientUnits="userSpaceOnUse">
<stop stop-color="#4951FE"/>
<stop offset="1" stop-color="#DE3AA8"/>
</linearGradient>
</defs>
</svg>
