<svg width="207" height="40" viewBox="0 0 207 40" fill="none" xmlns="http://www.w3.org/2000/svg">
<path d="M124.225 25.0065C124.625 24.8934 125.021 24.7567 125.403 24.6059C129.851 22.8295 133.008 18.5086 133.069 13.4433C133.144 6.67215 127.4 1.13086 120.629 1.13086H107.389V7.30355H120.823C123.146 7.30355 125.351 8.56165 126.345 10.6632C126.529 11.0543 126.675 11.4642 126.774 11.8977C126.986 12.8071 127 13.7919 126.736 14.8144C126.109 17.2458 123.998 19.0882 121.501 19.3568C120.201 19.4982 118.971 19.2296 117.929 18.6688C117.406 18.3861 116.949 18.0092 116.53 17.5898L116.092 17.1516C115.861 16.8736 115.658 16.572 115.484 16.2563L119.842 11.8977H107.398V24.3421L111.05 20.6903L114.805 24.4457L123.998 34.11H133.06L124.234 25.0017L124.225 25.0065Z" fill="#FDDA24"/>
<path d="M10.9648 1.19678H18.6736L29.5535 31.1791H22.6599L20.3463 24.6247H8.95276L6.63918 31.1791H0L10.9648 1.19678ZM18.5888 19.4463L14.6071 8.05271L10.6679 19.4463H18.5935H18.5888Z" fill="white"/>
<path d="M52.8095 30.5382C52.8095 33.422 51.8529 35.7214 49.9399 37.4318C48.0268 39.147 45.0582 39.9999 41.0295 39.9999C37.9196 39.9999 35.4034 39.3166 33.4903 37.9455C31.5773 36.5743 30.5501 34.6329 30.4087 32.1214H36.4919C36.7793 33.1769 37.34 33.9921 38.1835 34.5623C39.0269 35.1324 40.1342 35.4198 41.5007 35.4198C43.2159 35.4198 44.5399 34.991 45.4823 34.1335C46.4247 33.2759 46.8959 32.0084 46.8959 30.3215V28.0079C45.2986 30.034 43.0274 31.0471 40.0871 31.0471C38.1458 31.0471 36.4023 30.5901 34.8615 29.6759C33.3207 28.7618 32.1144 27.4707 31.2427 25.798C30.371 24.1252 29.9375 22.1792 29.9375 19.9504C29.9375 17.7216 30.371 15.8086 31.2427 14.1264C32.1144 12.4442 33.3254 11.1437 34.8851 10.2296C36.44 9.31546 38.1882 8.8584 40.1295 8.8584C43.0132 8.8584 45.2986 9.97043 46.9807 12.1992L47.4943 9.15997H52.8047V30.5335L52.8095 30.5382ZM46.8535 20.0446C46.8535 18.1881 46.3682 16.6756 45.3975 15.507C44.4268 14.3384 43.1263 13.7494 41.5007 13.7494C39.8751 13.7494 38.5651 14.329 37.5803 15.4834C36.5955 16.6379 36.1008 18.1457 36.1008 20.0022C36.1008 21.8588 36.5955 23.3572 37.5803 24.4975C38.5651 25.6378 39.8704 26.2126 41.5007 26.2126C43.131 26.2126 44.4268 25.6425 45.3975 24.4975C46.3682 23.3572 46.8535 21.8682 46.8535 20.0446Z" fill="white"/>
<path d="M61.4434 10.3002C63.1115 9.37193 65.0481 8.91016 67.2486 8.91016C69.4491 8.91016 71.4376 9.34366 73.1386 10.2154C74.8396 11.0871 76.1637 12.3122 77.1202 13.9001C78.0767 15.4881 78.5715 17.3493 78.5998 19.4886C78.5998 20.2613 78.5432 20.9446 78.4301 21.543H62.4565V21.7126C62.5979 23.31 63.1115 24.5681 63.9973 25.4822C64.8832 26.3963 66.0942 26.8534 67.6397 26.8534C68.8695 26.8534 69.8873 26.5895 70.7025 26.0618C71.5177 25.534 72.0501 24.7565 72.3093 23.7293H78.2605C78.0343 25.1853 77.4736 26.5 76.5925 27.6686C75.7113 28.8371 74.538 29.7607 73.082 30.4298C71.626 31.0989 69.9533 31.4381 68.0732 31.4381C65.6183 31.4381 63.4979 30.9811 61.712 30.067C59.9262 29.1528 58.555 27.8476 57.5985 26.1466C56.6419 24.4456 56.166 22.4712 56.166 20.2142C56.166 17.9572 56.6278 15.9357 57.5561 14.2394C58.4843 12.5384 59.7848 11.2285 61.4529 10.3002H61.4434ZM70.9098 14.4986C70.0098 13.7682 68.8742 13.4054 67.503 13.4054C66.1319 13.4054 65.0811 13.7823 64.1858 14.541C63.2905 15.2996 62.7534 16.3174 62.579 17.6038H72.559C72.3611 16.2608 71.8098 15.2289 70.9098 14.4986Z" fill="white"/>
<path d="M103.352 19.2294V31.179H97.311V19.5734C97.311 15.7755 95.8267 13.8766 92.8582 13.8766C91.2891 13.8766 90.0734 14.4043 89.2158 15.4598C88.3582 16.5153 87.9294 17.9996 87.9294 19.9126V31.179H81.8887V9.1646H87.1567L87.7127 11.907C88.4854 10.9646 89.4137 10.2295 90.4975 9.70177C91.5812 9.17403 92.9241 8.91016 94.5215 8.91016C97.0895 8.91016 99.2052 9.71119 100.859 11.3086C102.513 12.9059 103.342 15.5493 103.342 19.2341L103.352 19.2294Z" fill="white"/>
<path d="M142.12 3.3832C142.12 4.35387 141.79 5.16904 141.135 5.82401C140.48 6.47897 139.651 6.80881 138.652 6.80881C137.653 6.80881 136.819 6.47897 136.145 5.82401C135.476 5.16904 135.137 4.35387 135.137 3.3832C135.137 2.41253 135.471 1.60679 136.145 0.961244C136.814 0.320415 137.653 0 138.652 0C139.651 0 140.48 0.320415 141.135 0.961244C141.79 1.60207 142.12 2.41253 142.12 3.3832ZM141.649 9.1648V31.1792H135.608V9.1648H141.649Z" fill="#FDDA24"/>
<path d="M150.17 9.16504L155.48 25.0114L160.706 9.16504H167.043L159.118 31.1794H151.621L143.695 9.16504H150.165H150.17Z" fill="#FDDA24"/>
<path d="M172.635 10.3002C174.303 9.37193 176.24 8.91016 178.44 8.91016C180.641 8.91016 182.629 9.34366 184.33 10.2154C186.031 11.0871 187.355 12.3122 188.312 13.9001C189.268 15.4881 189.763 17.3493 189.791 19.4886C189.791 20.2613 189.735 20.9446 189.622 21.543H173.648V21.7126C173.789 23.31 174.303 24.5681 175.189 25.4822C176.075 26.3963 177.286 26.8534 178.831 26.8534C180.061 26.8534 181.079 26.5895 181.894 26.0618C182.709 25.534 183.242 24.7565 183.501 23.7293H189.452C189.221 25.1853 188.665 26.5 187.784 27.6686C186.898 28.8371 185.729 29.7607 184.273 30.4298C182.817 31.0989 181.145 31.4381 179.265 31.4381C176.81 31.4381 174.689 30.9811 172.903 30.067C171.118 29.1528 169.746 27.8476 168.79 26.1466C167.833 24.4456 167.357 22.4712 167.357 20.2142C167.357 17.9572 167.824 15.9357 168.747 14.2394C169.676 12.5384 170.976 11.2285 172.644 10.3002H172.635ZM182.101 14.4986C181.201 13.7682 180.066 13.4054 178.694 13.4054C177.323 13.4054 176.272 13.7823 175.377 14.541C174.477 15.2996 173.945 16.3174 173.77 17.6038H183.75C183.553 16.2608 183.001 15.2289 182.101 14.4986Z" fill="#FDDA24"/>
<path d="M206.499 14.6498H204.101C202.386 14.6498 201.132 15.1634 200.331 16.1906C199.53 17.2178 199.134 18.6173 199.134 20.389V31.1841H193.094V9.16504H198.574L199.13 12.4634C199.785 11.3797 200.6 10.5598 201.571 9.99906C202.541 9.44305 203.842 9.16504 205.467 9.16504H206.495V14.6451L206.499 14.6498Z" fill="#FDDA24"/>
</svg>
