<svg width="143" height="32" viewBox="0 0 143 32" fill="none" xmlns="http://www.w3.org/2000/svg">
<path d="M134.241 17.6516V23.0804H131.242V8.93335H135.359C137.273 8.93335 138.692 9.28452 139.616 9.98685C140.548 10.682 141.014 11.7427 141.014 13.1689C141.014 14.0002 140.785 14.742 140.326 15.3941C139.874 16.0391 139.226 16.548 138.38 16.9206C140.509 20.0955 141.895 22.1487 142.54 23.0804H139.208L135.832 17.6516H134.241ZM134.241 11.3951V15.2114H135.209C136.155 15.2114 136.854 15.0537 137.305 14.7384C137.757 14.423 137.982 13.9321 137.982 13.2656C137.982 12.5991 137.753 12.1225 137.294 11.8359C136.843 11.542 136.126 11.3951 135.144 11.3951H134.241Z" fill="white"/>
<path d="M129.138 20.6079V23.0804H121V8.93335H129.138V11.3951H123.999V14.5019H128.783V16.9529H123.999V20.6079H129.138Z" fill="white"/>
<path d="M114.366 17.3506L117.042 8.93335H120.074L115.269 23.0804H111.99L107.195 8.93335H110.227L112.882 17.3506C113.011 17.7878 113.158 18.3504 113.323 19.0384C113.495 19.7264 113.599 20.203 113.635 20.4681C113.713 19.8231 113.957 18.784 114.366 17.3506Z" fill="white"/>
<path d="M106.265 23.0804H103.266V8.93335H106.265V23.0804Z" fill="white"/>
<path d="M94.0383 23.0804V17.6516H95.6293L99.0048 23.0804H102.337C101.692 22.1487 100.306 20.0955 98.1771 16.9206C99.0228 16.548 99.6714 16.0391 100.123 15.3941C100.582 14.742 100.811 14.0002 100.811 13.1689C100.811 11.7427 99.4133 9.98685 99.4133 9.98685L97.0913 11.8359C97.55 12.1225 97.7793 12.5991 97.7793 13.2656C97.7793 13.9321 97.5536 14.423 97.1021 14.7384C96.6506 15.0537 95.9518 15.2114 95.0058 15.2114H94.0383V8.93335H91.0391V23.0804H94.0383Z" fill="url(#paint0_linear_3_8327)"/>
<path d="M88.3187 8.93335V23.0804H84.5025L78.3535 12.3841H78.2674C78.3893 14.3191 78.4502 15.6665 78.4502 16.4261V23.0804H75.7734V8.93335H79.5467L85.6957 19.5329H85.7602C85.6671 17.7627 85.6205 16.462 85.6205 15.6306V8.93335H88.3187Z" fill="white"/>
<path d="M73.669 20.6079V23.0804H65.5312V8.93335H73.669V11.3951H68.5305V14.5019H73.3143V16.9529H68.5305V20.6079H73.669Z" fill="white"/>
<path d="M57.397 17.6296V15.1355H63.0085V22.4671C61.3888 23.0046 59.7118 23.2733 57.9775 23.2733C55.849 23.2733 54.2185 22.6462 53.0862 21.3921C51.961 20.1379 51.3984 18.357 51.3984 16.0493C51.3984 13.7345 52.0506 11.9356 53.3549 10.6528C54.6736 9.36994 56.4868 8.72852 58.7945 8.72852C60.2493 8.72852 61.6468 9.01877 62.987 9.59927L61.998 12.0073C60.966 11.4913 59.891 11.2333 58.773 11.2333C57.483 11.2333 56.4438 11.6704 55.6555 12.5448C54.8743 13.412 54.4837 14.598 54.4837 16.103C54.4837 17.6009 54.799 18.7547 55.4297 19.5646C56.0604 20.3744 56.9741 20.7793 58.171 20.7793C58.7945 20.7793 59.4287 20.7148 60.0737 20.5858V17.6296H57.397Z" fill="white"/>
<path d="M51.4866 23.0778H48.2508L47.2295 19.713H42.0695L41.0483 23.0778H37.8125L42.8005 8.87695H46.4663L51.4866 23.0778ZM42.822 17.1975H46.5093L44.9075 12.0267C44.7929 11.6397 44.7069 11.3208 44.6495 11.07C44.456 11.844 43.8469 13.8865 42.822 17.1975Z" fill="white"/>
<path d="M0.490504 14.8025C0.487019 14.806 0.480048 14.806 0.476562 14.806V14.8095C0.476562 14.8129 0.480049 14.8129 0.480049 14.8129C0.595064 14.8373 0.710078 14.8617 0.825093 14.8827C0.710078 14.8548 0.602034 14.8269 0.490504 14.8025ZM0.490504 14.8025C0.487019 14.806 0.480048 14.806 0.476562 14.806V14.8095C0.476562 14.8129 0.480049 14.8129 0.480049 14.8129C0.595064 14.8373 0.710078 14.8617 0.825093 14.8827C0.710078 14.8548 0.602034 14.8269 0.490504 14.8025ZM0.490504 14.8025C0.487019 14.806 0.480048 14.806 0.476562 14.806V14.8095C0.476562 14.8129 0.480049 14.8129 0.480049 14.8129C0.595064 14.8373 0.710078 14.8617 0.825093 14.8827C0.710078 14.8548 0.602034 14.8269 0.490504 14.8025ZM0.490504 14.8025C0.487019 14.806 0.480048 14.806 0.476562 14.806V14.8095C0.476562 14.8129 0.480049 14.8129 0.480049 14.8129C0.595064 14.8373 0.710078 14.8617 0.825093 14.8827C0.710078 14.8548 0.602034 14.8269 0.490504 14.8025ZM0.490504 14.8025C0.487019 14.806 0.480048 14.806 0.476562 14.806V14.8095C0.476562 14.8129 0.480049 14.8129 0.480049 14.8129C0.595064 14.8373 0.710078 14.8617 0.825093 14.8827C0.710078 14.8548 0.602034 14.8269 0.490504 14.8025Z" fill="url(#paint1_linear_3_8327)"/>
<path d="M15.2787 4.97323C15.2787 6.51722 15.1148 8.0159 14.8047 9.44139C14.4979 10.8634 14.0449 12.2157 13.4733 13.4774C12.222 14.0455 10.8802 14.4951 9.47213 14.8018C8.0327 15.1155 6.52357 15.2828 4.96564 15.2828C3.54363 15.2828 2.15648 15.1433 0.828579 14.8785C0.825094 14.8785 0.821608 14.875 0.821608 14.875C0.710079 14.8506 0.602034 14.8227 0.490504 14.7983C0.602034 14.7739 0.710079 14.7495 0.821608 14.7216C0.706593 14.7425 0.591578 14.7669 0.476562 14.7913C1.28864 11.0586 3.08706 7.8033 5.5198 5.45769C7.86192 3.05283 11.0963 1.27532 14.8012 0.470215V0.4737C14.8047 0.480671 14.8047 0.487641 14.8047 0.494612C15.1148 1.93056 15.2787 3.42924 15.2787 4.97323Z" fill="url(#paint2_linear_3_8327)"/>
<path d="M0.825093 14.8827C0.710078 14.8617 0.595062 14.8373 0.480047 14.8129C0.480047 14.8129 0.476562 14.8129 0.476562 14.8095V14.806C0.480048 14.806 0.487019 14.806 0.490504 14.8025C0.605519 14.8304 0.713563 14.8583 0.825093 14.8827Z" fill="url(#paint3_linear_3_8327)"/>
<path d="M14.8021 0.477487C13.3661 0.167295 11.864 0 10.313 0C7.23201 0 4.33223 0.655237 1.80539 1.80539C0.655237 4.33223 0 7.23201 0 10.313C0 11.864 0.167294 13.3696 0.477486 14.8021C0.477486 14.7986 0.480972 14.7986 0.480972 14.7986C1.29305 11.0658 3.09147 7.81057 5.52421 5.46496C7.86633 3.0601 11.1007 1.28259 14.8056 0.477487H14.8021Z" fill="#3D5062"/>
<path d="M17.1817 0.490504C17.1782 0.487018 17.1782 0.480048 17.1782 0.476562H17.1748C17.1713 0.476562 17.1713 0.480048 17.1713 0.480048C17.1469 0.595063 17.1225 0.710078 17.1016 0.825093C17.1329 0.713563 17.1573 0.602033 17.1817 0.490504ZM17.1817 0.490504C17.1782 0.487018 17.1782 0.480048 17.1782 0.476562H17.1748C17.1713 0.476562 17.1713 0.480048 17.1713 0.480048C17.1469 0.595063 17.1225 0.710078 17.1016 0.825093C17.1329 0.713563 17.1573 0.602033 17.1817 0.490504ZM17.1817 0.490504C17.1782 0.487018 17.1782 0.480048 17.1782 0.476562H17.1748C17.1713 0.476562 17.1713 0.480048 17.1713 0.480048C17.1469 0.595063 17.1225 0.710078 17.1016 0.825093C17.1329 0.713563 17.1573 0.602033 17.1817 0.490504ZM17.1817 0.490504C17.1782 0.487018 17.1782 0.480048 17.1782 0.476562H17.1748C17.1713 0.476562 17.1713 0.480048 17.1713 0.480048C17.1469 0.595063 17.1225 0.710078 17.1016 0.825093C17.1329 0.713563 17.1573 0.602033 17.1817 0.490504ZM17.1817 0.490504C17.1782 0.487018 17.1782 0.480048 17.1782 0.476562H17.1748C17.1713 0.476562 17.1713 0.480048 17.1713 0.480048C17.1469 0.595063 17.1225 0.710078 17.1016 0.825093C17.1329 0.713563 17.1573 0.602033 17.1817 0.490504Z" fill="url(#paint4_linear_3_8327)"/>
<path d="M27.0196 15.2856C25.4756 15.2856 23.977 15.1218 22.548 14.8116C21.1225 14.5049 19.7702 14.0518 18.5085 13.4768C17.9404 12.2255 17.4908 10.8837 17.1841 9.47213C16.8704 8.0327 16.7031 6.52008 16.7031 4.96564C16.7031 3.54015 16.8425 2.15648 17.1074 0.828578C17.1074 0.825093 17.1109 0.821608 17.1109 0.821608C17.1353 0.710078 17.1632 0.602033 17.1876 0.490504C17.212 0.602033 17.2364 0.710078 17.2643 0.821608C17.2433 0.706593 17.219 0.591578 17.1946 0.476562C20.9308 1.28864 24.1861 3.09054 26.5317 5.5198C28.9365 7.86541 30.7141 11.0963 31.5192 14.8047H31.5157C31.5087 14.8081 31.5017 14.8081 31.4948 14.8081C30.0623 15.1218 28.5636 15.2856 27.0196 15.2856Z" fill="url(#paint5_linear_3_8327)"/>
<path d="M17.1094 0.821187C17.1303 0.706172 17.1547 0.591157 17.1791 0.476142C17.1791 0.476142 17.1791 0.472656 17.1826 0.472656H17.1861C17.1861 0.476142 17.1861 0.483112 17.1895 0.486597C17.1582 0.601613 17.1338 0.713142 17.1094 0.821187Z" fill="url(#paint6_linear_3_8327)"/>
<path d="M31.5226 14.8091C31.8328 13.3766 32 11.8709 32 10.32C32 7.23549 31.3448 4.33572 30.1912 1.80887C27.6608 0.655237 24.7646 0 21.6801 0C20.1291 0 18.6234 0.167295 17.1875 0.477487C17.191 0.477487 17.191 0.480972 17.191 0.480972C20.9272 1.29305 24.1825 3.09495 26.5281 5.52421C28.933 7.86982 30.7105 11.1007 31.5156 14.8091H31.5226Z" fill="#3D5062"/>
<path d="M31.4987 17.1915C31.5021 17.188 31.5091 17.188 31.5126 17.188V17.1845C31.5126 17.181 31.5091 17.181 31.5091 17.181C31.3941 17.1566 31.2791 17.1322 31.1641 17.1113C31.2791 17.1427 31.3906 17.1671 31.4987 17.1915ZM31.4987 17.1915C31.5021 17.188 31.5091 17.188 31.5126 17.188V17.1845C31.5126 17.181 31.5091 17.181 31.5091 17.181C31.3941 17.1566 31.2791 17.1322 31.1641 17.1113C31.2791 17.1427 31.3906 17.1671 31.4987 17.1915ZM31.4987 17.1915C31.5021 17.188 31.5091 17.188 31.5126 17.188V17.1845C31.5126 17.181 31.5091 17.181 31.5091 17.181C31.3941 17.1566 31.2791 17.1322 31.1641 17.1113C31.2791 17.1427 31.3906 17.1671 31.4987 17.1915ZM31.4987 17.1915C31.5021 17.188 31.5091 17.188 31.5126 17.188V17.1845C31.5126 17.181 31.5091 17.181 31.5091 17.181C31.3941 17.1566 31.2791 17.1322 31.1641 17.1113C31.2791 17.1427 31.3906 17.1671 31.4987 17.1915ZM31.4987 17.1915C31.5021 17.188 31.5091 17.188 31.5126 17.188V17.1845C31.5126 17.181 31.5091 17.181 31.5091 17.181C31.3941 17.1566 31.2791 17.1322 31.1641 17.1113C31.2791 17.1427 31.3906 17.1671 31.4987 17.1915Z" fill="white"/>
<path d="M16.7109 27.0224C16.7109 25.4784 16.8747 23.9798 17.1849 22.5543C17.4916 21.1323 17.9447 19.78 18.5163 18.5183C19.7675 17.9502 21.1094 17.5006 22.5175 17.1939C23.9569 16.8802 25.466 16.7129 27.024 16.7129C28.446 16.7129 29.8331 16.8523 31.161 17.1172C31.1645 17.1172 31.168 17.1207 31.168 17.1207C31.2795 17.1451 31.3876 17.173 31.4991 17.1973C31.3876 17.2217 31.2795 17.2461 31.168 17.274C31.283 17.2531 31.398 17.2287 31.513 17.2043C30.7009 20.9371 28.9025 24.1924 26.4698 26.538C24.1277 28.9428 20.8933 30.7203 17.1884 31.5254V31.522C17.1849 31.515 17.1849 31.508 17.1849 31.501C16.8747 30.0686 16.7109 28.5664 16.7109 27.0224Z" fill="url(#paint7_linear_3_8327)"/>
<path d="M31.1641 17.1174C31.2791 17.1383 31.3941 17.1627 31.5091 17.1871C31.5091 17.1871 31.5126 17.1871 31.5126 17.1906V17.1941C31.5091 17.1941 31.5021 17.1941 31.4987 17.1976C31.3871 17.1662 31.2756 17.1418 31.1641 17.1174Z" fill="white"/>
<path d="M17.191 31.5219C18.6234 31.8321 20.1291 31.9994 21.6801 31.9994C24.7611 31.9994 27.6608 31.3441 30.1877 30.194C31.3378 27.6671 31.9931 24.7673 31.9931 21.6863C31.9931 20.1354 31.8258 18.6297 31.5156 17.1973C31.5156 17.2008 31.5121 17.2008 31.5121 17.2008C30.7 20.9335 28.9016 24.1888 26.4689 26.5344C24.1267 28.9393 20.8924 30.7168 17.1875 31.5219H17.191Z" fill="#3D5062"/>
<path d="M14.8125 31.5026C14.816 31.506 14.816 31.513 14.816 31.5165H14.8195C14.823 31.5165 14.823 31.513 14.823 31.513C14.8474 31.398 14.8718 31.283 14.8927 31.168C14.8648 31.283 14.8369 31.3945 14.8125 31.5026ZM14.8125 31.5026C14.816 31.506 14.816 31.513 14.816 31.5165H14.8195C14.823 31.5165 14.823 31.513 14.823 31.513C14.8474 31.398 14.8718 31.283 14.8927 31.168C14.8648 31.283 14.8369 31.3945 14.8125 31.5026ZM14.8125 31.5026C14.816 31.506 14.816 31.513 14.816 31.5165H14.8195C14.823 31.5165 14.823 31.513 14.823 31.513C14.8474 31.398 14.8718 31.283 14.8927 31.168C14.8648 31.283 14.8369 31.3945 14.8125 31.5026ZM14.8125 31.5026C14.816 31.506 14.816 31.513 14.816 31.5165H14.8195C14.823 31.5165 14.823 31.513 14.823 31.513C14.8474 31.398 14.8718 31.283 14.8927 31.168C14.8648 31.283 14.8369 31.3945 14.8125 31.5026ZM14.8125 31.5026C14.816 31.506 14.816 31.513 14.816 31.5165H14.8195C14.823 31.5165 14.823 31.513 14.823 31.513C14.8474 31.398 14.8718 31.283 14.8927 31.168C14.8648 31.283 14.8369 31.3945 14.8125 31.5026Z" fill="url(#paint8_linear_3_8327)"/>
<path d="M4.97609 16.709C6.52008 16.709 8.01876 16.8728 9.44774 17.183C10.8732 17.4897 12.2255 17.9428 13.4872 18.5179C14.0553 19.7691 14.5049 21.1109 14.8116 22.5225C15.1253 23.9619 15.2926 25.4745 15.2926 27.029C15.2926 28.4545 15.1532 29.8381 14.8883 31.166C14.8883 31.1695 14.8848 31.173 14.8848 31.173C14.8604 31.2845 14.8325 31.3926 14.8081 31.5041C14.7837 31.3926 14.7593 31.2845 14.7315 31.173C14.7524 31.288 14.7768 31.403 14.8012 31.518C11.0649 30.706 7.80964 28.9041 5.46403 26.4748C3.05917 24.1292 1.28167 20.8983 0.476562 17.19H0.480047C0.487018 17.1865 0.493989 17.1865 0.50096 17.1865C1.92993 16.8728 3.4321 16.709 4.97609 16.709Z" fill="url(#paint9_linear_3_8327)"/>
<path d="M14.8848 31.1719C14.8639 31.2869 14.8395 31.4019 14.8151 31.5169C14.8151 31.5169 14.8151 31.5204 14.8117 31.5204H14.8082C14.8082 31.5169 14.8082 31.5099 14.8047 31.5065C14.8326 31.3949 14.8605 31.2834 14.8848 31.1719Z" fill="url(#paint10_linear_3_8327)"/>
<path d="M0.477486 17.1914C0.167294 18.6239 0 20.1295 0 21.6805C0 24.765 0.655237 27.6647 1.80887 30.1916C4.33572 31.3417 7.23549 32.0005 10.32 32.0005C11.8709 32.0005 13.3766 31.8332 14.8125 31.523C14.8091 31.523 14.8091 31.5195 14.8091 31.5195C11.0728 30.7074 7.81754 28.9055 5.47193 26.4763C3.06707 24.1306 1.28956 20.8998 0.484457 17.1914H0.477486Z" fill="#3D5062"/>
<defs>
<linearGradient id="paint0_linear_3_8327" x1="91.0391" y1="16.0069" x2="102.337" y2="16.0069" gradientUnits="userSpaceOnUse">
<stop stop-color="#4951FE"/>
<stop offset="1" stop-color="#DE3AA8"/>
</linearGradient>
<linearGradient id="paint1_linear_3_8327" x1="0.476563" y1="14.8426" x2="0.825093" y2="14.8426" gradientUnits="userSpaceOnUse">
<stop stop-color="#4951FE"/>
<stop offset="1" stop-color="#DE3AA8"/>
</linearGradient>
<linearGradient id="paint2_linear_3_8327" x1="0.476563" y1="7.87649" x2="15.2787" y2="7.87649" gradientUnits="userSpaceOnUse">
<stop stop-color="#4951FE"/>
<stop offset="1" stop-color="#DE3AA8"/>
</linearGradient>
<linearGradient id="paint3_linear_3_8327" x1="0.476563" y1="14.8426" x2="0.825093" y2="14.8426" gradientUnits="userSpaceOnUse">
<stop stop-color="#4951FE"/>
<stop offset="1" stop-color="#DE3AA8"/>
</linearGradient>
<linearGradient id="paint4_linear_3_8327" x1="17.1016" y1="0.650828" x2="17.1817" y2="0.650828" gradientUnits="userSpaceOnUse">
<stop stop-color="#4951FE"/>
<stop offset="1" stop-color="#DE3AA8"/>
</linearGradient>
<linearGradient id="paint5_linear_3_8327" x1="16.7031" y1="7.88109" x2="31.5192" y2="7.88109" gradientUnits="userSpaceOnUse">
<stop stop-color="#4951FE"/>
<stop offset="1" stop-color="#DE3AA8"/>
</linearGradient>
<linearGradient id="paint6_linear_3_8327" x1="17.1094" y1="0.646921" x2="17.1895" y2="0.646921" gradientUnits="userSpaceOnUse">
<stop stop-color="#4951FE"/>
<stop offset="1" stop-color="#DE3AA8"/>
</linearGradient>
<linearGradient id="paint7_linear_3_8327" x1="16.7109" y1="24.1192" x2="31.513" y2="24.1192" gradientUnits="userSpaceOnUse">
<stop stop-color="#4951FE"/>
<stop offset="1" stop-color="#DE3AA8"/>
</linearGradient>
<linearGradient id="paint8_linear_3_8327" x1="14.8125" y1="31.3422" x2="14.8927" y2="31.3422" gradientUnits="userSpaceOnUse">
<stop stop-color="#4951FE"/>
<stop offset="1" stop-color="#DE3AA8"/>
</linearGradient>
<linearGradient id="paint9_linear_3_8327" x1="0.476563" y1="24.1135" x2="15.2926" y2="24.1135" gradientUnits="userSpaceOnUse">
<stop stop-color="#4951FE"/>
<stop offset="1" stop-color="#DE3AA8"/>
</linearGradient>
<linearGradient id="paint10_linear_3_8327" x1="14.8047" y1="31.3461" x2="14.8848" y2="31.3461" gradientUnits="userSpaceOnUse">
<stop stop-color="#4951FE"/>
<stop offset="1" stop-color="#DE3AA8"/>
</linearGradient>
</defs>
</svg>
