<svg width="286" height="64" viewBox="0 0 286 64" fill="none" xmlns="http://www.w3.org/2000/svg">
<path d="M268.507 35.2987V46.1568H262.508V17.8613H270.743C274.57 17.8613 277.408 18.5637 279.257 19.9684C281.121 21.3588 282.052 23.4803 282.052 26.3328C282.052 27.9955 281.594 29.4791 280.676 30.7835C279.773 32.0736 278.476 33.0913 276.785 33.8367C281.042 40.1867 283.815 44.2934 285.105 46.1568H278.44L271.689 35.2987H268.507ZM268.507 22.7851V30.418H270.442C272.334 30.418 273.731 30.1026 274.634 29.4719C275.537 28.8412 275.989 27.8593 275.989 26.5263C275.989 25.1932 275.53 24.24 274.613 23.6666C273.71 23.0789 272.276 22.7851 270.313 22.7851H268.507Z" fill="white"/>
<path d="M258.308 41.2115V46.1568H242.031V17.8613H258.308V22.7851H248.03V28.9989H257.598V33.9012H248.03V41.2115H258.308Z" fill="white"/>
<path d="M228.755 34.6967L234.109 17.8613H240.172L230.561 46.1568H224.004L214.414 17.8613H220.477L225.788 34.6967C226.046 35.5711 226.34 36.6963 226.67 38.0724C227.014 39.4485 227.222 40.4017 227.293 40.932C227.451 39.642 227.938 37.5635 228.755 34.6967Z" fill="white"/>
<path d="M212.553 46.1568H206.555V17.8613H212.553V46.1568Z" fill="white"/>
<path d="M188.093 46.1568V35.2987H191.275L198.026 46.1568H204.691C203.401 44.2934 200.628 40.1867 196.37 33.8367C198.062 33.0913 199.359 32.0736 200.262 30.7835C201.18 29.4791 201.638 27.9955 201.638 26.3328C201.638 23.4803 198.843 19.9684 198.843 19.9684L194.199 23.6666C195.116 24.24 195.575 25.1932 195.575 26.5263C195.575 27.8593 195.123 28.8412 194.22 29.4719C193.317 30.1026 191.92 30.418 190.028 30.418H188.093V17.8613H182.094V46.1568H188.093Z" fill="#2DFFA6"/>
<path d="M176.654 17.8613V46.1568H169.021L156.723 24.7632H156.551C156.794 28.6334 156.916 31.3282 156.916 32.8476V46.1568H151.562V17.8613H159.109L171.408 39.0614H171.537C171.351 35.5209 171.258 32.9193 171.258 31.2565V17.8613H176.654Z" fill="white"/>
<path d="M147.362 41.2115V46.1568H131.086V17.8613H147.362V22.7851H137.085V28.9989H146.653V33.9012H137.085V41.2115H147.362Z" fill="white"/>
<path d="M114.818 35.2561V30.2678H126.042V44.9316C122.802 46.0066 119.448 46.5441 115.979 46.5441C111.722 46.5441 108.461 45.2899 106.196 42.7814C103.946 40.273 102.82 36.711 102.82 32.0954C102.82 27.4655 104.125 23.8676 106.734 21.3018C109.371 18.736 112.998 17.4531 117.613 17.4531C120.523 17.4531 123.318 18.0337 125.999 19.1947L124.02 24.011C121.956 22.9789 119.806 22.4629 117.57 22.4629C114.99 22.4629 112.912 23.3373 111.335 25.086C109.772 26.8204 108.991 29.1927 108.991 32.2029C108.991 35.1987 109.622 37.5065 110.883 39.1263C112.145 40.746 113.972 41.5559 116.366 41.5559C117.613 41.5559 118.882 41.4269 120.172 41.1689V35.2561H114.818Z" fill="white"/>
<path d="M102.99 46.1588H96.5182L94.4756 39.429H84.1551L82.1125 46.1588H75.6406L85.6171 17.7559H92.949L102.99 46.1588ZM85.6601 34.3977H93.035L89.8314 24.0557C89.602 23.2816 89.43 22.6438 89.3153 22.1421C88.9283 23.6902 87.7099 27.7754 85.6601 34.3977Z" fill="white"/>
<path d="M0.988822 29.6133C0.981851 29.6203 0.967908 29.6203 0.960938 29.6203V29.6272C0.960938 29.6342 0.96791 29.6342 0.96791 29.6342C1.19795 29.683 1.42799 29.7318 1.65803 29.7736C1.42799 29.7178 1.21189 29.6621 0.988822 29.6133ZM0.988822 29.6133C0.981851 29.6203 0.967908 29.6203 0.960938 29.6203V29.6272C0.960938 29.6342 0.96791 29.6342 0.96791 29.6342C1.19795 29.683 1.42799 29.7318 1.65803 29.7736C1.42799 29.7178 1.21189 29.6621 0.988822 29.6133ZM0.988822 29.6133C0.981851 29.6203 0.967908 29.6203 0.960938 29.6203V29.6272C0.960938 29.6342 0.96791 29.6342 0.96791 29.6342C1.19795 29.683 1.42799 29.7318 1.65803 29.7736C1.42799 29.7178 1.21189 29.6621 0.988822 29.6133ZM0.988822 29.6133C0.981851 29.6203 0.967908 29.6203 0.960938 29.6203V29.6272C0.960938 29.6342 0.96791 29.6342 0.96791 29.6342C1.19795 29.683 1.42799 29.7318 1.65803 29.7736C1.42799 29.7178 1.21189 29.6621 0.988822 29.6133ZM0.988822 29.6133C0.981851 29.6203 0.967908 29.6203 0.960938 29.6203V29.6272C0.960938 29.6342 0.96791 29.6342 0.96791 29.6342C1.19795 29.683 1.42799 29.7318 1.65803 29.7736C1.42799 29.7178 1.21189 29.6621 0.988822 29.6133Z" fill="#FF275A"/>
<path d="M30.5665 9.94787C30.5665 13.036 30.2389 16.0335 29.6185 18.8846C29.005 21.7288 28.0988 24.4335 26.9556 26.957C24.453 28.0932 21.7692 28.9925 18.9529 29.6059C16.0739 30.2333 13.0555 30.5679 9.93951 30.5679C7.09537 30.5679 4.32093 30.2891 1.665 29.7593C1.65803 29.7593 1.65106 29.7523 1.65106 29.7523C1.42799 29.7035 1.21189 29.6478 0.988822 29.599C1.21189 29.5502 1.42799 29.5014 1.65106 29.4456C1.42102 29.4874 1.19098 29.5362 0.960938 29.585C2.58517 22.1191 6.18218 15.6083 11.0479 10.9168C15.7324 6.10688 22.2014 2.55169 29.6115 0.941406V0.948377C29.6185 0.962319 29.6185 0.976261 29.6185 0.990203C30.2389 3.86223 30.5665 6.85974 30.5665 9.94787Z" fill="#FF275A"/>
<path d="M1.65022 29.7658C1.42018 29.724 1.19014 29.6752 0.960095 29.6264C0.960095 29.6264 0.953125 29.6264 0.953125 29.6194V29.6124C0.960096 29.6124 0.974038 29.6124 0.981009 29.6055C1.21105 29.6612 1.42715 29.717 1.65022 29.7658Z" fill="#FF275A"/>
<path d="M29.6134 0.955019C26.7414 0.334605 23.7369 0 20.6348 0C14.4725 0 8.6727 1.31054 3.61876 3.61095C1.31835 8.66488 0.0078125 14.4647 0.0078125 20.627C0.0078125 23.7291 0.342417 26.7405 0.962831 29.6056C0.962831 29.5986 0.969804 29.5986 0.969804 29.5986C2.59403 22.1327 6.19104 15.6219 11.0568 10.9304C15.7412 6.12049 22.2103 2.56531 29.6204 0.955019H29.6134Z" fill="#312D3C"/>
<path d="M34.3713 0.982962C34.3643 0.975991 34.3643 0.962049 34.3643 0.955078H34.3573C34.3504 0.955078 34.3504 0.962049 34.3504 0.962049C34.3016 1.19209 34.2528 1.42213 34.2109 1.65217C34.2737 1.4291 34.3225 1.20603 34.3713 0.982962ZM34.3713 0.982962C34.3643 0.975991 34.3643 0.962049 34.3643 0.955078H34.3573C34.3504 0.955078 34.3504 0.962049 34.3504 0.962049C34.3016 1.19209 34.2528 1.42213 34.2109 1.65217C34.2737 1.4291 34.3225 1.20603 34.3713 0.982962ZM34.3713 0.982962C34.3643 0.975991 34.3643 0.962049 34.3643 0.955078H34.3573C34.3504 0.955078 34.3504 0.962049 34.3504 0.962049C34.3016 1.19209 34.2528 1.42213 34.2109 1.65217C34.2737 1.4291 34.3225 1.20603 34.3713 0.982962ZM34.3713 0.982962C34.3643 0.975991 34.3643 0.962049 34.3643 0.955078H34.3573C34.3504 0.955078 34.3504 0.962049 34.3504 0.962049C34.3016 1.19209 34.2528 1.42213 34.2109 1.65217C34.2737 1.4291 34.3225 1.20603 34.3713 0.982962ZM34.3713 0.982962C34.3643 0.975991 34.3643 0.962049 34.3643 0.955078H34.3573C34.3504 0.955078 34.3504 0.962049 34.3504 0.962049C34.3016 1.19209 34.2528 1.42213 34.2109 1.65217C34.2737 1.4291 34.3225 1.20603 34.3713 0.982962Z" fill="#8811FF"/>
<path d="M54.0481 30.5746C50.9599 30.5746 47.9624 30.247 45.1043 29.6266C42.2532 29.0131 39.5485 28.1069 37.025 26.9567C35.8887 24.4541 34.9895 21.7703 34.3761 18.9471C33.7487 16.0681 33.4141 13.0427 33.4141 9.93365C33.4141 7.08254 33.6929 4.31507 34.2227 1.65914C34.2227 1.65217 34.2297 1.6452 34.2297 1.6452C34.2785 1.42213 34.3342 1.20603 34.383 0.982962C34.4318 1.20603 34.4806 1.42213 34.5364 1.6452C34.4946 1.41516 34.4458 1.18512 34.397 0.955078C41.8698 2.57931 48.3807 6.18329 53.0721 11.042C57.8821 15.7335 61.4373 22.1955 63.0475 29.6126H63.0406C63.0266 29.6196 63.0127 29.6196 62.9988 29.6196C60.1337 30.247 57.1362 30.5746 54.0481 30.5746Z" fill="#8811FF"/>
<path d="M34.2266 1.64631C34.2684 1.41627 34.3172 1.18623 34.366 0.95619C34.366 0.95619 34.366 0.949219 34.373 0.949219H34.3799C34.3799 0.95619 34.3799 0.970132 34.3869 0.977103C34.3242 1.20714 34.2754 1.43021 34.2266 1.64631Z" fill="#8811FF"/>
<path d="M63.0465 29.6195C63.6669 26.7545 64.0015 23.743 64.0015 20.641C64.0015 14.4717 62.691 8.67185 60.3836 3.61792C55.3227 1.31054 49.5298 0 43.3605 0C40.2585 0 37.247 0.334605 34.375 0.955019C34.382 0.955019 34.382 0.96199 34.382 0.96199C41.8548 2.58622 48.3657 6.1902 53.0571 11.0489C57.8671 15.7404 61.4223 22.2025 63.0326 29.6195H63.0465Z" fill="#312D3C"/>
<path d="M63.0051 34.381C63.0121 34.3741 63.0261 34.3741 63.033 34.3741V34.3671C63.033 34.3601 63.0261 34.3601 63.0261 34.3601C62.796 34.3113 62.566 34.2625 62.3359 34.2207C62.566 34.2834 62.789 34.3322 63.0051 34.381ZM63.0051 34.381C63.0121 34.3741 63.0261 34.3741 63.033 34.3741V34.3671C63.033 34.3601 63.0261 34.3601 63.0261 34.3601C62.796 34.3113 62.566 34.2625 62.3359 34.2207C62.566 34.2834 62.789 34.3322 63.0051 34.381ZM63.0051 34.381C63.0121 34.3741 63.0261 34.3741 63.033 34.3741V34.3671C63.033 34.3601 63.0261 34.3601 63.0261 34.3601C62.796 34.3113 62.566 34.2625 62.3359 34.2207C62.566 34.2834 62.789 34.3322 63.0051 34.381ZM63.0051 34.381C63.0121 34.3741 63.0261 34.3741 63.033 34.3741V34.3671C63.033 34.3601 63.0261 34.3601 63.0261 34.3601C62.796 34.3113 62.566 34.2625 62.3359 34.2207C62.566 34.2834 62.789 34.3322 63.0051 34.381ZM63.0051 34.381C63.0121 34.3741 63.0261 34.3741 63.033 34.3741V34.3671C63.033 34.3601 63.0261 34.3601 63.0261 34.3601C62.796 34.3113 62.566 34.2625 62.3359 34.2207C62.566 34.2834 62.789 34.3322 63.0051 34.381Z" fill="#FF275A"/>
<path d="M33.4297 54.0458C33.4297 50.9577 33.7573 47.9602 34.3777 45.1091C34.9912 42.2649 35.8974 39.5602 37.0406 37.0367C39.5432 35.9005 42.227 35.0012 45.0433 34.3878C47.9223 33.7604 50.9407 33.4258 54.0567 33.4258C56.9009 33.4258 59.6753 33.7046 62.3312 34.2344C62.3382 34.2344 62.3452 34.2414 62.3452 34.2414C62.5682 34.2902 62.7843 34.3459 63.0074 34.3947C62.7843 34.4435 62.5682 34.4923 62.3452 34.5481C62.5752 34.5063 62.8052 34.4575 63.0353 34.4087C61.4111 41.8746 57.8141 48.3854 52.9483 53.0769C48.2639 57.8868 41.7948 61.442 34.3847 63.0523V63.0453C34.3777 63.0314 34.3777 63.0174 34.3777 63.0035C33.7573 60.1384 33.4297 57.134 33.4297 54.0458Z" fill="#FF275A"/>
<path d="M62.3438 34.2363C62.5738 34.2782 62.8038 34.327 63.0339 34.3757C63.0339 34.3757 63.0408 34.3757 63.0408 34.3827V34.3897C63.0339 34.3897 63.0199 34.3897 63.013 34.3967C62.7899 34.3339 62.5668 34.2851 62.3438 34.2363Z" fill="#FF275A"/>
<path d="M34.3898 63.0451C37.2548 63.6655 40.2663 64.0001 43.3684 64.0001C49.5307 64.0001 55.3305 62.6896 60.3844 60.3892C62.6848 55.3352 63.9954 49.5354 63.9954 43.3731C63.9954 40.271 63.6608 37.2596 63.0404 34.3945C63.0404 34.4015 63.0334 34.4015 63.0334 34.4015C61.4092 41.8674 57.8122 48.3782 52.9464 53.0697C48.262 57.8796 41.7929 61.4348 34.3828 63.0451H34.3898Z" fill="#312D3C"/>
<path d="M29.625 63.011C29.632 63.018 29.632 63.0319 29.632 63.0389H29.6389C29.6459 63.0389 29.6459 63.0319 29.6459 63.0319C29.6947 62.8019 29.7435 62.5718 29.7853 62.3418C29.7296 62.5718 29.6738 62.7949 29.625 63.011ZM29.625 63.011C29.632 63.018 29.632 63.0319 29.632 63.0389H29.6389C29.6459 63.0389 29.6459 63.0319 29.6459 63.0319C29.6947 62.8019 29.7435 62.5718 29.7853 62.3418C29.7296 62.5718 29.6738 62.7949 29.625 63.011ZM29.625 63.011C29.632 63.018 29.632 63.0319 29.632 63.0389H29.6389C29.6459 63.0389 29.6459 63.0319 29.6459 63.0319C29.6947 62.8019 29.7435 62.5718 29.7853 62.3418C29.7296 62.5718 29.6738 62.7949 29.625 63.011ZM29.625 63.011C29.632 63.018 29.632 63.0319 29.632 63.0389H29.6389C29.6459 63.0389 29.6459 63.0319 29.6459 63.0319C29.6947 62.8019 29.7435 62.5718 29.7853 62.3418C29.7296 62.5718 29.6738 62.7949 29.625 63.011ZM29.625 63.011C29.632 63.018 29.632 63.0319 29.632 63.0389H29.6389C29.6459 63.0389 29.6459 63.0319 29.6459 63.0319C29.6947 62.8019 29.7435 62.5718 29.7853 62.3418C29.7296 62.5718 29.6738 62.7949 29.625 63.011Z" fill="#8811FF"/>
<path d="M9.95261 33.418C13.0407 33.418 16.0382 33.7456 18.8963 34.366C21.7475 34.9795 24.4522 35.8857 26.9757 37.0359C28.1119 39.5385 29.0112 42.2223 29.6246 45.0455C30.252 47.9245 30.5866 50.9499 30.5866 54.0589C30.5866 56.9101 30.3078 59.6775 29.778 62.3334C29.778 62.3404 29.771 62.3474 29.771 62.3474C29.7222 62.5705 29.6664 62.7866 29.6176 63.0096C29.5689 62.7866 29.5201 62.5705 29.4643 62.3474C29.5061 62.5774 29.5549 62.8075 29.6037 63.0375C22.1309 61.4133 15.62 57.8093 10.9285 52.9506C6.1186 48.2591 2.56341 41.797 0.953125 34.38H0.960095C0.974037 34.373 0.98798 34.373 1.00192 34.373C3.86001 33.7456 6.86449 33.418 9.95261 33.418Z" fill="#8811FF"/>
<path d="M29.7775 62.3477C29.7357 62.5777 29.6869 62.8077 29.6381 63.0378C29.6381 63.0378 29.6381 63.0448 29.6311 63.0448H29.6242C29.6242 63.0378 29.6242 63.0238 29.6172 63.0169C29.673 62.7938 29.7287 62.5707 29.7775 62.3477Z" fill="#8811FF"/>
<path d="M0.955019 34.3789C0.334605 37.244 0 40.2554 0 43.3575C0 49.5268 1.31054 55.3266 3.61792 60.3805C8.67185 62.6809 14.4717 63.9984 20.641 63.9984C23.743 63.9984 26.7545 63.6638 29.6265 63.0434C29.6195 63.0434 29.6195 63.0365 29.6195 63.0365C22.1467 61.4122 15.6358 57.8082 10.9444 52.9495C6.13443 48.2581 2.57925 41.796 0.968961 34.3789H0.955019Z" fill="#312D3C"/>
</svg>
