<svg width="180" height="35" viewBox="0 0 180 35" fill="none" xmlns="http://www.w3.org/2000/svg">
<path d="M108.285 21.7982C108.634 21.6996 108.979 21.5805 109.312 21.4491C113.189 19.9006 115.941 16.1342 115.994 11.7188C116.06 5.81656 111.053 0.986328 105.151 0.986328H93.6094V6.36694H105.319C107.344 6.36694 109.267 7.4636 110.133 9.29547C110.293 9.63638 110.421 9.99372 110.507 10.3716C110.692 11.1643 110.704 12.0227 110.474 12.914C109.928 15.0334 108.088 16.6394 105.911 16.8735C104.777 16.9967 103.705 16.7626 102.797 16.2738C102.342 16.0274 101.943 15.6988 101.578 15.3333L101.196 14.9513C100.994 14.7089 100.818 14.4461 100.666 14.1709L104.465 10.3716H93.6176V21.2191L96.8008 18.0359L100.074 21.3094L108.088 29.7336H115.986L108.293 21.7941L108.285 21.7982Z" fill="#C4EF17"/>
<path d="M9.55778 1.04492H16.2774L25.7612 27.1799H19.7522L17.7355 21.4666H7.80394L5.78724 27.1799H0L9.55778 1.04492ZM16.2035 16.9526L12.7327 7.0211L9.29901 16.9526H16.2076H16.2035Z" fill="#122C41"/>
<path d="M46.0386 26.6205C46.0386 29.1342 45.2048 31.1386 43.5372 32.6296C41.8696 34.1246 39.282 34.868 35.7702 34.868C33.0594 34.868 30.8661 34.2725 29.1985 33.0773C27.5309 31.882 26.6355 30.1898 26.5123 28.0006H31.8149C32.0654 28.9206 32.5542 29.6312 33.2894 30.1282C34.0246 30.6252 34.9898 30.8757 36.181 30.8757C37.676 30.8757 38.8302 30.502 39.6517 29.7544C40.4731 29.0069 40.8839 27.902 40.8839 26.4316V24.4149C39.4915 26.181 37.5117 27.0641 34.9488 27.0641C33.2565 27.0641 31.7368 26.6657 30.3937 25.8689C29.0506 25.0721 27.9992 23.9466 27.2393 22.4885C26.4794 21.0304 26.1016 19.3341 26.1016 17.3913C26.1016 15.4486 26.4794 13.781 27.2393 12.3147C27.9992 10.8483 29.0547 9.71471 30.4143 8.91789C31.7697 8.12107 33.2935 7.72266 34.9857 7.72266C37.4994 7.72266 39.4915 8.69199 40.9578 10.6348L41.4055 7.98553H46.0345V26.6164L46.0386 26.6205ZM40.8469 17.4735C40.8469 15.8552 40.4239 14.5367 39.5777 13.5181C38.7316 12.4995 37.598 11.9861 36.181 11.9861C34.7639 11.9861 33.6221 12.4913 32.7637 13.4976C31.9052 14.5039 31.474 15.8182 31.474 17.4365C31.474 19.0548 31.9052 20.3609 32.7637 21.3549C33.6221 22.3489 34.7598 22.85 36.181 22.85C37.6021 22.85 38.7316 22.353 39.5777 21.3549C40.4239 20.3609 40.8469 19.063 40.8469 17.4735Z" fill="#122C41"/>
<path d="M53.5612 8.97924C55.0152 8.1701 56.7033 7.76758 58.6214 7.76758C60.5395 7.76758 62.2728 8.14545 63.7556 8.90531C65.2383 9.66517 66.3925 10.7331 67.2263 12.1172C68.0601 13.5014 68.4913 15.1238 68.516 16.9886C68.516 17.6622 68.4667 18.2577 68.3681 18.7794H54.4442V18.9272C54.5675 20.3196 55.0152 21.4163 55.7873 22.2131C56.5595 23.0099 57.6151 23.4083 58.9623 23.4083C60.0343 23.4083 60.9215 23.1783 61.6321 22.7183C62.3426 22.2583 62.8068 21.5806 63.0327 20.6852H68.2202C68.0231 21.9543 67.5343 23.1003 66.7663 24.1189C65.9982 25.1375 64.9755 25.9426 63.7063 26.5258C62.4371 27.109 60.979 27.4048 59.3402 27.4048C57.2003 27.4048 55.352 27.0064 53.7953 26.2095C52.2386 25.4127 51.0434 24.275 50.2096 22.7922C49.3758 21.3095 48.9609 19.5885 48.9609 17.6211C48.9609 15.6537 49.3635 13.8916 50.1726 12.413C50.9818 10.9302 52.1154 9.78839 53.5694 8.97924H53.5612ZM61.8128 12.6389C61.0283 12.0022 60.0384 11.686 58.8432 11.686C57.648 11.686 56.732 12.0146 55.9516 12.6758C55.1712 13.3371 54.703 14.2243 54.551 15.3456H63.2504C63.0779 14.175 62.5973 13.2755 61.8128 12.6389Z" fill="#122C41"/>
<path d="M90.0917 16.7626V27.1789H84.8261V17.0625C84.8261 13.752 83.5323 12.0967 80.9447 12.0967C79.577 12.0967 78.5173 12.5567 77.7697 13.4768C77.0222 14.3968 76.6484 15.6906 76.6484 17.3582V27.1789H71.3828V7.98937H75.9748L76.4595 10.3798C77.1331 9.55838 77.9422 8.91763 78.8869 8.45761C79.8316 7.99759 81.0022 7.76758 82.3946 7.76758C84.6331 7.76758 86.4773 8.46583 87.919 9.85821C89.3606 11.2506 90.0835 13.5548 90.0835 16.7668L90.0917 16.7626Z" fill="#122C41"/>
<path d="M123.884 2.94907C123.884 3.79518 123.596 4.50575 123.026 5.07667C122.455 5.64759 121.732 5.9351 120.861 5.9351C119.99 5.9351 119.263 5.64759 118.676 5.07667C118.093 4.50575 117.797 3.79518 117.797 2.94907C117.797 2.10296 118.088 1.4006 118.676 0.837897C119.259 0.279299 119.99 0 120.861 0C121.732 0 122.455 0.279299 123.026 0.837897C123.596 1.39649 123.884 2.10296 123.884 2.94907ZM123.473 7.98877V27.1783H118.208V7.98877H123.473Z" fill="#122C41"/>
<path d="M130.901 7.98828L135.53 21.8013L140.085 7.98828H145.61L138.701 27.1778H132.166L125.258 7.98828H130.897H130.901Z" fill="#122C41"/>
<path d="M150.483 8.97924C151.937 8.1701 153.625 7.76758 155.543 7.76758C157.461 7.76758 159.195 8.14545 160.677 8.90531C162.16 9.66517 163.314 10.7331 164.148 12.1172C164.982 13.5014 165.413 15.1238 165.438 16.9886C165.438 17.6622 165.389 18.2577 165.29 18.7794H151.366V18.9272C151.489 20.3196 151.937 21.4163 152.709 22.2131C153.481 23.0099 154.537 23.4083 155.884 23.4083C156.956 23.4083 157.843 23.1783 158.554 22.7183C159.265 22.2583 159.729 21.5806 159.955 20.6852H165.142C164.941 21.9543 164.456 23.1003 163.688 24.1189C162.916 25.1375 161.897 25.9426 160.628 26.5258C159.359 27.109 157.901 27.4048 156.262 27.4048C154.122 27.4048 152.274 27.0064 150.717 26.2095C149.16 25.4127 147.965 24.275 147.131 22.7922C146.298 21.3095 145.883 19.5885 145.883 17.6211C145.883 15.6537 146.289 13.8916 147.094 12.413C147.904 10.9302 149.037 9.78839 150.491 8.97924H150.483ZM158.735 12.6389C157.95 12.0022 156.96 11.686 155.765 11.686C154.57 11.686 153.654 12.0146 152.874 12.6758C152.089 13.3371 151.625 14.2243 151.473 15.3456H160.172C160 14.175 159.519 13.2755 158.735 12.6389Z" fill="#122C41"/>
<path d="M179.998 12.7692H177.907C176.412 12.7692 175.32 13.2169 174.621 14.1123C173.923 15.0077 173.578 16.2276 173.578 17.772V27.1819H168.312V7.98828H173.089L173.574 10.8634C174.145 9.91873 174.855 9.20405 175.702 8.71528C176.548 8.23061 177.681 7.98828 179.098 7.98828H179.994V12.7651L179.998 12.7692Z" fill="#122C41"/>
</svg>
