<svg width="268" height="52" viewBox="0 0 268 52" fill="none" xmlns="http://www.w3.org/2000/svg">
<path d="M160.752 32.5101C161.27 32.3631 161.782 32.1855 162.276 31.9895C168.033 29.6802 172.118 24.0632 172.197 17.4784C172.295 8.67614 164.862 1.47266 156.099 1.47266H138.965V9.49695H156.349C159.356 9.49695 162.209 11.1324 163.496 13.8644C163.734 14.3728 163.923 14.9057 164.051 15.4692C164.325 16.6514 164.343 17.9316 164.002 19.2609C163.191 22.4216 160.459 24.8166 157.227 25.1658C155.544 25.3495 153.953 25.0004 152.605 24.2714C151.929 23.9039 151.337 23.4139 150.794 22.8687L150.227 22.2991C149.928 21.9377 149.666 21.5456 149.441 21.1352L155.081 15.4692H138.977V31.6464L143.703 26.8992L148.563 31.7812L160.459 44.3444H172.185L160.764 32.504L160.752 32.5101Z" fill="#AD935E"/>
<path d="M14.1893 1.55371H24.1651L38.2447 40.5297H29.3238L26.3298 32.0093H11.5856L8.59164 40.5297H0L14.1893 1.55371ZM24.0554 25.2774L18.9028 10.4662L13.8052 25.2774H24.0615H24.0554Z" fill="#F9F7F3"/>
<path d="M68.3325 39.7001C68.3325 43.4489 67.0947 46.4381 64.619 48.6616C62.1434 50.8913 58.3018 51.9999 53.0883 51.9999C49.0639 51.9999 45.8077 51.1118 43.332 49.3293C40.8564 47.5468 39.5271 45.0231 39.3441 41.7583H47.2163C47.5882 43.1304 48.3138 44.19 49.4053 44.9312C50.4968 45.6724 51.9298 46.046 53.6981 46.046C55.9177 46.046 57.6311 45.4886 58.8506 44.3738C60.0702 43.259 60.6799 41.6112 60.6799 39.4183V36.4108C58.6128 39.0447 55.6737 40.3617 51.8688 40.3617C49.3565 40.3617 47.1004 39.7675 45.1065 38.5792C43.1125 37.3908 41.5515 35.7125 40.4234 33.538C39.2954 31.3634 38.7344 28.8336 38.7344 25.9363C38.7344 23.039 39.2954 20.5521 40.4234 18.3653C41.5515 16.1785 43.1186 14.4879 45.1369 13.2996C47.1492 12.1113 49.4114 11.5171 51.9237 11.5171C55.6554 11.5171 58.6128 12.9627 60.7897 15.86L61.4543 11.9091H68.3264V39.694L68.3325 39.7001ZM60.6251 26.0588C60.6251 23.6454 59.997 21.6792 58.7409 20.16C57.4848 18.6409 55.8018 17.8753 53.6981 17.8753C51.5944 17.8753 49.8992 18.6287 48.6248 20.1294C47.3504 21.6301 46.7101 23.5903 46.7101 26.0037C46.7101 28.4171 47.3504 30.365 48.6248 31.8473C49.8992 33.3297 51.5883 34.077 53.6981 34.077C55.8079 34.077 57.4848 33.3358 58.7409 31.8473C59.997 30.365 60.6251 28.4294 60.6251 26.0588Z" fill="#F9F7F3"/>
<path d="M79.513 13.3885C81.6716 12.1818 84.1777 11.5815 87.0254 11.5815C89.873 11.5815 92.4462 12.1451 94.6475 13.2783C96.8487 14.4115 98.5622 16.0041 99.8 18.0684C101.038 20.1326 101.678 22.5522 101.715 25.3331C101.715 26.3377 101.642 27.2259 101.495 28.0038H80.824V28.2243C81.0069 30.3008 81.6716 31.9363 82.818 33.1246C83.9643 34.313 85.5314 34.9071 87.5315 34.9071C89.123 34.9071 90.4401 34.5641 91.495 33.878C92.5499 33.192 93.2389 32.1813 93.5743 30.846H101.276C100.983 32.7387 100.257 34.4477 99.1171 35.9668C97.9768 37.4859 96.4585 38.6865 94.5743 39.5563C92.6901 40.4261 90.5254 40.8671 88.0924 40.8671C84.9156 40.8671 82.1716 40.273 79.8606 39.0847C77.5495 37.8963 75.7751 36.1996 74.5373 33.9883C73.2995 31.777 72.6836 29.2105 72.6836 26.2764C72.6836 23.3423 73.2812 20.7145 74.4824 18.5094C75.6837 16.2981 77.3666 14.5952 79.5252 13.3885H79.513ZM91.7633 18.8463C90.5986 17.8968 89.1291 17.4252 87.3546 17.4252C85.5802 17.4252 84.2204 17.9152 83.0619 18.9014C81.9033 19.8876 81.2082 21.2107 80.9825 22.8829H93.8974C93.6413 21.1372 92.9279 19.7957 91.7633 18.8463Z" fill="#F9F7F3"/>
<path d="M133.744 24.9962V40.5303H125.926V25.4434C125.926 20.5063 124.006 18.0377 120.164 18.0377C118.134 18.0377 116.56 18.7238 115.451 20.0959C114.341 21.468 113.786 23.3975 113.786 25.8844V40.5303H105.969V11.9123H112.786L113.505 15.4773C114.506 14.2522 115.707 13.2967 117.109 12.6106C118.512 11.9246 120.25 11.5815 122.317 11.5815C125.64 11.5815 128.378 12.6229 130.518 14.6994C132.658 16.7759 133.732 20.2123 133.732 25.0023L133.744 24.9962Z" fill="#F9F7F3"/>
<path d="M183.916 4.39805C183.916 5.65988 183.489 6.71958 182.641 7.57101C181.794 8.42244 180.72 8.85122 179.428 8.85122C178.135 8.85122 177.056 8.42244 176.184 7.57101C175.318 6.71958 174.879 5.65988 174.879 4.39805C174.879 3.13621 175.312 2.08877 176.184 1.24958C177.05 0.416528 178.135 0 179.428 0C180.72 0 181.794 0.416528 182.641 1.24958C183.489 2.08264 183.916 3.13621 183.916 4.39805ZM183.306 11.9139V40.5319H175.489V11.9139H183.306Z" fill="#AD935E"/>
<path d="M194.327 11.9131L201.2 32.5129L207.962 11.9131H216.163L205.907 40.531H196.206L185.949 11.9131H194.321H194.327Z" fill="#AD935E"/>
<path d="M223.408 13.3885C225.566 12.1818 228.072 11.5815 230.92 11.5815C233.768 11.5815 236.341 12.1451 238.542 13.2783C240.743 14.4115 242.457 16.0041 243.695 18.0684C244.932 20.1326 245.573 22.5522 245.609 25.3331C245.609 26.3377 245.536 27.2259 245.39 28.0038H224.719V28.2243C224.901 30.3008 225.566 31.9363 226.712 33.1246C227.859 34.313 229.426 34.9071 231.426 34.9071C233.017 34.9071 234.335 34.5641 235.389 33.878C236.444 33.192 237.133 32.1813 237.469 30.846H245.17C244.871 32.7387 244.152 34.4477 243.012 35.9668C241.865 37.4859 240.353 38.6865 238.469 39.5563C236.585 40.4261 234.42 40.8671 231.987 40.8671C228.81 40.8671 226.066 40.273 223.755 39.0847C221.444 37.8963 219.67 36.1996 218.432 33.9883C217.194 31.777 216.578 29.2105 216.578 26.2764C216.578 23.3423 217.182 20.7145 218.377 18.5094C219.578 16.2981 221.261 14.5952 223.42 13.3885H223.408ZM235.658 18.8463C234.493 17.8968 233.024 17.4252 231.249 17.4252C229.475 17.4252 228.115 17.9152 226.956 18.9014C225.792 19.8876 225.103 21.2107 224.877 22.8829H237.792C237.536 21.1372 236.822 19.7957 235.658 18.8463Z" fill="#AD935E"/>
<path d="M267.219 19.0431H264.115C261.896 19.0431 260.274 19.7107 259.237 21.0461C258.201 22.3814 257.688 24.2007 257.688 26.5038V40.5371H249.871V11.9131H256.963L257.682 16.2009C258.53 14.792 259.585 13.7262 260.841 12.9973C262.097 12.2745 263.78 11.9131 265.884 11.9131H267.213V19.0369L267.219 19.0431Z" fill="#AD935E"/>
</svg>
