<svg width="228" height="44" viewBox="0 0 228 44" fill="none" xmlns="http://www.w3.org/2000/svg">
<path d="M136.648 27.5073C137.089 27.3829 137.524 27.2326 137.944 27.0667C142.837 25.1127 146.31 20.3597 146.377 14.7878C146.46 7.33956 140.142 1.24414 132.694 1.24414H118.129V8.0341H132.906C135.461 8.0341 137.887 9.41801 138.981 11.7297C139.183 12.1599 139.344 12.6109 139.453 13.0877C139.686 14.0881 139.701 15.1713 139.411 16.2961C138.722 18.9706 136.4 20.9972 133.653 21.2927C132.222 21.4482 130.869 21.1527 129.724 20.5359C129.148 20.2249 128.646 19.8103 128.184 19.349L127.702 18.8669C127.448 18.5611 127.225 18.2294 127.034 17.8821L131.828 13.0877H118.139V26.7765L122.156 22.7595L126.287 26.8905L136.4 37.5212H146.367L136.659 27.5021L136.648 27.5073Z" fill="#4D00DB"/>
<path d="M12.0613 1.31641H20.5409L32.5089 34.297H24.9259L22.381 27.0872H9.84804L7.3031 34.297H0L12.0613 1.31641ZM20.4476 21.3909L16.0679 8.85793L11.7347 21.3909H20.4528H20.4476Z" fill="#4D00DB"/>
<path d="M58.0908 33.5919C58.0908 36.764 57.0386 39.2934 54.9342 41.1749C52.8299 43.0616 49.5645 43.9998 45.1328 43.9998C41.7119 43.9998 38.9441 43.2482 36.8398 41.7399C34.7354 40.2316 33.6055 38.0961 33.45 35.3335H40.1414C40.4576 36.4945 41.0744 37.3912 42.0022 38.0184C42.93 38.6455 44.148 38.9617 45.6512 38.9617C47.5378 38.9617 48.9943 38.49 50.0309 37.5467C51.0676 36.6034 51.5859 35.2091 51.5859 33.3535V30.8086C49.8288 33.0373 47.3305 34.1517 44.0962 34.1517C41.9607 34.1517 40.043 33.649 38.3481 32.6434C36.6532 31.6379 35.3263 30.2177 34.3674 28.3777C33.4085 26.5376 32.9316 24.397 32.9316 21.9453C32.9316 19.4937 33.4085 17.3893 34.3674 15.5389C35.3263 13.6885 36.6583 12.258 38.374 11.2524C40.0844 10.2469 42.0074 9.74414 44.1429 9.74414C47.315 9.74414 49.8288 10.9674 51.6792 13.419L52.2442 10.0759H58.0856V33.5868L58.0908 33.5919ZM51.5393 22.049C51.5393 20.0068 51.0054 18.343 49.9377 17.0576C48.8699 15.7722 47.4394 15.1243 45.6512 15.1243C43.863 15.1243 42.422 15.7618 41.3388 17.0317C40.2555 18.3016 39.7112 19.9602 39.7112 22.0024C39.7112 24.0445 40.2555 25.6928 41.3388 26.9471C42.422 28.2014 43.8578 28.8338 45.6512 28.8338C47.4445 28.8338 48.8699 28.2066 49.9377 26.9471C51.0054 25.6928 51.5393 24.0549 51.5393 22.049Z" fill="#4D00DB"/>
<path d="M67.5884 11.3303C69.4232 10.3092 71.5535 9.80127 73.974 9.80127C76.3946 9.80127 78.5819 10.2781 80.453 11.237C82.3241 12.1959 83.7806 13.5435 84.8328 15.2903C85.885 17.037 86.4292 19.0843 86.4603 21.4375C86.4603 22.2875 86.3981 23.0391 86.2737 23.6974H68.7028V23.884C68.8582 25.6411 69.4232 27.025 70.3977 28.0305C71.3721 29.036 72.7042 29.5388 74.4042 29.5388C75.7571 29.5388 76.8766 29.2486 77.7733 28.668C78.67 28.0875 79.2557 27.2323 79.5408 26.1024H86.0871C85.8383 27.704 85.2215 29.1501 84.2523 30.4355C83.283 31.7209 81.9924 32.7368 80.3908 33.4728C78.7892 34.2089 76.9492 34.582 74.8811 34.582C72.1807 34.582 69.8482 34.0793 67.8838 33.0737C65.9194 32.0682 64.4111 30.6325 63.3589 28.7613C62.3067 26.8902 61.7832 24.7185 61.7832 22.2357C61.7832 19.753 62.2912 17.5294 63.3122 15.6634C64.3333 13.7923 65.7639 12.3514 67.5987 11.3303H67.5884ZM78.0014 15.9485C77.0114 15.1451 75.7622 14.746 74.2539 14.746C72.7456 14.746 71.5898 15.1607 70.605 15.9952C69.6202 16.8297 69.0293 17.9492 68.8375 19.3642H79.8155C79.5978 17.887 78.9914 16.7519 78.0014 15.9485Z" fill="#4D00DB"/>
<path d="M113.686 21.1524V34.297H107.041V21.5308C107.041 17.3532 105.408 15.2643 102.143 15.2643C100.417 15.2643 99.0794 15.8449 98.136 17.0059C97.1927 18.1669 96.721 19.7996 96.721 21.904V34.297H90.0762V10.0812H95.871L96.4826 13.0978C97.3326 12.0611 98.3537 11.2526 99.5458 10.672C100.738 10.0915 102.215 9.80127 103.972 9.80127C106.797 9.80127 109.124 10.6824 110.944 12.4395C112.763 14.1966 113.675 17.1044 113.675 21.1576L113.686 21.1524Z" fill="#4D00DB"/>
<path d="M156.332 3.72152C156.332 4.78926 155.969 5.68595 155.249 6.40641C154.528 7.12687 153.616 7.48969 152.517 7.48969C151.418 7.48969 150.501 7.12687 149.76 6.40641C149.024 5.68595 148.65 4.78926 148.65 3.72152C148.65 2.65379 149.018 1.76746 149.76 1.05737C150.496 0.352456 151.418 0 152.517 0C153.616 0 154.528 0.352456 155.249 1.05737C155.969 1.76228 156.332 2.65379 156.332 3.72152ZM155.814 10.0813V34.2971H149.169V10.0813H155.814Z" fill="#4D00DB"/>
<path d="M165.186 10.0811L171.028 27.5121L176.776 10.0811H183.747L175.029 34.2969H166.783L158.064 10.0811H165.181H165.186Z" fill="#4D00DB"/>
<path d="M189.899 11.3303C191.734 10.3092 193.864 9.80127 196.285 9.80127C198.705 9.80127 200.892 10.2781 202.764 11.237C204.635 12.1959 206.091 13.5435 207.143 15.2903C208.196 17.037 208.74 19.0843 208.771 21.4375C208.771 22.2875 208.709 23.0391 208.584 23.6974H191.013V23.884C191.169 25.6411 191.734 27.025 192.708 28.0305C193.683 29.036 195.015 29.5388 196.715 29.5388C198.068 29.5388 199.187 29.2486 200.084 28.668C200.981 28.0875 201.566 27.2323 201.851 26.1024H208.398C208.144 27.704 207.532 29.1501 206.563 30.4355C205.588 31.7209 204.303 32.7368 202.701 33.4728C201.1 34.2089 199.26 34.582 197.192 34.582C194.491 34.582 192.159 34.0793 190.194 33.0737C188.23 32.0682 186.722 30.6325 185.669 28.7613C184.617 26.8902 184.094 24.7185 184.094 22.2357C184.094 19.753 184.607 17.5294 185.623 15.6634C186.644 13.7923 188.074 12.3514 189.909 11.3303H189.899ZM200.312 15.9485C199.322 15.1451 198.073 14.746 196.564 14.746C195.056 14.746 193.9 15.1607 192.916 15.9952C191.926 16.8297 191.34 17.9492 191.148 19.3642H202.126C201.908 17.887 201.302 16.7519 200.312 15.9485Z" fill="#4D00DB"/>
<path d="M227.15 16.1143H224.512C222.626 16.1143 221.247 16.6792 220.366 17.8092C219.485 18.9391 219.049 20.4785 219.049 22.4274V34.302H212.404V10.0811H218.432L219.044 13.7093C219.764 12.5171 220.661 11.6153 221.729 10.9985C222.797 10.3869 224.227 10.0811 226.015 10.0811H227.145V16.1091L227.15 16.1143Z" fill="#4D00DB"/>
</svg>
