<svg width="206" height="40" viewBox="0 0 206 40" fill="none" xmlns="http://www.w3.org/2000/svg">
<path d="M123.658 25.0059C124.056 24.8928 124.45 24.7562 124.83 24.6054C129.258 22.829 132.401 18.5083 132.462 13.443C132.537 6.67202 126.819 1.13086 120.079 1.13086H106.898V7.30342H120.271C122.584 7.30342 124.779 8.56149 125.769 10.663C125.951 11.0541 126.097 11.464 126.195 11.8975C126.406 12.8069 126.42 13.7917 126.158 14.8141C125.534 17.2455 123.433 19.0878 120.947 19.3564C119.652 19.4977 118.428 19.2292 117.391 18.6685C116.871 18.3857 116.416 18.0088 115.998 17.5894L115.562 17.1512C115.332 16.8732 115.13 16.5717 114.957 16.256L119.296 11.8975H106.908V24.3416L110.543 20.6899L114.281 24.4452L123.433 34.1093H132.453L123.667 25.0012L123.658 25.0059Z" fill="#5587FF"/>
<path d="M10.9149 1.19727H18.5886L29.4191 31.1789H22.5568L20.2538 24.6247H8.91204L6.60898 31.1789H0L10.9149 1.19727ZM18.5042 19.4464L14.5407 8.05304L10.6194 19.4464H18.5089H18.5042Z" fill="#252C35"/>
<path d="M52.5648 30.5387C52.5648 33.4224 51.6126 35.7218 49.7082 37.4322C47.8039 39.1473 44.8488 40.0002 40.8384 40.0002C37.7427 40.0002 35.2379 39.3169 33.3335 37.9458C31.4292 36.5746 30.4066 34.6333 30.2659 32.1219H36.3214C36.6075 33.1774 37.1657 33.9925 38.0053 34.5627C38.8449 35.1328 39.9472 35.4202 41.3075 35.4202C43.0148 35.4202 44.3329 34.9914 45.271 34.1339C46.2091 33.2763 46.6781 32.0088 46.6781 30.322V28.0084C45.088 30.0345 42.8272 31.0476 39.9003 31.0476C37.9678 31.0476 36.2323 30.5905 34.6985 29.6764C33.1647 28.7623 31.9639 27.4713 31.0962 25.7986C30.2284 24.1259 29.7969 22.1798 29.7969 19.9511C29.7969 17.7224 30.2284 15.8094 31.0962 14.1273C31.9639 12.4451 33.1694 11.1446 34.7219 10.2305C36.2698 9.31643 38.01 8.85938 39.9425 8.85938C42.8131 8.85938 45.088 9.97138 46.7626 12.2001L47.2738 9.16094H52.5601V30.534L52.5648 30.5387ZM46.6359 20.0454C46.6359 18.1889 46.1528 16.6764 45.1866 15.5078C44.2203 14.3393 42.9257 13.7503 41.3075 13.7503C39.6892 13.7503 38.3853 14.3299 37.4049 15.4843C36.4246 16.6387 35.9321 18.1465 35.9321 20.003C35.9321 21.8594 36.4246 23.3578 37.4049 24.4981C38.3853 25.6384 39.6845 26.2132 41.3075 26.2132C42.9304 26.2132 44.2203 25.6431 45.1866 24.4981C46.1528 23.3578 46.6359 21.8689 46.6359 20.0454Z" fill="#252C35"/>
<path d="M61.1675 10.3002C62.8279 9.37192 64.7557 8.91016 66.9462 8.91016C69.1367 8.91016 71.1161 9.34365 72.8094 10.2153C74.5027 11.087 75.8207 12.3121 76.7729 13.9C77.7251 15.4879 78.2176 17.3491 78.2458 19.4883C78.2458 20.2611 78.1895 20.9443 78.0769 21.5427H62.1759V21.7123C62.3167 23.3096 62.8279 24.5677 63.7098 25.4818C64.5916 26.3959 65.797 26.853 67.3355 26.853C68.5598 26.853 69.5729 26.5891 70.3844 26.0614C71.1959 25.5337 71.7259 24.7562 71.9839 23.729H77.908C77.6829 25.185 77.1247 26.4996 76.2476 27.6681C75.3704 28.8367 74.2025 29.7602 72.7531 30.4293C71.3037 31.0984 69.6386 31.4376 67.7671 31.4376C65.3233 31.4376 63.2126 30.9806 61.4348 30.0665C59.6571 29.1524 58.2922 27.8472 57.34 26.1462C56.3878 24.4452 55.9141 22.4709 55.9141 20.2139C55.9141 17.957 56.3737 15.9356 57.2978 14.2393C58.2218 12.5383 59.5164 11.2284 61.1769 10.3002H61.1675ZM70.5908 14.4984C69.6949 13.7681 68.5645 13.4053 67.1995 13.4053C65.8346 13.4053 64.7886 13.7822 63.8974 14.5408C63.0062 15.2995 62.4714 16.3172 62.2979 17.6036H72.2325C72.0355 16.2607 71.4867 15.2288 70.5908 14.4984Z" fill="#252C35"/>
<path d="M102.881 19.2292V31.1785H96.8678V19.5731C96.8678 15.7754 95.3903 13.8765 92.4352 13.8765C90.8733 13.8765 89.6631 14.4042 88.8094 15.4597C87.9557 16.5151 87.5289 17.9994 87.5289 19.9124V31.1785H81.5156V9.1646H86.7597L87.3131 11.9069C88.0824 10.9645 89.0064 10.2295 90.0853 9.70175C91.1641 9.17402 92.5009 8.91016 94.091 8.91016C96.6473 8.91016 98.7534 9.71118 100.4 11.3085C102.046 12.9058 102.872 15.5492 102.872 19.2339L102.881 19.2292Z" fill="#252C35"/>
<path d="M141.475 3.38313C141.475 4.35377 141.146 5.16893 140.494 5.82388C139.843 6.47883 139.017 6.80866 138.023 6.80866C137.028 6.80866 136.198 6.47883 135.527 5.82388C134.861 5.16893 134.523 4.35377 134.523 3.38313C134.523 2.41248 134.856 1.60675 135.527 0.961222C136.193 0.320407 137.028 0 138.023 0C139.017 0 139.843 0.320407 140.494 0.961222C141.146 1.60204 141.475 2.41248 141.475 3.38313ZM141.006 9.1646V31.1785H134.992V9.1646H141.006Z" fill="#5587FF"/>
<path d="M149.484 9.16211L154.77 25.0081L159.972 9.16211H166.281L158.391 31.176H150.929L143.039 9.16211H149.479H149.484Z" fill="#5587FF"/>
<path d="M171.855 10.3002C173.515 9.37192 175.443 8.91016 177.634 8.91016C179.824 8.91016 181.804 9.34365 183.497 10.2153C185.19 11.087 186.508 12.3121 187.46 13.9C188.413 15.4879 188.905 17.3491 188.933 19.4883C188.933 20.2611 188.877 20.9443 188.764 21.5427H172.863V21.7123C173.004 23.3096 173.515 24.5677 174.397 25.4818C175.279 26.3959 176.485 26.853 178.023 26.853C179.247 26.853 180.26 26.5891 181.072 26.0614C181.883 25.5337 182.413 24.7562 182.671 23.729H188.596C188.366 25.185 187.812 26.4996 186.935 27.6681C186.053 28.8367 184.89 29.7602 183.441 30.4293C181.991 31.0984 180.326 31.4376 178.455 31.4376C176.011 31.4376 173.9 30.9806 172.122 30.0665C170.345 29.1524 168.98 27.8472 168.027 26.1462C167.075 24.4452 166.602 22.4709 166.602 20.2139C166.602 17.957 167.066 15.9356 167.985 14.2393C168.909 12.5383 170.204 11.2284 171.864 10.3002H171.855ZM181.278 14.4984C180.382 13.7681 179.252 13.4053 177.887 13.4053C176.522 13.4053 175.476 13.7822 174.585 14.5408C173.689 15.2995 173.159 16.3172 172.985 17.6036H182.92C182.723 16.2607 182.174 15.2288 181.278 14.4984Z" fill="#5587FF"/>
<path d="M205.556 14.6467H203.168C201.461 14.6467 200.213 15.1603 199.416 16.1875C198.618 17.2147 198.224 18.6141 198.224 20.3858V31.1807H192.211V9.16211H197.666L198.22 12.4604C198.872 11.3767 199.683 10.5568 200.649 9.99611C201.615 9.44011 202.91 9.16211 204.528 9.16211H205.551V14.642L205.556 14.6467Z" fill="#5587FF"/>
</svg>
