<svg width="238" height="52" viewBox="0 0 238 52" fill="none" xmlns="http://www.w3.org/2000/svg">
<path d="M31.6235 15.1809C35.8098 15.1809 39.2118 11.7746 39.2118 7.59263C39.2118 3.41062 35.8098 0 31.6235 0C27.4371 0 24.0352 3.40628 24.0352 7.5883C24.0352 11.7703 27.4414 15.1766 31.6235 15.1766V15.1809ZM31.6235 3.02925C34.1413 3.02925 36.1868 5.07476 36.1868 7.59263C36.1868 10.1105 34.1413 12.156 31.6235 12.156C29.1056 12.156 27.0601 10.1105 27.0601 7.59263C27.0601 5.07476 29.1056 3.02925 31.6235 3.02925Z" fill="#F7F5EF"/>
<path d="M48.0394 48.9756H15.2117C14.3753 48.9756 13.6992 49.6516 13.6992 50.488C13.6992 51.3244 14.3753 52.0005 15.2117 52.0005H48.0394C48.8758 52.0005 49.5519 51.3244 49.5519 50.488C49.5519 49.6516 48.8758 48.9756 48.0394 48.9756Z" fill="#F7F5EF"/>
<path d="M61.7378 27.155H60.299L55.3456 14.7346C55.9003 14.5092 56.2947 13.9632 56.2904 13.3261C56.286 12.4941 55.61 11.8223 54.7779 11.8223H54.7692C42.6566 11.9047 35.6923 15.181 31.714 18.5872C27.7616 15.1333 20.7714 11.7617 8.48537 11.6793C7.66197 11.61 6.96858 12.3467 6.95991 13.1831C6.95991 13.5472 7.10292 13.8722 7.31528 14.1365L2.90791 26.6262H1.51246C0.676056 26.6262 0 27.3023 0 28.1387C0 33.3305 4.22535 37.5558 9.41712 37.5558C14.6089 37.5558 18.8342 33.3305 18.8342 28.1387C18.8342 27.3023 18.1582 26.6262 17.3218 26.6262H15.883L11.1636 14.7909C20.7974 15.285 26.3835 18.0022 29.5731 20.7238C27.1983 23.5233 26.6262 25.9589 26.5742 26.1972C26.5525 26.3012 26.5395 26.4096 26.5395 26.5136V44.4421H21.3131C20.4767 44.4421 19.8006 45.1181 19.8006 45.9545C19.8006 46.7909 20.4767 47.467 21.3131 47.467H41.9372C42.7736 47.467 43.4496 46.7909 43.4496 45.9545C43.4496 45.1181 42.7736 44.4421 41.9372 44.4421H36.7107V26.3662C36.7107 26.2579 36.6977 26.1539 36.6761 26.0499C36.6241 25.8158 36.0737 23.4757 33.8202 20.7498C36.9837 18.1105 42.4139 15.506 51.6273 14.9599L47.3239 27.155H45.9285C45.0921 27.155 44.416 27.831 44.416 28.6674C44.416 33.8592 48.6414 38.0845 53.8332 38.0845C59.0249 38.0845 63.2503 33.8592 63.2503 28.6674C63.2503 27.831 62.5742 27.155 61.7378 27.155ZM9.41278 34.5309C6.40953 34.5309 3.88299 32.4507 3.2026 29.6512H15.623C14.9426 32.4464 12.416 34.5309 9.41278 34.5309ZM6.11484 26.6262L9.1701 17.9675L12.6197 26.6262H6.11484ZM29.5688 44.4421V26.6999C29.7031 26.2232 30.2145 24.6978 31.6836 22.8949C33.0661 24.6414 33.5558 26.1019 33.6858 26.5526V44.4377H29.5688V44.4421ZM53.5905 18.5006L57.0401 27.155H50.5352L53.5905 18.5006ZM53.8332 35.0596C50.8299 35.0596 48.3034 32.9794 47.623 30.1799H60.0433C59.3629 32.9751 56.8364 35.0596 53.8332 35.0596Z" fill="#F7F5EF"/>
<path d="M93.3777 28.5174L89.1654 18.4932L85.0064 28.5174H93.3777ZM77.666 37.8662V37.2086C78.6021 37.102 79.3012 36.7465 79.7633 36.1422C80.2372 35.5379 81.043 33.8968 82.1805 31.2189L89.7697 13.3566H90.4807L99.5451 33.9916C100.149 35.3661 100.629 36.2192 100.985 36.551C101.352 36.8709 101.962 37.0901 102.815 37.2086V37.8662H93.5555V37.2086C94.6219 37.1138 95.3091 37.0012 95.6172 36.8709C95.9253 36.7287 96.0793 36.391 96.0793 35.8578C96.0793 35.6801 96.0201 35.3661 95.9016 34.9158C95.7831 34.4656 95.6172 33.9916 95.4039 33.4939L93.8932 29.9926H84.3666C83.4187 32.3742 82.8499 33.8316 82.6604 34.3648C82.4826 34.8862 82.3938 35.3009 82.3938 35.609C82.3938 36.2251 82.6426 36.6517 83.1402 36.8887C83.4483 37.0309 84.0289 37.1375 84.882 37.2086V37.8662H77.666ZM107.01 41.1543C107.01 42.1496 107.567 42.8368 108.681 43.216C109.806 43.5952 111.092 43.7848 112.538 43.7848C114.504 43.7848 116.104 43.4411 117.336 42.7539C118.569 42.0785 119.185 41.2432 119.185 40.2479C119.185 39.454 118.687 38.9267 117.692 38.666C117.076 38.512 115.909 38.4231 114.19 38.3994C113.752 38.3876 113.29 38.3698 112.804 38.3461C112.318 38.3342 111.874 38.3165 111.471 38.2928C111.21 38.2809 110.79 38.2335 110.209 38.1506C109.629 38.0676 109.196 37.9965 108.912 37.9373C108.77 37.9373 108.42 38.3105 107.863 39.057C107.294 39.8154 107.01 40.5145 107.01 41.1543ZM109.321 31.8943C108.242 31.5389 107.401 30.9049 106.797 29.9926C106.204 29.0802 105.908 28.0553 105.908 26.9178C105.908 25.5314 106.459 24.2162 107.561 22.9721C108.663 21.7279 110.221 21.1059 112.235 21.1059C113.1 21.1059 114.054 21.3132 115.097 21.7279C116.14 22.1308 117.141 22.3322 118.101 22.3322C118.349 22.3322 118.723 22.3263 119.22 22.3145C119.73 22.2908 120.097 22.2789 120.322 22.2789H120.536V23.7186H117.461C117.674 24.2162 117.84 24.6487 117.958 25.016C118.16 25.7033 118.261 26.3549 118.261 26.9711C118.261 28.3219 117.698 29.566 116.572 30.7035C115.458 31.8292 113.953 32.392 112.058 32.392C111.761 32.392 111.228 32.3387 110.458 32.232C110.114 32.232 109.658 32.5223 109.089 33.1029C108.533 33.6835 108.254 34.1575 108.254 34.5248C108.254 34.904 108.669 35.1824 109.498 35.3602C110.043 35.4786 110.648 35.5379 111.311 35.5379C114.356 35.5379 116.424 35.7097 117.514 36.0533C119.303 36.6102 120.198 37.807 120.198 39.6436C120.198 41.5157 119.149 43.0087 117.052 44.1225C114.967 45.2363 112.857 45.7932 110.725 45.7932C108.781 45.7932 107.241 45.3962 106.104 44.6023C104.966 43.8203 104.397 42.9968 104.397 42.1318C104.397 41.7053 104.545 41.2846 104.842 40.8699C105.15 40.4671 105.748 39.8628 106.637 39.057L107.81 38.0084L108.023 37.7951C107.478 37.5818 107.069 37.3745 106.797 37.173C106.323 36.8057 106.086 36.3851 106.086 35.9111C106.086 35.4727 106.287 34.9928 106.69 34.4715C107.105 33.9383 107.982 33.0792 109.321 31.8943ZM112.697 31.5389C113.349 31.5389 113.894 31.3611 114.333 31.0057C115.044 30.4369 115.399 29.4475 115.399 28.0375C115.399 26.9118 115.109 25.644 114.528 24.234C113.959 22.824 113.006 22.1189 111.667 22.1189C110.505 22.1189 109.706 22.6699 109.267 23.7719C109.042 24.3525 108.929 25.0693 108.929 25.9225C108.929 27.368 109.279 28.6655 109.978 29.8148C110.677 30.9642 111.584 31.5389 112.697 31.5389ZM129.973 21.1947C131.644 21.1947 133.107 21.7753 134.363 22.9365C135.619 24.0859 136.247 25.721 136.247 27.842H124.961C125.08 30.591 125.702 32.5934 126.827 33.8494C127.953 35.1054 129.286 35.7334 130.826 35.7334C132.071 35.7334 133.119 35.4076 133.972 34.7559C134.825 34.1042 135.613 33.1799 136.336 31.9832L136.958 32.1965C136.472 33.7013 135.56 35.0936 134.221 36.3732C132.894 37.6529 131.265 38.2928 129.333 38.2928C127.106 38.2928 125.382 37.4515 124.161 35.7689C122.953 34.0864 122.348 32.1491 122.348 29.957C122.348 27.5754 123.053 25.5196 124.463 23.7896C125.874 22.0597 127.71 21.1947 129.973 21.1947ZM128.942 22.4922C127.592 22.4922 126.561 23.0906 125.85 24.2873C125.471 24.9271 125.198 25.7329 125.032 26.7045H132.533C132.402 25.5196 132.177 24.6368 131.857 24.0562C131.277 23.0135 130.305 22.4922 128.942 22.4922ZM138.469 37.3686C139.31 37.2619 139.897 37.0546 140.229 36.7465C140.572 36.4266 140.744 35.7215 140.744 34.6314V25.6203C140.744 24.862 140.673 24.3288 140.531 24.0207C140.306 23.5704 139.843 23.3453 139.144 23.3453C139.038 23.3453 138.925 23.3512 138.807 23.3631C138.7 23.3749 138.564 23.3927 138.398 23.4164V22.7943C138.884 22.6521 140.033 22.2848 141.846 21.6924L143.517 21.1414C143.6 21.1414 143.647 21.171 143.659 21.2303C143.682 21.2895 143.694 21.3725 143.694 21.4791V24.0918C144.784 23.0728 145.638 22.3737 146.254 21.9945C147.178 21.4139 148.138 21.1236 149.133 21.1236C149.939 21.1236 150.673 21.3547 151.337 21.8168C152.617 22.7173 153.256 24.3229 153.256 26.6334V34.9336C153.256 35.7867 153.428 36.4029 153.772 36.782C154.116 37.1612 154.69 37.3567 155.496 37.3686V37.8662H147.907V37.3686C148.772 37.2501 149.376 37.0131 149.72 36.6576C150.063 36.2903 150.235 35.5023 150.235 34.2937V26.7045C150.235 25.6855 150.045 24.8442 149.666 24.1807C149.287 23.5053 148.588 23.1676 147.569 23.1676C146.87 23.1676 146.159 23.4046 145.436 23.8785C145.033 24.151 144.512 24.6013 143.872 25.2293V35.1824C143.872 36.0355 144.062 36.6102 144.441 36.9064C144.82 37.1908 145.418 37.3449 146.236 37.3686V37.8662H138.469V37.3686ZM163.245 25.407C165.864 25.3122 167.736 25.0397 168.862 24.5895C170.793 23.7956 171.759 22.3026 171.759 20.1105C171.759 18.0014 170.894 16.5618 169.164 15.7916C168.239 15.3769 167.013 15.1695 165.485 15.1695C164.454 15.1695 163.82 15.2465 163.583 15.4006C163.358 15.5428 163.245 15.8864 163.245 16.4314V25.407ZM156.42 37.2086C157.818 37.0783 158.689 36.8057 159.033 36.391C159.376 35.9763 159.548 35.0106 159.548 33.4939V17.7289C159.548 16.4492 159.353 15.6139 158.962 15.2229C158.583 14.82 157.735 14.5652 156.42 14.4586V13.7832H166.498C168.595 13.7832 170.343 14.0498 171.741 14.583C174.395 15.5902 175.722 17.4445 175.722 20.1461C175.722 21.959 175.13 23.3512 173.945 24.3229C172.772 25.2945 171.172 25.9343 169.146 26.2424L176.646 35.4668C177.108 36.0355 177.571 36.4503 178.033 36.7109C178.495 36.9716 179.087 37.1375 179.81 37.2086V37.8662H173.945L165.271 26.6689L163.245 26.7578V33.9205C163.245 35.2713 163.447 36.1303 163.849 36.4977C164.264 36.8531 165.159 37.0901 166.533 37.2086V37.8662H156.42V37.2086ZM183.276 14.9207C183.276 14.4112 183.454 13.9728 183.809 13.6055C184.164 13.2382 184.603 13.0545 185.124 13.0545C185.634 13.0545 186.066 13.2382 186.422 13.6055C186.789 13.9609 186.973 14.3993 186.973 14.9207C186.973 15.4302 186.789 15.8686 186.422 16.2359C186.066 16.5914 185.634 16.7691 185.124 16.7691C184.603 16.7691 184.164 16.5914 183.809 16.2359C183.454 15.8686 183.276 15.4302 183.276 14.9207ZM181.001 37.3686C182.269 37.2501 183.068 37.0368 183.4 36.7287C183.732 36.4088 183.898 35.5557 183.898 34.1693V25.6914C183.898 24.9212 183.845 24.388 183.738 24.0918C183.56 23.606 183.187 23.3631 182.618 23.3631C182.488 23.3631 182.357 23.3749 182.227 23.3986C182.109 23.4223 181.753 23.5171 181.161 23.683V23.132L181.925 22.8832C183.999 22.2078 185.444 21.6983 186.262 21.3547C186.593 21.2125 186.807 21.1414 186.902 21.1414C186.925 21.2243 186.937 21.3132 186.937 21.408V34.1693C186.937 35.5201 187.097 36.3673 187.417 36.7109C187.749 37.0546 188.489 37.2738 189.639 37.3686V37.8662H181.001V37.3686ZM198.241 21.3547V21.9057C197.625 21.9768 197.186 22.0715 196.926 22.19C196.677 22.3085 196.553 22.5692 196.553 22.9721C196.553 23.1617 196.576 23.3453 196.624 23.523C196.683 23.6889 196.778 23.9378 196.908 24.2695L200.605 33.4584L203.804 25.3182C203.958 24.9271 204.1 24.5184 204.231 24.0918C204.373 23.6652 204.444 23.3394 204.444 23.1143C204.444 22.6521 204.225 22.3204 203.786 22.1189C203.526 22.0123 203.17 21.9412 202.72 21.9057V21.3547H207.768V21.9057C207.187 21.9531 206.766 22.1486 206.506 22.4922C206.257 22.824 205.89 23.6001 205.404 24.8205L200.267 37.6174C200.172 37.8425 200.095 37.9965 200.036 38.0795C199.977 38.1624 199.894 38.2039 199.787 38.2039C199.669 38.2039 199.568 38.1328 199.485 37.9906C199.402 37.8603 199.313 37.6944 199.219 37.493L193.78 24.4828C193.341 23.4283 192.873 22.7114 192.376 22.3322C192.08 22.1189 191.647 21.9768 191.078 21.9057V21.3547H198.241ZM216.956 21.1947C218.627 21.1947 220.091 21.7753 221.346 22.9365C222.602 24.0859 223.23 25.721 223.23 27.842H211.944C212.063 30.591 212.685 32.5934 213.811 33.8494C214.936 35.1054 216.269 35.7334 217.81 35.7334C219.054 35.7334 220.102 35.4076 220.955 34.7559C221.809 34.1042 222.597 33.1799 223.319 31.9832L223.941 32.1965C223.456 33.7013 222.543 35.0936 221.204 36.3732C219.877 37.6529 218.248 38.2928 216.317 38.2928C214.089 38.2928 212.365 37.4515 211.145 35.7689C209.936 34.0864 209.332 32.1491 209.332 29.957C209.332 27.5754 210.037 25.5196 211.447 23.7896C212.857 22.0597 214.693 21.1947 216.956 21.1947ZM215.926 22.4922C214.575 22.4922 213.544 23.0906 212.833 24.2873C212.454 24.9271 212.181 25.7329 212.015 26.7045H219.516C219.385 25.5196 219.16 24.6368 218.84 24.0562C218.26 23.0135 217.288 22.4922 215.926 22.4922ZM224.955 37.2797C226.045 37.1849 226.767 36.9953 227.123 36.7109C227.478 36.4147 227.656 35.7926 227.656 34.8447V26.8289C227.656 25.6559 227.543 24.8205 227.318 24.3229C227.105 23.8133 226.708 23.5586 226.128 23.5586C226.009 23.5586 225.849 23.5764 225.648 23.6119C225.458 23.6356 225.257 23.6712 225.043 23.7186V23.132C225.719 22.8951 226.412 22.6521 227.123 22.4033C227.834 22.1545 228.326 21.9768 228.598 21.8701C229.191 21.645 229.801 21.3902 230.429 21.1059C230.512 21.1059 230.559 21.1355 230.571 21.1947C230.595 21.254 230.606 21.3784 230.606 21.568V24.4828C231.365 23.4283 232.093 22.6048 232.793 22.0123C233.504 21.4199 234.238 21.1236 234.996 21.1236C235.601 21.1236 236.093 21.3073 236.472 21.6746C236.851 22.0301 237.04 22.4803 237.04 23.0254C237.04 23.5112 236.892 23.92 236.596 24.2518C236.312 24.5835 235.95 24.7494 235.512 24.7494C235.062 24.7494 234.605 24.5421 234.143 24.1273C233.693 23.7126 233.338 23.5053 233.077 23.5053C232.662 23.5053 232.153 23.843 231.548 24.5184C230.944 25.1819 230.642 25.8691 230.642 26.5801V34.5959C230.642 35.6149 230.879 36.3258 231.353 36.7287C231.827 37.1197 232.615 37.3034 233.717 37.2797V37.8662H224.955V37.2797Z" fill="#F7F5EF"/>
</svg>
