<svg width="214" height="48" viewBox="0 0 214 48" fill="none" xmlns="http://www.w3.org/2000/svg">
<path d="M201.374 26.4747V34.6182H196.875V13.3967H203.051C205.922 13.3967 208.05 13.9235 209.437 14.9771C210.835 16.0199 211.533 17.6109 211.533 19.7503C211.533 20.9973 211.189 22.11 210.501 23.0883C209.824 24.0559 208.851 24.8191 207.582 25.3782C210.775 30.1406 212.856 33.2207 213.823 34.6182H208.824L203.761 26.4747H201.374ZM201.374 17.0895V22.8142H202.825C204.244 22.8142 205.293 22.5777 205.97 22.1046C206.647 21.6316 206.986 20.8952 206.986 19.8954C206.986 18.8956 206.642 18.1807 205.954 17.7507C205.277 17.3099 204.201 17.0895 202.729 17.0895H201.374Z" fill="#010101"/>
<path d="M193.723 30.9093V34.6182H181.516V13.3967H193.723V17.0895H186.015V21.7499H193.191V25.4265H186.015V30.9093H193.723Z" fill="#010101"/>
<path d="M171.561 26.0232L175.576 13.3967H180.123L172.915 34.6182H167.997L160.805 13.3967H165.352L169.335 26.0232C169.529 26.679 169.749 27.5229 169.996 28.5549C170.254 29.587 170.41 30.3019 170.464 30.6997C170.582 29.7321 170.948 28.1733 171.561 26.0232Z" fill="#010101"/>
<path d="M159.413 34.6182H154.914V13.3967H159.413V34.6182Z" fill="#010101"/>
<path d="M141.062 34.6182V26.4747H143.448L148.512 34.6182H153.511C152.543 33.2207 150.463 30.1406 147.27 25.3782C148.539 24.8191 149.511 24.0559 150.189 23.0883C150.877 22.11 151.221 20.9973 151.221 19.7503C151.221 17.6109 149.124 14.9771 149.124 14.9771L145.641 17.7507C146.329 18.1807 146.673 18.8956 146.673 19.8954C146.673 20.8952 146.335 21.6316 145.657 22.1046C144.98 22.5777 143.932 22.8142 142.513 22.8142H141.062V13.3967H136.562V34.6182H141.062Z" fill="#2DFFA6"/>
<path d="M132.491 13.3967V34.6182H126.766L117.542 18.5731H117.413C117.596 21.4757 117.687 23.4968 117.687 24.6364V34.6182H113.672V13.3967H119.332L128.556 29.2967H128.653C128.513 26.6413 128.443 24.6901 128.443 23.4431V13.3967H132.491Z" fill="#010101"/>
<path d="M110.52 30.9093V34.6182H98.3125V13.3967H110.52V17.0895H102.812V21.7499H109.988V25.4265H102.812V30.9093H110.52Z" fill="#010101"/>
<path d="M86.1075 26.442V22.7008H94.5252V33.6986C92.0956 34.5048 89.58 34.908 86.9783 34.908C83.7854 34.908 81.3397 33.9673 79.6411 32.086C77.9533 30.2046 77.1094 27.5331 77.1094 24.0715C77.1094 20.5991 78.0877 17.9007 80.0443 15.9764C82.0224 14.052 84.7422 13.0898 88.2039 13.0898C90.3862 13.0898 92.4826 13.5252 94.4929 14.396L93.0094 18.0082C91.4613 17.2342 89.8487 16.8471 88.1716 16.8471C86.2366 16.8471 84.6777 17.5029 83.4952 18.8145C82.3234 20.1153 81.7375 21.8945 81.7375 24.1521C81.7375 26.399 82.2105 28.1298 83.1565 29.3446C84.1026 30.5594 85.4733 31.1668 87.2686 31.1668C88.2039 31.1668 89.1553 31.0701 90.1229 30.8766V26.442H86.1075Z" fill="#010101"/>
<path d="M77.2385 34.6185H72.3847L70.8527 29.5712H63.1124L61.5804 34.6185H56.7266L64.2089 13.3164H69.7078L77.2385 34.6185ZM64.2412 25.7977H69.7723L67.3696 18.0413C67.1976 17.4607 67.0685 16.9823 66.9825 16.6061C66.6923 17.7671 65.7785 20.831 64.2412 25.7977Z" fill="#010101"/>
<path d="M0.747476 22.2092C0.742248 22.2145 0.731791 22.2145 0.726562 22.2145V22.2197C0.726562 22.2249 0.731792 22.2249 0.731792 22.2249C0.904322 22.2615 1.07685 22.2981 1.24938 22.3295C1.07685 22.2877 0.914777 22.2458 0.747476 22.2092ZM0.747476 22.2092C0.742248 22.2145 0.731791 22.2145 0.726562 22.2145V22.2197C0.726562 22.2249 0.731792 22.2249 0.731792 22.2249C0.904322 22.2615 1.07685 22.2981 1.24938 22.3295C1.07685 22.2877 0.914777 22.2458 0.747476 22.2092ZM0.747476 22.2092C0.742248 22.2145 0.731791 22.2145 0.726562 22.2145V22.2197C0.726562 22.2249 0.731792 22.2249 0.731792 22.2249C0.904322 22.2615 1.07685 22.2981 1.24938 22.3295C1.07685 22.2877 0.914777 22.2458 0.747476 22.2092ZM0.747476 22.2092C0.742248 22.2145 0.731791 22.2145 0.726562 22.2145V22.2197C0.726562 22.2249 0.731792 22.2249 0.731792 22.2249C0.904322 22.2615 1.07685 22.2981 1.24938 22.3295C1.07685 22.2877 0.914777 22.2458 0.747476 22.2092ZM0.747476 22.2092C0.742248 22.2145 0.731791 22.2145 0.726562 22.2145V22.2197C0.726562 22.2249 0.731792 22.2249 0.731792 22.2249C0.904322 22.2615 1.07685 22.2981 1.24938 22.3295C1.07685 22.2877 0.914777 22.2458 0.747476 22.2092Z" fill="#FF275A"/>
<path d="M22.9306 7.46037C22.9306 9.77646 22.6849 12.0246 22.2196 14.1629C21.7595 16.296 21.0799 18.3245 20.2224 20.2171C18.3455 21.0693 16.3327 21.7438 14.2205 22.2038C12.0613 22.6744 9.79745 22.9253 7.46046 22.9253C5.32736 22.9253 3.24655 22.7162 1.25461 22.3189C1.24938 22.3189 1.24415 22.3136 1.24415 22.3136C1.07685 22.277 0.914777 22.2352 0.747476 22.1986C0.914777 22.162 1.07685 22.1254 1.24415 22.0836C1.07162 22.115 0.899092 22.1516 0.726562 22.1882C1.94473 16.5888 4.64247 11.7057 8.29174 8.18709C11.8051 4.57965 16.6568 1.91328 22.2144 0.705566V0.710795C22.2196 0.721251 22.2196 0.731707 22.2196 0.742164C22.6849 2.89617 22.9306 5.14429 22.9306 7.46037Z" fill="#FF275A"/>
<path d="M1.24157 22.3236C1.06904 22.2922 0.896507 22.2557 0.723977 22.2191C0.723977 22.2191 0.71875 22.2191 0.71875 22.2138V22.2086C0.723978 22.2086 0.734435 22.2086 0.739663 22.2034C0.912193 22.2452 1.07427 22.287 1.24157 22.3236Z" fill="#FF275A"/>
<path d="M22.2119 0.716261C20.0579 0.250953 17.8045 0 15.478 0C10.8563 0 6.50644 0.982898 2.71601 2.7082C0.99071 6.49863 0.0078125 10.8485 0.0078125 15.4702C0.0078125 17.7967 0.258765 20.0553 0.724073 22.2041C0.724073 22.1989 0.729302 22.1989 0.729302 22.1989C1.94747 16.5995 4.64521 11.7164 8.29448 8.19779C11.8078 4.59034 16.6596 1.92397 22.2171 0.716261H22.2119Z" fill="#DFE0DF"/>
<path d="M25.7687 0.73771C25.7635 0.732481 25.7635 0.722025 25.7635 0.716797H25.7582C25.753 0.716797 25.753 0.722025 25.753 0.722025C25.7164 0.894555 25.6798 1.06708 25.6484 1.23961C25.6955 1.07231 25.7321 0.905011 25.7687 0.73771ZM25.7687 0.73771C25.7635 0.732481 25.7635 0.722025 25.7635 0.716797H25.7582C25.753 0.716797 25.753 0.722025 25.753 0.722025C25.7164 0.894555 25.6798 1.06708 25.6484 1.23961C25.6955 1.07231 25.7321 0.905011 25.7687 0.73771ZM25.7687 0.73771C25.7635 0.732481 25.7635 0.722025 25.7635 0.716797H25.7582C25.753 0.716797 25.753 0.722025 25.753 0.722025C25.7164 0.894555 25.6798 1.06708 25.6484 1.23961C25.6955 1.07231 25.7321 0.905011 25.7687 0.73771ZM25.7687 0.73771C25.7635 0.732481 25.7635 0.722025 25.7635 0.716797H25.7582C25.753 0.716797 25.753 0.722025 25.753 0.722025C25.7164 0.894555 25.6798 1.06708 25.6484 1.23961C25.6955 1.07231 25.7321 0.905011 25.7687 0.73771ZM25.7687 0.73771C25.7635 0.732481 25.7635 0.722025 25.7635 0.716797H25.7582C25.753 0.716797 25.753 0.722025 25.753 0.722025C25.7164 0.894555 25.6798 1.06708 25.6484 1.23961C25.6955 1.07231 25.7321 0.905011 25.7687 0.73771Z" fill="#8811FF"/>
<path d="M40.5301 22.9313C38.214 22.9313 35.9659 22.6856 33.8223 22.2203C31.684 21.7602 29.6555 21.0806 27.7629 20.2179C26.9107 18.341 26.2363 16.3281 25.7762 14.2107C25.3056 12.0515 25.0547 9.78246 25.0547 7.45069C25.0547 5.31237 25.2638 3.23678 25.6612 1.24484C25.6612 1.23961 25.6664 1.23439 25.6664 1.23439C25.703 1.06708 25.7448 0.905011 25.7814 0.73771C25.818 0.905011 25.8546 1.06708 25.8964 1.23439C25.8651 1.06186 25.8285 0.889327 25.7919 0.716797C31.3965 1.93496 36.2796 4.63793 39.7982 8.28197C43.4056 11.8005 46.072 16.6471 47.2797 22.2098H47.2745C47.264 22.2151 47.2535 22.2151 47.2431 22.2151C45.0943 22.6856 42.8462 22.9313 40.5301 22.9313Z" fill="#8811FF"/>
<path d="M25.6641 1.23571C25.6954 1.06318 25.732 0.890649 25.7686 0.718119C25.7686 0.718119 25.7686 0.712891 25.7739 0.712891H25.7791C25.7791 0.718119 25.7791 0.728575 25.7843 0.733803C25.7373 0.906333 25.7007 1.07363 25.6641 1.23571Z" fill="#8811FF"/>
<path d="M47.2769 22.2145C47.7422 20.0658 47.9932 17.8072 47.9932 15.4806C47.9932 10.8537 47.0103 6.50386 45.2798 2.71343C41.4841 0.982898 37.1395 0 32.5126 0C30.186 0 27.9274 0.250953 25.7734 0.716261C25.7787 0.716261 25.7787 0.721489 25.7787 0.721489C31.3833 1.93965 36.2664 4.64262 39.785 8.28667C43.3924 11.8052 46.0588 16.6518 47.2665 22.2145H47.2769Z" fill="#DFE0DF"/>
<path d="M47.2519 25.7843C47.2571 25.7791 47.2676 25.7791 47.2728 25.7791V25.7739C47.2728 25.7686 47.2676 25.7686 47.2676 25.7686C47.0951 25.732 46.9225 25.6954 46.75 25.6641C46.9225 25.7111 47.0898 25.7477 47.2519 25.7843ZM47.2519 25.7843C47.2571 25.7791 47.2676 25.7791 47.2728 25.7791V25.7739C47.2728 25.7686 47.2676 25.7686 47.2676 25.7686C47.0951 25.732 46.9225 25.6954 46.75 25.6641C46.9225 25.7111 47.0898 25.7477 47.2519 25.7843ZM47.2519 25.7843C47.2571 25.7791 47.2676 25.7791 47.2728 25.7791V25.7739C47.2728 25.7686 47.2676 25.7686 47.2676 25.7686C47.0951 25.732 46.9225 25.6954 46.75 25.6641C46.9225 25.7111 47.0898 25.7477 47.2519 25.7843ZM47.2519 25.7843C47.2571 25.7791 47.2676 25.7791 47.2728 25.7791V25.7739C47.2728 25.7686 47.2676 25.7686 47.2676 25.7686C47.0951 25.732 46.9225 25.6954 46.75 25.6641C46.9225 25.7111 47.0898 25.7477 47.2519 25.7843ZM47.2519 25.7843C47.2571 25.7791 47.2676 25.7791 47.2728 25.7791V25.7739C47.2728 25.7686 47.2676 25.7686 47.2676 25.7686C47.0951 25.732 46.9225 25.6954 46.75 25.6641C46.9225 25.7111 47.0898 25.7477 47.2519 25.7843Z" fill="#FF275A"/>
<path d="M25.0703 40.5333C25.0703 38.2172 25.316 35.9691 25.7813 33.8308C26.2414 31.6977 26.9211 29.6692 27.7785 27.7766C29.6554 26.9244 31.6683 26.2499 33.7805 25.7898C35.9397 25.3193 38.2035 25.0684 40.5405 25.0684C42.6736 25.0684 44.7544 25.2775 46.7463 25.6748C46.7516 25.6748 46.7568 25.6801 46.7568 25.6801C46.9241 25.7167 47.0862 25.7585 47.2535 25.7951C47.0862 25.8317 46.9241 25.8683 46.7568 25.9101C46.9293 25.8787 47.1019 25.8421 47.2744 25.8055C46.0562 31.4049 43.3585 36.288 39.7092 39.8066C36.1959 43.414 31.3441 46.0804 25.7866 47.2881V47.2829C25.7813 47.2724 25.7813 47.262 25.7813 47.2515C25.316 45.1027 25.0703 42.8494 25.0703 40.5333Z" fill="#FF275A"/>
<path d="M46.7578 25.6755C46.9303 25.7069 47.1029 25.7435 47.2754 25.7801C47.2754 25.7801 47.2806 25.7801 47.2806 25.7853V25.7906C47.2754 25.7906 47.2649 25.7906 47.2597 25.7958C47.0924 25.7487 46.9251 25.7121 46.7578 25.6755Z" fill="#FF275A"/>
<path d="M25.7943 47.2827C27.9431 47.7481 30.2016 47.999 32.5282 47.999C37.1499 47.999 41.4997 47.0161 45.2902 45.2908C47.0155 41.5004 47.9984 37.1505 47.9984 32.5288C47.9984 30.2023 47.7474 27.9437 47.2821 25.7949C47.2821 25.8002 47.2769 25.8001 47.2769 25.8001C46.0587 31.3995 43.361 36.2826 39.7117 39.8012C36.1984 43.4087 31.3466 46.075 25.7891 47.2827H25.7943Z" fill="#DFE0DF"/>
<path d="M22.2188 47.2597C22.224 47.2649 22.224 47.2754 22.224 47.2806H22.2292C22.2344 47.2806 22.2344 47.2754 22.2344 47.2754C22.271 47.1029 22.3076 46.9303 22.339 46.7578C22.2972 46.9303 22.2553 47.0976 22.2188 47.2597ZM22.2188 47.2597C22.224 47.2649 22.224 47.2754 22.224 47.2806H22.2292C22.2344 47.2806 22.2344 47.2754 22.2344 47.2754C22.271 47.1029 22.3076 46.9303 22.339 46.7578C22.2972 46.9303 22.2553 47.0976 22.2188 47.2597ZM22.2188 47.2597C22.224 47.2649 22.224 47.2754 22.224 47.2806H22.2292C22.2344 47.2806 22.2344 47.2754 22.2344 47.2754C22.271 47.1029 22.3076 46.9303 22.339 46.7578C22.2972 46.9303 22.2553 47.0976 22.2188 47.2597ZM22.2188 47.2597C22.224 47.2649 22.224 47.2754 22.224 47.2806H22.2292C22.2344 47.2806 22.2344 47.2754 22.2344 47.2754C22.271 47.1029 22.3076 46.9303 22.339 46.7578C22.2972 46.9303 22.2553 47.0976 22.2188 47.2597ZM22.2188 47.2597C22.224 47.2649 22.224 47.2754 22.224 47.2806H22.2292C22.2344 47.2806 22.2344 47.2754 22.2344 47.2754C22.271 47.1029 22.3076 46.9303 22.339 46.7578C22.2972 46.9303 22.2553 47.0976 22.2188 47.2597Z" fill="#8811FF"/>
<path d="M7.46833 25.0645C9.78441 25.0645 12.0325 25.3102 14.1761 25.7755C16.3144 26.2356 18.3429 26.9152 20.2355 27.7779C21.0877 29.6548 21.7622 31.6676 22.2223 33.7851C22.6928 35.9443 22.9437 38.2133 22.9437 40.5451C22.9437 42.6834 22.7346 44.759 22.3373 46.7509C22.3373 46.7562 22.332 46.7614 22.332 46.7614C22.2954 46.9287 22.2536 47.0908 22.217 47.2581C22.1804 47.0908 22.1438 46.9287 22.102 46.7614C22.1334 46.9339 22.17 47.1065 22.2066 47.279C16.602 46.0608 11.7188 43.3579 8.20028 39.7138C4.59283 36.1952 1.92646 31.3487 0.71875 25.7859H0.723977C0.734434 25.7807 0.744891 25.7807 0.755347 25.7807C2.8989 25.3102 5.15225 25.0645 7.46833 25.0645Z" fill="#8811FF"/>
<path d="M22.339 46.7617C22.3076 46.9342 22.271 47.1068 22.2344 47.2793C22.2344 47.2793 22.2344 47.2845 22.2292 47.2845H22.224C22.224 47.2793 22.224 47.2689 22.2188 47.2636C22.2606 47.0963 22.3024 46.929 22.339 46.7617Z" fill="#8811FF"/>
<path d="M0.71626 25.7852C0.250952 27.9339 0 30.1925 0 32.5191C0 37.146 0.982897 41.4958 2.71342 45.2863C6.50385 47.0116 10.8537 47.9997 15.4806 47.9997C17.8072 47.9997 20.0658 47.7487 22.2198 47.2834C22.2145 47.2834 22.2145 47.2782 22.2145 47.2782C16.6099 46.06 11.7268 43.3571 8.20824 39.713C4.6008 36.1945 1.93443 31.3479 0.726717 25.7852H0.71626Z" fill="#DFE0DF"/>
</svg>
