<svg width="238" height="52" viewBox="0 0 238 52" fill="none" xmlns="http://www.w3.org/2000/svg">
<path d="M31.6235 15.1809C35.8098 15.1809 39.2118 11.7746 39.2118 7.59263C39.2118 3.41062 35.8098 0 31.6235 0C27.4371 0 24.0352 3.40628 24.0352 7.5883C24.0352 11.7703 27.4414 15.1766 31.6235 15.1766V15.1809ZM31.6235 3.02925C34.1413 3.02925 36.1868 5.07476 36.1868 7.59263C36.1868 10.1105 34.1413 12.156 31.6235 12.156C29.1056 12.156 27.0601 10.1105 27.0601 7.59263C27.0601 5.07476 29.1056 3.02925 31.6235 3.02925Z" fill="#2A3B4E"/>
<path d="M48.0394 48.9751H15.2117C14.3753 48.9751 13.6992 49.6512 13.6992 50.4876C13.6992 51.324 14.3753 52 15.2117 52H48.0394C48.8758 52 49.5519 51.324 49.5519 50.4876C49.5519 49.6512 48.8758 48.9751 48.0394 48.9751Z" fill="#2A3B4E"/>
<path d="M61.7378 27.155H60.299L55.3456 14.7346C55.9003 14.5092 56.2947 13.9632 56.2904 13.3261C56.286 12.4941 55.61 11.8223 54.7779 11.8223H54.7692C42.6566 11.9047 35.6923 15.181 31.714 18.5872C27.7616 15.1333 20.7714 11.7617 8.48537 11.6793C7.66197 11.61 6.96858 12.3467 6.95991 13.1831C6.95991 13.5472 7.10292 13.8722 7.31528 14.1365L2.90791 26.6262H1.51246C0.676056 26.6262 0 27.3023 0 28.1387C0 33.3305 4.22535 37.5558 9.41712 37.5558C14.6089 37.5558 18.8342 33.3305 18.8342 28.1387C18.8342 27.3023 18.1582 26.6262 17.3218 26.6262H15.883L11.1636 14.7909C20.7974 15.285 26.3835 18.0022 29.5731 20.7238C27.1983 23.5233 26.6262 25.9589 26.5742 26.1972C26.5525 26.3012 26.5395 26.4096 26.5395 26.5136V44.4421H21.3131C20.4767 44.4421 19.8006 45.1181 19.8006 45.9545C19.8006 46.7909 20.4767 47.467 21.3131 47.467H41.9372C42.7736 47.467 43.4496 46.7909 43.4496 45.9545C43.4496 45.1181 42.7736 44.4421 41.9372 44.4421H36.7107V26.3662C36.7107 26.2579 36.6977 26.1539 36.6761 26.0499C36.6241 25.8158 36.0737 23.4757 33.8202 20.7498C36.9837 18.1105 42.4139 15.506 51.6273 14.9599L47.3239 27.155H45.9285C45.0921 27.155 44.416 27.831 44.416 28.6674C44.416 33.8592 48.6414 38.0845 53.8332 38.0845C59.0249 38.0845 63.2503 33.8592 63.2503 28.6674C63.2503 27.831 62.5742 27.155 61.7378 27.155ZM9.41278 34.5309C6.40953 34.5309 3.88299 32.4507 3.2026 29.6512H15.623C14.9426 32.4464 12.416 34.5309 9.41278 34.5309ZM6.11484 26.6262L9.1701 17.9675L12.6197 26.6262H6.11484ZM29.5688 44.4421V26.6999C29.7031 26.2232 30.2145 24.6978 31.6836 22.8949C33.0661 24.6414 33.5558 26.1019 33.6858 26.5526V44.4377H29.5688V44.4421ZM53.5905 18.5006L57.0401 27.155H50.5352L53.5905 18.5006ZM53.8332 35.0596C50.8299 35.0596 48.3034 32.9794 47.623 30.1799H60.0433C59.3629 32.9751 56.8364 35.0596 53.8332 35.0596Z" fill="#2A3B4E"/>
<path d="M93.3777 28.5179L89.1654 18.4937L85.0064 28.5179H93.3777ZM77.666 37.8667V37.2091C78.6021 37.1024 79.3012 36.747 79.7633 36.1427C80.2372 35.5384 81.043 33.8973 82.1805 31.2194L89.7697 13.3571H90.4807L99.5451 33.9921C100.149 35.3666 100.629 36.2197 100.985 36.5515C101.352 36.8714 101.962 37.0906 102.815 37.2091V37.8667H93.5555V37.2091C94.6219 37.1143 95.3091 37.0017 95.6172 36.8714C95.9253 36.7292 96.0793 36.3915 96.0793 35.8583C96.0793 35.6806 96.0201 35.3666 95.9016 34.9163C95.7831 34.466 95.6172 33.9921 95.4039 33.4944L93.8932 29.9931H84.3666C83.4187 32.3747 82.8499 33.8321 82.6604 34.3653C82.4826 34.8867 82.3938 35.3014 82.3938 35.6095C82.3938 36.2256 82.6426 36.6522 83.1402 36.8892C83.4483 37.0313 84.0289 37.138 84.882 37.2091V37.8667H77.666ZM107.01 41.1548C107.01 42.1501 107.567 42.8373 108.681 43.2165C109.806 43.5957 111.092 43.7853 112.538 43.7853C114.504 43.7853 116.104 43.4416 117.336 42.7544C118.569 42.079 119.185 41.2437 119.185 40.2483C119.185 39.4545 118.687 38.9272 117.692 38.6665C117.076 38.5125 115.909 38.4236 114.19 38.3999C113.752 38.3881 113.29 38.3703 112.804 38.3466C112.318 38.3347 111.874 38.317 111.471 38.2933C111.21 38.2814 110.79 38.234 110.209 38.1511C109.629 38.0681 109.196 37.997 108.912 37.9378C108.77 37.9378 108.42 38.311 107.863 39.0575C107.294 39.8159 107.01 40.5149 107.01 41.1548ZM109.321 31.8948C108.242 31.5394 107.401 30.9054 106.797 29.9931C106.204 29.0807 105.908 28.0558 105.908 26.9183C105.908 25.5319 106.459 24.2167 107.561 22.9726C108.663 21.7284 110.221 21.1063 112.235 21.1063C113.1 21.1063 114.054 21.3137 115.097 21.7284C116.14 22.1313 117.141 22.3327 118.101 22.3327C118.349 22.3327 118.723 22.3268 119.22 22.3149C119.73 22.2912 120.097 22.2794 120.322 22.2794H120.536V23.719H117.461C117.674 24.2167 117.84 24.6492 117.958 25.0165C118.16 25.7037 118.261 26.3554 118.261 26.9716C118.261 28.3224 117.698 29.5665 116.572 30.704C115.458 31.8297 113.953 32.3925 112.058 32.3925C111.761 32.3925 111.228 32.3392 110.458 32.2325C110.114 32.2325 109.658 32.5228 109.089 33.1034C108.533 33.684 108.254 34.158 108.254 34.5253C108.254 34.9045 108.669 35.1829 109.498 35.3606C110.043 35.4791 110.648 35.5384 111.311 35.5384C114.356 35.5384 116.424 35.7102 117.514 36.0538C119.303 36.6107 120.198 37.8075 120.198 39.644C120.198 41.5162 119.149 43.0091 117.052 44.1229C114.967 45.2368 112.857 45.7937 110.725 45.7937C108.781 45.7937 107.241 45.3967 106.104 44.6028C104.966 43.8208 104.397 42.9973 104.397 42.1323C104.397 41.7058 104.545 41.2851 104.842 40.8704C105.15 40.4675 105.748 39.8632 106.637 39.0575L107.81 38.0089L108.023 37.7956C107.478 37.5823 107.069 37.375 106.797 37.1735C106.323 36.8062 106.086 36.3856 106.086 35.9116C106.086 35.4732 106.287 34.9933 106.69 34.472C107.105 33.9388 107.982 33.0797 109.321 31.8948ZM112.697 31.5394C113.349 31.5394 113.894 31.3616 114.333 31.0062C115.044 30.4374 115.399 29.448 115.399 28.038C115.399 26.9123 115.109 25.6445 114.528 24.2345C113.959 22.8244 113.006 22.1194 111.667 22.1194C110.505 22.1194 109.706 22.6704 109.267 23.7724C109.042 24.353 108.929 25.0698 108.929 25.9229C108.929 27.3685 109.279 28.666 109.978 29.8153C110.677 30.9647 111.584 31.5394 112.697 31.5394ZM129.973 21.1952C131.644 21.1952 133.107 21.7758 134.363 22.937C135.619 24.0864 136.247 25.7215 136.247 27.8425H124.961C125.08 30.5914 125.702 32.5939 126.827 33.8499C127.953 35.1059 129.286 35.7339 130.826 35.7339C132.071 35.7339 133.119 35.408 133.972 34.7563C134.825 34.1047 135.613 33.1804 136.336 31.9837L136.958 32.197C136.472 33.7018 135.56 35.094 134.221 36.3737C132.894 37.6534 131.265 38.2933 129.333 38.2933C127.106 38.2933 125.382 37.452 124.161 35.7694C122.953 34.0869 122.348 32.1496 122.348 29.9575C122.348 27.5759 123.053 25.5201 124.463 23.7901C125.874 22.0602 127.71 21.1952 129.973 21.1952ZM128.942 22.4927C127.592 22.4927 126.561 23.091 125.85 24.2878C125.471 24.9276 125.198 25.7334 125.032 26.705H132.533C132.402 25.5201 132.177 24.6373 131.857 24.0567C131.277 23.014 130.305 22.4927 128.942 22.4927ZM138.469 37.369C139.31 37.2624 139.897 37.055 140.229 36.747C140.572 36.4271 140.744 35.722 140.744 34.6319V25.6208C140.744 24.8625 140.673 24.3293 140.531 24.0212C140.306 23.5709 139.843 23.3458 139.144 23.3458C139.038 23.3458 138.925 23.3517 138.807 23.3636C138.7 23.3754 138.564 23.3932 138.398 23.4169V22.7948C138.884 22.6526 140.033 22.2853 141.846 21.6929L143.517 21.1419C143.6 21.1419 143.647 21.1715 143.659 21.2308C143.682 21.29 143.694 21.3729 143.694 21.4796V24.0923C144.784 23.0733 145.638 22.3742 146.254 21.995C147.178 21.4144 148.138 21.1241 149.133 21.1241C149.939 21.1241 150.673 21.3552 151.337 21.8173C152.617 22.7178 153.256 24.3233 153.256 26.6339V34.9341C153.256 35.7872 153.428 36.4034 153.772 36.7825C154.116 37.1617 154.69 37.3572 155.496 37.369V37.8667H147.907V37.369C148.772 37.2506 149.376 37.0136 149.72 36.6581C150.063 36.2908 150.235 35.5028 150.235 34.2942V26.705C150.235 25.686 150.045 24.8447 149.666 24.1812C149.287 23.5058 148.588 23.1681 147.569 23.1681C146.87 23.1681 146.159 23.405 145.436 23.879C145.033 24.1515 144.512 24.6018 143.872 25.2298V35.1829C143.872 36.036 144.062 36.6107 144.441 36.9069C144.82 37.1913 145.418 37.3453 146.236 37.369V37.8667H138.469V37.369ZM163.245 25.4075C165.864 25.3127 167.736 25.0402 168.862 24.5899C170.793 23.7961 171.759 22.3031 171.759 20.111C171.759 18.0019 170.894 16.5623 169.164 15.7921C168.239 15.3774 167.013 15.17 165.485 15.17C164.454 15.17 163.82 15.247 163.583 15.4011C163.358 15.5433 163.245 15.8869 163.245 16.4319V25.4075ZM156.42 37.2091C157.818 37.0787 158.689 36.8062 159.033 36.3915C159.376 35.9768 159.548 35.0111 159.548 33.4944V17.7294C159.548 16.4497 159.353 15.6144 158.962 15.2233C158.583 14.8205 157.735 14.5657 156.42 14.4591V13.7837H166.498C168.595 13.7837 170.343 14.0503 171.741 14.5835C174.395 15.5907 175.722 17.445 175.722 20.1466C175.722 21.9595 175.13 23.3517 173.945 24.3233C172.772 25.295 171.172 25.9348 169.146 26.2429L176.646 35.4673C177.108 36.036 177.571 36.4507 178.033 36.7114C178.495 36.9721 179.087 37.138 179.81 37.2091V37.8667H173.945L165.271 26.6694L163.245 26.7583V33.921C163.245 35.2718 163.447 36.1308 163.849 36.4981C164.264 36.8536 165.159 37.0906 166.533 37.2091V37.8667H156.42V37.2091ZM183.276 14.9212C183.276 14.4117 183.454 13.9733 183.809 13.606C184.164 13.2386 184.603 13.055 185.124 13.055C185.634 13.055 186.066 13.2386 186.422 13.606C186.789 13.9614 186.973 14.3998 186.973 14.9212C186.973 15.4307 186.789 15.8691 186.422 16.2364C186.066 16.5919 185.634 16.7696 185.124 16.7696C184.603 16.7696 184.164 16.5919 183.809 16.2364C183.454 15.8691 183.276 15.4307 183.276 14.9212ZM181.001 37.369C182.269 37.2506 183.068 37.0373 183.4 36.7292C183.732 36.4093 183.898 35.5562 183.898 34.1698V25.6919C183.898 24.9217 183.845 24.3885 183.738 24.0923C183.56 23.6065 183.187 23.3636 182.618 23.3636C182.488 23.3636 182.357 23.3754 182.227 23.3991C182.109 23.4228 181.753 23.5176 181.161 23.6835V23.1325L181.925 22.8837C183.999 22.2083 185.444 21.6988 186.262 21.3552C186.593 21.213 186.807 21.1419 186.902 21.1419C186.925 21.2248 186.937 21.3137 186.937 21.4085V34.1698C186.937 35.5206 187.097 36.3678 187.417 36.7114C187.749 37.055 188.489 37.2743 189.639 37.369V37.8667H181.001V37.369ZM198.241 21.3552V21.9062C197.625 21.9772 197.186 22.072 196.926 22.1905C196.677 22.309 196.553 22.5697 196.553 22.9726C196.553 23.1621 196.576 23.3458 196.624 23.5235C196.683 23.6894 196.778 23.9382 196.908 24.27L200.605 33.4589L203.804 25.3187C203.958 24.9276 204.1 24.5188 204.231 24.0923C204.373 23.6657 204.444 23.3399 204.444 23.1147C204.444 22.6526 204.225 22.3209 203.786 22.1194C203.526 22.0128 203.17 21.9417 202.72 21.9062V21.3552H207.768V21.9062C207.187 21.9535 206.766 22.1491 206.506 22.4927C206.257 22.8244 205.89 23.6006 205.404 24.821L200.267 37.6179C200.172 37.843 200.095 37.997 200.036 38.08C199.977 38.1629 199.894 38.2044 199.787 38.2044C199.669 38.2044 199.568 38.1333 199.485 37.9911C199.402 37.8608 199.313 37.6949 199.219 37.4935L193.78 24.4833C193.341 23.4287 192.873 22.7119 192.376 22.3327C192.08 22.1194 191.647 21.9772 191.078 21.9062V21.3552H198.241ZM216.956 21.1952C218.627 21.1952 220.091 21.7758 221.346 22.937C222.602 24.0864 223.23 25.7215 223.23 27.8425H211.944C212.063 30.5914 212.685 32.5939 213.811 33.8499C214.936 35.1059 216.269 35.7339 217.81 35.7339C219.054 35.7339 220.102 35.408 220.955 34.7563C221.809 34.1047 222.597 33.1804 223.319 31.9837L223.941 32.197C223.456 33.7018 222.543 35.094 221.204 36.3737C219.877 37.6534 218.248 38.2933 216.317 38.2933C214.089 38.2933 212.365 37.452 211.145 35.7694C209.936 34.0869 209.332 32.1496 209.332 29.9575C209.332 27.5759 210.037 25.5201 211.447 23.7901C212.857 22.0602 214.693 21.1952 216.956 21.1952ZM215.926 22.4927C214.575 22.4927 213.544 23.091 212.833 24.2878C212.454 24.9276 212.181 25.7334 212.015 26.705H219.516C219.385 25.5201 219.16 24.6373 218.84 24.0567C218.26 23.014 217.288 22.4927 215.926 22.4927ZM224.955 37.2802C226.045 37.1854 226.767 36.9958 227.123 36.7114C227.478 36.4152 227.656 35.7931 227.656 34.8452V26.8294C227.656 25.6563 227.543 24.821 227.318 24.3233C227.105 23.8138 226.708 23.5591 226.128 23.5591C226.009 23.5591 225.849 23.5769 225.648 23.6124C225.458 23.6361 225.257 23.6716 225.043 23.719V23.1325C225.719 22.8955 226.412 22.6526 227.123 22.4038C227.834 22.155 228.326 21.9772 228.598 21.8706C229.191 21.6455 229.801 21.3907 230.429 21.1063C230.512 21.1063 230.559 21.136 230.571 21.1952C230.595 21.2545 230.606 21.3789 230.606 21.5685V24.4833C231.365 23.4287 232.093 22.6052 232.793 22.0128C233.504 21.4203 234.238 21.1241 234.996 21.1241C235.601 21.1241 236.093 21.3078 236.472 21.6751C236.851 22.0306 237.04 22.4808 237.04 23.0259C237.04 23.5117 236.892 23.9205 236.596 24.2522C236.312 24.584 235.95 24.7499 235.512 24.7499C235.062 24.7499 234.605 24.5425 234.143 24.1278C233.693 23.7131 233.338 23.5058 233.077 23.5058C232.662 23.5058 232.153 23.8435 231.548 24.5188C230.944 25.1824 230.642 25.8696 230.642 26.5806V34.5964C230.642 35.6154 230.879 36.3263 231.353 36.7292C231.827 37.1202 232.615 37.3039 233.717 37.2802V37.8667H224.955V37.2802Z" fill="#2A3B4E"/>
</svg>
