<svg width="208" height="56" viewBox="0 0 208 56" fill="none" xmlns="http://www.w3.org/2000/svg">
<mask id="path-1-inside-1_3_2610" fill="white">
<path fill-rule="evenodd" clip-rule="evenodd" d="M208 4C208 1.79086 206.209 0 204 0H4C1.79086 0 0 1.79086 0 4V52C0 54.2091 1.79086 56 4 56H186.491C187.487 56 188.447 55.6282 189.184 54.9574L201.078 44.125L206.693 39.0113C207.526 38.2533 208 37.1797 208 36.0539V4Z"/>
</mask>
<path d="M201.078 44.125L200.405 43.3857L200.405 43.3857L201.078 44.125ZM189.184 54.9574L188.511 54.218L188.511 54.218L189.184 54.9574ZM206.693 39.0113L207.367 39.7506L206.693 39.0113ZM4 1H204V-1H4V1ZM1 52V4H-1V52H1ZM186.491 55H4V57H186.491V55ZM189.857 55.6967L201.752 44.8643L200.405 43.3857L188.511 54.218L189.857 55.6967ZM201.752 44.8643L207.367 39.7506L206.02 38.272L200.405 43.3857L201.752 44.8643ZM207 4V36.0539H209V4H207ZM186.491 57C187.736 57 188.936 56.5353 189.857 55.6967L188.511 54.218C187.958 54.7212 187.238 55 186.491 55V57ZM-1 52C-1 54.7614 1.23858 57 4 57V55C2.34315 55 1 53.6569 1 52H-1ZM204 1C205.657 1 207 2.34315 207 4H209C209 1.23858 206.761 -1 204 -1V1ZM207.367 39.7506C208.407 38.8031 209 37.4611 209 36.0539H207C207 36.8982 206.644 37.7035 206.02 38.272L207.367 39.7506ZM4 -1C1.23858 -1 -1 1.23858 -1 4H1C1 2.34315 2.34315 1 4 1V-1Z" fill="#BAF6BE" mask="url(#path-1-inside-1_3_2610)"/>
</svg>
