<svg width="182" height="40" viewBox="0 0 182 40" fill="none" xmlns="http://www.w3.org/2000/svg">
<g opacity="0.16">
<path d="M8.72515 0H0V9.30623H8.72515V0Z" fill="#B19F6F"/>
<path d="M37.5064 0H28.7812V9.30623H37.5064V0Z" fill="#B19F6F"/>
<path d="M123.85 0H115.125V9.30623H123.85V0Z" fill="#B19F6F"/>
<path d="M66.2876 0H57.5625V9.30623H66.2876V0Z" fill="#B19F6F"/>
<path d="M152.627 0H143.902V9.30623H152.627V0Z" fill="#B19F6F"/>
<path d="M95.0689 0H86.3438V9.30623H95.0689V0Z" fill="#B19F6F"/>
<path d="M181.409 0H172.684V9.30623H181.409V0Z" fill="#B19F6F"/>
<path d="M8.72515 30.6938H0V40.0001H8.72515V30.6938Z" fill="#B19F6F"/>
<path d="M37.5064 30.6938H28.7812V40.0001H37.5064V30.6938Z" fill="#B19F6F"/>
<path d="M123.85 30.6938H115.125V40.0001H123.85V30.6938Z" fill="#B19F6F"/>
<path d="M66.2876 30.6938H57.5625V40.0001H66.2876V30.6938Z" fill="#B19F6F"/>
<path d="M152.627 30.6938H143.902V40.0001H152.627V30.6938Z" fill="#B19F6F"/>
<path d="M95.0689 30.6938H86.3438V40.0001H95.0689V30.6938Z" fill="#B19F6F"/>
<path d="M181.409 30.6938H172.684V40.0001H181.409V30.6938Z" fill="#B19F6F"/>
</g>
</svg>
