<svg width="366" height="132" viewBox="0 0 366 132" fill="none" xmlns="http://www.w3.org/2000/svg">
<g clip-path="url(#clip0_3_2405)">
<path d="M347.728 -19.0646L244.168 -109.809C240.811 -112.75 236.511 -114.204 232.056 -113.915C227.603 -113.621 223.53 -111.611 220.589 -108.254C217.647 -104.897 216.189 -100.596 216.482 -96.1422C216.776 -91.6887 218.787 -87.6162 222.144 -84.6748L321.061 2.00068L222.144 88.6762C218.787 91.6175 216.776 95.69 216.482 100.144C216.189 104.597 217.647 108.898 220.589 112.255C223.53 115.612 227.603 117.622 232.056 117.916C232.433 117.941 232.807 117.953 233.18 117.953C237.229 117.953 241.095 116.503 244.167 113.81L281.495 81.1006C283.67 79.1962 283.888 75.8892 281.982 73.7155C280.078 71.5418 276.771 71.3247 274.597 73.2284L237.269 105.938C236.015 107.036 234.414 107.587 232.745 107.471C231.082 107.361 229.561 106.61 228.461 105.356C227.362 104.102 226.818 102.495 226.927 100.832C227.037 99.168 227.788 97.6467 229.042 96.5476L332.451 5.93642C333.586 4.94272 334.236 3.50799 334.236 1.99998C334.236 0.491982 333.586 -0.942749 332.451 -1.93645L229.042 -92.5477C227.788 -93.6461 227.037 -95.1673 226.927 -96.8316C226.818 -98.4953 227.362 -100.102 228.461 -101.356C229.56 -102.609 231.082 -103.36 232.745 -103.47C234.405 -103.579 236.015 -103.035 237.269 -101.936L340.829 -11.1924C344.634 -7.8554 346.815 -3.04111 346.812 2.01533C346.809 7.06618 344.627 11.8714 340.822 15.2L293.017 57.0891C290.843 58.9935 290.624 62.3005 292.53 64.4742C294.435 66.6486 297.743 66.8663 299.915 64.9613L347.718 23.075C353.79 17.7625 357.275 10.0885 357.279 2.02161C357.285 -6.05223 353.804 -13.7367 347.728 -19.0646Z" fill="#C6D1D5" fill-opacity="0.4"/>
<path d="M265.184 2.00134C265.184 -1.68247 263.595 -5.18835 260.824 -7.61608L233.391 -31.6541C231.218 -33.5598 227.91 -33.3414 226.006 -31.167C224.101 -28.9933 224.319 -25.6863 226.493 -23.7819L253.926 0.256783C254.613 0.859703 254.717 1.60847 254.717 2.00134C254.717 2.39422 254.614 3.14297 253.926 3.7459L125.89 115.937C124.911 116.794 123.912 116.535 123.404 116.304C122.895 116.074 122.042 115.493 122.042 114.192V66.4504L184.616 11.6188C187.387 9.19104 188.975 5.68587 188.975 2.00134C188.975 -1.68317 187.387 -5.18835 184.616 -7.61539L122.042 -62.4477V-110.189C122.042 -111.49 122.895 -112.071 123.404 -112.302C123.912 -112.533 124.911 -112.792 125.89 -111.934L208.116 -39.8849C210.288 -37.9799 213.596 -38.1983 215.501 -40.372C217.406 -42.5457 217.188 -45.8527 215.014 -47.7571L132.788 -119.807C128.964 -123.159 123.711 -123.935 119.082 -121.836C114.451 -119.737 111.575 -115.274 111.575 -110.19V-71.6206L56.5852 -119.806C52.759 -123.157 47.5051 -123.935 42.8743 -121.834C38.2464 -119.735 35.3713 -115.272 35.3713 -110.189V20.3095L5.68582 46.3188C-1.2387 52.3892 -1.93722 62.9655 4.13386 69.9025C7.43527 73.6631 12.0639 75.5863 16.7136 75.5863C20.6235 75.5863 24.5487 74.2256 27.7106 71.4545L35.3706 64.7421V114.189C35.3706 119.274 38.2457 123.736 42.8736 125.835C44.5973 126.616 46.4074 126.999 48.198 126.999C51.2182 126.999 54.1833 125.91 56.5859 123.805L111.574 75.6205V114.19C111.574 119.274 114.45 123.737 119.081 125.836C120.805 126.618 122.613 127 124.404 127C127.424 127 130.387 125.911 132.788 123.807L260.823 11.616C263.595 9.19104 265.184 5.68517 265.184 2.00134ZM177.719 0.257477C178.406 0.859695 178.509 1.60847 178.509 2.00134C178.509 2.39422 178.406 3.14297 177.718 3.7459L122.042 52.533V-48.5303L177.719 0.257477ZM20.8112 63.583C18.2257 65.8496 14.2726 65.5865 12.0046 63.0032C9.7367 60.4121 9.99769 56.4589 12.5838 54.1917L78.2429 -3.33703C79.4194 -4.36841 80.8877 -4.87852 82.3531 -4.87852C83.9567 -4.87852 85.5568 -4.26723 86.7675 -3.0572C88.002 -1.82344 88.6503 -0.182854 88.593 1.56171C88.5358 3.30627 87.7815 4.9008 86.4689 6.05083L20.8112 63.583ZM49.6893 115.933C48.7074 116.793 47.7061 116.534 47.1974 116.303C46.6893 116.073 45.838 115.492 45.838 114.19V55.5706L93.3676 13.923C96.8309 10.8882 98.9041 6.5079 99.0548 1.90504C99.2063 -2.69781 97.4247 -7.20506 94.168 -10.4604C87.9657 -16.6606 77.94 -16.9893 71.3449 -11.2106L45.838 11.138V-110.188C45.838 -111.49 46.69 -112.071 47.1974 -112.301C47.7061 -112.531 48.7067 -112.791 49.6879 -111.933L111.575 -57.7025V61.7052L49.6893 115.933Z" fill="#C6D1D5" fill-opacity="0.4"/>
</g>
<defs>
<clipPath id="clip0_3_2405">
<rect width="366" height="132" fill="white"/>
</clipPath>
</defs>
</svg>
