<svg width="278" height="230" viewBox="0 0 278 230" fill="none" xmlns="http://www.w3.org/2000/svg">
<g opacity="0.16">
<path d="M277.118 115.206C268.284 120.215 259.451 125.342 248.938 130.589C238.091 135.955 225.566 141.68 213.044 146.45C202.197 150.625 191.463 154.202 181.958 156.347C171.671 158.852 162.726 159.686 154.561 159.806C146.288 159.924 138.794 159.211 131.19 158.613L131.078 160.761C138.569 161.356 146.174 161.954 154.561 161.833C162.835 161.715 171.894 160.879 182.293 158.495C192.021 156.229 202.868 152.652 213.715 148.477C226.24 143.589 238.876 137.864 249.834 132.496C260.01 127.369 268.621 122.478 277.12 117.59V115.204L277.118 115.206Z" fill="#B19F6F"/>
<path d="M42.0654 122.124C77.6247 113.895 113.184 105.665 143.375 103.161C158.471 101.85 172.226 102.088 184.637 103.161C197.048 104.234 208.009 106.143 217.514 108.408C236.635 113.06 249.83 119.022 263.026 125.105L263.809 123.196C250.502 117.115 237.194 111.031 217.962 106.381C208.346 104.115 197.275 102.088 184.751 101.016C172.338 99.9429 158.362 99.8224 143.152 101.016C112.849 103.638 77.2902 111.867 41.6172 120.096L42.0654 122.124Z" fill="#B19F6F"/>
<path d="M55.375 82.8892H55.4865C66.1086 84.0824 76.7329 85.155 87.4687 88.8526C92.8366 90.7616 98.316 93.3842 103.795 96.2454C109.275 99.2271 114.754 102.447 120.345 105.668L121.239 103.879C115.649 100.659 110.169 97.3204 104.578 94.4569C99.0988 91.4752 93.5079 88.8526 88.0284 86.9436C77.0696 83.1279 66.336 81.9347 55.6002 80.8621V81.8166L55.3772 82.8892H55.375Z" fill="#B19F6F"/>
<path d="M62.5296 157.902C67.4492 153.727 72.3689 149.672 76.954 145.5C81.5391 141.325 85.7875 137.153 89.4784 132.978C93.0577 128.803 96.0751 124.63 98.6486 120.456C101.22 116.281 103.568 112.108 105.805 107.933L104.128 106.979C101.891 111.033 99.6544 115.208 97.0831 119.263C94.5117 123.437 91.6037 127.492 88.0266 131.664C84.4472 135.719 80.1988 139.773 75.7252 143.948C71.1401 148.002 66.2204 152.177 61.3008 156.231L62.5318 157.902H62.5296Z" fill="#B19F6F"/>
<path d="M134.547 129.519C140.026 130.353 145.617 131.189 150.874 132.38C156.242 133.573 161.384 135.003 166.192 137.15C170.889 139.298 175.363 142.159 179.611 145.259C183.973 148.359 188.11 151.938 192.135 155.395L193.366 153.725C189.229 150.266 185.093 146.689 180.73 143.589C176.368 140.368 171.785 137.507 166.864 135.241C161.944 133.094 156.688 131.544 151.32 130.353C145.952 129.16 140.361 128.326 134.77 127.492L134.547 129.519Z" fill="#B19F6F"/>
<path d="M140.246 194.632L140.806 195.704L141.14 196.539C148.52 192.364 155.902 188.309 163.729 181.751C171.557 175.071 179.831 166.008 188.107 156.827L186.653 155.395C178.379 164.458 170.214 173.521 162.498 180.08C154.782 186.521 147.514 190.575 140.246 194.63V194.632Z" fill="#B19F6F"/>
<path d="M126.715 14.0765C130.629 24.6896 134.543 35.1846 144.719 50.0929C149.75 57.4858 156.349 65.9536 163.728 75.0168C171.219 84.08 179.272 93.6205 187.323 103.161L188.777 101.729C180.615 92.0683 172.45 82.5278 165.182 73.585C157.914 64.64 151.315 56.1745 146.284 48.7794C136.331 34.1097 132.417 23.7351 128.503 13.3606L126.715 14.0765Z" fill="#B19F6F"/>
<path d="M153.108 17.7739C151.877 23.8555 150.537 29.8188 150.088 36.498C149.754 39.7183 149.754 43.1772 149.754 46.6339C149.754 50.0906 149.865 53.67 149.977 57.1289H151.991C151.879 53.5518 151.768 50.0929 151.656 46.6339C151.656 43.175 151.768 39.8365 151.991 36.6162C152.55 30.1756 153.779 24.2145 155.01 18.2512L153.11 17.7739H153.108Z" fill="#B19F6F"/>
<path d="M145.949 48.543C143.152 46.9931 140.47 45.3227 137.561 43.891C134.653 42.5797 131.748 41.3866 128.728 40.5525C122.689 39.0026 116.315 39.1208 109.941 39.3594V41.3866C116.204 41.2684 122.466 41.148 128.28 42.5797C131.188 43.2956 133.982 44.4887 136.779 45.8C139.575 47.2317 142.258 48.7817 145.052 50.3316L145.947 48.543H145.949Z" fill="#B19F6F"/>
<path d="M277.12 170.781C275.107 180.56 273.207 190.577 271.418 200.713L273.318 201.07C274.549 194.273 275.889 187.355 277.12 180.678V170.781Z" fill="#B19F6F"/>
<path d="M246.252 196.541C249.271 194.393 252.291 192.366 255.197 190.22C258.216 187.955 261.125 185.689 263.919 183.303C266.715 180.916 269.398 178.294 271.97 175.671C273.758 173.883 275.435 172.094 277.115 170.185V167.324C274.989 169.59 272.866 171.976 270.629 174.121C268.058 176.744 265.484 179.248 262.69 181.634C259.894 184.139 257.099 186.286 254.191 188.432C251.172 190.579 248.152 192.725 245.246 194.752L246.252 196.541Z" fill="#B19F6F"/>
<path d="M232.832 20.3968C239.317 27.9101 245.802 35.4234 252.736 42.3412C259.781 49.3772 267.386 55.936 275.882 61.5425L277.113 62.2584V59.8722L276.89 59.754C268.503 54.2679 261.012 47.8273 254.078 40.7913C247.145 33.8734 240.66 26.4806 234.286 18.9673L232.832 20.399V20.3968Z" fill="#B19F6F"/>
<path d="M216.955 47.2297C220.869 46.6343 224.671 46.157 228.585 45.798C232.388 45.5593 236.301 45.4411 240.104 45.9162C247.932 46.7502 255.759 49.4933 263.587 52.3568H263.699L263.922 51.5227L264.37 50.3296H264.258C256.319 47.4683 248.268 44.7253 240.329 43.7708C236.415 43.414 232.39 43.414 228.476 43.7708C224.562 44.0094 220.648 44.6049 216.734 45.2025L216.957 47.2297H216.955Z" fill="#B19F6F"/>
<path d="M260.006 6.5633C260.341 12.4062 260.677 18.3696 261.123 23.8557C261.683 29.46 262.354 34.5892 263.36 39.0004C264.366 43.4138 265.82 46.9909 267.386 50.2112C268.951 53.4315 270.74 56.2928 272.417 59.0358L274.094 57.8427C272.305 55.0997 270.628 52.3566 269.063 49.2567C267.609 46.1569 266.266 42.698 265.26 38.405C264.255 34.112 263.583 29.1031 263.135 23.617C262.575 18.1309 262.352 12.288 262.018 6.44287L260.004 6.56107L260.006 6.5633Z" fill="#B19F6F"/>
<path d="M41.3966 120.096C41.6196 119.74 41.7311 119.501 41.6196 119.381L39.4943 118.547C33.6804 116.16 20.7077 110.915 17.6882 111.39C8.63163 113.06 3.03848 118.426 0.915405 123.792C0.244138 125.58 -0.0903802 127.369 0.0211259 129.039C0.132632 130.828 0.692393 132.378 1.58667 133.691C3.15222 135.839 5.83505 137.268 9.5259 137.15C9.30289 137.389 9.19139 137.627 8.96614 137.984C6.50632 141.443 2.92697 146.57 3.70975 149.911C4.49252 152.893 8.07187 154.324 17.2399 151.82C18.3572 151.463 21.3768 147.527 25.1791 142.518C30.77 135.125 38.1495 125.464 41.8404 123.078L42.0634 122.84L42.5116 122.362C42.8462 122.244 42.9599 122.005 43.1829 121.646L41.2828 120.215L41.3943 120.096H41.3966ZM38.4885 121.408L38.9368 121.526C34.6884 125.224 28.0894 133.809 23.0583 140.607C19.5927 145.139 16.7961 148.836 16.5731 148.836C9.41663 150.863 6.8453 150.506 6.50855 149.193C5.94879 147.166 9.07988 142.752 11.2052 139.771C12.6592 137.623 13.665 136.073 13.442 135L13.1075 133.689L11.8765 133.928C7.85108 134.644 5.16602 133.689 3.82571 131.901C3.26595 131.066 2.93143 129.992 2.81993 128.919C2.81993 127.608 3.04294 126.296 3.4912 124.983C5.27975 120.451 10.1994 115.919 18.1409 114.37C20.3777 114.013 32.902 119.14 38.493 121.406L38.4885 121.408Z" fill="#B19F6F"/>
<path d="M61.6353 155.636C57.1617 156.708 46.3166 159.69 37.5946 164.342C33.3462 166.728 29.4323 169.469 27.084 172.571C24.5127 176.03 23.5047 179.846 25.2955 184.139C25.9667 185.928 27.084 187.598 28.6496 189.386C35.0232 196.422 38.3773 192.607 40.5027 190.102C40.8372 189.745 41.0624 189.386 41.1739 189.386C41.1739 189.268 41.2854 191.175 42.2912 197.854C42.5142 200.12 44.751 202.386 47.6591 203.22C48.8901 203.697 50.4557 203.815 51.9075 203.459C53.3593 203.102 54.9271 202.386 56.2696 201.072C59.7352 197.613 62.4203 190.1 61.0778 175.91C60.8547 173.883 61.8605 169.828 62.6433 166.131C63.5376 162.315 64.3204 158.974 63.9858 157.306C63.7628 155.995 62.9801 155.279 61.6375 155.636H61.6353ZM38.8234 167.083C46.7626 162.79 56.4904 160.047 61.2985 158.854C61.187 160.165 60.6273 162.67 59.956 165.413C59.0617 169.349 58.0559 173.642 58.2789 176.146C59.3962 189.264 57.2732 195.943 54.3651 198.925C53.3593 199.759 52.3513 200.356 51.3455 200.475C50.3397 200.713 49.3317 200.713 48.3259 200.356C46.5374 199.879 45.1948 198.568 44.9718 197.375C43.7408 188.43 42.6235 186.046 40.7234 186.403C39.8292 186.521 39.1579 187.237 38.4866 188.073C37.0326 189.623 35.021 192.127 30.6589 187.357C29.3164 185.807 28.4221 184.375 27.8623 182.944C26.6313 179.962 27.3026 177.101 29.3164 174.476C31.4417 171.733 34.9073 169.228 38.8211 167.083H38.8234Z" fill="#B19F6F"/>
<path d="M60.0728 80.9802C59.7383 80.862 60.1843 80.862 59.8498 80.3848C56.6072 74.66 41.846 49.2589 29.2101 44.1297C23.0594 41.6252 17.357 43.6524 13.6662 54.0269C11.6524 59.3926 14.1144 61.063 15.903 62.2561C16.2375 62.4947 16.4627 62.6129 16.5743 62.7333C16.5743 62.7333 15.5685 63.3288 11.7661 65.8332C11.3179 66.3105 8.63502 70.1262 7.74074 74.301C7.29249 76.21 7.06948 78.2372 7.62924 80.1439C8.07749 82.1711 9.30629 83.9596 11.4316 85.1528C14.5627 86.9413 19.9306 87.6572 28.6526 85.9868C32.3434 85.3914 50.4587 84.3165 57.0554 83.9596C59.0692 83.8414 60.1865 84.0778 60.6348 82.887L61.083 81.5756L60.0772 80.9802H60.0728ZM28.2021 46.9909C39.3839 51.5225 52.8026 73.9442 56.8279 80.9802C50.2313 81.337 32.0045 82.2915 28.0906 83.0074C20.1514 84.5573 15.4547 83.9619 12.7719 82.5301C11.4294 81.6961 10.6466 80.6211 10.3121 79.3098C9.97755 77.9985 10.0891 76.4486 10.4236 75.0168C11.2064 71.5579 12.9949 68.6967 13.3317 68.4581C19.0341 64.5219 19.9284 62.7333 18.9226 61.0652C18.5881 60.4698 18.0283 60.1107 17.4685 59.7539C16.4627 59.1585 15.1202 58.204 16.2375 55.1019C19.2571 46.7545 23.617 45.0842 28.2021 46.9931V46.9909Z" fill="#B19F6F"/>
<path d="M130.406 158.379C129.846 158.736 130.406 158.261 130.741 158.022L130.406 158.499V158.381V158.379ZM130.741 158.02V157.902C125.484 155.159 99.655 142.159 90.933 146.573C87.2421 148.361 86.1248 152.536 89.5904 160.288C91.0445 163.626 94.1756 164.94 96.8584 166.131H96.9699C94.9561 168.04 93.3906 171.14 92.7215 174.121C92.1618 176.269 92.1618 178.296 92.7215 179.964C93.2813 181.873 94.7353 183.184 97.0836 183.064C99.9917 182.946 104.575 180.203 111.397 173.167C115.982 168.397 124.481 164.46 128.952 162.433C130.295 161.838 131.189 161.36 131.749 161.001L131.86 160.883L130.406 158.497L130.741 158.02ZM92.0503 149.316C98.9837 145.857 120.23 155.874 127.721 159.69C123.136 161.838 114.414 165.892 109.494 171.019C103.121 177.46 99.2067 179.964 96.9699 180.082C96.0756 180.082 95.5159 179.605 95.2929 178.889C94.9583 177.935 95.0698 176.385 95.4044 174.835C96.1871 171.496 98.2009 167.917 100.324 167.56L100.884 164.817C99.9895 164.222 98.9837 163.744 97.8642 163.267C95.6274 162.433 93.056 161.358 92.1618 158.974C89.5904 153.25 90.0365 150.388 92.0503 149.313V149.316Z" fill="#B19F6F"/>
<path d="M141.589 194.393C133.761 187.834 123.362 188.907 116.094 192.605C113.075 194.154 110.615 196.302 109.161 198.447C107.484 200.952 106.924 203.574 108.043 206.079C109.275 208.702 112.517 210.967 118.554 212.16C119.225 215.858 121.685 228.141 125.711 229.571C128.17 230.405 130.742 228.26 133.09 220.508C133.538 219.076 135.998 212.638 138.121 206.674C140.358 200.711 142.483 195.107 141.587 194.391L141.589 194.393ZM117.323 195.348C123.808 192.009 132.978 191.055 139.798 196.779C140.581 197.375 137.338 200.595 135.55 205.604C133.313 211.567 130.965 218.006 130.405 219.558C128.728 225.282 127.497 227.071 126.603 226.714C123.806 225.76 121.571 213.358 121.123 210.972L120.9 209.54L119.894 209.422C114.415 208.467 111.507 206.679 110.613 204.77C109.941 203.338 110.39 201.788 111.395 200.238C112.626 198.45 114.749 196.661 117.323 195.35V195.348Z" fill="#B19F6F"/>
<path d="M135.214 129.876C135.437 129.757 135.662 129.637 135.885 129.519L136.556 129.042V128.923C137.673 127.851 137.673 126.062 136.891 124.153C135.437 120.815 130.963 116.283 126.269 113.063C121.349 109.604 115.87 107.458 112.738 108.888C109.607 110.317 108.713 114.731 112.067 123.555C109.719 125.583 103.345 130.948 103.568 134.646C103.68 136.912 105.582 138.462 110.725 138.223C113.073 138.105 126.492 133.096 132.306 130.83C133.311 130.473 132.754 127.73 133.423 129.16L134.654 128.444L135.214 129.876ZM134.319 125.344C134.654 126.178 134.654 126.894 134.096 127.133C133.425 127.251 132.531 127.61 131.414 128.087C125.6 130.235 112.515 135.123 110.615 135.123C107.484 135.362 106.367 135.005 106.367 134.407C106.256 132.26 112.069 127.371 114.083 125.701C114.978 124.985 115.537 124.508 115.089 123.435C112.069 115.804 112.181 112.463 113.858 111.747C116.095 110.674 120.455 112.701 124.705 115.563C129.067 118.544 133.093 122.481 134.322 125.342L134.319 125.344Z" fill="#B19F6F"/>
<path d="M113.187 39.1209C102.676 29.819 93.5059 28.8645 87.5805 31.1303C84.6724 32.203 82.4356 34.112 81.3183 36.1392C79.9758 38.5254 79.8643 41.0298 81.2068 43.057C82.4378 44.8456 84.6724 46.0387 88.2517 46.2773C86.3517 53.7906 87.3575 57.1291 89.9288 57.9654C93.0599 59.0381 98.6508 55.2223 103.682 51.0476C108.379 46.8728 112.627 42.3412 113.298 41.3867C113.97 40.5526 113.97 39.8367 113.187 39.1209ZM88.4748 33.9938C93.3944 32.0848 101.111 32.9211 110.281 40.4344C108.715 42.223 105.473 45.5615 101.893 48.6636C97.5313 52.4793 92.8369 55.82 90.8231 55.1041C89.592 54.7473 89.4805 52.0043 91.4943 45.2069L92.0541 43.1797L90.0403 43.2979C86.461 43.4161 84.3379 42.582 83.5551 41.2707C82.8838 40.3162 82.9953 39.0049 83.6666 37.6936C84.5609 36.2618 86.2379 34.8323 88.4748 33.996V33.9938Z" fill="#B19F6F"/>
<path d="M127.724 12.1697C121.91 11.8129 117.659 6.32679 115.199 0.00439453H112.18C114.976 7.63587 120.119 14.6719 127.498 15.1492C128.393 15.2673 131.972 8.94718 134.878 1.55433C135.101 1.07708 135.326 0.599837 135.549 0.00439453H132.53L132.307 0.481641C129.847 6.80181 127.721 12.1697 127.721 12.1697H127.724Z" fill="#B19F6F"/>
<path d="M218.078 45.4409L217.966 45.3227C214.835 39.8366 204.659 36.3777 197.057 36.2595C194.374 36.2595 191.912 36.7368 190.123 37.5708C187.998 38.6435 186.88 40.3139 186.992 42.6979C187.327 45.3205 189.34 48.6612 194.26 52.7156C193.589 55.1018 192.135 60.7061 193.7 63.4492C194.931 65.715 197.614 66.3104 202.645 62.9719C203.093 62.7333 204.771 60.7061 207.007 58.2017C210.698 54.1473 215.729 48.4226 217.072 47.5885C217.295 47.4703 217.072 47.2317 216.849 46.9931L216.514 46.3977L218.08 45.4432L218.078 45.4409ZM197.054 39.3594C203.316 39.3594 211.367 41.7456 214.721 45.6796C212.485 47.7067 208.236 52.477 204.994 56.1745C202.98 58.4403 201.303 60.3493 201.191 60.4675C197.949 62.4947 196.495 62.6151 196.046 61.8992C195.041 60.1107 196.606 54.9814 197.052 53.3133C197.387 52.2406 197.612 51.6429 196.718 50.927C192.021 47.1113 190.009 44.3682 189.896 42.4593C189.784 41.5048 190.344 40.7889 191.35 40.3117C192.692 39.5958 194.704 39.3572 197.052 39.3572L197.054 39.3594ZM216.064 46.7522L216.512 46.3954L216.847 46.9909C216.624 46.8727 216.287 46.7522 216.064 46.7522Z" fill="#B19F6F"/>
<path d="M234.962 19.9194C236.193 10.7357 234.739 4.17695 232.391 0.00439453H228.925C231.496 3.22469 233.287 9.06761 232.391 17.774L231.831 17.0581C230.6 15.3878 229.259 13.481 227.917 13.0038C227.582 12.647 227.023 12.2879 226.574 11.9311C224.786 10.6198 221.989 9.06984 221.989 9.06984C216.287 8.23577 213.602 7.28128 212.596 6.32679C213.044 5.84954 213.939 5.49272 214.944 5.3723C216.621 5.01548 218.298 5.13367 218.747 5.96774L221.318 4.77462C220.758 2.86564 220.647 1.19751 220.758 0.00439453H217.962C217.85 0.720264 217.85 1.55433 217.962 2.39062C216.844 2.152 215.613 2.152 214.496 2.39062C212.931 2.62925 211.588 3.34512 210.694 4.17918C209.351 5.3723 209.128 6.92223 210.694 8.47217C212.036 9.78348 215.279 11.0948 221.541 12.0493C221.764 12.1675 223.555 13.3606 224.895 14.3151C225.455 14.6719 225.789 14.3151 225.789 14.5537L225.901 16.1036L227.355 15.9854C227.466 15.9854 228.586 17.4172 229.592 18.8467C230.709 20.3966 231.717 21.8284 232.834 21.9466C233.952 22.1852 234.734 21.5897 234.96 19.9194H234.962Z" fill="#B19F6F"/>
<path d="M261.352 7.99492C266.609 6.44499 269.74 3.34289 271.417 0.00439453H268.063C266.832 1.91338 264.709 3.70194 261.689 4.77462C260.683 2.98607 259.789 1.43613 259.006 0.00439453H255.875C256.881 2.152 258.223 4.536 259.789 7.27905L260.349 8.23354L261.354 7.99492H261.352Z" fill="#B19F6F"/>
<path d="M247.149 195.825C247.037 195.707 243.795 193.202 239.21 192.127C236.078 191.293 232.276 190.696 228.699 190.696C225.122 190.696 221.431 191.411 218.86 193.439C215.506 195.943 213.829 200.475 215.506 208.106C216.177 210.967 217.631 211.565 219.419 211.088C220.65 210.731 221.768 209.895 222.774 209.179C223.333 208.702 223.108 208.106 223.445 208.224C223.779 208.343 222.551 209.058 221.431 212.279C220.537 214.901 221.319 217.883 222.997 219.792C223.668 220.746 224.674 221.462 225.793 221.701C226.91 222.058 228.253 222.058 229.595 221.583C232.727 220.271 236.306 216.097 239.212 206.556C239.212 206.318 239.995 205.602 241.226 204.052C243.574 200.952 247.039 196.659 247.151 195.823L247.149 195.825ZM238.538 194.991C241.781 195.825 244.352 195.348 244.352 195.468C244.352 195.468 241.221 199.284 238.984 202.147C237.642 203.936 236.636 205.247 236.524 205.606C233.953 214.074 231.045 217.771 228.585 218.724C227.802 218.962 227.131 219.081 226.571 218.842C226.012 218.724 225.454 218.246 225.006 217.769C224 216.576 223.552 214.788 224.112 213.356C225.9 207.99 225.789 205.963 224.446 205.486C223.329 205.008 222.321 205.843 221.204 206.679C220.309 207.274 219.415 207.99 218.744 208.111C218.521 208.229 218.409 207.992 218.184 207.395C216.841 201.193 217.961 197.734 220.421 195.827C222.546 194.277 225.566 193.679 228.695 193.679C232.16 193.679 235.628 194.275 238.534 194.991H238.538Z" fill="#B19F6F"/>
<path d="M271.415 199.879L269.85 201.429C268.618 202.622 267.053 204.172 265.601 205.843C260.233 212.045 255.314 220.512 263.476 228.621C265.264 230.41 266.607 230.291 267.613 229.216C268.507 228.023 268.618 225.758 268.73 223.73C268.841 222.537 268.282 221.821 268.618 221.703C268.841 221.465 268.507 222.776 269.85 225.401C270.744 227.189 271.975 228.262 273.204 228.621C274.209 228.739 275.104 228.621 275.886 227.905C276.335 227.548 276.781 227.071 277.117 226.355V213.238C276.894 212.045 276.558 210.851 276.112 209.54C276 209.183 275.777 208.108 275.552 206.797C274.992 204.174 274.321 200.715 273.538 199.879C272.867 199.163 272.084 199.045 271.413 199.879H271.415ZM271.752 203.577L271.975 203.459C272.198 204.531 272.535 206.081 272.758 207.395C272.981 208.826 273.206 210.017 273.429 210.495C275.666 217.531 275.777 222.062 274.994 224.328C274.771 224.923 274.546 225.283 274.212 225.521C274.1 225.639 273.989 225.639 273.877 225.639C273.317 225.521 272.76 224.923 272.312 223.969C270.075 219.437 268.509 218.365 267.28 218.96C266.049 219.676 266.049 221.583 265.938 223.612C265.826 225.162 265.826 226.832 265.49 227.189C265.378 227.307 265.713 226.712 265.378 226.473C259.004 220.153 263.141 213.117 267.726 207.87C269.069 206.32 270.523 204.77 271.752 203.577Z" fill="#B19F6F"/>
<path d="M153.105 19.0854L153.328 19.324C155.117 20.7557 157.802 20.0399 160.485 18.1309C161.827 17.1764 163.281 15.8651 164.51 14.4333C165.741 13.0016 166.97 11.3335 167.864 9.78132C169.878 6.08377 170.661 2.38846 168.759 0.240853L168.536 0.00223012H157.914C158.585 2.14984 160.373 3.46115 166.97 2.86348C167.418 4.05659 166.636 6.08377 165.404 8.22915C164.622 9.66089 163.616 11.0904 162.496 12.2835C161.265 13.5948 160.037 14.7879 158.917 15.622C157.686 16.5765 156.457 17.1719 155.674 17.0537C155.563 15.8606 155.115 14.0721 154.669 12.0449C153.774 8.46777 152.543 3.81574 152.097 0H149.301C149.749 4.17479 150.978 9.06322 151.872 12.879C152.543 15.5016 153.549 16.8151 153.326 17.0537C153.103 17.2924 153.326 17.4106 153.661 17.4106L154.109 17.8878L153.103 19.0809L153.105 19.0854ZM154.559 17.2968L154.111 17.8923L153.663 17.415C153.997 17.5332 154.334 17.415 154.557 17.2968H154.559Z" fill="#B19F6F"/>
<path d="M227.353 109.124C215.165 105.547 208.903 101.016 206.666 97.1978C205.995 96.0047 205.772 95.0502 205.884 94.2161C205.995 93.5003 206.555 92.9048 207.226 92.5458C209.24 91.5913 212.594 91.8299 216.731 93.9775L217.402 94.3343L218.073 93.8571C218.968 93.2616 219.079 91.5913 219.304 89.5641C219.416 87.1779 219.753 83.9598 220.31 83.6007C220.87 83.3621 222.21 85.2711 225.341 91.7095C225.453 91.8277 225.901 95.407 226.347 99.5796C226.682 102.918 227.018 106.616 227.353 109.12V109.124ZM204.318 98.8682C206.889 103.161 213.934 108.409 227.576 112.224V112.463H228.359L228.47 112.345L230.37 112.227C230.37 111.749 229.699 104.952 229.139 99.2272C228.579 94.8138 228.133 90.8799 227.908 90.4026C223.771 81.8167 220.975 79.9077 219.075 80.9804C217.061 82.053 216.726 86.2278 216.503 89.3277C216.392 89.9231 216.503 90.2822 216.615 90.639C212.141 88.6118 208.453 88.6118 206.104 89.8049C204.539 90.639 203.421 91.9526 203.085 93.6207C202.862 95.1706 203.196 96.9592 204.316 98.8682H204.318Z" fill="#B19F6F"/>
<path d="M212.818 150.388C216.62 163.267 216.397 171.378 214.718 175.312C214.158 176.623 213.487 177.46 212.704 177.698C212.033 177.937 211.361 177.817 210.69 177.341C208.902 176.148 207.225 173.049 206.665 168.158L206.553 167.324L205.882 166.967C204.988 166.49 203.534 167.324 201.857 168.278C199.843 169.351 197.16 170.783 196.6 170.426C196.04 170.187 196.823 167.921 200.18 161.601C200.291 161.483 202.862 159.097 205.882 156.474C208.342 154.327 211.027 152.061 212.815 150.393L212.818 150.388ZM217.291 176.623C219.305 171.971 219.528 162.79 215.166 148.479L215.277 148.361L215.054 148.004L214.943 147.647H214.831L213.6 145.977C213.152 146.216 208.233 150.509 204.096 154.206C200.853 157.067 198.056 159.572 197.722 160.049C193.248 168.396 193.248 171.976 195.151 173.049C197.051 174.242 200.519 172.333 203.09 170.901C203.65 170.662 203.873 170.305 204.096 170.067C204.878 175.076 206.892 178.414 209.127 179.964C210.692 180.919 212.258 181.157 213.712 180.56C215.166 179.964 216.395 178.651 217.291 176.623Z" fill="#B19F6F"/>
<path d="M277.119 88.1343C275.777 88.1343 274.548 88.4911 273.428 88.9683C271.191 90.041 269.849 92.0682 270.074 94.4544C270.186 96.1248 271.08 97.7929 272.982 99.4633C270.634 100.418 267.503 102.086 266.385 104.354C265.154 106.858 265.937 109.84 271.53 112.94C272.202 113.297 273.879 113.179 276.115 112.822L277.121 112.583V109.483C276.562 109.601 276.115 109.722 275.556 109.84L272.873 110.317C269.182 108.29 268.399 106.858 268.848 105.786C269.965 103.52 274.661 101.97 276.227 101.493C276.675 101.611 276.898 101.611 277.121 101.493V98.7497L276.898 98.6315C274.102 97.0815 272.984 95.5316 272.873 94.218C272.761 93.1454 273.433 92.3091 274.661 91.7136C275.333 91.3568 276.227 91.1182 277.121 91.1182V88.1365L277.119 88.1343Z" fill="#B19F6F"/>
<path d="M28.3147 84.5573C-1.87672 90.0434 11.4304 67.9808 12.5477 67.1467C24.7353 58.9176 11.5419 63.9264 14.896 54.5064C26.6376 21.592 58.9543 82.0551 59.2888 82.2937C59.4003 82.2937 33.0113 83.7255 28.3147 84.5595V84.5573Z" fill="#B19F6F"/>
<path d="M61.969 157.065C52.3527 159.451 13.5508 170.542 29.6523 188.311C40.4996 200.356 40.4996 175.073 43.6307 197.613C44.4135 203.456 62.6403 209.301 59.6207 176.028C59.1724 170.901 64.6518 156.47 61.969 157.065ZM269.845 0.00439453H257.432C258.438 1.91338 259.558 4.05876 261.012 6.56318C265.485 5.25187 268.28 2.74744 269.845 0.00439453ZM230.709 0.00439453H219.416C219.193 1.43613 219.304 3.22469 219.975 5.25187C217.739 0.599837 200.183 7.39948 221.764 10.4993C221.764 10.4993 227.132 13.8378 227.132 14.4355C229.257 14.3173 233.06 23.2601 233.506 19.683C234.848 10.3812 233.171 3.94056 230.709 0.00662465V0.00439453ZM159.59 0.00439453H150.757C151.651 8.23354 155.565 19.4444 153.999 18.0126C158.136 21.8284 171.78 5.96774 167.753 1.19751C162.385 1.91338 160.485 1.19751 159.59 0.00439453ZM133.982 0.00439453H113.741C116.313 7.04043 121.009 13.2424 127.608 13.7196C128.056 13.7196 131.188 7.27905 133.982 0.00439453ZM134.653 128.444C135.547 128.087 113.518 136.553 110.612 136.673C96.188 137.389 113.855 124.151 113.855 124.033C100.771 91.9523 143.823 124.151 134.653 128.446V128.444ZM131.076 159.69C130.965 159.808 78.4072 131.425 90.8201 159.69C92.6087 163.626 97.5283 164.342 100.102 166.01C92.4971 167.442 87.466 195.943 110.501 172.092C116.652 165.651 129.622 160.642 131.076 159.69ZM140.692 195.586C123.583 181.155 92.2741 206.081 119.669 210.851C119.78 211.208 124.7 242.693 131.745 220.035C132.751 217.053 140.802 195.706 140.69 195.588L140.692 195.586ZM245.693 195.586C245.693 195.586 211.14 182.468 216.842 207.751C218.519 215.026 227.689 198.688 222.768 212.76C220.531 219.319 230.93 228.98 237.863 206.081C237.863 205.842 245.691 196.184 245.691 195.586H245.693ZM272.305 200.952C267.609 205.961 254.078 217.29 264.477 227.546C269.957 233.032 264.477 211.447 271.074 224.685C273.982 230.528 280.019 226.235 274.765 210.017C274.317 208.585 272.976 200.238 272.305 200.954V200.952ZM216.842 46.1568C210.58 35.0664 172.672 33.1574 195.932 52.2383C196.044 52.3565 189.67 69.6489 201.86 61.6606C202.754 61.1833 216.285 45.0841 216.844 46.1568H216.842ZM219.079 107.695C221.762 108.888 225.007 110.081 228.695 111.033L229.03 112.106C229.03 111.988 228.918 111.39 228.807 110.436C228.358 105.545 226.907 91.5933 226.681 91.116C216.728 70.6034 218.519 91.8319 217.288 92.5478C203.421 85.3913 196.49 98.2725 219.077 107.693L219.079 107.695ZM112.289 40.3138C87.1292 18.0126 70.9163 45.6795 90.1488 44.7273C81.5383 73.8259 112.512 40.5525 112.289 40.3138ZM59.2862 82.2914C58.9517 82.0528 26.635 21.5897 14.8934 54.5041C11.5393 63.9264 24.7327 58.9175 12.5451 67.1444C11.4278 67.9785 -1.87938 90.0411 28.312 84.555C33.0086 83.7209 59.3977 82.2892 59.2862 82.2892V82.2914ZM12.0968 135.362C-4.11842 138.343 -1.65636 116.519 17.9107 112.942C21.3763 112.347 41.7284 121.29 41.8399 121.051L41.0572 121.767C34.6835 125.942 18.582 149.793 16.9027 150.27C-6.91499 156.829 12.5406 137.152 12.0946 135.364L12.0968 135.362Z" fill="#B19F6F"/>
<path d="M205.213 168.276C203.982 167.681 188.215 180.798 198.95 160.763C199.285 160.167 213.712 147.645 214.269 147.286L213.598 148.12C224.668 183.539 207.336 186.641 205.21 168.274L205.213 168.276Z" fill="#B19F6F"/>
<path d="M277.12 111.033C274.548 111.629 272.535 111.867 272.2 111.629C259.23 104.472 276.337 99.9407 276.226 99.9407C268.175 95.409 271.529 89.6843 277.12 89.6843V111.031V111.033Z" fill="#B19F6F"/>
</g>
</svg>
