<svg width="460" height="600" viewBox="0 0 460 600" fill="none" xmlns="http://www.w3.org/2000/svg">
<g opacity="0.16">
<path d="M328.869 141.474C259.234 134.555 198.618 128.476 176.779 237.681C176.779 238.018 176.779 238.186 176.621 238.523L171.874 246.288L171.082 247.639L174.563 248.652C186.115 252.029 202.418 253.715 217.928 251.521C230.114 249.665 241.666 245.275 250.056 237.005C276.329 211.013 317.951 202.068 356.723 193.628C404.992 183.165 449.149 173.542 458.012 133.709L459.277 128.138L454.212 130.502C413.855 150.081 369.699 145.694 328.869 141.474ZM209.699 216.079C215.873 212.197 222.359 207.472 229.641 202.071C239.612 194.815 251.006 186.375 265.881 177.26C293.42 160.55 313.201 164.432 334.566 168.652C357.989 173.377 383.627 178.443 424.618 154.812L426.518 158.524C384.262 182.66 357.992 177.597 333.777 172.702C313.204 168.652 294.212 164.937 267.782 180.971C253.222 189.749 241.67 198.189 231.857 205.613C224.417 211.013 217.931 215.741 211.757 219.62L209.699 216.076V216.079Z" fill="#B19F6F"/>
<path d="M185.798 331.357C176.777 322.749 165.064 311.778 144.807 297.938L146.865 294.393C167.437 308.401 179.308 319.543 188.329 328.15C206.055 345.03 213.333 351.948 258.598 352.286V356.506C211.91 356.001 204.312 348.742 185.798 331.357ZM219.191 317.687C172.661 268.401 128.35 275.49 97.9609 280.891C106.189 283.93 114.263 290.511 122.492 305.87C170.603 395.834 219.507 379.291 255.59 366.969C266.826 363.087 276.955 359.713 285.66 359.713L296.738 359.88C271.1 352.791 240.398 339.964 219.191 317.684V317.687Z" fill="#B19F6F"/>
<path d="M186.432 444.106C165.382 302.833 100.337 311.778 38.6158 320.218C31.0186 321.231 23.5824 322.244 16.3008 323.087C52.7024 333.721 63.3044 359.713 75.1752 389.082C93.0588 432.967 114.108 484.784 236.92 501.494C266.832 505.543 277.592 509.258 277.753 508.245C277.911 506.894 273.164 507.74 266.359 505.038C241.67 494.91 190.866 474.151 186.435 444.106H186.432ZM143.702 403.765C150.191 426.888 157.469 453.389 210.012 485.627L208.112 489.339C154.146 456.258 146.549 428.744 140.059 404.946C133.57 381.147 128.031 361.061 74.8565 341.99C73.1142 341.485 72.3251 340.639 71.6907 339.964C71.3751 339.797 71.2172 339.459 70.7406 339.626L70.425 335.406C72.6407 335.239 73.433 336.082 74.383 336.924C74.6986 337.429 75.1752 337.767 75.9643 338.105C131.196 357.683 136.897 378.783 143.702 403.762V403.765Z" fill="#B19F6F"/>
<path d="M124.077 239.878C150.982 198.861 141.488 171.856 132.467 146.369C122.338 118.013 113.002 91.3453 150.35 50.8373C152.093 48.811 152.882 46.9551 153.674 45.4369C154.624 43.4105 155.255 41.7251 157.155 40.5415L159.213 44.086C158.263 44.7614 157.79 45.7746 157.155 47.2928C156.363 48.9814 155.255 51.175 153.04 53.7064C117.43 92.3584 126.451 117.846 136.106 144.851C145.442 171.518 155.413 199.537 127.243 242.239L124.077 239.874V239.878ZM98.5966 278.697C167.757 235.825 160.16 201.901 151.774 164.092C142.595 122.571 132.309 76.6622 211.914 11.8475C219.035 6.10938 222.677 2.22713 223.624 0.0335019C223.624 -0.133782 222.358 0.371226 220.3 0.53851C215.711 1.04352 208.43 3.06986 200.043 6.10938C165.7 18.2611 110.31 46.4501 101.128 61.8086C78.813 99.4475 88.1493 121.22 98.9123 146.369C111.73 176.076 126.451 210.508 98.5966 278.697Z" fill="#B19F6F"/>
<path d="M0 305.873V190.087C1.42349 200.216 3.32358 209.836 5.22368 219.286C11.2364 249.331 16.6179 276.166 0 305.873ZM0 135.906V85.7775C4.58926 82.738 9.49415 80.0394 14.4022 77.508C17.2523 76.1571 20.2571 74.8062 23.2651 73.4585C15.5101 83.0789 6.17372 100.802 0.476601 133.545C0.318786 134.22 0.160971 135.063 0.0031563 135.909L0 135.906Z" fill="#B19F6F"/>
<path d="M56.34 442.755C56.0243 402.585 30.8591 387.561 0 383.174V408.323C38.7751 424.865 44.7879 452.546 50.0116 476.344C53.8086 494.067 57.1322 509.258 73.7501 515.164L72.4844 519.213C53.8086 512.462 50.3272 496.09 46.2114 477.354C41.3065 454.907 35.6094 428.744 0 412.71V444.778C9.02071 458.786 15.1944 471.446 20.4149 482.588C36.2406 515.669 45.8958 535.755 113.949 538.116C91.4759 528.496 56.9744 503.852 56.34 442.752V442.755Z" fill="#B19F6F"/>
<path d="M0 588.923C37.9829 600.737 79.7629 600.4 97.0152 599.724C91.6337 597.193 81.9817 593.816 67.2608 591.455C23.4229 584.198 10.2864 562.256 0 536.598V571.368C6.01275 574.912 13.1365 578.624 21.5228 582.507L20.0993 586.389C12.3443 582.844 5.69712 579.47 0 576.093V588.92L0 588.923Z" fill="#B19F6F"/>
<path d="M53.0164 300.302C35.6062 309.417 17.8836 319.038 0 329.334V335.747C5.85494 332.37 11.8708 329.163 17.7258 325.789H16.9336L17.2492 320.051C20.7306 320.218 24.212 320.389 27.6934 320.218C37.0297 315.155 46.2114 310.26 55.3899 305.365C70.7422 297.262 86.0912 289.498 101.128 281.904C100.178 281.904 99.3856 281.399 98.7543 280.386C98.2809 279.372 98.4387 278.192 99.07 277.346C98.9121 277.179 98.7543 277.008 98.7543 276.841C83.5599 284.268 68.3686 292.2 53.0164 300.302Z" fill="#B19F6F"/>
<path d="M107.934 270.257C103.345 274.139 98.2792 278.021 92.582 282.071C93.5321 282.409 94.4821 282.576 95.4322 282.746C121.229 270.086 146.709 257.935 172.348 245.95L177.414 237.343C154.307 248.144 131.203 259.115 107.937 270.257H107.934Z" fill="#B19F6F"/>
</g>
</svg>
