<svg width="257" height="335" viewBox="0 0 257 335" fill="none" xmlns="http://www.w3.org/2000/svg">
<g opacity="0.16">
<path d="M183.617 78.989C144.738 75.1261 110.894 71.732 98.7004 132.705C98.7004 132.893 98.7004 132.986 98.6123 133.175L95.9619 137.51L95.5195 138.264L97.4633 138.83C103.913 140.716 113.015 141.657 121.675 140.432C128.479 139.396 134.929 136.945 139.613 132.327C154.282 117.815 177.521 112.821 199.169 108.109C226.119 102.267 250.773 96.8936 255.722 74.6538L256.428 71.5435L253.6 72.8634C231.067 83.7947 206.413 81.3452 183.617 78.989ZM117.081 120.644C120.528 118.476 124.149 115.838 128.215 112.823C133.782 108.771 140.144 104.059 148.449 98.9695C163.825 89.6401 174.869 91.8077 186.798 94.1639C199.875 96.802 214.19 99.6304 237.077 86.4363L238.138 88.5088C214.544 101.985 199.877 99.1581 186.357 96.4248C174.871 94.1639 164.267 92.0897 149.51 101.042C141.381 105.943 134.931 110.655 129.452 114.8C125.298 117.815 121.677 120.455 118.23 122.621L117.081 120.642V120.644Z" fill="#B19F6F"/>
<path d="M103.737 185.007C98.7008 180.201 92.161 174.076 80.8508 166.348L81.9998 164.369C93.4862 172.19 100.114 178.411 105.151 183.216C115.048 192.641 119.111 196.504 144.384 196.692V199.049C118.317 198.767 114.075 194.713 103.737 185.007ZM122.382 177.375C96.4028 149.857 71.6624 153.815 54.6953 156.83C59.2895 158.527 63.7974 162.201 68.3916 170.777C95.2538 221.006 122.558 211.77 142.704 204.891C148.978 202.723 154.633 200.839 159.494 200.839L165.679 200.932C151.364 196.974 134.223 189.813 122.382 177.373V177.375Z" fill="#B19F6F"/>
<path d="M104.091 247.959C92.3385 169.081 56.0218 174.076 21.5608 178.788C17.319 179.354 13.1671 179.919 9.10156 180.39C29.4257 186.327 35.3452 200.839 41.973 217.237C51.958 241.74 63.7105 270.671 132.28 280C148.981 282.261 154.989 284.335 155.079 283.77C155.167 283.015 152.516 283.488 148.717 281.979C134.932 276.324 106.567 264.734 104.093 247.959H104.091ZM80.2335 225.435C83.8567 238.345 87.9205 253.141 117.257 271.141L116.196 273.214C86.0648 254.743 81.8231 239.382 78.1999 226.094C74.5767 212.807 71.4839 201.592 41.7951 190.944C40.8223 190.662 40.3817 190.19 40.0275 189.813C39.8513 189.719 39.7632 189.531 39.4971 189.624L39.3208 187.268C40.5579 187.175 41.0003 187.645 41.5307 188.116C41.7069 188.398 41.973 188.586 42.4136 188.775C73.2514 199.706 76.4341 211.487 80.2335 225.433V225.435Z" fill="#B19F6F"/>
<path d="M69.2753 133.931C84.2968 111.031 78.9959 95.9528 73.9594 81.7225C68.3043 65.8903 63.0915 51.001 83.9444 28.3841C84.9171 27.2527 85.3577 26.2165 85.8 25.3689C86.3305 24.2375 86.6829 23.2964 87.7438 22.6356L88.8928 24.6146C88.3623 24.9917 88.098 25.5574 87.7438 26.4051C87.3015 27.3479 86.6829 28.5726 85.4458 29.986C65.564 51.5666 70.6005 65.7969 75.9913 80.8748C81.204 95.7642 86.771 111.408 71.0428 135.249L69.2753 133.93V133.931ZM55.0485 155.605C93.6632 131.669 89.4215 112.728 84.7391 91.6176C79.6145 68.435 73.8713 42.8029 118.317 6.61485C122.293 3.41106 124.327 1.24348 124.855 0.0187052C124.855 -0.0746948 124.149 0.207267 123 0.300667C120.437 0.582629 116.372 1.714 111.689 3.41106C92.5142 10.1958 61.5883 25.9345 56.4619 34.5097C44.0027 55.5247 49.2154 67.6808 55.2248 81.7225C62.3813 98.3089 70.6005 117.533 55.0485 155.605Z" fill="#B19F6F"/>
<path d="M0 170.778V106.132C0.79478 111.787 1.85566 117.158 2.91654 122.434C6.27365 139.209 9.27831 154.192 0 170.778ZM0 75.8805V47.8923C2.56233 46.1952 5.30089 44.6885 8.0412 43.2751C9.63253 42.5209 11.3102 41.7666 12.9896 41.0142C8.65976 46.3855 3.44699 56.2806 0.266102 74.5623C0.177988 74.9395 0.0898754 75.41 0.00176226 75.8823L0 75.8805Z" fill="#B19F6F"/>
<path d="M31.4564 247.204C31.2802 224.776 17.2296 216.388 0 213.938V227.98C21.6494 237.216 25.0065 252.671 27.923 265.958C30.043 275.853 31.8987 284.335 41.177 287.632L40.4704 289.893C30.043 286.124 28.0993 276.983 25.8013 266.522C23.0627 253.989 19.8818 239.382 0 230.429V248.334C5.03655 256.155 8.48353 263.223 11.3983 269.444C20.2343 287.914 25.6251 299.129 63.6212 300.447C51.0739 295.076 31.8106 281.316 31.4564 247.202V247.204Z" fill="#B19F6F"/>
<path d="M0 328.814C21.2071 335.411 44.5341 335.222 54.1667 334.845C51.162 333.432 45.773 331.546 37.5538 330.228C13.0778 326.176 5.74321 313.925 0 299.6V319.013C3.35711 320.992 7.33454 323.064 12.0169 325.232L11.2221 327.399C6.89221 325.42 3.18088 323.536 0 321.651V328.813L0 328.814Z" fill="#B19F6F"/>
<path d="M29.6007 167.668C19.8801 172.757 9.98498 178.129 0 183.877V187.458C3.269 185.572 6.62787 183.782 9.89687 181.898H9.45454L9.63076 178.694C11.5745 178.788 13.5183 178.883 15.4621 178.788C20.6749 175.961 25.8013 173.228 30.9259 170.494C39.4976 165.971 48.0675 161.636 56.4629 157.396C55.9324 157.396 55.4901 157.114 55.1377 156.548C54.8733 155.982 54.9614 155.323 55.3139 154.851C55.2258 154.757 55.1377 154.662 55.1377 154.569C46.6541 158.715 38.1724 163.144 29.6007 167.668Z" fill="#B19F6F"/>
<path d="M60.2631 150.893C57.7007 153.061 54.8723 155.228 51.6914 157.489C52.2218 157.678 52.7523 157.771 53.2827 157.866C67.6857 150.798 81.9124 144.013 96.2273 137.322L99.0557 132.516C86.1542 138.547 73.2545 144.672 60.2648 150.893H60.2631Z" fill="#B19F6F"/>
</g>
</svg>
