<svg width="364" height="440" viewBox="0 0 364 440" fill="none" xmlns="http://www.w3.org/2000/svg">
<mask id="path-1-inside-1_3_2289" fill="white">
<path fill-rule="evenodd" clip-rule="evenodd" d="M364 8C364 3.58172 360.418 0 356 0H8C3.58172 0 0 3.58171 0 7.99999V432C0 436.418 3.58173 440 8 440H284.655C286.795 440 288.846 439.143 290.349 437.619L325.5 402L361.62 366.349C363.143 364.846 364 362.795 364 360.656V8Z"/>
</mask>
<path d="M325.5 402L324.797 401.288L324.788 401.298L325.5 402ZM290.349 437.619L289.638 436.917L290.349 437.619ZM361.62 366.349L360.917 365.638L361.62 366.349ZM8 1H356V-1H8V1ZM1 432V7.99999H-1V432H1ZM284.655 439H8V441H284.655V439ZM291.061 438.322L326.212 402.702L324.788 401.298L289.638 436.917L291.061 438.322ZM326.202 402.712L362.322 367.061L360.917 365.638L324.798 401.288L326.202 402.712ZM363 8V360.656H365V8H363ZM284.655 441C287.063 441 289.37 440.035 291.061 438.322L289.638 436.917C288.322 438.25 286.528 439 284.655 439V441ZM-1 432C-1 436.971 3.02944 441 8 441V439C4.13401 439 1 435.866 1 432H-1ZM356 1C359.866 1 363 4.13401 363 8H365C365 3.02944 360.971 -1 356 -1V1ZM362.322 367.061C364.036 365.37 365 363.063 365 360.656H363C363 362.528 362.25 364.322 360.917 365.638L362.322 367.061ZM8 -1C3.02944 -1 -1 3.02943 -1 7.99999H1C1 4.134 4.13401 1 8 1V-1Z" fill="#3D3D3D" fill-opacity="0.32" mask="url(#path-1-inside-1_3_2289)"/>
</svg>
