<svg width="40" height="40" viewBox="0 0 40 40" fill="none" xmlns="http://www.w3.org/2000/svg">
<mask id="path-1-inside-1_3_2263" fill="white">
<path fill-rule="evenodd" clip-rule="evenodd" d="M32.9372 1.17157C32.1871 0.421426 31.1696 0 30.1088 0H4C1.79086 0 0 1.79086 0 4V36C0 38.2091 1.79086 40 4 40H36C38.2091 40 40 38.2091 40 36V9.89123C40 8.83036 39.5786 7.81295 38.8284 7.0628L36.381 4.61538L32.9372 1.17157Z"/>
</mask>
<path d="M36.381 4.61538L35.6739 5.32249L35.6739 5.32249L36.381 4.61538ZM38.8284 7.0628L38.1213 7.76991L38.8284 7.0628ZM32.9372 1.17157L33.6443 0.464465L32.9372 1.17157ZM4 1H30.1088V-1H4V1ZM1 36V4H-1V36H1ZM36 39H4V41H36V39ZM39 9.89123V36H41V9.89123H39ZM39.5355 6.3557L37.0881 3.90828L35.6739 5.32249L38.1213 7.76991L39.5355 6.3557ZM37.0881 3.90828L33.6443 0.464465L32.2301 1.87868L35.6739 5.32249L37.0881 3.90828ZM41 9.89123C41 8.56515 40.4732 7.29338 39.5355 6.3557L38.1213 7.76991C38.6839 8.33252 39 9.09558 39 9.89123H41ZM36 41C38.7614 41 41 38.7614 41 36H39C39 37.6569 37.6569 39 36 39V41ZM-1 36C-1 38.7614 1.23858 41 4 41V39C2.34315 39 1 37.6569 1 36H-1ZM30.1088 1C30.9044 1 31.6675 1.31607 32.2301 1.87868L33.6443 0.464465C32.7066 -0.473217 31.4349 -1 30.1088 -1V1ZM4 -1C1.23858 -1 -1 1.23858 -1 4H1C1 2.34315 2.34315 1 4 1V-1Z" fill="white" mask="url(#path-1-inside-1_3_2263)"/>
</svg>
