<svg width="167" height="167" viewBox="0 0 167 167" fill="none" xmlns="http://www.w3.org/2000/svg">
<g filter="url(#filter0_b_2018_980)">
<path d="M167 83.5C167 129.616 129.616 167 83.5 167C37.3842 167 0 129.616 0 83.5C0 37.3842 37.3842 0 83.5 0C129.616 0 167 37.3842 167 83.5ZM47.967 83.5C47.967 103.124 63.8757 119.033 83.5 119.033C103.124 119.033 119.033 103.124 119.033 83.5C119.033 63.8757 103.124 47.967 83.5 47.967C63.8757 47.967 47.967 63.8757 47.967 83.5Z" fill="white" fill-opacity="0.28"/>
</g>
<path d="M139.77 83.7335C139.773 83.6801 139.792 83.6331 139.827 83.5925C139.872 83.5633 139.921 83.5504 139.975 83.5539L150.82 84.2651C150.873 84.2686 150.915 84.2874 150.945 84.3215C150.985 84.3671 151.003 84.4165 151 84.4699L150.903 85.9435C150.899 85.9969 150.875 86.0382 150.83 86.0674C150.795 86.108 150.751 86.1266 150.697 86.1231L141.345 85.5098C141.291 85.5062 141.263 85.5312 141.259 85.5846L140.969 89.9893C140.966 90.0427 140.942 90.084 140.897 90.1133C140.862 90.1539 140.818 90.1724 140.764 90.1689L139.545 90.089C139.492 90.0854 139.445 90.0609 139.405 90.0154C139.375 89.9813 139.362 89.9375 139.365 89.8841L139.77 83.7335Z" fill="white"/>
<path d="M147.543 99.4702C147.491 99.4596 147.448 99.429 147.414 99.3786C147.389 99.3408 147.382 99.2956 147.393 99.2432L148.28 94.8697C148.291 94.8172 148.27 94.7857 148.217 94.7751L145.255 94.1757C145.203 94.1651 145.171 94.186 145.16 94.2385L144.592 97.0388C144.581 97.0912 144.552 97.1289 144.503 97.1519C144.463 97.1874 144.417 97.1999 144.365 97.1893L143.167 96.947C143.115 96.9364 143.072 96.9058 143.038 96.8554C143.013 96.8175 143.006 96.7724 143.016 96.72L143.585 93.9197C143.595 93.8672 143.574 93.8357 143.522 93.8251L140.497 93.213C140.444 93.2024 140.412 93.2233 140.402 93.2757L139.514 97.6492C139.503 97.7016 139.474 97.7393 139.426 97.7623C139.386 97.7979 139.339 97.8104 139.287 97.7997L138.089 97.5574C138.037 97.5468 137.994 97.5163 137.96 97.4658C137.935 97.428 137.928 97.3828 137.938 97.3304L139.174 91.2421C139.185 91.1897 139.21 91.1457 139.25 91.1101C139.299 91.0871 139.349 91.081 139.402 91.0916L150.053 93.2467C150.106 93.2573 150.145 93.2815 150.17 93.3193C150.203 93.3698 150.215 93.4212 150.204 93.4737L148.968 99.562C148.958 99.6144 148.928 99.6521 148.88 99.6751C148.84 99.7107 148.793 99.7231 148.741 99.7125L147.543 99.4702Z" fill="white"/>
<path d="M135.66 103.982C135.7 103.871 135.776 103.819 135.888 103.825L137.647 104.018C137.691 104.023 137.721 104.005 137.735 103.965L138.864 100.856C138.878 100.816 138.867 100.783 138.831 100.759L137.35 99.7961C137.26 99.7295 137.236 99.6408 137.276 99.5302L137.796 98.0965C137.844 97.9657 137.927 97.9391 138.047 98.0167L147.283 104.466C147.373 104.533 147.398 104.621 147.358 104.732L146.733 106.452C146.693 106.563 146.617 106.615 146.505 106.609L135.276 105.653L135.21 105.646C135.119 105.613 135.094 105.541 135.134 105.431L135.66 103.982ZM140.226 101.673C140.199 101.652 140.172 101.648 140.145 101.661C140.127 101.677 140.115 101.696 140.108 101.716L139.242 104.1C139.235 104.12 139.233 104.142 139.235 104.166C139.248 104.194 139.272 104.208 139.305 104.209L144.712 104.765C144.746 104.766 144.767 104.756 144.774 104.736C144.781 104.716 144.772 104.695 144.745 104.674L140.226 101.673Z" fill="white"/>
<path d="M132.082 111.196C132.138 111.092 132.221 111.052 132.331 111.075L137.212 111.765C137.26 111.766 137.292 111.753 137.307 111.725L137.971 110.514C137.996 110.467 137.986 110.431 137.939 110.405L133.932 108.218C133.885 108.192 133.853 108.15 133.836 108.092C133.824 108.049 133.83 108.003 133.856 107.956L134.565 106.661C134.591 106.614 134.628 106.579 134.677 106.557C134.73 106.549 134.78 106.558 134.827 106.584L144.363 111.79C144.41 111.816 144.44 111.85 144.453 111.894C144.47 111.952 144.465 112.005 144.44 112.052L142.658 115.305C142.365 115.84 141.983 116.247 141.512 116.527C141.051 116.812 140.537 116.946 139.972 116.93C139.416 116.919 138.856 116.76 138.291 116.452C137.68 116.118 137.226 115.687 136.929 115.159C136.632 114.631 136.523 114.072 136.602 113.481C136.609 113.423 136.584 113.391 136.527 113.384L131.469 112.782C131.445 112.781 131.414 112.771 131.377 112.75C131.302 112.709 131.29 112.641 131.341 112.548L132.082 111.196ZM142.188 112.817C142.214 112.77 142.203 112.733 142.156 112.708L139.349 111.175C139.302 111.149 139.266 111.16 139.24 111.207L138.43 112.686C138.214 113.08 138.171 113.471 138.301 113.859C138.44 114.252 138.73 114.569 139.172 114.811C139.623 115.057 140.048 115.13 140.445 115.03C140.851 114.934 141.162 114.69 141.378 114.295L142.188 112.817Z" fill="white"/>
<path d="M135.969 124.95C136.012 124.982 136.036 125.021 136.042 125.066C136.05 125.126 136.038 125.177 136.006 125.22L135.11 126.395C135.077 126.437 135.034 126.459 134.981 126.458C134.929 126.473 134.882 126.464 134.839 126.431L126.192 119.858C126.15 119.825 126.124 119.779 126.116 119.719C126.11 119.674 126.123 119.63 126.156 119.588L127.101 118.349C127.159 118.272 127.243 118.242 127.352 118.258L135.206 119.83C135.244 119.833 135.266 119.822 135.27 119.799C135.283 119.782 135.273 119.76 135.239 119.734L129.562 115.439C129.52 115.407 129.494 115.36 129.486 115.3C129.48 115.255 129.493 115.212 129.526 115.169L130.422 113.994C130.454 113.952 130.496 113.923 130.548 113.908C130.602 113.909 130.65 113.925 130.692 113.958L139.339 120.531C139.382 120.564 139.406 120.602 139.412 120.647C139.42 120.707 139.408 120.759 139.376 120.801L138.441 122.027C138.376 122.112 138.292 122.143 138.189 122.119L130.3 120.539C130.262 120.537 130.236 120.544 130.223 120.561C130.218 120.585 130.233 120.609 130.267 120.635L135.969 124.95Z" fill="white"/>
<path d="M124.724 136.022C124.745 136.116 124.715 136.196 124.632 136.264L123.476 137.211C123.435 137.245 123.388 137.256 123.336 137.243C123.282 137.245 123.238 137.226 123.204 137.184L116.31 128.797C116.276 128.755 116.262 128.704 116.268 128.644C116.272 128.599 116.295 128.559 116.336 128.526L117.48 127.589C117.521 127.555 117.569 127.537 117.622 127.534C117.674 127.547 117.717 127.574 117.751 127.615L122.586 133.497C122.613 133.53 122.635 133.54 122.651 133.526C122.675 133.521 122.685 133.499 122.681 133.461L122.213 130.21C122.192 130.116 122.223 130.036 122.306 129.968L122.542 129.774C122.625 129.706 122.71 129.692 122.797 129.731L125.889 130.811C125.926 130.822 125.95 130.817 125.959 130.795C125.976 130.781 125.971 130.758 125.943 130.725L121.119 124.856C121.085 124.814 121.071 124.764 121.077 124.703C121.082 124.658 121.105 124.619 121.146 124.585L122.289 123.648C122.331 123.614 122.378 123.596 122.432 123.593C122.484 123.606 122.527 123.633 122.561 123.674L129.456 132.062C129.49 132.104 129.504 132.147 129.5 132.192C129.494 132.252 129.47 132.299 129.429 132.333L128.285 133.27C128.203 133.338 128.117 133.353 128.03 133.314L124.27 132.054C124.205 132.025 124.18 132.045 124.196 132.115L124.724 136.022Z" fill="white"/>
<path d="M112.138 130.927C112.748 130.57 113.363 130.378 113.981 130.351C114.589 130.33 115.156 130.47 115.68 130.771C116.201 131.087 116.637 131.545 116.989 132.145L119.281 136.051C119.628 136.642 119.809 137.236 119.825 137.835C119.836 138.448 119.684 139.014 119.368 139.534C119.043 140.059 118.575 140.5 117.965 140.857C117.345 141.22 116.731 141.412 116.122 141.433C115.504 141.459 114.93 141.317 114.4 141.007C113.876 140.706 113.44 140.26 113.094 139.669L110.802 135.763C110.45 135.163 110.268 134.557 110.256 133.943C110.25 133.34 110.409 132.775 110.734 132.25C111.051 131.73 111.518 131.289 112.138 130.927ZM112.951 132.312C112.497 132.577 112.221 132.931 112.121 133.374C112.016 133.832 112.1 134.291 112.371 134.753L114.727 138.77C115.004 139.241 115.364 139.538 115.81 139.662C116.251 139.801 116.699 139.737 117.152 139.472C117.596 139.213 117.865 138.857 117.96 138.404C118.06 137.961 117.972 137.504 117.696 137.033L115.339 133.017C115.069 132.555 114.712 132.255 114.271 132.116C113.835 131.987 113.395 132.052 112.951 132.312Z" fill="white"/>
<path d="M102.725 135.529C102.835 135.486 102.924 135.508 102.994 135.596L106.309 139.238C106.345 139.27 106.378 139.28 106.408 139.268L107.693 138.759C107.743 138.74 107.758 138.705 107.738 138.655L106.054 134.418C106.034 134.368 106.036 134.315 106.06 134.26C106.079 134.218 106.112 134.187 106.162 134.168L107.537 133.623C107.587 133.603 107.638 133.6 107.689 133.615C107.735 133.642 107.768 133.681 107.788 133.731L111.796 143.817C111.815 143.867 111.816 143.913 111.798 143.954C111.774 144.01 111.737 144.048 111.688 144.067L108.235 145.435C107.668 145.66 107.113 145.73 106.572 145.645C106.035 145.57 105.554 145.346 105.129 144.973C104.708 144.61 104.379 144.13 104.142 143.534C103.885 142.887 103.811 142.266 103.92 141.67C104.029 141.074 104.303 140.574 104.742 140.17C104.784 140.13 104.785 140.09 104.746 140.048L101.239 136.36C101.221 136.344 101.204 136.316 101.189 136.276C101.157 136.197 101.191 136.137 101.291 136.098L102.725 135.529ZM109.466 143.22C109.516 143.201 109.531 143.166 109.511 143.116L108.331 140.147C108.311 140.097 108.276 140.082 108.227 140.102L106.657 140.724C106.239 140.889 105.956 141.163 105.807 141.544C105.663 141.935 105.684 142.364 105.869 142.832C106.059 143.309 106.339 143.636 106.708 143.812C107.082 143.998 107.478 144.008 107.897 143.842L109.466 143.22Z" fill="white"/>
<path d="M95.5797 147.626C95.5675 147.574 95.5773 147.522 95.6093 147.471C95.6332 147.432 95.6713 147.407 95.7235 147.395L100.075 146.376C100.127 146.363 100.147 146.331 100.135 146.279L99.4443 143.341C99.4321 143.289 99.3999 143.269 99.3477 143.281L96.5616 143.934C96.5094 143.946 96.4628 143.935 96.4217 143.901C96.3726 143.879 96.342 143.842 96.3297 143.79L96.0506 142.603C96.0384 142.551 96.0483 142.499 96.0802 142.447C96.1042 142.409 96.1422 142.383 96.1944 142.371L98.9805 141.719C99.0327 141.706 99.0526 141.674 99.0404 141.622L98.3354 138.622C98.3231 138.57 98.2909 138.55 98.2387 138.562L93.8874 139.581C93.8352 139.593 93.7886 139.582 93.7475 139.548C93.6984 139.526 93.6678 139.49 93.6555 139.438L93.3765 138.25C93.3642 138.198 93.3741 138.146 93.406 138.095C93.43 138.056 93.468 138.031 93.5202 138.018L99.5776 136.599C99.6298 136.587 99.6804 136.592 99.7295 136.613C99.7706 136.648 99.7973 136.691 99.8095 136.743L102.292 147.307C102.304 147.359 102.298 147.405 102.274 147.443C102.242 147.495 102.2 147.526 102.148 147.539L96.0907 148.958C96.0385 148.97 95.9918 148.959 95.9508 148.924C95.9017 148.903 95.871 148.866 95.8588 148.814L95.5797 147.626Z" fill="white"/>
<path d="M84.4928 149.999C83.8712 150.011 83.322 149.883 82.8451 149.614C82.3575 149.345 81.9802 148.956 81.7131 148.447C81.4354 147.95 81.2903 147.374 81.2777 146.722C81.2653 146.08 81.3883 145.51 81.6467 145.013C81.8943 144.516 82.2566 144.123 82.7334 143.836C83.1998 143.559 83.7383 143.415 84.3492 143.404L86.3263 143.365C86.3799 143.364 86.4061 143.337 86.4051 143.284L86.3204 138.902C86.3194 138.849 86.3399 138.8 86.3819 138.757C86.4134 138.724 86.456 138.707 86.5096 138.706L87.9884 138.677C88.042 138.676 88.0905 138.692 88.134 138.723C88.167 138.765 88.184 138.813 88.185 138.866L88.3951 149.731C88.3961 149.785 88.3809 149.828 88.3493 149.861C88.3073 149.904 88.2595 149.927 88.2059 149.928L84.4928 149.999ZM84.6674 144.89C84.1958 144.9 83.8238 145.062 83.5512 145.378C83.268 145.704 83.1315 146.13 83.1417 146.654C83.152 147.189 83.305 147.614 83.6005 147.929C83.8853 148.245 84.2635 148.398 84.735 148.389L86.4228 148.357C86.4764 148.356 86.5026 148.328 86.5016 148.275L86.4371 144.937C86.436 144.883 86.4087 144.857 86.3551 144.858L84.6674 144.89Z" fill="white"/>
<path d="M74.9938 138.07C75.1107 138.085 75.1784 138.147 75.1967 138.257L76.3338 143.047C76.3497 143.092 76.3735 143.117 76.4054 143.121L77.7769 143.296C77.8301 143.303 77.86 143.279 77.8668 143.226L78.4459 138.704C78.4527 138.651 78.48 138.606 78.528 138.569C78.564 138.542 78.6085 138.531 78.6617 138.538L80.1289 138.725C80.182 138.732 80.2278 138.754 80.2663 138.791C80.2927 138.838 80.3025 138.888 80.2958 138.941L78.9175 149.704C78.9107 149.757 78.8893 149.797 78.8533 149.825C78.8054 149.862 78.7548 149.877 78.7017 149.871L75.0178 149.4C74.4118 149.323 73.8926 149.117 73.4601 148.781C73.0263 148.456 72.7138 148.027 72.5225 147.496C72.3299 146.975 72.2743 146.396 72.3559 145.759C72.4443 145.069 72.6805 144.49 73.0647 144.021C73.4489 143.552 73.931 143.247 74.511 143.105C74.5669 143.091 74.5876 143.056 74.5732 143L73.2908 138.079C73.2829 138.056 73.2816 138.024 73.2871 137.981C73.2979 137.896 73.3565 137.861 73.4629 137.874L74.9938 138.07ZM77.1673 148.057C77.2204 148.063 77.2504 148.04 77.2572 147.987L77.6629 144.819C77.6697 144.766 77.6466 144.736 77.5934 144.729L75.9189 144.515C75.4724 144.458 75.0919 144.561 74.7774 144.822C74.4616 145.095 74.2717 145.481 74.2078 145.98C74.1426 146.489 74.2292 146.91 74.4675 147.243C74.7045 147.586 75.0463 147.786 75.4928 147.843L77.1673 148.057Z" fill="white"/>
<path d="M68.7872 136.532C69.4671 136.727 70.0298 137.039 70.4752 137.467C70.9104 137.893 71.1996 138.399 71.343 138.985C71.4732 139.579 71.442 140.211 71.2496 140.879L69.9976 145.23C69.8082 145.888 69.5019 146.429 69.0787 146.853C68.6422 147.285 68.1265 147.566 67.5316 147.696C66.9263 147.823 66.2837 147.789 65.6038 147.593C64.9136 147.395 64.3509 147.084 63.9158 146.658C63.4704 146.23 63.1774 145.717 63.037 145.12C62.8936 144.533 62.9166 143.911 63.106 143.253L64.3581 138.902C64.5505 138.234 64.8649 137.684 65.3013 137.252C65.7348 136.831 66.2542 136.557 66.8595 136.43C67.4544 136.3 68.097 136.334 68.7872 136.532ZM68.3432 138.075C67.8385 137.93 67.3908 137.974 67.0003 138.207C66.5966 138.448 66.3207 138.825 66.1727 139.339L64.8851 143.813C64.7342 144.338 64.7673 144.804 64.9846 145.211C65.1886 145.626 65.543 145.906 66.0478 146.051C66.5422 146.193 66.9862 146.142 67.3797 145.898C67.7702 145.665 68.0409 145.286 68.1918 144.762L69.4794 140.288C69.6274 139.774 69.5994 139.309 69.3954 138.894C69.1884 138.49 68.8377 138.217 68.3432 138.075Z" fill="white"/>
<path d="M61.3868 133.889C62.335 134.315 62.9718 134.923 63.297 135.715C63.6223 136.506 63.5849 137.346 63.1849 138.234L62.7235 139.259C62.7015 139.308 62.6692 139.34 62.6267 139.356C62.57 139.378 62.5173 139.377 62.4684 139.355L61.1194 138.75C61.0705 138.728 61.0402 138.691 61.0284 138.639C61.0025 138.592 61.0005 138.544 61.0225 138.495L61.4906 137.456C61.6884 137.017 61.7217 136.603 61.5906 136.216C61.4453 135.834 61.1576 135.546 60.7275 135.353C60.2974 135.16 59.8861 135.134 59.4938 135.275C59.097 135.425 58.7997 135.72 58.6019 136.159L55.332 143.421C55.31 143.469 55.2777 143.502 55.2352 143.518C55.1786 143.539 55.1258 143.539 55.0769 143.517L53.7425 142.918C53.6937 142.896 53.6633 142.859 53.6516 142.807C53.6257 142.76 53.6237 142.712 53.6457 142.664L56.909 135.417C57.1728 134.831 57.5377 134.373 58.0038 134.043C58.4655 133.722 58.9908 133.547 59.5797 133.518C60.1686 133.489 60.7709 133.613 61.3868 133.889Z" fill="white"/>
<path d="M46.1032 136.74C46.1316 136.694 46.1754 136.665 46.2345 136.651C46.2788 136.641 46.3237 136.65 46.3691 136.679L50.1575 139.046C50.2029 139.075 50.2398 139.066 50.2682 139.021L51.872 136.463C51.9005 136.418 51.892 136.381 51.8465 136.352L49.4209 134.836C49.3755 134.808 49.3505 134.767 49.346 134.714C49.3267 134.664 49.3313 134.616 49.3597 134.571L50.0081 133.537C50.0365 133.492 50.0803 133.462 50.1393 133.448C50.1837 133.438 50.2285 133.447 50.274 133.476L52.6996 134.992C52.745 135.02 52.782 135.012 52.8104 134.966L54.4483 132.354C54.4767 132.309 54.4682 132.272 54.4228 132.244L50.6344 129.876C50.589 129.847 50.564 129.806 50.5595 129.753C50.5403 129.703 50.5448 129.656 50.5733 129.61L51.2216 128.576C51.25 128.531 51.2938 128.501 51.3529 128.488C51.3972 128.478 51.4421 128.487 51.4875 128.515L56.7613 131.811C56.8067 131.84 56.839 131.879 56.8583 131.929C56.8628 131.982 56.8509 132.031 56.8224 132.077L51.0557 141.274C51.0272 141.32 50.9908 141.347 50.9465 141.358C50.8874 141.371 50.8352 141.364 50.7898 141.335L45.516 138.039C45.4706 138.011 45.4456 137.97 45.4411 137.917C45.4218 137.867 45.4264 137.819 45.4548 137.774L46.1032 136.74Z" fill="white"/>
<path d="M48.1105 125.616C48.6409 126.067 49.0198 126.571 49.2471 127.13C49.4675 127.697 49.5252 128.273 49.4201 128.859C49.3068 129.437 49.0313 129.983 48.5935 130.496L45.5289 134.089C45.0911 134.602 44.5987 134.957 44.0518 135.152C43.4898 135.349 42.9144 135.38 42.3257 135.245C41.737 135.11 41.1775 134.817 40.6471 134.366C40.1167 133.915 39.7378 133.41 39.5105 132.851C39.2762 132.3 39.2122 131.74 39.3185 131.17C39.4097 130.601 39.6707 130.064 40.1016 129.559L40.1641 129.485C40.1989 129.445 40.2465 129.422 40.3069 129.417C40.3592 129.405 40.4057 129.417 40.4465 129.451L41.6265 130.37C41.7245 130.454 41.7317 130.544 41.6483 130.642L41.5232 130.788C41.1966 131.171 41.0509 131.582 41.086 132.019C41.1129 132.45 41.3141 132.824 41.6895 133.144C42.073 133.47 42.4838 133.615 42.922 133.58C43.352 133.538 43.7303 133.326 44.0569 132.943L47.2571 129.191C47.5837 128.808 47.7335 128.401 47.7065 127.971C47.6645 127.541 47.4517 127.164 47.0682 126.838C46.6928 126.519 46.2936 126.376 45.8705 126.41C45.4324 126.445 45.05 126.654 44.7234 127.037L44.5878 127.196C44.5114 127.285 44.4242 127.288 44.3263 127.205L43.2297 126.188C43.1889 126.154 43.1701 126.11 43.1734 126.056C43.1617 126.004 43.1731 125.958 43.2079 125.917L43.2496 125.868C43.6804 125.363 44.1769 125.012 44.7389 124.815C45.2858 124.619 45.8537 124.589 46.4423 124.724C47.0241 124.868 47.5801 125.165 48.1105 125.616Z" fill="white"/>
<path d="M31.3607 124.779C31.3252 124.739 31.3129 124.692 31.3237 124.64C31.3194 124.587 31.3374 124.542 31.3775 124.507L32.3053 123.689C32.3454 123.653 32.3958 123.637 32.4563 123.641C32.5017 123.644 32.5421 123.665 32.5776 123.705L34.2275 125.57C34.263 125.61 34.3008 125.612 34.341 125.577L41.3532 119.392C41.3934 119.356 41.4437 119.34 41.5042 119.344C41.5496 119.347 41.59 119.368 41.6255 119.408L42.6048 120.515C42.6403 120.555 42.6602 120.602 42.6645 120.655C42.6536 120.708 42.6281 120.752 42.588 120.787L35.5757 126.972C35.5356 127.008 35.5332 127.046 35.5687 127.086L37.1548 128.878C37.1903 128.918 37.2102 128.965 37.2144 129.018C37.2036 129.071 37.1781 129.114 37.1379 129.15L36.2102 129.968C36.17 130.004 36.1273 130.02 36.0819 130.017C36.0214 130.013 35.9734 129.992 35.9379 129.951L31.3607 124.779Z" fill="white"/>
<path d="M37.5571 113.85C37.9499 114.437 38.1925 115.022 38.2851 115.604C38.3687 116.191 38.3021 116.737 38.0855 117.242C37.8539 117.744 37.4841 118.164 36.976 118.503L36.6284 118.734C36.5838 118.764 36.5392 118.774 36.4946 118.766C36.4352 118.754 36.3905 118.726 36.3608 118.681L35.5574 117.48C35.5276 117.435 35.5216 117.388 35.5394 117.337C35.5424 117.284 35.5661 117.242 35.6107 117.212L35.8781 117.034C36.2614 116.779 36.4842 116.437 36.5463 116.01C36.6085 115.582 36.4878 115.142 36.1843 114.688C35.9046 114.269 35.5833 114.02 35.2206 113.94C34.8579 113.861 34.5027 113.937 34.1551 114.168C33.9144 114.329 33.751 114.528 33.665 114.765C33.57 115.009 33.5286 115.294 33.5407 115.62C33.5379 115.943 33.5694 116.424 33.6353 117.062C33.713 117.795 33.7506 118.401 33.7479 118.879C33.7453 119.357 33.6475 119.827 33.4546 120.29C33.2557 120.744 32.9067 121.138 32.4075 121.471C31.6409 121.982 30.8651 122.132 30.0802 121.922C29.2893 121.703 28.6142 121.175 28.0547 120.338C27.6679 119.76 27.4371 119.174 27.3624 118.58C27.2788 117.993 27.3572 117.445 27.5977 116.937C27.8381 116.43 28.2169 116.003 28.7339 115.659L29.0147 115.472C29.0593 115.442 29.1113 115.433 29.1707 115.445C29.2153 115.454 29.2525 115.48 29.2823 115.525L30.0857 116.726C30.1154 116.771 30.1288 116.82 30.1259 116.873C30.1081 116.924 30.0769 116.964 30.0323 116.993L29.7783 117.163C29.395 117.418 29.1648 117.758 29.0878 118.183C29.0108 118.607 29.1181 119.038 29.4097 119.474C29.6656 119.856 29.9705 120.091 30.3243 120.176C30.6692 120.268 31.0199 120.195 31.3765 119.958C31.6171 119.797 31.7835 119.603 31.8755 119.374C31.9675 119.145 32.0119 118.865 32.0087 118.533C31.9996 118.191 31.9546 117.7 31.874 117.059C31.8109 116.175 31.7808 115.513 31.7835 115.074C31.7862 114.634 31.884 114.202 32.0769 113.778C32.255 113.35 32.5803 112.979 33.0527 112.664C33.8371 112.141 34.6367 111.988 35.4513 112.204C36.266 112.42 36.9679 112.969 37.5571 113.85Z" fill="white"/>
<path d="M29.5015 108.097C29.5219 108.147 29.5253 108.197 29.5118 108.249C29.4843 108.295 29.4458 108.328 29.3962 108.348L28.2656 108.811C28.216 108.831 28.1702 108.833 28.1283 108.815C28.0723 108.792 28.0342 108.755 28.0139 108.706L26.3008 104.532C26.2805 104.483 26.284 104.435 26.3115 104.389C26.325 104.337 26.3566 104.301 26.4061 104.281L27.5368 103.818C27.5863 103.798 27.6391 103.8 27.695 103.823C27.737 103.84 27.7681 103.874 27.7884 103.923L29.5015 108.097Z" fill="white"/>
<path d="M27.1724 102.274C27.1874 102.326 27.1854 102.377 27.1665 102.427C27.1344 102.469 27.0926 102.498 27.0411 102.513L25.8681 102.855C25.8166 102.87 25.771 102.866 25.7311 102.844C25.6779 102.815 25.6439 102.775 25.6289 102.724L24.3648 98.3932C24.3498 98.3418 24.3584 98.2947 24.3906 98.2519C24.4094 98.2019 24.4446 98.1693 24.4961 98.1544L25.6691 97.813C25.7206 97.7981 25.7729 97.8051 25.826 97.8342C25.8659 97.8561 25.8933 97.8927 25.9083 97.9441L27.1724 102.274Z" fill="white"/>
<path d="M25.4601 96.1941C25.4695 96.2468 25.4622 96.297 25.4381 96.3448C25.4016 96.384 25.3569 96.4082 25.3042 96.4177L24.1014 96.6325C24.0486 96.6419 24.0036 96.6336 23.9663 96.6077C23.9165 96.5731 23.8869 96.5294 23.8775 96.4768L23.0821 92.0367C23.0726 91.984 23.0862 91.9381 23.1227 91.899C23.1468 91.8512 23.1852 91.8226 23.238 91.8132L24.4408 91.5984C24.4935 91.5889 24.5448 91.6015 24.5945 91.6361C24.6318 91.6621 24.6552 91.7014 24.6647 91.7541L25.4601 96.1941Z" fill="white"/>
<path d="M24.3919 89.8672C24.3957 89.9206 24.383 89.9697 24.3539 90.0146C24.3133 90.0496 24.2663 90.069 24.2129 90.0727L22.994 90.1574C22.9405 90.1611 22.8966 90.148 22.8623 90.1182C22.8166 90.0785 22.7918 90.0319 22.7881 89.9786L22.4746 85.4789C22.4709 85.4255 22.4893 85.3813 22.5299 85.3463C22.559 85.3014 22.6003 85.2771 22.6537 85.2734L23.8726 85.1887C23.9261 85.185 23.9757 85.203 24.0215 85.2428C24.0558 85.2726 24.0748 85.3141 24.0785 85.3675L24.3919 89.8672Z" fill="white"/>
<path d="M28.1647 78.9183C28.1579 78.9713 28.1359 79.0171 28.0985 79.0555C28.0519 79.0819 28.0021 79.0917 27.9489 79.0849L17.1685 77.7088C17.1153 77.702 17.0748 77.6807 17.047 77.6448C17.0099 77.5969 16.9948 77.5464 17.0016 77.4933L17.1892 76.0285C17.1959 75.9754 17.2226 75.9357 17.2693 75.9093C17.3066 75.8709 17.3518 75.8551 17.405 75.8619L26.7023 77.0486C26.7555 77.0554 26.7854 77.0323 26.7922 76.9792L27.3529 72.6006C27.3597 72.5475 27.3864 72.5078 27.433 72.4814C27.4703 72.443 27.5156 72.4272 27.5688 72.434L28.7808 72.5887C28.8339 72.5955 28.879 72.6228 28.9161 72.6707C28.9439 72.7066 28.9545 72.7511 28.9477 72.8042L28.1647 78.9183Z" fill="white"/>
<path d="M21.4142 62.6308C21.466 62.6448 21.5069 62.678 21.5371 62.7305C21.5597 62.7699 21.564 62.8154 21.55 62.8671L20.3809 67.1741C20.3669 67.2258 20.3858 67.2586 20.4375 67.2726L23.3548 68.0619C23.4065 68.0759 23.4394 68.0571 23.4534 68.0054L24.2019 65.2477C24.2159 65.196 24.2478 65.1603 24.2976 65.1405C24.3399 65.1076 24.3869 65.0981 24.4386 65.1121L25.6179 65.4312C25.6697 65.4452 25.7106 65.4785 25.7408 65.531C25.7634 65.5704 25.7677 65.6159 25.7537 65.6675L25.0052 68.4253C24.9911 68.4769 25.01 68.5097 25.0617 68.5237L28.0411 69.3298C28.0928 69.3438 28.1257 69.325 28.1397 69.2734L29.3087 64.9663C29.3227 64.9147 29.3546 64.879 29.4044 64.8592C29.4467 64.8263 29.4937 64.8168 29.5454 64.8308L30.7247 65.1499C30.7764 65.1639 30.8174 65.1971 30.8476 65.2496C30.8702 65.289 30.8745 65.3345 30.8605 65.3862L29.2331 71.3819C29.2191 71.4336 29.1909 71.4759 29.1487 71.5088C29.0989 71.5286 29.0481 71.5315 28.9964 71.5175L18.5066 68.6793C18.4549 68.6653 18.4177 68.6386 18.3951 68.5992C18.3649 68.5467 18.3568 68.4946 18.3708 68.443L19.9982 62.4472C20.0122 62.3956 20.0441 62.3599 20.0939 62.3401C20.1362 62.3072 20.1832 62.2977 20.2349 62.3117L21.4142 62.6308Z" fill="white"/>
<path d="M33.5498 58.8984C33.5027 59.0063 33.4236 59.0535 33.3125 59.0402L31.5686 58.736C31.525 58.7287 31.4946 58.7446 31.4775 58.7839L30.1532 61.8147C30.1361 61.8539 30.145 61.887 30.1801 61.9139L31.5961 62.9685C31.6815 63.0407 31.7006 63.1307 31.6535 63.2386L31.0428 64.6364C30.9871 64.7639 30.9018 64.7851 30.7869 64.7001L21.9805 57.6773C21.8952 57.605 21.876 57.515 21.9232 57.4071L22.656 55.7298C22.7031 55.6219 22.7823 55.5747 22.8934 55.588L34.0396 57.2554L34.105 57.2663C34.1934 57.3048 34.2141 57.378 34.1669 57.4859L33.5498 58.8984ZM28.846 60.9126C28.8712 60.9352 28.8979 60.941 28.9261 60.93C28.9445 60.9146 28.958 60.8972 28.9665 60.8775L29.9822 58.5529C29.9908 58.5333 29.9944 58.5115 29.9932 58.4876C29.9821 58.4595 29.9597 58.4439 29.9259 58.4408L24.5654 57.5421C24.5316 57.5391 24.5105 57.5474 24.5019 57.567C24.4933 57.5866 24.5016 57.6078 24.5268 57.6304L28.846 60.9126Z" fill="white"/>
<path d="M37.551 51.9589C37.4881 52.0584 37.4028 52.0932 37.295 52.0633L32.4662 51.0705C32.4185 51.0658 32.3861 51.077 32.3689 51.1042L31.631 52.2715C31.6024 52.3168 31.6108 52.3537 31.6561 52.3823L35.5173 54.8153C35.5626 54.8439 35.592 54.8877 35.6053 54.9467C35.6154 54.991 35.6061 55.0358 35.5775 55.081L34.7881 56.3299C34.7595 56.3751 34.7201 56.4073 34.67 56.4263C34.6166 56.4306 34.5673 56.4185 34.5219 56.3899L25.3311 50.5986C25.2858 50.57 25.2581 50.5336 25.2481 50.4893C25.2347 50.4303 25.2424 50.3781 25.271 50.3329L27.2531 47.1972C27.5792 46.6814 27.9859 46.2986 28.4732 46.0489C28.9515 45.7935 29.4723 45.6915 30.0356 45.7427C30.5899 45.7882 31.1389 45.9824 31.6827 46.325C32.2719 46.6963 32.6982 47.1547 32.9616 47.7004C33.2251 48.246 33.2987 48.8112 33.1825 49.396C33.1721 49.4527 33.1952 49.4863 33.252 49.4967L38.2617 50.4137C38.2855 50.416 38.3156 50.4286 38.3518 50.4515C38.4243 50.4972 38.432 50.5653 38.3748 50.6558L37.551 51.9589ZM27.5658 49.71C27.5372 49.7552 27.5456 49.7921 27.5909 49.8207L30.2965 51.5255C30.3418 51.5541 30.3788 51.5458 30.4074 51.5005L31.3083 50.0752C31.5486 49.6951 31.6162 49.3075 31.5111 48.9123C31.397 48.5113 31.127 48.1767 30.701 47.9082C30.2659 47.6341 29.8471 47.5347 29.4446 47.6101C29.033 47.6797 28.7071 47.9046 28.4668 48.2847L27.5658 49.71Z" fill="white"/>
<path d="M34.4474 38.074C34.4068 38.039 34.3849 37.9989 34.3816 37.9536C34.3772 37.8932 34.3925 37.8428 34.4276 37.8023L35.3947 36.685C35.4298 36.6445 35.474 36.6261 35.5275 36.6298C35.5799 36.6184 35.6263 36.6302 35.6669 36.6652L43.8897 43.7605C43.9302 43.7954 43.9527 43.8431 43.9571 43.9035C43.9604 43.9488 43.9445 43.9917 43.9095 44.0322L42.8898 45.2102C42.8267 45.2831 42.7411 45.3082 42.6331 45.2857L34.8919 43.2311C34.8536 43.2263 34.8315 43.2355 34.8255 43.2587C34.8115 43.2749 34.8207 43.297 34.8532 43.325L40.2523 47.9625C40.2929 47.9975 40.3153 48.0452 40.3197 48.1056C40.323 48.1508 40.3072 48.1937 40.2721 48.2342L39.305 49.3515C39.2699 49.392 39.2262 49.4179 39.1739 49.4293C39.1204 49.4256 39.0734 49.4063 39.0328 49.3713L30.81 42.276C30.7695 42.241 30.7476 42.2009 30.7443 42.1556C30.7399 42.0953 30.7552 42.0448 30.7902 42.0043L31.7994 40.8385C31.8695 40.7575 31.9551 40.7323 32.0561 40.7629L39.8321 42.8264C39.8704 42.8312 39.8966 42.8255 39.9106 42.8093C39.9166 42.7861 39.9033 42.7605 39.8708 42.7325L34.4474 38.074Z" fill="white"/>
<path d="M46.2521 27.7553C46.2366 27.6608 46.2724 27.5822 46.3593 27.5196L47.5716 26.6459C47.6151 26.6146 47.6624 26.6069 47.7135 26.6228C47.7671 26.6238 47.8096 26.6459 47.8409 26.6893L54.202 35.4875C54.2334 35.5309 54.2442 35.5825 54.2345 35.6423C54.2273 35.6871 54.2019 35.7251 54.1585 35.7565L52.9592 36.6208C52.9157 36.6521 52.8672 36.6673 52.8136 36.6663C52.7625 36.6504 52.7212 36.6207 52.6898 36.5774L48.2296 30.4082C48.2045 30.3735 48.1833 30.3624 48.1659 30.3749C48.1422 30.3788 48.1311 30.4 48.1326 30.4385L48.3975 33.712C48.4129 33.8065 48.3772 33.8851 48.2903 33.9477L48.0426 34.1262C47.9557 34.1888 47.8698 34.198 47.7848 34.1536L44.7657 32.8848C44.7295 32.8713 44.7059 32.8752 44.6947 32.8964C44.6774 32.9089 44.6812 32.9325 44.7063 32.9672L49.1572 39.1234C49.1885 39.1668 49.1994 39.2183 49.1897 39.2781C49.1825 39.3229 49.1571 39.361 49.1137 39.3923L47.9144 40.2566C47.8709 40.288 47.8224 40.3031 47.7688 40.3022C47.7176 40.2862 47.6764 40.2566 47.645 40.2132L41.284 31.415C41.2526 31.3716 41.2405 31.3275 41.2478 31.2827C41.2575 31.2229 41.284 31.1774 41.3275 31.1461L42.5268 30.2817C42.6137 30.2191 42.6996 30.21 42.7845 30.2543L46.4589 31.7437C46.5226 31.777 46.5487 31.7582 46.5371 31.6874L46.2521 27.7553Z" fill="white"/>
<path d="M58.3588 33.6489C57.7272 33.9669 57.1022 34.1198 56.4838 34.1076C55.875 34.0906 55.3184 33.9154 54.8139 33.5822C54.3142 33.2345 53.9075 32.7502 53.5938 32.1291L51.5522 28.0875C51.2433 27.476 51.0998 26.8711 51.1217 26.2728C51.1483 25.6601 51.3358 25.1043 51.6839 24.6054C52.0417 24.1016 52.5364 23.6908 53.168 23.3727C53.8092 23.0499 54.4342 22.8969 55.043 22.914C55.6614 22.9262 56.2252 23.1037 56.7345 23.4465C57.2389 23.7798 57.6456 24.2522 57.9545 24.8637L59.9961 28.9054C60.3098 29.5264 60.4533 30.1433 60.4267 30.756C60.3952 31.3591 60.2006 31.9125 59.8429 32.4162C59.4947 32.9152 59 33.326 58.3588 33.6489ZM57.6348 32.2157C58.1038 31.9796 58.4022 31.6435 58.5301 31.2076C58.6628 30.7573 58.6084 30.2932 58.3671 29.8155L56.2676 25.6592C56.0215 25.1719 55.68 24.8524 55.2433 24.7008C54.8113 24.5348 54.3609 24.5698 53.892 24.8059C53.4326 25.0372 53.1414 25.3756 53.0183 25.8211C52.8904 26.2571 52.9495 26.7187 53.1957 27.206L55.2952 31.3623C55.5365 31.8401 55.8731 32.1619 56.3051 32.328C56.7322 32.4844 57.1755 32.447 57.6348 32.2157Z" fill="white"/>
<path d="M68.0824 29.5739C67.9703 29.6102 67.8824 29.5824 67.8187 29.4906L64.7428 25.6438C64.7092 25.6097 64.6771 25.5976 64.6465 25.6075L63.3314 26.0337C63.2804 26.0502 63.2632 26.0839 63.2797 26.1348L64.6892 30.4708C64.7057 30.5217 64.7002 30.5741 64.6727 30.6281C64.652 30.6685 64.6162 30.697 64.5653 30.7135L63.1584 31.1694C63.1074 31.1859 63.0566 31.1855 63.0059 31.1682C62.962 31.1374 62.9319 31.0965 62.9153 31.0456L59.5604 20.7246C59.5439 20.6737 59.5459 20.628 59.5666 20.5876C59.5941 20.5337 59.6334 20.4984 59.6844 20.4819L63.2168 19.3373C63.7979 19.149 64.3558 19.1145 64.8904 19.2338C65.4216 19.3429 65.8874 19.597 66.2875 19.9961C66.6844 20.3851 66.9821 20.8849 67.1806 21.4956C67.3957 22.1572 67.4297 22.7819 67.2827 23.3695C67.1356 23.9572 66.8301 24.4387 66.3662 24.8141C66.3218 24.8509 66.3181 24.8915 66.355 24.9358L69.6186 28.8398C69.6354 28.8569 69.6504 28.8858 69.6637 28.9265C69.6901 29.0079 69.6524 29.0651 69.5504 29.0982L68.0824 29.5739ZM61.8475 21.4686C61.7965 21.4851 61.7793 21.5188 61.7958 21.5697L62.7835 24.608C62.8 24.6589 62.8338 24.6761 62.8847 24.6596L64.4904 24.1393C64.9186 24.0006 65.2189 23.7457 65.3913 23.3749C65.5604 22.9938 65.5672 22.5641 65.4117 22.0857C65.2529 21.5971 64.9946 21.2533 64.6369 21.0541C64.2759 20.8449 63.8813 20.8096 63.4531 20.9483L61.8475 21.4686Z" fill="white"/>
<path d="M75.8934 17.9089C75.9025 17.9616 75.8895 18.0127 75.8544 18.0621C75.8281 18.0992 75.7886 18.1222 75.7358 18.1312L71.3302 18.8833C71.2774 18.8923 71.2555 18.9232 71.2646 18.9759L71.774 21.9505C71.783 22.0032 71.8139 22.0251 71.8667 22.0161L74.6876 21.5345C74.7404 21.5255 74.7862 21.5394 74.8252 21.5762C74.8728 21.6006 74.9012 21.6392 74.9102 21.6919L75.1162 22.8944C75.1252 22.9472 75.1122 22.9982 75.0772 23.0476C75.0509 23.0847 75.0113 23.1077 74.9585 23.1168L72.1377 23.5983C72.0849 23.6073 72.063 23.6382 72.072 23.6909L72.5923 26.7288C72.6013 26.7815 72.6322 26.8034 72.685 26.7944L77.0906 26.0423C77.1434 26.0333 77.1893 26.0472 77.2282 26.0839C77.2759 26.1084 77.3042 26.147 77.3133 26.1997L77.5192 27.4022C77.5282 27.4549 77.5152 27.506 77.4802 27.5554C77.4539 27.5924 77.4144 27.6155 77.3615 27.6245L71.2287 28.6715C71.1758 28.6805 71.1256 28.6728 71.0779 28.6483C71.039 28.6116 71.015 28.5668 71.006 28.5141L69.1743 17.8183C69.1653 17.7656 69.1739 17.7207 69.2002 17.6836C69.2352 17.6342 69.2791 17.605 69.3319 17.596L75.4648 16.549C75.5176 16.54 75.5635 16.5539 75.6024 16.5907C75.6501 16.6151 75.6785 16.6537 75.6875 16.7064L75.8934 17.9089Z" fill="white"/>
<path d="M87.559 16.1719C88.18 16.2006 88.7196 16.3648 89.1778 16.6645C89.6467 16.9648 89.9977 17.3774 90.2308 17.9024C90.4752 18.4172 90.5822 19.0006 90.5519 19.6527C90.5222 20.2941 90.3621 20.8544 90.0716 21.3338C89.7918 21.8136 89.4045 22.1813 88.9098 22.437C88.4263 22.6824 87.8795 22.791 87.2692 22.7628L85.2938 22.6714C85.2403 22.6689 85.2123 22.6944 85.2098 22.7479L85.0066 27.1253C85.0041 27.1787 84.9805 27.2258 84.9357 27.2666C84.9021 27.2972 84.8585 27.3113 84.805 27.3088L83.3274 27.2404C83.2739 27.2379 83.2265 27.2197 83.1851 27.1856C83.155 27.1414 83.1412 27.0925 83.1437 27.0391L83.6475 16.1837C83.65 16.1303 83.668 16.0882 83.7016 16.0577C83.7464 16.0169 83.7956 15.9977 83.8492 16.0002L87.559 16.1719ZM87.0493 21.2582C87.5204 21.28 87.9023 21.1423 88.1951 20.8452C88.4991 20.5379 88.6632 20.1224 88.6875 19.5986C88.7123 19.0641 88.5876 18.6298 88.3134 18.2957C88.0499 17.9622 87.6826 17.7845 87.2116 17.7627L85.5253 17.6847C85.4717 17.6822 85.4437 17.7077 85.4412 17.7611L85.2864 21.0963C85.284 21.1497 85.3095 21.1777 85.363 21.1802L87.0493 21.2582Z" fill="white"/>
<path d="M95.8726 28.5925C95.7568 28.5705 95.6932 28.5039 95.6816 28.3927L94.8406 23.5427C94.8275 23.4966 94.8052 23.4706 94.7737 23.4645L93.4155 23.2059C93.3629 23.1959 93.3315 23.2171 93.3215 23.2697L92.466 27.7477C92.456 27.8002 92.4259 27.8435 92.3757 27.8776C92.3381 27.9031 92.293 27.9108 92.2404 27.9008L90.7875 27.6241C90.7348 27.6141 90.6904 27.5893 90.6544 27.5497C90.6308 27.5017 90.624 27.4514 90.6341 27.3988L92.6703 16.74C92.6804 16.6874 92.7042 16.6484 92.7418 16.6229C92.792 16.5888 92.8434 16.5768 92.896 16.5869L96.5441 17.2816C97.1442 17.3959 97.6497 17.6338 98.0608 17.9953C98.4738 18.3463 98.7595 18.7929 98.9178 19.3351C99.0781 19.8667 99.098 20.4479 98.9775 21.0786C98.847 21.7618 98.5756 22.3257 98.1634 22.7701C97.7511 23.2145 97.2512 23.4897 96.6635 23.5957C96.6069 23.6067 96.5841 23.6405 96.5951 23.697L97.573 28.6875C97.5795 28.7106 97.5788 28.7431 97.5707 28.7852C97.5547 28.8692 97.494 28.9013 97.3887 28.8812L95.8726 28.5925ZM94.3162 18.4914C94.2635 18.4814 94.2322 18.5027 94.2221 18.5552L93.6227 21.693C93.6127 21.7455 93.634 21.7768 93.6866 21.7868L95.3448 22.1026C95.787 22.1868 96.1731 22.1078 96.503 21.8656C96.835 21.6129 97.0482 21.2395 97.1426 20.7455C97.239 20.2409 97.1784 19.8154 96.9609 19.469C96.7454 19.112 96.4166 18.8914 95.9744 18.8072L94.3162 18.4914Z" fill="white"/>
<path d="M102.3 30.5792C101.634 30.341 101.093 29.9939 100.676 29.5379C100.269 29.0855 100.013 28.5619 99.9071 27.9672C99.8153 27.3661 99.8869 26.7381 100.122 26.0832L101.651 21.8218C101.882 21.177 102.222 20.6565 102.672 20.2603C103.135 19.8576 103.668 19.6105 104.27 19.5189C104.882 19.4309 105.521 19.506 106.187 19.7441C106.863 19.9859 107.405 20.333 107.812 20.7854C108.229 21.2415 108.488 21.7719 108.59 22.3766C108.695 22.9713 108.632 23.591 108.401 24.2358L106.872 28.4973C106.637 29.1521 106.288 29.6809 105.825 30.0836C105.365 30.4762 104.83 30.7165 104.217 30.8045C103.615 30.896 102.976 30.821 102.3 30.5792ZM102.842 29.068C103.337 29.2448 103.786 29.2294 104.191 29.0217C104.609 28.8076 104.909 28.4487 105.089 27.945L106.662 23.5626C106.846 23.0488 106.843 22.5816 106.652 22.1611C106.475 21.734 106.139 21.4321 105.645 21.2553C105.161 21.0821 104.714 21.1044 104.306 21.3221C103.901 21.5298 103.607 21.8905 103.423 22.4043L101.85 26.7867C101.67 27.2904 101.668 27.7558 101.845 28.1828C102.025 28.5997 102.358 28.8948 102.842 29.068Z" fill="white"/>
<path d="M109.226 33.5233C108.306 33.0388 107.709 32.3914 107.434 31.5812C107.16 30.771 107.25 29.9353 107.705 29.0741L108.231 28.0803C108.256 28.033 108.29 28.0027 108.333 27.9893C108.391 27.9714 108.444 27.9749 108.491 27.9999L109.799 28.6892C109.847 28.7142 109.875 28.7531 109.883 28.8059C109.906 28.8543 109.905 28.9021 109.88 28.9494L109.347 29.9574C109.122 30.3832 109.063 30.7936 109.169 31.1885C109.29 31.5788 109.559 31.8839 109.976 32.1037C110.393 32.3235 110.802 32.3755 111.202 32.2598C111.608 32.1347 111.923 31.8592 112.148 31.4333L115.87 24.3921C115.895 24.3448 115.93 24.3145 115.973 24.3011C116.031 24.2832 116.084 24.2867 116.131 24.3117L117.425 24.9935C117.472 25.0185 117.5 25.0574 117.509 25.1102C117.531 25.1586 117.53 25.2064 117.505 25.2538L113.791 32.2807C113.491 32.8486 113.098 33.2827 112.612 33.5832C112.13 33.8742 111.595 34.0157 111.006 34.0075C110.416 33.9994 109.823 33.838 109.226 33.5233Z" fill="white"/>
<path d="M125.013 31.8424C124.982 31.8858 124.936 31.9124 124.876 31.922C124.831 31.9292 124.787 31.9172 124.744 31.8859L121.12 29.2741C121.076 29.2428 121.039 29.2488 121.008 29.2922L119.239 31.739C119.207 31.7824 119.213 31.8198 119.257 31.8511L121.577 33.5234C121.621 33.5547 121.643 33.5971 121.644 33.6506C121.66 33.7017 121.652 33.7489 121.621 33.7923L120.905 34.7815C120.874 34.8248 120.828 34.8514 120.769 34.861C120.724 34.8683 120.68 34.8562 120.636 34.8249L118.316 33.1526C118.272 33.1213 118.235 33.1273 118.204 33.1707L116.397 35.6696C116.365 35.713 116.372 35.7503 116.415 35.7817L120.039 38.3935C120.082 38.4248 120.105 38.4672 120.106 38.5207C120.121 38.5718 120.114 38.619 120.082 38.6624L119.367 39.6515C119.336 39.6949 119.29 39.7214 119.23 39.7311C119.186 39.7383 119.141 39.7263 119.098 39.695L114.053 36.0591C114.01 36.0278 113.98 35.9866 113.964 35.9355C113.963 35.882 113.978 35.8336 114.01 35.7902L120.371 26.992C120.402 26.9486 120.44 26.9233 120.485 26.916C120.545 26.9064 120.597 26.9172 120.64 26.9485L125.685 30.5844C125.728 30.6157 125.75 30.6581 125.751 30.7116C125.767 30.7627 125.76 30.8099 125.728 30.8533L125.013 31.8424Z" fill="white"/>
<path d="M122.202 42.7044C121.7 42.2216 121.353 41.6944 121.161 41.1227C120.976 40.5433 120.954 39.9647 121.095 39.387C121.244 38.8167 121.553 38.2889 122.022 37.8036L125.303 34.4065C125.771 33.9212 126.285 33.5978 126.843 33.4364C127.416 33.2746 127.992 33.2793 128.571 33.4504C129.15 33.6215 129.691 33.9485 130.192 34.4313C130.694 34.9142 131.041 35.4414 131.233 36.0131C131.433 36.5771 131.462 37.1404 131.321 37.703C131.194 38.2653 130.901 38.7853 130.439 39.2629L130.372 39.3322C130.335 39.3707 130.286 39.3905 130.226 39.3916C130.173 39.4002 130.127 39.3859 130.088 39.3487L128.967 38.3587C128.875 38.2696 128.873 38.1788 128.962 38.0863L129.096 37.9477C129.446 37.5856 129.617 37.1852 129.609 36.7464C129.609 36.315 129.431 35.9285 129.076 35.5868C128.714 35.2377 128.313 35.0671 127.873 35.0751C127.441 35.0905 127.05 35.2792 126.701 35.6412L123.275 39.1885C122.925 39.5506 122.75 39.9473 122.751 40.3786C122.766 40.8097 122.955 41.1999 123.318 41.549C123.673 41.8907 124.062 42.0577 124.487 42.05C124.926 42.042 125.321 41.857 125.67 41.495L125.815 41.3447C125.897 41.26 125.984 41.2622 126.077 41.3514L127.109 42.4338C127.147 42.4709 127.163 42.5161 127.157 42.5692C127.165 42.622 127.151 42.6676 127.114 42.7062L127.069 42.7524C126.608 43.23 126.091 43.5496 125.517 43.7114C124.959 43.8729 124.391 43.8681 123.812 43.6969C123.24 43.5181 122.703 43.1873 122.202 42.7044Z" fill="white"/>
<path d="M138.821 44.4937C138.854 44.5359 138.864 44.5828 138.85 44.6345C138.851 44.688 138.83 44.7312 138.788 44.764L137.811 45.5235C137.769 45.5564 137.718 45.5691 137.657 45.5616C137.612 45.556 137.573 45.5321 137.54 45.4899L136.009 43.5271C135.976 43.4848 135.938 43.4802 135.896 43.5131L128.514 49.2536C128.472 49.2865 128.421 49.2992 128.361 49.2917C128.315 49.2861 128.276 49.2622 128.243 49.22L127.335 48.055C127.302 48.0128 127.285 47.9649 127.284 47.9114C127.298 47.8598 127.326 47.8175 127.368 47.7846L134.75 42.0441C134.792 42.0112 134.797 41.9736 134.764 41.9314L133.292 40.0445C133.259 40.0023 133.242 39.9545 133.241 39.901C133.255 39.8493 133.284 39.8071 133.326 39.7742L134.303 39.0147C134.345 38.9818 134.388 38.9682 134.434 38.9738C134.494 38.9813 134.54 39.0061 134.573 39.0483L138.821 44.4937Z" fill="white"/>
<path d="M136.261 53.9917C136.237 53.9439 136.23 53.8936 136.239 53.841C136.263 53.7931 136.299 53.7572 136.347 53.7333L137.44 53.188C137.488 53.1641 137.534 53.1593 137.577 53.1737C137.634 53.1929 137.675 53.2264 137.699 53.2742L139.718 57.3091C139.742 57.3569 139.742 57.4048 139.718 57.4526C139.709 57.5053 139.68 57.5436 139.632 57.5675L138.539 58.1128C138.491 58.1367 138.438 58.1391 138.381 58.1199C138.338 58.1056 138.304 58.0744 138.28 58.0266L136.261 53.9917Z" fill="white"/>
<path d="M138.983 59.5229C138.964 59.4728 138.962 59.422 138.977 59.3707C139.006 59.3256 139.045 59.2936 139.096 59.2748L140.24 58.8463C140.29 58.8275 140.336 58.8275 140.377 58.8462C140.432 58.8713 140.469 58.9088 140.488 58.9589L142.075 63.182C142.094 63.2321 142.089 63.2797 142.06 63.3248C142.045 63.3761 142.012 63.4112 141.962 63.43L140.818 63.8586C140.768 63.8774 140.715 63.8742 140.66 63.8492C140.619 63.8304 140.589 63.796 140.57 63.7459L138.983 59.5229Z" fill="white"/>
<path d="M141.227 65.6825C141.214 65.6306 141.217 65.58 141.238 65.5306C141.271 65.4889 141.314 65.4615 141.366 65.4482L142.55 65.1471C142.602 65.1339 142.648 65.1389 142.687 65.162C142.739 65.1929 142.772 65.2343 142.785 65.2862L143.9 69.6571C143.913 69.709 143.903 69.7557 143.87 69.7974C143.849 69.8468 143.813 69.8781 143.761 69.8913L142.577 70.1925C142.525 70.2057 142.473 70.1968 142.421 70.1659C142.382 70.1428 142.355 70.1052 142.342 70.0534L141.227 65.6825Z" fill="white"/>
<path d="M142.744 71.8672C142.736 71.8142 142.745 71.7643 142.771 71.7174C142.809 71.6795 142.855 71.6568 142.908 71.6492L144.117 71.4759C144.17 71.4683 144.215 71.4781 144.251 71.5053C144.3 71.5416 144.328 71.5863 144.335 71.6392L144.977 76.104C144.985 76.157 144.97 76.2024 144.932 76.2403C144.906 76.2872 144.867 76.3145 144.813 76.3221L143.604 76.4953C143.551 76.5029 143.5 76.4886 143.452 76.4523C143.415 76.4251 143.393 76.385 143.386 76.332L142.744 71.8672Z" fill="white"/>
<defs>
<filter id="filter0_b_2018_980" x="-8" y="-8" width="183" height="183" filterUnits="userSpaceOnUse" color-interpolation-filters="sRGB">
<feFlood flood-opacity="0" result="BackgroundImageFix"/>
<feGaussianBlur in="BackgroundImageFix" stdDeviation="4"/>
<feComposite in2="SourceAlpha" operator="in" result="effect1_backgroundBlur_2018_980"/>
<feBlend mode="normal" in="SourceGraphic" in2="effect1_backgroundBlur_2018_980" result="shape"/>
</filter>
</defs>
</svg>
