<svg width="268" height="60" viewBox="0 0 268 60" fill="none" xmlns="http://www.w3.org/2000/svg">
<path d="M251.718 33.0955V43.2749H246.094V16.748H253.814C257.402 16.748 260.063 17.4065 261.796 18.7235C263.543 20.0269 264.417 22.0158 264.417 24.69C264.417 26.2488 263.987 27.6396 263.127 28.8625C262.28 30.0719 261.064 31.0261 259.478 31.7248C263.469 37.6779 266.07 41.528 267.279 43.2749H261.03L254.701 33.0955H251.718ZM251.718 21.364V28.5198H253.532C255.306 28.5198 256.616 28.2242 257.462 27.6329C258.309 27.0417 258.732 26.1211 258.732 24.8714C258.732 23.6216 258.302 22.728 257.442 22.1905C256.596 21.6395 255.252 21.364 253.411 21.364H251.718Z" fill="white"/>
<path d="M242.15 38.6388V43.2749H226.891V16.748H242.15V21.364H232.514V27.1895H241.484V31.7853H232.514V38.6388H242.15Z" fill="white"/>
<path d="M214.445 32.5311L219.464 16.748H225.148L216.138 43.2749H209.99L201 16.748H206.684L211.663 32.5311C211.905 33.3509 212.181 34.4057 212.49 35.6958C212.812 36.9859 213.007 37.8795 213.074 38.3767C213.222 37.1673 213.679 35.2188 214.445 32.5311Z" fill="white"/>
<path d="M199.264 43.2749H193.641V16.748H199.264V43.2749Z" fill="white"/>
<path d="M176.327 43.2749V33.0955H179.31L185.64 43.2749H191.888C190.679 41.528 188.079 37.6779 184.088 31.7248C185.673 31.0261 186.889 30.0719 187.736 28.8625C188.596 27.6396 189.026 26.2488 189.026 24.69C189.026 22.0158 186.406 18.7235 186.406 18.7235L182.052 22.1905C182.912 22.728 183.342 23.6216 183.342 24.8714C183.342 26.1211 182.918 27.0417 182.072 27.6329C181.225 28.2242 179.915 28.5198 178.141 28.5198H176.327V16.748H170.703V43.2749H176.327Z" fill="#00AF78"/>
<path d="M165.609 16.748V43.2749H158.454L146.924 23.2185H146.762C146.991 26.8468 147.105 29.3732 147.105 30.7976V43.2749H142.086V16.748H149.161L160.691 36.623H160.812C160.637 33.3038 160.55 30.8648 160.55 29.306V16.748H165.609Z" fill="white"/>
<path d="M138.15 38.6388V43.2749H122.891V16.748H138.15V21.364H128.514V27.1895H137.484V31.7853H128.514V38.6388H138.15Z" fill="white"/>
<path d="M107.631 33.0544V28.3779H118.153V42.1252C115.116 43.133 111.971 43.6369 108.719 43.6369C104.728 43.6369 101.671 42.4611 99.5475 40.1094C97.4377 37.7578 96.3828 34.4184 96.3828 30.0913C96.3828 25.7508 97.6057 22.3778 100.051 19.9724C102.524 17.567 105.924 16.3643 110.251 16.3643C112.979 16.3643 115.599 16.9085 118.112 17.997L116.258 22.5122C114.323 21.5447 112.307 21.0609 110.211 21.0609C107.792 21.0609 105.843 21.8806 104.365 23.5201C102.9 25.1461 102.168 27.3701 102.168 30.1921C102.168 33.0007 102.759 35.1642 103.942 36.6827C105.124 38.2012 106.838 38.9605 109.082 38.9605C110.251 38.9605 111.44 38.8395 112.65 38.5976V33.0544H107.631Z" fill="white"/>
<path d="M96.5462 43.2741H90.4789L88.5639 36.9649H78.8885L76.9736 43.2741H70.9062L80.2592 16.6465H87.1328L96.5462 43.2741ZM80.2995 32.2482H87.2134L84.21 22.5525C83.995 21.8269 83.8337 21.2289 83.7262 20.7586C83.3634 22.2099 82.2212 26.0397 80.2995 32.2482Z" fill="white"/>
<path d="M0.932391 27.7627C0.925856 27.7692 0.912785 27.7692 0.90625 27.7692V27.7758C0.90625 27.7823 0.912787 27.7823 0.912787 27.7823C1.12845 27.828 1.34411 27.8738 1.55977 27.913C1.34411 27.8607 1.14152 27.8084 0.932391 27.7627ZM0.932391 27.7627C0.925856 27.7692 0.912785 27.7692 0.90625 27.7692V27.7758C0.90625 27.7823 0.912787 27.7823 0.912787 27.7823C1.12845 27.828 1.34411 27.8738 1.55977 27.913C1.34411 27.8607 1.14152 27.8084 0.932391 27.7627ZM0.932391 27.7627C0.925856 27.7692 0.912785 27.7692 0.90625 27.7692V27.7758C0.90625 27.7823 0.912787 27.7823 0.912787 27.7823C1.12845 27.828 1.34411 27.8738 1.55977 27.913C1.34411 27.8607 1.14152 27.8084 0.932391 27.7627ZM0.932391 27.7627C0.925856 27.7692 0.912785 27.7692 0.90625 27.7692V27.7758C0.90625 27.7823 0.912787 27.7823 0.912787 27.7823C1.12845 27.828 1.34411 27.8738 1.55977 27.913C1.34411 27.8607 1.14152 27.8084 0.932391 27.7627ZM0.932391 27.7627C0.925856 27.7692 0.912785 27.7692 0.90625 27.7692V27.7758C0.90625 27.7823 0.912787 27.7823 0.912787 27.7823C1.12845 27.828 1.34411 27.8738 1.55977 27.913C1.34411 27.8607 1.14152 27.8084 0.932391 27.7627Z" fill="white"/>
<path d="M28.6614 9.32632C28.6614 12.2214 28.3542 15.0316 27.7726 17.7045C27.1975 20.3709 26.3479 22.9065 25.2761 25.2723C22.93 26.3375 20.4139 27.1806 17.7737 27.7557C15.0746 28.3438 12.2449 28.6575 9.32362 28.6575C6.65725 28.6575 4.05623 28.3961 1.56631 27.8994C1.55977 27.8994 1.55324 27.8929 1.55324 27.8929C1.34411 27.8472 1.14152 27.7949 0.932391 27.7491C1.14152 27.7034 1.34411 27.6576 1.55324 27.6053C1.33758 27.6446 1.12191 27.6903 0.90625 27.7361C2.42896 20.7368 5.80113 14.6329 10.3627 10.2347C14.7544 5.72541 20.8191 2.39245 27.766 0.882812V0.889348C27.7726 0.902418 27.7726 0.915489 27.7726 0.928559C28.3542 3.62107 28.6614 6.43122 28.6614 9.32632Z" fill="white"/>
<path d="M1.55196 27.9062C1.3363 27.867 1.12063 27.8212 0.904972 27.7755C0.904972 27.7755 0.898438 27.7755 0.898438 27.7689V27.7624C0.904973 27.7624 0.918044 27.7624 0.924579 27.7559C1.14024 27.8081 1.34283 27.8604 1.55196 27.9062Z" fill="white"/>
<path d="M27.7629 0.895326C25.0704 0.313691 22.2537 0 19.3455 0C13.5684 0 8.1311 1.22862 3.39306 3.38525C1.23643 8.12328 0.0078125 13.5606 0.0078125 19.3377C0.0078125 22.2459 0.321503 25.0691 0.903138 27.7551C0.903138 27.7486 0.909674 27.7486 0.909674 27.7486C2.43238 20.7493 5.80456 14.6454 10.3661 10.2472C14.7578 5.73793 20.8225 2.40496 27.7694 0.895326H27.7629Z" fill="#333333"/>
<path d="M32.2128 0.920672C32.2063 0.914137 32.2063 0.901066 32.2063 0.894531H32.1997C32.1932 0.894531 32.1932 0.901066 32.1932 0.901066C32.1475 1.11673 32.1017 1.33239 32.0625 1.54805C32.1213 1.33893 32.1671 1.1298 32.2128 0.920672ZM32.2128 0.920672C32.2063 0.914137 32.2063 0.901066 32.2063 0.894531H32.1997C32.1932 0.894531 32.1932 0.901066 32.1932 0.901066C32.1475 1.11673 32.1017 1.33239 32.0625 1.54805C32.1213 1.33893 32.1671 1.1298 32.2128 0.920672ZM32.2128 0.920672C32.2063 0.914137 32.2063 0.901066 32.2063 0.894531H32.1997C32.1932 0.894531 32.1932 0.901066 32.1932 0.901066C32.1475 1.11673 32.1017 1.33239 32.0625 1.54805C32.1213 1.33893 32.1671 1.1298 32.2128 0.920672ZM32.2128 0.920672C32.2063 0.914137 32.2063 0.901066 32.2063 0.894531H32.1997C32.1932 0.894531 32.1932 0.901066 32.1932 0.901066C32.1475 1.11673 32.1017 1.33239 32.0625 1.54805C32.1213 1.33893 32.1671 1.1298 32.2128 0.920672ZM32.2128 0.920672C32.2063 0.914137 32.2063 0.901066 32.2063 0.894531H32.1997C32.1932 0.894531 32.1932 0.901066 32.1932 0.901066C32.1475 1.11673 32.1017 1.33239 32.0625 1.54805C32.1213 1.33893 32.1671 1.1298 32.2128 0.920672Z" fill="#00AF78"/>
<path d="M50.6646 28.6627C47.7695 28.6627 44.9593 28.3555 42.2799 27.7739C39.607 27.1988 37.0713 26.3492 34.7056 25.2709C33.6403 22.9248 32.7973 20.4087 32.2222 17.7619C31.634 15.0629 31.3203 12.2266 31.3203 9.3119C31.3203 6.63899 31.5817 4.04451 32.0784 1.55459C32.0784 1.54805 32.0849 1.54152 32.0849 1.54152C32.1307 1.33239 32.183 1.1298 32.2287 0.920672C32.2745 1.1298 32.3202 1.33239 32.3725 1.54152C32.3333 1.32586 32.2875 1.11019 32.2418 0.894531C39.2475 2.41724 45.3514 5.79595 49.7496 10.351C54.259 14.7492 57.5919 20.8074 59.1016 27.7608H59.095C59.0819 27.7674 59.0689 27.7674 59.0558 27.7674C56.3698 28.3555 53.5597 28.6627 50.6646 28.6627Z" fill="#00AF78"/>
<path d="M32.0781 1.54122C32.1173 1.32556 32.1631 1.10989 32.2088 0.894231C32.2088 0.894231 32.2088 0.887695 32.2154 0.887695H32.2219C32.2219 0.894231 32.2219 0.907301 32.2284 0.913836C32.1696 1.1295 32.1239 1.33863 32.0781 1.54122Z" fill="#00AF78"/>
<path d="M59.1059 27.7682C59.6876 25.0822 60.0013 22.259 60.0013 19.3508C60.0013 13.5671 58.7726 8.12982 56.6095 3.39178C51.8649 1.22862 46.4341 0 40.6505 0C37.7423 0 34.9191 0.313691 32.2266 0.895326C32.2331 0.895326 32.2331 0.901861 32.2331 0.901861C39.2389 2.42457 45.3428 5.80328 49.741 10.3583C54.2503 14.7565 57.5832 20.8147 59.0929 27.7682H59.1059Z" fill="#333333"/>
<path d="M59.0649 32.2333C59.0714 32.2268 59.0845 32.2268 59.091 32.2268V32.2202C59.091 32.2137 59.0845 32.2137 59.0845 32.2137C58.8688 32.168 58.6532 32.1222 58.4375 32.083C58.6532 32.1418 58.8623 32.1876 59.0649 32.2333ZM59.0649 32.2333C59.0714 32.2268 59.0845 32.2268 59.091 32.2268V32.2202C59.091 32.2137 59.0845 32.2137 59.0845 32.2137C58.8688 32.168 58.6532 32.1222 58.4375 32.083C58.6532 32.1418 58.8623 32.1876 59.0649 32.2333ZM59.0649 32.2333C59.0714 32.2268 59.0845 32.2268 59.091 32.2268V32.2202C59.091 32.2137 59.0845 32.2137 59.0845 32.2137C58.8688 32.168 58.6532 32.1222 58.4375 32.083C58.6532 32.1418 58.8623 32.1876 59.0649 32.2333ZM59.0649 32.2333C59.0714 32.2268 59.0845 32.2268 59.091 32.2268V32.2202C59.091 32.2137 59.0845 32.2137 59.0845 32.2137C58.8688 32.168 58.6532 32.1222 58.4375 32.083C58.6532 32.1418 58.8623 32.1876 59.0649 32.2333ZM59.0649 32.2333C59.0714 32.2268 59.0845 32.2268 59.091 32.2268V32.2202C59.091 32.2137 59.0845 32.2137 59.0845 32.2137C58.8688 32.168 58.6532 32.1222 58.4375 32.083C58.6532 32.1418 58.8623 32.1876 59.0649 32.2333Z" fill="white"/>
<path d="M31.3359 50.6681C31.3359 47.773 31.6431 44.9629 32.2247 42.2899C32.7998 39.6236 33.6494 37.0879 34.7212 34.7222C37.0673 33.6569 39.5834 32.8139 42.2236 32.2388C44.9227 31.6506 47.7524 31.3369 50.6737 31.3369C53.34 31.3369 55.9411 31.5983 58.431 32.095C58.4375 32.095 58.444 32.1015 58.444 32.1015C58.6532 32.1473 58.8558 32.1996 59.0649 32.2453C58.8558 32.2911 58.6532 32.3368 58.444 32.3891C58.6597 32.3499 58.8754 32.3041 59.091 32.2584C57.5683 39.2576 54.1962 45.3615 49.6346 49.7597C45.2429 54.269 39.1782 57.602 32.2313 59.1116V59.1051C32.2247 59.092 32.2247 59.0789 32.2247 59.0659C31.6431 56.3799 31.3359 53.5632 31.3359 50.6681Z" fill="white"/>
<path d="M58.4453 32.0947C58.661 32.1339 58.8766 32.1797 59.0923 32.2254C59.0923 32.2254 59.0988 32.2254 59.0988 32.232V32.2385C59.0923 32.2385 59.0792 32.2385 59.0727 32.245C58.8636 32.1862 58.6544 32.1405 58.4453 32.0947Z" fill="white"/>
<path d="M32.2409 59.1049C34.9269 59.6865 37.7501 60.0002 40.6583 60.0002C46.4354 60.0002 51.8727 58.7716 56.6108 56.615C58.7674 51.8769 59.996 46.4396 59.996 40.6625C59.996 37.7543 59.6823 34.9311 59.1007 32.2451C59.1007 32.2517 59.0942 32.2517 59.0942 32.2517C57.5714 39.2509 54.1993 45.3548 49.6377 49.753C45.246 54.2623 39.1813 57.5953 32.2344 59.1049H32.2409Z" fill="#333333"/>
<path d="M27.7734 59.0727C27.78 59.0792 27.78 59.0923 27.78 59.0988H27.7865C27.793 59.0988 27.793 59.0923 27.793 59.0923C27.8388 58.8766 27.8845 58.661 27.9237 58.4453C27.8715 58.661 27.8192 58.8701 27.7734 59.0727ZM27.7734 59.0727C27.78 59.0792 27.78 59.0923 27.78 59.0988H27.7865C27.793 59.0988 27.793 59.0923 27.793 59.0923C27.8388 58.8766 27.8845 58.661 27.9237 58.4453C27.8715 58.661 27.8192 58.8701 27.7734 59.0727ZM27.7734 59.0727C27.78 59.0792 27.78 59.0923 27.78 59.0988H27.7865C27.793 59.0988 27.793 59.0923 27.793 59.0923C27.8388 58.8766 27.8845 58.661 27.9237 58.4453C27.8715 58.661 27.8192 58.8701 27.7734 59.0727ZM27.7734 59.0727C27.78 59.0792 27.78 59.0923 27.78 59.0988H27.7865C27.793 59.0988 27.793 59.0923 27.793 59.0923C27.8388 58.8766 27.8845 58.661 27.9237 58.4453C27.8715 58.661 27.8192 58.8701 27.7734 59.0727ZM27.7734 59.0727C27.78 59.0792 27.78 59.0923 27.78 59.0988H27.7865C27.793 59.0988 27.793 59.0923 27.793 59.0923C27.8388 58.8766 27.8845 58.661 27.9237 58.4453C27.8715 58.661 27.8192 58.8701 27.7734 59.0727Z" fill="#00AF78"/>
<path d="M9.33541 31.3311C12.2305 31.3311 15.0407 31.6382 17.7201 32.2198C20.393 32.7949 22.9287 33.6445 25.2944 34.7228C26.3597 37.069 27.2027 39.585 27.7778 42.2318C28.366 44.9309 28.6797 47.7671 28.6797 50.6819C28.6797 53.3548 28.4183 55.9492 27.9216 58.4392C27.9216 58.4457 27.9151 58.4522 27.9151 58.4522C27.8693 58.6614 27.817 58.864 27.7713 59.0731C27.7255 58.864 27.6798 58.6614 27.6275 58.4522C27.6667 58.6679 27.7125 58.8836 27.7582 59.0992C20.7524 57.5765 14.6486 54.1978 10.2503 49.6428C5.74104 45.2445 2.40807 39.1864 0.898438 32.2329H0.904972C0.918042 32.2264 0.931113 32.2264 0.944184 32.2264C3.62363 31.6382 6.44031 31.3311 9.33541 31.3311Z" fill="#00AF78"/>
<path d="M27.9237 58.4521C27.8845 58.6678 27.8388 58.8835 27.793 59.0991C27.793 59.0991 27.793 59.1057 27.7865 59.1057H27.78C27.78 59.0991 27.78 59.0861 27.7734 59.0795C27.8257 58.8704 27.878 58.6613 27.9237 58.4521Z" fill="#00AF78"/>
<path d="M0.895325 32.2324C0.31369 34.9184 0 37.7416 0 40.6498C0 46.4335 1.22862 51.8708 3.39178 56.6088C8.12982 58.7654 13.5671 60.0006 19.3508 60.0006C22.259 60.0006 25.0822 59.6869 27.7747 59.1053C27.7682 59.1053 27.7682 59.0987 27.7682 59.0987C20.7624 57.576 14.6585 54.1973 10.2603 49.6423C5.751 45.2441 2.41803 39.1859 0.908396 32.2324H0.895325Z" fill="#333333"/>
</svg>
