<svg width="196" height="44" viewBox="0 0 196 44" fill="none" xmlns="http://www.w3.org/2000/svg">
<path d="M184.593 24.2689V31.7338H180.469V12.2808H186.13C188.761 12.2808 190.713 12.7636 191.984 13.7294C193.265 14.6853 193.906 16.1438 193.906 18.1049C193.906 19.248 193.59 20.2679 192.96 21.1647C192.339 22.0516 191.447 22.7513 190.284 23.2638C193.211 27.6294 195.118 30.4527 196.005 31.7338H191.422L186.781 24.2689H184.593ZM184.593 15.6658V20.9134H185.923C187.224 20.9134 188.185 20.6966 188.806 20.263C189.427 19.8294 189.737 19.1544 189.737 18.2379C189.737 17.3214 189.422 16.6661 188.791 16.2719C188.17 15.8679 187.185 15.6658 185.835 15.6658H184.593Z" fill="#202020"/>
<path d="M177.581 28.334V31.7338H166.391V12.2808H177.581V15.6658H170.515V19.9378H177.093V23.3081H170.515V28.334H177.581Z" fill="#202020"/>
<path d="M157.266 23.855L160.947 12.2808H165.115L158.508 31.7338H153.999L147.406 12.2808H151.575L155.226 23.855C155.403 24.4562 155.605 25.2298 155.832 26.1758C156.068 27.1219 156.211 27.7772 156.261 28.1418C156.369 27.2549 156.704 25.826 157.266 23.855Z" fill="#202020"/>
<path d="M146.132 31.7338H142.008V12.2808H146.132V31.7338Z" fill="#202020"/>
<path d="M129.312 31.7338V24.2689H131.499L136.141 31.7338H140.723C139.836 30.4527 137.93 27.6294 135.003 23.2638C136.166 22.7513 137.057 22.0516 137.678 21.1647C138.309 20.2679 138.624 19.248 138.624 18.1049C138.624 16.1438 136.703 13.7294 136.703 13.7294L133.51 16.2719C134.14 16.6661 134.456 17.3214 134.456 18.2379C134.456 19.1544 134.145 19.8294 133.525 20.263C132.904 20.6966 131.943 20.9134 130.642 20.9134H129.312V12.2808H125.188V31.7338H129.312Z" fill="#FB995A"/>
<path d="M121.446 12.2808V31.7338H116.198L107.743 17.0258H107.625C107.792 19.6865 107.876 21.5392 107.876 22.5838V31.7338H104.195V12.2808H109.384L117.839 26.8558H117.928C117.8 24.4217 117.736 22.6331 117.736 21.4899V12.2808H121.446Z" fill="#202020"/>
<path d="M101.307 28.334V31.7338H90.1172V12.2808H101.307V15.6658H94.2414V19.9378H100.819V23.3081H94.2414V28.334H101.307Z" fill="#202020"/>
<path d="M78.9358 24.2395V20.8101H86.652V30.8914C84.4249 31.6305 82.1189 32 79.7341 32C76.8072 32 74.5653 31.1377 73.0083 29.4132C71.4611 27.6886 70.6875 25.2397 70.6875 22.0665C70.6875 18.8835 71.5843 16.41 73.3778 14.646C75.1911 12.882 77.6843 12 80.8575 12C82.858 12 84.7796 12.3991 86.6225 13.1973L85.2625 16.5085C83.8435 15.799 82.3653 15.4442 80.8279 15.4442C79.0541 15.4442 77.6252 16.0453 76.5412 17.2476C75.467 18.44 74.9299 20.071 74.9299 22.1404C74.9299 24.2 75.3635 25.7866 76.2307 26.9002C77.0979 28.0138 78.3544 28.5706 80.0001 28.5706C80.8575 28.5706 81.7296 28.4819 82.6165 28.3045V24.2395H78.9358Z" fill="#202020"/>
<path d="M70.8027 31.734H66.3533L64.949 27.1073H57.8537L56.4494 31.734H52L58.8588 12.207H63.8995L70.8027 31.734ZM58.8884 23.6483H63.9586L61.7561 16.5381C61.5984 16.006 61.4802 15.5675 61.4013 15.2226C61.1353 16.2869 60.2976 19.0954 58.8884 23.6483Z" fill="#202020"/>
<path d="M0.683233 20.3584C0.67844 20.3632 0.668855 20.3632 0.664062 20.3632V20.368C0.664062 20.3728 0.668856 20.3728 0.668856 20.3728C0.827009 20.4063 0.98516 20.4399 1.14331 20.4686C0.98516 20.4303 0.836593 20.3919 0.683233 20.3584ZM0.683233 20.3584C0.67844 20.3632 0.668855 20.3632 0.664062 20.3632V20.368C0.664062 20.3728 0.668856 20.3728 0.668856 20.3728C0.827009 20.4063 0.98516 20.4399 1.14331 20.4686C0.98516 20.4303 0.836593 20.3919 0.683233 20.3584ZM0.683233 20.3584C0.67844 20.3632 0.668855 20.3632 0.664062 20.3632V20.368C0.664062 20.3728 0.668856 20.3728 0.668856 20.3728C0.827009 20.4063 0.98516 20.4399 1.14331 20.4686C0.98516 20.4303 0.836593 20.3919 0.683233 20.3584ZM0.683233 20.3584C0.67844 20.3632 0.668855 20.3632 0.664062 20.3632V20.368C0.664062 20.3728 0.668856 20.3728 0.668856 20.3728C0.827009 20.4063 0.98516 20.4399 1.14331 20.4686C0.98516 20.4303 0.836593 20.3919 0.683233 20.3584ZM0.683233 20.3584C0.67844 20.3632 0.668855 20.3632 0.664062 20.3632V20.368C0.664062 20.3728 0.668856 20.3728 0.668856 20.3728C0.827009 20.4063 0.98516 20.4399 1.14331 20.4686C0.98516 20.4303 0.836593 20.3919 0.683233 20.3584Z" fill="#FB995A"/>
<path d="M21.0178 6.83889C21.0178 8.96197 20.7926 11.0227 20.3661 12.9829C19.9443 14.9382 19.3213 16.7977 18.5353 18.5326C16.8148 19.3138 14.9697 19.932 13.0335 20.3538C11.0542 20.7851 8.97906 21.0151 6.83681 21.0151C4.88147 21.0151 2.97405 20.8234 1.14811 20.4592C1.14331 20.4592 1.13852 20.4544 1.13852 20.4544C0.985161 20.4209 0.836593 20.3825 0.683233 20.349C0.836593 20.3154 0.985161 20.2819 1.13852 20.2435C0.980369 20.2723 0.822215 20.3058 0.664062 20.3394C1.78072 15.2066 4.25365 10.7304 7.59882 7.50505C10.8194 4.19822 15.2668 1.75404 20.3613 0.646973V0.651765C20.3661 0.66135 20.3661 0.670935 20.3661 0.68052C20.7926 2.65503 21.0178 4.71581 21.0178 6.83889Z" fill="#FB995A"/>
<path d="M1.1355 20.464C0.977348 20.4352 0.819194 20.4017 0.661042 20.3681C0.661042 20.3681 0.65625 20.3681 0.65625 20.3633V20.3586C0.661043 20.3586 0.670628 20.3586 0.67542 20.3538C0.833573 20.3921 0.98214 20.4304 1.1355 20.464Z" fill="#FB995A"/>
<path d="M20.3616 0.656573C18.3871 0.23004 16.3215 0 14.1888 0C9.95226 0 5.9649 0.900991 2.49033 2.48252C0.908804 5.95709 0.0078125 9.94445 0.0078125 14.181C0.0078125 16.3137 0.237852 18.3841 0.664385 20.3538C0.664385 20.349 0.669179 20.349 0.669179 20.349C1.78583 15.2162 4.25877 10.74 7.60394 7.51465C10.8245 4.20782 15.2719 1.76364 20.3664 0.656573H20.3616Z" fill="#DFE0DF"/>
<path d="M23.6259 0.675664C23.6211 0.670872 23.6211 0.661287 23.6211 0.656494H23.6163C23.6115 0.656494 23.6115 0.661287 23.6115 0.661287C23.5779 0.819439 23.5444 0.977592 23.5156 1.13574C23.5588 0.982385 23.5923 0.829024 23.6259 0.675664ZM23.6259 0.675664C23.6211 0.670872 23.6211 0.661287 23.6211 0.656494H23.6163C23.6115 0.656494 23.6115 0.661287 23.6115 0.661287C23.5779 0.819439 23.5444 0.977592 23.5156 1.13574C23.5588 0.982385 23.5923 0.829024 23.6259 0.675664ZM23.6259 0.675664C23.6211 0.670872 23.6211 0.661287 23.6211 0.656494H23.6163C23.6115 0.656494 23.6115 0.661287 23.6115 0.661287C23.5779 0.819439 23.5444 0.977592 23.5156 1.13574C23.5588 0.982385 23.5923 0.829024 23.6259 0.675664ZM23.6259 0.675664C23.6211 0.670872 23.6211 0.661287 23.6211 0.656494H23.6163C23.6115 0.656494 23.6115 0.661287 23.6115 0.661287C23.5779 0.819439 23.5444 0.977592 23.5156 1.13574C23.5588 0.982385 23.5923 0.829024 23.6259 0.675664ZM23.6259 0.675664C23.6211 0.670872 23.6211 0.661287 23.6211 0.656494H23.6163C23.6115 0.656494 23.6115 0.661287 23.6115 0.661287C23.5779 0.819439 23.5444 0.977592 23.5156 1.13574C23.5588 0.982385 23.5923 0.829024 23.6259 0.675664Z" fill="#596EFF"/>
<path d="M37.1546 21.0196C35.0315 21.0196 32.9707 20.7944 31.0058 20.3678C29.0456 19.9461 27.1862 19.3231 25.4513 18.5323C24.6701 16.8118 24.0519 14.9667 23.6301 13.0257C23.1988 11.0464 22.9688 8.96646 22.9688 6.829C22.9688 4.86886 23.1605 2.96624 23.5247 1.14029C23.5247 1.1355 23.5295 1.13071 23.5295 1.13071C23.563 0.977348 23.6014 0.82878 23.6349 0.67542C23.6685 0.82878 23.702 0.977348 23.7403 1.13071C23.7116 0.972555 23.678 0.814403 23.6445 0.65625C28.7821 1.7729 33.2583 4.25063 36.4836 7.59101C39.7905 10.8164 42.2346 15.259 43.3417 20.3582H43.3369C43.3273 20.363 43.3177 20.363 43.3081 20.363C41.3384 20.7944 39.2777 21.0196 37.1546 21.0196Z" fill="#596EFF"/>
<path d="M23.5234 1.13111C23.5522 0.972953 23.5857 0.814801 23.6193 0.656648C23.6193 0.656648 23.6193 0.651855 23.6241 0.651855H23.6289C23.6289 0.656648 23.6289 0.666233 23.6337 0.671025C23.5905 0.829178 23.557 0.982538 23.5234 1.13111Z" fill="#596EFF"/>
<path d="M43.3444 20.3634C43.7709 18.3936 44.001 16.3233 44.001 14.1906C44.001 9.94924 43.1 5.96188 41.5137 2.48731C38.0343 0.900991 34.0517 0 29.8104 0C27.6777 0 25.6073 0.23004 23.6328 0.656573C23.6376 0.656573 23.6376 0.661366 23.6376 0.661366C28.7752 1.77802 33.2514 4.25575 36.4767 7.59612C39.7836 10.8215 42.2277 15.2641 43.3348 20.3634H43.3444Z" fill="#DFE0DF"/>
<path d="M43.3116 23.6366C43.3164 23.6318 43.326 23.6318 43.3308 23.6318V23.627C43.3308 23.6222 43.326 23.6222 43.326 23.6222C43.1679 23.5887 43.0097 23.5551 42.8516 23.5264C43.0097 23.5695 43.1631 23.603 43.3116 23.6366ZM43.3116 23.6366C43.3164 23.6318 43.326 23.6318 43.3308 23.6318V23.627C43.3308 23.6222 43.326 23.6222 43.326 23.6222C43.1679 23.5887 43.0097 23.5551 42.8516 23.5264C43.0097 23.5695 43.1631 23.603 43.3116 23.6366ZM43.3116 23.6366C43.3164 23.6318 43.326 23.6318 43.3308 23.6318V23.627C43.3308 23.6222 43.326 23.6222 43.326 23.6222C43.1679 23.5887 43.0097 23.5551 42.8516 23.5264C43.0097 23.5695 43.1631 23.603 43.3116 23.6366ZM43.3116 23.6366C43.3164 23.6318 43.326 23.6318 43.3308 23.6318V23.627C43.3308 23.6222 43.326 23.6222 43.326 23.6222C43.1679 23.5887 43.0097 23.5551 42.8516 23.5264C43.0097 23.5695 43.1631 23.603 43.3116 23.6366ZM43.3116 23.6366C43.3164 23.6318 43.326 23.6318 43.3308 23.6318V23.627C43.3308 23.6222 43.326 23.6222 43.326 23.6222C43.1679 23.5887 43.0097 23.5551 42.8516 23.5264C43.0097 23.5695 43.1631 23.603 43.3116 23.6366Z" fill="#FB995A"/>
<path d="M22.9766 37.1562C22.9766 35.0331 23.2018 32.9724 23.6283 31.0122C24.0501 29.0569 24.6731 27.1974 25.4591 25.4625C27.1796 24.6813 29.0247 24.0631 30.9609 23.6413C32.9402 23.21 35.0153 22.98 37.1576 22.98C39.1129 22.98 41.0203 23.1717 42.8463 23.5359C42.8511 23.5359 42.8559 23.5407 42.8559 23.5407C43.0092 23.5743 43.1578 23.6126 43.3112 23.6461C43.1578 23.6797 43.0092 23.7132 42.8559 23.7516C43.014 23.7228 43.1722 23.6893 43.3303 23.6557C42.2137 28.7885 39.7407 33.2647 36.3956 36.4901C33.175 39.7969 28.7276 42.2411 23.6331 43.3481V43.3433C23.6283 43.3338 23.6283 43.3242 23.6283 43.3146C23.2018 41.3449 22.9766 39.2793 22.9766 37.1562Z" fill="#FB995A"/>
<path d="M42.8594 23.5361C43.0175 23.5649 43.1757 23.5984 43.3338 23.632C43.3338 23.632 43.3386 23.632 43.3386 23.6368V23.6416C43.3338 23.6416 43.3242 23.6416 43.3195 23.6464C43.1661 23.6032 43.0127 23.5697 42.8594 23.5361Z" fill="#FB995A"/>
<path d="M23.6376 43.3434C25.6073 43.77 27.6777 44 29.8104 44C34.0469 44 38.0343 43.099 41.5089 41.5175C43.0904 38.0429 43.9914 34.0556 43.9914 29.819C43.9914 27.6863 43.7613 25.616 43.3348 23.6462C43.3348 23.651 43.33 23.651 43.33 23.651C42.2134 28.7838 39.7404 33.26 36.3953 36.4854C33.1747 39.7922 28.7272 42.2364 23.6328 43.3434H23.6376Z" fill="#DFE0DF"/>
<path d="M20.3672 43.3195C20.372 43.3242 20.372 43.3338 20.372 43.3386H20.3768C20.3816 43.3386 20.3816 43.3338 20.3816 43.3338C20.4151 43.1757 20.4487 43.0175 20.4774 42.8594C20.4391 43.0175 20.4007 43.1709 20.3672 43.3195ZM20.3672 43.3195C20.372 43.3242 20.372 43.3338 20.372 43.3386H20.3768C20.3816 43.3386 20.3816 43.3338 20.3816 43.3338C20.4151 43.1757 20.4487 43.0175 20.4774 42.8594C20.4391 43.0175 20.4007 43.1709 20.3672 43.3195ZM20.3672 43.3195C20.372 43.3242 20.372 43.3338 20.372 43.3386H20.3768C20.3816 43.3386 20.3816 43.3338 20.3816 43.3338C20.4151 43.1757 20.4487 43.0175 20.4774 42.8594C20.4391 43.0175 20.4007 43.1709 20.3672 43.3195ZM20.3672 43.3195C20.372 43.3242 20.372 43.3338 20.372 43.3386H20.3768C20.3816 43.3386 20.3816 43.3338 20.3816 43.3338C20.4151 43.1757 20.4487 43.0175 20.4774 42.8594C20.4391 43.0175 20.4007 43.1709 20.3672 43.3195ZM20.3672 43.3195C20.372 43.3242 20.372 43.3338 20.372 43.3386H20.3768C20.3816 43.3386 20.3816 43.3338 20.3816 43.3338C20.4151 43.1757 20.4487 43.0175 20.4774 42.8594C20.4391 43.0175 20.4007 43.1709 20.3672 43.3195Z" fill="#596EFF"/>
<path d="M6.84338 22.9753C8.96646 22.9753 11.0272 23.2006 12.9922 23.6271C14.9523 24.0489 16.8118 24.6719 18.5467 25.4627C19.3279 27.1832 19.9461 29.0283 20.3678 30.9692C20.7992 32.9486 21.0292 35.0285 21.0292 37.166C21.0292 39.1261 20.8375 41.0287 20.4733 42.8547C20.4733 42.8595 20.4685 42.8642 20.4685 42.8642C20.4349 43.0176 20.3966 43.1662 20.363 43.3195C20.3295 43.1662 20.2959 43.0176 20.2576 42.8642C20.2864 43.0224 20.3199 43.1805 20.3535 43.3387C15.2159 42.222 10.7397 39.7443 7.51433 36.4039C4.2075 33.1786 1.76332 28.7359 0.65625 23.6367H0.661042C0.670627 23.6319 0.680212 23.6319 0.689797 23.6319C2.65472 23.2006 4.7203 22.9753 6.84338 22.9753Z" fill="#596EFF"/>
<path d="M20.4696 42.8643C20.4408 43.0224 20.4073 43.1806 20.3738 43.3387C20.3738 43.3387 20.3738 43.3435 20.369 43.3435H20.3642C20.3642 43.3387 20.3642 43.3291 20.3594 43.3243C20.3977 43.171 20.4361 43.0176 20.4696 42.8643Z" fill="#596EFF"/>
<path d="M0.656573 23.6367C0.23004 25.6064 0 27.6768 0 29.8095C0 34.0508 0.900991 38.0382 2.48731 41.5128C5.96188 43.0943 9.94924 44.0001 14.1906 44.0001C16.3233 44.0001 18.3936 43.77 20.3682 43.3435C20.3634 43.3435 20.3634 43.3387 20.3634 43.3387C15.2258 42.2221 10.7496 39.7443 7.52424 36.404C4.21741 33.1786 1.77323 28.7359 0.666158 23.6367H0.656573Z" fill="#DFE0DF"/>
</svg>
