<svg width="268" height="60" viewBox="0 0 268 60" fill="none" xmlns="http://www.w3.org/2000/svg">
<path d="M251.718 33.0946V43.274H246.094V16.7471H253.814C257.402 16.7471 260.063 17.4055 261.796 18.7225C263.543 20.026 264.417 22.0148 264.417 24.689C264.417 26.2478 263.987 27.6387 263.127 28.8616C262.28 30.071 261.064 31.0251 259.478 31.7239C263.469 37.677 266.07 41.527 267.279 43.274H261.03L254.701 33.0946H251.718ZM251.718 21.3631V28.5189H253.532C255.306 28.5189 256.616 28.2233 257.462 27.632C258.309 27.0407 258.732 26.1202 258.732 24.8704C258.732 23.6207 258.302 22.727 257.442 22.1895C256.596 21.6386 255.252 21.3631 253.411 21.3631H251.718Z" fill="white"/>
<path d="M242.15 38.6378V43.274H226.891V16.7471H242.15V21.3631H232.514V27.1885H241.484V31.7844H232.514V38.6378H242.15Z" fill="white"/>
<path d="M214.445 32.5302L219.464 16.7471H225.148L216.138 43.274H209.99L201 16.7471H206.684L211.663 32.5302C211.905 33.3499 212.181 34.4048 212.49 35.6949C212.812 36.9849 213.007 37.8786 213.074 38.3758C213.222 37.1663 213.679 35.2178 214.445 32.5302Z" fill="white"/>
<path d="M199.264 43.274H193.641V16.7471H199.264V43.274Z" fill="white"/>
<path d="M176.327 43.274V33.0946H179.31L185.64 43.274H191.888C190.679 41.527 188.079 37.677 184.088 31.7239C185.673 31.0251 186.889 30.071 187.736 28.8616C188.596 27.6387 189.026 26.2478 189.026 24.689C189.026 22.0148 186.406 18.7225 186.406 18.7225L182.052 22.1895C182.912 22.727 183.342 23.6207 183.342 24.8704C183.342 26.1202 182.918 27.0407 182.072 27.632C181.225 28.2233 179.915 28.5189 178.141 28.5189H176.327V16.7471H170.703V43.274H176.327Z" fill="#FB995A"/>
<path d="M165.609 16.7471V43.274H158.454L146.924 23.2175H146.762C146.991 26.8458 147.105 29.3722 147.105 30.7967V43.274H142.086V16.7471H149.161L160.691 36.6221H160.812C160.637 33.3029 160.55 30.8638 160.55 29.305V16.7471H165.609Z" fill="white"/>
<path d="M138.15 38.6378V43.274H122.891V16.7471H138.15V21.3631H128.514V27.1885H137.484V31.7844H128.514V38.6378H138.15Z" fill="white"/>
<path d="M107.638 33.054V28.3775H118.16V42.1247C115.123 43.1326 111.979 43.6365 108.727 43.6365C104.736 43.6365 101.679 42.4607 99.5553 40.109C97.4455 37.7573 96.3906 34.4179 96.3906 30.0908C96.3906 25.7503 97.6135 22.3773 100.059 19.9719C102.532 17.5665 105.932 16.3638 110.259 16.3638C112.987 16.3638 115.607 16.908 118.12 17.9965L116.266 22.5117C114.331 21.5442 112.315 21.0604 110.218 21.0604C107.8 21.0604 105.851 21.8801 104.373 23.5196C102.908 25.1456 102.176 27.3696 102.176 30.1916C102.176 33.0002 102.767 35.1637 103.95 36.6823C105.132 38.2008 106.846 38.96 109.09 38.96C110.259 38.96 111.448 38.8391 112.658 38.5972V33.054H107.638Z" fill="white"/>
<path d="M96.5462 43.2737H90.4789L88.564 36.9645H78.8885L76.9736 43.2737H70.9062L80.2592 16.646H87.1328L96.5462 43.2737ZM80.2995 32.2477H87.2134L84.21 22.5521C83.995 21.8264 83.8338 21.2284 83.7262 20.7581C83.3634 22.2094 82.2212 26.0393 80.2995 32.2477Z" fill="white"/>
<path d="M0.932392 27.7627C0.925856 27.7692 0.912785 27.7692 0.90625 27.7692V27.7758C0.90625 27.7823 0.912787 27.7823 0.912787 27.7823C1.12845 27.828 1.34411 27.8738 1.55977 27.913C1.34411 27.8607 1.14152 27.8084 0.932392 27.7627ZM0.932392 27.7627C0.925856 27.7692 0.912785 27.7692 0.90625 27.7692V27.7758C0.90625 27.7823 0.912787 27.7823 0.912787 27.7823C1.12845 27.828 1.34411 27.8738 1.55977 27.913C1.34411 27.8607 1.14152 27.8084 0.932392 27.7627ZM0.932392 27.7627C0.925856 27.7692 0.912785 27.7692 0.90625 27.7692V27.7758C0.90625 27.7823 0.912787 27.7823 0.912787 27.7823C1.12845 27.828 1.34411 27.8738 1.55977 27.913C1.34411 27.8607 1.14152 27.8084 0.932392 27.7627ZM0.932392 27.7627C0.925856 27.7692 0.912785 27.7692 0.90625 27.7692V27.7758C0.90625 27.7823 0.912787 27.7823 0.912787 27.7823C1.12845 27.828 1.34411 27.8738 1.55977 27.913C1.34411 27.8607 1.14152 27.8084 0.932392 27.7627ZM0.932392 27.7627C0.925856 27.7692 0.912785 27.7692 0.90625 27.7692V27.7758C0.90625 27.7823 0.912787 27.7823 0.912787 27.7823C1.12845 27.828 1.34411 27.8738 1.55977 27.913C1.34411 27.8607 1.14152 27.8084 0.932392 27.7627Z" fill="#FB995A"/>
<path d="M28.6614 9.32634C28.6614 12.2214 28.3542 15.0316 27.7726 17.7045C27.1975 20.3709 26.3479 22.9066 25.2761 25.2723C22.93 26.3376 20.4139 27.1806 17.7737 27.7557C15.0746 28.3439 12.2449 28.6576 9.32363 28.6576C6.65726 28.6576 4.05623 28.3962 1.56631 27.8995C1.55977 27.8995 1.55324 27.8929 1.55324 27.8929C1.34411 27.8472 1.14152 27.7949 0.932392 27.7492C1.14152 27.7034 1.34411 27.6577 1.55324 27.6054C1.33758 27.6446 1.12191 27.6904 0.90625 27.7361C2.42896 20.7369 5.80114 14.6329 10.3627 10.2347C14.7544 5.72542 20.8191 2.39245 27.7661 0.882812V0.889348C27.7726 0.902418 27.7726 0.915489 27.7726 0.928559C28.3542 3.62108 28.6614 6.43123 28.6614 9.32634Z" fill="#FB995A"/>
<path d="M1.55196 27.9067C1.3363 27.8674 1.12063 27.8217 0.904972 27.776C0.904972 27.776 0.898438 27.776 0.898438 27.7694V27.7629C0.904973 27.7629 0.918044 27.7629 0.924579 27.7563C1.14024 27.8086 1.34283 27.8609 1.55196 27.9067Z" fill="#FB995A"/>
<path d="M27.763 0.895327C25.0704 0.313691 22.2538 0 19.3456 0C13.5684 0 8.13111 1.22862 3.39306 3.38525C1.23644 8.1233 0.0078125 13.5606 0.0078125 19.3378C0.0078125 22.2459 0.321503 25.0692 0.903139 27.7551C0.903139 27.7486 0.909676 27.7486 0.909676 27.7486C2.43239 20.7494 5.80457 14.6455 10.3662 10.2473C14.7578 5.73794 20.8225 2.40497 27.7695 0.895327H27.763Z" fill="#2A2C40"/>
<path d="M32.2128 0.920672C32.2063 0.914137 32.2063 0.901066 32.2063 0.894531H32.1997C32.1932 0.894531 32.1932 0.901066 32.1932 0.901066C32.1475 1.11673 32.1017 1.33239 32.0625 1.54805C32.1213 1.33893 32.1671 1.1298 32.2128 0.920672ZM32.2128 0.920672C32.2063 0.914137 32.2063 0.901066 32.2063 0.894531H32.1997C32.1932 0.894531 32.1932 0.901066 32.1932 0.901066C32.1475 1.11673 32.1017 1.33239 32.0625 1.54805C32.1213 1.33893 32.1671 1.1298 32.2128 0.920672ZM32.2128 0.920672C32.2063 0.914137 32.2063 0.901066 32.2063 0.894531H32.1997C32.1932 0.894531 32.1932 0.901066 32.1932 0.901066C32.1475 1.11673 32.1017 1.33239 32.0625 1.54805C32.1213 1.33893 32.1671 1.1298 32.2128 0.920672ZM32.2128 0.920672C32.2063 0.914137 32.2063 0.901066 32.2063 0.894531H32.1997C32.1932 0.894531 32.1932 0.901066 32.1932 0.901066C32.1475 1.11673 32.1017 1.33239 32.0625 1.54805C32.1213 1.33893 32.1671 1.1298 32.2128 0.920672ZM32.2128 0.920672C32.2063 0.914137 32.2063 0.901066 32.2063 0.894531H32.1997C32.1932 0.894531 32.1932 0.901066 32.1932 0.901066C32.1475 1.11673 32.1017 1.33239 32.0625 1.54805C32.1213 1.33893 32.1671 1.1298 32.2128 0.920672Z" fill="#596EFF"/>
<path d="M50.6646 28.6628C47.7695 28.6628 44.9594 28.3556 42.2799 27.774C39.607 27.1989 37.0713 26.3493 34.7056 25.271C33.6403 22.9248 32.7973 20.4087 32.2222 17.762C31.634 15.0629 31.3203 12.2266 31.3203 9.31192C31.3203 6.639 31.5817 4.04452 32.0784 1.55459C32.0784 1.54805 32.0849 1.54152 32.0849 1.54152C32.1307 1.33239 32.183 1.1298 32.2287 0.920672C32.2745 1.1298 32.3202 1.33239 32.3725 1.54152C32.3333 1.32586 32.2875 1.11019 32.2418 0.894531C39.2476 2.41724 45.3515 5.79596 49.7497 10.351C54.259 14.7492 57.592 20.8074 59.1016 27.7609H59.0951C59.082 27.7674 59.0689 27.7674 59.0559 27.7674C56.3699 28.3556 53.5597 28.6628 50.6646 28.6628Z" fill="#596EFF"/>
<path d="M32.0781 1.54122C32.1173 1.32556 32.1631 1.10989 32.2088 0.894231C32.2088 0.894231 32.2088 0.887695 32.2154 0.887695H32.2219C32.2219 0.894231 32.2219 0.907301 32.2284 0.913836C32.1696 1.1295 32.1239 1.33863 32.0781 1.54122Z" fill="#596EFF"/>
<path d="M59.0982 27.7682C59.6798 25.0822 59.9935 22.259 59.9935 19.3508C59.9935 13.5672 58.7649 8.12983 56.6017 3.39179C51.8571 1.22862 46.4264 0 40.6427 0C37.7345 0 34.9113 0.313691 32.2188 0.895327C32.2253 0.895327 32.2253 0.901863 32.2253 0.901863C39.2311 2.42457 45.335 5.80329 49.7332 10.3583C54.2425 14.7566 57.5755 20.8147 59.0851 27.7682H59.0982Z" fill="#2A2C40"/>
<path d="M59.0649 32.2328C59.0714 32.2263 59.0845 32.2263 59.091 32.2263V32.2198C59.091 32.2132 59.0845 32.2132 59.0845 32.2132C58.8688 32.1675 58.6532 32.1217 58.4375 32.0825C58.6532 32.1413 58.8623 32.1871 59.0649 32.2328ZM59.0649 32.2328C59.0714 32.2263 59.0845 32.2263 59.091 32.2263V32.2198C59.091 32.2132 59.0845 32.2132 59.0845 32.2132C58.8688 32.1675 58.6532 32.1217 58.4375 32.0825C58.6532 32.1413 58.8623 32.1871 59.0649 32.2328ZM59.0649 32.2328C59.0714 32.2263 59.0845 32.2263 59.091 32.2263V32.2198C59.091 32.2132 59.0845 32.2132 59.0845 32.2132C58.8688 32.1675 58.6532 32.1217 58.4375 32.0825C58.6532 32.1413 58.8623 32.1871 59.0649 32.2328ZM59.0649 32.2328C59.0714 32.2263 59.0845 32.2263 59.091 32.2263V32.2198C59.091 32.2132 59.0845 32.2132 59.0845 32.2132C58.8688 32.1675 58.6532 32.1217 58.4375 32.0825C58.6532 32.1413 58.8623 32.1871 59.0649 32.2328ZM59.0649 32.2328C59.0714 32.2263 59.0845 32.2263 59.091 32.2263V32.2198C59.091 32.2132 59.0845 32.2132 59.0845 32.2132C58.8688 32.1675 58.6532 32.1217 58.4375 32.0825C58.6532 32.1413 58.8623 32.1871 59.0649 32.2328Z" fill="#FB995A"/>
<path d="M31.3359 50.6681C31.3359 47.773 31.6431 44.9629 32.2247 42.29C32.7998 39.6236 33.6494 37.0879 34.7212 34.7222C37.0673 33.6569 39.5834 32.8139 42.2236 32.2388C44.9227 31.6506 47.7524 31.3369 50.6737 31.3369C53.3401 31.3369 55.9411 31.5983 58.431 32.095C58.4376 32.095 58.4441 32.1015 58.4441 32.1015C58.6532 32.1473 58.8558 32.1996 59.0649 32.2453C58.8558 32.2911 58.6532 32.3368 58.4441 32.3891C58.6598 32.3499 58.8754 32.3041 59.0911 32.2584C57.5684 39.2576 54.1962 45.3615 49.6346 49.7597C45.2429 54.2691 39.1782 57.602 32.2313 59.1117V59.1051C32.2247 59.0921 32.2247 59.079 32.2247 59.0659C31.6431 56.3799 31.3359 53.5633 31.3359 50.6681Z" fill="#FB995A"/>
<path d="M58.4453 32.0947C58.661 32.1339 58.8766 32.1797 59.0923 32.2254C59.0923 32.2254 59.0988 32.2254 59.0988 32.232V32.2385C59.0923 32.2385 59.0792 32.2385 59.0727 32.245C58.8636 32.1862 58.6544 32.1405 58.4453 32.0947Z" fill="#FB995A"/>
<path d="M32.2409 59.1049C34.9269 59.6866 37.7501 60.0003 40.6583 60.0003C46.4354 60.0003 51.8728 58.7716 56.6108 56.615C58.7674 51.877 59.9961 46.4397 59.9961 40.6625C59.9961 37.7543 59.6824 34.9311 59.1007 32.2451C59.1007 32.2517 59.0942 32.2517 59.0942 32.2517C57.5715 39.2509 54.1993 45.3548 49.6377 49.753C45.246 54.2623 39.1813 57.5953 32.2344 59.1049H32.2409Z" fill="#2A2C40"/>
<path d="M27.7812 59.0727C27.7878 59.0792 27.7878 59.0923 27.7878 59.0988H27.7943C27.8009 59.0988 27.8009 59.0923 27.8009 59.0923C27.8466 58.8766 27.8924 58.661 27.9316 58.4453C27.8793 58.661 27.827 58.8701 27.7812 59.0727ZM27.7812 59.0727C27.7878 59.0792 27.7878 59.0923 27.7878 59.0988H27.7943C27.8009 59.0988 27.8009 59.0923 27.8009 59.0923C27.8466 58.8766 27.8924 58.661 27.9316 58.4453C27.8793 58.661 27.827 58.8701 27.7812 59.0727ZM27.7812 59.0727C27.7878 59.0792 27.7878 59.0923 27.7878 59.0988H27.7943C27.8009 59.0988 27.8009 59.0923 27.8009 59.0923C27.8466 58.8766 27.8924 58.661 27.9316 58.4453C27.8793 58.661 27.827 58.8701 27.7812 59.0727ZM27.7812 59.0727C27.7878 59.0792 27.7878 59.0923 27.7878 59.0988H27.7943C27.8009 59.0988 27.8009 59.0923 27.8009 59.0923C27.8466 58.8766 27.8924 58.661 27.9316 58.4453C27.8793 58.661 27.827 58.8701 27.7812 59.0727ZM27.7812 59.0727C27.7878 59.0792 27.7878 59.0923 27.7878 59.0988H27.7943C27.8009 59.0988 27.8009 59.0923 27.8009 59.0923C27.8466 58.8766 27.8924 58.661 27.9316 58.4453C27.8793 58.661 27.827 58.8701 27.7812 59.0727Z" fill="#596EFF"/>
<path d="M9.33543 31.3311C12.2305 31.3311 15.0407 31.6382 17.7201 32.2198C20.393 32.7949 22.9287 33.6445 25.2945 34.7228C26.3597 37.069 27.2028 39.5851 27.7779 42.2318C28.366 44.9309 28.6797 47.7672 28.6797 50.6819C28.6797 53.3548 28.4183 55.9493 27.9216 58.4392C27.9216 58.4458 27.9151 58.4523 27.9151 58.4523C27.8694 58.6614 27.8171 58.864 27.7713 59.0731C27.7256 58.864 27.6798 58.6614 27.6276 58.4523C27.6668 58.668 27.7125 58.8836 27.7583 59.0993C20.7525 57.5766 14.6486 54.1978 10.2504 49.6428C5.74105 45.2446 2.40808 39.1864 0.898438 32.2329H0.904972C0.918042 32.2264 0.931113 32.2264 0.944184 32.2264C3.62363 31.6382 6.44032 31.3311 9.33543 31.3311Z" fill="#596EFF"/>
<path d="M27.9237 58.4521C27.8845 58.6678 27.8388 58.8835 27.793 59.0991C27.793 59.0991 27.793 59.1057 27.7865 59.1057H27.78C27.78 59.0991 27.78 59.0861 27.7734 59.0795C27.8257 58.8704 27.878 58.6613 27.9237 58.4521Z" fill="#596EFF"/>
<path d="M0.895327 32.2324C0.313691 34.9184 0 37.7416 0 40.6498C0 46.4335 1.22862 51.8708 3.39179 56.6089C8.12983 58.7655 13.5671 60.0006 19.3508 60.0006C22.259 60.0006 25.0822 59.6869 27.7747 59.1053C27.7682 59.1053 27.7682 59.0988 27.7682 59.0988C20.7624 57.5761 14.6585 54.1973 10.2603 49.6423C5.75101 45.2441 2.41804 39.1859 0.908397 32.2324H0.895327Z" fill="#2A2C40"/>
</svg>
